<svg xmlns="http://www.w3.org/2000/svg" viewBox="0 0 615.96 149.89"><defs><style>.cls-1{fill:#fff;}.cls-2,.cls-3,.cls-4{fill:#515060;}.cls-3{opacity:0.41;}.cls-3,.cls-4{font-size:113.12px;font-family:PalatinoLinotype-Bold, Palatino Linotype;font-weight:700;}</style></defs><title>Recurso 1</title><g id="Capa_2" data-name="Capa 2"><g id="Layer_1" data-name="Layer 1"><polygon class="cls-1" points="612.14 75.55 612.47 74.94 573.68 3.5 570.26 3.5 45.7 3.5 42.29 3.5 3.5 74.94 3.83 75.55 3.5 76.12 10.12 87.15 42.29 146.39 45.7 146.39 570.26 146.39 573.68 146.39 605.84 87.15 612.47 76.12 612.14 75.55"/><path class="cls-2" d="M615.16,77.32c2.08-3.84-2.4-9.18-4.2-12.49L597.52,40.09,576.7,1.73a3.5,3.5,0,0,0-3-1.73H42.29a3.51,3.51,0,0,0-3,1.73L18.44,40.09,5,64.83C3.21,68.14-1.28,73.48.8,77.32V73.78l-.32.57a3.49,3.49,0,0,0,0,3.53c13.77,22.93,26,46.77,38.78,70.27a3.5,3.5,0,0,0,3,1.74H573.68a3.49,3.49,0,0,0,3-1.74c12.76-23.5,25-47.34,38.79-70.27a3.53,3.53,0,0,0,0-3.53l-.33-.57c-2.26-3.89-8.32-.37-6,3.54l.32.56V74.35c-13.77,22.93-26,46.77-38.78,70.27l3-1.73H42.29l3,1.73c-12.76-23.5-25-47.34-38.79-70.27v3.53a4.23,4.23,0,0,0,0-4.7v3.53L45.31,5.27,42.29,7H573.68l-3-1.73,38.78,71.44V73.18l-.32.6C607,77.74,613,81.28,615.16,77.32Z"/><circle class="cls-2" cx="592.02" cy="75.91" r="7.46"/><circle class="cls-2" cx="24.02" cy="74.91" r="7.46"/><text class="cls-3" transform="translate(131.87 111.56)">Bakery</text><text class="cls-4" transform="translate(125.87 108.56)">Bakery</text></g></g></svg>