<svg xmlns="http://www.w3.org/2000/svg" viewBox="0 0 379.57 339.48"><defs><style>.cls-1{fill:#515060;}.cls-2{fill:#ffba5f;}.cls-3{fill:#fc6363;}.cls-4{fill:#fff;}.cls-5{fill:#9b5c2d;}</style></defs><title>Recurso 9</title><g id="Capa_2" data-name="Capa 2"><g id="Layer_1" data-name="Layer 1"><path class="cls-1" d="M85.1,339.48H294.38c9.67,0,9.77-15,.11-15H85.21c-9.66,0-9.76,15-.11,15Z"/><path class="cls-1" d="M5.55,205.19l18.36,7.58A19.27,19.27,0,0,0,31,214.7c5.85.18,11.73,0,17.58,0H345.26c7.83,0,14.78-4,22-6.83L374,205.2c3.76-1.49,6.43-4.95,5.3-9.19-1-3.57-5.39-6.8-9.19-5.3l-18.64,7.37a26.27,26.27,0,0,0-3.83,1.51c-1.87,1.12.72-1.22,1,.1,0,0-1.07,0-1.12,0-5.88-.31-11.87,0-17.76,0H33.92c-.75,0-3.21-.44-3.87,0,.28-.18,2.12.86,1.43.1s-2.72-1.13-3.61-1.49l-11.59-4.79-6.77-2.79c-3.77-1.56-8.2,1.7-9.21,5.25-1.23,4.3,1.53,7.68,5.25,9.22Z"/><path class="cls-1" d="M197.3,332V211.87c0-9.66-15-9.77-15-.11V331.92c0,9.67,15,9.77,15,.11Z"/><path class="cls-1" d="M54.33,205.88c0-24-.11-48.06,0-72.09.21-47.4,28.91-91.15,72.74-109.61C145.27,16.51,164,15,183.47,15c17.64,0,35.24-.75,52.5,3.66,46.13,11.8,81.32,51.18,88.17,98.26,1.92,13.15,1.13,26.87,1.13,40.12v48.7c0,9.67,15,9.77,15,.11,0-25.63.89-51.41-.1-77a134.9,134.9,0,0,0-82.5-118.65C238,2,217.68,0,196.58,0c-19.13,0-38.15-.6-56.87,4.19C90.22,16.88,50.81,58.63,41.64,109c-2.74,15-2.32,30.13-2.32,45.32v51.47c0,9.67,15,9.77,15,.11Z"/><path class="cls-2" d="M109.39,148.85h-7.88a29.64,29.64,0,0,0-29.64,29.64v23.87H139V178.49A29.64,29.64,0,0,0,109.39,148.85Z"/><path class="cls-1" d="M109.39,145.35c-7.08,0-14-.21-20.65,2.58a33.38,33.38,0,0,0-18.51,19.64c-3.73,10.59-1.86,23.75-1.86,34.79a3.55,3.55,0,0,0,3.5,3.5H139a3.55,3.55,0,0,0,3.5-3.5c0-9,.77-18.36-.21-27.32-1.85-16.93-16.1-29.3-32.94-29.69-4.5-.11-4.5,6.89,0,7,14.84.34,26,12,26.15,26.79.06,7.74,0,15.48,0,23.22l3.5-3.5H71.87l3.5,3.5c0-9-1-18.59.25-27.53A26.39,26.39,0,0,1,91,154.53c5.87-2.58,12.1-2.18,18.35-2.18C113.9,152.35,113.91,145.35,109.39,145.35Z"/><path class="cls-3" d="M118.65,146.17c0,8.89-5.66,10.37-12.65,10.37s-12.66-1.48-12.66-10.37S99,123.42,106,123.42,118.65,137.29,118.65,146.17Z"/><path class="cls-1" d="M115.15,146.17c-.14,3.68-1.22,5.77-4.9,6.57a21.31,21.31,0,0,1-9-.11c-6.61-1.69-4.34-10.59-2.77-15.37,1.19-3.63,5-13.34,10-9.06,4.63,4,6.55,12.17,6.7,18,.12,4.5,7.12,4.52,7,0-.22-8.62-3.93-23-13.51-25.85-9.92-3-15.81,10.16-17.68,17.62-2.42,9.66-.87,20.23,10.56,21.8,10.48,1.45,20.17-1.73,20.63-13.57C122.33,141.67,115.32,141.68,115.15,146.17Z"/><rect class="cls-4" x="71.87" y="186.58" width="67.17" height="15.78"/><path class="cls-1" d="M139,198.86H71.87l3.5,3.5V186.58l-3.5,3.5H139l-3.5-3.5v15.78c0,4.51,7,4.51,7,0V186.58a3.55,3.55,0,0,0-3.5-3.5H71.87a3.55,3.55,0,0,0-3.5,3.5v15.78a3.55,3.55,0,0,0,3.5,3.5H139C143.54,205.86,143.55,198.86,139,198.86Z"/><path class="cls-5" d="M191.43,148.85h-7.88a29.64,29.64,0,0,0-29.65,29.64v23.87h67.17V178.49A29.64,29.64,0,0,0,191.43,148.85Z"/><path class="cls-1" d="M191.43,145.35c-7.09,0-14-.21-20.66,2.58a33.44,33.44,0,0,0-18.51,19.64c-3.72,10.59-1.86,23.75-1.86,34.79a3.56,3.56,0,0,0,3.5,3.5h67.17a3.55,3.55,0,0,0,3.5-3.5c0-9,.77-18.36-.21-27.32-1.85-16.93-16.1-29.3-32.93-29.69-4.51-.11-4.51,6.89,0,7,14.83.34,26,12,26.14,26.79.06,7.74,0,15.48,0,23.22l3.5-3.5H153.9l3.5,3.5c0-9-1-18.59.26-27.53a26.38,26.38,0,0,1,15.41-20.3c5.87-2.58,12.1-2.18,18.36-2.18C195.93,152.35,195.94,145.35,191.43,145.35Z"/><path class="cls-4" d="M200.68,146.17c0,8.89-5.66,10.37-12.65,10.37s-12.65-1.48-12.65-10.37S181,123.42,188,123.42,200.68,137.29,200.68,146.17Z"/><path class="cls-1" d="M197.18,146.17c-.14,3.68-1.22,5.77-4.9,6.57a21.31,21.31,0,0,1-9-.11c-6.61-1.69-4.34-10.59-2.77-15.37,1.19-3.63,5.05-13.34,10-9.06,4.63,4,6.55,12.17,6.7,18,.12,4.5,7.12,4.52,7,0-.22-8.62-3.93-23-13.5-25.85-9.93-3-15.81,10.16-17.68,17.62-2.42,9.66-.88,20.23,10.55,21.8,10.48,1.45,20.17-1.73,20.63-13.57C204.36,141.67,197.36,141.68,197.18,146.17Z"/><rect class="cls-4" x="153.9" y="186.58" width="67.17" height="15.78"/><path class="cls-1" d="M221.07,198.86H153.9l3.5,3.5V186.58l-3.5,3.5h67.17l-3.5-3.5v15.78c0,4.51,7,4.51,7,0V186.58a3.55,3.55,0,0,0-3.5-3.5H153.9a3.55,3.55,0,0,0-3.5,3.5v15.78a3.56,3.56,0,0,0,3.5,3.5h67.17C225.57,205.86,225.58,198.86,221.07,198.86Z"/><path class="cls-3" d="M274.61,148.85h-7.88a29.64,29.64,0,0,0-29.64,29.64v23.87h67.17V178.49A29.64,29.64,0,0,0,274.61,148.85Z"/><path class="cls-1" d="M274.61,145.35c-7.08,0-14-.21-20.65,2.58a33.38,33.38,0,0,0-18.51,19.64c-3.73,10.59-1.86,23.75-1.86,34.79a3.55,3.55,0,0,0,3.5,3.5h67.17a3.55,3.55,0,0,0,3.5-3.5c0-9,.77-18.36-.21-27.32-1.85-16.93-16.1-29.3-32.94-29.69-4.5-.11-4.5,6.89,0,7,14.84.34,26,12,26.15,26.79.06,7.74,0,15.48,0,23.22l3.5-3.5H237.09l3.5,3.5c0-9-1-18.59.25-27.53a26.4,26.4,0,0,1,15.41-20.3c5.88-2.58,12.11-2.18,18.36-2.18C279.12,152.35,279.13,145.35,274.61,145.35Z"/><path class="cls-5" d="M283.87,146.17c0,8.89-5.67,10.37-12.65,10.37s-12.66-1.48-12.66-10.37,5.67-22.75,12.66-22.75S283.87,137.29,283.87,146.17Z"/><path class="cls-1" d="M280.37,146.17c-.14,3.68-1.22,5.77-4.9,6.57a21.31,21.31,0,0,1-9-.11c-6.61-1.69-4.34-10.59-2.77-15.37,1.19-3.63,5-13.34,10-9.06,4.63,4,6.55,12.17,6.7,18,.12,4.5,7.12,4.52,7,0-.22-8.62-3.93-23-13.51-25.85-9.92-3-15.81,10.16-17.68,17.62-2.42,9.66-.87,20.23,10.55,21.8,10.49,1.45,20.18-1.73,20.64-13.57C287.54,141.67,280.54,141.68,280.37,146.17Z"/><rect class="cls-5" x="237.09" y="186.58" width="67.17" height="15.78"/><path class="cls-1" d="M304.26,198.86H237.09l3.5,3.5V186.58l-3.5,3.5h67.17l-3.5-3.5v15.78c0,4.51,7,4.51,7,0V186.58a3.56,3.56,0,0,0-3.5-3.5H237.09a3.55,3.55,0,0,0-3.5,3.5v15.78a3.55,3.55,0,0,0,3.5,3.5h67.17C308.76,205.86,308.77,198.86,304.26,198.86Z"/><path class="cls-1" d="M296.59,38.63c-6.26,4.81-13.48,8.58-20.55,12a211.41,211.41,0,0,1-58.38,18.09,244.9,244.9,0,0,1-49.29,2.73c-4.5-.18-4.5,6.82,0,7,42.7,1.74,87.67-6.59,124.57-29a82,82,0,0,0,7.19-4.76c3.52-2.71,0-8.79-3.54-6Z"/></g></g></svg>