<svg xmlns="http://www.w3.org/2000/svg" viewBox="0 0 363.51 157.77"><defs><style>.cls-1{fill:#ffba5f;}.cls-2{fill:#515060;}.cls-3{fill:#828299;}</style></defs><title>Recurso 5</title><g id="Capa_2" data-name="Capa 2"><g id="Layer_1" data-name="Layer 1"><path class="cls-1" d="M33,78.87C33,30.61,99.6,3.61,181.75,3.61s148.74,27,148.74,75.26"/><path class="cls-2" d="M36.51,78.87C37,32.88,95.72,16.41,132,10.74a331.26,331.26,0,0,1,88.79-1.46c24.69,2.84,50.17,8.54,72,20.81,18.37,10.33,34,26.57,34.22,48.78.05,4.5,7.05,4.51,7,0-.47-49.13-59.5-68.21-99.07-74.64a335.43,335.43,0,0,0-95.34-1.57c-26,3.27-52.78,9.49-75.44,23.18-19.23,11.61-34.4,29.67-34.63,53,0,4.5,7,4.5,7,0Z"/><polygon class="cls-3" points="19.57 78.99 51.64 154.27 311.86 154.27 343.94 78.99 19.57 78.99"/><path class="cls-2" d="M16.55,80.75,48.62,156a3.43,3.43,0,0,0,3,1.73H311.86a3.42,3.42,0,0,0,3-1.73L347,80.75c1-2.35-.12-5.26-3-5.26H19.57c-4.51,0-4.51,7,0,7H343.94l-3-5.27L308.84,152.5l3-1.73H51.64l3,1.73L22.59,77.22C20.83,73.09,14.8,76.65,16.55,80.75Z"/><line class="cls-3" x1="356.26" y1="78.99" x2="7.25" y2="78.99"/><path class="cls-2" d="M356.31,71.49h-306c-14.09,0-28.33-.59-42.42,0-.21,0-.42,0-.63,0-9.66,0-9.77,15-.11,15h306c14.1,0,28.34.59,42.42,0h.64c9.66,0,9.76-15,.1-15Z"/><path class="cls-3" d="M288.25,104.65a13.66,13.66,0,0,1,13.66,13.65h0A13.66,13.66,0,0,1,288.25,132H77.48A13.66,13.66,0,0,1,63.82,118.3h0"/><path class="cls-2" d="M288.25,108.15c9.36.47,14.14,12.72,5.87,18.46a12,12,0,0,1-6.9,1.85c-3.83.08-7.67,0-11.49,0H82c-6.72,0-14.64-1.3-14.64-10.16,0-4.5-7-4.51-7,0,0,10.46,8.74,17.07,18.53,17.16,4.59,0,9.19,0,13.78,0H279.25c3.92,0,8.12.38,12-.3a17.25,17.25,0,0,0,14.11-17.55c-.37-9.4-8.05-16-17.12-16.46-4.5-.23-4.49,6.77,0,7Z"/><path class="cls-2" d="M261.7,15c-3,13.62-15.51,22.74-29.48,20.38-4.41-.74-6.3,6-1.86,6.75,17.56,3,34.24-7.65,38.09-25.27,1-4.39-5.79-6.26-6.75-1.86Z"/><path class="cls-2" d="M186.19,5.09C186.61,20,171.64,37.72,156.54,39c-4.46.38-4.5,7.39,0,7,18.84-1.61,37.19-21.92,36.65-40.92-.12-4.49-7.12-4.51-7,0Z"/><path class="cls-2" d="M119.19,10A25.69,25.69,0,0,1,93.58,35.08c-4.5.06-4.51,7.06,0,7A32.83,32.83,0,0,0,126.19,10c.15-4.5-6.85-4.5-7,0Z"/></g></g></svg>