<svg xmlns="http://www.w3.org/2000/svg" viewBox="0 0 425.93 405.29"><defs><style>.cls-1{fill:#a0775c;}.cls-2{fill:#515060;}.cls-3{fill:#fc6363;}</style></defs><title>Recurso 10</title><g id="Capa_2" data-name="Capa 2"><g id="Layer_1" data-name="Layer 1"><rect class="cls-1" x="47.23" y="216.89" width="328.48" height="94.9"/><path class="cls-2" d="M375.77,209.39H47.28a7.61,7.61,0,0,0-7.55,7.45v94.9a7.61,7.61,0,0,0,7.44,7.55H375.66a7.61,7.61,0,0,0,7.55-7.44V217c0-9.67-15-9.77-15-.11v94.9l7.56-7.45H47.28l7.45,7.56V217l-7.56,7.44H375.66C385.32,224.39,385.42,209.39,375.77,209.39Z"/><rect class="cls-1" x="106.23" y="121.29" width="210.48" height="94.9"/><path class="cls-2" d="M316.77,113.79H106.28a7.61,7.61,0,0,0-7.55,7.45v94.9a7.61,7.61,0,0,0,7.44,7.56H316.66a7.61,7.61,0,0,0,7.55-7.45v-94.9c0-9.67-15-9.77-15-.11v94.9l7.56-7.45H106.28l7.45,7.56v-94.9l-7.56,7.44H316.66C326.32,128.79,326.42,113.79,316.77,113.79Z"/><rect class="cls-1" x="162.23" y="39.39" width="98.48" height="81.9"/><path class="cls-2" d="M260.77,31.89H162.28a7.61,7.61,0,0,0-7.55,7.45v81.9a7.61,7.61,0,0,0,7.44,7.55h98.49a7.61,7.61,0,0,0,7.55-7.44V39.45c0-9.67-15-9.77-15-.11v81.9l7.56-7.45H162.28l7.45,7.56V39.45l-7.56,7.44h98.49C270.32,46.89,270.42,31.89,260.77,31.89Z"/><path class="cls-2" d="M122.34,405.29H303.47c9.67,0,9.77-15,.11-15H122.45c-9.67,0-9.77,15-.11,15Z"/><path class="cls-2" d="M5.23,311l21.67,6.86a24,24,0,0,0,7,1.4c6.8.17,13.62,0,20.42,0h334.1c8.52,0,16.47-3.47,24.56-5.92l7.7-2.33c9.22-2.8,5.38-17.3-3.88-14.49l-21.54,6.53a39.42,39.42,0,0,0-4,1.21c-1.83.78.71-.7,1.07,0a7,7,0,0,0-1.3,0c-6.64-.24-13.33,0-20,0H37.25c-.69,0-4-.49-4.58,0s1.65.49,1.61.21-3.42-1.08-3.77-1.19l-13.32-4.22-8-2.53C0,293.64-3.95,308.12,5.23,311Z"/><path class="cls-2" d="M220.46,397.85v-82c0-9.67-15-9.77-15-.11v82c0,9.66,15,9.77,15,.11Z"/><path class="cls-2" d="M373.24,237.82c-7.23,7.78-16.45,14-25.45,19.53-23.74,14.46-50.65,23.18-78.16,26.73-4.41.56-4.46,7.57,0,7,28.43-3.66,56.17-12.34,80.81-27.16,9.8-5.89,19.91-12.71,27.75-21.15,3.06-3.3-1.88-8.26-4.95-5Z"/><path class="cls-2" d="M316.24,153.46c-5.44,5.85-12.34,10.55-19.1,14.68-18,11-38.34,17.58-59.18,20.29-4.4.57-4.46,7.58,0,7,21.75-2.83,43-9.38,61.83-20.72,7.55-4.53,15.35-9.8,21.4-16.3,3.06-3.29-1.88-8.25-4.95-4.95Z"/><path class="cls-2" d="M258.24,75.64c-10.34,11-27.09,16.67-41.61,18.62-4.4.59-4.46,7.6,0,7,16.34-2.19,34.91-8.21,46.56-20.67,3.07-3.29-1.87-8.25-4.95-5Z"/><path class="cls-3" d="M361.71,203.41c0,9.32-5.94,10.88-13.28,10.88s-13.28-1.56-13.28-10.88,6-23.88,13.28-23.88S361.71,194.09,361.71,203.41Z"/><path class="cls-2" d="M358.21,203.41c-.14,3.75-1.2,6.17-5,7a23.48,23.48,0,0,1-9.52,0c-7.28-1.6-5.12-10.72-3.47-16,1.17-3.73,5.32-14.59,10.73-10.19,5.08,4.14,7.13,13,7.28,19.17.11,4.5,7.11,4.51,7,0-.22-9-4.11-24.08-14.12-27-10.39-3-16.47,10.94-18.35,18.72-2.41,10-.72,20.77,11.06,22.35,10.86,1.46,21-1.76,21.41-14.08C365.38,198.91,358.38,198.91,358.21,203.41Z"/><path class="cls-3" d="M295.71,203.41c0,9.32-5.94,10.88-13.28,10.88s-13.28-1.56-13.28-10.88,6-23.88,13.28-23.88S295.71,194.09,295.71,203.41Z"/><path class="cls-2" d="M292.21,203.41c-.14,3.75-1.2,6.17-5,7a23.48,23.48,0,0,1-9.52,0c-7.28-1.6-5.12-10.72-3.47-16,1.17-3.73,5.32-14.59,10.73-10.19,5.08,4.14,7.13,13,7.28,19.17.11,4.5,7.11,4.51,7,0-.22-9-4.11-24.08-14.12-27-10.39-3-16.47,10.94-18.35,18.72-2.41,10-.72,20.77,11.06,22.35,10.86,1.46,21-1.76,21.41-14.08C299.38,198.91,292.38,198.91,292.21,203.41Z"/><path class="cls-3" d="M225.71,203.41c0,9.32-5.94,10.88-13.28,10.88s-13.28-1.56-13.28-10.88,5.95-23.88,13.28-23.88S225.71,194.09,225.71,203.41Z"/><path class="cls-2" d="M222.21,203.41c-.14,3.75-1.2,6.17-5,7a23.48,23.48,0,0,1-9.52,0c-7.28-1.6-5.12-10.72-3.47-16,1.17-3.73,5.32-14.59,10.73-10.19,5.08,4.14,7.13,13,7.28,19.17.11,4.5,7.11,4.51,7,0-.22-9-4.11-24.08-14.12-27-10.39-3-16.47,10.94-18.35,18.72-2.41,10-.72,20.77,11.06,22.35,10.86,1.46,21-1.76,21.41-14.08C229.38,198.91,222.38,198.91,222.21,203.41Z"/><path class="cls-3" d="M292.71,109.41c0,9.32-5.94,10.88-13.28,10.88s-13.28-1.56-13.28-10.88,6-23.88,13.28-23.88S292.71,100.09,292.71,109.41Z"/><path class="cls-2" d="M289.21,109.41c-.14,3.75-1.2,6.17-5,7a23.48,23.48,0,0,1-9.52,0c-7.28-1.6-5.12-10.72-3.47-16,1.17-3.73,5.32-14.59,10.73-10.19,5.08,4.14,7.13,13,7.28,19.17.11,4.5,7.11,4.51,7,0-.22-9-4.11-24.08-14.12-27-10.39-3-16.47,10.94-18.35,18.72-2.41,10-.72,20.77,11.06,22.35,10.86,1.46,21-1.76,21.41-14.08C296.38,104.91,289.38,104.91,289.21,109.41Z"/><path class="cls-3" d="M224.71,27.41c0,9.32-5.94,10.88-13.28,10.88s-13.28-1.56-13.28-10.88S204.1,3.53,211.43,3.53,224.71,18.09,224.71,27.41Z"/><path class="cls-2" d="M221.21,27.41c-.14,3.75-1.2,6.17-5,7a23.48,23.48,0,0,1-9.52,0c-7.28-1.6-5.12-10.72-3.47-16,1.17-3.73,5.32-14.59,10.73-10.19,5.08,4.14,7.13,13,7.28,19.17.11,4.5,7.11,4.51,7,0-.22-9-4.11-24.08-14.12-27-10.39-3-16.47,10.94-18.35,18.72-2.41,10-.72,20.77,11.06,22.35,10.86,1.46,21-1.76,21.41-14.08C228.38,22.91,221.38,22.91,221.21,27.41Z"/><path class="cls-3" d="M226.71,109.41c0,9.32-5.94,10.88-13.28,10.88s-13.28-1.56-13.28-10.88,5.95-23.88,13.28-23.88S226.71,100.09,226.71,109.41Z"/><path class="cls-2" d="M223.21,109.41c-.14,3.75-1.2,6.17-5,7a23.48,23.48,0,0,1-9.52,0c-7.28-1.6-5.12-10.72-3.47-16,1.17-3.73,5.32-14.59,10.73-10.19,5.08,4.14,7.13,13,7.28,19.17.11,4.5,7.11,4.51,7,0-.22-9-4.11-24.08-14.12-27-10.39-3-16.47,10.94-18.35,18.72-2.41,10-.72,20.77,11.06,22.35,10.86,1.46,21-1.76,21.41-14.08C230.38,104.91,223.38,104.91,223.21,109.41Z"/><path class="cls-3" d="M156.71,109.41c0,9.32-5.94,10.88-13.28,10.88s-13.28-1.56-13.28-10.88,5.95-23.88,13.28-23.88S156.71,100.09,156.71,109.41Z"/><path class="cls-2" d="M153.21,109.41c-.14,3.75-1.2,6.17-5,7a23.48,23.48,0,0,1-9.52,0c-7.28-1.6-5.12-10.72-3.47-16,1.17-3.73,5.32-14.59,10.73-10.19,5.08,4.14,7.13,13,7.28,19.17.11,4.5,7.11,4.51,7,0-.22-9-4.11-24.08-14.12-27-10.39-3-16.47,10.94-18.35,18.72-2.41,10-.72,20.77,11.06,22.35,10.86,1.46,21-1.76,21.41-14.08C160.38,104.91,153.38,104.91,153.21,109.41Z"/><path class="cls-3" d="M86.71,206.41c0,9.32-5.94,10.88-13.28,10.88s-13.28-1.56-13.28-10.88,5.95-23.88,13.28-23.88S86.71,197.09,86.71,206.41Z"/><path class="cls-2" d="M83.21,206.41c-.14,3.75-1.2,6.17-5,7a23.48,23.48,0,0,1-9.52,0c-7.28-1.6-5.12-10.72-3.47-16,1.17-3.73,5.32-14.59,10.73-10.19,5.08,4.14,7.13,13,7.28,19.17.11,4.5,7.11,4.51,7,0-.22-9-4.11-24.08-14.12-27-10.39-3-16.47,10.94-18.35,18.72-2.41,10-.72,20.77,11.06,22.35,10.86,1.46,21-1.76,21.41-14.08C90.38,201.91,83.38,201.91,83.21,206.41Z"/><path class="cls-3" d="M156.71,203.41c0,9.32-5.94,10.88-13.28,10.88s-13.28-1.56-13.28-10.88,5.95-23.88,13.28-23.88S156.71,194.09,156.71,203.41Z"/><path class="cls-2" d="M153.21,203.41c-.14,3.75-1.2,6.17-5,7a23.48,23.48,0,0,1-9.52,0c-7.28-1.6-5.12-10.72-3.47-16,1.17-3.73,5.32-14.59,10.73-10.19,5.08,4.14,7.13,13,7.28,19.17.11,4.5,7.11,4.51,7,0-.22-9-4.11-24.08-14.12-27-10.39-3-16.47,10.94-18.35,18.72-2.41,10-.72,20.77,11.06,22.35,10.86,1.46,21-1.76,21.41-14.08C160.38,198.91,153.38,198.91,153.21,203.41Z"/></g></g></svg>