<svg xmlns="http://www.w3.org/2000/svg" viewBox="0 0 205.43 381.81"><defs><style>.cls-1{fill:#ffba5f;}.cls-2{fill:#515060;}.cls-3{fill:#828299;}.cls-4{fill:#a0775c;}</style></defs><title>Recurso 7</title><g id="Capa_2" data-name="Capa 2"><g id="Layer_1" data-name="Layer 1"><path class="cls-1" d="M197.93,229.14a196.29,196.29,0,0,0-2.47-31.22H9.94a196.29,196.29,0,0,0-2.47,31.22c0,73.45,23.14,124.78,56.34,144.78h77.78C174.79,353.92,197.93,302.59,197.93,229.14Z"/><path class="cls-2" d="M205.43,229.19A221.17,221.17,0,0,0,202.7,196c-.49-3.19-4.15-5.56-7.19-5.56H10c-3,0-6.79,2.28-7.29,5.52-3.49,22.44-3.4,45.17-.91,67.71,2.1,18.9,5.8,37.69,12.46,55.54,5.56,14.89,12.91,28.93,23,41.26a90.33,90.33,0,0,0,14,13.82c3.86,3,8.18,6.93,13.26,7.15,20.28.87,40.79,0,61.09,0,6.67,0,15.45,1.55,21.38-2.05,11.65-7.07,21.14-17.82,28.64-29.05,23.36-35,29.66-79.93,29.76-121.13,0-9.66-15-9.76-15-.1-.08,30.25-3.71,61-15,89.28-7.66,19.25-19.69,38.07-37.68,49.08l3.85-1H69.91c-1.66,0-3.35-.12-5,0-.23,0-.78-.12-1,0,3.26-1.84,3.5,1.88,2,0-.67-.85-2.32-1.53-3.22-2.18a80.57,80.57,0,0,1-16.41-16.37C34,331.62,26.55,312.13,21.83,292.46c-7.14-29.76-9.36-62.28-4.65-92.56l-7.29,5.52H195.4l-7.19-5.56a194.49,194.49,0,0,1,2.22,29.23C190.48,238.75,205.48,238.85,205.43,229.19Z"/><path class="cls-3" d="M124.72,144.41c-7.24,14.45-23.76,24.17-35.24,18.42S75.91,138,83.14,123.59s21.07-18.81,32.55-13.06S132,130,124.72,144.41Z"/><path class="cls-2" d="M121.69,142.65c-4.93,9.38-16.2,20.85-28,18-12-2.89-12.5-19.35-9.91-28.84,3.1-11.36,12.79-22.64,25.71-19.8,14.54,3.19,18,18.54,12.23,30.64-1.91,4,4.12,7.61,6,3.53,5.57-11.79,5.54-26.17-5.08-35.19a26.26,26.26,0,0,0-32.18-1.51c-10.57,7.52-15.8,21.69-15,34.37.73,11,6.64,22.35,18.55,23.94,14.32,1.92,27.46-9.79,33.67-21.61C129.83,142.2,123.79,138.65,121.69,142.65Z"/><line class="cls-4" x1="116.74" y1="106.82" x2="166.46" y2="7.58"/><path class="cls-2" d="M123.23,110.57l43.48-86.79L173,11.33c4.31-8.61-8.65-16.15-13-7.5L116.48,90.61l-6.24,12.46c-4.31,8.6,8.66,16.15,13,7.5Z"/><path class="cls-4" d="M28.06,200.92v56a11.5,11.5,0,0,0,23,0l1-22.8a11.5,11.5,0,0,1,23,0v38.1a11.5,11.5,0,0,0,23,0v-71.3Z"/><path class="cls-2" d="M24.56,200.92v50.39c0,5.32-.26,10.47,3.29,14.91a15.11,15.11,0,0,0,19.63,3.42c9.59-5.93,7.44-20.91,7.87-30.59.24-5.6.59-12.93,8.21-12.93,8.13,0,8,8.13,8,13.95v28.66c0,4.77.28,9.28,3.56,13.14A15.11,15.11,0,0,0,95,284.57c9.06-6.11,6.56-19.62,6.56-29V200.92a3.55,3.55,0,0,0-3.5-3.5h-70c-4.5,0-4.51,7,0,7h70l-3.5-3.5V243.4c0,9.38.36,18.83,0,28.21-.31,8.22-11.48,12.35-15.3,3.89-1.35-3-.7-7.36-.7-10.51V239.72c0-5.72.18-11.2-4-15.73a15.12,15.12,0,0,0-18.94-2.6c-9.21,5.7-7.36,19.11-7.76,28.43-.2,4.44.49,10.15-3.3,13.26a8,8,0,0,1-11.7-1.78c-1.35-2.06-1.32-4.34-1.32-6.68v-53.7C31.56,196.41,24.56,196.41,24.56,200.92Z"/><path class="cls-2" d="M185,306.82c-5.47,4.95-12.59,8.91-19.32,12.26-17.94,8.94-37.83,13.38-57.79,14.24-4.49.19-4.51,7.2,0,7,20.91-.91,41.55-5.54,60.4-14.74,7.58-3.7,15.35-8.11,21.66-13.81,3.34-3-1.62-8-4.95-4.95Z"/></g></g></svg>