<svg xmlns="http://www.w3.org/2000/svg" viewBox="0 0 170.35 346.99"><defs><style>.cls-1{fill:#828299;}.cls-2{fill:#515060;}.cls-3{fill:#fc6363;}.cls-4{fill:#a0775c;}.cls-5{fill:#ffba5f;}</style></defs><title>Recurso 6</title><g id="Capa_2" data-name="Capa 2"><g id="Layer_1" data-name="Layer 1"><polygon class="cls-1" points="19.94 158.61 66.96 342.92 102.77 342.92 149.79 158.61 19.94 158.61"/><path class="cls-2" d="M16.56,159.54l15.87,62.2L57.75,321l5.84,22.89A3.55,3.55,0,0,0,67,346.42h35.81a3.55,3.55,0,0,0,3.37-2.57L122,281.65l25.32-99.22,5.84-22.89a3.54,3.54,0,0,0-3.38-4.43H19.94c-4.51,0-4.52,7,0,7H149.79l-3.37-4.43-15.87,62.2L105.23,319.1,99.39,342l3.38-2.57H67L70.34,342l-15.87-62.2L29.15,180.57l-5.84-22.89C22.2,153.32,15.44,155.17,16.56,159.54Z"/><path class="cls-1" d="M63.18,192.15,77.93,336.74a7,7,0,0,0,6.93,6.18h0a7,7,0,0,0,6.94-6.18l14.75-144.59a7,7,0,0,0-6.94-7.78H70.12A7,7,0,0,0,63.18,192.15Z"/><path class="cls-2" d="M59.68,192.15l7,68.33c2.57,25.21,4.59,50.55,7.72,75.69.92,7.37,8.09,12.84,15.35,9,4.37-2.3,5.38-6.5,5.83-10.93l3.26-32L108.53,207c.73-7.18,4.15-18.9-2.69-24-4.81-3.6-13.4-2.12-19-2.12-6,0-13.09-1.09-19,.26-5.19,1.18-8.24,5.87-8.15,11,.08,4.5,7.08,4.51,7,0-.12-6.6,13-4.28,17.2-4.28H94.44c2,0,4.41-.4,6.32.43,3.21,1.38,2.16,5.09,1.87,7.93l-1.26,12.37-8.88,87.08L89,329.8c-.21,2.07,0,4.74-.69,6.72-1.73,5.24-6.6,2.2-7.09-1.72-3-23.88-4.88-47.92-7.33-71.84l-7.22-70.81C66.23,187.71,59.22,187.66,59.68,192.15Z"/><path class="cls-2" d="M53,347h63.54c9.67,0,9.77-15,.11-15H53.14c-9.66,0-9.76,15-.1,15Z"/><path class="cls-2" d="M8.68,166.12H160.94c9.66,0,9.76-15,.11-15H8.79c-9.66,0-9.77,15-.11,15Z"/><circle class="cls-3" cx="49.76" cy="114.83" r="46.36" transform="translate(-52.94 43.31) rotate(-31.72)"/><path class="cls-2" d="M92.62,114.82c-.27,18-11.4,34.38-28.52,40.41a42.87,42.87,0,1,1-5.77-82.41,43.37,43.37,0,0,1,34.29,42c.06,4.51,7.06,4.52,7,0a50.55,50.55,0,0,0-33-46.93,50.2,50.2,0,0,0-55.13,15C-1.93,99.16-3.87,122.7,7.15,140.73a50.43,50.43,0,0,0,51.72,23.11c23.59-4.19,40.4-25.41,40.75-49C99.68,110.32,92.68,110.32,92.62,114.82Z"/><path class="cls-4" d="M166.85,114.82a46.36,46.36,0,1,1-46.36-46.35A46.36,46.36,0,0,1,166.85,114.82Z"/><path class="cls-2" d="M163.35,114.82c-.27,18-11.4,34.38-28.51,40.41a42.88,42.88,0,1,1,28.51-40.41c.06,4.51,7.06,4.52,7,0A49.85,49.85,0,0,0,82.19,82.93c-13.39,16.23-15.33,39.77-4.31,57.8a50.44,50.44,0,0,0,51.72,23.11c23.59-4.19,40.4-25.41,40.75-49C170.41,110.32,163.41,110.32,163.35,114.82Z"/><circle class="cls-5" cx="84.17" cy="49.83" r="46.36" transform="translate(-9.2 20.67) rotate(-13.28)"/><path class="cls-2" d="M127,49.83c-.26,18-11.39,34.37-28.51,40.4a42.87,42.87,0,0,1-50.9-62.78A42.85,42.85,0,0,1,127,49.83c.07,4.5,7.07,4.51,7,0a49.84,49.84,0,0,0-88.15-31.9C32.48,34.16,30.54,57.7,41.56,75.74a50.44,50.44,0,0,0,51.72,23.1c23.59-4.18,40.4-25.4,40.74-49C134.09,45.32,127.09,45.32,127,49.83Z"/><path class="cls-2" d="M120.53,28.2c-3.42,15.87-18.16,26.47-34.37,23.69-4.41-.75-6.3,6-1.86,6.75,19.8,3.4,38.69-8.72,43-28.58.95-4.39-5.8-6.27-6.75-1.86Z"/></g></g></svg>