<svg xmlns="http://www.w3.org/2000/svg" viewBox="0 0 413.74 270.95"><defs><style>.cls-1{fill:#515060;}.cls-2{fill:#a0775c;}.cls-3{fill:#fc6363;}</style></defs><title>Recurso 8</title><g id="Capa_2" data-name="Capa 2"><g id="Layer_1" data-name="Layer 1"><path class="cls-1" d="M7.19,254.3h350c16.15,0,32.45.65,48.59,0h.69c9.66,0,9.76-15,.11-15h-350c-16.15,0-32.45-.64-48.59,0H7.3c-9.66,0-9.77,15-.11,15Z"/><path class="cls-1" d="M77.2,271H336.43c9.66,0,9.76-15,.1-15H77.31c-9.66,0-9.76,15-.11,15Z"/><path class="cls-2" d="M221.75,44.76H192.64A109.5,109.5,0,0,0,83.15,154.26v88.16h248.1V154.26A109.51,109.51,0,0,0,221.75,44.76Z"/><path class="cls-1" d="M221.81,37.26c-17.63,0-35.64-1.08-53,2.45a116.71,116.71,0,0,0-68,42.11,118.56,118.56,0,0,0-25.18,72.57c-.07,14,0,27.94,0,41.91v46.07a7.61,7.61,0,0,0,7.45,7.55H331.19a7.61,7.61,0,0,0,7.56-7.44V164.72c0-14.7-.51-29.19-4.72-43.44a117.12,117.12,0,0,0-37.79-57.21,118.58,118.58,0,0,0-74.43-26.81c-9.67-.06-9.77,14.94-.11,15,44.11.27,84.37,29.19,97.45,71.61,4,13.09,4.59,26.21,4.59,39.75v78.74l7.56-7.45H83.21l7.44,7.56V157.83c0-20.18,4.36-39.41,15-56.77a102.41,102.41,0,0,1,57.94-44.59c18.88-5.57,38.69-4.2,58.15-4.2C231.36,52.27,231.47,37.26,221.81,37.26Z"/><rect class="cls-3" x="87.59" y="204.11" width="239.22" height="38.32"/><path class="cls-1" d="M326.81,238.92H87.59l3.5,3.5V204.11l-3.5,3.5H326.81l-3.5-3.5v38.31c0,4.51,7,4.51,7,0V204.11a3.56,3.56,0,0,0-3.5-3.5H87.59a3.55,3.55,0,0,0-3.5,3.5v38.31a3.54,3.54,0,0,0,3.5,3.5H326.81C331.31,245.92,331.32,238.92,326.81,238.92Z"/><path class="cls-1" d="M326,130.5c-5.25,5.45-11.8,9.86-18.18,13.84-17.22,10.75-36.43,18-56.2,22.47a233,233,0,0,1-50.3,5.34c-4.5,0-4.51,7,0,7,43.16-.14,88.88-10.66,123.22-38.07a66,66,0,0,0,6.41-5.63c3.12-3.25-1.82-8.2-4.95-4.95Z"/><path class="cls-1" d="M102.05,95.46c5.49,7,13.37,12.69,20.9,17.27,19,11.56,41.12,16.56,63.22,16.7,4.5,0,4.51-7,0-7-21.24-.13-42.36-5-60.51-16.25C118.89,102,112,96.86,107,90.51c-2.77-3.55-7.69,1.44-5,4.95Z"/><path class="cls-3" d="M221.64,30c0,10.34-6.6,12.07-14.73,12.07S192.17,40.36,192.17,30s6.6-26.5,14.74-26.5S221.64,19.67,221.64,30Z"/><path class="cls-1" d="M218.14,30c-.13,4.07-1.23,7-5.39,8.05a26.89,26.89,0,0,1-10.65.22c-8.85-1.58-6.69-12-4.68-18.39,1.37-4.35,6.13-16.42,12.33-11.58C215.61,12.9,218,23,218.14,30c.1,4.5,7.1,4.51,7,0-.21-9.71-4.33-25.62-14.75-29.35C199-3.41,192.09,12,190,20.58c-2.79,11.17-.94,23.17,12.3,24.75,11.7,1.4,22.46-2,22.89-15.31C225.29,25.51,218.29,25.52,218.14,30Z"/><path class="cls-3" d="M268.24,40c0,10.35-6.6,12.08-14.73,12.08S238.77,50.35,238.77,40s6.6-26.49,14.74-26.49S268.24,29.66,268.24,40Z"/><path class="cls-1" d="M264.74,40c-.13,4.08-1.23,7-5.39,8a26.7,26.7,0,0,1-10.65.22c-8.85-1.58-6.69-12-4.68-18.38,1.37-4.35,6.13-16.42,12.33-11.58,5.86,4.58,8.24,14.67,8.39,21.69.1,4.5,7.1,4.52,7,0-.21-9.71-4.33-25.61-14.75-29.34C245.58,6.57,238.69,22,236.55,30.57c-2.79,11.16-.94,23.16,12.3,24.75,11.71,1.4,22.46-2,22.89-15.32C271.89,35.5,264.89,35.5,264.74,40Z"/><path class="cls-3" d="M175,40c0,10.35-6.6,12.08-14.73,12.08S145.57,50.35,145.57,40s6.6-26.49,14.74-26.49S175,29.66,175,40Z"/><path class="cls-1" d="M171.54,40c-.13,4.08-1.23,7-5.39,8a26.7,26.7,0,0,1-10.65.22c-8.85-1.58-6.69-12-4.68-18.38,1.37-4.35,6.13-16.42,12.32-11.58C169,22.89,171.39,33,171.54,40c.1,4.5,7.1,4.52,7,0-.21-9.71-4.33-25.61-14.75-29.34C152.38,6.57,145.49,22,143.35,30.57c-2.79,11.16-.94,23.16,12.3,24.75,11.7,1.4,22.46-2,22.89-15.32C178.69,35.5,171.69,35.5,171.54,40Z"/></g></g></svg>