<svg xmlns="http://www.w3.org/2000/svg" viewBox="0 0 420 578.04"><defs><style>.cls-1{fill:#f16679;}.cls-2{fill:#a7003d;}.cls-2,.cls-33{opacity:0.4;}.cls-3{fill:#2f0a00;}.cls-4{fill:#f4d8b8;}.cls-5{fill:#f0cca8;}.cls-19,.cls-33,.cls-6{fill:#e0b08b;}.cls-30,.cls-32,.cls-6{opacity:0.7;}.cls-16,.cls-17,.cls-18,.cls-26,.cls-7{fill:#96682a;}.cls-20,.cls-28,.cls-7{opacity:0.25;}.cls-8{fill:#f1f1f0;}.cls-9{fill:#e9e8e9;}.cls-10{fill:#d8d8d9;}.cls-11{fill:#404040;}.cls-11,.cls-12,.cls-17,.cls-21{opacity:0.35;}.cls-13{fill:#b9babc;}.cls-14{fill:#f7941d;}.cls-15,.cls-20,.cls-21,.cls-25{fill:#fff;}.cls-16,.cls-27{opacity:0.15;}.cls-18,.cls-19,.cls-23,.cls-25{opacity:0.5;}.cls-22{fill:#5c1315;}.cls-23{fill:#c9cdd3;}.cls-24{fill:#ed1c24;}.cls-27,.cls-28{fill:#540000;}.cls-29{fill:#3e0000;}.cls-30{fill:#670000;}.cls-31{fill:#e0c09e;}.cls-32{fill:#8b0304;}.cls-34{fill:#edecec;}.cls-35{fill:#dededf;}</style></defs><g id="bg"><rect class="cls-1" y="53.23" width="420" height="400" rx="10"/></g><g id="img"><path class="cls-2" d="M398.84,215.49s4.35-13.94-5.58-22.76l-.15-.34c-4.14-4.15-11.05-5.53-11.05-5.53A211.37,211.37,0,0,1,347,175.81c-4.14-1.38-6.35-6.63-6.35-6.63l-1.38-13.81c0-3.32-1.38-2.76-1.38-2.76l-10.66-.83-.55-.05h-.09v.52c-.1-1.71-.16-3.53-.15-5.43a71.48,71.48,0,0,0,3.5-12.29h4.4l-4.23-.92v0a19.5,19.5,0,0,0,10.78-5.24s-5.92,3.54-10.41,3h0c1,0,11.47-.72,16.31-15.62l-3.9,3.91,3.9-5.86-5.5,2.93c1.12-.64,4.58-3,6-9,6.07-3.49,5.75-12,5.75-12-.78,5.8-5.58,3.91-5.58,3.91,5,0,4.13-4.47,4.13-4.47C349,101.39,344.91,98,344.91,98c4.68.23,4.46-3.9,4.46-3.9a3.78,3.78,0,0,1-5.58,2.56,3.12,3.12,0,0,0,3.9-3.34c0,2.23-2.78,2.79-2.78,2.79-3.69.89-6.14-5.36-6.14-5.36a26.31,26.31,0,0,0-9-10.54L311.3,46.08c-.37-.15-.75-.28-1.14-.41-18.6-32.62-44.84-77.83-54.28-90.19,0,0-4.15-5.27-6.92.83L241.2-26.51l-5.54-1.94a5.3,5.3,0,0,0-1.94-.44c-2.47-.17-2.85,1.82-2.76,3.42,0,.12,0,.22,0,.34s1.7,11.52,4.1,27.87l9.53,66.54a10.8,10.8,0,0,0-.49,1.28A3.29,3.29,0,0,0,244,71l6.28,38.54a11.77,11.77,0,0,0-.93,5.74c-2.59,4,1,7.37,1,7.37-4.58,0-5.38-3-5.38-3,.41,2.71,1.83,3.39,2.69,3.55l-3.9-.2a24.56,24.56,0,0,0,8.44,1c-1.59,2.69-4,4.16-7.7,1.44,0,0,1.17,3.13,5.86,3.13,0,0-3.51,1.59-6-.28,0,0,2.44,2.81,8.43,2.81,0,0-3.74,1.87-6.55.93,0,0,1.68,1.32,6,.94l-3.18.94s2.24,5.06,12.55,8.43A36.49,36.49,0,0,1,251.31,139s5.63,5.24,21.55,6.18c0,0-8.81,1.31-14.43-.94,0,0,6.94,3.75,14.43,3.75a58.15,58.15,0,0,1-7.49.56s5.24,2.25,14.61,1.31l-6.19,1.5a40.37,40.37,0,0,0,9.13-1.14l.49.42L283,151h0l-.05,0c-1.7,1-4.13,2.26-6.26,2.26a20,20,0,0,0,4.46-.4,7.12,7.12,0,0,0-1.18,3.56L273,172a10.58,10.58,0,0,1-4.6,3.87l-.07,0-.55.23a24.09,24.09,0,0,1-6.05,1.53c-6.07-3-14.27-1.52-14.27-1.52a68.43,68.43,0,0,1-14.41,0l-.15,0c-6.07-.61-8.2,3.64-8.2,3.64-3,5.16-14.57,10-14.57,10-7.6,2.68-5.1,10-5.1,10,0,8.29-6.64,8.29-6.64,8.29-11.05,0-12.7,11.05-12.7,11.05l-7.7,7.7a12.51,12.51,0,0,0-1.43.31c-.74.13-1.18.24-1.18.24-3.93.23-5.67,1.14-6.45,1.93,0-.05.06-.1.11-.16a1.15,1.15,0,0,0-.11.17,1.8,1.8,0,0,0-.63,1.31c0,.13,0,.24,0,.36-.07,1,.48,2.13,3.06,2.45l-5,5-41.44-59.68a11.64,11.64,0,0,0-7.27-2.79c-1.83-3.39-3.4-6.77-3.4-6.77-3.12-6.24-14.14-7.69-14.14-7.69l-13.52-1.66c-5.36-5.64-10.84-6.32-10.84-6.32a9.13,9.13,0,0,0-3.85,0c-3.87.67-2.55,4.24-2.55,4.24l-5.12-3c-8.53-4.27-12-3.24-12-3.24-10.66-3.32-18-3.32-18-3.32-3.11.21-3.44,1.18-2.78,2.23a2.39,2.39,0,0,0,.54.72,6.28,6.28,0,0,0,.55.49l0,.05a18.83,18.83,0,0,0,2.54,1.78,7.2,7.2,0,0,0-1.22,1.1c-2.21,2.44.7,3.33,2.34,3.63l1.64.53s.76.22,1.94.68A47.67,47.67,0,0,1,47.78,164a14.42,14.42,0,0,1,1.95,1.77c.46.28.92.54,1.38.77a19.19,19.19,0,0,0,2.34,1.13A19.3,19.3,0,0,0,57.72,169l.35.11a55.61,55.61,0,0,1,10,4.42c.93.56,1.45.93,1.45.93a8.49,8.49,0,0,0,3.58,2.27c.21.1.43.2.7.3a8,8,0,0,0,1.31.44,19.67,19.67,0,0,0,3.63.72s14.49,2.1,21.17,7.27L79.55,210.9c-5.52,8.28,1.11,12.15,1.11,12.15l58.66,63.86c.86,1.27,11.47,16.31,30.3,9.68a21.6,21.6,0,0,0,2.76-1.11c.36-.16.73-.32,1.1-.5l23.68-8.27A26.93,26.93,0,0,0,210.47,279a17,17,0,0,0,1.69-1.83l2.76,2.76,1,33.75s0,7.8,4.87,10l-2.18,18.9a113,113,0,0,0-7.23,11.77c-6,11.09-6.92,17.67-7,20.43,0,.38-.07.77-.09,1.14V376c-.09.92-.15,1.82-.15,2.71l-7.78,145.84,4.94.21v-.21H331.38l-1.79.21,31.15-.21L350.8,395.37a157.27,157.27,0,0,0-2.11-20.18c-3.17-20.36-9.24-25-10.4-25.66a46,46,0,0,1-2.49-8.2,68.91,68.91,0,0,1-.89-10,9.1,9.1,0,0,0,.68-.83,17.48,17.48,0,0,0,4.16-3.74l20.78-20.06-2.42,2.22,7.53-7.26c.34-.31.68-.63,1-.95.73-.58,8.31-6.91,11.75-19.28a34,34,0,0,0,1.4-6.37Z" transform="translate(0 53.23)"/><polygon id="bazaardesigns.com" class="cls-3" points="329.92 199.11 342.51 200.12 329.92 215.23 329.92 199.11"/><path class="cls-3" d="M291.11,163.51s-5.54-9.07-4-16.63l6.55-3.53Z" transform="translate(0 53.23)"/><path class="cls-4" d="M332.06,128s-3,21.47,3,36.58l-30.24,30.24h-12.6l-3.81-29.23s3.84-16.12.31-26.2Z" transform="translate(0 53.23)"/><path class="cls-5" d="M331.67,133.66l-42.48,4.83s2.7,14.1-.58,26.07L292.08,192,306,193,334.57,163S330.32,151,331.67,133.66Zm-26.26,40a50,50,0,0,0-5.79-7.73s.38-6.37,12.74-9.27c0,0,10,.2,15.84-8.11l1,6.76S313.13,165,305.41,173.64Z" transform="translate(0 53.23)"/><path class="cls-6" d="M331.48,136l-43.07,1.93s4.06,10.81.58,25.68l3.29,30.32,16.41-1,25.11-31.29S330.51,146,331.48,136ZM305,175.57c-1.93-2.9-8.69-12.56-8.69-12.56,4.44-7.72,15.26-7.72,15.26-7.72,10,1,18-9.08,18-9.08l1.54,10C318.15,161.66,305,175.57,305,175.57Z" transform="translate(0 53.23)"/><path class="cls-7" d="M296.33,151s20.86,11.2,30.9-4.83l-38.47-6.86s4,6.92-.31,26.2l4,27.4L306,192l27.42-34.18-.39-1.35s-20.28,9.27-29,21.24l-3.29,4.25-3.47-.38,1.93-4.45s3.09-4.24-1.35-9.07l-5.41-9.27V148.72A27.47,27.47,0,0,0,296.33,151Z" transform="translate(0 53.23)"/><path class="cls-8" d="M355.8,388.77s-1-36.18-12.71-46c0,0-88,4.89-117.34-9.78,0,0-16.63,22.49-16.63,39.12L201.34,518h164.4Z" transform="translate(0 53.23)"/><path class="cls-9" d="M365.74,518l-31.15.22L353,516s-3.17-134.18-14.25-165.87c0,0,0-2.53-9.51-2.53,0,0-72.23,1.59-103.91-6.33A67.66,67.66,0,0,0,212,366.59l-5.7,151.61-4.94-.22,8.1-148.22s-2.25-11,16.31-36.73l117.34,9.78s9.87,4.45,12.09,39.94Z" transform="translate(0 53.23)"/><path class="cls-10" d="M201.34,518l2.38.08,6.69-148.3s2.42-19,15.34-32.27V333s-15.6,20-16.48,36.34Z" transform="translate(0 53.23)"/><path class="cls-11" d="M343.09,342.81s-95.56,6.61-118.67-5.78Z" transform="translate(0 53.23)"/><path class="cls-8" d="M341.13,313.47s-4.47,15.31,2.37,30c0,0-98.57,3.6-120.09-6.18l3.31-28.69Z" transform="translate(0 53.23)"/><path class="cls-9" d="M339.89,322.57l-31.48-8.86-82-.94-3,24.5s14,9,120.09,6.18C343.5,343.45,339.89,338,339.89,322.57ZM325.3,340.28c-13.57,1.89-98.11-5.84-98.11-5.84l2.26-15.07,77.27-.95c10,10.37,16.11,10.37,16.11,10.37C322.83,333.88,325.3,340.28,325.3,340.28Z" transform="translate(0 53.23)"/><path class="cls-10" d="M223.41,337.27l3.31-28.69,90.93,3.81,22.23,8.48a49.87,49.87,0,0,0,3.62,22.58l-9.55.18a31.56,31.56,0,0,1-2.47-13.6s-3.66.08-15.53-6.89c0,0-6.6-3.59-8.48-5.09l-79.72.37-2.26,18.29s3.2,2.45,13.57,4.33C239.06,341,227.94,339.72,223.41,337.27Z" transform="translate(0 53.23)"/><path class="cls-12" d="M226.43,317.6s51.53,1.57,81,.45c0,0,13.09,8.93,20.46,10.6,0,0,11.73.67,14.07-7.7l-26.8-13.4Z" transform="translate(0 53.23)"/><path class="cls-8" d="M345.1,314.82s-6,17.93-26.48,5.78L308.32,317H228.21S221,318.67,221,304.86l-1.11-31.5-2.76-2.76S210,278.33,201.69,280l-23.21,8.29s-13.81,8.84-30.39-3.87l-62.43-68S79,212.58,84.55,204.3l22.1-27.63s13.26-12.71,23.21-4.42l41.44,59.67,19.34-19.33s1.65-11.06,12.7-11.06c0,0,6.64,0,6.64-8.28,0,0-2.5-7.35,5.1-10,0,0,11.54-4.86,14.57-10,0,0,2.13-4.25,8.2-3.64a68.7,68.7,0,0,0,14.56,0s8.2-1.52,14.27,1.52c0,0,9.41-.61,11.53-6.07l6.68-15.18a7.17,7.17,0,0,1,3-5.46l7.59-3,1.13.72-8.22,4.28s-1.38.76-1.07,3.83c0,0,.76,10,10,19.16,0,0,3.47,3-2.26,13.88h6.08s8.58-13.72,19.63-19.25c0,0,15.19-7.46,20.71-16.57l-9.91-.78v-1.48l11.3.88s1.38-.56,1.38,2.76l1.38,13.81s2.21,5.25,6.35,6.63a210.23,210.23,0,0,0,35.09,11s6.91,1.38,11.05,5.53l4.77,11.05s1.93,1.35,0,9.64l-9.67,29.83-7.46,13.82-5.52,29s-1.39,6.08-8.29,11.61Z" transform="translate(0 53.23)"/><path class="cls-9" d="M333.06,249.33s9.15-30.82,25-46.71c0,0,14.45-11.07,4.82,1,0,0-23.12,32.75-28.9,54.42,0,0,27-65.49,54.42-71.27l-52,84.27-28.11,46H228.21s-6.38.7-7.34-9.9l-1-33.75-2.76-2.76s-7.6,8.83-14.82,8.83l-23.86,8.85s-16.84,9.69-32.25-6.2L85.66,216.45l14.82-3.23a28.74,28.74,0,0,0,9.63-10.6L126,178.55,111.56,208.4l4.81,13.48,40.94,45.75s6.74,9.15,8.18-3.85l1.44-20.23s1-8.67,8.19-1.44L192,258s8.67,8.18,1.45-6.26l-6.26-15.41s-4.33-9.63,6.26,0L208.83,246s10.59,6.74,0-8.67l7.22-26.48s.48-4.82,3.85,0c0,0,5.78,4.81,1-7.23L216.05,193s-7.22-12,4.82,0c0,0,6.25,10.59,6.25,1,0,0,6.75-25.52,3.38,0a321.9,321.9,0,0,0-8.19,57.78l5.78,16.85s1,13,7.22-4.81l6.26-15.41v-12l8.19,12L239.16,270l-12,22.63s-10.11,17.82,3.38,0l12-17.82L253.61,283l-16.85,24.07s-10.12,7.71,5.77,3.86c0,0,13-6.26,24.08-1.45l21.67,2.41L256,285.45v-41.9l2.4-16.85,26.49,7.22s9.15,1.93,15.41,8.19c0,0,5.77,10.11,14.44,6.26l18.3-52s7.22-10.59-9.63-10.59l-21.67-2.41,28.89,1s14,.49,8.19,11.08l-7.22,14.45,32.74-24.08s15.41-9.63-1.44,4.82l-29.86,24.07L323.43,246Z" transform="translate(0 53.23)"/><path class="cls-9" d="M106.55,177.78,86.38,204.67s-7.62,10.31,4.48,6.72l6.73-2.24s6.23-2.39,10-6.88c0,0,15.72-20.07,18.53-27.37,0,0,3.51-5.61-4.21-5.19Z" transform="translate(0 53.23)"/><path class="cls-10" d="M87.25,203.39l20.35-26.95,13.62-6s6-1.4,4.63,4.21c0,0-13.33,21.76-21.75,28.77a32.77,32.77,0,0,1-7,4.21S80.66,213.5,87.25,203.39Z" transform="translate(0 53.23)"/><path class="cls-13" d="M114.62,181.36l-7-5.34L91.46,197.78s-8.33,11.41,4.34,6.37c0,0,8.2-3.88,13.24-10.79l7.19-10.51Z" transform="translate(0 53.23)"/><path class="cls-10" d="M386.52,189.43s-39.24,32.18-52.32,72.73l-2.1.52s3.14-23,27.47-56.24c0,0,7.33-8.64-1.83,0,0,0-12.56,11.77-26.94,52.32l-12.3-7.06,12.3-36.11,17-14.38s9.16-8.64-2.61,0L329,213s3.67-9.94,7.07-15.7c0,0,9.94-11.77-14.91-11.77,0,0,18.65-1.31,11.94,10.85l-18.3,52s-4.11,6.73-14.57-.6c0,0-6-10.72-30.88-15.17l-19.55,15.77-6.61-9.75v12.29l-9.68,22.24s-3.92,8.11-6.54-.52l-6-16.48,5.24-51.54-5.24-9.16s-6.28-8.64-.52,3.14l3.93,8.63s1.83,10.47-4.71,5.23c0,0-2.62-2.87-2.62,3.14l-3.93,20.93,3.15,7.85s4.18,11-4.45,5.24l-19.63-13.09s-6.27-3.92-.26,3.14l19.1,17a9.33,9.33,0,0,1,1.31,7.85l-2.62,6.54-7.32-.79L176.18,244.9s-7.59-6.81-.53,3.14l15.7,19.09s.78,3.14-2.62,7.07l-13.08,9.94s-13.34,9.16-30.87-7.85L95.07,220l7.33-2.62,6.54-6.54c1.31-1.3,9.68-19.09,9.68-19.09l-9.68,15.69s-5.5,6.81-9.94,7.33l-12.3,2.71,57.56,62.69s12.11,18.89,34.22,8.17l23.68-8.27s8.1-1.33,15-9.51l2.76,2.76,1,33.75s0,10.25,7.34,10.6l80.11-.52L264.6,284.66l30.61,30.09L267.74,314s-10.46-3.4-26.16,0c0,0-16.48,3.93-10.46-3.92L251.52,280l-6-4.44-18.84,25.37s-8.37,8.37-2.62-5.23L241.58,263l37.94,11.25,54.94.52Z" transform="translate(0 53.23)"/><path class="cls-13" d="M221.08,300.2l2.79-11.14a58.05,58.05,0,0,0,.55-9.74s-1.39-11.69-4.17-19.49l5.56-53.72-1.94-4.18s-5.85-9.74-.84,1.39c0,0,4.45,7.24-.56,12,0,0-1.94-1.95-1.39,2.79l-1.39,34s.84,4.73-4.17,1.39l-10.58-7.52s-9.19-5,0,2c0,0,10,7.79,10.58,12,0,0-.56,13.36-5.57,16.7a29,29,0,0,0,7.21-5.93l2.76,2.76S220.53,289.06,221.08,300.2Z" transform="translate(0 53.23)"/><path class="cls-13" d="M285.88,241.8s9,2.91,13.72,8.71c0,0,3.16,4,10.55,2.63a8.28,8.28,0,0,0,6.59-4.74l8.7-25.59s2.38-6.06.53,1.85l-9.76,29s11.34,5.54,15.83,10h1.84s17.15-42.46,35.61-62.77l-35.61,76-49.32-18.46Z" transform="translate(0 53.23)"/><path class="cls-13" d="M328.61,211.47l7.12-15.82s2.63-5.54-2.64-7.39c0,0,3.43,3.43.79,8.71Z" transform="translate(0 53.23)"/><path class="cls-3" d="M328.38,194c1,2.36-.92,5.36-4.19,6.68s-6.7.5-7.66-1.86.92-5.36,4.19-6.69S327.42,191.67,328.38,194Z" transform="translate(0 53.23)"/><path class="cls-14" d="M327.94,193.24c1,2.36-.92,5.35-4.19,6.68s-6.7.5-7.66-1.87.91-5.35,4.18-6.68S327,190.88,327.94,193.24Z" transform="translate(0 53.23)"/><path class="cls-9" d="M277.84,165.68l7.05-15.85a6.84,6.84,0,0,1,3.67-5.6l6.95-2.89,1.13.72-8.08,3.42s-2.5,1.43-2.14,5.36a40.91,40.91,0,0,0,7.5,16.09s2.32,4.82-.36,7.5l-6.79,4.11a13.39,13.39,0,0,1-8,0l-12.33-5.9s-4.82-3.57-17-1.78c0,0-7.44.08-11.58-1.3,0,0,8.36.94,12.83.4,0,0,8.76-2.23,16,1.12C266.68,171.08,275,170.32,277.84,165.68Z" transform="translate(0 53.23)"/><path class="cls-10" d="M266.68,171.08s8.69-.66,11.53-6.07l6.68-15.18s.45-4.52,3.67-5.6l6.95-2.89.73.39-7.52,3.11a6.3,6.3,0,0,0-3.05,5.66,34.92,34.92,0,0,0,3.05,9.14s1,2.09-1.57,4.53l-5,4.18S276.25,172.5,266.68,171.08Z" transform="translate(0 53.23)"/><path class="cls-9" d="M305.62,180.73s4.1-7.48,15.67-13.71c0,0,18.15-10,20.82-20.12l-10.46-.78v-1l11,1s.82-.16.41,2.7c0,0-1.71,10.86-17.23,20.42,0,0-6.78,4.24-9.64,8.73A10.6,10.6,0,0,1,305.62,180.73Z" transform="translate(0 53.23)"/><path class="cls-12" d="M290.41,244.23c10,12.4,14.41,10.05,14.41,10.05,11.72-1.67,27.22,9.41,27.22,9.41h1.84s17.84-34.53,17.84-33.53S319.89,323,319.89,323c-26.94-12.35-26.84-12.58-86.43-45.9l11.06-28.47.67-6.7Z" transform="translate(0 53.23)"/><path class="cls-4" d="M179,221.84s2.18-2.81,13.56-1.56a83.45,83.45,0,0,1,12.15,0l27.59,1.24,24.15,10.91-3.43,7-43.32-7.79Z" transform="translate(0 53.23)"/><path class="cls-4" d="M184,227l-8.57-.47s-3-.47-1.87-3.11c0,0,2-3.43,12.46-1.88a63.55,63.55,0,0,1,15.9,0h17.61s22.91-2,30.7,2.65l6.7,4.68-6.7,16.05-16.68-7-33.19-7Z" transform="translate(0 53.23)"/><path class="cls-5" d="M249.41,223.19s-9.11-3.09-14.25-1.91c0,0,7.79-.74,14,2.94,0,0,3.23,3.08-6.32,1.91a36.61,36.61,0,0,1-8.82-2.21s-7.34-2.94-11-.73c0,0-4.12,2.06.74,4.7l5.14,2.94s7.5,4-.29,1.47a41,41,0,0,0-14.47-1.89l-6.7-1.09c-4-1-13.28-1.89-14.62-2-6.08-3.18-13.61-2.78-13.61-2.78-5.9-.3-3.69-1.92-3.69-1.92,3.69-1.92,10-1,10-1,4.87-.29,14.75-.44,14.75-.44a76.14,76.14,0,0,0-13.72,0l-1.77-.29c.74-.74,7.82-.56,7.82-.56a36.9,36.9,0,0,0-12.25.56c-7.38.44-7.08,3.25-7.08,3.25,0,2.5,2.66,2.65,2.66,2.65h5.55a3.13,3.13,0,0,0-1.66,1.79c-.78,2,3.9,2.65,3.9,2.65l10.9,2.34,7.8,2,9.76,2.22,8.75,2.18,21.88,2.19,9.63,5.25,10.06-17.5Z" transform="translate(0 53.23)"/><path class="cls-6" d="M252.94,226l-3.53-2.81,5.74,2.81-7.67,18.75-4.69-2.61L220.91,240l-18.15-4.36-7.67-1.91-11.39-2.49c-7.26-1-2.33-4.45-2.33-4.45-11.52,1.48-7.38-4.13-7.38-4.13-3,4,8.11,3.39,8.11,3.39a35.88,35.88,0,0,1,10.33,1.48c-7.82-1.77-9.15-.45-9.15-.45-4.72,2.22,2.28,2.18,2.28,2.18l10.67,1.84,10,2.42,13.93,3.27,17.34,1.42S248.81,238.72,252.94,226Z" transform="translate(0 53.23)"/><path class="cls-8" d="M254.57,223.33l-20.22,53L316.21,322s16.85,12,28.89-2.41l26.48-25.52s10.6-8.18,13-25l19.26-60.19s4.82-15.41-7.22-24.07c0,0-12-4.82-28.89,16.85,0,0-16.85,19.26-28.89,53l-5.78,12s-13.48-12-25.52-12c0,0-6.26,2.41-9.63-2.41,0,0-4.82-10.59-14.45-14.44Z" transform="translate(0 53.23)"/><path class="cls-9" d="M333.06,266.67l5.78-12s13.23-37.2,32.13-56.79c0,0-18,22.82-28.35,50.94,0,0-3.46,6.68,6.92.45,0,0,25.81-15.9,41.48-30.42,0,0,6.46-6.46,3,1.61,0,0-3,22.36-51.4,35.73l-7.38,9.91,21.21-6.45s12.91-4.61,4.15,4.61c0,0-10.37,9.45,1.15,3a126.44,126.44,0,0,0,30-26,37.33,37.33,0,0,0,5.06-10.84l-12,38A45.2,45.2,0,0,1,368.43,297L345.1,319.63s-9.39,14.43-29.68,2.21L234.35,276.3,249,238.17l26,12.68a11,11,0,0,1,4.62,8.76s-1.16,6.45,5.76,5.76c0,0,17.28-4.84,28.81-1.84l12,3s7.15,2.77,1.85-1.84c0,0-10-9.73-20.56-10.05C307.54,254.63,316.13,253.21,333.06,266.67Z" transform="translate(0 53.23)"/><path class="cls-9" d="M283.91,259l8.62-4.44s3.2-1.23,1.23-4.92c0,0-9.85-10.84-12.31-4.19v9.11S280.22,262.22,283.91,259Z" transform="translate(0 53.23)"/><path class="cls-10" d="M358.05,214.75S344,237.35,339.8,252.61l-6.74,14.06a71.65,71.65,0,0,0-11-7.41s7.38,3.7,11.08,9.85c0,0-1.5,5.83,8,19.55,0,0,7.6,5.91,2.32-4.64l-8-11.2,8.44,7.39s11,8.66,2.54-1.48l-11.62-12.24,5.92-12S340.92,243,358.05,214.75Z" transform="translate(0 53.23)"/><path class="cls-10" d="M243.14,253.08l-8.79,23.22,82.47,46.53s16.57,10.36,27.7-2.5l21-20.27L342,321.57c-15.33,6.93-10.12-2.47-27.19-2.47-1.24,0-78.38-43.77-78.38-43.77Z" transform="translate(0 53.23)"/><path class="cls-15" d="M283.45,261.49s14.58-10.14,35.11-2c0,0,13.6,6.68,1.23,3.71,0,0-12.86-5.44-33.87-.5C285.92,262.72,278,265.19,283.45,261.49Z" transform="translate(0 53.23)"/><path class="cls-15" d="M255.54,225.61,251.8,236l19.28,8.65s6.43,4.21,7.17,0c0,0,.74-4.7,5.69-3,0,0,6.18,1.72,0-2C283.94,239.73,255.05,224.87,255.54,225.61Z" transform="translate(0 53.23)"/><path class="cls-15" d="M364.3,264s25.22-17.8,30.16-30.91c0,0,6.93-15.33,8.66-29.67,0,0,.74-11.62-2.48-2.47,0,0-4.2,7.91-19.78,20.28l-29.92,23s-9.88,8.41,1.24,1.73c0,0,29.18-19.28,41.54-30.91,0,0,5.94-6.92,3,2.48,0,0-3.46,26-51.18,39.56l-3.71,5.68,17.31-6.18s13.1-6.42,7.41,1.73C366.52,258.27,355.89,270.88,364.3,264Z" transform="translate(0 53.23)"/><path class="cls-15" d="M350.94,280.53s2.72,6.92-4.2,3.21c0,0-7.42-6.18,0,3.71,0,0-1.23,6.92,7.42-1.24,0,0,3-3.95.49-6.92C354.65,279.29,342.29,271.13,350.94,280.53Z" transform="translate(0 53.23)"/><path class="cls-15" d="M160.9,253.17s-5.36-30-11.18-47.85l20.13,29.07,4.47-2.24L186.4,248.7l-11.19-9.84s-5.36-8.05-9.83,3.14C165.38,242,164.48,274.2,160.9,253.17Z" transform="translate(0 53.23)"/><path class="cls-15" d="M195.34,209.79s.45-5.81,8-5.81c0,0,8.05,1.78,8.05-6.27,0,0-2.23-11.62,4.48.9,0,0,8.5,13.42.89,6.71,0,0-4.47,0-4.47,4.47l-.9,8.05-8.05-8.05L198,212S190.42,216.5,195.34,209.79Z" transform="translate(0 53.23)"/><path class="cls-15" d="M218.15,186.53l3.13,4.47s3.58,8.06,5.82-2.23L228,183s2.69-7.6,5.82-.89l3.13-8.05s.44-6.26-5.37-.9c0,0-5.81,5.82-12.52,11.18C219.05,184.29,213.68,185.64,218.15,186.53Z" transform="translate(0 53.23)"/><path class="cls-15" d="M129.59,175.35l8,13.42L152,238.86l-20.13-53.67s-3.58,17-9,23.71l-3.13-10.29S126,185.64,129.59,175.35Z" transform="translate(0 53.23)"/><path class="cls-15" d="M236.49,199.5l20.13-23.7L241,173.56l-6.71,22.37S229.78,208.45,236.49,199.5Z" transform="translate(0 53.23)"/><path class="cls-15" d="M368.44,195s4.47-7.16,17.89-12.52L366.2,175.8S344.73,187,337.13,202.63l25.94-18.78s13.42-7.6,8.94,0c0,0-19.68,19.23-36.67,31.31l-5.82,18.78,4.48,1.34,6.71-19.23S358.15,198.61,368.44,195Z" transform="translate(0 53.23)"/><path class="cls-15" d="M317.45,228.58S313,225,308.5,225l7.61-20.13a13.67,13.67,0,0,0,12.52-5.37Z" transform="translate(0 53.23)"/><path class="cls-4" d="M91.53,153.34,105.05,155s11,1.45,14.14,7.69c0,0,4,8.53,6.65,12.06a83.78,83.78,0,0,1-11.43,17.05L106.09,180s-2.91-5.41-25.37-8.94c0,0-2.07,0-6.23-3.12a46,46,0,0,0-14.14-6.24,25.67,25.67,0,0,1-5.62-2.49S51.2,155,42.26,151.88c0,0-7.65-.59-2.1-4.86,0,0-8.29-4.77-.9-5.27,0,0,7.3,0,18,3.32,0,0,3.42-1,12,3.24l5.12,3S73,145.75,80.69,147C80.69,147,86.17,147.7,91.53,153.34Z" transform="translate(0 53.23)"/><path class="cls-5" d="M114.41,191.8l5-6.35-11.69-13.1a23,23,0,0,0-11.33-7.08,54.75,54.75,0,0,1-15.93-7.08l-17-8.15s-8.15-4.25-7.08-.71L41.47,144s-10.42-2.84-1.31,3c0,0-5.57,3.82,2.1,4.86a49.26,49.26,0,0,1,11.61,6.31,19.59,19.59,0,0,0,8.85,4.25s8.25,2.47,14.17,7.08a14.92,14.92,0,0,0,6.82,2.1S100.17,174,106.09,180Z" transform="translate(0 53.23)"/><path class="cls-6" d="M114.41,191.8l2.92-3.61L107,175.89s-4.25-7.08-12.39-8.85c0,0-5.31,0-15.93-7.08L56.35,149.33l21.6,12s8.49,5.67-2.84,1.07l-12.39-5.32-7.08-5.31-14.17-6.37s-9.71-3.91-1.31,1.58l7.69,3.73,8.85,5.31L62,159.6l9.56,3.54L59.18,159.6,45,151.81l-5.64-.68,3.54,1.15s6.51,1.91,10.95,5.91c0,0,1.77,2.47,8.85,4.25,0,0,8.73,2.67,11.77,5.45,0,0,2,2.69,8.41,3.4,0,0,18,2.91,23.19,8.66Z" transform="translate(0 53.23)"/><path class="cls-5" d="M74.29,151.29s-1.63-4.36,3.91-4.36l9.61,5.44S74.69,151,74.29,151.29Z" transform="translate(0 53.23)"/><path class="cls-6" d="M82.58,151.83l-8.29-.54s-1-3.69,2.6-4.16Z" transform="translate(0 53.23)"/><polygon class="cls-16" points="70.5 216.03 62.01 212.84 47.85 203.98 40.16 200.26 48.7 204.06 62.98 212.5 70.5 216.03"/><polygon class="cls-16" points="56.34 202.57 65.59 207.89 75.56 213.26 78.33 214.8 73.72 211.73 64.82 207.13 56.34 202.57"/><path class="cls-3" d="M335.38,124.76s11.31,0,16.39-15.62l-3.9,3.91,3.9-5.86-5.86,3.12s7-3.12,7-14.83l-13.66-2.74L260,107.19s-1.56,18.35-10.54,11.71c0,0,1.17,3.13,5.86,3.13,0,0-3.51,1.59-6-.28,0,0,2.44,2.81,8.43,2.81,0,0-3.74,1.87-6.55.94,0,0,1.68,1.31,6,.93l-3.18.94s2.24,5.06,12.55,8.43a36.49,36.49,0,0,1-10.31-3.37s5.63,5.24,21.55,6.18c0,0-8.81,1.31-14.43-.94,0,0,6.94,3.75,14.43,3.75a58.15,58.15,0,0,1-7.49.56s5.24,2.25,14.61,1.31l-6.19,1.5s6.94,0,11.25-1.87c0,0-4.69,3.75-8.43,3.75,0,0,6.74.37,10.86-3.38l41.22-15.36h5.62L335,127a19.47,19.47,0,0,0,10.86-5.25S339.87,125.34,335.38,124.76Z" transform="translate(0 53.23)"/><path class="cls-5" d="M336.22,111.75s6.2,1,5.88-9.59l-9.43-7.56Z" transform="translate(0 53.23)"/><path class="cls-6" d="M340.37,109.83a12.94,12.94,0,0,0,1.73-7.67l-9.43-7.56,3.43,14.91S339.57,105.62,340.37,109.83Z" transform="translate(0 53.23)"/><path class="cls-16" d="M335.23,107.62s3-.93,3.34-2.69c0,0,1.76-2.64,2.31,3.52,0,0,1.89-3.85,1.22-6.29l-9.43-7.56Z" transform="translate(0 53.23)"/><path class="cls-17" d="M334.75,105.09s4.82.53,4.54-5.07l-6.19-4.48Z" transform="translate(0 53.23)"/><path class="cls-5" d="M278.68,131.61s-7.5,4.6-13.6-8.63c0,0-5.42-10.79,3.08-14.71Z" transform="translate(0 53.23)"/><path class="cls-6" d="M269,128.94s-12.5-14.64-.84-20.67l8.45,18.34s-5,1.61-6.47-1.61c0,0-7.46-2.75-3.66-7.94,0,0,1.07-4.15-1.64-1.07C264.84,116,262.49,119.79,269,128.94Z" transform="translate(0 53.23)"/><path class="cls-16" d="M266.8,117.75s-2.45,3.74,2,5.16c0,0,2.33,2.41.67-1.18,0,0-2.66-3.13-.12-5.18L266.8,109a7.89,7.89,0,0,0-3.33,9s.39-3.31,2.11-4.1C265.58,114,268.93,111,266.8,117.75Z" transform="translate(0 53.23)"/><path class="cls-16" d="M276.19,125.63s-2.79.76-4,.08c0,0-3.7-1.6,1.4-1.86Z" transform="translate(0 53.23)"/><path class="cls-17" d="M268.15,117.65s-.9,1.81,1.27,4.65C269.42,122.3,264.93,120.88,268.15,117.65Z" transform="translate(0 53.23)"/><path class="cls-5" d="M330.15,143.12s8.6-16.69,5.63-41.13l-3.58-19.4L320.48,62.9,304,55.28l-27.17,6.53L260.33,79.52l5.46,29.13,6.3,14.61s8.66,19.38,29.06,29.13C301.15,152.39,321,160.72,330.15,143.12Z" transform="translate(0 53.23)"/><path class="cls-4" d="M320.82,82.37c3.62,9.34,11,16.9,11,16.9,7.12,17.8-1.88,38.4-1.88,38.4-6.55,19.11-24,14.44-24,14.44-28.95-9.7-35.82-40.24-35.82-40.24,1.06-3.94.44-10.29.44-10.29l.11-5.28a144.65,144.65,0,0,1,48.52-16.76Z" transform="translate(0 53.23)"/><path class="cls-5" d="M299.78,137.54s6.13,6.06,13.7,5c0,0,8.49-.76,8.57-12.12C322.05,130.43,315.49,145.25,299.78,137.54Z" transform="translate(0 53.23)"/><path class="cls-6" d="M306.1,140.27a10.63,10.63,0,0,0,9.9,0s4.54-2.14,5.25-8.57C321.25,131.71,316.55,141.06,306.1,140.27Z" transform="translate(0 53.23)"/><path class="cls-5" d="M289.31,130.29l6-9.13s1.46-2.53,1.41-.08c0,0-.91,4.17,1.86,3.58l4.91-.77s4.08-.5,6.05-1.68l5-2.07s1.55-2-1.69-4.33c0,0-2.64-2.16,1.94-.44l10.39,5.81s4.18,1.93,1.12,4.42a7,7,0,0,0-4.3,4.55l.18-4.33-3.49.7s4.69-3,2.52-5l-4.53-3.3s-2.82-2.42-.58,1c0,0,1.64,2.18-2.5,4.13l-2.92,1.47a10.86,10.86,0,0,1-7.77,1.65l-4.13.23a2.19,2.19,0,0,1-2.48-2.05s-.36-2.25-.8.41l-1.63,6s-1.76,3.43,1.62,3l-.84,1,3.64,2.15a16.33,16.33,0,0,0-6.47-.13S286.29,136.66,289.31,130.29Z" transform="translate(0 53.23)"/><path class="cls-6" d="M295,134.42s-3.06-.23-2.07-3.12c0,0,1.31-3.51-.89-.14l-.85,1.85s-1,2,1.08,2.27l4.46,1Z" transform="translate(0 53.23)"/><path class="cls-18" d="M292.38,132.53s-.15,1.75,2.2,2.1l1.2,1.24-3.32-1.05s-1,.29-.81-1.45C291.65,133.37,292.38,130.67,292.38,132.53Z" transform="translate(0 53.23)"/><path class="cls-6" d="M295.52,123.28l-.79,2.28s-1.32,1.65-.7-.75l1.12-2S296.13,120.75,295.52,123.28Z" transform="translate(0 53.23)"/><path class="cls-6" d="M321.86,120.13l3.8,2.27s1.92,1.28.45,1.94c0,0-2.72,1.86-3.36,3.26l-1.66-1.46,1.6-2.55a1.76,1.76,0,0,0-.47-2.08S320,119.41,321.86,120.13Z" transform="translate(0 53.23)"/><path class="cls-18" d="M321.62,125.91l1.62-2.41s.11-1.16,1.36-.5c0,0,2.49.32-1.49,3.25Z" transform="translate(0 53.23)"/><path class="cls-19" d="M301.61,124.62a18.79,18.79,0,0,0,8.83-2.26s6.74-3.64,3.59,0l-4.49,2.44a9.13,9.13,0,0,1-5.71,1.18,25.81,25.81,0,0,0-3.7.15s-4.49-.29-1.46-1.06A18.53,18.53,0,0,1,301.61,124.62Z" transform="translate(0 53.23)"/><path class="cls-16" d="M302.84,125.14a17.55,17.55,0,0,0,7-2S308,126.91,302.84,125.14Z" transform="translate(0 53.23)"/><path class="cls-20" d="M306.79,118s2,.55.88,2.88a5.23,5.23,0,0,1-4.06,1.5s-1.63-.32-.77-2.17l1.31-1.65A3.53,3.53,0,0,1,306.79,118Z" transform="translate(0 53.23)"/><path class="cls-21" d="M306.43,119.38s1.22,1.38-.79,2.28c0,0-2.73.86-2.06-1.25C303.58,120.41,304.74,117.78,306.43,119.38Z" transform="translate(0 53.23)"/><path class="cls-20" d="M297,122s-.07,2.31,1.46,1.92c0,0,2.68-.28,1.62-1.54l-1.25-1.53S297.09,119.59,297,122Z" transform="translate(0 53.23)"/><path class="cls-20" d="M295.18,132.38l4.64-1.16s1.78-.92.45-1.25l-2.13-.63s-1.06-.58-2,.75l-.84,1.52S294.56,132.48,295.18,132.38Z" transform="translate(0 53.23)"/><polygon class="cls-22" points="294.93 187.37 306.03 184.9 309.64 184.19 313.28 181.75 323.51 178.41 323.24 180.32 317.67 188.67 311.02 192.01 303.52 191.76 296.93 189.07 294.93 187.37"/><path class="cls-15" d="M298,133.79l.73,1a2.27,2.27,0,0,0,1.8.43,4.12,4.12,0,0,0,2.25.65s2.8.42,4-.34a6.85,6.85,0,0,0,3.75-.74,6.33,6.33,0,0,0,3.49-1.55s2.2-.63,2.65-1.42c0,0,1.63-.55,2-1.76a1.58,1.58,0,0,0,1-.87s1.29-.92,1.35-1.51l0-1.58-6.43,2-3.77,2.46-4.86,1Z" transform="translate(0 53.23)"/><path class="cls-23" d="M298,133.79l.73,1,7.66-1.5s4.09-.5,5.73-1.91c0,0,2.28-1.94,8.8-4.26l.13-1-7.19,2.71-4,2.06-4.72,1Z" transform="translate(0 53.23)"/><path class="cls-24" d="M322.65,125.17l-5.12,1.24a22.41,22.41,0,0,0-5.23,2.26,11.18,11.18,0,0,1-6.8,2.37l-11.33,2.79c-3.39.39,1.49,2.21,1.49,2.21l7.46,3.55c11.17,4.41,15.76-3.78,15.76-3.78,3.29-3.67,5.12-9.42,5.12-9.42C325.2,124.05,322.65,125.17,322.65,125.17Zm-1.4,3-3.37,4.12s-7.6,6.37-16.46,3.89L297.94,135s-3.38-.47-.42-.8l8.62-1.79s2.82.56,6.78-2.5a17.5,17.5,0,0,1,3.6-1.72l6.13-2.12S324.35,125.05,321.25,128.12Z" transform="translate(0 53.23)"/><path class="cls-25" d="M303,137.61l2.25.65,2.57-.11s2.38-.38.55.76l-2.17.78-1.61-.18-2-1-1.42-.78Z" transform="translate(0 53.23)"/><polygon class="cls-25" points="306.53 191.72 307.23 191.6 307.56 191.84 306.5 192.43 304.73 192.14 303.52 191.76 302.44 191.21 304.06 191.53 306.53 191.72"/><polygon class="cls-25" points="314.87 189.97 316.39 189.58 317.6 189.1 318.33 188.27 318.5 187.53 316.86 188.08 315.2 188.48 313.59 189.16 313.1 189.68 314.87 189.97"/><path class="cls-26" d="M309.57,123.91s.73-1,3.76-2.4C313.33,121.51,312.68,123.06,309.57,123.91Z" transform="translate(0 53.23)"/><path class="cls-26" d="M299,125.4a8,8,0,0,1,4.13-.11A8,8,0,0,1,299,125.4Z" transform="translate(0 53.23)"/><path class="cls-6" d="M315.41,115.46l3.36,2s1.18,1.2-1.67-.25l-1.77-1.13S314.32,115,315.41,115.46Z" transform="translate(0 53.23)"/><path class="cls-5" d="M284.54,98.63s7.51-.25,10.37,6.31c0,0,.48,2.67-2.23.1A24.85,24.85,0,0,0,282,99.74,4.5,4.5,0,0,1,284.54,98.63Z" transform="translate(0 53.23)"/><polygon class="cls-27" points="291.51 152.48 292.5 154.13 290.14 154.41 291.34 153.78 291.51 152.48"/><path class="cls-27" d="M290.36,98.9,291,100l-1.69.67-.06-.47-1.26.15s-11.85-1.16-15.51,3.12c0,0-1.61,1.31,0-1.13,0,0,3.06-5.33,15.53-4.24A3.45,3.45,0,0,1,290.36,98.9Z" transform="translate(0 53.23)"/><path class="cls-28" d="M289.89,99.12l.39.59-.75.41-.35-.28-1.13,0s-10.2-.88-14.33,2.17c0,0-1.79,1.17.08-.65,0,0,3.74-3.65,12-3A9.74,9.74,0,0,1,289.89,99.12Z" transform="translate(0 53.23)"/><path class="cls-29" d="M288.76,98.93l1,.52-.63.08s-10-.58-13.48,1.27c0,0-1.84.7.1-.49C275.76,100.31,280.54,97.34,288.76,98.93Z" transform="translate(0 53.23)"/><path class="cls-15" d="M279.61,110s2.47-5.62,7.89-4.82c0,0,3.93.9,4.6,2,0,0-.5,1.2-5.33,2.5C286.77,109.67,282.28,110.87,279.61,110Z" transform="translate(0 53.23)"/><path class="cls-23" d="M283.3,106.13s-3.12,3.55.61,4.16a15.44,15.44,0,0,1-4.53-.26A11,11,0,0,1,283.3,106.13Z" transform="translate(0 53.23)"/><path class="cls-23" d="M289.55,105.61s2.68,1.38.81,2.82l1.77-1S292.19,106.77,289.55,105.61Z" transform="translate(0 53.23)"/><path class="cls-5" d="M282.13,110.4l-2.28-.44a9.94,9.94,0,0,1,4.65-4.54s-3.68-.24-6.83,4.47c0,0-1.09,2.09.54,1.47Z" transform="translate(0 53.23)"/><path d="M283.43,108.18a3,3,0,1,0,2.53-3.4A3,3,0,0,0,283.43,108.18Z" transform="translate(0 53.23)"/><path class="cls-30" d="M283.93,108.1a2.49,2.49,0,1,0,4.93-.72,2.49,2.49,0,1,0-4.93.72Z" transform="translate(0 53.23)"/><path d="M285.2,107.91a1.2,1.2,0,1,0,1-1.35A1.2,1.2,0,0,0,285.2,107.91Z" transform="translate(0 53.23)"/><path class="cls-4" d="M283.48,105.82a9.84,9.84,0,0,1,5.24-.26S286.26,102,283.48,105.82Z" transform="translate(0 53.23)"/><path class="cls-4" d="M289.51,108.76a20.36,20.36,0,0,1-5.6,1.53S288.26,113,289.51,108.76Z" transform="translate(0 53.23)"/><path class="cls-25" d="M285.37,108.75l-.58.4c-.88-.38-.71-1.81-.71-1.81l1.9-.24.18.54-.74.21a.82.82,0,0,0,.2.6Z" transform="translate(0 53.23)"/><path class="cls-25" d="M287.57,107.09l.85-.48a1.92,1.92,0,0,1,.16,1.87l-.93-.24A1.24,1.24,0,0,0,287.57,107.09Z" transform="translate(0 53.23)"/><path class="cls-31" d="M292.1,107.17s-4.29,3.4-12.49,2.82l-.73.27s7.43,1.69,13.48-2.9Z" transform="translate(0 53.23)"/><path d="M291.43,107.88l.05,0Zm-12.31,1.66a9.87,9.87,0,0,0-.59,1l4-.42-1.94-.11c2.46-6.92,9.88-3.76,9.88-3.76,2.35,1,1.32,1.52,1.06,1.61,2.49-.76-.45-1.7-.45-1.7a8.17,8.17,0,0,0-6.83-.84l-.42-.5.22.57a7.51,7.51,0,0,0-.77.34l-1-.37.58.57c-.24.14-.47.29-.7.45a2.25,2.25,0,0,1-1.42-.61,1.59,1.59,0,0,0,.88,1c-.21.17-.42.34-.61.52a6.26,6.26,0,0,1-1.53-.59,2.63,2.63,0,0,0,1.24.88l-.23.22a2.85,2.85,0,0,1-2.32-.08,1.82,1.82,0,0,0,1.79.7q-.3.36-.54.69a5.24,5.24,0,0,1-2.08,0S278.37,109.87,279.12,109.54Z" transform="translate(0 53.23)"/><g id="bazaardesigns.com-2" data-name="bazaardesigns.com"><path class="cls-5" d="M306.46,102.3S307.25,93.89,317,88c0,0-12.31,2.64-13,12.08a22.84,22.84,0,0,0,.38,3.22S305.29,107.34,306.46,102.3Z" transform="translate(0 53.23)"/><path class="cls-27" d="M307.41,95.2s8.82-8.31,15.38-6.86c0,0,5.95,1.38,1.68-.79a16,16,0,0,0-15.56,2.73L305.81,93l.11-.45L305,94.9l.72-.24-.38.64,1.25-.74-.31,1.07Z" transform="translate(0 53.23)"/><path class="cls-28" d="M306.29,93.26l-.06.75.55-.36.29,1.15s7.47-7.12,14.31-7c0,0,4.24.64,1.57-.28l-.12,0c-2.94-1-7.42-1.2-13.21,2.61A19.18,19.18,0,0,0,306.29,93.26Z" transform="translate(0 53.23)"/><path class="cls-29" d="M307.82,93.67a54,54,0,0,1,6.34-4.16s3.62-2.06,6.6-2c0,0,2.23,0,.11-.31A14.4,14.4,0,0,0,312,88.87a19,19,0,0,0-3.7,2.75,8,8,0,0,0-.77.9l1-.42Z" transform="translate(0 53.23)"/><polygon class="cls-27" points="304.51 147.75 304.49 150.12 306.03 149.34 304.99 149.32 304.51 147.75"/><path class="cls-15" d="M321.48,97s-4.21-3.07-8.52-.1c0,0-2.95,2.2-3.48,4.9,0,0,1.56.43,5.75-1.15C315.23,100.63,319.71,98.78,321.48,97Z" transform="translate(0 53.23)"/><path class="cls-23" d="M316.15,95.73s4.58,1.12,1.88,3.76a15.3,15.3,0,0,0,3.55-2.81A11,11,0,0,0,316.15,95.73Z" transform="translate(0 53.23)"/><path class="cls-23" d="M310.72,98.89s-1.4,2.66,1,2.76l-2.05.17S309.22,101.35,310.72,98.89Z" transform="translate(0 53.23)"/><path class="cls-5" d="M319.55,98.56l1.61-1.67a9.92,9.92,0,0,0-6.41-1s2.88-2.31,8.17-.26c0,0,2.09,1.1.39,1.52Z" transform="translate(0 53.23)"/><path d="M317.37,97.37a3,3,0,1,1-4-1.33A3,3,0,0,1,317.37,97.37Z" transform="translate(0 53.23)"/><path class="cls-30" d="M316.92,97.6a2.5,2.5,0,1,1-3.34-1.11A2.5,2.5,0,0,1,316.92,97.6Z" transform="translate(0 53.23)"/><path d="M315.76,98.18a1.2,1.2,0,1,1-1.6-.53A1.2,1.2,0,0,1,315.76,98.18Z" transform="translate(0 53.23)"/><path class="cls-4" d="M315.82,95.58a9.83,9.83,0,0,0-4.45,2.79S311.79,93.86,315.82,95.58Z" transform="translate(0 53.23)"/><path class="cls-4" d="M312.56,101.44a20.43,20.43,0,0,0,5.47-2S316.84,103.66,312.56,101.44Z" transform="translate(0 53.23)"/><path class="cls-25" d="M315.76,97.58l.59-.51s1,1.07.46,1.88h-.7A1.65,1.65,0,0,0,315.76,97.58Z" transform="translate(0 53.23)"/><polygon class="cls-25" points="314.21 150.53 315.03 150.47 314.81 151.43 314.38 151.29 314.21 150.53"/><path class="cls-31" d="M309.53,101.62s5.46.33,11.85-4.84l.75-.2s-5.12,5.64-12.7,5.35Z" transform="translate(0 53.23)"/><path d="M310.43,101.84l.06,0Zm12.25-7.21A5.56,5.56,0,0,1,321.05,96c-.26-.09-.54-.18-.83-.26a1.8,1.8,0,0,0,1.06-1.59,2.89,2.89,0,0,1-1.85,1.4l-.32-.06a2.54,2.54,0,0,0,.5-1.43,6.32,6.32,0,0,1-.91,1.36c-.25,0-.52-.06-.79-.08A1.56,1.56,0,0,0,318,94a2.18,2.18,0,0,1-.81,1.3c-.28,0-.56,0-.84,0l.16-.8-.59.86c-.27,0-.54.09-.82.15l-.14-.59-.05.65a8.17,8.17,0,0,0-5.12,4.6s-1.87,2.46.6,1.66c-.26.07-1.39.26-.05-1.93,0,0,4.26-6.84,10.25-2.58l-1.54,1.2,3.49-1.92a9.12,9.12,0,0,0-1.06-.47C322.39,95.87,322.68,94.63,322.68,94.63Z" transform="translate(0 53.23)"/></g><path class="cls-15" d="M284.22,107.52l1.54-.24.14.34-.79.18a1.22,1.22,0,0,0,.25.76l-.61.41A1.57,1.57,0,0,1,284.22,107.52Z" transform="translate(0 53.23)"/><path class="cls-25" d="M313.37,98.17l-1,.08a2.39,2.39,0,0,0,1,2.48l.73-.82A1.63,1.63,0,0,1,313.37,98.17Z" transform="translate(0 53.23)"/><path class="cls-15" d="M314,99.92a1.85,1.85,0,0,1-.71-1.64l-.8.08a2.06,2.06,0,0,0,.9,2.24Z" transform="translate(0 53.23)"/><polygon class="cls-15" points="314.75 151.32 314.98 150.56 314.34 150.6 314.46 151.26 314.75 151.32"/><path class="cls-20" d="M312.47,117.19s2.81,1.61.08,2.76Z" transform="translate(0 53.23)"/><path class="cls-20" d="M310,148.61s3.68,1.42,6.74-.68c0,0,1.73-1.57-2.09-1.91l-4.18.36S307.31,147.46,310,148.61Z" transform="translate(0 53.23)"/><path class="cls-20" d="M329.16,106.19,328,110.08a3.36,3.36,0,0,1-4.73.69s-4.45-1.41,0-3.55C323.3,107.22,330.9,103.33,329.16,106.19Z" transform="translate(0 53.23)"/><path class="cls-20" d="M280.75,122l2.77,1.47s3.66.88,4.72-2.23c0,0,1.69-2.53-1.07-2.45,0,0-6.79,1-6.36.88S278.12,121,280.75,122Z" transform="translate(0 53.23)"/><path class="cls-20" d="M284,95.06a6.26,6.26,0,0,1,6,.93s2.07,1.68-1.19,1.14l-5.08-.45S280.59,96.42,284,95.06Z" transform="translate(0 53.23)"/><path class="cls-5" d="M285.13,112.26l7.67-3s1.86-.66.18,1.4c0,0-3,3.67-7.33,2.68C285.65,113.38,283,112.67,285.13,112.26Z" transform="translate(0 53.23)"/><path class="cls-5" d="M309.77,104.5l8.73-2.26s2.43-.49.49,1.57c0,0-4.5,3.78-9.1,1.94C309.89,105.75,307.09,104.73,309.77,104.5Z" transform="translate(0 53.23)"/><path class="cls-20" d="M269.13,127.74s2.23,4,5.59,3.43l-.92-2S270.87,129.34,269.13,127.74Z" transform="translate(0 53.23)"/><path class="cls-6" d="M265.79,108.65l6.3,14.61-3.39-11.73s1.31-9.58.65-15.67c0,0,23.28-14.14,50.48-17.41,0,0,8.06,17.41,15.24,17.41L322.66,71.27,263.26,93Z" transform="translate(0 53.23)"/><path class="cls-17" d="M267.18,106.09a40.12,40.12,0,0,0,1.08-10.23s21.33-13.71,52.23-18.06c0,0,5.22,12.19,11.31,13.71L319.4,66.92,263.92,89.77Z" transform="translate(0 53.23)"/><path class="cls-3" d="M267.56,92.67s7.24,31-18.83,23.75l4.6.24s-2.79.4-3.39-3.59c0,0,.8,3,5.38,3,0,0-3.59-3.39-1-7.37,0,0-.59-3.39,2-8Z" transform="translate(0 53.23)"/><path class="cls-3" d="M333.73,73a25.7,25.7,0,0,1,10,11.16s2.45,6.25,6.14,5.36c0,0,2.78-.56,2.78-2.79a3.12,3.12,0,0,1-3.9,3.34,3.78,3.78,0,0,0,5.58-2.56s.22,4.13-4.46,3.9c0,0,4.12,3.35,6.69-2.79,0,0,.89,4.47-4.13,4.47,0,0,4.8,1.89,5.58-3.91,0,0,.56,14.51-13.39,13.39,0,0-8.14,1.79-18.18-15.28,0,0,5,13.39,17.29,16.18,0,0-11.6-1.46-18.07-16.52a53.81,53.81,0,0,1-4.47-13s-2.12,9.48,11.5,25.1c0,0-10.61-7.47-12.28-24.77l3-3Z" transform="translate(0 53.23)"/><path class="cls-32" d="M334,93.59s11.71,10.26,20.67,2.12c0,0-2,1.3-5.21,0a9.85,9.85,0,0,0,5.69-1.3s-4.88.32-7.32-1.63h2.77a10.49,10.49,0,0,1-4.4-2h2A19.5,19.5,0,0,1,340,85.13,18.73,18.73,0,0,0,344.09,90l-2.44-1.3L344.58,92l-2.44-.81,1.95,1.63L339.7,92,343,94.41l-3.26-1.14,4.88,3.58S341,97.17,334,93.59Z" transform="translate(0 53.23)"/><path class="cls-32" d="M265.8,107.92s0,7.65-8.95,8.46l2.11-1.14h-2.11s-3.75-1.14-1.63-6.51c0,0-.65,7.81,4.55,4.88,0,0-3.25.49-3.25-1.62,0,0,6,2.28,7.65-6.19v4.07Z" transform="translate(0 53.23)"/><path class="cls-33" d="M265.15,109.87s-1.57,4.55-5.7,5.37l1.14-1.63L259,112.8a5.28,5.28,0,0,0,4.56-3.74l.33,2.11Z" transform="translate(0 53.23)"/><path class="cls-33" d="M340.35,96.85s7,2.77,11.89,0a6.37,6.37,0,0,1-3.75-1.14l1.63-.49s-2.77-.65-3.58-2.77l1.3.33L343.61,90l1.63,2.44L343.61,92l1.63,1.63-2.77-.32,2.77,2-2-.33,2.77,2S343.93,98,340.35,96.85Z" transform="translate(0 53.23)"/><path class="cls-32" d="M255.38,127.61s2.44,4.73,10.58,6.84l-3.74-2.11h2.12l-3.26-1.63,1.63-.82-3.26-1.14,1.63-.48S257.5,128.59,255.38,127.61Z" transform="translate(0 53.23)"/><path class="cls-32" d="M349.3,112.8a17.13,17.13,0,0,1-6,8.14l2-2.77L342,119l2.12-1.31-2.12-.81s5-4.07,6.19-6.51l-1.31,3.74Z" transform="translate(0 53.23)"/><path class="cls-8" d="M255.34,103.48s23.55-23,79.79-29.09c0,0-59-105.56-74.25-125.51,0,0-4.15-5.27-6.92.83L246.2-33.11,240.66-35s-4.72-2.22-4.72,3.32C235.94-31.73,253.4,86.58,255.34,103.48Z" transform="translate(0 53.23)"/><path class="cls-9" d="M249.77,64.09,236.28-30.13s-2.13-7.24,4.38-4.92l5.54,1.94L254-50.29l-6.37,18.64,30,76.59Z" transform="translate(0 53.23)"/><path class="cls-10" d="M272.63,46.73l-27-77.36-6-2s-1.19,1.19,0,3.17l17.85,90.05Z" transform="translate(0 53.23)"/><polygon class="cls-9" points="314.19 94.06 259.16 2.82 257.71 2.82 306.08 94.93 314.19 94.06"/><path class="cls-10" d="M249.81,63.76s-.45-9.79,26.41-22c0,0,21-8.41,39.24-2.15Z" transform="translate(0 53.23)"/><path class="cls-15" d="M255.34,103.48,249,64.41s1.38-9.69,27.71-22.16c0,0,25.76-8.31,39.62-2.77l18.83,34.91S281.66,80.48,255.34,103.48Z" transform="translate(0 53.23)"/><path class="cls-34" d="M255.34,103.48,249,64.41s1.88-11.4,27.71-22.16l16.39,41.64S269.83,90.43,255.34,103.48Z" transform="translate(0 53.23)"/><path class="cls-35" d="M251.73,58.94,260,98.6A164.58,164.58,0,0,1,280.5,87.3L268.79,45.58S255.84,53.18,251.73,58.94Z" transform="translate(0 53.23)"/><path class="cls-34" d="M331,74l-11.35,2.33L301.09,37.7s5.79-.49,8.83.24Z" transform="translate(0 53.23)"/><polygon class="cls-15" points="278.52 389.85 310.69 390.92 309.62 384.49 302.65 374.83 278.52 374.83 278.52 389.85"/><path class="cls-15" d="M278.52,352.7l-3.76,161.93H337.5s0-113.67-5.36-145.84c0,0-1.08-16.09-9.12-16.09C323,352.7,294.6,354.31,278.52,352.7Z" transform="translate(0 53.23)"/></g></svg>