<svg xmlns="http://www.w3.org/2000/svg" xmlns:xlink="http://www.w3.org/1999/xlink" viewBox="0 0 390.42 368.52"><defs><style>.cls-1,.cls-50,.cls-7{fill:#593225;}.cls-2{fill:#7a3e29;}.cls-3{fill:#d0a269;}.cls-4{fill:#dfb87f;}.cls-5{fill:#efddbf;}.cls-6{fill:#fff8e7;}.cls-7{opacity:0.7;}.cls-8{fill:#849b0e;}.cls-9{fill:#94ac0f;}.cls-10{fill:url(#linear-gradient);}.cls-11{fill:url(#linear-gradient-2);}.cls-12{fill:#ebb530;}.cls-13{fill:#ffb9b4;}.cls-14{fill:url(#linear-gradient-3);}.cls-15{fill:url(#linear-gradient-4);}.cls-16{fill:url(#linear-gradient-5);}.cls-17{fill:#fff;}.cls-18{fill:url(#linear-gradient-6);}.cls-19{fill:url(#linear-gradient-7);}.cls-20{fill:url(#linear-gradient-8);}.cls-21{fill:url(#linear-gradient-9);}.cls-22{fill:url(#linear-gradient-10);}.cls-23{fill:url(#linear-gradient-11);}.cls-24{fill:url(#linear-gradient-12);}.cls-25{fill:url(#linear-gradient-13);}.cls-26{fill:url(#linear-gradient-14);}.cls-27{fill:url(#linear-gradient-15);}.cls-28{fill:url(#linear-gradient-16);}.cls-29{fill:url(#linear-gradient-17);}.cls-30{fill:url(#linear-gradient-18);}.cls-31{fill:url(#linear-gradient-19);}.cls-32{fill:url(#linear-gradient-20);}.cls-33{fill:url(#linear-gradient-21);}.cls-34{fill:url(#linear-gradient-22);}.cls-35{fill:url(#linear-gradient-23);}.cls-36{fill:url(#linear-gradient-24);}.cls-37{fill:url(#linear-gradient-25);}.cls-38{fill:url(#linear-gradient-26);}.cls-39{fill:url(#linear-gradient-27);}.cls-40{fill:url(#linear-gradient-28);}.cls-41{fill:url(#linear-gradient-29);}.cls-42{fill:url(#linear-gradient-30);}.cls-43{fill:url(#linear-gradient-31);}.cls-44{fill:url(#linear-gradient-32);}.cls-45{fill:#efc587;}.cls-46{opacity:0.54;}.cls-47{fill:#7d4533;}.cls-48{fill:#90503b;}.cls-49{fill:#6e3d2d;}.cls-50,.cls-52{opacity:0.6;}.cls-51{fill:url(#linear-gradient-33);}.cls-53{fill:url(#linear-gradient-34);}.cls-54{fill:url(#linear-gradient-35);}.cls-55{fill:url(#linear-gradient-36);}.cls-56{fill:url(#linear-gradient-37);}.cls-57{fill:#da3f2f;}</style><linearGradient id="linear-gradient" x1="572.3" y1="-614.95" x2="617.8" y2="-564.95" gradientTransform="translate(-443.75 -354.15) rotate(75.63)" gradientUnits="userSpaceOnUse"><stop offset="0.3" stop-color="#e00102"/><stop offset="1" stop-color="#950102"/></linearGradient><linearGradient id="linear-gradient-2" x1="65.5" y1="51.85" x2="97.46" y2="99.89" gradientTransform="matrix(0.97, -0.26, 0.26, 0.97, 177.85, 25.57)" gradientUnits="userSpaceOnUse"><stop offset="0.2" stop-color="#ea2828"/><stop offset="0.54" stop-color="#e00102"/><stop offset="0.95" stop-color="#c10102"/></linearGradient><linearGradient id="linear-gradient-3" x1="252.31" y1="59.62" x2="264.89" y2="91.37" gradientUnits="userSpaceOnUse"><stop offset="0.32" stop-color="#ffedc4"/><stop offset="0.84" stop-color="#ddc690"/></linearGradient><linearGradient id="linear-gradient-4" x1="-315.31" y1="29.73" x2="-265.37" y2="84.61" gradientTransform="translate(349.23 -144.91) rotate(-44.04)" gradientUnits="userSpaceOnUse"><stop offset="0" stop-color="#ac0102"/><stop offset="1" stop-color="#c80102"/></linearGradient><linearGradient id="linear-gradient-5" x1="-307.72" y1="24.58" x2="-267.42" y2="85.14" gradientTransform="translate(349.23 -144.91) rotate(-44.04)" xlink:href="#linear-gradient-2"/><linearGradient id="linear-gradient-6" x1="-547.5" y1="-178.61" x2="-501.47" y2="-128.02" gradientTransform="matrix(0.42, -0.91, 0.91, 0.42, 453.89, -304.92)" gradientUnits="userSpaceOnUse"><stop offset="0.09" stop-color="#f44336"/><stop offset="0.29" stop-color="#ee2f26"/><stop offset="0.68" stop-color="#e00102"/><stop offset="1" stop-color="#c80102"/></linearGradient><linearGradient id="linear-gradient-7" x1="-540.51" y1="-183.37" x2="-503.36" y2="-127.53" gradientTransform="matrix(0.42, -0.91, 0.91, 0.42, 453.89, -304.92)" xlink:href="#linear-gradient-2"/><linearGradient id="linear-gradient-8" x1="63.55" y1="117.48" x2="137.54" y2="117.48" gradientUnits="userSpaceOnUse"><stop offset="0.22" stop-color="#bc5633"/><stop offset="0.93" stop-color="#8e4127"/></linearGradient><linearGradient id="linear-gradient-9" x1="682.09" y1="-500.69" x2="726.05" y2="-452.37" gradientTransform="translate(-449.46 -282.19) rotate(62.34)" xlink:href="#linear-gradient-6"/><linearGradient id="linear-gradient-10" x1="688.77" y1="-505.23" x2="724.25" y2="-451.9" gradientTransform="translate(-449.46 -282.19) rotate(62.34)" xlink:href="#linear-gradient-2"/><linearGradient id="linear-gradient-11" x1="681.55" y1="-500.2" x2="725.51" y2="-451.89" gradientTransform="translate(-449.46 -282.19) rotate(62.34)" gradientUnits="userSpaceOnUse"><stop offset="0.17" stop-color="#c65a35"/><stop offset="1" stop-color="#8e4127"/></linearGradient><linearGradient id="linear-gradient-12" x1="591.03" y1="-13.35" x2="642.37" y2="43.07" gradientTransform="translate(-314.77 -264.02) rotate(29.5)" xlink:href="#linear-gradient-6"/><linearGradient id="linear-gradient-13" x1="723.03" y1="-243.28" x2="765.12" y2="-180.02" gradientTransform="translate(-441.57 -351.01) rotate(47.76)" xlink:href="#linear-gradient-2"/><linearGradient id="linear-gradient-14" x1="578.5" y1="-13.22" x2="635.26" y2="49.16" gradientTransform="translate(-314.77 -264.02) rotate(29.5)" gradientUnits="userSpaceOnUse"><stop offset="0.4" stop-color="#c65a35"/><stop offset="1" stop-color="#8e4127"/></linearGradient><linearGradient id="linear-gradient-15" x1="187.4" y1="66.43" x2="218.8" y2="100.93" xlink:href="#linear-gradient-3"/><linearGradient id="linear-gradient-16" x1="186.8" y1="49.79" x2="232.52" y2="100.03" xlink:href="#linear-gradient-3"/><linearGradient id="linear-gradient-17" x1="629.4" y1="-376.82" x2="679.33" y2="-321.94" gradientTransform="translate(-420.91 -229.75) rotate(55.97)" xlink:href="#linear-gradient-6"/><linearGradient id="linear-gradient-18" x1="636.99" y1="-381.98" x2="677.28" y2="-321.41" gradientTransform="translate(-420.91 -229.75) rotate(55.97)" xlink:href="#linear-gradient-2"/><linearGradient id="linear-gradient-19" x1="205.45" y1="110.01" x2="241.64" y2="148.91" xlink:href="#linear-gradient-8"/><linearGradient id="linear-gradient-20" x1="205.94" y1="103.09" x2="247.13" y2="148.35" xlink:href="#linear-gradient-3"/><linearGradient id="linear-gradient-21" x1="197.74" y1="116.85" x2="226.38" y2="148.33" xlink:href="#linear-gradient-3"/><linearGradient id="linear-gradient-22" x1="192.84" y1="130.88" x2="209.49" y2="149.17" xlink:href="#linear-gradient-3"/><linearGradient id="linear-gradient-23" x1="-63.81" y1="75.01" x2="-13.88" y2="129.89" gradientTransform="matrix(0.95, -0.31, 0.31, 0.95, 148.87, -34.17)" xlink:href="#linear-gradient-6"/><linearGradient id="linear-gradient-24" x1="-56.22" y1="69.85" x2="-15.93" y2="130.42" gradientTransform="matrix(0.95, -0.31, 0.31, 0.95, 148.87, -34.17)" xlink:href="#linear-gradient-2"/><linearGradient id="linear-gradient-25" x1="-75.58" y1="74.73" x2="-20.36" y2="135.42" gradientTransform="matrix(0.95, -0.31, 0.31, 0.95, 148.87, -34.17)" xlink:href="#linear-gradient-3"/><linearGradient id="linear-gradient-26" x1="135.91" y1="78.17" x2="161.95" y2="106.16" xlink:href="#linear-gradient-8"/><linearGradient id="linear-gradient-27" x1="144.01" y1="93.38" x2="165.84" y2="116.84" xlink:href="#linear-gradient-8"/><linearGradient id="linear-gradient-28" x1="-596.96" y1="-494.11" x2="-547.02" y2="-439.23" gradientTransform="translate(703.2 -336.8) rotate(-78.4)" xlink:href="#linear-gradient-6"/><linearGradient id="linear-gradient-29" x1="-556.66" y1="-326.39" x2="-515.73" y2="-264.87" gradientTransform="translate(658.73 -190.3) rotate(-60.15)" xlink:href="#linear-gradient-2"/><linearGradient id="linear-gradient-30" x1="137.21" y1="107.99" x2="154.28" y2="151.12" gradientUnits="userSpaceOnUse"><stop offset="0.15" stop-color="#9d5036"/><stop offset="1" stop-color="#6b3724"/></linearGradient><linearGradient id="linear-gradient-31" x1="-543.1" y1="-294.79" x2="-518.84" y2="-257.05" gradientTransform="translate(658.73 -190.3) rotate(-60.15)" xlink:href="#linear-gradient-3"/><linearGradient id="linear-gradient-32" x1="-545.08" y1="-293.51" x2="-520.82" y2="-255.78" gradientTransform="translate(658.73 -190.3) rotate(-60.15)" xlink:href="#linear-gradient-3"/><linearGradient id="linear-gradient-33" x1="0.7" y1="244.49" x2="390.42" y2="244.49" gradientUnits="userSpaceOnUse"><stop offset="0.28" stop-color="#da3f2f"/><stop offset="0.94" stop-color="#b0010e"/></linearGradient><linearGradient id="linear-gradient-34" x1="144.97" y1="235.6" x2="228.7" y2="264.9" gradientUnits="userSpaceOnUse"><stop offset="0" stop-color="#da3f2f"/><stop offset="0.14" stop-color="#ff5c4a"/><stop offset="0.37" stop-color="#da3f2f"/><stop offset="1" stop-color="#cb2727"/></linearGradient><linearGradient id="linear-gradient-35" x1="236.12" y1="268.47" x2="317.64" y2="234.76" gradientUnits="userSpaceOnUse"><stop offset="0" stop-color="#af2222"/><stop offset="0.68" stop-color="#da3f2f"/><stop offset="0.83" stop-color="#f44734"/><stop offset="0.94" stop-color="#da3f2f"/></linearGradient><linearGradient id="linear-gradient-36" x1="173.32" y1="337.42" x2="227.82" y2="270.33" gradientUnits="userSpaceOnUse"><stop offset="0" stop-color="#da3f2f"/><stop offset="0.26" stop-color="#ff5c4a"/><stop offset="0.69" stop-color="#da3f2f"/><stop offset="1" stop-color="#cb2727"/></linearGradient><linearGradient id="linear-gradient-37" x1="241.51" y1="279" x2="295.24" y2="336.33" gradientUnits="userSpaceOnUse"><stop offset="0" stop-color="#c13729"/><stop offset="0.23" stop-color="#f44d3b"/><stop offset="0.55" stop-color="#da3f2f"/><stop offset="1" stop-color="#cb2727"/></linearGradient></defs><g id="Layer_2" data-name="Layer 2"><g id="Layer_1-2" data-name="Layer 1"><path class="cls-1" d="M387.16,144.9c0,28.12-85.75,50.81-191.43,50.66S4.41,172.5,4.45,144.38,90.19,93.57,195.87,93.71,387.19,116.77,387.16,144.9Z"/><path class="cls-1" d="M196.78,197.38h-1.05c-51.27-.07-99.48-5.45-135.76-15.16-37-9.9-57.36-23.34-57.34-37.84s20.42-27.9,57.45-37.69c36.07-9.55,83.91-14.8,134.81-14.8h1C304.19,92,389,115.33,389,144.9h0C388.93,174.38,304.59,197.38,196.78,197.38ZM194.89,95.52c-50.6,0-98.1,5.21-133.88,14.68-34.77,9.2-54.73,21.66-54.74,34.18s19.9,25,54.64,34.33c36,9.63,83.87,15,134.82,15h1c102.31,0,188.59-22.32,188.63-48.85S298.6,95.67,195.87,95.52Z"/><path class="cls-2" d="M370.19,140.66c0,25-78.14,45.19-174.44,45.06S21.4,165.2,21.43,140.19,99.56,95,195.87,95.12,370.22,115.64,370.19,140.66Z"/><path class="cls-3" d="M79.16,95.75a70.75,70.75,0,0,1,16.6,1.87A12,12,0,0,1,97,97.1c3.18-1.21,6.84-1.07,7.82-5,1.76,2.51,4.23,7,2.55,10.51,2,1.58,3.08,3.35,3.08,5.22,0,6.69-14,12.12-31.25,12.12s-31.27-5.43-31.27-12.12S61.89,95.75,79.16,95.75Z"/><path class="cls-3" d="M108.56,112c-7.4,7.37-20.86,9.81-40.89,7.28-3.72-7.88,10.81-9.09,15.46-7.43C94,115.68,95.62,108,96.66,108.24c6.8,1.45,6.3-4.15,7.71-5.29,4-3.26,2.51-7.82.41-10.81,0-.11.06-.23.08-.34.12.08,9.87,2.25,4.85,13.62,0,0,0,0,0,.06C110.67,107.86,111.53,109.88,108.56,112Z"/><path class="cls-4" d="M60.08,117.16c-2.67-7.28,3.28-6.24,7.14-8.77,1.65-1.08,9.89-1.21,13.27-2.46,4.72-1.74,3.38-3.93,9.71-3.78,1.85,0,3.4,1.16,6.61-.37s2.64-2.89,3.79-4.39c1.31-1.7,3.57-1.26,4.18-5.25a15,15,0,0,0,.25-4.51c-.87-4.34-7.17-7.53-8-7.93A8.82,8.82,0,0,1,95.94,84a5.82,5.82,0,0,1-.63.87,6.61,6.61,0,0,1-3.6,2c-.48.1-.93.17-1.37.23-3.4-.7-15.47,0-25.54,9.89-9.63,1.53-12.43,9.21-14.38,15.27A16.75,16.75,0,0,0,60.08,117.16Z"/><path class="cls-3" d="M91.71,86.86c-.48.1,1.16,9.6-11,8-3.49-.45-1.55,7.59-11.7,6.21-8.76-1.18-8.21,1.32-11.27,2.65-6.58,2.86-7,6.76-7,6.76-2,0-2.73-1.26-3.32-3.14a2.88,2.88,0,0,1-.11-.54c-.23-2,3.09-6,3.09-6l0-.12a29.35,29.35,0,0,1,15.16-11.6c1.9-.7,4.66,1.42,6.28-.09s2.07-6.48,11.09-7.1c2.34-.16,6.31-2.56,3.72-7-2.31-4,1.86-4.49-.69-9.48-1.34-2.61.28-7.05-2.47-8.86h.07s4.48,2,5.88,4.65,1.08,5.73,2.32,7.74,4.34,3.88,5,7S97.9,85.47,91.71,86.86Z"/><path class="cls-4" d="M51.79,92.11a2.25,2.25,0,0,1,.62-.51A5.24,5.24,0,0,0,55,86.91a7,7,0,0,1,0-1.3c.31-2.78,3.29-4.06,6.85-5s4.85-3.79,6.24-5.8,5.47-1.6,8.26-3.46c7-4.68,6.15-10.88,5.9-11.61-1.09-3.08,1.24-3.25,1.24-3.25h-.07c2.75,1.81,1.13,6.25,2.47,8.86,2.55,5-1.62,5.47.69,9.48,2.59,4.47-1.38,6.87-3.72,7-9,.62-2.39,4.32-7.07,7.78-1.9,1.39-8.72-.51-9.93,1.27-2.23,3.27-4.24,3-6.24,3.56-3.58,1.08-6.6,2.14-9.29,6.18,0-.09,0-.27-.08-.48C48.82,96.35,50.42,94,51.79,92.11Z"/><path class="cls-3" d="M324.73,95.75a70.78,70.78,0,0,1,16.61,1.87,11.1,11.1,0,0,1,1.2-.52c3.18-1.21,6.84-1.07,7.82-5,1.77,2.51,4.22,7,2.55,10.51,1.95,1.58,3.09,3.35,3.09,5.22,0,6.69-14,12.12-31.27,12.12s-31.26-5.43-31.26-12.12S307.47,95.75,324.73,95.75Z"/><path class="cls-3" d="M354.13,112c-7.39,7.37-20.85,9.81-40.88,7.28-3.72-7.88,10.81-9.09,15.46-7.43,10.85,3.87,12.49-3.79,13.53-3.57,6.81,1.45,6.3-4.15,7.71-5.29,4-3.26,2.51-7.82.41-10.81,0-.11.05-.23.08-.34.11.08,9.87,2.25,4.84,13.62a.09.09,0,0,1,0,.06C356.24,107.86,357.11,109.88,354.13,112Z"/><path class="cls-4" d="M305.66,117.16c-2.68-7.28,3.27-6.24,7.14-8.77,1.65-1.08,9.89-1.21,13.27-2.46,4.72-1.74,3.38-3.93,9.7-3.78,1.86,0,3.41,1.16,6.62-.37s2.63-2.89,3.79-4.39c1.31-1.7,3.57-1.26,4.18-5.25a14.65,14.65,0,0,0,.25-4.51c-.87-4.34-7.17-7.53-8-7.93a8.62,8.62,0,0,1-1.1,4.26,6.48,6.48,0,0,1-.61.87,6.67,6.67,0,0,1-3.61,2c-.48.1-.94.17-1.37.23-3.4-.7-15.47,0-25.54,9.89-9.63,1.53-12.43,9.21-14.38,15.27A16.72,16.72,0,0,0,305.66,117.16Z"/><path class="cls-3" d="M337.29,86.86c-.48.1,1.16,9.6-11,8-3.49-.45-1.56,7.59-11.7,6.21-8.76-1.18-8.21,1.32-11.27,2.65-6.57,2.86-7,6.76-7,6.76-2,0-2.73-1.26-3.33-3.14a2.94,2.94,0,0,1-.12-.54c-.22-2,3.1-6,3.1-6l0-.12a29.31,29.31,0,0,1,15.16-11.6c1.9-.7,4.65,1.42,6.29-.09s2.06-6.48,11.08-7.1c2.34-.16,6.31-2.56,3.72-7-2.31-4,1.86-4.49-.7-9.48-1.33-2.61.28-7.05-2.45-8.86h.05s4.49,2,5.89,4.65,1.08,5.73,2.32,7.74,4.33,3.88,4.95,7S343.49,85.47,337.29,86.86Z"/><path class="cls-4" d="M297.37,92.11a2.25,2.25,0,0,1,.62-.51,5.24,5.24,0,0,0,2.58-4.69,8,8,0,0,1,0-1.3c.31-2.78,3.29-4.06,6.86-5s4.85-3.79,6.24-5.8,5.48-1.6,8.25-3.46c7-4.68,6.16-10.88,5.91-11.61-1.08-3.08,1.23-3.25,1.23-3.25H329c2.73,1.81,1.12,6.25,2.45,8.86,2.56,5-1.61,5.47.7,9.48,2.59,4.47-1.38,6.87-3.72,7-9,.62-2.39,4.32-7.07,7.78-1.9,1.39-8.72-.51-9.93,1.27-2.23,3.27-4.23,3-6.24,3.56-3.58,1.08-6.6,2.14-9.29,6.18,0-.09,0-.27-.08-.48C294.4,96.35,296,94,297.37,92.11Z"/><path class="cls-5" d="M346.17,126.87A82.74,82.74,0,0,1,365.52,129c.46-.21.9-.41,1.41-.61,3.71-1.4,8-1.24,9.12-5.78,2.06,2.93,4.93,8.19,3,12.26,2.29,1.84,3.6,3.9,3.6,6.09,0,7.8-16.32,14.12-36.45,14.12S309.71,148.8,309.71,141,326,126.87,346.17,126.87Z"/><path class="cls-5" d="M380.45,145.76c-8.62,8.6-24.32,11.44-47.68,8.5-4.33-9.19,12.61-10.6,18-8.67,12.65,4.51,14.56-4.42,15.77-4.16,7.93,1.69,7.35-4.84,9-6.17,4.69-3.8,2.93-9.12.48-12.61,0-.13.06-.26.1-.4.13.1,11.49,2.63,5.65,15.9,0,0,0,0,0,.07C382.91,141,383.92,143.33,380.45,145.76Z"/><path class="cls-6" d="M323.93,151.83c-3.12-8.5,3.81-7.28,8.32-10.23,1.93-1.26,11.54-1.41,15.48-2.86,5.5-2,3.94-4.6,11.31-4.41,2.17,0,4,1.34,7.71-.44s3.08-3.36,4.43-5.11c1.52-2,4.16-1.47,4.87-6.13a17,17,0,0,0,.29-5.25c-1-5.06-8.36-8.78-9.33-9.25a10.21,10.21,0,0,1-1.27,5,7.83,7.83,0,0,1-.73,1,7.61,7.61,0,0,1-4.2,2.36,14.46,14.46,0,0,1-1.6.27c-4-.81-18,0-29.78,11.54-11.23,1.78-14.5,10.74-16.77,17.81C315.74,149.43,319.64,151,323.93,151.83Z"/><path class="cls-5" d="M360.81,116.49c-.56.13,1.35,11.2-12.83,9.38-4.07-.53-1.81,8.84-13.65,7.23-10.21-1.38-9.56,1.54-13.13,3.09-7.68,3.33-8.2,7.88-8.2,7.88-2.3,0-3.18-1.46-3.87-3.66a3,3,0,0,1-.14-.63c-.26-2.3,3.61-7,3.61-7l0-.13c5-7.51,11.2-11.14,17.67-13.54,2.22-.82,5.43,1.66,7.33-.11s2.41-7.54,12.94-8.27c2.72-.19,7.35-3,4.34-8.2-2.71-4.68,2.16-5.23-.82-11-1.56-3,.32-8.22-2.87-10.33h.07s5.24,2.35,6.86,5.42,1.26,6.68,2.71,9,5.05,4.52,5.78,8.12S368,114.87,360.81,116.49Z"/><path class="cls-6" d="M314.26,122.63A2.61,2.61,0,0,1,315,122a6.07,6.07,0,0,0,3-5.46,8.48,8.48,0,0,1,0-1.52c.36-3.25,3.83-4.74,8-5.82s5.65-4.42,7.28-6.76,6.38-1.87,9.63-4c8.19-5.47,7.17-12.7,6.87-13.54-1.26-3.61,1.45-3.79,1.45-3.79h-.07c3.19,2.11,1.31,7.28,2.87,10.33,3,5.82-1.89,6.37.82,11,3,5.23-1.62,8-4.34,8.2-10.53.73-2.79,5-8.26,9.06-2.22,1.64-10.16-.58-11.57,1.49-2.6,3.81-4.94,3.45-7.29,4.16-4.17,1.26-7.69,2.5-10.82,7.21,0-.12-.06-.32-.09-.56C310.79,127.57,312.66,124.79,314.26,122.63Z"/><path class="cls-5" d="M77.29,132.8c.09-.19.12-.39.19-.58a15.58,15.58,0,0,1-4.83-8.44c-1.83,1.55-4.58,1.79-7.1,2.74-.49.18-.92.39-1.36.58A80.9,80.9,0,0,0,45.4,125C25.86,125,10,131.13,10,138.71s15.84,13.71,35.38,13.71,35.38-6.14,35.38-13.71C80.78,136.59,79.5,134.59,77.29,132.8Z"/><path class="cls-5" d="M80,135.94c.24-.55.3-1,.48-1.5A16.51,16.51,0,0,1,76,130.55a7.73,7.73,0,0,1-2.09,2.59c-1.6,1.3-1,7.63-8.72,6-1.18-.25-3,8.41-15.32,4-5.26-1.87-21.7-.5-17.5,8.41,22.67,2.86,37.9.1,46.27-8.24C82,141,81.06,138.7,80,136A.19.19,0,0,0,80,135.94Z"/><path class="cls-6" d="M69.56,110.81a5.92,5.92,0,0,1-.46-1.9,26.25,26.25,0,0,0-3.47-2.08,9.9,9.9,0,0,1-1.24,4.83,6.93,6.93,0,0,1-4.77,3.27c-.55.12-1.07.2-1.56.26-3.85-.78-17.51,0-28.9,11.19-10.9,1.74-14.07,10.44-16.28,17.3a19,19,0,0,0,10.94,5.55c-3-8.25,3.7-7.07,8.08-9.93,1.87-1.23,11.19-1.37,15-2.78,5.33-2,3.82-4.46,11-4.28,2.11,0,3.86,1.31,7.49-.42s3-3.27,4.29-5c.88-1.14,2.13-1.45,3.15-2.44C71.48,120,71.53,115.06,69.56,110.81Z"/><path class="cls-5" d="M59.62,114.93c-.55.12,1.3,10.86-12.45,9.1-4-.51-1.77,8.58-13.25,7-9.91-1.35-9.29,1.49-12.75,3-7.45,3.23-8,7.65-8,7.65-2.23,0-3.09-1.42-3.76-3.55a3,3,0,0,1-.14-.62c-.25-2.23,3.5-6.83,3.5-6.83l0-.14c4.86-7.27,10.88-10.8,17.16-13.13,2.15-.79,5.27,1.61,7.11-.1s2.34-7.33,12.56-8c2.64-.18,7.13-2.89,4.21-8-2.63-4.54,2.09-5.07-.8-10.72-1.51-3,.32-8-2.78-10h.07s5.08,2.27,6.65,5.26,1.23,6.48,2.64,8.76,4.9,4.38,5.6,7.88S66.62,113.35,59.62,114.93Z"/><path class="cls-6" d="M14.44,120.89a2.46,2.46,0,0,1,.69-.59,5.91,5.91,0,0,0,2.92-5.3,10.09,10.09,0,0,1,0-1.47c.35-3.15,3.73-4.61,7.76-5.66s5.49-4.28,7.07-6.55,6.19-1.82,9.33-3.92c7.95-5.3,7-12.32,6.68-13.13-1.22-3.51,1.41-3.68,1.41-3.68h-.07c3.1,2,1.27,7.07,2.78,10,2.89,5.65-1.83,6.18.8,10.72,2.92,5.07-1.57,7.78-4.21,8-10.22.7-2.71,4.88-8,8.8-2.15,1.59-9.85-.57-11.23,1.44-2.52,3.7-4.79,3.35-7.06,4-4.06,1.23-7.47,2.43-10.52,7,0-.1-.05-.3-.08-.54C11.08,125.68,12.88,123,14.44,120.89Z"/><path class="cls-7" d="M65.41,123.26s1.48,20,24.84,26.48c9.59,2.65,12.5,21.39,27,22.17,56.31,3,65.13-22.17,71.87-20.37s13.78,8.24,20.07,8.24,9-3.6,14.83-.9,44,4.94,50.76-1.35,16.92-4,22.76,0,24.86,3.74,32.94-6.59S312,115.3,312,115.3l-204,9.44Z"/><path class="cls-8" d="M311.31,71.55C305.64,73,297.83,72.68,297.14,70s6-6.74,11.68-8.19,11.51,2.25,11.51,2.25S317,70.11,311.31,71.55Z"/><path class="cls-9" d="M310.76,59.44c-3.53,4.31-9.48,8.59-11.22,7.07s1.37-8.24,4.91-12.55S314,48.89,314,48.89,314.31,55.12,310.76,59.44Z"/><path class="cls-8" d="M305.93,53.36c-1.42,4.27-4.62,9.24-6.34,8.62s-1.29-6.57.14-10.84,5.68-6.63,5.68-6.63S307.36,49.08,305.93,53.36Z"/><path class="cls-9" d="M314.16,72.7c-5.17-2.08-12.45-3-13.25-.8s5.17,6.56,10.34,8.64,10.83-.16,10.83-.16S319.35,74.78,314.16,72.7Z"/><path class="cls-8" d="M312.85,80.35c-3.3-3.06-8.5-5.88-9.71-4.51s2,6.38,5.33,9.44,8.17,3.09,8.17,3.09S316.15,83.41,312.85,80.35Z"/><path class="cls-10" d="M299.67,101.74c6.37-6.69,6.86-16.11,4.56-25.1l-2-7.94-2-7.94c-2.31-9-7.26-17-16.07-19.82s-17.44-.56-24.27,4.52c-9.77,7.27-12.19,13.4-19.19,21.55-3.58,4.14-9.82,9.46-7.59,19.4,2.82,9.79,10.86,11.46,16,13.37,10.07,3.77,15.14,8,27.2,9.67C284.64,110.62,293.31,108.45,299.67,101.74Z"/><path class="cls-11" d="M279.75,45.28c-.48-1.9-2.77-2.9-5.2-2.28s-3.95,2.6-3.46,4.5,2.77,2.9,5.2,2.27S280.24,47.18,279.75,45.28ZM270.27,54c-.49-1.9-2.77-2.9-5.2-2.28s-3.95,2.59-3.46,4.5,2.75,2.9,5.19,2.28S270.75,55.88,270.27,54Zm12.6,3.49c-.49-1.89-2.76-2.89-5.19-2.27s-4,2.6-3.47,4.49S277,62.6,279.41,62,283.36,59.38,282.87,57.47ZM262,62.81c-.48-1.89-2.77-2.89-5.2-2.27s-3.95,2.6-3.46,4.49,2.77,2.91,5.2,2.28S262.5,64.72,262,62.81Zm27.84,17c.49,1.91,2.77,2.91,5.2,2.28s3.95-2.59,3.46-4.5-2.77-2.9-5.2-2.28S289.37,77.87,289.86,79.77Zm3.54,13.8c.48,1.9,2.76,2.89,5.19,2.27s4-2.59,3.47-4.49-2.77-2.9-5.2-2.28S292.91,91.67,293.4,93.57ZM253,73.11c-.49-1.9-2.77-2.9-5.2-2.28s-4,2.6-3.47,4.5,2.77,2.9,5.2,2.28S253.43,75,253,73.11Zm29.5-22.26c.49,1.91,2.77,2.91,5.2,2.29s4-2.6,3.47-4.5-2.77-2.9-5.2-2.28S282,49,282.45,50.85ZM269,85.11c.49,1.91,2.77,2.91,5.2,2.29s4-2.6,3.46-4.51-2.77-2.9-5.2-2.27S268.53,83.21,269,85.11ZM281.2,96.69c-.48-1.9-2.77-2.9-5.19-2.28s-3.95,2.6-3.47,4.5,2.77,2.9,5.21,2.27S281.69,98.59,281.2,96.69Zm-11.77-5c-.49-1.89-2.77-2.89-5.2-2.28s-4,2.61-3.47,4.5,2.78,2.91,5.2,2.28S269.92,93.64,269.43,91.73Zm20.85-5.34c-.48-1.89-2.76-2.9-5.2-2.27s-3.95,2.59-3.46,4.49,2.77,2.91,5.2,2.28S290.76,88.29,290.28,86.39Zm-33.45,1.84c-.5-1.89-2.78-2.9-5.21-2.27s-4,2.59-3.46,4.49,2.77,2.91,5.2,2.29S257.31,90.14,256.83,88.23ZM293.77,100c-.48-1.9-2.77-2.9-5.2-2.28s-3.95,2.6-3.46,4.5,2.77,2.9,5.2,2.28S294.26,101.93,293.77,100Zm.88-37.59c-.49-1.9-2.77-2.91-5.21-2.28s-3.94,2.6-3.46,4.5,2.78,2.9,5.21,2.28S295.14,64.33,294.65,62.43Zm-49.6,20.85c-.49-1.9-2.78-2.9-5.2-2.28s-3.95,2.6-3.46,4.5,2.77,2.9,5.19,2.28S245.53,85.18,245.05,83.28ZM273.8,67.77c-.49-1.9-2.77-2.91-5.2-2.28s-4,2.6-3.46,4.5,2.76,2.91,5.19,2.28S274.28,69.67,273.8,67.77Zm12.95,4.83c-.49-1.89-2.77-2.91-5.2-2.28s-3.95,2.6-3.46,4.51,2.77,2.89,5.2,2.26S287.23,74.5,286.75,72.6ZM265.9,77.94c-.49-1.89-2.78-2.9-5.21-2.28s-3.94,2.6-3.46,4.5,2.77,2.9,5.21,2.28S266.38,79.84,265.9,77.94Z"/><path class="cls-12" d="M287.21,51.39c-1.43.36-2.78-.07-3-1s.75-1.94,2.17-2.31,2.78.07,3,1S288.63,51,287.21,51.39Z"/><path class="cls-12" d="M290.74,65.19c-1.43.36-2.78-.08-3-1s.74-1.94,2.16-2.3,2.78.07,3,1S292.17,64.82,290.74,65.19Z"/><path class="cls-12" d="M294.61,80.31c-1.42.36-2.78-.07-3-1s.74-1.93,2.17-2.3,2.78.07,3,1S296,79.94,294.61,80.31Z"/><path class="cls-12" d="M298.14,94.1c-1.42.36-2.77-.06-3-1s.74-1.94,2.17-2.3,2.77.06,3,1S299.57,93.73,298.14,94.1Z"/><path class="cls-12" d="M275.84,48c-1.43.37-2.78-.07-3-1s.74-1.94,2.17-2.3,2.77.07,3,1S277.27,47.66,275.84,48Z"/><path class="cls-12" d="M279,60.23c-1.44.37-2.78-.07-3-1s.74-1.94,2.17-2.3,2.77.08,3,1S280.4,59.87,279,60.23Z"/><path class="cls-12" d="M282.84,75.35c-1.43.37-2.78-.08-3-1s.74-1.95,2.17-2.31,2.77.07,3,1S284.27,75,282.84,75.35Z"/><path class="cls-12" d="M286.37,89.15c-1.42.37-2.77-.07-3-1s.74-1.94,2.18-2.3,2.76.08,3,1S287.8,88.78,286.37,89.15Z"/><path class="cls-12" d="M289.86,102.78c-1.43.36-2.78-.07-3-1s.74-1.94,2.17-2.3,2.78.07,3,1S291.29,102.41,289.86,102.78Z"/><path class="cls-12" d="M266.35,56.73c-1.42.36-2.77-.08-3-1s.73-1.94,2.16-2.31,2.77.07,3,1S267.78,56.37,266.35,56.73Z"/><path class="cls-12" d="M269.89,70.52c-1.43.37-2.77-.07-3-1s.74-1.94,2.17-2.3,2.77.07,3,1S271.31,70.16,269.89,70.52Z"/><path class="cls-12" d="M273.76,85.65c-1.43.36-2.77-.07-3-1s.73-1.94,2.16-2.31,2.77.08,3,1S275.19,85.28,273.76,85.65Z"/><path class="cls-12" d="M277.29,99.44c-1.43.37-2.77-.07-3-1s.74-1.94,2.16-2.3,2.77.07,3,1S278.73,99.07,277.29,99.44Z"/><path class="cls-12" d="M258.11,65.57c-1.42.37-2.78-.07-3-1s.74-1.94,2.17-2.31,2.78.08,3,1S259.54,65.21,258.11,65.57Z"/><path class="cls-12" d="M262,80.69c-1.42.37-2.77-.07-3-1s.75-2,2.17-2.31,2.78.07,3,1S263.42,80.33,262,80.69Z"/><path class="cls-12" d="M265.52,94.49c-1.43.36-2.78-.07-3-1s.75-1.93,2.18-2.3,2.77.08,3,1S267,94.12,265.52,94.49Z"/><path class="cls-12" d="M249,75.86c-1.42.37-2.77-.07-3-1s.74-1.94,2.16-2.3,2.78.07,3,1S250.47,75.5,249,75.86Z"/><path class="cls-12" d="M252.91,91c-1.43.37-2.77-.07-3-1s.74-2,2.17-2.31,2.78.08,3,1S254.34,90.63,252.91,91Z"/><path class="cls-12" d="M241.14,86c-1.43.36-2.77-.08-3-1s.74-2,2.16-2.31,2.78.07,3,1S242.56,85.67,241.14,86Z"/><path class="cls-13" d="M285.92,56.29c-3.68-1.46-6.52-3.35-5.55-6s4.73-3.61,8.42-2.15,5.89,4.78,4.92,7.43S289.61,57.75,285.92,56.29Z"/><path class="cls-14" d="M290.32,86.5c-2-4.55-11-5.43-14.68-15.22C269.23,54.1,261.9,53.8,247.29,58.42c-2,2.7-4,5.48-6.66,8.59-3.58,4.14-9.82,9.46-7.59,19.4,2.82,9.79,10.86,11.46,16,13.37,10.07,3.77,15.14,8,27.2,9.67a28.66,28.66,0,0,0,13.52-1.28,4.36,4.36,0,0,1,2.12-1.91c3.8-1.64,4.73-6.2,4.37-11.51A25.16,25.16,0,0,1,290.32,86.5Z"/><path class="cls-8" d="M156.6,66.11c4.47,4.63,8.4,12.25,6.21,14.37s-9.68-2.06-14.15-6.69-4.11-12.19-4.11-12.19S152.14,61.5,156.6,66.11Z"/><path class="cls-9" d="M145.34,73.22c6,1,13.35,4.38,12.85,6.86s-8.61,3.18-14.64,2.15-10-6.37-10-6.37S139.3,72.19,145.34,73.22Z"/><path class="cls-8" d="M142.17,81.13c4.85-1,11.32-.61,11.66,1.37s-5.56,4.8-10.41,5.76S134,86.45,134,86.45,137.32,82.1,142.17,81.13Z"/><path class="cls-9" d="M156.14,62.78c.83,6.06,3.93,13.49,6.43,13.07s3.46-8.49,2.63-14.56-6-10.25-6-10.25S155.31,56.71,156.14,62.78Z"/><path class="cls-8" d="M164.15,59.87c-1.13,4.82-1,11.3,1,11.71s5-5.4,6.1-10.22-1.5-9.46-1.5-9.46S165.27,55.06,164.15,59.87Z"/><path class="cls-15" d="M191.72,60.81c-9.84-2.43-19.1,2.22-26.42,9.31l-6.47,6.25-6.47,6.25c-7.31,7.09-12.28,16.18-10.17,26.1s8.94,16.94,17.5,20.69c12.25,5.37,19.41,4.34,31,6.59,5.89,1.16,14.36,4.22,22.63-3.3,7.8-8,5-16.59,4.07-22.51-1.88-11.65-.61-18.78-5.57-31.19C208.34,70.32,201.57,63.24,191.72,60.81Z"/><path class="cls-16" d="M148.69,110.5c-1.55,1.5-1.26,4.22.65,6.2s4.63,2.35,6.18.86,1.25-4.22-.66-6.2S150.24,109,148.69,110.5Zm13.45,4.32c-1.55,1.5-1.26,4.22.66,6.2s4.62,2.35,6.17.86,1.26-4.22-.66-6.2S163.69,113.32,162.14,114.82Zm-3.52-13.93c-1.54,1.5-1.26,4.22.65,6.19s4.63,2.36,6.18.87,1.26-4.22-.65-6.2S160.17,99.39,158.62,100.89Zm16.43,17c-1.54,1.5-1.26,4.21.66,6.19s4.61,2.36,6.17.86,1.26-4.21-.66-6.19S176.6,116.38,175.05,117.88Zm1-35.77c1.55-1.5,1.27-4.22-.64-6.2s-4.63-2.36-6.18-.85-1.27,4.22.65,6.19S174.55,83.61,176.09,82.11Zm11.24-10.87c1.55-1.5,1.26-4.21-.65-6.19s-4.62-2.36-6.17-.87-1.27,4.22.65,6.2S185.78,72.74,187.33,71.24Zm2.47,49.69c-1.55,1.5-1.26,4.23.65,6.2s4.63,2.36,6.18.87,1.25-4.23-.65-6.21S191.35,119.44,189.8,120.93Zm-37.27-16c1.55-1.51,1.28-4.23-.64-6.2s-4.63-2.36-6.18-.87-1.25,4.22.66,6.2S151,106.39,152.53,104.9Zm40-5.81c1.55-1.49,1.27-4.21-.65-6.2s-4.62-2.36-6.18-.85-1.25,4.22.66,6.19S191,100.59,192.52,99.09Zm4.41-17.92c-1.54,1.5-1.26,4.22.65,6.2s4.63,2.35,6.17.85S205,84,203.1,82,198.48,79.67,196.93,81.17Zm1.68,13.93c-1.55,1.49-1.27,4.21.65,6.19s4.62,2.36,6.16.86,1.27-4.22-.64-6.2S200.16,93.6,198.61,95.1Zm-16.43-17c-1.55,1.5-1.26,4.22.65,6.2s4.63,2.35,6.17.86,1.26-4.22-.65-6.2S183.73,76.62,182.18,78.11ZM202.12,109c-1.55,1.5-1.26,4.22.65,6.2s4.63,2.36,6.18.86,1.26-4.22-.66-6.2S203.67,107.52,202.12,109Zm-8.84-41.64c-1.54,1.49-1.26,4.21.65,6.19s4.63,2.36,6.17.86,1.27-4.22-.65-6.2S194.83,65.88,193.28,67.38ZM157,87c-1.55,1.5-1.26,4.22.65,6.2s4.63,2.35,6.17.85,1.27-4.22-.64-6.19S158.5,85.47,157,87Zm46.85,36c-1.55,1.5-1.27,4.22.65,6.2s4.62,2.35,6.17.86,1.26-4.22-.65-6.2S205.34,121.45,203.8,122.94Zm-30.43-19c-1.55,1.5-1.26,4.22.66,6.2s4.62,2.35,6.17.86,1.27-4.22-.65-6.2S174.93,102.45,173.37,104ZM171,89c-1.55,1.49-1.27,4.21.64,6.19s4.63,2.36,6.18.86,1.26-4.22-.65-6.2S172.49,87.48,171,89Zm16.43,17c-1.55,1.5-1.27,4.22.64,6.2s4.63,2.35,6.17.86,1.27-4.22-.65-6.2S188.92,104.47,187.38,106Z"/><path class="cls-12" d="M150.47,100.07c1.12,1.16,1.44,2.69.7,3.41s-2.26.34-3.38-.82-1.44-2.68-.7-3.4S149.34,98.91,150.47,100.07Z"/><path class="cls-12" d="M161.7,89.2c1.12,1.17,1.44,2.69.7,3.41s-2.25.35-3.37-.81-1.45-2.69-.7-3.41S160.58,88,161.7,89.2Z"/><path class="cls-12" d="M174,77.29c1.12,1.16,1.45,2.69.7,3.4s-2.26.35-3.37-.81-1.44-2.69-.71-3.41S172.9,76.12,174,77.29Z"/><path class="cls-12" d="M185.25,66.42c1.12,1.17,1.45,2.68.71,3.41s-2.25.34-3.38-.82-1.44-2.68-.7-3.4S184.13,65.26,185.25,66.42Z"/><path class="cls-12" d="M153.44,112.74c1.12,1.16,1.44,2.68.7,3.39s-2.25.35-3.37-.81-1.44-2.68-.71-3.4S152.31,111.57,153.44,112.74Z"/><path class="cls-12" d="M163.38,103.12c1.12,1.16,1.44,2.69.69,3.41s-2.25.35-3.37-.82-1.43-2.68-.7-3.4S162.25,102,163.38,103.12Z"/><path class="cls-12" d="M175.69,91.21c1.13,1.16,1.44,2.69.71,3.4s-2.25.35-3.38-.81-1.44-2.69-.7-3.41S174.57,90,175.69,91.21Z"/><path class="cls-12" d="M186.93,80.34c1.13,1.17,1.45,2.68.69,3.41s-2.24.35-3.37-.82-1.43-2.69-.7-3.4S185.81,79.18,186.93,80.34Z"/><path class="cls-12" d="M198,69.6c1.13,1.17,1.44,2.69.7,3.41s-2.25.35-3.37-.82-1.44-2.68-.7-3.4S196.9,68.44,198,69.6Z"/><path class="cls-12" d="M166.89,117.05c1.13,1.17,1.44,2.69.7,3.41s-2.25.35-3.38-.82-1.43-2.68-.69-3.39S165.77,115.89,166.89,117.05Z"/><path class="cls-12" d="M178.13,106.19c1.13,1.16,1.44,2.68.69,3.39s-2.24.36-3.37-.8-1.44-2.68-.69-3.4S177,105,178.13,106.19Z"/><path class="cls-12" d="M190.45,94.27c1.13,1.16,1.43,2.69.69,3.4s-2.25.35-3.37-.81-1.44-2.68-.7-3.4S189.32,93.1,190.45,94.27Z"/><path class="cls-12" d="M201.68,83.41c1.13,1.16,1.44,2.67.7,3.39s-2.25.36-3.37-.81-1.44-2.68-.7-3.39S200.55,82.25,201.68,83.41Z"/><path class="cls-12" d="M179.8,120.11c1.13,1.16,1.44,2.68.71,3.41s-2.26.34-3.38-.82-1.44-2.69-.71-3.4S178.68,118.94,179.8,120.11Z"/><path class="cls-12" d="M192.12,108.19c1.13,1.17,1.44,2.69.71,3.41s-2.26.34-3.38-.82-1.45-2.68-.7-3.4S191,107,192.12,108.19Z"/><path class="cls-12" d="M203.36,97.33c1.12,1.16,1.44,2.68.69,3.4s-2.25.35-3.37-.81-1.43-2.69-.7-3.41S202.23,96.16,203.36,97.33Z"/><path class="cls-12" d="M194.55,123.17c1.12,1.16,1.45,2.69.7,3.4s-2.25.35-3.37-.81-1.45-2.68-.71-3.41S193.43,122,194.55,123.17Z"/><path class="cls-12" d="M206.87,111.25c1.12,1.16,1.45,2.69.7,3.41s-2.25.34-3.37-.82-1.44-2.68-.71-3.4S205.75,110.09,206.87,111.25Z"/><path class="cls-12" d="M208.55,125.18c1.12,1.16,1.43,2.68.7,3.39s-2.25.36-3.38-.81-1.44-2.68-.7-3.4S207.42,124,208.55,125.18Z"/><path class="cls-17" d="M155.84,98.63c.61,4.3.34,8-2.7,8.55s-6-2.55-6.63-6.86,1.36-8.21,4.41-8.73S155.23,94.32,155.84,98.63Z"/><path class="cls-8" d="M65.05,88.65c5.39,2.47,11.33,7.69,10.15,10.24s-9,1.49-14.39-1-7.63-9.09-7.63-9.09S59.67,86.18,65.05,88.65Z"/><path class="cls-9" d="M57.77,98.53c5.52-1.14,12.93-.72,13.33,1.57s-6.33,5.62-11.85,6.76-10.76-2.11-10.76-2.11S52.23,99.67,57.77,98.53Z"/><path class="cls-8" d="M57.7,106.38c3.84-2.45,9.52-4.32,10.47-2.74s-3.16,6-7,8.44-8.69,1.6-8.69,1.6S53.86,108.84,57.7,106.38Z"/><path class="cls-9" d="M63.53,85.93c2.75,4.93,7.9,10.27,9.91,9.07s.12-8.45-2.62-13.39-8.63-6.76-8.63-6.76S60.78,81,63.53,85.93Z"/><path class="cls-8" d="M69.44,80.75c.65,4.51,2.94,10,4.76,9.73S76.66,84.16,76,79.65,71.55,72,71.55,72,68.79,76.24,69.44,80.75Z"/><path class="cls-18" d="M93.43,72.31c-9.28,1.21-15.66,8.31-19.57,16.85L70.4,96.7,67,104.24c-3.91,8.54-5.11,18,0,25.82S80.34,141.61,89,142c12.31.5,18.12-2.79,28.82-4.73,5.44-1,13.74-1.2,18.32-10.44,4-9.5-1.26-15.93-4.07-20.69-5.51-9.37-6.82-15.91-15.24-24.91C110.89,74.89,102.7,71.08,93.43,72.31Z"/><path class="cls-19" d="M73.16,129.41c-.83,1.8.32,4,2.63,5.1s4.76.47,5.59-1.33-.34-4.05-2.64-5.11S74,127.6,73.16,129.41Zm13-.8c-.82,1.8.33,4,2.64,5.09s4.76.48,5.58-1.33-.32-4-2.63-5.1S87,126.79,86.15,128.61Zm-7.69-10.79c-.83,1.81.33,4.05,2.64,5.11s4.76.47,5.59-1.34-.34-4-2.65-5.1S79.29,116,78.46,117.82Zm19.8,9.08c-.82,1.8.34,4,2.64,5.1s4.76.47,5.59-1.34-.33-4-2.64-5.1S99.09,125.09,98.26,126.9ZM87.15,95.83c.83-1.8-.32-4-2.63-5.1s-4.77-.47-5.6,1.34.33,4,2.65,5.1S86.33,97.64,87.15,95.83Zm6-13.1c.83-1.81-.33-4-2.64-5.1s-4.76-.48-5.58,1.34.33,4,2.64,5.1S92.33,84.54,93.15,82.73ZM112,124.57c-.82,1.8.34,4.05,2.65,5.1s4.76.48,5.58-1.33-.33-4-2.64-5.1S112.78,122.77,112,124.57ZM74.57,123.3c.83-1.8-.33-4-2.63-5.1s-4.77-.47-5.59,1.33.32,4,2.64,5.1S73.74,125.1,74.57,123.3ZM107,104.91c.83-1.81-.33-4-2.64-5.11s-4.76-.47-5.59,1.34.33,4,2.64,5.1S106.13,106.71,107,104.91ZM104.73,88c-.82,1.8.33,4,2.64,5.1s4.76.47,5.58-1.34-.32-4-2.64-5.1S105.55,86.23,104.73,88Zm6.11,11.39c-.82,1.8.34,4,2.64,5.1s4.77.47,5.59-1.33-.33-4-2.64-5.11S111.67,97.62,110.84,99.43ZM91,90.36c-.83,1.8.33,4,2.64,5.1s4.76.47,5.59-1.33-.34-4-2.64-5.11S91.87,88.55,91,90.36Zm27.49,19.85c-.82,1.8.33,4,2.64,5.1s4.77.47,5.59-1.33-.33-4-2.64-5.11S119.36,108.4,118.53,110.21ZM97,77.42c-.82,1.8.34,4,2.64,5.1s4.77.47,5.59-1.34-.33-4.05-2.64-5.1S97.79,75.6,97,77.42Zm-24.61,29c-.83,1.81.33,4,2.64,5.11s4.76.46,5.58-1.34-.33-4-2.63-5.1S73.18,104.63,72.35,106.43Zm52.3,15.16c-.83,1.81.32,4,2.64,5.11s4.76.47,5.58-1.34-.33-4-2.64-5.09S125.47,119.8,124.65,121.59Zm-32.5-6.09c-.83,1.81.34,4,2.64,5.1s4.76.48,5.59-1.33-.33-4-2.64-5.1S93,113.7,92.15,115.5Zm-7.11-12c-.83,1.8.33,4.05,2.64,5.1s4.76.47,5.58-1.34-.33-4-2.63-5.1S85.87,101.66,85,103.46Zm19.81,9.07c-.83,1.81.33,4,2.63,5.1s4.76.47,5.59-1.34-.33-4-2.64-5.09S105.67,110.73,104.85,112.53Z"/><path class="cls-12" d="M71.18,119.85c1.35.63,2.14,1.84,1.74,2.7s-1.82,1-3.17.43-2.14-1.83-1.75-2.68S69.82,119.24,71.18,119.85Z"/><path class="cls-12" d="M77.18,106.76c1.35.61,2.14,1.82,1.74,2.68s-1.82,1.06-3.17.44-2.14-1.83-1.75-2.69S75.82,106.13,77.18,106.76Z"/><path class="cls-12" d="M83.76,92.39c1.36.62,2.13,1.82,1.74,2.69s-1.82,1-3.17.43-2.14-1.82-1.75-2.68S82.4,91.77,83.76,92.39Z"/><path class="cls-12" d="M89.75,79.3c1.36.61,2.15,1.81,1.75,2.68s-1.81,1-3.17.43-2.14-1.82-1.75-2.69S88.4,78.67,89.75,79.3Z"/><path class="cls-12" d="M78,129.73c1.36.62,2.14,1.82,1.74,2.69s-1.81,1.06-3.17.43-2.13-1.82-1.74-2.69S76.62,129.11,78,129.73Z"/><path class="cls-12" d="M83.29,118.14c1.35.62,2.13,1.83,1.74,2.7s-1.82,1-3.17.43-2.14-1.82-1.74-2.69S81.93,117.52,83.29,118.14Z"/><path class="cls-12" d="M89.86,103.78c1.36.62,2.14,1.83,1.75,2.69s-1.82,1.06-3.17.43-2.14-1.82-1.74-2.69S88.51,103.16,89.86,103.78Z"/><path class="cls-12" d="M95.87,90.68c1.35.62,2.13,1.82,1.74,2.69s-1.82,1-3.17.43S92.3,92,92.7,91.12,94.51,90.06,95.87,90.68Z"/><path class="cls-12" d="M101.79,77.74c1.36.62,2.14,1.82,1.74,2.69s-1.81,1-3.16.42S98.23,79,98.62,78.17,100.43,77.11,101.79,77.74Z"/><path class="cls-12" d="M91,128.93c1.36.62,2.14,1.82,1.74,2.68s-1.81,1.06-3.17.44-2.13-1.82-1.74-2.69S89.62,128.3,91,128.93Z"/><path class="cls-12" d="M97,115.82c1.36.63,2.14,1.83,1.74,2.69s-1.81,1.06-3.17.44-2.13-1.82-1.74-2.69S95.62,115.2,97,115.82Z"/><path class="cls-12" d="M103.56,101.46c1.36.62,2.14,1.82,1.73,2.68s-1.81,1.06-3.16.45-2.13-1.84-1.74-2.69S102.2,100.84,103.56,101.46Z"/><path class="cls-12" d="M109.56,88.37c1.36.61,2.14,1.81,1.74,2.67s-1.81,1.06-3.17.44-2.13-1.82-1.74-2.69S108.2,87.74,109.56,88.37Z"/><path class="cls-12" d="M103.09,127.22c1.36.61,2.14,1.82,1.74,2.68s-1.82,1.06-3.17.44-2.13-1.83-1.74-2.69S101.74,126.59,103.09,127.22Z"/><path class="cls-12" d="M109.67,112.86c1.35.61,2.14,1.82,1.75,2.68s-1.82,1.06-3.18.43-2.14-1.82-1.74-2.69S108.31,112.23,109.67,112.86Z"/><path class="cls-12" d="M115.67,99.75c1.35.62,2.14,1.82,1.74,2.7s-1.82,1-3.17.42-2.14-1.82-1.74-2.68S114.32,99.12,115.67,99.75Z"/><path class="cls-12" d="M116.79,124.89c1.35.62,2.13,1.83,1.74,2.69s-1.82,1-3.18.44-2.14-1.83-1.74-2.69S115.42,124.27,116.79,124.89Z"/><path class="cls-12" d="M123.36,110.53c1.36.62,2.14,1.82,1.74,2.69s-1.81,1-3.17.44-2.13-1.84-1.74-2.69S122,109.91,123.36,110.53Z"/><path class="cls-12" d="M129.48,121.92c1.34.62,2.12,1.83,1.74,2.69s-1.82,1.06-3.18.43-2.14-1.83-1.74-2.69S128.12,121.3,129.48,121.92Z"/><path class="cls-17" d="M89.37,87.53c-2.23,3.33-4.72,5.73-7.12,4.22s-2.56-5.46-.33-8.8,6-4.8,8.4-3.28S91.6,84.2,89.37,87.53Z"/><path class="cls-20" d="M125.36,93.25c-28.73-4.23-17.66,40-47.95,42.5-1.11.09-1.81,1.12-2.72,1.71A28.48,28.48,0,0,0,89,142c12.31.5,18.11-2.79,28.82-4.73,5.44-1,13.74-1.2,18.32-10.44,4-9.5-1.26-15.93-4.07-20.69S127.48,97.26,125.36,93.25Z"/><path class="cls-8" d="M332.27,108.12c-5,2.63-12.43,4-13.68,1.67s4.15-7.66,9.17-10.29,11.32-.45,11.32-.45S337.27,105.49,332.27,108.12Z"/><path class="cls-9" d="M329.06,96.84c-2.37,4.84-7,10.19-9,9.15s-.55-8.06,1.82-12.89,7.88-6.9,7.88-6.9S331.43,92,329.06,96.84Z"/><path class="cls-8" d="M323.17,92.2c-.39,4.34-2.3,9.71-4.06,9.52s-2.66-5.9-2.27-10.23,3.87-7.5,3.87-7.5S323.56,87.86,323.17,92.2Z"/><path class="cls-9" d="M335.2,108.56c-5.33-.8-12.37,0-12.63,2.18s6.31,5,11.64,5.84S344.36,114,344.36,114,340.54,109.36,335.2,108.56Z"/><path class="cls-8" d="M335.67,116.05c-3.79-2.15-9.3-3.64-10.13-2.09s3.32,5.55,7.11,7.7a13,13,0,0,0,8.36,1.08S339.46,118.19,335.67,116.05Z"/><path class="cls-21" d="M328,139.1c4.51-7.71,2.87-16.68-1.29-24.63l-3.68-7-3.67-7c-4.16-7.94-10.61-14.38-19.52-15.07S283.34,88.72,278.05,95c-7.58,9-8.49,15.31-13.28,24.53-2.43,4.68-7.12,11.08-2.82,19.94,4.84,8.57,12.76,8.36,18,9,10.29,1.31,16,4.14,27.71,3C315.87,150.78,323.53,146.81,328,139.1Z"/><path class="cls-22" d="M296.75,90.42c-.88-1.68-3.25-2.12-5.4-1s-3.14,3.32-2.26,5,3.25,2.11,5.4,1S297.62,92.09,296.75,90.42Zm-7,10.29c-.88-1.69-3.26-2.12-5.4-1s-3.13,3.32-2.26,5,3.25,2.12,5.4,1S290.64,102.38,289.76,100.71Zm12.63.48c-.88-1.68-3.24-2.11-5.39-1s-3.14,3.32-2.26,5,3.25,2.12,5.4,1S303.27,102.87,302.39,101.19ZM284,110.85c-.89-1.68-3.25-2.11-5.4-1s-3.14,3.31-2.25,5,3.24,2.11,5.39,1S284.85,112.53,284,110.85Zm29.95,9.76c.88,1.69,3.25,2.12,5.4,1s3.14-3.32,2.25-5-3.25-2.12-5.4-1S313,118.93,313.92,120.61Zm6.39,12.19c.88,1.68,3.25,2.11,5.39,1s3.14-3.32,2.27-5-3.26-2.11-5.41-1S319.43,131.12,320.31,132.8Zm-42.59-10.25c-.88-1.69-3.25-2.11-5.4-1s-3.13,3.32-2.26,5,3.26,2.12,5.4,1S278.61,124.23,277.72,122.55Zm22.81-27.5c.87,1.69,3.25,2.12,5.39,1s3.14-3.33,2.26-5-3.24-2.12-5.4-1S299.64,93.38,300.53,95.05Zm-5,35.21c.88,1.69,3.25,2.12,5.39,1s3.14-3.32,2.26-5-3.25-2.11-5.4-1S294.62,128.58,295.5,130.26Zm14,8.19c-.88-1.69-3.25-2.12-5.4-1s-3.14,3.32-2.26,5,3.25,2.12,5.4,1S310.42,140.12,309.54,138.45Zm-12.18-2c-.88-1.67-3.25-2.11-5.4-1s-3.13,3.31-2.25,5,3.25,2.12,5.39,1S298.24,138.08,297.36,136.4Zm18.43-9.66c-.88-1.67-3.25-2.11-5.4-1s-3.14,3.32-2.26,5,3.26,2.12,5.4,1S316.67,128.42,315.79,126.74Zm-31.06,9.17c-.88-1.68-3.25-2.11-5.4-1s-3.14,3.32-2.26,5,3.26,2.12,5.4,1S285.61,137.59,284.73,135.91Zm37.37,2.87c-.89-1.67-3.25-2.11-5.39-1s-3.15,3.33-2.27,5,3.26,2.11,5.4,1S323,140.47,322.1,138.78Zm-7.53-35.54c-.88-1.69-3.25-2.12-5.4-1s-3.13,3.32-2.25,5,3.24,2.11,5.39,1S315.45,104.92,314.57,103.24Zm-42,30.63c-.89-1.68-3.25-2.12-5.41-1s-3.13,3.32-2.25,5,3.25,2.11,5.39,1S273.43,135.55,272.56,133.87Zm23.59-21c-.89-1.68-3.26-2.11-5.4-1s-3.14,3.32-2.26,5,3.25,2.11,5.4,1S297,114.57,296.15,112.89Zm13.25,1.67c-.88-1.68-3.25-2.12-5.4-1s-3.13,3.33-2.26,5,3.26,2.11,5.4,1S310.28,116.23,309.4,114.56ZM291,124.22c-.88-1.68-3.24-2.12-5.39-1s-3.14,3.33-2.25,5,3.24,2.11,5.39,1S291.85,125.89,291,124.22Z"/><path class="cls-12" d="M305.11,94.51c-1.25.66-2.62.54-3-.26s.26-2,1.52-2.65,2.63-.55,3.05.25S306.37,93.85,305.11,94.51Z"/><path class="cls-12" d="M311.5,106.69c-1.26.66-2.63.56-3.05-.25s.27-2,1.52-2.65,2.64-.55,3.06.25S312.76,106,311.5,106.69Z"/><path class="cls-12" d="M318.5,120.06c-1.25.66-2.62.55-3-.26s.26-2,1.52-2.65,2.63-.54,3,.25S319.77,119.4,318.5,120.06Z"/><path class="cls-12" d="M324.89,132.24c-1.25.66-2.62.56-3.05-.24s.27-2,1.54-2.66,2.62-.55,3,.26S326.16,131.58,324.89,132.24Z"/><path class="cls-12" d="M293.68,93.87c-1.27.67-2.63.55-3.05-.25s.27-2,1.53-2.65,2.62-.55,3,.25S294.94,93.21,293.68,93.87Z"/><path class="cls-12" d="M299.33,104.65c-1.26.67-2.63.55-3.05-.25s.26-2,1.52-2.66,2.63-.54,3.05.26S300.59,104,299.33,104.65Z"/><path class="cls-12" d="M306.33,118c-1.26.66-2.62.55-3-.25s.26-2,1.52-2.65,2.63-.55,3.05.26S307.59,117.35,306.33,118Z"/><path class="cls-12" d="M312.72,130.21c-1.26.66-2.63.54-3.05-.26s.27-2,1.54-2.65,2.61-.55,3,.25S314,129.54,312.72,130.21Z"/><path class="cls-12" d="M319,142.24c-1.27.66-2.63.55-3.05-.25s.26-2,1.52-2.64,2.62-.56,3,.24S320.3,141.58,319,142.24Z"/><path class="cls-12" d="M286.69,104.17c-1.26.65-2.62.54-3-.26s.26-2,1.52-2.65,2.62-.55,3,.25S288,103.5,286.69,104.17Z"/><path class="cls-12" d="M293.08,116.35c-1.26.66-2.63.55-3.05-.25s.26-2,1.53-2.66,2.62-.54,3,.27S294.34,115.69,293.08,116.35Z"/><path class="cls-12" d="M300.09,129.71c-1.27.67-2.63.55-3-.25s.26-2,1.52-2.65,2.63-.55,3,.25S301.35,129.06,300.09,129.71Z"/><path class="cls-12" d="M306.47,141.9c-1.26.66-2.62.55-3-.25s.26-2,1.52-2.65,2.62-.55,3.05.25S307.74,141.24,306.47,141.9Z"/><path class="cls-12" d="M280.9,114.31c-1.25.66-2.62.55-3-.26s.26-2,1.52-2.65,2.63-.55,3,.25S282.17,113.65,280.9,114.31Z"/><path class="cls-12" d="M287.91,127.67c-1.26.66-2.64.55-3.05-.25s.27-2,1.52-2.65,2.64-.55,3.06.26S289.17,127,287.91,127.67Z"/><path class="cls-12" d="M294.3,139.86c-1.26.66-2.63.55-3.05-.25s.27-2,1.52-2.65,2.63-.55,3.05.25S295.56,139.2,294.3,139.86Z"/><path class="cls-12" d="M274.66,126c-1.26.66-2.63.55-3.05-.25s.27-2,1.52-2.66,2.63-.55,3.06.26S275.92,125.34,274.66,126Z"/><path class="cls-12" d="M281.66,139.37c-1.26.66-2.62.55-3.05-.26s.27-2,1.53-2.64,2.63-.55,3,.25S282.92,138.71,281.66,139.37Z"/><path class="cls-12" d="M269.48,137.32c-1.25.67-2.62.55-3-.25s.26-2,1.52-2.64,2.63-.55,3.05.25S270.74,136.66,269.48,137.32Z"/><path class="cls-17" d="M305,99.4c-3.79-.55-6.88-1.71-6.56-4.4s3.65-4.45,7.44-3.9,6.61,3.2,6.29,5.89S308.79,100,305,99.4Z"/><path class="cls-23" d="M324.06,141.82c-9.06-2.28-17.48-7.38-24.37-13.61-4.91-4.44-8.76-11-15.31-13.3-5.8-2-12.06-.59-17.87,1.09-.53,1.14-1.1,2.32-1.74,3.55-2.43,4.68-7.12,11.08-2.82,19.94,4.84,8.57,12.76,8.36,18,9,10.29,1.3,16,4.14,27.71,3a26,26,0,0,0,18.06-9.47C325.16,142,324.64,142,324.06,141.82Z"/><path class="cls-8" d="M239.26,19.93c-3.25,5.75-9.62,11.85-12.35,10.31s-.79-10.15,2.47-15.91,10.83-7.61,10.83-7.61S242.51,14.19,239.26,19.93Z"/><path class="cls-9" d="M229,10.89c.74,6.26-.43,14.45-3,14.67s-5.64-7.56-6.39-13.8S222.94,0,222.94,0,228.24,4.64,229,10.89Z"/><path class="cls-8" d="M220.25,10.07c2.37,4.5,3.9,11,2.06,11.91s-6.36-4.1-8.72-8.59-1-9.81-1-9.81S217.89,5.57,220.25,10.07Z"/><path class="cls-9" d="M242.42,18.5c-5.73,2.59-12.16,7.81-11,10.15s9.38.94,15.12-1.65,8.34-8.93,8.34-8.93S248.17,15.91,242.42,18.5Z"/><path class="cls-8" d="M247.62,25.56c-5.08.28-11.42,2.31-11.26,4.36s6.78,3.34,11.85,3.06,8.9-4.24,8.9-4.24S252.69,25.26,247.62,25.56Z"/><path class="cls-24" d="M254.72,53c-.46-10.43-7.75-18.19-16.86-23.35l-8.05-4.55-8.06-4.56c-9.11-5.16-19.51-7.4-28.69-2.43S179,31.88,177.76,41.41C176,55,179.13,61.82,180.28,73.89c.58,6.14,0,15.39,9.86,21.35,10.17,5.35,17.81.12,23.37-2.55,10.94-5.24,18.33-6.07,29.14-14.57C250.19,72.18,255.2,63.43,254.72,53Z"/><path class="cls-25" d="M193.2,25.06c-1.93-1.09-4.52,0-5.92,2.44s-1,5.25.95,6.34,4.52,0,5.92-2.45S195.12,26.15,193.2,25.06Zm-.34,14.51c-1.93-1.08-4.53,0-5.92,2.45s-1,5.25.95,6.34,4.52,0,5.92-2.45S194.79,40.67,192.86,39.57Zm12.71-7.51c-1.93-1.1-4.53,0-5.92,2.44s-1,5.25.95,6.34,4.52,0,5.92-2.45S207.5,33.15,205.57,32.06Zm-12,21.14c-1.93-1.09-4.52,0-5.92,2.45s-1,5.24.95,6.33,4.53,0,5.93-2.44S195.53,54.29,193.6,53.2Zm35.57-9.39c1.93,1.09,4.53,0,5.92-2.45s1-5.25-1-6.33-4.53,0-5.92,2.45S227.25,42.72,229.17,43.81Zm14,7.91c1.93,1.09,4.53,0,5.92-2.45s1-5.24-1-6.33-4.52,0-5.92,2.45S241.24,50.63,243.16,51.72ZM194.88,68.63c-1.92-1.09-4.53,0-5.92,2.45s-1,5.25.95,6.34,4.53,0,5.93-2.45S196.81,69.72,194.88,68.63Zm5-41.41c1.92,1.09,4.53,0,5.92-2.45s1-5.24-1-6.34-4.53,0-5.92,2.45S197.92,26.13,199.85,27.22ZM217.21,65c1.93,1.09,4.53,0,5.92-2.44s1-5.25-.95-6.34-4.53,0-5.92,2.45S215.29,63.86,217.21,65Zm19-.87c-1.92-1.09-4.53,0-5.92,2.45s-1,5.24.95,6.34,4.52,0,5.92-2.45S238.1,65.17,236.17,64.08Zm-13.25,5.71c-1.92-1.08-4.52,0-5.91,2.44s-1,5.26.94,6.34,4.54,0,5.93-2.45S224.85,70.88,222.92,69.79Zm12-21.15c-1.92-1.08-4.53,0-5.92,2.45s-1,5.25.94,6.34,4.54,0,5.94-2.45S236.82,49.74,234.89,48.64ZM210.22,77.31c-1.93-1.1-4.53,0-5.93,2.45s-1,5.24,1,6.34,4.53,0,5.92-2.45S212.15,78.4,210.22,77.31Zm38.49-20.85c-1.93-1.08-4.53,0-5.92,2.45s-1,5.25,1,6.34,4.53,0,5.92-2.46S250.64,57.56,248.71,56.46Zm-29.9-30.11c-1.93-1.09-4.53,0-5.92,2.45s-1,5.24,1,6.33,4.53,0,5.92-2.44S220.73,27.44,218.81,26.35ZM197,83c-1.92-1.09-4.53,0-5.92,2.45s-1,5.24.95,6.33,4.53,0,5.92-2.45S198.9,84.1,197,83Zm9.86-35.53c-1.92-1.09-4.53,0-5.92,2.45s-1,5.25,1,6.33,4.53,0,5.93-2.44S208.77,48.58,206.84,47.49Zm14.07-6.76c-1.93-1.08-4.54,0-5.93,2.45s-1,5.25,1,6.34,4.52,0,5.91-2.46S222.83,41.82,220.91,40.73Zm-12,21.15c-1.92-1.09-4.53,0-5.92,2.44s-1,5.25,1,6.34,4.52,0,5.91-2.45S210.86,63,208.94,61.88Z"/><path class="cls-12" d="M204,23.77c-.81,1.45-2.23,2.2-3.15,1.68s-1-2.12-.18-3.56,2.23-2.21,3.15-1.69S204.82,22.32,204,23.77Z"/><path class="cls-12" d="M218,31.69c-.82,1.44-2.23,2.2-3.15,1.68s-1-2.13-.19-3.57,2.23-2.21,3.16-1.68S218.81,30.24,218,31.69Z"/><path class="cls-12" d="M233.33,40.36c-.83,1.45-2.24,2.2-3.16,1.69s-1-2.13-.18-3.58,2.23-2.19,3.15-1.68S234.15,38.91,233.33,40.36Z"/><path class="cls-12" d="M247.31,48.27c-.82,1.45-2.23,2.21-3.15,1.69s-1-2.12-.18-3.57,2.23-2.2,3.15-1.68S248.13,46.83,247.31,48.27Z"/><path class="cls-12" d="M192.38,30.39c-.82,1.45-2.23,2.2-3.15,1.68s-1-2.11-.18-3.56,2.22-2.2,3.15-1.68S193.2,28.94,192.38,30.39Z"/><path class="cls-12" d="M204.75,37.39c-.82,1.45-2.23,2.2-3.16,1.68s-1-2.12-.17-3.57,2.23-2.19,3.14-1.67S205.57,35.94,204.75,37.39Z"/><path class="cls-12" d="M220.09,46.07c-.82,1.44-2.24,2.19-3.15,1.68s-1-2.12-.19-3.57S219,42,219.91,42.5,220.91,44.62,220.09,46.07Z"/><path class="cls-12" d="M234.08,54c-.82,1.45-2.24,2.2-3.16,1.68s-1-2.12-.18-3.56,2.23-2.21,3.15-1.69S234.89,52.53,234.08,54Z"/><path class="cls-12" d="M247.89,61.8c-.82,1.44-2.22,2.2-3.15,1.68s-1-2.12-.18-3.56,2.23-2.21,3.15-1.69S248.71,60.34,247.89,61.8Z"/><path class="cls-12" d="M192,44.92c-.82,1.44-2.23,2.19-3.15,1.67s-1-2.12-.19-3.56,2.24-2.2,3.16-1.68S192.86,43.46,192,44.92Z"/><path class="cls-12" d="M206,52.83c-.82,1.45-2.23,2.19-3.15,1.67s-1-2.11-.19-3.56,2.23-2.2,3.15-1.67S206.85,51.38,206,52.83Z"/><path class="cls-12" d="M221.36,61.5c-.82,1.46-2.22,2.2-3.15,1.68s-1-2.11-.18-3.57,2.23-2.19,3.14-1.67S222.19,60.06,221.36,61.5Z"/><path class="cls-12" d="M235.35,69.41c-.82,1.46-2.22,2.21-3.15,1.69s-1-2.12-.18-3.57,2.23-2.19,3.15-1.68S236.17,68,235.35,69.41Z"/><path class="cls-12" d="M192.79,58.53c-.82,1.45-2.23,2.21-3.16,1.69s-1-2.13-.17-3.57,2.22-2.2,3.14-1.68S193.61,57.09,192.79,58.53Z"/><path class="cls-12" d="M208.12,67.21c-.81,1.45-2.23,2.2-3.14,1.68s-1-2.12-.19-3.56,2.23-2.21,3.15-1.69S208.94,65.76,208.12,67.21Z"/><path class="cls-12" d="M222.11,75.13c-.82,1.44-2.23,2.2-3.15,1.67s-1-2.11-.19-3.56S221,71,221.93,71.55,222.93,73.67,222.11,75.13Z"/><path class="cls-12" d="M194.07,74c-.82,1.44-2.23,2.2-3.15,1.68s-1-2.12-.19-3.57,2.23-2.2,3.15-1.68S194.89,72.52,194.07,74Z"/><path class="cls-12" d="M209.4,82.64c-.82,1.45-2.23,2.21-3.15,1.69s-1-2.13-.18-3.57,2.23-2.2,3.15-1.68S210.22,81.2,209.4,82.64Z"/><path class="cls-12" d="M196.16,88.35c-.82,1.45-2.23,2.2-3.15,1.68s-1-2.11-.18-3.56,2.23-2.2,3.15-1.68S197,86.9,196.16,88.35Z"/><path class="cls-17" d="M207,28.65c-4.06,1.86-7.83,2.68-9.23-.17s.77-6.67,4.84-8.54,8.5-1.05,9.89,1.81S211.06,26.79,207,28.65Z"/><path class="cls-26" d="M228.83,47.13c-8.86-7.88-26.47-11.28-39.07-7.79-5.11,1.42-9.31,5.84-12.44,12.16.32,7.73,2.13,13.7,3,22.39.58,6.14,0,15.39,9.86,21.35,10.17,5.35,17.81.12,23.37-2.55,10.49-5,17.76-6.07,27.86-13.63C236.42,60.22,239.92,57,228.83,47.13Z"/><path class="cls-27" d="M212.44,67.93c-7.24-4.37-18-4.23-25.49-.33-7.82,4.07-7.71,10.5-6.23,18.09.91,4.66,4.38,5.57,3.46.93-1.08-5.6,3-10.62,8.49-13.31,3.71-1.82,9.6-1.59,13.35-.24,3.31,1.19,5.77,3.4,8.18,5.94,1.38,1.53,2.69,3.13,3.91,4.79q4.42,4.5-2.91,9.65c-4.73.26-4.37,4.52.39,4.25,7-.4,12.8-2.13,12.24-9.78S218.59,71.64,212.44,67.93Z"/><path class="cls-28" d="M214.93,54.64c-16.71-14-30.56-10.47-36.63,10-1.35,4.57,2.12,9.64,3.47,5.09,2.84-9.58,10.37-18.75,21.37-14.3,5.21,2.1,9.59,7.2,13.78,10.85,8.68,7.58,21.82,18.55,13.61,31-2.62,4,1.65,4.28,4.26.32C247.18,78.76,227.82,65.49,214.93,54.64Z"/><path class="cls-8" d="M270.42,99.2c-5.34,3.6-13.52,6.15-15.24,3.62s3.72-9.18,9.05-12.78S277,88.11,277,88.11,275.73,95.61,270.42,99.2Z"/><path class="cls-9" d="M265.37,86.88c-2.06,5.75-6.63,12.39-9,11.46s-1.63-9,.43-14.79,8-8.78,8-8.78S267.44,81.11,265.37,86.88Z"/><path class="cls-8" d="M258.13,82.38c.11,4.94-1.37,11.26-3.37,11.25s-3.75-6.32-3.87-11.25,3.43-9,3.43-9S258,77.44,258.13,82.38Z"/><path class="cls-9" d="M273.78,99.33c-6.12-.23-14,1.52-14,4.06s7.77,4.88,13.88,5.12,11.14-4.17,11.14-4.17S279.9,99.56,273.78,99.33Z"/><path class="cls-8" d="M275.25,107.72c-4.55-2-10.95-2.93-11.7-1.08s4.46,5.85,9,7.8,9.57.16,9.57.16S279.79,109.67,275.25,107.72Z"/><path class="cls-29" d="M269.53,134.71c4.11-9.28,1.14-19.19-4.57-27.64l-5-7.45-5-7.46C249.2,83.72,241.1,77.26,231,77.6s-18.23,5.87-23.42,13.65c-7.41,11.12-7.64,18.35-11.88,29.37C193.5,126.21,189,134,195,143.47c6.53,9.08,15.46,7.84,21.45,7.92,11.8.18,18.61,2.67,31.69-.06C257.28,149.43,265.43,144,269.53,134.71Z"/><path class="cls-30" d="M228.08,83.7c-1.2-1.79-3.94-2-6.22-.44s-3.12,4.15-1.91,5.93,3.94,2,6.21.43S229.28,85.48,228.08,83.7Zm-6.59,12.49c-1.21-1.79-3.94-2-6.22-.43s-3.12,4.14-1.91,5.92,3.93,2,6.21.44S222.7,98,221.49,96.19Zm14.32-1c-1.2-1.78-3.93-2-6.21-.43s-3.12,4.14-1.92,5.92,3.94,2,6.22.44S237,96.94,235.81,95.15Zm-19.58,13.23c-1.2-1.79-3.93-2-6.22-.44s-3.11,4.14-1.91,5.93,3.94,2,6.22.44S217.43,110.16,216.23,108.38Zm35,7.23c1.21,1.79,3.94,2,6.22.45s3.13-4.14,1.92-5.94-3.93-2-6.22-.43S250.07,113.83,251.27,115.61Zm8.76,13c1.2,1.79,3.93,2,6.21.44s3.12-4.14,1.92-5.93-3.93-2-6.22-.43S258.82,126.79,260,128.57Zm-49.37-6.2c-1.21-1.79-3.94-2-6.22-.44s-3.13,4.15-1.92,5.93,3.94,2,6.22.44S211.87,124.16,210.66,122.37Zm22.27-33.91c1.21,1.79,3.94,2,6.22.44s3.12-4.15,1.92-5.93-3.93-2-6.22-.44S231.72,86.67,232.93,88.46Zm-1.23,40.38c1.2,1.79,3.93,2,6.21.44s3.13-4.15,1.92-5.93-3.94-2-6.22-.44S230.49,127.06,231.7,128.84Zm16.88,7.46c-1.2-1.78-3.94-2-6.22-.43s-3.12,4.14-1.92,5.93,3.93,2,6.21.43S249.79,138.09,248.58,136.3Zm-14-.77c-1.2-1.78-3.93-2-6.21-.43s-3.12,4.14-1.92,5.92,3.94,2,6.22.44S235.78,137.32,234.57,135.53Zm19.58-13.23c-1.2-1.77-3.93-2-6.21-.43S244.82,126,246,127.8s3.94,2,6.22.43S255.36,124.09,254.15,122.3Zm-33.9,14.27c-1.2-1.79-3.94-2-6.22-.43s-3.12,4.14-1.92,5.93,3.94,2,6.22.43S221.46,138.36,220.25,136.57Zm42.55-1.46c-1.21-1.79-3.93-2-6.21-.44s-3.13,4.14-1.93,5.93,3.94,2,6.22.43S264,136.9,262.8,135.11Zm-13-39.19c-1.21-1.79-3.94-2-6.23-.44s-3.11,4.15-1.91,5.93,3.94,2,6.22.44S251,97.71,249.82,95.92ZM206.25,135.8c-1.21-1.78-3.94-2-6.22-.43s-3.12,4.14-1.91,5.93,3.93,2,6.21.42S207.45,137.58,206.25,135.8Zm24-26.66c-1.21-1.78-3.94-2-6.22-.43s-3.12,4.15-1.92,5.93,3.93,2,6.22.43S231.44,110.93,230.24,109.14Zm15.17.22c-1.2-1.79-3.94-2-6.22-.44s-3.12,4.15-1.91,5.93,3.93,2,6.21.43S246.61,111.14,245.41,109.36Zm-19.59,13.22c-1.2-1.78-3.93-2-6.21-.44s-3.12,4.15-1.92,5.93,3.94,2,6.22.44S227,124.36,225.82,122.58Z"/><path class="cls-12" d="M238,87.26c-1.34.9-2.9.95-3.47.09s.05-2.28,1.39-3.18,2.9-1,3.47-.1S239.38,86.35,238,87.26Z"/><path class="cls-12" d="M246.79,100.21c-1.34.91-2.89,1-3.48.1s.06-2.28,1.39-3.19,2.9-1,3.48-.09S248.14,99.31,246.79,100.21Z"/><path class="cls-12" d="M256.38,114.41c-1.34.91-2.9,1-3.47.1s.05-2.28,1.39-3.18,2.9-1,3.47-.1S257.72,113.51,256.38,114.41Z"/><path class="cls-12" d="M265.13,127.36c-1.34.91-2.89,1-3.47.11s0-2.28,1.39-3.19,2.89-1,3.47-.1S266.47,126.46,265.13,127.36Z"/><path class="cls-12" d="M225.06,88c-1.35.9-2.9.94-3.48.09s0-2.27,1.39-3.18,2.89-1,3.47-.09S226.4,87.08,225.06,88Z"/><path class="cls-12" d="M232.79,99.44c-1.34.91-2.9,1-3.47.1s.05-2.28,1.39-3.19,2.89-.94,3.46-.1S234.14,98.54,232.79,99.44Z"/><path class="cls-12" d="M242.39,113.64c-1.35.91-2.91,1-3.48.11s.05-2.29,1.38-3.2,2.91-.94,3.48-.09S243.73,112.74,242.39,113.64Z"/><path class="cls-12" d="M251.13,126.6c-1.34.9-2.89,1-3.47.09s.05-2.27,1.39-3.18,2.89-1,3.47-.1S252.47,125.69,251.13,126.6Z"/><path class="cls-12" d="M259.77,139.39c-1.34.91-2.89,1-3.47.1s.05-2.27,1.4-3.18,2.88-.95,3.46-.1S261.12,138.49,259.77,139.39Z"/><path class="cls-12" d="M218.47,100.48c-1.35.91-2.9,1-3.48.1s0-2.28,1.38-3.19,2.9-1,3.47-.09S219.81,99.58,218.47,100.48Z"/><path class="cls-12" d="M227.21,113.44c-1.34.9-2.89.94-3.47.09s0-2.28,1.39-3.18,2.89-.95,3.46-.09S228.55,112.53,227.21,113.44Z"/><path class="cls-12" d="M236.8,127.64c-1.34.9-2.89,1-3.47.1s0-2.28,1.38-3.19,2.9-.94,3.48-.09S238.15,126.73,236.8,127.64Z"/><path class="cls-12" d="M245.55,140.59c-1.34.9-2.89.95-3.47.1s0-2.28,1.39-3.18,2.89-.95,3.47-.09S246.89,139.68,245.55,140.59Z"/><path class="cls-12" d="M213.21,112.67c-1.33.9-2.9,1-3.48.09s.05-2.28,1.39-3.18,2.9-1,3.47-.1S214.56,111.76,213.21,112.67Z"/><path class="cls-12" d="M222.8,126.87c-1.34.9-2.9.95-3.47.1s0-2.28,1.38-3.19,2.9-.94,3.48-.09S224.14,126,222.8,126.87Z"/><path class="cls-12" d="M231.55,139.82c-1.34.91-2.89,1-3.47.09s0-2.27,1.39-3.18,2.89-.94,3.46-.09S232.89,138.92,231.55,139.82Z"/><path class="cls-12" d="M207.63,126.66c-1.34.91-2.89,1-3.47.1s.05-2.28,1.39-3.19,2.89-.95,3.47-.09S209,125.76,207.63,126.66Z"/><path class="cls-12" d="M217.22,140.86c-1.34.91-2.89,1-3.47.1s.05-2.28,1.39-3.19,2.9-.94,3.47-.1S218.56,140,217.22,140.86Z"/><path class="cls-12" d="M203.22,140.09c-1.33.91-2.89.95-3.47.1s.05-2.28,1.39-3.18,2.89-1,3.47-.1S204.56,139.18,203.22,140.09Z"/><path class="cls-17" d="M238.53,92.8c-4.35-.15-8-1.06-8-4.15s3.56-5.47,7.91-5.33,7.86,2.77,7.84,5.86S242.88,93,238.53,92.8Z"/><path class="cls-31" d="M254.54,140.22c-3.25-9.43-2.4-20.93-7.6-29.56-10.5-17.43-30.48-16-45.59-7.31-2,5.49-3.17,10.71-5.69,17.27-2.16,5.59-6.65,13.4-.67,22.85,6.53,9.08,15.46,7.84,21.45,7.92,11.8.18,18.61,2.67,31.69-.06,3.42-.71,9.54-1.27,9.34-4.47C257.31,144.34,255.14,142,254.54,140.22Z"/><path class="cls-32" d="M234.17,111.56c-9.54-12.6-23.4-12-34.79-2.5-3.55,3-4.31,8.79-.79,5.85,9.84-8.22,25.08-6.76,31.82,3.9,4.51,7.14,13.33,24.35,6.71,32.26-3,3.52,3,4.45,5.95.9C253.19,139.89,242.29,122.26,234.17,111.56Z"/><path class="cls-33" d="M220,124.74c-7.44-7.93-21.31-9.5-27.27-3.32-3.21,3.33-1.26,8,2,4.71,2.22-2.2,6.94-1.9,9.93-1.89A15,15,0,0,1,217,131c2.28,3.49,6.66,15.34,1,18.87-3.91,2.44-.07,4.89,3.82,2.36C232,145.61,227.12,132.31,220,124.74Z"/><path class="cls-34" d="M207.38,135.74c-3.89-4.92-13.17-8-16.42-2.87-2.47,3.91-.3,5.91,3.14,2.81,5.62-5.05,15.84,8.87,7.75,12.36-4.24,1.82-.48,3.61,4,2.8C214,149.4,210.94,140.24,207.38,135.74Z"/><path class="cls-8" d="M136.63,36.25c2,6.11,2.24,14.69-.66,15.64s-7.82-6.07-9.83-12.18,1.6-12.77,1.6-12.77S134.62,30.16,136.63,36.25Z"/><path class="cls-9" d="M123.4,37.76c5,3.55,10.11,9.75,8.58,11.76s-9.13-.88-14.11-4.44S111.6,35,111.6,35,118.41,34.2,123.4,37.76Z"/><path class="cls-8" d="M117.1,43.5c4.78,1.24,10.46,4.38,9.91,6.3s-7.09,1.9-11.88.66-7.68-5.73-7.68-5.73S112.31,42.26,117.1,43.5Z"/><path class="cls-9" d="M137.67,33.05c-1.89,5.82-2.34,13.86.1,14.56s6.81-6.14,8.71-12-1-11.85-1-11.85S139.56,27.22,137.67,33.05Z"/><path class="cls-8" d="M146.15,33.92c-3.11,3.84-5.81,9.74-4.22,11s6.84-2.69,9.94-6.54,2.77-9.17,2.77-9.17S149.25,30.07,146.15,33.92Z"/><path class="cls-35" d="M170.56,46.76c-7.81-6.48-18.17-6.31-27.84-3.12l-8.54,2.81-8.55,2.82c-9.67,3.19-18.09,9.22-20.51,19.08s.68,19.14,6.76,26.24c8.68,10.16,15.58,12.35,25,19.42,4.79,3.6,11.09,10,21.82,6.87,10.5-3.83,11.73-12.76,13.44-18.5,3.39-11.3,7.63-17.17,8.57-30.5C181.4,62.55,178.37,53.23,170.56,46.76Z"/><path class="cls-36" d="M110.2,72.77c-2,.68-3,3.26-2.11,5.87s3.14,4.13,5.19,3.46,3-3.25,2.1-5.86S112.24,72.1,110.2,72.77Zm10.23,9.75c-2,.67-3,3.25-2.11,5.86s3.13,4.13,5.18,3.46,3-3.24,2.12-5.86S122.47,81.84,120.43,82.52Zm2.89-14.07c-2,.67-3,3.25-2.11,5.86s3.14,4.14,5.18,3.46,3-3.25,2.12-5.86S125.37,67.77,123.32,68.45Zm7.41,22.44c-2,.68-3,3.24-2.12,5.86s3.14,4.13,5.18,3.46,3-3.25,2.12-5.86S132.77,90.22,130.73,90.89Zm16.49-31.75c2.05-.68,3-3.25,2.11-5.86s-3.13-4.15-5.18-3.46-3,3.24-2.11,5.86S145.18,59.81,147.22,59.14Zm14.85-4.9c2.05-.68,3-3.24,2.1-5.86S161,44.24,159,44.92s-3,3.25-2.1,5.87S160,54.91,162.07,54.24Zm-19.4,45.82c-2,.67-3,3.25-2.1,5.86s3.13,4.14,5.18,3.46,3-3.25,2.11-5.86S144.72,99.38,142.67,100.06ZM116.1,69.4c2.05-.67,3-3.25,2.11-5.86s-3.14-4.14-5.19-3.46-3,3.25-2.1,5.87S114.05,70.07,116.1,69.4Zm38.52,12.17c2-.67,3-3.24,2.12-5.86s-3.15-4.14-5.2-3.46-3,3.26-2.1,5.87S152.58,82.25,154.62,81.57ZM166.4,67.36c-2.05.67-3,3.25-2.12,5.86s3.14,4.13,5.19,3.46,3-3.24,2.11-5.86S168.44,66.68,166.4,67.36Zm-4.56,13.26c-2,.68-3,3.25-2.1,5.86s3.13,4.14,5.18,3.46,3-3.25,2.11-5.86S163.89,80,161.84,80.62Zm-7.4-22.44c-2,.68-3,3.25-2.11,5.86s3.15,4.14,5.18,3.46,3-3.25,2.12-5.86S156.49,57.51,154.44,58.18ZM159,94.69c-2,.67-3,3.25-2.11,5.87S160,104.69,162,104s3-3.26,2.12-5.87S161,94,159,94.69Zm10.16-41.34c-2.05.67-3,3.25-2.11,5.86s3.14,4.13,5.18,3.46,3-3.25,2.11-5.87S171.16,52.67,169.11,53.35Zm-41.23,1.83c-2,.68-3,3.25-2.12,5.87s3.14,4.13,5.19,3.46,3-3.25,2.11-5.86S129.92,54.5,127.88,55.18ZM154.4,108c-2,.67-3,3.24-2.11,5.86s3.14,4.13,5.19,3.46,3-3.26,2.1-5.86S156.44,107.28,154.4,108ZM135.27,77.62c-2.05.67-3,3.26-2.11,5.87s3.14,4.12,5.19,3.45,3-3.24,2.11-5.86S137.32,76.94,135.27,77.62Zm4.33-14.54c-2,.68-3,3.25-2.11,5.86s3.14,4.14,5.19,3.46,3-3.25,2.1-5.86S141.64,62.41,139.6,63.08ZM147,85.52c-2,.68-3,3.25-2.11,5.86s3.15,4.13,5.19,3.46,3-3.25,2.1-5.86S149.05,84.85,147,85.52Z"/><path class="cls-12" d="M116.34,64.16c.5,1.53.12,3-.86,3.37s-2.18-.67-2.68-2.2-.13-3.06.85-3.37S115.83,62.62,116.34,64.16Z"/><path class="cls-12" d="M131.18,59.26c.51,1.53.13,3.05-.85,3.37s-2.19-.66-2.69-2.2-.13-3,.85-3.37S130.67,57.72,131.18,59.26Z"/><path class="cls-12" d="M147.46,53.89c.5,1.53.13,3-.86,3.37s-2.18-.66-2.69-2.2-.11-3.05.85-3.37S147,52.36,147.46,53.89Z"/><path class="cls-12" d="M162.3,49c.5,1.53.13,3-.85,3.36s-2.18-.66-2.69-2.19-.13-3.05.86-3.37S161.79,47.46,162.3,49Z"/><path class="cls-12" d="M113.5,76.85c.51,1.54.13,3.05-.85,3.37s-2.18-.66-2.69-2.2-.12-3,.86-3.36S113,75.32,113.5,76.85Z"/><path class="cls-12" d="M126.63,72.52c.51,1.54.12,3-.85,3.37s-2.18-.67-2.69-2.2-.12-3,.85-3.36S126.12,71,126.63,72.52Z"/><path class="cls-12" d="M142.9,67.15c.51,1.54.13,3-.84,3.37s-2.19-.66-2.69-2.2-.13-3,.85-3.36S142.4,65.62,142.9,67.15Z"/><path class="cls-12" d="M157.75,62.26c.5,1.54.13,3-.86,3.37s-2.17-.67-2.68-2.21-.13-3,.85-3.36S157.24,60.72,157.75,62.26Z"/><path class="cls-12" d="M172.41,57.42c.52,1.54.14,3-.85,3.37s-2.17-.66-2.68-2.21-.12-3,.85-3.36S171.91,55.88,172.41,57.42Z"/><path class="cls-12" d="M123.74,86.6c.5,1.53.12,3-.86,3.36s-2.18-.66-2.68-2.2-.13-3,.85-3.36S123.23,85.06,123.74,86.6Z"/><path class="cls-12" d="M138.58,81.7c.51,1.54.13,3-.85,3.37s-2.18-.66-2.69-2.2-.12-3.05.85-3.37S138.08,80.16,138.58,81.7Z"/><path class="cls-12" d="M154.86,76.33c.5,1.54.12,3-.86,3.37s-2.17-.66-2.68-2.2-.13-3,.85-3.36S154.35,74.79,154.86,76.33Z"/><path class="cls-12" d="M169.7,71.43c.5,1.54.13,3-.85,3.37s-2.18-.66-2.68-2.2-.13-3,.84-3.36S169.19,69.9,169.7,71.43Z"/><path class="cls-12" d="M134,95c.51,1.54.13,3.05-.86,3.37s-2.17-.66-2.67-2.2-.13-3,.84-3.36S133.53,93.43,134,95Z"/><path class="cls-12" d="M150.31,89.59c.51,1.54.12,3.06-.85,3.37s-2.18-.67-2.69-2.19-.12-3,.85-3.37S149.8,88.06,150.31,89.59Z"/><path class="cls-12" d="M165.16,84.7c.5,1.53.12,3-.86,3.37s-2.18-.67-2.68-2.2-.13-3.05.84-3.37S164.64,83.16,165.16,84.7Z"/><path class="cls-12" d="M146,104.14c.5,1.53.13,3-.85,3.37s-2.18-.67-2.69-2.21-.13-3,.85-3.37S145.47,102.6,146,104.14Z"/><path class="cls-12" d="M162.26,98.77c.5,1.53.12,3-.85,3.37s-2.19-.67-2.69-2.21-.13-3,.85-3.37S161.75,97.23,162.26,98.77Z"/><path class="cls-12" d="M157.71,112c.5,1.53.12,3-.85,3.37s-2.19-.66-2.69-2.2-.13-3,.86-3.37S157.2,110.5,157.71,112Z"/><path class="cls-17" d="M121.8,65.19c-1.32,4.15-3.19,7.39-6.16,6.54s-4.3-4.92-3-9.07,4.8-6.8,7.76-5.95S123.13,61.05,121.8,65.19Z"/><path class="cls-37" d="M146.26,64.11c-11.48,1.14-22.31,9.13-28,20.49-2.31,4.6-2.48,10.4,0,16.79a8.32,8.32,0,0,0,2.09,2.84c5.24,4.08,10.36,5.14,16.56,9.78,4.79,3.6,11.09,10,21.82,6.87,10.5-3.83,11.73-12.76,13.44-18.5,3-10.16,8.48-15.54,9.88-26.3.09-.71-.75-1.79-1.47-2.67C172.32,63.66,159.74,62.76,146.26,64.11Z"/><path class="cls-38" d="M179.48,85.86c-4-13.3-26.91-11.46-38.48-7.69-12.46,4-21.79,12.88-17.35,26.37,1.44,4.37,5.64,7.1,4.19,2.69-3.61-11,8.31-20.45,17.92-22.94,7.4-1.91,26-3.56,30.6,4.37C178.68,92.66,180.55,89.41,179.48,85.86Z"/><path class="cls-39" d="M153.37,89.59c-13.07,2.7-17.68,11.59-15.2,24.23.9,4.53,5.34,6.5,4.46,2-1.42-7.21,1.78-14.74,8.55-18,6.95-3.33,22.06.06,18.44,10.16-1.57,4.36,2.57,4.9,4.13.57C178.59,95.05,165.46,87.09,153.37,89.59Z"/><path class="cls-8" d="M93.46,116.7c6.3,1.29,13.85,5.36,13.23,8.35s-9.15,3.76-15.45,2.46S81,119.77,81,119.77,87.18,115.4,93.46,116.7Z"/><path class="cls-9" d="M88.17,128.91c5.57-2.54,13.5-3.91,14.49-1.58s-5.32,7.48-10.88,10-11.89.41-11.89.41S82.6,131.47,88.17,128.91Z"/><path class="cls-8" d="M90,137.24c3.46-3.54,9-6.9,10.4-5.46s-1.88,7.1-5.34,10.63-8.79,3.81-8.79,3.81S86.56,140.77,90,137.24Z"/><path class="cls-9" d="M91.19,114.2c4.12,4.53,10.87,8.92,12.69,7.15s-1.94-9-6-13.5-10.76-5-10.76-5S87.08,109.65,91.19,114.2Z"/><path class="cls-8" d="M96.17,107.27c1.79,4.62,5.56,9.89,7.41,9.12s1.06-7.27-.72-11.88-6.58-7-6.58-7S94.38,102.67,96.17,107.27Z"/><path class="cls-40" d="M119.46,92.49c-9.5,3.55-14.52,12.62-16.57,22.59l-1.8,8.82-1.81,8.81c-2,10-1,20.28,6.32,27.29s17,8.93,26.14,7.2c13.13-2.48,18.47-7.37,29.3-12,5.51-2.36,14.23-4.62,16.81-15.5,1.92-11-5.21-16.53-9.35-20.87-8.11-8.56-11.09-15.16-22.18-22.61C138.55,91,129,88.94,119.46,92.49Z"/><path class="cls-41" d="M112,157.8c-.43,2.11,1.34,4.19,4,4.74s5.16-.66,5.58-2.77-1.34-4.2-4-4.74S112.41,155.69,112,157.8Zm13.54-4c-.44,2.11,1.35,4.2,4,4.75s5.14-.66,5.57-2.77-1.33-4.2-4-4.75S126,151.66,125.52,153.77Zm-10.76-9.51c-.43,2.11,1.34,4.19,4,4.74s5.15-.66,5.58-2.77-1.34-4.2-4-4.75S115.19,142.15,114.76,144.26ZM137.91,149c-.43,2.11,1.34,4.19,4,4.75s5.15-.67,5.58-2.78-1.34-4.19-4-4.75S138.34,146.9,137.91,149ZM118.58,118.9c.43-2.12-1.34-4.21-4-4.76s-5.15.67-5.58,2.78,1.33,4.2,4,4.75S118.15,121,118.58,118.9Zm3.14-15.32c.44-2.11-1.33-4.19-4-4.74s-5.14.66-5.57,2.77,1.33,4.19,4,4.75S121.29,105.69,121.72,103.58Zm30.08,39.63c-.43,2.11,1.35,4.19,4,4.75s5.15-.66,5.59-2.77-1.35-4.2-4-4.76S152.24,141.1,151.8,143.21ZM112,151c.44-2.12-1.34-4.2-4-4.75s-5.15.66-5.58,2.77,1.34,4.19,4,4.75S111.56,153.1,112,151Zm29.73-27.36c.43-2.11-1.33-4.19-4-4.75s-5.15.67-5.58,2.78,1.34,4.2,4,4.75S141.29,125.76,141.72,123.64Zm-6.47-17.28c-.43,2.11,1.34,4.19,4,4.75s5.14-.67,5.57-2.78-1.32-4.19-4-4.74S135.68,104.25,135.25,106.36Zm9.25,10.55c-.44,2.11,1.33,4.19,4,4.75s5.14-.67,5.58-2.78-1.34-4.19-4-4.75S144.93,114.8,144.5,116.91Zm-23.15-4.75c-.44,2.11,1.33,4.19,4,4.75s5.15-.67,5.58-2.78-1.34-4.19-4-4.75S121.78,110.05,121.35,112.16Zm33.9,14.26c-.43,2.11,1.34,4.2,4,4.75s5.15-.66,5.58-2.77-1.34-4.2-4-4.76S155.69,124.31,155.25,126.42ZM124.45,97c-.44,2.11,1.34,4.19,4,4.75s5.14-.67,5.58-2.77-1.34-4.2-4-4.76S124.89,94.91,124.45,97Zm-18.93,36.68c-.44,2.11,1.33,4.2,4,4.75s5.14-.67,5.58-2.78-1.34-4.2-4-4.74S106,131.6,105.52,133.71Zm59,3.26c-.44,2.11,1.33,4.19,4,4.75s5.15-.67,5.58-2.78-1.35-4.19-4-4.74S164.92,134.86,164.5,137Zm-35.84,1.49c-.43,2.11,1.34,4.2,4,4.75s5.14-.66,5.58-2.78-1.34-4.19-4-4.75S129.1,136.35,128.66,138.46Zm-10.46-11c-.43,2.1,1.34,4.2,4,4.75s5.14-.67,5.58-2.78-1.34-4.19-4-4.74S118.64,125.36,118.2,127.47Zm23.15,4.75c-.43,2.11,1.34,4.2,4,4.75s5.14-.67,5.57-2.78-1.33-4.19-4-4.74S141.79,130.11,141.35,132.22Z"/><path class="cls-12" d="M107.56,148.18c1.58.33,2.7,1.41,2.5,2.42s-1.67,1.56-3.25,1.23-2.7-1.4-2.5-2.41S106,147.86,107.56,148.18Z"/><path class="cls-12" d="M110.7,132.87c1.59.33,2.71,1.41,2.51,2.42s-1.67,1.56-3.25,1.23-2.71-1.4-2.5-2.41S109.11,132.54,110.7,132.87Z"/><path class="cls-12" d="M114.15,116.08c1.58.33,2.71,1.41,2.49,2.42s-1.66,1.56-3.24,1.23-2.71-1.41-2.5-2.41S112.56,115.75,114.15,116.08Z"/><path class="cls-12" d="M117.29,100.78c1.58.32,2.71,1.39,2.5,2.4s-1.66,1.56-3.25,1.24S113.84,103,114,102,115.71,100.45,117.29,100.78Z"/><path class="cls-12" d="M117.16,157c1.59.33,2.71,1.41,2.5,2.41s-1.66,1.56-3.25,1.24-2.7-1.41-2.49-2.42S115.57,156.63,117.16,157Z"/><path class="cls-12" d="M119.94,143.42c1.58.33,2.71,1.41,2.5,2.42s-1.66,1.56-3.25,1.23-2.7-1.41-2.5-2.41S118.35,143.09,119.94,143.42Z"/><path class="cls-12" d="M123.38,126.63c1.59.33,2.71,1.41,2.5,2.41s-1.65,1.57-3.25,1.24-2.69-1.41-2.49-2.42S121.8,126.3,123.38,126.63Z"/><path class="cls-12" d="M126.53,111.32c1.59.32,2.7,1.4,2.5,2.42s-1.67,1.55-3.25,1.23-2.7-1.41-2.49-2.41S124.94,111,126.53,111.32Z"/><path class="cls-12" d="M129.63,96.19c1.59.33,2.71,1.41,2.5,2.42s-1.66,1.56-3.24,1.22-2.71-1.4-2.5-2.4S128,95.87,129.63,96.19Z"/><path class="cls-12" d="M130.71,152.94c1.58.32,2.7,1.4,2.49,2.41s-1.66,1.56-3.25,1.23-2.69-1.4-2.49-2.41S129.12,152.6,130.71,152.94Z"/><path class="cls-12" d="M133.85,137.62c1.59.33,2.69,1.4,2.49,2.41s-1.65,1.57-3.24,1.25-2.7-1.41-2.49-2.42S132.26,137.29,133.85,137.62Z"/><path class="cls-12" d="M137.3,120.84c1.58.32,2.69,1.4,2.49,2.41s-1.66,1.56-3.25,1.24-2.7-1.41-2.49-2.42S135.7,120.51,137.3,120.84Z"/><path class="cls-12" d="M140.43,105.53c1.59.32,2.71,1.39,2.49,2.4s-1.64,1.56-3.23,1.24-2.7-1.4-2.5-2.41S138.85,105.2,140.43,105.53Z"/><path class="cls-12" d="M143.09,148.17c1.58.32,2.71,1.41,2.5,2.42s-1.67,1.55-3.26,1.23-2.7-1.41-2.49-2.41S141.5,147.85,143.09,148.17Z"/><path class="cls-12" d="M146.53,131.39c1.59.32,2.71,1.4,2.5,2.4s-1.66,1.57-3.25,1.24-2.7-1.41-2.5-2.42S145,131.06,146.53,131.39Z"/><path class="cls-12" d="M149.68,116.07c1.58.32,2.7,1.4,2.5,2.42s-1.67,1.55-3.25,1.23-2.71-1.41-2.5-2.41S148.09,115.75,149.68,116.07Z"/><path class="cls-12" d="M157,142.37c1.58.32,2.7,1.41,2.5,2.42s-1.67,1.56-3.25,1.23-2.7-1.4-2.5-2.41S155.41,142.05,157,142.37Z"/><path class="cls-12" d="M160.44,125.58c1.58.33,2.7,1.4,2.5,2.42s-1.67,1.56-3.25,1.23-2.71-1.4-2.5-2.41S158.85,125.26,160.44,125.58Z"/><path class="cls-12" d="M169.68,136.13c1.58.33,2.7,1.41,2.49,2.41s-1.66,1.56-3.25,1.24-2.7-1.41-2.49-2.41S168.09,135.81,169.68,136.13Z"/><path class="cls-17" d="M123.23,108.07c-3.25,2.89-6.51,4.72-8.63,2.47s-1.18-6.42,2.07-9.32,7.61-3.39,9.72-1.14S126.49,105.18,123.23,108.07Z"/><path class="cls-42" d="M122.41,122.21c-4.72,10.52-3.18,23.89,3.82,34.5,2.84,4.3,7.79,7.33,14.58,8.34a8.4,8.4,0,0,0,3.51-.4c6.14-2.51,9.6-6.43,16.72-9.5,5.51-2.36,14.23-4.62,16.81-15.5,1.92-11-5.21-16.53-9.35-20.87-7.3-7.69-9.26-15.08-17.89-21.66-.57-.43-1.93-.24-3.05-.05C135,99.38,128,109.84,122.41,122.21Z"/><path class="cls-43" d="M157.81,104.21c-13.52-3.14-23.33,17.64-25.82,29.56-2.68,12.82.33,25.3,14.23,28.17,4.51.93,9-1.36,4.43-2.3-11.31-2.32-13.61-17.38-11-27,2-7.37,9.85-24.3,19-24.36C163.32,108.29,161.43,105.06,157.81,104.21Z"/><path class="cls-44" d="M148.06,128.72c-4.17,12.68,1.25,21.1,13.44,25.24,4.38,1.49,8.3-1.4,3.93-2.88-7-2.36-11.89-8.87-11.33-16.36.57-7.69,11-19.1,18-10.94,3,3.53,5.53.2,2.55-3.29C165.34,109.57,151.91,117,148.06,128.72Z"/><path class="cls-3" d="M52.78,148.62a90.16,90.16,0,0,1,21,2.36c.49-.22,1-.45,1.53-.66,4-1.52,8.65-1.34,9.89-6.27,2.24,3.18,5.35,8.89,3.23,13.3,2.47,2,3.9,4.24,3.9,6.6,0,8.48-17.71,15.34-39.56,15.34S13.22,172.43,13.22,164,30.94,148.62,52.78,148.62Z"/><path class="cls-3" d="M90,169.13c-9.35,9.33-26.39,12.41-51.74,9.22-4.7-10,13.68-11.5,19.57-9.4,13.73,4.89,15.8-4.8,17.12-4.53,8.6,1.84,8-5.24,9.75-6.68,5.09-4.13,3.18-9.9.52-13.69,0-.13.07-.28.1-.42.15.1,12.49,2.84,6.14,17.24l0,.07C92.65,164,93.75,166.5,90,169.13Z"/><path class="cls-45" d="M28.65,175.72c-3.38-9.22,4.14-7.9,9-11.11,2.09-1.36,12.51-1.53,16.79-3.1,6-2.2,4.28-5,12.27-4.78,2.35.05,4.31,1.45,8.38-.48s3.33-3.65,4.79-5.55c1.66-2.15,4.52-1.6,5.29-6.65a18.4,18.4,0,0,0,.31-5.7c-1.09-5.49-9.07-9.53-10.11-10A11.17,11.17,0,0,1,74,133.72a8.06,8.06,0,0,1-.79,1.08,8.19,8.19,0,0,1-4.55,2.57c-.61.14-1.18.22-1.74.3-4.31-.89-19.57,0-32.31,12.51-12.19,1.93-15.73,11.66-18.21,19.33C19.77,173.11,24,174.86,28.65,175.72Z"/><path class="cls-3" d="M68.68,137.37c-.61.14,1.46,12.15-13.92,10.17-4.42-.56-2,9.6-14.81,7.86-11.09-1.5-10.38,1.67-14.26,3.35-8.32,3.61-8.89,8.55-8.89,8.55-2.49,0-3.45-1.59-4.21-4a3.43,3.43,0,0,1-.14-.68c-.28-2.5,3.92-7.64,3.92-7.64l0-.15c5.43-8.14,12.16-12.07,19.19-14.68,2.4-.9,5.88,1.79,7.94-.12s2.61-8.19,14-9c3-.21,8-3.23,4.71-8.9-2.94-5.08,2.34-5.68-.89-12-1.69-3.31.35-8.92-3.11-11.21h.07s5.68,2.55,7.45,5.88,1.37,7.25,2.94,9.79,5.49,4.9,6.26,8.82S76.51,135.6,68.68,137.37Z"/><path class="cls-45" d="M18.17,144a2.68,2.68,0,0,1,.78-.66,6.64,6.64,0,0,0,3.26-5.93,9.86,9.86,0,0,1,0-1.64c.4-3.52,4.17-5.14,8.67-6.32s6.14-4.79,7.91-7.34,6.92-2,10.44-4.37c8.89-5.93,7.79-13.78,7.46-14.69C55.35,99.17,58.29,99,58.29,99h-.07c3.46,2.29,1.42,7.9,3.11,11.21,3.23,6.31-2,6.91.89,12,3.26,5.67-1.76,8.69-4.71,8.9-11.43.78-3,5.46-9,9.83-2.4,1.78-11-.64-12.56,1.61-2.82,4.14-5.36,3.75-7.9,4.52-4.53,1.37-8.34,2.71-11.75,7.81,0-.12-.05-.34-.1-.6C14.4,149.39,16.42,146.38,18.17,144Z"/><path class="cls-5" d="M115,164.54a98.48,98.48,0,0,1,23.1,2.59c.53-.25,1.07-.49,1.67-.73,4.43-1.67,9.52-1.48,10.88-6.89,2.46,3.5,5.89,9.77,3.56,14.61,2.71,2.21,4.28,4.67,4.28,7.27,0,9.32-19.47,16.86-43.49,16.86s-43.49-7.54-43.49-16.86S90.93,164.54,115,164.54Z"/><path class="cls-5" d="M155.85,187.08c-10.28,10.26-29,13.65-56.88,10.14-5.17-11,15-12.65,21.52-10.35,15.09,5.38,17.38-5.27,18.82-5,9.46,2,8.76-5.77,10.73-7.36,5.58-4.54,3.48-10.88.56-15q.06-.22.12-.48c.16.12,13.72,3.13,6.73,19l.05.09C158.78,181.38,160,184.18,155.85,187.08Z"/><path class="cls-6" d="M88.42,194.32c-3.72-10.14,4.56-8.69,9.93-12.21,2.31-1.5,13.76-1.67,18.46-3.41,6.57-2.41,4.71-5.48,13.5-5.26,2.59.07,4.74,1.61,9.2-.52s3.67-4,5.28-6.1c1.82-2.36,5-1.76,5.81-7.31a20.62,20.62,0,0,0,.35-6.27c-1.21-6-10-10.48-11.13-11a12.13,12.13,0,0,1-1.52,5.94,8.31,8.31,0,0,1-.87,1.2,9,9,0,0,1-5,2.82c-.67.15-1.3.25-1.9.33-4.74-1-21.52-.06-35.53,13.75-13.41,2.14-17.29,12.83-20,21.26C78.65,191.46,83.3,193.37,88.42,194.32Z"/><path class="cls-5" d="M132.42,152.16c-.67.15,1.61,13.36-15.3,11.18-4.86-.62-2.17,10.55-16.28,8.64-12.19-1.65-11.42,1.84-15.68,3.68-9.15,4-9.77,9.4-9.77,9.4-2.75,0-3.79-1.74-4.62-4.36a3.6,3.6,0,0,1-.17-.76c-.31-2.74,4.31-8.4,4.31-8.4l0-.16c6-8.95,13.37-13.27,21.09-16.14,2.65-1,6.48,2,8.74-.13s2.87-9,15.44-9.87c3.25-.22,8.77-3.55,5.17-9.78-3.22-5.58,2.58-6.24-1-13.18-1.86-3.64.39-9.82-3.42-12.32l.07,0s6.25,2.8,8.2,6.47,1.5,8,3.22,10.76,6,5.39,6.9,9.7S141,150.22,132.42,152.16Z"/><path class="cls-6" d="M76.89,159.48a3.26,3.26,0,0,1,.86-.72,7.28,7.28,0,0,0,3.59-6.52,10.69,10.69,0,0,1,0-1.8c.43-3.88,4.58-5.66,9.54-6.95s6.75-5.27,8.69-8.07,7.61-2.23,11.47-4.81c9.78-6.52,8.56-15.14,8.21-16.15-1.5-4.3,1.72-4.52,1.72-4.52l-.07,0c3.81,2.5,1.56,8.68,3.42,12.32,3.55,6.94-2.25,7.6,1,13.18,3.6,6.23-1.92,9.56-5.17,9.78-12.57.87-3.34,6-9.85,10.81-2.65,1.95-12.12-.69-13.81,1.77-3.1,4.56-5.89,4.12-8.69,5-5,1.5-9.18,3-12.92,8.59,0-.13-.06-.37-.1-.67C72.75,165.37,75,162.06,76.89,159.48Z"/><path class="cls-3" d="M326.27,153.9A93,93,0,0,1,348,156.33c.5-.23,1-.46,1.58-.67,4.16-1.58,8.93-1.4,10.21-6.48,2.31,3.28,5.53,9.17,3.34,13.73,2.56,2.07,4,4.38,4,6.82,0,8.75-18.29,15.84-40.85,15.84s-40.85-7.09-40.85-15.84S303.71,153.9,326.27,153.9Z"/><path class="cls-3" d="M364.69,175.07c-9.66,9.64-27.26,12.83-53.43,9.53-4.86-10.3,14.13-11.88,20.2-9.72,14.19,5.05,16.33-4.95,17.68-4.66,8.9,1.89,8.24-5.42,10.08-6.92,5.25-4.26,3.28-10.21.53-14.12,0-.15.08-.3.11-.44.15.1,12.89,2.93,6.33,17.8,0,0,0,.05,0,.08C367.44,169.72,368.57,172.36,364.69,175.07Z"/><path class="cls-45" d="M301.35,181.87c-3.5-9.51,4.28-8.15,9.32-11.46,2.16-1.41,12.93-1.58,17.34-3.2,6.17-2.27,4.43-5.15,12.68-5,2.43.07,4.45,1.51,8.65-.48s3.45-3.78,5-5.74c1.71-2.21,4.67-1.65,5.46-6.86a19.42,19.42,0,0,0,.33-5.9c-1.14-5.66-9.37-9.83-10.45-10.36a11.29,11.29,0,0,1-1.44,5.58,7.31,7.31,0,0,1-.81,1.13,8.54,8.54,0,0,1-4.7,2.64c-.63.14-1.22.23-1.8.31-4.44-.91-20.21-.05-33.37,12.92-12.58,2-16.24,12.05-18.79,20C292.17,179.19,296.54,181,301.35,181.87Z"/><path class="cls-3" d="M342.68,142.27c-.63.14,1.51,12.55-14.38,10.51-4.56-.59-2,9.91-15.3,8.11-11.44-1.55-10.72,1.73-14.71,3.46-8.6,3.73-9.18,8.83-9.18,8.83-2.58,0-3.57-1.64-4.35-4.1a3.14,3.14,0,0,1-.15-.7c-.29-2.59,4-7.9,4-7.9l0-.15c5.6-8.41,12.55-12.47,19.81-15.16,2.48-.93,6.08,1.85,8.21-.13s2.7-8.45,14.5-9.27c3.05-.21,8.23-3.33,4.85-9.19-3-5.24,2.42-5.86-.91-12.38-1.75-3.42.36-9.21-3.21-11.57l.07,0s5.87,2.64,7.69,6.08,1.42,7.48,3,10.11,5.66,5.07,6.47,9.11S350.77,140.45,342.68,142.27Z"/><path class="cls-45" d="M290.51,149.15a3.14,3.14,0,0,1,.8-.68,6.85,6.85,0,0,0,3.39-6.12,9.44,9.44,0,0,1,0-1.69c.41-3.64,4.3-5.32,9-6.53s6.34-4.95,8.16-7.58,7.15-2.09,10.78-4.52c9.19-6.12,8-14.22,7.72-15.16-1.42-4.05,1.61-4.26,1.61-4.26l-.07,0c3.57,2.36,1.46,8.15,3.21,11.57,3.33,6.52-2.11,7.14.91,12.38,3.38,5.86-1.8,9-4.85,9.19-11.8.82-3.14,5.65-9.26,10.16-2.47,1.83-11.38-.65-13,1.66-2.91,4.28-5.54,3.87-8.15,4.66-4.68,1.42-8.63,2.8-12.14,8.08,0-.13-.06-.35-.1-.63C286.63,154.69,288.72,151.57,290.51,149.15Z"/><path class="cls-5" d="M265.9,165.44A98.46,98.46,0,0,1,289,168c.53-.25,1.07-.5,1.68-.73,4.43-1.68,9.51-1.48,10.88-6.89,2.45,3.5,5.88,9.76,3.55,14.61,2.72,2.21,4.28,4.66,4.28,7.27,0,9.31-19.46,16.86-43.48,16.86s-43.5-7.55-43.5-16.86S241.87,165.44,265.9,165.44Z"/><path class="cls-5" d="M306.79,188c-10.28,10.26-29,13.65-56.88,10.14-5.16-11,15-12.65,21.52-10.35,15.1,5.38,17.38-5.27,18.82-5,9.46,2,8.76-5.77,10.73-7.36,5.58-4.54,3.49-10.88.57-15,0-.15.07-.32.11-.48.16.11,13.72,3.13,6.74,19l0,.09C309.72,182.28,310.94,185.08,306.79,188Z"/><path class="cls-6" d="M239.36,195.22c-3.72-10.14,4.56-8.69,9.93-12.21,2.31-1.5,13.76-1.68,18.46-3.41,6.57-2.41,4.71-5.48,13.5-5.26,2.59.07,4.74,1.6,9.2-.52s3.68-4,5.28-6.1c1.82-2.36,5-1.76,5.82-7.31a20.92,20.92,0,0,0,.34-6.27c-1.21-6-10-10.48-11.13-11a11.92,11.92,0,0,1-1.52,5.94,8.31,8.31,0,0,1-.87,1.2,8.94,8.94,0,0,1-5,2.81,16.68,16.68,0,0,1-1.91.33c-4.74-1-21.52,0-35.53,13.76-13.41,2.14-17.29,12.83-20,21.26C229.59,192.36,234.25,194.27,239.36,195.22Z"/><path class="cls-5" d="M283.37,153.05c-.68.16,1.6,13.37-15.31,11.19-4.85-.62-2.16,10.55-16.28,8.64-12.19-1.65-11.41,1.83-15.68,3.68-9.15,4-9.77,9.4-9.77,9.4-2.75,0-3.79-1.74-4.62-4.37a4.05,4.05,0,0,1-.17-.75c-.31-2.74,4.31-8.4,4.31-8.4l0-.16c6-8.95,13.37-13.27,21.1-16.14,2.64-1,6.47,2,8.73-.13s2.87-9,15.44-9.87c3.25-.22,8.77-3.55,5.17-9.78-3.22-5.58,2.58-6.25-1-13.19-1.86-3.63.39-9.81-3.42-12.32h.07s6.25,2.8,8.2,6.47,1.5,8,3.23,10.76,6,5.39,6.89,9.7S292,151.12,283.37,153.05Z"/><path class="cls-6" d="M227.83,160.37a3.45,3.45,0,0,1,.86-.71,7.28,7.28,0,0,0,3.59-6.52,12,12,0,0,1,0-1.81c.43-3.87,4.58-5.65,9.54-6.94s6.75-5.27,8.69-8.07,7.61-2.23,11.47-4.81c9.78-6.52,8.57-15.15,8.22-16.15-1.51-4.3,1.71-4.52,1.71-4.52h-.07c3.81,2.51,1.56,8.69,3.42,12.32,3.55,6.94-2.25,7.61,1,13.19,3.6,6.23-1.92,9.56-5.17,9.78-12.57.87-3.34,6-9.85,10.81-2.65,2-12.12-.7-13.81,1.77-3.1,4.55-5.89,4.12-8.69,5-5,1.5-9.18,3-12.92,8.59,0-.13,0-.37-.1-.67C223.7,166.27,225.92,163,227.83,160.37Z"/><path class="cls-3" d="M194.66,173.23a99.53,99.53,0,0,1,23.09,2.59c.53-.24,1.07-.49,1.67-.71,4.44-1.69,9.53-1.48,10.89-6.89,2.45,3.48,5.87,9.76,3.54,14.61,2.73,2.2,4.3,4.66,4.3,7.26,0,9.31-19.47,16.86-43.49,16.86s-43.49-7.55-43.49-16.86S170.64,173.23,194.66,173.23Z"/><path class="cls-3" d="M235.56,195.78c-10.28,10.26-29,13.65-56.89,10.14-5.17-11,15.05-12.65,21.52-10.34,15.1,5.37,17.38-5.28,18.82-5,9.47,2,8.76-5.77,10.73-7.36,5.59-4.53,3.49-10.88.57-15,0-.17.07-.33.11-.48.16.11,13.72,3.13,6.75,18.95,0,0,0,.06,0,.08C238.48,190.08,239.69,192.89,235.56,195.78Z"/><path class="cls-45" d="M168.13,203c-3.73-10.13,4.55-8.69,9.93-12.2,2.3-1.5,13.75-1.69,18.46-3.41,6.56-2.43,4.7-5.49,13.49-5.27,2.59.07,4.74,1.61,9.21-.52s3.67-4,5.27-6.1c1.82-2.36,5-1.76,5.82-7.3a20.66,20.66,0,0,0,.34-6.28c-1.21-6-10-10.48-11.12-11a12.13,12.13,0,0,1-1.53,5.93,7.8,7.8,0,0,1-.87,1.2,9,9,0,0,1-5,2.82c-.68.15-1.31.25-1.91.33-4.74-1-21.52-.06-35.53,13.75-13.4,2.13-17.29,12.82-20,21.25C158.35,200.16,163,202.08,168.13,203Z"/><path class="cls-3" d="M212.13,160.86c-.68.15,1.61,13.36-15.3,11.19-4.87-.63-2.17,10.55-16.3,8.63-12.17-1.65-11.41,1.84-15.66,3.69-9.16,4-9.77,9.4-9.77,9.4-2.76,0-3.8-1.75-4.63-4.37a4.45,4.45,0,0,1-.17-.75c-.31-2.75,4.31-8.4,4.31-8.4l0-.17c6-9,13.36-13.28,21.09-16.14,2.64-1,6.47,2,8.74-.13s2.87-9,15.43-9.86c3.25-.23,8.77-3.56,5.17-9.79-3.22-5.59,2.58-6.24-1-13.18-1.86-3.64.39-9.81-3.43-12.33h.09s6.25,2.81,8.18,6.46,1.51,8,3.24,10.78,6,5.38,6.89,9.69S220.74,158.92,212.13,160.86Z"/><path class="cls-45" d="M156.59,168.18a3.26,3.26,0,0,1,.86-.72,7.27,7.27,0,0,0,3.59-6.52,10.63,10.63,0,0,1,0-1.8c.42-3.88,4.57-5.67,9.53-6.95s6.75-5.27,8.69-8.07,7.61-2.23,11.48-4.81c9.77-6.51,8.56-15.15,8.21-16.14-1.51-4.31,1.72-4.53,1.72-4.53h-.09c3.82,2.52,1.57,8.69,3.43,12.33,3.55,6.94-2.25,7.59,1,13.18,3.6,6.23-1.92,9.56-5.17,9.79-12.56.86-3.33,6-9.85,10.8-2.64,2-12.12-.7-13.8,1.77-3.11,4.55-5.9,4.12-8.69,5-5,1.51-9.18,3-12.92,8.59,0-.14-.06-.37-.1-.66C152.46,174.08,154.68,170.76,156.59,168.18Z"/><g class="cls-46"><path class="cls-1" d="M16.24,154.25c.05.26.08.48.1.6l0,.15a29.5,29.5,0,0,0-3.2,4.93,3.47,3.47,0,0,0,1.57,2.13,3.58,3.58,0,0,0,2.91.34,7.6,7.6,0,0,1,4.61.12l7.8,2.38a15.57,15.57,0,0,1,9.05,8.24,3.59,3.59,0,0,0,5.6,1.18A7.07,7.07,0,0,1,51,173l9.22,2a12.79,12.79,0,0,1,6.32,3.82c1.47-.19,3-.34,4.33-.61a4.39,4.39,0,0,0-.28,1.69,3.6,3.6,0,0,0,.17.76,11.72,11.72,0,0,0,.87,2.07,7.73,7.73,0,0,0,.71,1.76,3.51,3.51,0,0,0,2.45-.8,7.42,7.42,0,0,1,6.3-1.53l10.66,1.88a12.44,12.44,0,0,1,8.73,6.92,3.57,3.57,0,0,0,3.12,2,3.28,3.28,0,0,0,3.24-1.82,7,7,0,0,1,7.68-3.33l12.1,2a12.27,12.27,0,0,1,8.71,6.86c0,.08.13.12.17.19a52.2,52.2,0,0,0,7.8-2.25,9.16,9.16,0,0,1,5.95-2.8c.59-.34,1.24-.63,1.79-1,.09.2.2.37.3.55a2.13,2.13,0,0,0,.14.35h12a9.27,9.27,0,0,1,8.52,5.64,3.59,3.59,0,0,0,3.2,2.17,3.72,3.72,0,0,0,3.32-2,9.25,9.25,0,0,1,8.29-5.21h15a9.24,9.24,0,0,1,8.22,5.11,3.83,3.83,0,0,0,3.29,2,3.61,3.61,0,0,0,3.2-2.13,9.3,9.3,0,0,1,8.47-5.54h13.54a9.24,9.24,0,0,1,8.19,5.06c.13.24.4.37.59.57.86.16,1.65.36,2.54.5,0,.05,0,.1,0,.17.62.07,1.17.1,1.78.17a3.52,3.52,0,0,0,1.47-1.51,12.29,12.29,0,0,1,8.71-6.86l12.1-2a7,7,0,0,1,7.68,3.33,3.24,3.24,0,0,0,3.24,1.83,3.6,3.6,0,0,0,3.12-2,12.46,12.46,0,0,1,8.74-6.93l10.66-1.87a7.42,7.42,0,0,1,6.3,1.53,3.59,3.59,0,0,0,5.62-1.19,13.64,13.64,0,0,1,8.94-7.5l9.23-2a7.09,7.09,0,0,1,6.3,1.31,3.58,3.58,0,0,0,5.59-1.18,15.59,15.59,0,0,1,9.06-8.24l7.78-2.38a8.28,8.28,0,0,1,1.42-.28,11.81,11.81,0,0,0-.31-7.12,15.9,15.9,0,0,0-3.21.52L356.34,158a22.14,22.14,0,0,0-11.47,8.64A15,15,0,0,0,336,166l-9.22,2a20.35,20.35,0,0,0-11.88,8,15.26,15.26,0,0,0-8.69-.94L295.5,177a19.32,19.32,0,0,0-11.14,6.55,14.75,14.75,0,0,0-11.59-2.75l-12.11,2a19.15,19.15,0,0,0-10.93,6.25,16.28,16.28,0,0,0-11.19-4.45H225a16.44,16.44,0,0,0-11.9,5.12,16.31,16.31,0,0,0-11.28-4.52h-15a16.26,16.26,0,0,0-11.35,4.58,16.48,16.48,0,0,0-12-5.18H150a16.32,16.32,0,0,0-11.2,4.45,19.08,19.08,0,0,0-10.94-6.25l-12.09-2a14.81,14.81,0,0,0-11.6,2.76A19.22,19.22,0,0,0,93,177l-10.66-1.88a15.27,15.27,0,0,0-8.69.94,20.38,20.38,0,0,0-11.88-8l-9.23-2a15,15,0,0,0-8.91.67A22.22,22.22,0,0,0,32.16,158l-7.79-2.38a16.44,16.44,0,0,0-5.11-.72,23.6,23.6,0,0,0-3.3-6.83A8.91,8.91,0,0,0,16.24,154.25Z"/><path class="cls-1" d="M378.41,147.46a15.4,15.4,0,0,0,1.71-1.43c.1-.09.23-.17.33-.27,1.93-1.35,2.44-2.67,2.35-4.06a6.26,6.26,0,0,0-1.51.88l-3,2.38a13,13,0,0,0-3.44,4.77A29.67,29.67,0,0,0,378.41,147.46Z"/></g><path class="cls-47" d="M6.49,322.73C3.4,321.09.91,314.8.91,308.7l.21-153.82c0-6.11,2.52-9.56,5.6-7.7l3.94,2.37c3.07,1.86,5.57,8.31,5.56,14.38L16,316.77c0,6.07-2.53,9.67-5.6,8Z"/><path class="cls-1" d="M8.46,151.34c1.94,1.56,3.49,6.95,3.49,12l-.21,152.9c0,5.1-1.58,8.11-3.51,6.74L5.3,320.93c-1.93-1.37-3.49-6.63-3.48-11.75L2,155.43c0-5.13,1.58-8,3.51-6.46l2.93,2.37Zm2.2-3.57-3.94-2.38c-3.57-2.16-6.5,1.85-6.51,9L0,308.21c0,7.1,2.9,14.41,6.48,16.31l3.93,2.08c3.58,1.89,6.51-2.3,6.51-9.35l.21-152.78c0-7-2.89-14.54-6.47-16.7Z"/><path class="cls-48" d="M3.84,157.08,3.62,316.71c0,.87,2.09,2.74,2.23,3.6-2-1.58-3.52-5.25-3.95-9.2a18.06,18.06,0,0,1-.07-1.94L2,155.42a16.9,16.9,0,0,1,.21-2.8c.44-2.3,1.44-3.81,2.66-4a1.37,1.37,0,0,1,.65.36l2.88,2.37c1.29,1.07,2.44,3.8,3,7l-.94-.58C7.93,156.28,3.84,152,3.84,157.08Z"/><path class="cls-47" d="M383.46,322.75c2.38-1.64,4.34-7.95,4.34-14.05l0-153.81c0-6.11-1.94-9.56-4.33-7.69l-3.06,2.39c-2.38,1.86-4.33,8.32-4.33,14.39l0,152.84c0,6.06,1.93,9.66,4.33,8Z"/><path class="cls-49" d="M383.46,322.75c2.38-1.64,4.34-7.95,4.34-14.05l0-153.81c0-6.11-1.94-9.56-4.33-7.69l-3.06,2.39c-2.38,1.86-4.33,8.32-4.33,14.39l0,152.84c0,6.06,1.93,9.66,4.33,8Z"/><path class="cls-48" d="M387.84,154.88c0-6.1-1.94-9.55-4.33-7.68l-3.06,2.39c-2.38,1.86-4.33,8.32-4.33,14.39C381.27,161.51,385.82,158.77,387.84,154.88Z"/><path class="cls-1" d="M381.88,151.38c-2,1.56-3.64,7-3.64,12.06l0,152.89c0,5.09,1.62,8.11,3.63,6.72l1.63-2.1c2-1.37,3.64-6.64,3.64-11.77l0-153.75c0-5.12-1.23-7-3.24-5.46Zm-1.42-3.58,3.05-2.39c2.78-2.18,6.46,1.83,6.46,8.93l-.05,153.87c0,7.1-3.68,14.42-6.46,16.33l-3,2.09c-2.78,1.9-5-2.28-5-9.33l.05-152.78c0-7,2.25-14.55,5-16.72Z"/><path class="cls-47" d="M23.32,336.49c-6.11-1.65-11.08-7.95-11.08-14.05V168.56c0-6.11,5-9.56,11.08-7.69l7.79,2.38c6.11,1.87,11.08,8.32,11.08,14.39v152.9c0,6.07-5,9.67-11.08,8Z"/><path class="cls-49" d="M31.11,163.25l-7.79-2.38a9.14,9.14,0,0,0-7,.44l7.34,2.24c6.1,1.87,11.07,8.32,11.07,14.39v152.9a8,8,0,0,1-4.37,7.52l.78.21c6.11,1.64,11.08-2,11.08-8V177.64C42.19,171.57,37.22,165.12,31.11,163.25Z"/><path class="cls-1" d="M31.11,165c5.12,1.56,9.28,7,9.28,12.06v153c0,5.1-4.16,8.11-9.28,6.73l-7.79-2.09C18.19,333.31,14,328,14,322.92V169.11c0-5.13,4.15-8,9.28-6.45L31.11,165Zm0-3.58-7.79-2.38c-7.1-2.18-12.88,1.83-12.88,8.93V322c0,7.1,5.78,14.43,12.88,16.33l7.79,2.08C38.21,342.26,44,338.07,44,331V178.19c0-7.05-5.77-14.56-12.87-16.73Z"/><path class="cls-48" d="M17.63,330.47V170.79c0-5.12,8.05-.84,13.18.72l7.78,2.36a12.34,12.34,0,0,1,1.31.66A13.73,13.73,0,0,0,31.11,165l-7.79-2.38C18.19,161.1,14,164,14,169.1V322.92c0,4.66,3.49,9.29,8,11.16C21.79,333.23,17.63,331.33,17.63,330.47Z"/><path class="cls-47" d="M51.93,346.93a13.92,13.92,0,0,1-11.09-13.1l-.13-153.89c0-6.1,5-10,11.07-8.64l9.23,2c6.11,1.33,11.08,7.36,11.08,13.43l.13,152.9c0,6.06-5,10.09-11.07,9Z"/><path class="cls-49" d="M72.09,186.75c0-6.07-5-12.1-11.08-13.43l-9.23-2a9.34,9.34,0,0,0-7.33,1.22l9.07,2c6.11,1.34,11.09,7.36,11.09,13.44l.13,152.89a8.89,8.89,0,0,1-4,7.7l.46.08c6.11,1.12,11.08-2.91,11.07-9Z"/><path class="cls-1" d="M61,175.11a12.14,12.14,0,0,1,9.29,11.25l.13,153c0,5.09-4.15,8.46-9.28,7.52l-9.22-1.69a11.67,11.67,0,0,1-9.3-11L42.5,180.34c0-5.13,4.15-8.37,9.28-7.25l9.23,2Zm0-3.58-9.22-2c-7.1-1.56-12.88,3-12.87,10.05L39,333.5c0,7.09,5.79,13.93,12.89,15.22l9.22,1.69C68.25,351.71,74,347,74,340L73.9,187.14c0-7.06-5.79-14-12.9-15.61Z"/><path class="cls-48" d="M47,341.55l-.13-158.48c0-5.11,7.27-2.89,12.4-1.78l9.22,2a11.3,11.3,0,0,1,1.31.54,12.22,12.22,0,0,0-8.8-8.72l-9.23-2c-5.13-1.12-9.28,2.12-9.28,7.25l.13,153.82c0,4.66,3.51,9,8,10.48C50.4,343.81,47,342.41,47,341.55Z"/><path class="cls-47" d="M81.73,356.55a13.81,13.81,0,0,1-11.08-13V189.58c0-6.11,5-10.2,11.08-9.13l10.66,1.88a13.81,13.81,0,0,1,11.07,13V349.3c0,6.11-5,10.2-11.07,9.13Z"/><path class="cls-49" d="M92.39,182.33l-10.66-1.88a9.89,9.89,0,0,0-6.29.86l9.16,1.62a13.81,13.81,0,0,1,11.08,13V349.9a9,9,0,0,1-4.79,8.26l1.5.27c6.1,1.07,11.07-3,11.07-9.13V195.36A13.81,13.81,0,0,0,92.39,182.33Z"/><path class="cls-1" d="M92.39,184.13a11.55,11.55,0,0,1,9.28,10.92V349a7.57,7.57,0,0,1-9.28,7.65l-10.66-1.88a11.54,11.54,0,0,1-9.29-10.91V189.9c0-5.13,4.15-8.56,9.29-7.65l10.66,1.88Zm0-3.6-10.66-1.88c-7.11-1.25-12.89,3.51-12.89,10.62V343.2c0,7.1,5.78,13.9,12.89,15.14l10.66,1.89c7.1,1.25,12.88-3.51,12.88-10.61V195.68c0-7.1-5.78-13.9-12.88-15.15Z"/><path class="cls-48" d="M77.59,351.33V193.8c0-5.13,6.49-4.55,11.62-3.64L99.88,192a11.56,11.56,0,0,1,1.3.5,11.52,11.52,0,0,0-8.79-8.4l-10.66-1.88c-5.14-.91-9.29,2.52-9.29,7.65V343.83c0,4.67,3.49,9,8,10.43C80.2,353.42,77.59,352.19,77.59,351.33Z"/><path class="cls-47" d="M115.14,362.22a13.68,13.68,0,0,1-11.08-13V195.32c0-6.1,5-10.23,11.08-9.2l12.1,2.06a13.68,13.68,0,0,1,11.08,13V355.07c0,6.11-5,10.24-11.08,9.21Z"/><path class="cls-49" d="M127.24,188.18l-12.1-2.06a10,10,0,0,0-5,.42l9.65,1.64a13.68,13.68,0,0,1,11.08,13V355.07a9,9,0,0,1-6,8.79l2.45.42c6.11,1,11.08-3.1,11.08-9.21V201.14A13.68,13.68,0,0,0,127.24,188.18Z"/><path class="cls-1" d="M127.24,190a11.43,11.43,0,0,1,9.28,10.85V354.76c0,5.14-4.15,8.58-9.28,7.72l-12.1-2.06a11.43,11.43,0,0,1-9.28-10.86V195.63a7.63,7.63,0,0,1,9.28-7.71l12.1,2.06Zm0-3.6-12.1-2.06c-7.1-1.2-12.88,3.6-12.88,10.7V349c0,7.1,5.78,13.86,12.88,15.06l12.1,2.05c7.1,1.2,12.88-3.59,12.88-10.69V201.44c0-7.1-5.78-13.86-12.88-15.06Z"/><path class="cls-48" d="M111.79,357.16V200.83c0-5.13,5.71-5.92,10.84-5.05l12.1,2.05a10.14,10.14,0,0,1,1.3.48,11.4,11.4,0,0,0-8.79-8.33l-12.1-2.06a7.63,7.63,0,0,0-9.28,7.71V349.56a11.35,11.35,0,0,0,8,10.38C113.61,359.11,111.79,358,111.79,357.16Z"/><path class="cls-47" d="M150,366.12a11.09,11.09,0,0,1-11.08-11.07V201.11A11.09,11.09,0,0,1,150,190h13.54a11.09,11.09,0,0,1,11.07,11.09V355.05a11.09,11.09,0,0,1-11.07,11.07Z"/><path class="cls-49" d="M163.51,190h-5a11.08,11.08,0,0,1,8.6,10.78V354.74A11.09,11.09,0,0,1,156,365.83h-8.53a11.29,11.29,0,0,0,2.48.29h13.54a11.09,11.09,0,0,0,11.07-11.07V201.11A11.09,11.09,0,0,0,163.51,190Z"/><path class="cls-1" d="M163.51,191.82a9.28,9.28,0,0,1,9.27,9.29V355.05a9.28,9.28,0,0,1-9.27,9.28H150a9.29,9.29,0,0,1-9.29-9.28V201.11a9.29,9.29,0,0,1,9.29-9.29Zm0-3.59H150a12.89,12.89,0,0,0-12.88,12.88V355.05A12.9,12.9,0,0,0,150,367.92h13.54a12.89,12.89,0,0,0,12.87-12.87V201.11a12.89,12.89,0,0,0-12.87-12.88Z"/><path class="cls-48" d="M147.39,361.63V206.5c0-5.13,4.93-8.09,10.06-8.09H171a8.11,8.11,0,0,1,1.3.27,9.15,9.15,0,0,0-8.78-6.86H150a9.29,9.29,0,0,0-9.29,9.29V355.05a9.18,9.18,0,0,0,8,9C148.44,363.27,147.39,362.49,147.39,361.63Z"/><path class="cls-47" d="M186.84,366.72a11.09,11.09,0,0,1-11.08-11.08V201.7a11.09,11.09,0,0,1,11.08-11.08h15a11.09,11.09,0,0,1,11.07,11.08V355.64a11.09,11.09,0,0,1-11.07,11.08Z"/><path class="cls-49" d="M201.82,190.62h-15a11,11,0,0,0-4.35.9h12.74a11.09,11.09,0,0,1,11.08,11.08V356.54a11.09,11.09,0,0,1-6.73,10.18h2.24a11.09,11.09,0,0,0,11.07-11.08V201.7A11.09,11.09,0,0,0,201.82,190.62Z"/><path class="cls-48" d="M187,363.73V209.79a11.09,11.09,0,0,1,11.08-11.08h14.36a11.06,11.06,0,0,0-10.61-8.09h-15a11.09,11.09,0,0,0-11.08,11.08V355.64a11.09,11.09,0,0,0,11.08,11.08h.62A10.62,10.62,0,0,1,187,363.73Z"/><path class="cls-1" d="M201.82,192.42a9.29,9.29,0,0,1,9.28,9.28V355.64a9.28,9.28,0,0,1-9.28,9.28h-15a9.27,9.27,0,0,1-9.28-9.28V201.7a9.28,9.28,0,0,1,9.28-9.28Zm0-3.6h-15A12.9,12.9,0,0,0,174,201.7V355.64a12.9,12.9,0,0,0,12.88,12.88h15a12.89,12.89,0,0,0,12.87-12.88V201.7a12.89,12.89,0,0,0-12.87-12.88Z"/><path class="cls-47" d="M365.19,336.49c6.1-1.65,11.07-7.95,11.07-14.05V168.56c0-6.11-5-9.56-11.07-7.69l-7.79,2.38c-6.11,1.87-11.08,8.32-11.08,14.39v152.9c0,6.07,5,9.67,11.08,8Z"/><path class="cls-49" d="M365.19,160.87l-7.79,2.38a16,16,0,0,0-7.76,5.54l3.87-1.19c6.11-1.86,11.08,1.58,11.08,7.7V329.17a14.13,14.13,0,0,1-3,8.26l3.56-.94c6.1-1.65,11.07-7.95,11.07-14.05V168.56C376.26,162.45,371.29,159,365.19,160.87Z"/><path class="cls-1" d="M357.4,165c-5.13,1.56-9.29,7-9.29,12.06v153c0,5.1,4.16,8.11,9.29,6.73l7.78-2.09c5.13-1.38,9.29-6.65,9.29-11.77V169.11c0-5.13-4.16-8-9.29-6.45L357.4,165Zm0-3.58,7.78-2.38c7.1-2.18,12.88,1.83,12.88,8.93V322c0,7.1-5.78,14.43-12.88,16.33l-7.78,2.08c-7.11,1.9-12.88-2.29-12.88-9.33V178.19c0-7.05,5.77-14.56,12.88-16.73Z"/><path class="cls-48" d="M373,164.55c-1.65-2.07-4.54-2.89-7.83-1.89L357.4,165a13.76,13.76,0,0,0-8.8,9.49,14.6,14.6,0,0,1,1.31-.66l7.79-2.36C362.47,170.05,373.93,165.71,373,164.55Z"/><path class="cls-47" d="M336.58,346.93a13.94,13.94,0,0,0,11.09-13.1l.12-153.89c0-6.1-5-10-11.06-8.64l-9.23,2c-6.11,1.33-11.09,7.36-11.09,13.43l-.12,152.9c0,6.06,4.95,10.09,11.06,9Z"/><path class="cls-49" d="M336.73,171.3l-9.23,2a13.45,13.45,0,0,0-5,2.32l3.45-.75c6.1-1.34,11.07,2.54,11.06,8.65l-.12,153.88a13.72,13.72,0,0,1-5.4,10.45l5.09-.94a13.94,13.94,0,0,0,11.09-13.1l.12-153.89C347.8,173.84,342.83,170,336.73,171.3Z"/><path class="cls-1" d="M327.5,175.11a12.16,12.16,0,0,0-9.3,11.25l-.12,153c0,5.09,4.14,8.46,9.28,7.52l9.22-1.69a11.66,11.66,0,0,0,9.29-11L346,180.34c0-5.13-4.15-8.37-9.27-7.25l-9.23,2Zm0-3.58,9.23-2c7.1-1.56,12.87,3,12.87,10.05l-.13,153.94c0,7.09-5.79,13.93-12.89,15.22l-9.23,1.69c-7.1,1.3-12.87-3.39-12.87-10.43l.13-152.84c0-7.06,5.79-14,12.89-15.61Z"/><path class="cls-48" d="M344.63,175.78a7.43,7.43,0,0,0-7.9-2.69l-9.23,2a12.22,12.22,0,0,0-8.8,8.72,10,10,0,0,1,1.31-.54l9.22-2C334,180.26,345.5,177,344.63,175.78Z"/><path class="cls-47" d="M306.78,356.55a13.81,13.81,0,0,0,11.08-13V189.58c0-6.11-5-10.2-11.08-9.13l-10.66,1.88a13.81,13.81,0,0,0-11.08,13V349.3c0,6.11,5,10.2,11.08,9.13Z"/><path class="cls-49" d="M306.78,180.45l-10.66,1.88a12.55,12.55,0,0,0-4.6,1.85l5.83-1c6.11-1.08,11.08,3,11.08,9.13V346.21A13.71,13.71,0,0,1,302,357.4l4.83-.85a13.81,13.81,0,0,0,11.08-13V189.58C317.86,183.47,312.89,179.38,306.78,180.45Z"/><path class="cls-1" d="M296.12,184.13a11.55,11.55,0,0,0-9.29,10.92V349c0,5.13,4.16,8.56,9.29,7.65l10.66-1.88a11.54,11.54,0,0,0,9.28-10.91V189.9c0-5.13-4.15-8.56-9.28-7.65l-10.66,1.88Zm0-3.6,10.66-1.88c7.11-1.25,12.88,3.51,12.88,10.62V343.2c0,7.1-5.77,13.9-12.88,15.14l-10.66,1.89c-7.1,1.25-12.88-3.51-12.88-10.61V195.68c0-7.1,5.78-13.9,12.88-15.15Z"/><path class="cls-48" d="M299.29,190.16c10.49-2.45,15.84-4.73,14.33-6.12a8,8,0,0,0-6.84-1.79l-10.66,1.88a11.5,11.5,0,0,0-8.79,8.4,10.25,10.25,0,0,1,1.3-.5Z"/><path class="cls-47" d="M273.37,362.22a13.68,13.68,0,0,0,11.08-13V195.32c0-6.1-5-10.23-11.08-9.2l-12.11,2.06a13.68,13.68,0,0,0-11.07,13V355.07c0,6.11,5,10.24,11.07,9.21Z"/><path class="cls-49" d="M273.37,186.12l-12.11,2.06a13.09,13.09,0,0,0-6.82,3.57L264.68,190c6.11-1,11.08,3.09,11.08,9.2V353.16a13.26,13.26,0,0,1-4.25,9.38l1.86-.32a13.68,13.68,0,0,0,11.08-13V195.32C284.45,189.22,279.48,185.09,273.37,186.12Z"/><path class="cls-1" d="M261.27,190A11.44,11.44,0,0,0,252,200.83V354.76c0,5.14,4.16,8.58,9.29,7.72l12.09-2.06a11.44,11.44,0,0,0,9.29-10.86V195.63a7.63,7.63,0,0,0-9.29-7.71L261.27,190Zm0-3.6,12.09-2.06c7.11-1.2,12.88,3.6,12.88,10.7V349c0,7.1-5.77,13.86-12.88,15.06l-12.09,2.05c-7.1,1.2-12.88-3.59-12.88-10.69V201.44c0-7.1,5.78-13.86,12.88-15.06Z"/><path class="cls-48" d="M281.5,191.35a7.72,7.72,0,0,0-8.14-3.43L261.27,190a11.42,11.42,0,0,0-8.8,8.33,10.86,10.86,0,0,1,1.31-.48l12.1-2.05C270.18,195.05,282.24,192.55,281.5,191.35Z"/><path class="cls-47" d="M238.54,366.12a11.09,11.09,0,0,0,11.08-11.07V201.11A11.09,11.09,0,0,0,238.54,190H225a11.09,11.09,0,0,0-11.08,11.09V355.05A11.09,11.09,0,0,0,225,366.12Z"/><path class="cls-49" d="M238.54,190H225a11.08,11.08,0,0,0-2.95.45h8.41a11.09,11.09,0,0,1,11.07,11.09V355.5a11.05,11.05,0,0,1-8.13,10.62h5.14a11.09,11.09,0,0,0,11.08-11.07V201.11A11.09,11.09,0,0,0,238.54,190Z"/><path class="cls-1" d="M225,191.82a9.3,9.3,0,0,0-9.29,9.29V355.05a9.3,9.3,0,0,0,9.29,9.28h13.54a9.29,9.29,0,0,0,9.28-9.28V201.11a9.29,9.29,0,0,0-9.28-9.29Zm0-3.59h13.54a12.88,12.88,0,0,1,12.87,12.88V355.05a12.89,12.89,0,0,1-12.87,12.87H225a12.9,12.9,0,0,1-12.88-12.87V201.11A12.9,12.9,0,0,1,225,188.23Z"/><path class="cls-48" d="M222.92,361.63V206.5c0-5.13,4.93-8.09,10.06-8.09h13.53a8,8,0,0,1,1.31.27,9.17,9.17,0,0,0-8.79-6.86H225.49a9.29,9.29,0,0,0-9.28,9.29V355.05a9.18,9.18,0,0,0,8,9C224,363.27,222.92,362.49,222.92,361.63Z"/><path class="cls-50" d="M195.5,256.9c-107-.14-193.84-21-194.75-46.69L.7,244.93h0c.19,25.83,87.3,46.87,194.78,47s194.64-20.65,194.91-46.48h0v-35h0C390.14,236.25,303,257.05,195.5,256.9Z"/><path class="cls-50" d="M195.5,246.12C88.47,246,1.66,225.11.75,199.43L.7,234.15h0C.91,260,88,281,195.5,281.16s194.64-20.66,194.91-46.48h0v-35h0c-.21,19.87-51.88,36.77-124.66,43.44-10.8,1-19.58,16.92-31.2,17.43C222.7,261,208,246.14,195.5,246.12Z"/><path class="cls-51" d="M195.5,250.32c-107-.15-193.84-21-194.75-46.7L.7,238.34h0c.19,25.83,87.3,46.87,194.78,47,13.29,0,25.81-10.59,38.36-11.18,10.65-.5,21.47,9.08,31.42,8.18,73-6.64,124.92-23.57,125.13-43.49h0v-35h0c-.21,19.14-48.12,35.52-116.65,42.66C261.24,247.8,248,257.36,234.31,258,221.76,258.6,208.79,250.33,195.5,250.32Z"/><g class="cls-52"><path class="cls-1" d="M322.37,246.47l-7.14-20.59c-1.65-4.75-8-6.87-14.2-4.72l-33.22,11.53a53.65,53.65,0,0,0-24,16.42l-6.32,7.81a5,5,0,0,0-2.43-.69h-5.24a5.16,5.16,0,0,0-1.72.34l-6.33-8.43a50.5,50.5,0,0,0-23.83-17l-33.22-11.52c-6.19-2.15-12.66.28-14.45,5.43l-7.73,22.31c-1.79,5.15,1.78,11.06,8,13.21l32.22,11.17a50.76,50.76,0,0,0,27.72,1.77l14.19-3.23v.3a5.78,5.78,0,0,0,.14.7l-13.61,4.4A31.27,31.27,0,0,0,194,289.12c-9.55,15.82-25.16,28.85-41.84,40.14l22.16,5.1-.1,21.71c23.15-15.66,47-39.3,54.29-55.51,2.63-5.89,4.84-15.66,5-24.83h0c.2,9.17,2.41,18.94,5,24.83,7.25,16.21,28.88,36,52,51.61l-.1-21.71,22.16-5.1c-16.68-11.28-28.85-21.2-39.58-36.24-4.68-6.57-10-11.15-17.16-13.47l-15.73-5.09h0v-.82l14.19,2.71a54,54,0,0,0,27.54-2.31L314.14,259C320.33,256.81,324,251.22,322.37,246.47Z"/><path class="cls-1" d="M170.56,362.87l.13-25.65-27.41-6.31,6.83-4.62c19.86-13.44,32.82-25.85,40.78-39a34.32,34.32,0,0,1,8-9.05,56.42,56.42,0,0,1-17.35-3.1l-32.22-11.17a16.8,16.8,0,0,1-8.88-7,12.62,12.62,0,0,1-1.31-10.77l7.73-22.31c2.45-7,11-10.44,19-7.65l33.22,11.52A54.37,54.37,0,0,1,224.61,246l5,6.65H235a6.86,6.86,0,0,1,1.2.1l4.76-5.88a57.47,57.47,0,0,1,25.65-17.56l33.22-11.53c8.07-2.79,16.47.32,18.77,6.94l7.15,20.59a11.83,11.83,0,0,1-1.57,10.38,17.42,17.42,0,0,1-8.88,6.69l-32.21,11.17a60.36,60.36,0,0,1-17,3.28A42.83,42.83,0,0,1,276,287c10.54,14.78,22.61,24.48,38.67,35.35l6.84,4.62-27.42,6.3.13,25.65-5.65-3.82c-26.51-17.93-46.43-37.79-53.29-53.11a49.78,49.78,0,0,1-1.77-4.67,44.74,44.74,0,0,1-1.78,4.67c-7.21,16.14-30.57,40.12-55.55,57Zm-9.74-35.3,17.08,3.93-.08,17.63c21.5-15.66,41.29-36.4,47.38-50,2.2-4.94,4.52-14.1,4.72-23.45l.08-3.52h6.6v-6.74l18.46,3.52a50.79,50.79,0,0,0,25.69-2.17L313,255.56a10.36,10.36,0,0,0,5.24-3.84,4.82,4.82,0,0,0,.78-4.07l-7.15-20.59c-1-2.82-5.38-3.95-9.62-2.5L269,236.08a50.28,50.28,0,0,0-22.43,15.29l-8.19,10.13-2.63-1.42a1.49,1.49,0,0,0-.72-.26h-5.24l-2.48.86-2.12-1.95-6.33-8.44a47,47,0,0,0-22.13-15.79L163.5,223c-4.21-1.49-8.75,0-9.87,3.2l-7.74,22.32a5.49,5.49,0,0,0,.68,4.69,9.47,9.47,0,0,0,5.08,3.94l32.22,11.18A47.56,47.56,0,0,0,209.62,270l18.57-4.23v4.5l.45,3-2.79,1.41-13.61,4.41A27.6,27.6,0,0,0,197,291C189.48,303.51,177.87,315.26,160.82,327.57Zm76.25-54.24.07,2.32c.19,9.33,2.52,18.5,4.73,23.45,5.84,13.08,22.51,30.08,45.11,46.18l-.08-17.68,17-3.92c-13.46-9.58-24.14-19-33.77-32.47-4.52-6.36-9.4-10.21-15.33-12.13Z"/></g><path class="cls-53" d="M227.46,269.6l-17.05,3.88a50.76,50.76,0,0,1-27.72-1.77l-32.22-11.17c-6.19-2.15-9.76-8.06-8-13.21L150.23,225c1.79-5.15,8.26-7.58,14.45-5.43l33.22,11.52a50.5,50.5,0,0,1,23.83,17l9,12Z"/><path class="cls-54" d="M237.57,269.24l16.82,3.2a54,54,0,0,0,27.54-2.31L314.14,259c6.19-2.15,9.88-7.74,8.23-12.49l-7.14-20.59c-1.65-4.75-8-6.87-14.2-4.72l-33.22,11.53a53.65,53.65,0,0,0-24,16.42l-9.22,11.4Z"/><path class="cls-55" d="M174.19,356.07l.1-21.71-22.16-5.1C168.81,318,184.42,304.94,194,289.12a31.21,31.21,0,0,1,17.16-13.46l16.28-5.27,6.12,5.12c-.16,9.23-2.4,19.11-5.05,25.05C221.23,316.77,197.34,340.41,174.19,356.07Z"/><path class="cls-56" d="M290.61,352.17l-.1-21.71,22.16-5.1c-16.68-11.28-28.85-21.2-39.58-36.24-4.68-6.57-10-11.15-17.16-13.46l-16.28-5.27-6.12,5.12c.17,9.23,2.4,19.11,5.05,25.05C245.83,316.77,267.46,336.52,290.61,352.17Z"/><rect class="cls-57" x="224.6" y="256.23" width="15.6" height="19.5" rx="5.18"/></g></g></svg>