<svg xmlns="http://www.w3.org/2000/svg" xmlns:xlink="http://www.w3.org/1999/xlink" viewBox="0 0 462.4 301.31"><defs><style>.cls-1{fill:#fab969;}.cls-2{fill:#e3923f;}.cls-3{fill:#ad5e2a;}.cls-4{fill:#faefd4;}.cls-5{fill:#ebdab0;}.cls-6{fill:#fffaed;}.cls-7{opacity:0.5;}.cls-8{fill:#c46a2e;}.cls-9{fill:url(#linear-gradient);}.cls-10,.cls-12{fill:#ad5e28;}.cls-10,.cls-11{opacity:0.7;}.cls-11{fill:#995323;}.cls-13{fill:#6ba02e;}.cls-14{fill:#588b2a;}.cls-15{fill:#8ca332;}.cls-16{fill:url(#linear-gradient-2);}.cls-17{fill:#fff;}.cls-18{fill:#ac0d12;}.cls-19{fill:url(#linear-gradient-3);}.cls-20{fill:#9d5830;}.cls-21{fill:url(#linear-gradient-4);}.cls-22{fill:url(#linear-gradient-5);}.cls-23{fill:url(#linear-gradient-6);}.cls-24{fill:url(#linear-gradient-7);}</style><linearGradient id="linear-gradient" y1="213.95" x2="462.4" y2="213.95" gradientUnits="userSpaceOnUse"><stop offset="0" stop-color="#e38534"/><stop offset="0.7" stop-color="#ba6529"/></linearGradient><linearGradient id="linear-gradient-2" x1="189" y1="72.98" x2="232.04" y2="114.92" gradientUnits="userSpaceOnUse"><stop offset="0.07" stop-color="#d0343a"/><stop offset="0.86" stop-color="#ac0d12"/></linearGradient><linearGradient id="linear-gradient-3" x1="245.21" y1="72.98" x2="288.25" y2="114.91" xlink:href="#linear-gradient-2"/><linearGradient id="linear-gradient-4" x1="1999.55" y1="1206.83" x2="2039.66" y2="1245.9" gradientTransform="translate(1888.04 -1482.07) rotate(105.9)" xlink:href="#linear-gradient-2"/><linearGradient id="linear-gradient-5" x1="1270.78" y1="1160.88" x2="1310.89" y2="1199.96" gradientTransform="translate(1045.22 -1447.17) rotate(73.51)" xlink:href="#linear-gradient-2"/><linearGradient id="linear-gradient-6" x1="386.1" y1="-410.77" x2="429.14" y2="-368.84" gradientTransform="matrix(0.91, -0.41, 0.41, 0.91, 145.5, 628.86)" xlink:href="#linear-gradient-2"/><linearGradient id="linear-gradient-7" x1="761.98" y1="1150.15" x2="802.09" y2="1189.23" gradientTransform="matrix(0.59, 0.81, -0.81, 0.59, 585.1, -1215.05)" xlink:href="#linear-gradient-2"/></defs><g id="Layer_2" data-name="Layer 2"><g id="Layer_1-2" data-name="Layer 1"><path class="cls-1" d="M257.67,182.42c-2.61,0-8.05-.67-13.3-1.32-5.42-.68-10.53-1.31-13.17-1.31-6.85,0-13.49.38-19.91.74s-12.36.69-18.49.69h0c-2.22,0-4.45,0-6.68-.15a223.51,223.51,0,0,1-24-2.89c-5.88-.93-11.43-1.8-16.86-2.33-8.15-.76-14.7-1-20.48-1.13-8.22-.24-15.31-.45-24.72-2.16-1.27-.22-5.08-1.59-8.43-2.79-3.59-1.29-6.69-2.4-8.08-2.68a149.53,149.53,0,0,0-19.42-2.23c-7.35-.5-14.3-1-20.44-3-6-2-11.49-6.09-16.35-9.72a75.09,75.09,0,0,0-8-5.48c-11.53-6.41-17.62-13.33-17.62-20,0-5.11,3.39-10.23,10.09-15.24a12.43,12.43,0,0,1,4.28-1.67,22.49,22.49,0,0,0,5.18-1.84c1.86-1,3.77-2.24,5.77-3.53A56.39,56.39,0,0,1,38.7,98c3.77-1.35,9-2.22,14.53-3.15,4.16-.69,8.46-1.41,12.19-2.38s7.23-2.22,10.49-3.39a89.58,89.58,0,0,1,15.43-4.47,100.06,100.06,0,0,1,15.25-1.12,136.09,136.09,0,0,0,14.32-.85c4.9-.64,9.79-1.75,14.53-2.81a136,136,0,0,1,18.86-3.33c1.37-.11,2.78-.17,4.21-.17,3,0,6,.2,9.1.39s6.42.4,9.55.4c1.13,0,2.25,0,3.36-.08,4.86-.27,9.6-1,14.19-1.69a127.13,127.13,0,0,1,16.74-1.78h.12a51.15,51.15,0,0,1,8.28.69,57.34,57.34,0,0,0,8.64.75,91.24,91.24,0,0,0,9.59-.76,92.53,92.53,0,0,1,9.26-.74,132.27,132.27,0,0,1,14.29,1.23c3.93.49,8,1,11.93,1.17,5.88.26,11.65.31,17.33.35,8.39.06,16.33.13,24.21.86,10.71,1,20.89,2.85,30.72,4.66,4.68.86,9.27,1.7,13.79,2.43s9,1.23,13.32,1.73a164.73,164.73,0,0,1,17.89,2.69q8.71,2,16.54,4.18a91.11,91.11,0,0,1,17.16,7.2c2.51,1.29,4.94,2.52,7.42,3.6s5.15,2.12,7.62,3.08c5.34,2,10.39,4,13.42,6.62,5.06,4.38,7.63,8.83,7.63,13.26,0,6.62-4.52,13.13-12.74,18.36-7.06,4.49-17.88,8.13-28.36,11.64a53.08,53.08,0,0,0-9.6,4.79c-3.89,2.29-7.92,4.65-12.71,5.8-5.47,1.32-11.85,1.53-18.59,1.76A137.84,137.84,0,0,0,361,170.3a48.89,48.89,0,0,0-10.66,3.55c-3.71,1.56-7.54,3.18-11.29,3.65a48.84,48.84,0,0,1-5.81.33c-3.46,0-7-.3-10.53-.58-3.75-.32-7.55-.62-11.41-.62q-2.46,0-4.95.18c-8,.66-14.17,1.7-20.15,2.7a170,170,0,0,1-28.26,2.91Z"/><path class="cls-2" d="M247.34,75.34h.41a129.66,129.66,0,0,1,13.68,1.23c4,.49,8.05,1,12.05,1.18,5.91.25,11.73.3,17.36.34,8.37.06,16.27.12,24.09.85,10.63,1,20.76,2.85,30.56,4.64,4.7.87,9.3,1.71,13.83,2.43s9,1.25,13.36,1.74a170.25,170.25,0,0,1,17.74,2.66c5.77,1.32,11.3,2.72,16.45,4.17a89.93,89.93,0,0,1,16.82,7.07c2.57,1.31,5,2.54,7.53,3.65s5.2,2.14,7.7,3.11c5.19,2,10.09,3.88,12.88,6.3,4.65,4,7,8,7,11.89,0,6-4.23,12-11.9,16.85-6.87,4.37-17.6,8-28,11.46a54.18,54.18,0,0,0-9.94,4.94c-3.78,2.22-7.69,4.51-12.22,5.6-5.29,1.27-11.58,1.49-18.23,1.71a142.44,142.44,0,0,0-17.89,1.36,49.55,49.55,0,0,0-11.06,3.68c-3.6,1.5-7.32,3.07-10.83,3.51a43.46,43.46,0,0,1-5.57.32c-3.36,0-6.78-.28-10.39-.58s-7.61-.62-11.55-.62c-1.7,0-3.4,0-5.11.19-8,.66-14.29,1.71-20.32,2.72a168.4,168.4,0,0,1-28.15,2.89c-2.49,0-7.86-.67-13.06-1.32C239.14,178.63,234,178,231.2,178c-6.9,0-13.57.38-20,.75s-12.3.69-18.38.69c-2.19,0-4.39,0-6.59-.15a221.49,221.49,0,0,1-23.74-2.88c-5.92-.93-11.51-1.8-17-2.33-8.22-.78-14.81-1-20.63-1.14-8.13-.24-15.15-.45-24.43-2.13-1.11-.21-5.14-1.65-8.08-2.7A80,80,0,0,0,84,165.33a150.71,150.71,0,0,0-19.65-2.25c-7.23-.51-14.07-1-20-2.94-5.71-1.89-11.09-5.91-15.84-9.46a78.68,78.68,0,0,0-8.18-5.61c-7.62-4.23-16.7-10.88-16.7-18.47,0-4.5,3.16-9.14,9.38-13.79a11.32,11.32,0,0,1,3.66-1.37,24.12,24.12,0,0,0,5.56-2c2-1,3.88-2.28,5.9-3.6a55,55,0,0,1,11.21-6.1c3.62-1.31,9-2.21,14.21-3.07,4.2-.7,8.55-1.43,12.36-2.41S73.21,92,76.51,90.81a87.69,87.69,0,0,1,15.15-4.4,97.19,97.19,0,0,1,15-1.08,140.42,140.42,0,0,0,14.51-.87c5-.65,9.91-1.77,14.69-2.85a138.76,138.76,0,0,1,18.62-3.29c1.32-.11,2.67-.15,4.05-.15,2.89,0,5.86.19,9,.38s6.46.41,9.67.41c1.16,0,2.3,0,3.44-.09,4.94-.27,9.72-1,14.34-1.7a125,125,0,0,1,16.53-1.76h.7a47.52,47.52,0,0,1,7.41.68,59.86,59.86,0,0,0,8.89.77,93.75,93.75,0,0,0,9.78-.77,90.23,90.23,0,0,1,9.07-.74h0m0-3.59c-5.48,0-13.42,1.51-18.85,1.51-6.4,0-10.24-1.45-16.3-1.45h-.77c-10.94.22-20.55,2.9-31,3.47q-1.6.09-3.24.09c-6.16,0-12.65-.8-18.68-.8-1.48,0-2.93.05-4.35.17-12,1-22.52,4.72-33.48,6.16-10,1.32-20.58.32-29.65,2C80.3,84.82,74.1,88.42,65,90.78,56.5,93,45,93.87,38.08,96.35s-12.4,7.16-17.58,9.93c-3.43,1.83-7.1,1.72-9.68,3.65C3.79,115.19,0,120.79,0,126.6c0,7.67,6.6,15,18.54,21.61,6.67,3.71,14.87,12.11,24.64,15.34,11.46,3.8,25,2.32,40.07,5.3,2.62.52,13.81,5,16.54,5.49,16.38,3,25.95,1.46,45.35,3.31,12.79,1.22,27.09,4.55,40.9,5.22q3.39.16,6.76.16c12.56,0,25-1.44,38.4-1.44,5.13,0,21.12,2.63,26.48,2.63h.23c20.79-.33,29.61-4.06,48.54-5.62,1.61-.12,3.21-.18,4.81-.18,7.5,0,14.82,1.2,21.94,1.2a48.27,48.27,0,0,0,6-.34c7.6-1,14.95-6.07,22-7.21,12.36-2,25.9-.6,36.38-3.12,8.94-2.15,15.1-8.16,22.47-10.63,11.36-3.83,21.74-7.38,28.75-11.84,9.42-6,13.56-13.11,13.56-19.88,0-5.06-2.87-10-8.24-14.61-4.71-4.08-13.19-6.34-21.5-10C425.1,98.7,418,94,407.84,91.12q-7.84-2.2-16.62-4.21c-9.59-2.19-20.28-2.67-31.33-4.44-14-2.24-28.71-5.63-44.63-7.11-13.38-1.24-27.16-.57-41.62-1.2-8.39-.37-17.15-2.26-25.83-2.41Z"/><path class="cls-3" d="M19.37,162.21A6.74,6.74,0,1,0,12.63,169,6.74,6.74,0,0,0,19.37,162.21Z"/><path class="cls-4" d="M430.87,123.08c0,5.77-3.8,12.79-12.58,17.87-6.1,3.51-15.13,5.32-24.77,8.34-8.08,2.54-14.74,7.51-24.95,9.62-9.7,2-22.86,1.17-34.18,2.71-11.63,1.59-23.48,5.84-36.49,6.88-13.41,1.06-28-1.13-42.55-.73-7.92.21-16.37,3.72-24.54,3.72-10.1,0-19.64-3.56-29.34-3.89-10.47-.35-21.28,3.4-31.16,2.69-15.68-1.12-29.92-6.95-43.66-8.86s-25.29-1.12-36.6-3.72c-13.17-3-25.67-9.53-34.66-13.28-15.22-6.35-23.85-13.63-23.85-21.35,0-7.19,3.32-15.19,16.58-21.22,6.32-2.87,16.84-6,25.61-8.53,7.27-2.06,16.56-2.26,25.29-4s18.19-5.71,28.17-7.08c10.93-1.51,22.48-.39,34.67-1.41,8.92-.74,16.51-2.34,26-2.79,7.84-.38,16.12-2.08,24.26-2.24,5.85-.12,14.23.45,20.22.45,11.51,0,21.68,2,32.66,2.43,12,.46,24.77-2.16,35.92-1.24,16.47,1.36,30.76,6.51,44.87,8.75,16.12,2.54,31.64,2.74,43.78,6.23s24.26,9.69,31.44,13.93C429.49,111.35,430.87,117.4,430.87,123.08Z"/><path class="cls-5" d="M417.39,135.11c-6.1,3.51-15.08,2.8-24.71,5.84-8.08,2.53-14.05,7.32-24.26,9.43-9.7,2-22.71-2-34-.43-11.63,1.58-22.13,8.38-35.15,9.41-13.4,1.06-29.35-3.67-43.89-3.27-7.92.21-16.37,3.72-24.54,3.72-10.1,0-19.64-3.56-29.34-3.89-10.47-.35-23.07,5.4-32.95,4.79-21.57-1.35-28.13-9.05-41.87-11s-25.44,2.76-36.75.17c-13.17-3-26.94-8.82-35.94-12.58-12-5-20.21-7.19-21.2-21.13a20,20,0,0,0-1.22,6.86c0,7.72,8.63,15,23.85,21.35,9,3.75,21.49,10.27,34.66,13.28,11.31,2.6,22.79,1.81,36.6,3.72s28,7.75,43.66,8.86c9.88.71,20.69-3,31.16-2.69,9.7.33,19.24,3.89,29.34,3.89,8.17,0,16.62-3.51,24.54-3.72,14.54-.4,29.14,1.79,42.55.73,13-1,24.86-5.29,36.49-6.88,11.32-1.54,24.48-.7,34.18-2.71,10.21-2.11,16.87-7.08,24.95-9.62,9.64-3,18.67-4.83,24.77-8.34,8.78-5.08,12.58-12.1,12.58-17.87a20.91,20.91,0,0,0-.95-6.63C429.52,126.57,423.72,131.44,417.39,135.11Z"/><path class="cls-6" d="M157.43,141.54c-15.6-6.67-27.34-11.61-44.41-11.76-9.61-.09-19.37.6-28.76-2-6.6-1.82-24.9-11.64-13.38-18.27,3.07-1.77,6.49-4.25,1.56-5.11-19.07-3.35-28,15.81-12.65,28.21,24.53,19.78,67.36,5.67,96.27,12C159.37,145.3,160.87,143,157.43,141.54Z"/><path class="cls-6" d="M154,91.49c-14.31-10.54-37.36,4.34-51.69,9.32-3.37,1.17-4,5.12.1,4.45,7.76-1.26,15.41-1.74,23.07-3.57s16.28-5.37,24.13-2.16C154.1,101.34,157.9,94.35,154,91.49Z"/><path class="cls-6" d="M253.55,141.14c-8.35-2.26-17.77.11-26.47-.45-9.81-.64-19.55-2.48-29.31-3.39-2.66-.26-4.17,3.49-2,5.06,13.9,10.22,42.14,16.24,57.8,6.36C256.19,147,257.56,142.23,253.55,141.14Z"/><path class="cls-6" d="M380.47,127.33c-7.34-.46-15.54-.81-22.82.26-8.72,1.28-18.32,8.62-26.81,10.95-2,.55-22.36,4.37-19.77,5.4,17.37,6.89,38.65-3.58,48.89-4,8.77-.33,32.57,2.46,36.16-7.42C397.22,129.56,384,127.55,380.47,127.33Z"/><path class="cls-6" d="M181.1,114.89c-9.81,2.23-24.34-2-34.15-2.25-28.29-.67-42.48,9.19-40,9.89,10.61,2.92,40.88.21,51.59,4.24,8.95,3.37,21,4.83,29.72.4C208.25,117,187.73,113.38,181.1,114.89Z"/><path class="cls-6" d="M250.94,93.31C234.8,80.19,205,82.54,186.63,89.07c-1.58.57-4.21,4-1.89,4.64,5.94,1.71,18.95.29,28.1-.38,13.23-1,22.32,2.74,35,3.59C252.6,97.23,254.45,96.18,250.94,93.31Z"/><path class="cls-6" d="M336.28,93.08c-6.35-8-18.45-7.85-27.89-7.42-12.37.58-24.68,2.18-37,2.33-1.94,0-3.31,1.22-1.32,2.94,7.63,6.57,16.57,7.68,26.36,7.18,5.55-.28,29.39-.54,35.93,0C337.07,98.51,339.23,96.79,336.28,93.08Z"/><path class="cls-6" d="M391.31,99.55c-7.76-3.58-15.22-2-23.56-3.08-2.12-.26-5.76,1.18-4.74,3.13,2.95,5.6,10.19,5.23,16,7.2,3.28,1.12,13.72,3.77,19.32,10.11,3.47,3.93,2.24,8.31,4.67,7.67s2.9-6.23,2.29-9.24C403.76,107.89,397.85,102.57,391.31,99.55Z"/><path class="cls-6" d="M356.67,111.89c-9.17-3.7-20.58-1.06-29.59,2.8-12,5.14-18.92,13.64-31.73,17.19-2.12.59-6.65,2.06-4.11,3.44,8.52,4.64,17.09,1.06,25.15-3.25,5.29-2.82,12.4-4.55,18-6.7a68.37,68.37,0,0,1,21.17-4.81C370.6,119.31,360,113.23,356.67,111.89Z"/><path class="cls-6" d="M282.32,116.53c-26.95,5.84-36.33,1.35-51.58.86-3.08-.11-4.12,3.45-1.49,5.65,7.25,6.07,31.17,13.85,46.06,9.58C301.64,125.07,287.93,115.32,282.32,116.53Z"/><g class="cls-7"><path class="cls-8" d="M429.19,114.64a19.19,19.19,0,0,1,1.68,8.44c0,5.77-3.8,12.79-12.58,17.87-6.1,3.51-15.13,5.32-24.77,8.34-8.08,2.54-14.74,7.51-24.95,9.62-9.7,2-22.86,1.17-34.18,2.71-11.63,1.59-23.48,5.84-36.49,6.88-13.41,1.06-28-1.13-42.55-.73-7.92.21-16.37,3.72-24.54,3.72-10.1,0-19.64-3.56-29.34-3.89-10.47-.35-21.28,3.4-31.16,2.69-15.68-1.11-29.92-6.95-43.66-8.86s-25.29-1.12-36.6-3.72c-13.17-3-25.67-9.53-34.66-13.28-15.22-6.35-23.85-13.63-23.85-21.35a19.32,19.32,0,0,1,2.2-9.08,19.11,19.11,0,0,0-5.2,13.27c0,7.72,8.77,15,24.21,21.35,9.12,3.76,21.82,10.27,35.18,13.29,11.49,2.59,23.14,1.8,37.15,3.72s28.4,7.74,44.32,8.85c10,.71,21-3,31.63-2.69,9.84.33,19.52,3.89,29.78,3.89,8.29,0,16.87-3.51,24.9-3.72,14.76-.4,29.58,1.79,43.19.73,13.21-1,25.24-5.29,37-6.88,11.49-1.54,24.84-.7,34.69-2.7C381,161,387.75,156,396,153.49c9.77-3,19-4.83,25.14-8.35,8.91-5.08,12.76-12.1,12.76-17.87C433.86,123.07,433.08,118.67,429.19,114.64Z"/></g><path class="cls-9" d="M231.2,181.59c-15.79,0-30.26,2-45.16,1.28-13.81-.67-28.11-4-40.9-5.22-19.4-1.85-29-.34-45.35-3.31-2.73-.49-13.92-5-16.54-5.49-15-3-28.61-1.5-40.07-5.3-9.77-3.23-18-11.63-24.64-15.34C6.6,141.58,0,134.27,0,126.6V250.52H0c.28,28.06,103.67,50.79,231.19,50.79s230.91-22.73,231.19-50.79h0V126.6c0,6.77-4.14,13.89-13.56,19.88-7,4.46-17.39,8-28.75,11.84-7.37,2.47-13.53,8.48-22.47,10.63-10.48,2.52-24,1.12-36.38,3.12-7.07,1.14-14.42,6.25-22,7.21-10.47,1.32-21.42-1.6-32.77-.68-18.93,1.56-27.75,5.29-48.54,5.62C252.79,184.3,236.41,181.59,231.2,181.59Z"/><path class="cls-10" d="M462.39,213.38C462.23,230,426,244.7,370.06,254c-12.84,4.67-27.3,5.54-41.72,5.5-19.16,2-39.71,3.36-61.28,4.1a210.63,210.63,0,0,1-37.41.59c-7.49,0-14.87-.11-22.18-.27a5.51,5.51,0,0,1-.72.44c-17.39,6.19-34.11,2.16-50.8-3a701.5,701.5,0,0,1-73.18-9.07c-20.24-1.45-40-5.49-59.76-14.56a4.18,4.18,0,0,1-2.63-3.58C7.4,227.82.08,220.79,0,213.38H0v37.14H0c.28,28.06,103.67,50.79,231.19,50.79s230.91-22.73,231.19-50.79h0V213.38Z"/><path class="cls-11" d="M448.84,146.48c-7,4.46-17.39,8-28.75,11.84-7.37,2.47-13.53,8.48-22.47,10.63-10.83,2.6-24.91,1-37.6,3.33l-.13.16v89.24a24,24,0,0,1-21.09,23.86,942,942,0,0,1-107.6,5.88C103.68,291.42.29,268.7,0,240.64H0v9.88H0c.28,28.06,103.67,50.79,231.19,50.79,47.69,0,91.88-3.22,128.69-8.67v.05c2.07-.3,4.06-.64,6.08-.95.66-.11,1.36-.2,2-.3v0c57.1-9.24,94.25-24.11,94.42-40.9h0V126.6C462.4,133.37,458.26,140.49,448.84,146.48Z"/><g class="cls-7"><path class="cls-8" d="M448.84,146.48c-7,4.46-17.39,8-28.75,11.84-7.37,2.47-13.53,8.48-22.47,10.63-10.48,2.52-24,1.12-36.38,3.12-7.07,1.14-14.42,6.25-22,7.21-10.47,1.32-21.42-1.6-32.77-.68-18.93,1.56-27.75,5.29-48.54,5.62-5.12.08-21.5-2.63-26.71-2.63-15.79,0-30.26,2-45.16,1.28-13.81-.67-28.11-4-40.9-5.22-19.4-1.85-29-.34-45.35-3.31-2.73-.49-13.92-5-16.54-5.49-15-3-28.61-1.5-40.07-5.3-9.77-3.23-18-11.63-24.64-15.34C6.6,141.58,0,134.27,0,126.6V135c0,7.67,6.6,15,18.54,21.61,6.67,3.71,14.87,12.11,24.64,15.34,11.46,3.79,25,2.31,40.07,5.3,2.62.52,13.81,5,16.54,5.48,16.38,3,25.95,1.46,45.35,3.32,12.79,1.22,27.09,4.55,40.9,5.22,14.9.72,29.37-1.29,45.16-1.29,5.21,0,21.59,2.71,26.71,2.64,20.79-.33,29.61-4.07,48.54-5.62,11.35-.92,22.3,2,32.77.68,7.6-1,14.95-6.07,22-7.21,12.36-2,25.9-.61,36.38-3.13,8.94-2.15,15.1-8.15,22.47-10.62,11.36-3.83,21.74-7.39,28.75-11.84,9.42-6,13.56-13.11,13.56-19.88V126.6C462.4,133.37,458.26,140.49,448.84,146.48Z"/></g><path class="cls-3" d="M30.15,189.46a7.79,7.79,0,1,0-7.78,7.79A7.78,7.78,0,0,0,30.15,189.46Z"/><path class="cls-3" d="M51.12,221.81a3.6,3.6,0,1,0-3.6,3.59A3.6,3.6,0,0,0,51.12,221.81Z"/><circle class="cls-3" cx="65.49" cy="190.66" r="7.19"/><path class="cls-3" d="M100.23,197.84a3.59,3.59,0,1,0-3.59,3.6A3.59,3.59,0,0,0,100.23,197.84Z"/><path class="cls-3" d="M90.05,227.2a5.39,5.39,0,1,0-5.39,5.39A5.38,5.38,0,0,0,90.05,227.2Z"/><path class="cls-3" d="M69.09,258.94a6,6,0,1,0-6,6A6,6,0,0,0,69.09,258.94Z"/><path class="cls-3" d="M21.17,230.19a4.2,4.2,0,1,0-4.19,4.2A4.19,4.19,0,0,0,21.17,230.19Z"/><path class="cls-3" d="M36.74,257.75a5.39,5.39,0,1,0-5.39,5.39A5.39,5.39,0,0,0,36.74,257.75Z"/><circle class="cls-3" cx="124.79" cy="245.17" r="7.19"/><path class="cls-3" d="M107.42,272.72a3.6,3.6,0,1,0-3.59,3.59A3.6,3.6,0,0,0,107.42,272.72Z"/><path class="cls-3" d="M139.17,205a8.39,8.39,0,1,0-8.39,8.39A8.39,8.39,0,0,0,139.17,205Z"/><path class="cls-3" d="M105.62,254.15a3,3,0,1,0-3,3A3,3,0,0,0,105.62,254.15Z"/><path class="cls-3" d="M146.35,274.51a6,6,0,1,0-6,6A6,6,0,0,0,146.35,274.51Z"/><path class="cls-3" d="M175.1,217a6.59,6.59,0,1,0-6.58,6.59A6.58,6.58,0,0,0,175.1,217Z"/><circle class="cls-3" cx="161.33" cy="197.25" r="2.7"/><circle class="cls-3" cx="161.33" cy="245.31" r="2.7"/><circle class="cls-3" cx="187.38" cy="238.13" r="4.94"/><path class="cls-3" d="M190.53,278.56a5.39,5.39,0,1,0-5.39,5.39A5.39,5.39,0,0,0,190.53,278.56Z"/><path class="cls-3" d="M167.62,271.37a4,4,0,1,0-4,4A4,4,0,0,0,167.62,271.37Z"/><path class="cls-3" d="M215.24,206.23A6.74,6.74,0,1,0,208.5,213,6.74,6.74,0,0,0,215.24,206.23Z"/><path class="cls-3" d="M216.58,235.88a3.59,3.59,0,1,0-3.59,3.59A3.59,3.59,0,0,0,216.58,235.88Z"/><path class="cls-3" d="M212.09,261.49a5.84,5.84,0,1,0-5.84,5.84A5.83,5.83,0,0,0,212.09,261.49Z"/><path class="cls-3" d="M236.8,275.86a3.6,3.6,0,1,0-3.59,3.6A3.59,3.59,0,0,0,236.8,275.86Z"/><path class="cls-3" d="M248,245.76a4.49,4.49,0,1,0-4.49,4.5A4.49,4.49,0,0,0,248,245.76Z"/><path class="cls-3" d="M237.25,223.3a3.6,3.6,0,1,0-3.6,3.6A3.6,3.6,0,0,0,237.25,223.3Z"/><path class="cls-3" d="M251.62,203.54a5.39,5.39,0,1,0-5.39,5.39A5.39,5.39,0,0,0,251.62,203.54Z"/><path class="cls-3" d="M237.25,191a5.39,5.39,0,1,0-5.39,5.39A5.39,5.39,0,0,0,237.25,191Z"/><path class="cls-3" d="M291.61,192.75a7.19,7.19,0,1,0-7.19,7.19A7.18,7.18,0,0,0,291.61,192.75Z"/><path class="cls-3" d="M283.52,228.24a4,4,0,1,0-4,4A4,4,0,0,0,283.52,228.24Z"/><path class="cls-3" d="M292.06,259.24a7.19,7.19,0,1,0-7.19,7.19A7.19,7.19,0,0,0,292.06,259.24Z"/><path class="cls-3" d="M266,270.47a3.15,3.15,0,1,0-3.15,3.15A3.14,3.14,0,0,0,266,270.47Z"/><path class="cls-11" d="M217.48,288a6.74,6.74,0,1,0-6.74,6.74A6.74,6.74,0,0,0,217.48,288Z"/><path class="cls-11" d="M278.13,288a7.64,7.64,0,1,0-7.64,7.64A7.64,7.64,0,0,0,278.13,288Z"/><path class="cls-11" d="M321.25,278.11a7.64,7.64,0,1,0-7.63,7.64A7.63,7.63,0,0,0,321.25,278.11Z"/><path class="cls-3" d="M325.75,208.48a8.09,8.09,0,1,0-8.09,8.08A8.09,8.09,0,0,0,325.75,208.48Z"/><path class="cls-3" d="M331.59,241.27a4.5,4.5,0,1,0-4.49,4.49A4.49,4.49,0,0,0,331.59,241.27Z"/><path class="cls-11" d="M355,256.1a8.09,8.09,0,1,0-8.09,8.08A8.09,8.09,0,0,0,355,256.1Z"/><path class="cls-3" d="M355.85,198.59a8.09,8.09,0,1,0-8.09,8.09A8.09,8.09,0,0,0,355.85,198.59Z"/><path class="cls-3" d="M351.8,218.81a3.59,3.59,0,1,0-3.59,3.59A3.59,3.59,0,0,0,351.8,218.81Z"/><path class="cls-11" d="M340.12,276.76a3.59,3.59,0,1,0-3.59,3.59A3.59,3.59,0,0,0,340.12,276.76Z"/><path class="cls-3" d="M306.43,225.1a3.15,3.15,0,1,0-3.14,3.14A3.15,3.15,0,0,0,306.43,225.1Z"/><path class="cls-3" d="M262.85,224.2a3.14,3.14,0,1,0-3.14,3.14A3.13,3.13,0,0,0,262.85,224.2Z"/><path class="cls-3" d="M36.44,172.09a3.15,3.15,0,1,0-3.14,3.15A3.13,3.13,0,0,0,36.44,172.09Z"/><path class="cls-3" d="M13.53,206.68a4.94,4.94,0,1,0-4.94,4.94A4.94,4.94,0,0,0,13.53,206.68Z"/><path class="cls-3" d="M13.08,247.56a3.59,3.59,0,1,0-3.59,3.59A3.59,3.59,0,0,0,13.08,247.56Z"/><path class="cls-12" d="M404.51,189.46a4.2,4.2,0,1,0-4.19,4.19A4.19,4.19,0,0,0,404.51,189.46Z"/><path class="cls-12" d="M420.09,226.59a9,9,0,1,0-9,9A9,9,0,0,0,420.09,226.59Z"/><path class="cls-12" d="M441.65,210.42a3,3,0,1,0-3,3A3,3,0,0,0,441.65,210.42Z"/><path class="cls-12" d="M453,176.28a6,6,0,1,0-6,6A6,6,0,0,0,453,176.28Z"/><path class="cls-12" d="M377,212.22a3.6,3.6,0,1,0-3.59,3.59A3.6,3.6,0,0,0,377,212.22Z"/><path class="cls-12" d="M388.94,253.55a9.59,9.59,0,1,0-9.59,9.59A9.58,9.58,0,0,0,388.94,253.55Z"/><path class="cls-12" d="M414.09,260.14a3,3,0,1,0-3,3A3,3,0,0,0,414.09,260.14Z"/><path class="cls-12" d="M450.63,249.36A6.59,6.59,0,1,0,444,256,6.58,6.58,0,0,0,450.63,249.36Z"/><path class="cls-13" d="M190.48,19c18-8.82,36-1.85,45.31-1.57-5.55,7.84-11.19,25.68-29.14,34.5S160.87,54,160.87,54,172.54,27.8,190.48,19Z"/><path class="cls-14" d="M235.79,17.41c-5.55,7.84-11.19,25.68-29.14,34.5S160.87,54,160.87,54,216.15,21.55,235.79,17.41Z"/><path class="cls-15" d="M243.24,16.48s-16.92,6.09-41.78,16.93C182,41.88,165.11,52.25,161.72,54.14l-.85-.19s.14-.33.41-.91C164.92,51,180,42,198.63,32.39c15.76-8.1,44-18.56,44-18.56Z"/><path class="cls-16" d="M223.31,73.2c-7.38-1.58-9.85.64-13.24.64s-5.87-2.22-13.24-.64c-5.89,1.26-11.87,7.69-12.15,16.28-.66,21,13.45,30.27,25.39,30.54,11.93-.27,26-9.36,25.37-30.54C235.18,80.89,229.19,74.46,223.31,73.2Z"/><path class="cls-17" d="M198.93,84.27c-.61,2.08-1.47,3.75-4.15,3.75s-4.57-1.92-4.27-4c.41-2.71,2.61-4.09,5.28-3.79C198.73,80.6,199.52,82.28,198.93,84.27Z"/><path class="cls-18" d="M216.47,75c0,1.25-2.79,2.88-6.21,2.88s-6.21-1.63-6.21-2.88,2.78-.63,6.21-.63S216.47,73.76,216.47,75Z"/><path class="cls-19" d="M279.52,73.2c-7.37-1.58-9.84.64-13.24.64s-5.87-2.22-13.25-.64c-5.88,1.25-11.86,7.69-12.13,16.27-.66,21,13.44,30.28,25.38,30.55,11.94-.27,26-9.36,25.38-30.55C291.39,80.89,285.4,74.45,279.52,73.2Z"/><path class="cls-17" d="M255.15,85.38c-.61,2.18-1.47,3.93-4.16,3.93s-4.57-2-4.26-4.15a4.48,4.48,0,0,1,5.27-4C254.94,81.53,255.73,83.29,255.15,85.38Z"/><path class="cls-18" d="M272.68,75c0,1.24-2.78,2.88-6.21,2.88s-6.2-1.64-6.2-2.88,2.77-.63,6.2-.63S272.68,73.76,272.68,75Z"/><path class="cls-15" d="M244.72,12.82c-4.4,11.62-13.1,21.6-20.26,32.1a60,60,0,0,0-10.81,29.32c-.13,1-.22,2.08-.3,3.17a10.47,10.47,0,0,1-6.89-.24c.44-1,.87-1.92,1.28-2.87C212.56,63.46,216,52.88,223.27,43c4.57-6.37,9.72-12.5,13.65-19.33A27.51,27.51,0,0,0,240,12.33Z"/><path class="cls-15" d="M264.11,60.51c-2.87-7.44-6.7-14.32-10.58-21.27-4.13-7.47-9.56-17.87-8.87-24.71h-3.42c1.25,9.57,5.93,17.46,10.64,26.16,5.66,10.47,11.57,21.51,11.66,33.58a30.35,30.35,0,0,1-.14,3.14,9.45,9.45,0,0,0,3.06.47,11,11,0,0,0,3.15-.47C269.5,74.69,265.8,65,264.11,60.51Z"/><path class="cls-20" d="M244.19,14.7a2,2,0,0,0,1.41-.58,2,2,0,0,0,.58-1.41V3.86a3.86,3.86,0,0,0-7.72,0V12.8a1.88,1.88,0,0,0,.55,1.34,1.85,1.85,0,0,0,1.34.56Z"/><path class="cls-21" d="M168.27,144.15a11.83,11.83,0,0,0,2.44-3.05c3.3-6.21,1.93-9,2.8-12s3.49-4.69,4-11.7c.37-5.59-3.86-12.6-11.49-15-18.63-6-30.56,4.31-33.86,14.94a24,24,0,0,0,.51,13.56C145.16,133.6,156.12,142.38,168.27,144.15Z"/><path class="cls-17" d="M166,116.14c-1.8-1.1-3.15-2.32-2.46-4.73s3-3.58,4.81-2.76a4.18,4.18,0,0,1,2.22,5.74C169.51,117,167.73,117.2,166,116.14Z"/><path class="cls-18" d="M170.83,134.5c-1.12-.31-1.87-3.23-1-6.29s3.06-5.15,4.17-4.83-.15,2.64-1,5.72S172,134.83,170.83,134.5Z"/><path class="cls-15" d="M186,130.52a155.07,155.07,0,0,0,21.77-4.05c7.75-1.79,18.45-4,24.4-1.63l.88-3.07c-8.9-1.32-17.17.86-26.16,2.86-10.83,2.4-22.25,4.87-33.07,1.86a27.56,27.56,0,0,1-2.79-.92,9.38,9.38,0,0,0-1.2,2.63,10.81,10.81,0,0,0-.39,2.93C171.92,131.74,181.53,130.89,186,130.52Z"/><path class="cls-22" d="M259.62,138.62c4.42.23,8.83.53,13.22,1.11,7.42,1,14.84,3.94,22.31,4.43,4.45-3.3,6.77-8.37,6.44-12.6-.53-7-3.18-8.63-4.07-11.66s.43-5.84-2.93-12c-2.68-4.92-10-8.57-17.76-6.54-18.91,5-23.49,20-20.58,30.77A24.15,24.15,0,0,0,259.62,138.62Z"/><path class="cls-17" d="M284.26,113c-2.11,0-3.9-.27-4.61-2.67s.59-4.63,2.58-4.91a4.18,4.18,0,0,1,4.95,3.67C287.65,111.8,286.28,113,284.26,113Z"/><path class="cls-18" d="M298.17,125.92c-1.12.33-3.32-1.72-4.22-4.78s-.18-6,.93-6.31,1.29,2.32,2.2,5.38S299.28,125.59,298.17,125.92Z"/><path class="cls-15" d="M308.85,114.43a156.22,156.22,0,0,0,16.22-15.08c5.58-5.66,13.43-13.26,19.72-14.46l-.9-3c-8.22,3.65-14,9.91-20.56,16.43-7.86,7.83-16.17,16-26.92,19.29-.93.27-1.87.52-2.85.71a9.27,9.27,0,0,0,.39,2.86,10.62,10.62,0,0,0,1.25,2.69C297.61,123,305.27,117.14,308.85,114.43Z"/><path class="cls-13" d="M347.63,64.49c-18-.68-29.39-13.93-36.63-18.12,7.76-3.85,19.86-15.59,37.86-14.92s37.21,17.94,37.21,17.94S365.63,65.17,347.63,64.49Z"/><path class="cls-14" d="M311,46.37c7.76-3.85,19.86-15.59,37.86-14.92s37.21,17.94,37.21,17.94S328.35,51.48,311,46.37Z"/><path class="cls-15" d="M304.69,43.92s16,2.4,40.39,4.43c19,1.58,36.9.59,40.4.54.37.34.59.51.59.51s-.25.21-.71.54c-3.78.09-19.59.8-38.47.43-16-.31-42.88-4.11-42.88-4.11Z"/><path class="cls-23" d="M349.1,130.44a91.75,91.75,0,0,1,22.68-4c8.13-6.69,13.18-19.1,5.4-35-3.78-7.72-11.89-11.11-17.76-9.83-7.38,1.59-8.71,4.64-11.8,6s-6.27.39-12.34,4.86c-4.84,3.58-7.64,11.9-4.35,19.84C335.23,122.74,342,128.21,349.1,130.44Z"/><path class="cls-17" d="M342.23,102.75c.34,2.23.28,4.18-2.18,5.29s-5,0-5.59-2a4.49,4.49,0,0,1,3.17-5.81C340.45,99.32,341.9,100.6,342.23,102.75Z"/><path class="cls-18" d="M353.93,86.07c.51,1.14-1.35,3.78-4.47,5.19s-6.33,1.06-6.85-.07,2.28-1.72,5.4-3.13S353.41,84.93,353.93,86.07Z"/><path class="cls-15" d="M340.15,76.4c-5.68-5.6-12-10.3-18.41-15-6.84-5.1-16.07-12.35-18.26-18.86l-3.12,1.41c5.09,8.2,12.6,13.47,20.48,19.45,9.47,7.2,19.41,14.84,24.45,25.79a30.31,30.31,0,0,1,1.17,2.93,9.8,9.8,0,0,0,3-.84,11,11,0,0,0,2.68-1.72C350.9,87.09,343.55,79.81,340.15,76.4Z"/><path class="cls-20" d="M307.14,46.5a2,2,0,0,0,.37-2.78l-5.38-7a3.86,3.86,0,1,0-6.13,4.7l5.43,7.09a1.83,1.83,0,0,0,1.26.72,1.79,1.79,0,0,0,1.39-.37Z"/><path class="cls-24" d="M85.47,122.84A37.28,37.28,0,0,0,97.12,126c4.72.52,12.06,1.78,17.84,1.24a37.08,37.08,0,0,0,6-3.87c6.31-4.93,7.85-13,5.56-18.09-2.88-6.41-5.91-7-7.79-9.6s-1.55-5.64-6.81-10.31c-4.18-3.73-12.31-4.68-18.92-.15-16.12,11-15.35,26.77-9,35.9C84.48,121.73,85,122.3,85.47,122.84Z"/><path class="cls-17" d="M104,93.71c-2,.74-3.76,1.06-5.25-1s-1-4.55.78-5.49A4.17,4.17,0,0,1,105.37,89C106.73,91.44,105.84,93,104,93.71Z"/><path class="cls-18" d="M121.4,101.18c-.93.68-3.7-.51-5.58-3.08s-2.19-5.57-1.25-6.25,2,1.74,3.89,4.31S122.34,100.49,121.4,101.18Z"/><path class="cls-15" d="M127.58,86.75a155.62,155.62,0,0,0,10.16-19.67c3.34-7.23,8.17-17,13.69-20.28l-1.89-2.57c-6.5,6.22-9.86,14.08-13.79,22.41-4.75,10-9.81,20.55-18.83,27.26a28.68,28.68,0,0,1-2.44,1.62,9.07,9.07,0,0,0,1.34,2.57,10.62,10.62,0,0,0,2.08,2.1C119.89,98.61,125.12,90.51,127.58,86.75Z"/><path class="cls-20" d="M149.83,48.84a1.94,1.94,0,0,0,1.38.47,1.84,1.84,0,0,0,1.3-.65l5.59-6.35a3.7,3.7,0,0,0-5.55-4.88l-5.64,6.43a1.8,1.8,0,0,0,.16,2.55Z"/></g></g></svg>