<svg xmlns="http://www.w3.org/2000/svg" xmlns:xlink="http://www.w3.org/1999/xlink" viewBox="0 0 556.79 803.84"><defs><style>.cls-1{fill:url(#linear-gradient);}.cls-2{fill:#d4bfba;}.cls-108,.cls-3{fill:#496069;}.cls-3{opacity:0.7;}.cls-4{fill:url(#radial-gradient);}.cls-5{fill:url(#radial-gradient-2);}.cls-6{fill:url(#radial-gradient-3);}.cls-7{fill:url(#radial-gradient-4);}.cls-8{fill:url(#radial-gradient-5);}.cls-9{fill:url(#radial-gradient-6);}.cls-10{fill:url(#radial-gradient-7);}.cls-11{fill:url(#radial-gradient-8);}.cls-12{fill:url(#radial-gradient-9);}.cls-13{fill:url(#radial-gradient-10);}.cls-14{fill:url(#radial-gradient-11);}.cls-15{fill:url(#radial-gradient-12);}.cls-16{fill:url(#radial-gradient-13);}.cls-17{fill:url(#radial-gradient-14);}.cls-18{fill:url(#radial-gradient-15);}.cls-19{fill:url(#radial-gradient-16);}.cls-20{fill:url(#radial-gradient-17);}.cls-21{fill:url(#radial-gradient-18);}.cls-22{fill:url(#radial-gradient-19);}.cls-23{fill:url(#radial-gradient-20);}.cls-24{fill:url(#radial-gradient-21);}.cls-25{fill:url(#radial-gradient-22);}.cls-26{fill:url(#radial-gradient-23);}.cls-27{fill:url(#radial-gradient-24);}.cls-28{fill:url(#radial-gradient-25);}.cls-29{fill:url(#radial-gradient-26);}.cls-30{fill:url(#radial-gradient-27);}.cls-31{fill:url(#radial-gradient-28);}.cls-32{fill:url(#radial-gradient-29);}.cls-33{fill:url(#radial-gradient-30);}.cls-34{fill:url(#radial-gradient-31);}.cls-35{fill:url(#radial-gradient-32);}.cls-36{fill:url(#radial-gradient-33);}.cls-37{fill:url(#radial-gradient-34);}.cls-38{fill:url(#radial-gradient-35);}.cls-39{fill:url(#radial-gradient-36);}.cls-40{fill:url(#radial-gradient-37);}.cls-41{fill:url(#radial-gradient-38);}.cls-42{fill:url(#radial-gradient-39);}.cls-43{fill:url(#radial-gradient-40);}.cls-44{fill:url(#radial-gradient-41);}.cls-45{fill:url(#radial-gradient-42);}.cls-46{fill:url(#radial-gradient-43);}.cls-47{fill:url(#radial-gradient-44);}.cls-48{fill:url(#radial-gradient-45);}.cls-49{fill:url(#radial-gradient-46);}.cls-50{fill:url(#radial-gradient-47);}.cls-51{fill:url(#radial-gradient-48);}.cls-52{fill:url(#radial-gradient-49);}.cls-53{fill:url(#radial-gradient-50);}.cls-54{fill:url(#radial-gradient-51);}.cls-55{fill:url(#radial-gradient-52);}.cls-56{fill:url(#radial-gradient-53);}.cls-57{fill:url(#radial-gradient-54);}.cls-58{fill:url(#radial-gradient-55);}.cls-59{fill:url(#radial-gradient-56);}.cls-60{fill:url(#radial-gradient-57);}.cls-61{fill:url(#radial-gradient-58);}.cls-62{fill:url(#radial-gradient-59);}.cls-63{fill:url(#linear-gradient-2);}.cls-64{fill:#d477a1;}.cls-65{fill:url(#linear-gradient-3);}.cls-66{fill:#ffc1e1;}.cls-67{fill:#fc8cbe;}.cls-68{fill:#ffdcee;}.cls-69{fill:url(#linear-gradient-4);}.cls-70{fill:url(#radial-gradient-60);}.cls-71{fill:url(#radial-gradient-61);}.cls-72{fill:url(#radial-gradient-62);}.cls-73{fill:url(#radial-gradient-63);}.cls-74{fill:url(#radial-gradient-64);}.cls-75{fill:url(#radial-gradient-65);}.cls-76{fill:url(#radial-gradient-66);}.cls-77{fill:url(#radial-gradient-67);}.cls-78{fill:url(#radial-gradient-68);}.cls-79{fill:url(#radial-gradient-69);}.cls-80{fill:url(#radial-gradient-70);}.cls-81{fill:url(#radial-gradient-71);}.cls-82{fill:url(#radial-gradient-72);}.cls-83{fill:url(#radial-gradient-73);}.cls-84{fill:url(#radial-gradient-74);}.cls-85{fill:url(#radial-gradient-75);}.cls-86{fill:url(#radial-gradient-76);}.cls-87{fill:url(#radial-gradient-77);}.cls-88{fill:url(#radial-gradient-78);}.cls-89{fill:url(#radial-gradient-79);}.cls-90{fill:url(#radial-gradient-80);}.cls-91{fill:url(#radial-gradient-81);}.cls-92{fill:url(#radial-gradient-82);}.cls-93{fill:url(#radial-gradient-83);}.cls-94{fill:url(#radial-gradient-84);}.cls-95{fill:url(#radial-gradient-85);}.cls-96{fill:url(#radial-gradient-86);}.cls-97{fill:url(#radial-gradient-87);}.cls-98{fill:url(#radial-gradient-88);}.cls-99{fill:url(#radial-gradient-89);}.cls-100{fill:url(#radial-gradient-90);}.cls-101{fill:url(#radial-gradient-91);}.cls-102{fill:url(#radial-gradient-92);}.cls-103{fill:url(#radial-gradient-93);}.cls-104{fill:url(#radial-gradient-94);}.cls-105{fill:url(#radial-gradient-95);}.cls-106{fill:url(#radial-gradient-96);}.cls-107{fill:url(#radial-gradient-97);}.cls-108{opacity:0.5;}.cls-109{fill:url(#linear-gradient-5);}.cls-110{fill:url(#linear-gradient-6);}.cls-111{fill:#ffbade;}.cls-112{fill:url(#linear-gradient-7);}.cls-113{fill:url(#linear-gradient-8);}.cls-114{fill:url(#linear-gradient-9);}.cls-115{fill:url(#radial-gradient-98);}.cls-116{fill:url(#radial-gradient-99);}.cls-117{fill:url(#radial-gradient-100);}.cls-118{fill:url(#radial-gradient-101);}.cls-119{fill:url(#radial-gradient-102);}.cls-120{fill:url(#radial-gradient-103);}.cls-121{fill:url(#radial-gradient-104);}.cls-122{fill:url(#radial-gradient-105);}.cls-123{fill:url(#radial-gradient-106);}.cls-124{fill:url(#radial-gradient-107);}.cls-125{fill:url(#radial-gradient-108);}.cls-126{fill:url(#radial-gradient-109);}.cls-127{fill:url(#radial-gradient-110);}.cls-128{fill:url(#radial-gradient-111);}.cls-129{fill:url(#radial-gradient-112);}.cls-130{fill:url(#radial-gradient-113);}.cls-131{fill:url(#radial-gradient-114);}.cls-132{fill:url(#radial-gradient-115);}.cls-133{fill:url(#radial-gradient-116);}.cls-134{fill:url(#radial-gradient-117);}.cls-135{fill:url(#radial-gradient-118);}.cls-136{fill:url(#radial-gradient-119);}.cls-137{fill:url(#radial-gradient-120);}.cls-138{fill:url(#radial-gradient-121);}.cls-139{fill:url(#radial-gradient-122);}.cls-140{fill:url(#radial-gradient-123);}.cls-141{fill:url(#radial-gradient-124);}.cls-142{fill:url(#radial-gradient-125);}.cls-143{fill:url(#linear-gradient-10);}.cls-144{fill:url(#linear-gradient-11);}</style><linearGradient id="linear-gradient" x1="12.64" y1="624.61" x2="540.57" y2="624.61" gradientUnits="userSpaceOnUse"><stop offset="0.22" stop-color="#ffe6df"/><stop offset="0.72" stop-color="#ddced1"/></linearGradient><radialGradient id="radial-gradient" cx="109.43" cy="749.17" r="10.78" gradientUnits="userSpaceOnUse"><stop offset="0" stop-color="#ffdf78"/><stop offset="0.99" stop-color="#ffc022"/></radialGradient><radialGradient id="radial-gradient-2" cx="39.95" cy="727.61" r="10.78" gradientUnits="userSpaceOnUse"><stop offset="0" stop-color="#ff9cd7"/><stop offset="0.9" stop-color="#eb71b1"/></radialGradient><radialGradient id="radial-gradient-3" cx="17.48" cy="715.63" r="10.78" gradientUnits="userSpaceOnUse"><stop offset="0" stop-color="#6fd1bf"/><stop offset="0.83" stop-color="#52b899"/></radialGradient><radialGradient id="radial-gradient-4" cx="18.38" cy="685.98" r="10.78" xlink:href="#radial-gradient"/><radialGradient id="radial-gradient-5" cx="71.39" cy="704.84" r="10.78" xlink:href="#radial-gradient"/><radialGradient id="radial-gradient-6" cx="93.85" cy="733.59" r="10.78" xlink:href="#radial-gradient-2"/><radialGradient id="radial-gradient-7" cx="130.09" cy="717.72" r="10.78" xlink:href="#radial-gradient-3"/><radialGradient id="radial-gradient-8" cx="66" cy="738.09" r="10.78" xlink:href="#radial-gradient-3"/><radialGradient id="radial-gradient-9" cx="18.98" cy="740.19" r="10.78" xlink:href="#radial-gradient-2"/><radialGradient id="radial-gradient-10" cx="136.06" cy="1497.93" r="10.78" gradientTransform="translate(651.3 -629.18) rotate(26.57)" xlink:href="#radial-gradient-3"/><radialGradient id="radial-gradient-11" cx="159.36" cy="1460.15" r="10.78" gradientTransform="translate(651.3 -629.18) rotate(26.57)" xlink:href="#radial-gradient-2"/><radialGradient id="radial-gradient-12" cx="117.58" cy="1493.1" r="10.78" gradientTransform="translate(651.3 -629.18) rotate(26.57)" xlink:href="#radial-gradient-2"/><radialGradient id="radial-gradient-13" cx="67.22" cy="1506.23" r="10.78" gradientTransform="translate(651.3 -629.18) rotate(26.57)" xlink:href="#radial-gradient-2"/><radialGradient id="radial-gradient-14" cx="152.4" cy="1403.37" r="10.78" gradientTransform="translate(651.3 -629.18) rotate(26.57)" xlink:href="#radial-gradient-2"/><radialGradient id="radial-gradient-15" cx="123.8" cy="776.72" r="10.78" xlink:href="#radial-gradient"/><radialGradient id="radial-gradient-16" cx="259.17" cy="785.7" r="10.78" xlink:href="#radial-gradient"/><radialGradient id="radial-gradient-17" cx="195.68" cy="740.19" r="10.78" xlink:href="#radial-gradient-2"/><radialGradient id="radial-gradient-18" cx="244.19" cy="769.53" r="10.78" xlink:href="#radial-gradient-2"/><radialGradient id="radial-gradient-19" cx="149.86" cy="780.31" r="10.78" xlink:href="#radial-gradient-3"/><radialGradient id="radial-gradient-20" cx="171.42" cy="727.3" r="10.78" xlink:href="#radial-gradient"/><radialGradient id="radial-gradient-21" cx="227.12" cy="707.84" r="10.78" xlink:href="#radial-gradient"/><radialGradient id="radial-gradient-22" cx="247.79" cy="750.97" r="10.78" xlink:href="#radial-gradient-2"/><radialGradient id="radial-gradient-23" cx="281.63" cy="742.28" r="10.78" xlink:href="#radial-gradient-3"/><radialGradient id="radial-gradient-24" cx="222.63" cy="761.75" r="10.78" xlink:href="#radial-gradient-3"/><radialGradient id="radial-gradient-25" cx="231.91" cy="788.4" r="10.78" xlink:href="#radial-gradient-2"/><radialGradient id="radial-gradient-26" cx="198.97" cy="765.64" r="10.78" xlink:href="#radial-gradient"/><radialGradient id="radial-gradient-27" cx="169.02" cy="760.25" r="10.78" xlink:href="#radial-gradient-2"/><radialGradient id="radial-gradient-28" cx="221.25" cy="1470.07" r="10.78" gradientTransform="translate(651.3 -629.18) rotate(26.57)" xlink:href="#radial-gradient-3"/><radialGradient id="radial-gradient-29" cx="298.13" cy="1418.9" r="10.78" gradientTransform="translate(651.3 -629.18) rotate(26.57)" xlink:href="#radial-gradient-2"/><radialGradient id="radial-gradient-30" cx="308.28" cy="789.3" r="10.78" xlink:href="#radial-gradient"/><radialGradient id="radial-gradient-31" cx="316.88" cy="1388.1" r="10.78" gradientTransform="translate(651.3 -629.18) rotate(26.57)" xlink:href="#radial-gradient-2"/><radialGradient id="radial-gradient-32" cx="286.07" cy="1342.56" r="10.78" gradientTransform="translate(651.3 -629.18) rotate(26.57)" xlink:href="#radial-gradient-2"/><radialGradient id="radial-gradient-33" cx="447.54" cy="763.84" r="10.78" xlink:href="#radial-gradient"/><radialGradient id="radial-gradient-34" cx="378.66" cy="748.87" r="10.78" xlink:href="#radial-gradient-2"/><radialGradient id="radial-gradient-35" cx="341.53" cy="779.72" r="10.78" xlink:href="#radial-gradient-3"/><radialGradient id="radial-gradient-36" cx="360.1" cy="711.13" r="10.78" xlink:href="#radial-gradient"/><radialGradient id="radial-gradient-37" cx="423.59" cy="714.43" r="10.78" xlink:href="#radial-gradient"/><radialGradient id="radial-gradient-38" cx="442.75" cy="728.51" r="10.78" xlink:href="#radial-gradient-2"/><radialGradient id="radial-gradient-39" cx="443.95" cy="682.38" r="10.78" xlink:href="#radial-gradient-3"/><radialGradient id="radial-gradient-40" cx="423.59" cy="778.82" r="10.78" xlink:href="#radial-gradient-2"/><radialGradient id="radial-gradient-41" cx="400.82" cy="762.05" r="10.78" xlink:href="#radial-gradient"/><radialGradient id="radial-gradient-42" cx="360.7" cy="759.65" r="10.78" xlink:href="#radial-gradient-2"/><radialGradient id="radial-gradient-43" cx="385.45" cy="1385.95" r="10.78" gradientTransform="translate(651.3 -629.18) rotate(26.57)" xlink:href="#radial-gradient-3"/><radialGradient id="radial-gradient-44" cx="466.09" cy="1326.22" r="10.78" gradientTransform="translate(651.3 -629.18) rotate(26.57)" xlink:href="#radial-gradient-2"/><radialGradient id="radial-gradient-45" cx="473" cy="740.19" r="10.78" xlink:href="#radial-gradient"/><radialGradient id="radial-gradient-46" cx="531.4" cy="720.42" r="10.78" xlink:href="#radial-gradient"/><radialGradient id="radial-gradient-47" cx="425.98" cy="751.27" r="10.78" xlink:href="#radial-gradient-3"/><radialGradient id="radial-gradient-48" cx="515.83" cy="698.26" r="10.78" xlink:href="#radial-gradient-2"/><radialGradient id="radial-gradient-49" cx="497.26" cy="758.45" r="10.78" gradientTransform="translate(187.14 -94.4) rotate(13.22)" xlink:href="#radial-gradient-3"/><radialGradient id="radial-gradient-50" cx="504.45" cy="666.81" r="10.78" xlink:href="#radial-gradient"/><radialGradient id="radial-gradient-51" cx="484.68" cy="715.33" r="10.78" gradientTransform="translate(241.34 -114.56) rotate(17.71)" xlink:href="#radial-gradient-2"/><radialGradient id="radial-gradient-52" cx="509.24" cy="729.1" r="10.78" xlink:href="#radial-gradient-2"/><radialGradient id="radial-gradient-53" cx="499.97" cy="1288.18" r="10.78" gradientTransform="translate(651.3 -629.18) rotate(26.57)" xlink:href="#radial-gradient-3"/><radialGradient id="radial-gradient-54" cx="168.72" cy="784.51" r="10.78" xlink:href="#radial-gradient-2"/><radialGradient id="radial-gradient-55" cx="276.54" cy="791.1" r="10.78" xlink:href="#radial-gradient-2"/><radialGradient id="radial-gradient-56" cx="325.06" cy="789.3" r="10.78" xlink:href="#radial-gradient-2"/><radialGradient id="radial-gradient-57" cx="389.14" cy="783.91" r="10.78" xlink:href="#radial-gradient-2"/><radialGradient id="radial-gradient-58" cx="49.83" cy="761.45" r="10.78" xlink:href="#radial-gradient"/><radialGradient id="radial-gradient-59" cx="70.79" cy="765.64" r="10.78" xlink:href="#radial-gradient-2"/><linearGradient id="linear-gradient-2" y1="631.1" x2="556.79" y2="631.1" gradientUnits="userSpaceOnUse"><stop offset="0.32" stop-color="#ffbade"/><stop offset="0.76" stop-color="#ff93c7"/></linearGradient><linearGradient id="linear-gradient-3" x1="10.43" y1="512.55" x2="543.5" y2="512.55" gradientUnits="userSpaceOnUse"><stop offset="0.2" stop-color="#ffdcee"/><stop offset="0.78" stop-color="#ffc6e2"/></linearGradient><linearGradient id="linear-gradient-4" x1="101.01" y1="398.22" x2="452.19" y2="398.22" xlink:href="#linear-gradient"/><radialGradient id="radial-gradient-60" cx="138.47" cy="448.19" r="10.78" xlink:href="#radial-gradient-2"/><radialGradient id="radial-gradient-61" cx="185.79" cy="468.55" r="10.78" gradientTransform="matrix(1, 0.02, -0.02, 1, 10.72, -4.18)" xlink:href="#radial-gradient-2"/><radialGradient id="radial-gradient-62" cx="114.22" cy="435.31" r="10.78" xlink:href="#radial-gradient"/><radialGradient id="radial-gradient-63" cx="191.48" cy="442.19" r="10.78" xlink:href="#radial-gradient"/><radialGradient id="radial-gradient-64" cx="138.18" cy="473.04" r="10.78" xlink:href="#radial-gradient"/><radialGradient id="radial-gradient-65" cx="106.13" cy="465.56" r="10.78" xlink:href="#radial-gradient-3"/><radialGradient id="radial-gradient-66" cx="111.52" cy="492.51" r="10.78" xlink:href="#radial-gradient-2"/><radialGradient id="radial-gradient-67" cx="382.85" cy="488.32" r="10.78" xlink:href="#radial-gradient"/><radialGradient id="radial-gradient-68" cx="332.54" cy="460.16" r="10.78" xlink:href="#radial-gradient-2"/><radialGradient id="radial-gradient-69" cx="356.5" cy="491.31" r="10.78" xlink:href="#radial-gradient-2"/><radialGradient id="radial-gradient-70" cx="366.09" cy="514.07" r="10.78" xlink:href="#radial-gradient-2"/><radialGradient id="radial-gradient-71" cx="431.67" cy="448.78" r="10.78" xlink:href="#radial-gradient-2"/><radialGradient id="radial-gradient-72" cx="332.54" cy="493.11" r="10.78" xlink:href="#radial-gradient"/><radialGradient id="radial-gradient-73" cx="303.79" cy="493.71" r="10.78" xlink:href="#radial-gradient-2"/><radialGradient id="radial-gradient-74" cx="216.42" cy="1172.46" r="10.78" gradientTransform="translate(651.3 -629.18) rotate(26.57)" xlink:href="#radial-gradient-3"/><radialGradient id="radial-gradient-75" cx="302.14" cy="1109.51" r="10.78" gradientTransform="translate(651.3 -629.18) rotate(26.57)" xlink:href="#radial-gradient-2"/><radialGradient id="radial-gradient-76" cx="423.14" cy="472.14" r="10.78" xlink:href="#radial-gradient"/><radialGradient id="radial-gradient-77" cx="379.86" cy="452.98" r="10.78" xlink:href="#radial-gradient-3"/><radialGradient id="radial-gradient-78" cx="394.84" cy="507.48" r="10.78" xlink:href="#radial-gradient-3"/><radialGradient id="radial-gradient-79" cx="339.43" cy="516.77" r="10.78" xlink:href="#radial-gradient-2"/><radialGradient id="radial-gradient-80" cx="277.74" cy="497.9" r="10.78" xlink:href="#radial-gradient"/><radialGradient id="radial-gradient-81" cx="193.58" cy="490.11" r="10.78" xlink:href="#radial-gradient"/><radialGradient id="radial-gradient-82" cx="163.93" cy="479.93" r="10.78" xlink:href="#radial-gradient-3"/><radialGradient id="radial-gradient-83" cx="246.14" cy="456.87" r="10.78" xlink:href="#radial-gradient"/><radialGradient id="radial-gradient-84" cx="261.86" cy="479.33" r="10.78" xlink:href="#radial-gradient-2"/><radialGradient id="radial-gradient-85" cx="298.1" cy="463.46" r="10.78" xlink:href="#radial-gradient-3"/><radialGradient id="radial-gradient-86" cx="441.85" cy="480.53" r="10.78" xlink:href="#radial-gradient-3"/><radialGradient id="radial-gradient-87" cx="222.63" cy="473.64" r="10.78" xlink:href="#radial-gradient-3"/><radialGradient id="radial-gradient-88" cx="185.79" cy="512.88" r="10.78" xlink:href="#radial-gradient-2"/><radialGradient id="radial-gradient-89" cx="172.76" cy="1198.98" r="10.78" gradientTransform="translate(651.3 -629.18) rotate(26.57)" xlink:href="#radial-gradient-3"/><radialGradient id="radial-gradient-90" cx="145.84" cy="1187.99" r="10.78" gradientTransform="translate(651.3 -629.18) rotate(26.57)" xlink:href="#radial-gradient-2"/><radialGradient id="radial-gradient-91" cx="114.09" cy="1202.86" r="10.78" gradientTransform="translate(651.3 -629.18) rotate(26.57)" xlink:href="#radial-gradient-2"/><radialGradient id="radial-gradient-92" cx="294.81" cy="518.27" r="10.78" xlink:href="#radial-gradient"/><radialGradient id="radial-gradient-93" cx="212.75" cy="518.27" r="10.78" xlink:href="#radial-gradient"/><radialGradient id="radial-gradient-94" cx="241.8" cy="520.96" r="10.78" xlink:href="#radial-gradient-2"/><radialGradient id="radial-gradient-95" cx="167.53" cy="502.99" r="10.78" xlink:href="#radial-gradient-2"/><radialGradient id="radial-gradient-96" cx="35.2" cy="1235.27" r="10.78" gradientTransform="translate(651.3 -629.18) rotate(26.57)" xlink:href="#radial-gradient-2"/><radialGradient id="radial-gradient-97" cx="144.47" cy="506.88" r="10.78" xlink:href="#radial-gradient-3"/><linearGradient id="linear-gradient-5" x1="90.63" y1="381.17" x2="463.12" y2="381.17" xlink:href="#linear-gradient-2"/><linearGradient id="linear-gradient-6" x1="98.1" y1="306.26" x2="455.59" y2="306.26" xlink:href="#linear-gradient-3"/><linearGradient id="linear-gradient-7" x1="145.94" y1="193.37" x2="407.26" y2="193.37" xlink:href="#linear-gradient"/><linearGradient id="linear-gradient-8" x1="136.86" y1="173.86" x2="415.58" y2="173.86" xlink:href="#linear-gradient-2"/><linearGradient id="linear-gradient-9" x1="142.77" y1="103.07" x2="410.79" y2="103.07" xlink:href="#linear-gradient-3"/><radialGradient id="radial-gradient-98" cx="184.3" cy="240.64" r="10.78" xlink:href="#radial-gradient-2"/><radialGradient id="radial-gradient-99" cx="227.42" cy="252.02" r="10.78" xlink:href="#radial-gradient-2"/><radialGradient id="radial-gradient-100" cx="157.64" cy="222.97" r="10.78" xlink:href="#radial-gradient"/><radialGradient id="radial-gradient-101" cx="242.1" cy="230.46" r="10.78" xlink:href="#radial-gradient"/><radialGradient id="radial-gradient-102" cx="172.62" cy="262.5" r="10.78" xlink:href="#radial-gradient"/><radialGradient id="radial-gradient-103" cx="151.35" cy="252.62" r="10.78" xlink:href="#radial-gradient-3"/><radialGradient id="radial-gradient-104" cx="155.54" cy="280.77" r="10.78" xlink:href="#radial-gradient-2"/><radialGradient id="radial-gradient-105" cx="364.29" cy="230.76" r="10.78" xlink:href="#radial-gradient-2"/><radialGradient id="radial-gradient-106" cx="398.13" cy="253.82" r="10.78" xlink:href="#radial-gradient-2"/><radialGradient id="radial-gradient-107" cx="376.57" cy="263.4" r="10.78" xlink:href="#radial-gradient"/><radialGradient id="radial-gradient-108" cx="352.01" cy="280.17" r="10.78" xlink:href="#radial-gradient-2"/><radialGradient id="radial-gradient-109" cx="161.64" cy="949.72" r="10.78" gradientTransform="translate(651.3 -629.18) rotate(26.57)" xlink:href="#radial-gradient-3"/><radialGradient id="radial-gradient-110" cx="396.03" cy="281.07" r="10.78" xlink:href="#radial-gradient-2"/><radialGradient id="radial-gradient-111" cx="236.71" cy="273.29" r="10.78" xlink:href="#radial-gradient"/><radialGradient id="radial-gradient-112" cx="197.77" cy="270.89" r="10.78" xlink:href="#radial-gradient-3"/><radialGradient id="radial-gradient-113" cx="296.75" cy="245.13" r="10.78" xlink:href="#radial-gradient"/><radialGradient id="radial-gradient-114" cx="343.32" cy="252.32" r="10.78" xlink:href="#radial-gradient-3"/><radialGradient id="radial-gradient-115" cx="261.86" cy="259.51" r="10.78" xlink:href="#radial-gradient-3"/><radialGradient id="radial-gradient-116" cx="237.3" cy="300.84" r="10.78" xlink:href="#radial-gradient-2"/><radialGradient id="radial-gradient-117" cx="115.3" cy="978.92" r="10.78" gradientTransform="translate(651.3 -629.18) rotate(26.57)" xlink:href="#radial-gradient-3"/><radialGradient id="radial-gradient-118" cx="83.82" cy="968.2" r="10.78" gradientTransform="translate(651.3 -629.18) rotate(26.57)" xlink:href="#radial-gradient-2"/><radialGradient id="radial-gradient-119" cx="61.86" cy="986.55" r="10.78" gradientTransform="translate(651.3 -629.18) rotate(26.57)" xlink:href="#radial-gradient-2"/><radialGradient id="radial-gradient-120" cx="336.44" cy="300.54" r="10.78" xlink:href="#radial-gradient"/><radialGradient id="radial-gradient-121" cx="263.36" cy="306.53" r="10.78" xlink:href="#radial-gradient"/><radialGradient id="radial-gradient-122" cx="288.82" cy="302.04" r="10.78" xlink:href="#radial-gradient-2"/><radialGradient id="radial-gradient-123" cx="217.54" cy="297.25" r="10.78" xlink:href="#radial-gradient-2"/><radialGradient id="radial-gradient-124" cx="-14.49" cy="1030.75" r="10.78" gradientTransform="translate(651.3 -629.18) rotate(26.57)" xlink:href="#radial-gradient-2"/><radialGradient id="radial-gradient-125" cx="195.08" cy="295.15" r="10.78" xlink:href="#radial-gradient-3"/><linearGradient id="linear-gradient-10" x1="224.54" y1="50.31" x2="330.59" y2="50.31" gradientUnits="userSpaceOnUse"><stop offset="0.08" stop-color="#fff8d1"/><stop offset="0.74" stop-color="#fae7b1"/></linearGradient><linearGradient id="linear-gradient-11" x1="234.42" y1="50.21" x2="320.71" y2="50.21" gradientUnits="userSpaceOnUse"><stop offset="0.13" stop-color="#fde8ae"/><stop offset="0.67" stop-color="#e0c88d"/></linearGradient></defs><g id="Layer_2" data-name="Layer 2"><g id="Layer_1-2" data-name="Layer 1"><path class="cls-1" d="M540.27,532.12c0-24.45-10.86-48.56-53.94-61.81-48.21-15.05-124.17-24.79-209.73-24.92-85.56.13-161.52,9.87-209.73,24.92C23.79,483.56,13,507.67,12.93,532.12l-.29,213.36h0c.32,32.12,118.21,58.15,264,58.36,145.75-.21,263.63-26.24,263.95-58.36h0Z"/><path class="cls-2" d="M540.27,532.12c0-24.45-10.86-48.56-53.94-61.81-48.21-15.05-124.17-24.79-209.73-24.92-85.56.13-161.52,9.87-209.73,24.92a107.51,107.51,0,0,0-27.19,12.23,1016.19,1016.19,0,0,1,116.53-6.61c85.56.14,161.52,9.88,209.72,24.93,43.09,13.25,53.91,37.36,53.95,61.81L420.17,776h0c-.07,7.24-6.17,14.17-17.17,20.57,81.85-9.94,137.35-29.1,137.57-51.12h0Z"/><path class="cls-3" d="M540.55,736.49c-.32,32.12-118.2,58.15-263.95,58.37-145.74-.22-263.63-26.25-264-58.37h0v9h0c.32,32.12,118.21,58.15,264,58.36,145.75-.21,263.63-26.24,263.95-58.36h0l0-9Z"/><path class="cls-3" d="M294.75,803.67a14.27,14.27,0,0,0,2.75-8.38,14,14,0,0,0-.73-4.51,14.38,14.38,0,1,0-22.31-12.29,13.93,13.93,0,0,0-9.42-3,15.6,15.6,0,0,0,.12-1.82,14.14,14.14,0,0,0-2-7.23,14.24,14.24,0,0,0,5.58-11.33,14.38,14.38,0,1,0-28.75,0c0,.46,0,.91.06,1.36a14.35,14.35,0,0,0-24,3.54,14.4,14.4,0,0,0-5.77-3.78,14.37,14.37,0,1,0-18.2-22.09,14.1,14.1,0,0,0,.25-2.69,14.39,14.39,0,1,0-4.24,10.18,14.13,14.13,0,0,0-.25,2.7,14.4,14.4,0,0,0,9.61,13.56,14.37,14.37,0,0,0-4.67,18.56,14.46,14.46,0,0,0-6,3.68,14.37,14.37,0,0,0-3.7-3.51,14.38,14.38,0,1,0-19.86-4.81,14.41,14.41,0,0,0-19.1,5.1,14.38,14.38,0,0,0-23.14-7,14.46,14.46,0,0,0-1.87-2.59,14.41,14.41,0,0,0,11.19-14A14.57,14.57,0,0,0,114.76,739q.06-.62.06-1.26a14.37,14.37,0,0,0-28.74-.49,14.37,14.37,0,0,0-25.36-3.1,15.73,15.73,0,0,0,.19-2.39,14.39,14.39,0,0,0-14.37-14.38,14.24,14.24,0,0,0-8.09,2.5v-.11a14.33,14.33,0,0,0-25.77-8.66l0,17.21a14.38,14.38,0,0,0,4.75,4.19,14.47,14.47,0,0,0-4.76,5.69v7.24h0c0,3.54,1.58,7,4.37,10.38a14.23,14.23,0,0,0,8.55,2.89,13.84,13.84,0,0,0,4.05-.6,14.32,14.32,0,0,0,7.2,8.37A14,14,0,0,0,42.23,768a14.29,14.29,0,0,0,1.84,5c5.18,2.12,11,4.16,17.26,6.12A14.44,14.44,0,0,0,65,777.13a14.22,14.22,0,0,0,4,4.19Q73.8,782.7,79,784a14.2,14.2,0,0,0,10.18-6.07,13.48,13.48,0,0,0,5.05.85,14.19,14.19,0,0,0,6.2,10c3.72.73,7.55,1.45,11.45,2.14.39-.1.78-.14,1.16-.27a14.64,14.64,0,0,0,4.8-2.7,14.23,14.23,0,0,0,4.42,4.71q6.09,1,12.43,1.88a14.51,14.51,0,0,0,7.9-6.09,14.38,14.38,0,0,0,5.79,7.91q6.38.78,13,1.51a13.92,13.92,0,0,0,2.18-.91,14.7,14.7,0,0,0,1.12,1.25q9.48,1,19.37,1.82a16.38,16.38,0,0,0,1.56-1.31,14.28,14.28,0,0,0,1.46,1.56c6.13.5,12.39.93,18.74,1.33a14.18,14.18,0,0,0,4.22-5,14.35,14.35,0,0,0-.12-13.09,14.42,14.42,0,0,0,8.77-7.83,14.73,14.73,0,0,0,12.6,4.46,14.34,14.34,0,0,0-2.88,22.62q9.61.4,19.47.67a14.39,14.39,0,0,0,4.69-7.86,14.4,14.4,0,0,0,9.62,8.13c2.32,0,4.67,0,7,.06a13.69,13.69,0,0,0,2-.6c.14.23.36.4.52.62,1.64,0,3.26,0,4.91,0Q285.77,803.83,294.75,803.67ZM57.38,751.3A14.26,14.26,0,0,0,54,744.1a14.35,14.35,0,0,0,4.45-4.22,15.76,15.76,0,0,0-.19,2.4,14.31,14.31,0,0,0,4.5,10.43A14.51,14.51,0,0,0,57.38,751.3Zm11.43,7a14.68,14.68,0,0,0-2.51-3.14,14.28,14.28,0,0,0,5.46,1.43A14.18,14.18,0,0,0,68.81,758.34Zm20.8-7.53a14.16,14.16,0,0,0-7.33,5.53,13.8,13.8,0,0,0-4-.85A14.42,14.42,0,0,0,87,742.77,14.54,14.54,0,0,0,93,750.11,14.23,14.23,0,0,0,89.61,750.81Zm12.08,1.38-.13-.07.13,0Zm134.75,26.17c.21-.12.42-.24.61-.37l.09.29Z"/><path class="cls-3" d="M538,710.23a14.3,14.3,0,0,0-3.84.53,14.34,14.34,0,1,0-7.88,5.54,14.12,14.12,0,0,0-2.3,5.15,14.36,14.36,0,0,0-19,2.42,14.38,14.38,0,1,0-28.08-4.35,14.34,14.34,0,0,0,4.69,10.62,14.6,14.6,0,0,0-2-.14,14.38,14.38,0,0,0-4.91,27.89,14.27,14.27,0,0,0-6.74,6.13,14.41,14.41,0,0,0-13.81-10.36,14.23,14.23,0,0,0-7.18,1.93v-.13a14.35,14.35,0,0,0-3.91-9.85,14.37,14.37,0,1,0,1.51-26.47v-.52A14.36,14.36,0,1,0,435,732.18v.52a14.28,14.28,0,0,0,3.91,9.84,14.37,14.37,0,0,0-20.68,12.92c0,.46,0,.91.06,1.36a14.32,14.32,0,0,0-18.67-2.63c0-.37,0-.75,0-1.13a14.37,14.37,0,0,0-28.18-4l-1.26.7a14,14,0,0,0-2.9-.3,14.4,14.4,0,0,0-14.38,14.38,14.26,14.26,0,0,0,2.09,7.45,14.23,14.23,0,0,0-20.41,8.14,14.38,14.38,0,0,0-11.33,2.43,14.21,14.21,0,0,0-8.39-2.75,14.36,14.36,0,0,0-10.3,24.37c13.18-.33,26.07-.86,38.6-1.59a14.94,14.94,0,0,0,2-3.92,14.57,14.57,0,0,0,17.32-14.06,14.31,14.31,0,0,0-2.08-7.45,14.9,14.9,0,0,0,12.29.69,14.38,14.38,0,0,0,.1,22.57Q391,798.13,407.72,796A14.3,14.3,0,0,0,408,780.6a14.27,14.27,0,0,0,9.26-3.89,14.24,14.24,0,0,0,3.95,17.45q10.91-1.59,21-3.4a14.24,14.24,0,0,0,1.32-13A14.37,14.37,0,0,0,466.68,775c.05.18.11.36.17.54a14.33,14.33,0,0,0,7.21,8.31c.08,0,.16.05.23.09q9.69-2.43,18.15-5.08a15.13,15.13,0,0,0,.9-1.44,14.2,14.2,0,0,0,1.28-3.8,14.3,14.3,0,0,0,5.3,2.76,162.67,162.67,0,0,0,16.33-6.64,14.14,14.14,0,0,0,2-6.9,13.55,13.55,0,0,0,5.42,3c10.78-6.32,16.75-13.16,16.88-20.3a14.22,14.22,0,0,0-6.29-6.29,14.55,14.55,0,0,0-4.79-1.42,13.74,13.74,0,0,0,.4-1.43,14.09,14.09,0,0,0,10.7,2.28l0-28.24A14.09,14.09,0,0,0,538,710.23ZM388.46,775.74l-.37-.2a14.27,14.27,0,0,0-11.88-.43,14.47,14.47,0,0,0,4.88-7.23l1.22-.75a14.8,14.8,0,0,0,10.77-2c0,.37,0,.75,0,1.13a14.33,14.33,0,0,0,2.11,7.5A14.17,14.17,0,0,0,388.46,775.74Zm31.87-3.2a14.3,14.3,0,0,0,1.46-6.3q0-.69-.06-1.35a14.34,14.34,0,0,0,5.72,4A14.39,14.39,0,0,0,420.33,772.54Zm15-3a13.79,13.79,0,0,0,4.46-1.67V768a14.22,14.22,0,0,0,1,5.23A14.51,14.51,0,0,0,435.3,769.57Zm78.13-17.63A14.36,14.36,0,0,0,489.72,760a13.83,13.83,0,0,0-2.8-1.84,15.26,15.26,0,0,0-1.51-.65,14.36,14.36,0,0,0,3.86-23.76,14.71,14.71,0,0,0,12.85-4.82,14.6,14.6,0,0,0-.67,4.35,14.4,14.4,0,0,0,12.73,14.29A14.32,14.32,0,0,0,513.43,751.94Z"/><path class="cls-3" d="M288.22,760.85a14.38,14.38,0,1,0-14.37-14.38A14.4,14.4,0,0,0,288.22,760.85Z"/><path class="cls-3" d="M178.29,706.18a14.37,14.37,0,1,0-12.89,8A14.28,14.28,0,0,0,178.29,706.18Z"/><path class="cls-3" d="M12.7,697.55a14.38,14.38,0,1,0,0-14.8Z"/><path class="cls-3" d="M139.84,766.52a14.38,14.38,0,1,0-7.21-8.32A14.32,14.32,0,0,0,139.84,766.52Z"/><path class="cls-3" d="M78,723.41A14.38,14.38,0,1,0,63.61,709,14.4,14.4,0,0,0,78,723.41Z"/><path class="cls-3" d="M496.66,671A14.38,14.38,0,1,0,511,656.63,14.4,14.4,0,0,0,496.66,671Z"/><path class="cls-3" d="M151.05,721.91a14.38,14.38,0,1,0-14.37,14.38A14.39,14.39,0,0,0,151.05,721.91Z"/><path class="cls-3" d="M219.34,712a14.38,14.38,0,1,0,14.37-14.37A14.39,14.39,0,0,0,219.34,712Z"/><path class="cls-3" d="M436.17,686.57a14.38,14.38,0,1,0,14.37-14.37A14.39,14.39,0,0,0,436.17,686.57Z"/><path class="cls-3" d="M352.31,715.32A14.38,14.38,0,1,0,366.68,701,14.39,14.39,0,0,0,352.31,715.32Z"/><path class="cls-3" d="M325,711.57a14.4,14.4,0,1,0-12.89,7.94A14.32,14.32,0,0,0,325,711.57Z"/><path class="cls-3" d="M312.94,772.51a14.38,14.38,0,1,0-6.43-19.29A14.35,14.35,0,0,0,312.94,772.51Z"/><path class="cls-4" d="M123.8,751A10.78,10.78,0,1,0,113,761.75,10.78,10.78,0,0,0,123.8,751Z"/><path class="cls-5" d="M54.32,729.4a10.78,10.78,0,1,0-10.78,10.79A10.78,10.78,0,0,0,54.32,729.4Z"/><path class="cls-6" d="M31.86,717.42A10.78,10.78,0,1,0,21.08,728.2,10.78,10.78,0,0,0,31.86,717.42Z"/><path class="cls-7" d="M32.76,687.77A10.78,10.78,0,1,0,22,698.55,10.78,10.78,0,0,0,32.76,687.77Z"/><path class="cls-8" d="M85.77,706.64A10.79,10.79,0,1,0,75,717.42,10.78,10.78,0,0,0,85.77,706.64Z"/><path class="cls-9" d="M108.23,735.39a10.78,10.78,0,1,0-10.78,10.78A10.78,10.78,0,0,0,108.23,735.39Z"/><path class="cls-10" d="M144.46,719.52a10.78,10.78,0,1,0-10.78,10.78A10.77,10.77,0,0,0,144.46,719.52Z"/><path class="cls-11" d="M80.38,739.88a10.79,10.79,0,1,0-10.79,10.78A10.79,10.79,0,0,0,80.38,739.88Z"/><path class="cls-12" d="M33.35,742a10.78,10.78,0,1,0-10.78,10.78A10.78,10.78,0,0,0,33.35,742Z"/><path class="cls-13" d="M115.17,779.45a10.78,10.78,0,1,0-14.46,4.82A10.78,10.78,0,0,0,115.17,779.45Z"/><path class="cls-14" d="M152.91,756.09a10.78,10.78,0,1,0-14.46,4.82A10.79,10.79,0,0,0,152.91,756.09Z"/><path class="cls-15" d="M100.8,766.87a10.78,10.78,0,1,0-14.46,4.82A10.8,10.8,0,0,0,100.8,766.87Z"/><path class="cls-16" d="M49.89,756.09a10.78,10.78,0,1,0-14.47,4.82A10.79,10.79,0,0,0,49.89,756.09Z"/><path class="cls-17" d="M172.08,702.18A10.78,10.78,0,1,0,157.61,707,10.8,10.8,0,0,0,172.08,702.18Z"/><path class="cls-18" d="M138.18,778.52a10.79,10.79,0,1,0-10.79,10.78A10.78,10.78,0,0,0,138.18,778.52Z"/><path class="cls-19" d="M273.54,787.5a10.78,10.78,0,1,0-10.78,10.78A10.78,10.78,0,0,0,273.54,787.5Z"/><path class="cls-20" d="M210.05,742a10.78,10.78,0,1,0-10.78,10.78A10.78,10.78,0,0,0,210.05,742Z"/><path class="cls-21" d="M258.57,771.33a10.78,10.78,0,1,0-10.78,10.78A10.78,10.78,0,0,0,258.57,771.33Z"/><path class="cls-22" d="M164.23,782.11a10.78,10.78,0,1,0-10.78,10.78A10.78,10.78,0,0,0,164.23,782.11Z"/><path class="cls-23" d="M185.79,729.1A10.78,10.78,0,1,0,175,739.88,10.78,10.78,0,0,0,185.79,729.1Z"/><path class="cls-24" d="M241.5,709.64a10.78,10.78,0,1,0-10.78,10.78A10.78,10.78,0,0,0,241.5,709.64Z"/><path class="cls-25" d="M262.16,752.76a10.78,10.78,0,1,0-10.78,10.78A10.78,10.78,0,0,0,262.16,752.76Z"/><path class="cls-26" d="M296,744.08a10.79,10.79,0,1,0-10.79,10.78A10.78,10.78,0,0,0,296,744.08Z"/><path class="cls-27" d="M237,763.54a10.79,10.79,0,1,0-10.78,10.79A10.78,10.78,0,0,0,237,763.54Z"/><path class="cls-28" d="M246.29,790.2A10.78,10.78,0,1,0,235.51,801,10.78,10.78,0,0,0,246.29,790.2Z"/><path class="cls-29" d="M213.35,767.44a10.78,10.78,0,1,0-10.78,10.78A10.78,10.78,0,0,0,213.35,767.44Z"/><path class="cls-30" d="M183.4,762.05a10.79,10.79,0,1,0-10.78,10.78A10.79,10.79,0,0,0,183.4,762.05Z"/><path class="cls-31" d="M203.82,792.63a10.78,10.78,0,1,0-14.46,4.81A10.78,10.78,0,0,0,203.82,792.63Z"/><path class="cls-32" d="M295.47,781.24A10.78,10.78,0,1,0,281,786.07,10.78,10.78,0,0,0,295.47,781.24Z"/><path class="cls-33" d="M322.66,791.1a10.78,10.78,0,1,0-10.78,10.78A10.79,10.79,0,0,0,322.66,791.1Z"/><path class="cls-34" d="M326,762.08a10.78,10.78,0,1,0-14.46,4.82A10.78,10.78,0,0,0,326,762.08Z"/><path class="cls-35" d="M318.83,707.57a10.78,10.78,0,1,0-14.47,4.82A10.79,10.79,0,0,0,318.83,707.57Z"/><path class="cls-36" d="M461.92,765.64a10.78,10.78,0,1,0-10.78,10.78A10.78,10.78,0,0,0,461.92,765.64Z"/><path class="cls-37" d="M393,750.66a10.78,10.78,0,1,0-10.78,10.79A10.78,10.78,0,0,0,393,750.66Z"/><path class="cls-38" d="M355.9,781.51a10.78,10.78,0,1,0-10.78,10.79A10.78,10.78,0,0,0,355.9,781.51Z"/><path class="cls-39" d="M374.47,712.93a10.78,10.78,0,1,0-10.78,10.78A10.78,10.78,0,0,0,374.47,712.93Z"/><path class="cls-40" d="M438,716.23A10.78,10.78,0,1,0,427.18,727,10.79,10.79,0,0,0,438,716.23Z"/><path class="cls-41" d="M457.13,730.3a10.78,10.78,0,1,0-10.78,10.78A10.78,10.78,0,0,0,457.13,730.3Z"/><path class="cls-42" d="M458.32,684.18A10.78,10.78,0,1,0,447.54,695,10.78,10.78,0,0,0,458.32,684.18Z"/><path class="cls-43" d="M438,780.62a10.78,10.78,0,1,0-10.78,10.78A10.79,10.79,0,0,0,438,780.62Z"/><path class="cls-44" d="M415.2,763.84a10.78,10.78,0,1,0-10.78,10.78A10.78,10.78,0,0,0,415.2,763.84Z"/><path class="cls-45" d="M375.07,761.45a10.78,10.78,0,1,0-10.78,10.78A10.79,10.79,0,0,0,375.07,761.45Z"/><path class="cls-46" d="M388.31,790.83a10.78,10.78,0,1,0-14.47,4.82A10.8,10.8,0,0,0,388.31,790.83Z"/><path class="cls-47" d="M487.14,773.46a10.78,10.78,0,1,0-14.47,4.82A10.79,10.79,0,0,0,487.14,773.46Z"/><path class="cls-48" d="M487.38,742a10.79,10.79,0,1,0-10.78,10.78A10.78,10.78,0,0,0,487.38,742Z"/><path class="cls-49" d="M545.78,722.22A10.79,10.79,0,1,0,535,733,10.79,10.79,0,0,0,545.78,722.22Z"/><path class="cls-50" d="M440.36,753.06a10.79,10.79,0,1,0-10.79,10.78A10.79,10.79,0,0,0,440.36,753.06Z"/><path class="cls-51" d="M530.2,700.05a10.78,10.78,0,1,0-10.78,10.78A10.78,10.78,0,0,0,530.2,700.05Z"/><circle class="cls-52" cx="500.85" cy="760.25" r="10.78" transform="translate(-160.59 134.69) rotate(-13.22)"/><path class="cls-53" d="M518.82,668.61A10.78,10.78,0,1,0,508,679.39,10.78,10.78,0,0,0,518.82,668.61Z"/><circle class="cls-54" cx="488.28" cy="717.12" r="10.78" transform="translate(-195.04 182.56) rotate(-17.71)"/><path class="cls-55" d="M523.61,730.9a10.78,10.78,0,1,0-10.78,10.78A10.78,10.78,0,0,0,523.61,730.9Z"/><path class="cls-56" d="M534.46,754.59A10.78,10.78,0,1,0,520,759.41,10.78,10.78,0,0,0,534.46,754.59Z"/><path class="cls-57" d="M183.1,786.3a10.78,10.78,0,1,0-10.78,10.79A10.78,10.78,0,0,0,183.1,786.3Z"/><path class="cls-58" d="M290.91,792.89a10.78,10.78,0,1,0-10.78,10.78A10.78,10.78,0,0,0,290.91,792.89Z"/><path class="cls-59" d="M339.43,791.1a10.78,10.78,0,1,0-10.78,10.78A10.79,10.79,0,0,0,339.43,791.1Z"/><path class="cls-60" d="M403.52,785.7a10.78,10.78,0,1,0-10.78,10.79A10.78,10.78,0,0,0,403.52,785.7Z"/><path class="cls-61" d="M64.2,763.24A10.78,10.78,0,1,0,53.42,774,10.78,10.78,0,0,0,64.2,763.24Z"/><path class="cls-62" d="M85.17,767.44a10.79,10.79,0,1,0-10.78,10.78A10.78,10.78,0,0,0,85.17,767.44Z"/><path class="cls-3" d="M540.84,684V642.4h5c-.25-14.77-.36-38.15-.4-54.36H511.54l-32.7,10.49L337.78,612.45l-177-.45L35.9,586l-23-12.46-.14,97.81h3.18v-45c0-7.58,6.87-26.91,14.6-27.3,9.06-.47,17.8,19.49,18.28,31.32l2.39,59c-3.6,6.29-5,8.92-3.45,13.78,1.8,5.84,10.75,9,12.88-.3.2-.85-.41-4-1.25-7.12a47.87,47.87,0,0,1-1.64-14.24l1.42-43.8c.38-11.6,10.15-22.14,21.75-22.33a9.92,9.92,0,0,1,3.08.34c14.8,4.64,16.57,39.85,16.47,58A46.65,46.65,0,0,1,97,691.26a35.82,35.82,0,0,0-1.35,3.7c-1.17,4.36,0,13.48,9,13.48,4.8,0,6.85-6.28,7.19-10.18a24.47,24.47,0,0,0-.79-6.16,52.37,52.37,0,0,1-.6-18.39c2.27-16.31,7.74-44.8,18.16-44,10.83.79,11.08,36.84,21.87,38,9,1,14.08-25.41,23-24.26,12.84,1.65,13,38.79,25.91,38.63,14.36-.17,11.23-41.62,40.58-42.82,8.75-.36,16.49,12.36,18.72,18.57,4.43,12.36,8.68,56.9,8.68,56.9s-5,7.89-4,12.57c2.25,11.24,14.82,8.54,15.72,1.35s-4.64-11.46-4.49-15.72c.45-12.28,3.9-66.34,21.87-73.52s31.6,4.25,32.79,12.13c2.39,15.87,7.19,84.45,5.39,91.19s-6.44,17.22.3,20.81,14.52-2.39,11.38-11.83-.08-76.11,2.69-93.44c1.8-11.23,15.28-26.5,31-13.92s19.77,72.32,17.52,77.27-7.19,13-.9,18S411,741.08,411,733.3c0-10-5.39-9.44-4-15.28s-1.65-82.66,20.21-89.55c28.42-9,25.46,40,39.83,35.94s8.39-49.71,28.15-52.7c7.87-1.2,13.63,27.7,25.76,22.76,3.85-1.57,9.15-11.72,12.79-19.44a2.17,2.17,0,0,1,4.13.92v66.73A17.52,17.52,0,0,0,540.84,684Z"/><path class="cls-63" d="M547.52,569.66,547.46,532c0-7.1-1.46-19.46-5-25.49l-529.94-3c-4,6.74-6.79,21.34-6.8,28.44l0,37.63c0,.15.09.31.11.46v67.2a38.67,38.67,0,0,1-4.31,17c-1.23,2.51-2,5.47-1.08,8.29,2.25,6.73,12.81,8.76,12.81,8.76V620.29c0-7.58,6.86-26.9,14.6-27.3,9-.47,17.8,19.49,18.27,31.32l2.2,54.32a17.06,17.06,0,0,1-1.91,8.46c-2,3.8-2.5,6.22-1.35,10,1.8,5.84,9,9.28,12.88-.3.68-1.67-3.14-13.48-3.14-13.48l1.67-51.63c.39-11.74,9.45-21.85,21.19-22.36a11,11,0,0,1,3.64.32c14.81,4.64,16.57,39.85,16.48,58a46.66,46.66,0,0,1-3.45,17.67A35.82,35.82,0,0,0,93,689c-1.17,4.35,0,13.48,9,13.48,4.79,0,6.84-6.28,7.19-10.18a24.88,24.88,0,0,0-.79-6.15,52.25,52.25,0,0,1-.6-18.41c2.27-16.31,7.74-44.79,18.16-44,10.82.8,11.07,36.85,21.86,38,9,1,14.08-25.42,23.06-24.26,12.83,1.65,13,38.79,25.91,38.63,14.36-.17,11.23-41.62,40.57-42.82,8.76-.36,16.5,12.36,18.72,18.56,3.32,9.24,6.53,36.45,7.94,49.61a23.73,23.73,0,0,1-1.69,12c-1.1,2.53-2.06,5.59-1.61,7.89,2.25,11.23,14.83,8.53,15.73,1.35s-4.65-11.47-4.49-15.73c.44-12.28,3.89-66.34,21.86-73.52s31.6,4.26,32.79,12.12c2.4,15.88,7.19,84.46,5.39,91.2s-6.44,17.22.3,20.81,14.53-2.39,11.38-11.83-.07-76.11,2.7-93.44c1.8-11.23,15.27-26.5,31-13.92s19.76,72.32,17.52,77.26-7.19,13-.9,18,14.37,1.5,14.37-6.29c0-10-5.39-9.43-4-15.27s-1.65-82.66,20.22-89.54c28.42-9,25.45,40,39.83,35.94s8.38-49.72,28.15-52.72c7.87-1.19,13.62,27.71,25.75,22.76,6.3-2.56,11.91-15.3,15.85-27a3,3,0,0,1,5.87,1v79.9s12.61,7.28,16.62-4.49c1.66-4.88-6.1-12.61-7.19-24.56C549,649.21,547.52,569.66,547.52,569.66Z"/><path class="cls-64" d="M79.48,604.82a10,10,0,0,0-3.08-.34c-11.61.19-21.37,10.73-21.75,22.33L53.1,674.63a35.7,35.7,0,0,0,.53,7.44c.65,3.59,1.5,8.72,1.37,9.86-.9,7.41-8.43,7.75-10.34,3.06a13.14,13.14,0,0,0,.37,2.07c1.8,5.84,9,9.28,12.88-.3.68-1.67-3.14-13.48-3.14-13.48l1.68-51.67c.37-11.6,10.14-22.15,21.74-22.34a10.23,10.23,0,0,1,3.08.34c4.39,1.37,7.61,5.46,10,11C88.79,612.67,85.07,606.57,79.48,604.82Z"/><path class="cls-64" d="M124.1,618.89c-10.42-.76-15.89,27.73-18.16,44a52.13,52.13,0,0,0,.6,18.39,24.88,24.88,0,0,1,.79,6.15c-.34,3.91-2.4,10.19-7.19,10.19a8.44,8.44,0,0,1-7.38-3.57c.58,4.09,3,8.36,9.18,8.36,4.79,0,6.84-6.28,7.19-10.18a24.82,24.82,0,0,0-.79-6.15,52.2,52.2,0,0,1-.6-18.4c2.27-16.31,7.74-44.8,18.16-44,3.1.23,5.33,3.41,7.2,7.8C130.86,624.73,128.27,619.2,124.1,618.89Z"/><path class="cls-64" d="M254.23,647c-2.23-6.2-10-18.92-18.72-18.57-29.35,1.21-26.22,42.66-40.58,42.83-4.7.06-7.71-4.83-10.25-11.14,3,8.45,6.2,16,12,15.93,14.36-.17,11.23-41.62,40.57-42.82,7.61-.31,14.44,9.24,17.56,15.82C254.65,648.36,254.44,647.63,254.23,647Z"/><path class="cls-64" d="M169,632.67c-9-1.16-14.06,25.25-23.06,24.26-3.06-.34-5.26-3.54-7.11-7.9,2.21,6.71,4.8,12.23,8.91,12.69,9,1,14.08-25.42,23.06-24.26,4.53.58,7.46,5.61,10,11.83C177.87,641,174.68,633.39,169,632.67Z"/><path class="cls-64" d="M26,588.19c-7.73.4-14.6,19.72-14.6,27.31v41.06s-1.35,13.92-11.4,3.8a8.06,8.06,0,0,0,.39,2.26c2.25,6.73,12.81,8.76,12.81,8.76V620.29c0-7.58,6.86-26.9,14.6-27.3,5.39-.28,10.67,6.71,14.16,14.9C38.71,597.85,32.45,587.87,26,588.19Z"/><path class="cls-64" d="M406.52,722.51c0,7.79-8.09,11.23-14.38,6.29a7.92,7.92,0,0,1-1.23-1.31,7.54,7.54,0,0,0,3,6.1c6.29,4.95,14.37,1.5,14.37-6.29a15,15,0,0,0-2.13-8.51A19.67,19.67,0,0,1,406.52,722.51Z"/><path class="cls-64" d="M274.59,717.87c-.76,6.08-9.8,8.83-14,2.81,0,.21,0,.44,0,.64,2.25,11.23,14.83,8.53,15.73,1.35.46-3.67-.76-6.57-2-9.11A12.44,12.44,0,0,1,274.59,717.87Z"/><path class="cls-64" d="M554.68,669.77a6,6,0,0,1,.08,3.33c-3.07,9-11.2,6.85-14.82,5.34v3.94s12.61,7.28,16.62-4.49C557.28,675.77,556.19,673.07,554.68,669.77Z"/><path class="cls-64" d="M540,603.28c.51-4.31,0-6.43-1.05-8.12-1.25-2-5.73-1.12-6.63,1.56-3.95,11.66-9.55,24.4-15.85,27-12.13,5-17.89-23.95-25.76-22.76-19.77,3-13.78,48.67-28.15,52.71s-11.41-44.89-39.83-35.94c-21.87,6.89-19.17,77.12-19.62,84-.2,3.09-.19,9.89,1,11.82a7.73,7.73,0,0,1,.17-1.49c1.35-5.84-1.65-82.66,20.22-89.54,28.42-9,25.45,40,39.83,35.94s8.38-49.72,28.15-52.72c7.87-1.19,13.62,27.71,25.75,22.76,6.3-2.56,11.91-15.3,15.85-27a3,3,0,0,1,4.07-1.77C539.16,600.23,539.91,601.35,540,603.28Z"/><path class="cls-64" d="M324.76,640.75c-1.19-7.87-14.83-19.31-32.8-12.12s-21.41,61.24-21.86,73.52c-.06,1.76.85,3.54,1.88,5.51a4.41,4.41,0,0,1-.08-.72c.44-12.28,3.89-66.34,21.86-73.52,14.83-5.94,26.7.83,31.06,7.8C324.8,641.08,324.77,640.88,324.76,640.75Z"/><path class="cls-64" d="M375.52,633.57c-15.72-12.58-29.2,2.69-31,13.92-2.77,17.33-5.84,84-2.69,93.44s-4.65,15.43-11.38,11.83a6.42,6.42,0,0,1-1.71-1.39c.12,2.63,1,4.87,3.5,6.18,6.74,3.6,14.53-2.39,11.38-11.83s-.07-76.11,2.7-93.44c1.8-11.23,15.27-26.5,31-13.92,3.15,2.52,5.81,7,8.07,12.48C382.8,643.13,379.55,636.79,375.52,633.57Z"/><path class="cls-65" d="M542.48,506.54c-6.75-15.42-21.49-29.1-50.43-38C442.59,453.1,364.7,443.1,277,442.94c-87.74.16-165.63,10.16-215.08,25.6-28.94,8.9-43.68,22.58-50.43,38-4.92,18.75,8.43,33.89,28.7,43.25C85.47,570.73,174.51,582.13,277,582.16s191.49-11.43,236.82-32.37C534.05,540.43,547.4,525.29,542.48,506.54Z"/><path class="cls-66" d="M522,496.74c-6.23-13.05-19.83-24.62-46.53-32.15-45.63-13.06-117.5-21.51-198.46-21.65-80.95.14-152.82,8.59-198.45,21.65-26.71,7.53-40.3,19.1-46.54,32.15-4.53,15.86,7.78,28.66,26.48,36.59C100.28,551,182.43,560.68,277,560.7S453.65,551,495.47,533.33C514.17,525.4,526.49,512.6,522,496.74Z"/><path class="cls-67" d="M465.88,492.23c-4.69-9.34-14.93-17.62-35.05-23-34.36-9.36-88.49-15.41-149.47-15.51-61,.1-115.11,6.15-149.47,15.51-20.12,5.39-30.36,13.67-35,23-3.42,11.36,5.86,20.53,19.94,26.2,31.5,12.68,93.38,19.58,164.58,19.6s133.08-6.92,164.58-19.6C460,512.76,469.3,503.59,465.88,492.23Z"/><path class="cls-68" d="M81.92,599.24c-19.06-8-29,12.14-28.81,12.59,0,.59,5-5.37,13.46-8a35.48,35.48,0,0,1,14-1.68C82.59,602.27,83.86,600.06,81.92,599.24Z"/><path class="cls-68" d="M25.72,579.59a19.64,19.64,0,0,0-10.09,5.9c-3,3.19-3.92,6-4.62,10.24-.26,1.58,2,1.56,2.49.33,2.37-5.85,7.63-10.17,13.29-12.58C29,582.53,28.23,579.06,25.72,579.59Z"/><path class="cls-68" d="M50.29,688.36c-.55-1.12-2.07-.67-2.5.3a9,9,0,0,0-.71,4.88c.23,2.34,3.74,1.53,3.92-.47A7.85,7.85,0,0,0,50.29,688.36Z"/><path class="cls-68" d="M101.18,689.24c-.24-1.17.1-1.92,0-3-.08-.85-.22-1.78-1.16-2.09l-.23-.07a2.37,2.37,0,0,0-2.23.57c-2.59,2.69-3.3,8.35,1,9.7,1.7.53,3.08-1.11,3.06-2.66A10.34,10.34,0,0,0,101.18,689.24Z"/><path class="cls-68" d="M149,641.5c-3-1.21-6.11-14.57-7.94-17.67-2.71-4.58-5.39-8.08-10.33-8.68-1.25-.15-2.46,1.15-1.29,2,7.93,5.46,9.16,15.82,11.27,24.4,1.22,4.94,5.47,9.28,10.26,5.11C152.68,645.09,151.1,642.38,149,641.5Z"/><path class="cls-68" d="M175.61,628.78c-1.5-.76-2.58,1.09-1,2,3.5,1.94,6.24,8.39,7.9,11.81,2.24,4.64,2.24,9.44,5.21,14.52,1.16,2,4.39-.1,4.13-2.16C191.13,649.07,187,634.47,175.61,628.78Z"/><path class="cls-68" d="M223.13,624c-1.45,1-.44,3.31,1.18,2.3,5.42-3.4,12.63-2.76,18.06.33,4.17,2.38,6.66,6.49,10.59,9.06,1.52,1,4-1,3.46-2.68C252.19,619.54,233.45,617,223.13,624Z"/><path class="cls-68" d="M266.73,713.09c-.6-.48-1.49-.11-2,.26a4.42,4.42,0,0,0-1.32,6.15c1.67,2.88,5.52.86,5.44-2A5.23,5.23,0,0,0,266.73,713.09Z"/><path class="cls-68" d="M328,628.14a17.32,17.32,0,0,0-13.28-6.71c-1.37-.07-2.25,2.18-.69,2.6a19.43,19.43,0,0,1,10.84,8.27c2.71,4.31,2.51,9.56,4.91,13.81,1.16,2,4.07,1,4.41-1.09C335.12,639.36,331.54,632.44,328,628.14Z"/><path class="cls-68" d="M337.86,742.53a1.35,1.35,0,0,0-1.61-.23,6.55,6.55,0,0,0-2.84,7.19c.67,2.84,3.94,2.16,5,0S340,744.31,337.86,742.53Z"/><path class="cls-68" d="M389.9,636.26c-4-6.63-8.64-10-15.28-13-1.41-.65-3,.69-1.51,1.65,5.13,3.36,10.82,9.66,13.22,15.27,2.21,5.15,2.52,11.84,6,16.18,1.1,1.39,3.13-.18,3.29-2C396.19,647.84,393.31,641.94,389.9,636.26Z"/><path class="cls-68" d="M396.18,719.29c-2.72,1.4-3.41,4.52-2.39,7.21,1,2.52,4.12,1.09,5-.61S399.6,717.53,396.18,719.29Z"/><path class="cls-69" d="M452,319.51c0-16.27-7.22-32.31-35.88-41.12-32.07-10-82.6-16.49-139.51-16.58-56.91.09-107.44,6.57-139.51,16.58-28.66,8.81-35.86,24.85-35.88,41.12l-.2,176.3h0c.22,21.37,78.63,38.68,175.58,38.82,96.95-.14,175.37-17.45,175.58-38.82h0Z"/><path class="cls-2" d="M452,319.51c0-16.27-7.22-32.31-35.88-41.12-32.07-10-82.6-16.49-139.51-16.58-56.91.09-107.44,6.57-139.51,16.58-1.14.35-2.19.73-3.27,1.1,17.06-1.33,35.23-2.08,54.13-2.11,56.91.09,107.45,6.57,139.51,16.58,28.66,8.82,35.86,24.85,35.88,41.12l.2,176.3h0c-.08,7.72-10.4,14.91-28.07,21,68-5.41,116.55-19.71,116.72-36.52h0Z"/><path class="cls-3" d="M276.9,524c-96.93-.14-175.33-17.45-175.58-38.81V496h0c.22,21.37,78.63,38.68,175.58,38.83,97-.15,175.36-17.46,175.58-38.83h0l0-10.77C452.23,506.55,373.83,523.86,276.9,524Z"/><path class="cls-3" d="M442.72,471.68a14.22,14.22,0,0,0-2.51-4.27,14.35,14.35,0,0,0,11.93-13.6v-1a14.35,14.35,0,0,0-28.7.49,14.2,14.2,0,0,0,3.45,9.22,14.32,14.32,0,0,0-1.05,28.05,14.34,14.34,0,0,0-2.17,26.35c8.79-3,15.81-6.22,20.66-9.68a14.53,14.53,0,0,0-.83-8.61,13,13,0,0,0,8,.29,9.13,9.13,0,0,0,.64-3.09h0l0-24.47a14.07,14.07,0,0,0-4.17-.69A14.26,14.26,0,0,0,442.72,471.68Zm-9,18.57c.29-.1.58-.16.86-.27.07.19.1.4.18.58C434.39,490.45,434.05,490.33,433.69,490.25Z"/><path class="cls-3" d="M324.31,464.65a14.38,14.38,0,1,0,14.37-14.37A14.39,14.39,0,0,0,324.31,464.65Z"/><path class="cls-3" d="M289.86,468a14.38,14.38,0,1,0,14.38-14.37A14.4,14.4,0,0,0,289.86,468Z"/><path class="cls-3" d="M415.35,512a14.35,14.35,0,0,0-12.91-14.23A14.32,14.32,0,1,0,375.21,489a14.24,14.24,0,0,0-25.13,0,14.32,14.32,0,1,0-21,19.3,14.45,14.45,0,0,0-10.48,1.31A14.34,14.34,0,1,0,296,494.77,14.37,14.37,0,0,0,283.88,488a15.31,15.31,0,0,0-2.27.23,14.1,14.1,0,0,0,.77-4.42,14.21,14.21,0,0,0-18.88-13.58,14.31,14.31,0,1,0-11.22,5.5,14.06,14.06,0,0,0,4.51-.8,13.95,13.95,0,0,0-1.61,15.23,14.41,14.41,0,0,0-4.3.68,14.33,14.33,0,0,0-7.69,21.1,14.29,14.29,0,0,0-7.13,21.58c7.51.4,15.19.71,23,.89a14.83,14.83,0,0,0,2-3.22,14.41,14.41,0,0,0,1.74,3.29c4.55.08,9.12.14,13.76.14,3.23,0,6.43,0,9.61-.07a13.14,13.14,0,0,0,1.24-1.78,15,15,0,0,0,1.07-2.94,14.63,14.63,0,0,0,4.29,4.6q8.61-.18,17-.55a14.51,14.51,0,0,0,3.62-4.07,14.6,14.6,0,0,0,3.55,3.72q9.49-.49,18.56-1.22c.15-.15.34-.26.49-.42.15.13.32.23.47.35,7-.56,13.67-1.23,20.18-2a14.38,14.38,0,0,0,2.77-5.35,14.58,14.58,0,0,0,3.76,4.57c7.38-.93,14.43-2,21.09-3.13a14.27,14.27,0,0,0-10.15-22,14.54,14.54,0,0,0,2.32-4.74,14.29,14.29,0,0,0,11.1,7.4,14.08,14.08,0,0,0,6.62,17.51c6.67-1.34,12.88-2.78,18.56-4.33A14.22,14.22,0,0,0,415.35,512ZM270.27,498a14.15,14.15,0,0,0-.73,4.07,14.64,14.64,0,0,0-1.27-3.87A13.29,13.29,0,0,0,270.27,498Zm-.22,14.74a14.32,14.32,0,0,0-8.32,7.21c-.13.26-.18.52-.29.77a14.83,14.83,0,0,0-1.29-2.73,14,14,0,0,0,9.6-13.1,14.24,14.24,0,0,0,3.57,7.21A14.78,14.78,0,0,0,270.05,512.71Zm17,6.5a14.34,14.34,0,0,0-1.92-2.57,14.1,14.1,0,0,0,3.2-.66A14.13,14.13,0,0,0,287.07,519.21Zm9.4-10a13.92,13.92,0,0,0,1.32-3.35,14.5,14.5,0,0,0,2.14,2.67A13.7,13.7,0,0,0,296.47,509.17Zm16.59,5.91a14.79,14.79,0,0,0-2.11-2.61,14.23,14.23,0,0,0,6.1-1.86A14,14,0,0,0,313.06,515.08Zm22-3.57-.07-.07.1,0Zm23.32,3.38a14.36,14.36,0,0,0-9.24-7.5,14.85,14.85,0,0,0,2.09-2.93,14.29,14.29,0,0,0,9.51,5.53A14.37,14.37,0,0,0,358.39,514.89Z"/><path class="cls-3" d="M371.62,457.47A14.38,14.38,0,1,0,386,443.09,14.39,14.39,0,0,0,371.62,457.47Z"/><path class="cls-3" d="M233.26,522.76a14.21,14.21,0,0,0-3.08-8.78,14.17,14.17,0,0,0,3.07-4,14.4,14.4,0,0,0-3.82-17.58,14.46,14.46,0,1,0-9.62-3.16,14.68,14.68,0,0,0-4,.67,14.93,14.93,0,0,0-2.27,1,14.35,14.35,0,0,0-9.65-10,14.25,14.25,0,0,0-4.43-20.06,14.34,14.34,0,1,0-9.43-2,14.32,14.32,0,0,0-12.43,13.39,14.16,14.16,0,0,0-19.1,3.69,14.31,14.31,0,0,0-7-10.75,14.34,14.34,0,1,0-17.09-22.67,14.37,14.37,0,1,0-4,7.44,15.2,15.2,0,0,0-.27,2.72A14.36,14.36,0,0,0,137.37,465a14.18,14.18,0,0,0-6.07,18.53,14.2,14.2,0,0,0-4.62,2.34,14.1,14.1,0,0,0-7.82-3.15,14.33,14.33,0,1,0-17.81-21.58l0,17.69a14.36,14.36,0,0,0,10,5.44,14.16,14.16,0,0,0-5.76,19.93,41,41,0,0,0,10.19,6.93,15.34,15.34,0,0,0,2.16.21,14.29,14.29,0,0,0,8.61-2.93,14.21,14.21,0,0,0,9,3.25c.3,0,.61-.14.92-.16a14.31,14.31,0,0,0,2.79,8.29q8.22,2.28,17.91,4.29a14.49,14.49,0,0,0,6.55-6.49,14.31,14.31,0,0,0,10.18,4.24,14.11,14.11,0,0,0,4.43-.77,14.57,14.57,0,0,0,4.89,7.47q7.09,1,14.64,1.84a14.47,14.47,0,0,0,7-6.44,14.39,14.39,0,0,0,2.87,7.47c6.88.66,14,1.22,21.31,1.68A14.31,14.31,0,0,0,233.26,522.76Zm-72.48-21.52A14.29,14.29,0,0,0,150.6,497c-.33,0-.64.08-1,.1a14.2,14.2,0,0,0-1.33-5.82,14.35,14.35,0,0,0,7.56-5.27,14.3,14.3,0,0,0,7.79,11.2A14.79,14.79,0,0,0,160.78,501.24Zm26.71,2.53a14.33,14.33,0,0,0-7.4-9.07,14.33,14.33,0,0,0,4.28-9.49,14.33,14.33,0,0,0,3.36,1.51,14.15,14.15,0,0,0,.76,16.74C188.15,503.54,187.82,503.66,187.49,503.77Zm18.7,12.4a14.22,14.22,0,0,0-3-7.65,14.28,14.28,0,0,0,3.37-1.34,14.34,14.34,0,0,0,2.5,5.15A14.38,14.38,0,0,0,206.19,516.17Z"/><path class="cls-70" d="M152.85,450a10.78,10.78,0,1,0-10.78,10.78A10.78,10.78,0,0,0,152.85,450Z"/><circle class="cls-71" cx="189.39" cy="470.35" r="10.78" transform="translate(-10.63 4.42) rotate(-1.3)"/><path class="cls-72" d="M128.59,437.1a10.78,10.78,0,1,0-10.78,10.78A10.78,10.78,0,0,0,128.59,437.1Z"/><path class="cls-73" d="M205.86,444a10.78,10.78,0,1,0-10.78,10.78A10.78,10.78,0,0,0,205.86,444Z"/><path class="cls-74" d="M152.55,474.84a10.78,10.78,0,1,0-10.78,10.78A10.78,10.78,0,0,0,152.55,474.84Z"/><path class="cls-75" d="M120.51,467.35a10.79,10.79,0,1,0-10.79,10.78A10.79,10.79,0,0,0,120.51,467.35Z"/><path class="cls-76" d="M125.9,494.31a10.79,10.79,0,1,0-10.79,10.78A10.79,10.79,0,0,0,125.9,494.31Z"/><path class="cls-77" d="M397.23,490.11a10.78,10.78,0,1,0-10.78,10.78A10.78,10.78,0,0,0,397.23,490.11Z"/><path class="cls-78" d="M346.92,462a10.79,10.79,0,1,0-10.78,10.78A10.78,10.78,0,0,0,346.92,462Z"/><path class="cls-79" d="M370.88,493.11a10.79,10.79,0,1,0-10.79,10.78A10.78,10.78,0,0,0,370.88,493.11Z"/><path class="cls-80" d="M380.46,515.87a10.78,10.78,0,1,0-10.78,10.78A10.78,10.78,0,0,0,380.46,515.87Z"/><path class="cls-81" d="M446.05,450.58a10.78,10.78,0,1,0-10.78,10.78A10.78,10.78,0,0,0,446.05,450.58Z"/><path class="cls-82" d="M346.92,494.91a10.79,10.79,0,1,0-10.78,10.78A10.79,10.79,0,0,0,346.92,494.91Z"/><path class="cls-83" d="M318.17,495.5a10.79,10.79,0,1,0-10.79,10.78A10.79,10.79,0,0,0,318.17,495.5Z"/><path class="cls-84" d="M332.6,524.28a10.78,10.78,0,1,0-14.46,4.83A10.78,10.78,0,0,0,332.6,524.28Z"/><path class="cls-85" d="M437.42,506.32A10.78,10.78,0,1,0,423,511.14,10.78,10.78,0,0,0,437.42,506.32Z"/><path class="cls-86" d="M437.51,473.94a10.78,10.78,0,1,0-10.78,10.78A10.78,10.78,0,0,0,437.51,473.94Z"/><path class="cls-87" d="M394.24,454.77a10.79,10.79,0,1,0-10.79,10.79A10.79,10.79,0,0,0,394.24,454.77Z"/><path class="cls-88" d="M409.21,509.28a10.78,10.78,0,1,0-10.78,10.78A10.78,10.78,0,0,0,409.21,509.28Z"/><path class="cls-89" d="M353.81,518.56A10.79,10.79,0,1,0,343,529.35,10.79,10.79,0,0,0,353.81,518.56Z"/><path class="cls-90" d="M292.11,499.7a10.78,10.78,0,1,0-10.78,10.78A10.78,10.78,0,0,0,292.11,499.7Z"/><path class="cls-91" d="M208,491.91a10.79,10.79,0,1,0-10.78,10.78A10.78,10.78,0,0,0,208,491.91Z"/><path class="cls-92" d="M178.31,481.73a10.78,10.78,0,1,0-10.78,10.78A10.78,10.78,0,0,0,178.31,481.73Z"/><path class="cls-93" d="M260.52,458.67a10.79,10.79,0,1,0-10.78,10.78A10.79,10.79,0,0,0,260.52,458.67Z"/><path class="cls-94" d="M276.24,481.13a10.78,10.78,0,1,0-10.78,10.78A10.78,10.78,0,0,0,276.24,481.13Z"/><path class="cls-95" d="M312.48,465.26A10.79,10.79,0,1,0,301.7,476,10.78,10.78,0,0,0,312.48,465.26Z"/><path class="cls-96" d="M456.23,482.33a10.78,10.78,0,1,0-10.78,10.78A10.78,10.78,0,0,0,456.23,482.33Z"/><path class="cls-97" d="M237,475.44a10.79,10.79,0,1,0-10.78,10.78A10.78,10.78,0,0,0,237,475.44Z"/><path class="cls-98" d="M200.17,514.67a10.78,10.78,0,1,0-10.78,10.78A10.78,10.78,0,0,0,200.17,514.67Z"/><path class="cls-99" d="M281.69,528.48a10.78,10.78,0,1,0-14.47,4.82A10.8,10.8,0,0,0,281.69,528.48Z"/><path class="cls-100" d="M262.52,506.61a10.78,10.78,0,1,0-14.46,4.83A10.78,10.78,0,0,0,262.52,506.61Z"/><path class="cls-101" d="M227.48,505.72A10.78,10.78,0,1,0,213,510.54,10.78,10.78,0,0,0,227.48,505.72Z"/><path class="cls-102" d="M309.18,520.06a10.78,10.78,0,1,0-10.78,10.78A10.78,10.78,0,0,0,309.18,520.06Z"/><path class="cls-103" d="M227.12,520.06a10.78,10.78,0,1,0-10.78,10.78A10.78,10.78,0,0,0,227.12,520.06Z"/><path class="cls-104" d="M256.17,522.76a10.78,10.78,0,1,0-10.78,10.78A10.77,10.77,0,0,0,256.17,522.76Z"/><path class="cls-105" d="M181.9,504.79a10.78,10.78,0,1,0-10.78,10.78A10.78,10.78,0,0,0,181.9,504.79Z"/><path class="cls-106" d="M142.43,499.43A10.78,10.78,0,1,0,128,504.25,10.79,10.79,0,0,0,142.43,499.43Z"/><path class="cls-107" d="M158.84,508.68a10.78,10.78,0,1,0-10.78,10.78A10.78,10.78,0,0,0,158.84,508.68Z"/><path class="cls-108" d="M452,356.93c-25.49,5.45-95.54,23.42-95.54,23.42l-137,1.8L101.17,349l-.08,81.9c1.54-.15,2.88-.88,3.44-3.82-.12-8,0-19.55,0-29.69,0-7.87,3.07-15.61,9-20.79,1.42-1.24,2.8-2.17,4-2.12,7.19.3,10.62,9.55,12.58,13.78,3,6.53,3,23.06,13.48,25.45s12.28-28.45,20.36-25.75c6,2,7,37.81,7.17,51.73a35.34,35.34,0,0,1-1.35,10.07c-1.23,4.35-2.81,10.52-2.53,12.77.9,7.19,13.78,10.48,12.58-3.29a70.91,70.91,0,0,0-1.22-8.75,45.56,45.56,0,0,1-.8-13.28c1.21-14.39.23-38.77,6.52-43,10.09-6.73,7.78,17.67,18.56,18s10.79-21.87,21-15.58c4.13,2.56,6.14,17.13,7,25.72a22.37,22.37,0,0,1-1.7,11.05c-1.45,3.33-3,7.58-2.59,9.65,1.8,9.29,12.28,9,14.08,1.5,1-4,.14-8.18-.83-11.26a23.5,23.5,0,0,1-.8-11.2c1.88-10.65,4.9-25.68,10.61-26.65,8.95-1.52,13.43,7.9,15.63,16.42a39.15,39.15,0,0,1,.68,17.42c-.74,3.75-.32,10.07,3.16,11.68,7.79,3.59,7.49-9.59,6-16.77s7.25-31.43,15.27-25.76c10.19,7.19,9,17.37,22.77,17.07,14.68-.32,19.71-15.31,26.35-19.46,5.91-3.7,13.93,3.44,16.17,10.18s7.53,43.75,7.19,46c-.9,5.84-5.09,14.52-2.4,20.81s17.67,5.39,14.08-8.08-5.09-11.68-4.94-14.53c.38-7.23,6.54-39.81,7.64-45.82,2.09-11.53,11.68-17.52,16.17-11.53,3.89,5.18,11.68,75.77,10.78,80.26s-5.09,17.37,4.49,17.37c5.68,0,8.84-7,3.89-15.57s0-89.25,20.37-96.13c7.27-2.47,14.78,1.34,19.2,13Z"/><path class="cls-109" d="M457.28,425.42c0-22.28,1-106.1,1-106.1,0-16.84-7.48-33.45-37.16-42.58l-1.09-.32H133.22l-1.1.32C102.44,285.87,95,302.48,95,319.32c0,0,.65,88.05.09,89.33-.75,1.72-3.67,5.77-4.34,10.93-1,7.76,7.64,16.62,10.93,10.64-.26-5.12-.16-25.3-.08-37.6.06-7.86,3.07-15.6,9-20.78,1.42-1.24,2.81-2.17,4-2.12a8,8,0,0,1,2,.41l1.29.52c5,2.45,7.63,9.34,9.26,12.85,3,6.53,3,23.06,13.47,25.45s12.28-28.45,20.37-25.75c6,2,7,37.81,7.16,51.73A35,35,0,0,1,166.75,445c-1.22,4.34-2.8,10.51-2.52,12.77.9,7.19,13.78,10.48,12.58-3.29a72.22,72.22,0,0,0-1.23-8.75,45.56,45.56,0,0,1-.79-13.28c1.21-14.39.22-38.77,6.51-43,10.09-6.72,7.79,17.68,18.57,18s10.78-21.86,21-15.57c4.13,2.55,6.15,17.12,7,25.71a22.49,22.49,0,0,1-1.71,11.05c-1.44,3.34-3,7.59-2.58,9.66,1.8,9.29,12.28,9,14.08,1.5a21.78,21.78,0,0,0-.84-11.26,23.52,23.52,0,0,1-.8-11.2c1.86-10.53,4.84-25.26,10.42-26.56,1.5.06,3,.12,4.52.16,6.1,1.65,9.49,9.17,11.31,16.17a39.15,39.15,0,0,1,.68,17.42c-.75,3.75-.32,10.07,3.16,11.67,7.78,3.6,7.48-9.58,6-16.76s7.24-31.43,15.27-25.76c10.18,7.19,9,17.37,22.76,17.07,14.68-.32,19.71-15.31,26.36-19.47,5.9-3.69,13.92,3.45,16.17,10.19s7.86,38.1,7.19,46c-.51,5.88-5.1,14.52-2.4,20.81s18.16,5.25,14.08-8.09c-2.25-7.33-4.35-13.32-4.2-16.17.39-7.23,5.8-38.16,6.89-44.17,2.1-11.53,11.68-17.52,16.17-11.53,3.89,5.18,11.68,75.77,10.79,80.26s-5.1,17.37,4.49,17.37c5.68,0,8.83-7,3.89-15.57s0-89.25,20.37-96.14c8.77-3,18,3,21.56,21.11.08.45,0,51.67,0,51.67.21,4,11.76,8.12,11.68-1.8C463.11,444.74,457.28,430.27,457.28,425.42Z"/><path class="cls-64" d="M248.05,387.13a7.71,7.71,0,0,0-3.91.51c-5.58,1.3-8.56,16-10.41,26.56a23.59,23.59,0,0,0,.79,11.19c1,3.09,1.79,7.3.84,11.26a6.79,6.79,0,0,1-11.05,3.92c3,6.82,11.66,6,13.3-.77a21.78,21.78,0,0,0-.84-11.26,23.52,23.52,0,0,1-.8-11.2c1.86-10.53,4.84-25.26,10.42-26.56,1.5.06,3,.12,4.52.16a11.12,11.12,0,0,1,5.36,3.56C254.39,391.25,251.31,388,248.05,387.13Z"/><path class="cls-64" d="M179.06,386.34c-6.29,4.19-5.31,28.57-6.52,43a45.18,45.18,0,0,0,.8,13.28,70.91,70.91,0,0,1,1.22,8.75c.88,10.15-5.86,11-9.84,7.88,2.32,6.08,13.2,8,12.09-4.73a72.22,72.22,0,0,0-1.23-8.75,45.56,45.56,0,0,1-.79-13.28c1.21-14.39.22-38.77,6.51-43,2.33-1.55,4-1.4,5.3-.31C184.94,385.74,182.9,383.78,179.06,386.34Z"/><path class="cls-64" d="M218.59,388.74c-10.18-6.29-10.18,15.87-21,15.57a6.52,6.52,0,0,1-4.57-2.09c1.56,2.9,3.6,5.15,6.81,5.23,10.78.31,10.78-21.86,21-15.57.06,0,.12.14.18.18A7.72,7.72,0,0,0,218.59,388.74Z"/><path class="cls-64" d="M115.6,367.51c-.44-.17-.86-.35-1.29-.53a8.49,8.49,0,0,0-2-.41c-1.15,0-2.53.89-4,2.13-5.93,5.17-8.95,12.91-9,20.78-.08,12.3-.17,32.48.08,37.59-1.64,3-4.61,2.28-7.06-.15,2.49,4.57,7.09,7.33,9.31,3.3-.26-5.12-.16-25.3-.08-37.6.06-7.86,3.07-15.6,9-20.78,1.42-1.24,2.81-2.17,4-2.12a8,8,0,0,1,2,.41l1.29.52a12.14,12.14,0,0,1,3.73,3.07C120.06,371.18,118.13,368.76,115.6,367.51Z"/><path class="cls-64" d="M158.69,380.05c-8.09-2.69-9.88,28.15-20.36,25.76a10.1,10.1,0,0,1-5.21-3.21c1.65,3.08,3.93,5.55,7.45,6.35,10.48,2.4,12.28-28.45,20.37-25.75.08,0,.15.12.22.16C160.45,381.59,159.64,380.37,158.69,380.05Z"/><path class="cls-64" d="M427.63,371.07c-20.37,6.89-25.31,87.6-20.37,96.13s1.79,15.58-3.89,15.58a6.19,6.19,0,0,1-3.56-1c.65,2.42,2.29,4.17,5.81,4.17,5.68,0,8.83-7,3.89-15.57s0-89.25,20.37-96.14c5.05-1.71,10.22-.33,14.4,4.51C439.81,371.33,433.64,369,427.63,371.07Z"/><path class="cls-64" d="M457.28,425c-.79,3,1,11.71,2.7,16.74,2.32,6.84-5.14,7.29-8.54,5.09V447c.21,4,11.76,8.12,11.68-1.8,0-.45-5.84-14.92-5.84-19.77Z"/><path class="cls-64" d="M334.19,388.14c-6.64,4.15-11.67,19.15-26.36,19.46-13.77.3-12.58-9.88-22.76-17.07-8-5.66-16.77,18.57-15.27,25.76s1.8,20.36-6,16.77a2.81,2.81,0,0,1-.5-.35,5.61,5.61,0,0,0,2.75,3.49c7.78,3.6,7.48-9.58,6-16.76s7.24-31.43,15.27-25.76c10.18,7.19,9,17.37,22.76,17.07,14.68-.32,19.71-15.31,26.36-19.47,4.06-2.54,9.1.09,12.59,4.15C345.83,389.76,339.25,385,334.19,388.14Z"/><path class="cls-64" d="M388.1,385.14c-4.49-6-14.08,0-16.17,11.53-1.1,6-6.51,36.94-6.89,44.18-.15,2.84,1.94,8.83,4.19,16.17,3.46,11.32-6.74,15.57-12.07,10.4.1.27.13.56.24.83,2.69,6.29,18.16,5.25,14.08-8.09-2.25-7.33-4.35-13.32-4.2-16.17.39-7.23,5.8-38.16,6.89-44.17,1.9-10.44,9.91-16.25,14.74-12.81A7.34,7.34,0,0,0,388.1,385.14Z"/><path class="cls-110" d="M454.91,302.23c-4.53-10.34-14.42-19.52-33.83-25.49-33.16-10.35-85.39-17.05-144.24-17.17-58.84.12-111.07,6.82-144.23,17.17-19.41,6-29.29,15.15-33.83,25.49-3.3,12.57,5.66,22.72,19.25,29,30.4,14,90.11,21.69,158.81,21.71s128.42-7.66,158.82-21.71C449.25,325,458.2,314.8,454.91,302.23Z"/><path class="cls-111" d="M429.34,291.69c-3.88-8.22-12.34-15.52-29-20.27-28.4-8.23-73.13-13.56-123.53-13.65-50.39.09-95.12,5.42-123.53,13.65-16.62,4.75-25.08,12.05-29,20.27-2.82,10,4.85,18.08,16.49,23.07,26,11.17,77.17,17.25,136,17.27s110-6.1,136-17.27C424.5,309.77,432.16,301.7,429.34,291.69Z"/><path class="cls-67" d="M413.25,281.45c-4.7-6.65-11.1-9.8-25.73-14.07-25-7.39-64.4-12.18-108.77-12.26C234.38,255.2,195,260,170,267.38c-14.63,4.27-22.09,10.82-25.5,18.2-2.49,9,5.61,15.64,15.86,20.12,22.92,10,66.78,17.29,118.6,17.3s98.36-7.64,121.29-17.67C410.48,300.85,420.89,292.23,413.25,281.45Z"/><path class="cls-68" d="M142,389.8c-4.59-7.21-6.08-14.95-11.48-21.73-2.35-2.95-7.57-9-11.83-6.89-1,.52-1.29,1.74.21,1.58,5.92-.64,9.53,10.84,10.79,14.92,1.73,5.63,3.19,11.14,6.29,16.22C138.52,398,144.57,393.8,142,389.8Z"/><path class="cls-68" d="M95.37,416.06c-.75-.9-2.05-.25-2.46.62a7.13,7.13,0,0,0-.5,4.79c.53,2.94,4.43,1.42,4.39-1.08A6,6,0,0,0,95.37,416.06Z"/><path class="cls-68" d="M159.37,373.57c-1.17-.11-2.21,1.82-1,2.47,4.31,2.28,5.17,6.26,7.44,10.09,1.26,2.13,4,1,4.51-1.11C171.77,378.47,165,374.06,159.37,373.57Z"/><path class="cls-68" d="M166.82,452.07a5.26,5.26,0,0,0,1,4.21c1.2,1.52,3.61.14,3.84-1.47.12-.91.07-1.8.18-2.71C172.29,448.71,167.05,449,166.82,452.07Z"/><path class="cls-68" d="M198.72,395.62c-2.39-1.95-3-5-5.34-7-1.3-1.13-3.46.59-2.32,2,2.43,3,.94,8.37,6.15,8.77A2.15,2.15,0,0,0,198.72,395.62Z"/><path class="cls-68" d="M228,430.64c-1.8,1.56-3.3,3.43-1.94,5.77a2.33,2.33,0,0,0,4.17-.5c.53-1.47.11-2.65.45-4.09S229,429.81,228,430.64Z"/><path class="cls-68" d="M241.8,382.9c-1.85.61-2,2.44.21,2a14.72,14.72,0,0,1,11.9,2.61c2.6,2,3.88,4.62,5.67,7.27,1.34,2,4.68-.23,4.29-2.24C262,382.76,250.29,380.09,241.8,382.9Z"/><path class="cls-68" d="M307.28,396.9c-2.6.25-8-3.67-10.38-5.92-3.23-3-6.59-5.59-10.93-6.58-1.64-.38-2.59.51-1,1.63,5.53,4,8.54,9.58,12.88,14.61,3.07,3.57,9.66,5.57,11.79-.11C310.19,399,309.27,396.7,307.28,396.9Z"/><path class="cls-68" d="M338.12,382.3c-1.91.09-2.35,1.31-.11,1.91,7.44,2,11,5.27,15.31,13.58.81,1.55,4.12.11,3.6-1.88C355.77,391.44,348.23,381.85,338.12,382.3Z"/><path class="cls-68" d="M362.2,457.87c-.1-1.44-2.16-1.41-2.8-.39-1.45,2.36-2.59,4.59-.82,7,.68.92,2.12.43,2.67-.34C362.74,462.06,362.38,460.39,362.2,457.87Z"/><path class="cls-68" d="M267.24,424.77c-.24-1.82-2.67-1.07-2.94.35a5.34,5.34,0,0,0,0,2.94c.38,2.1,3.17,1,3.14-.77A11.18,11.18,0,0,0,267.24,424.77Z"/><path class="cls-112" d="M407.12,113.4c0-12.1-5.38-24-26.7-30.59C356.55,75.35,319,70.53,276.6,70.47s-80,4.88-103.82,12.34c-21.32,6.55-26.68,18.49-26.7,30.59l-.14,174h0c.16,15.9,58.51,28.79,130.66,28.89,72.15-.1,130.5-13,130.66-28.89h0Z"/><path class="cls-2" d="M407.12,113.4c0-12.1-5.38-24-26.7-30.59C356.55,75.35,319,70.53,276.6,70.47s-80,4.88-103.82,12.34a47.91,47.91,0,0,0-16.18,8.13c11.5-.8,23.57-1.29,36.14-1.31,42.36.07,80,4.89,103.82,12.34,21.33,6.56,26.68,18.5,26.71,30.6l.14,174h0c0,2.84-2,5.58-5.48,8.18,51.83-3.87,89.21-14.64,89.34-27.35h0Z"/><path class="cls-3" d="M276.6,306.4c-72.14-.11-130.49-13-130.65-28.89v9.88h0c.16,15.9,58.51,28.79,130.66,28.89,72.15-.1,130.5-13,130.66-28.89h0v-9.88C407.09,293.41,348.74,306.29,276.6,306.4Z"/><path class="cls-3" d="M407.17,173.6l-.05-60.2c0-12.1-5.38-24-26.7-30.59-2.76-.87-5.74-1.68-8.86-2.47-24.24-5.32-56.43-8.62-92-8.67-44.19.06-83.43,5.1-108.32,12.87-7.75,2.38-13.37,5.47-17.54,9-5.71,5.9-7.65,12.84-7.66,19.88L146,217.25a7.09,7.09,0,0,0,3.11.63l1.35-35.34s3.44-15.57,13.47-8.38c4.49,3.21,6.33,20.51,13.18,21.26,10.52,1.16,13.24-14.69,20.88-14.63a6.43,6.43,0,0,1,4.27,1.45c5.74,5.35,8.09,62,6.6,67.09s-5.25,9.73.14,13,9.14-4,6.74-10.63-.45-67.83,11.09-65.29,8.08,16.93,15.27,19.92,11.08-22.31,20.66-16c6.82,4.47,8.94,20.33,9.59,29.1a19.23,19.23,0,0,1-1.49,9,9.85,9.85,0,0,0,0,8.57c3,5.69,10.33,4.79,12.28.6.77-1.68.85-5.21-.5-8.66a24.46,24.46,0,0,1-1.56-12.6c1.52-10.21,4.75-26.21,16.43-26.81,7-.36,15.13,12.28,17.52,34.29s4,43.42,1.65,49.71,7.49,14.08,12.28,6.59S326.1,268.64,326.4,266s-7.11-68.8,9.44-74.72c14.22-5.1,14.52,16.62,24.1,18.71,6.94,1.52,13.48-34.29,20.07-28.9s9.44,41.33,8.54,45.23-3.75,8.08.14,13.47,11.54-.3,8.54-9,.3-57.2,5.39-59.6C404.55,170.25,406.05,171.59,407.17,173.6Z"/><path class="cls-113" d="M414.84,201.76a29.16,29.16,0,0,1-2.55-12.35l.46-35.58c0-.07.06-.13.07-.2l0-40.76c0-12.63-5.61-25.08-27.86-31.92C360,73.17,320.79,68.14,276.6,68.07S193.18,73.17,168.28,81c-22.25,6.84-27.84,19.29-27.86,31.92l.67,75.35A25.16,25.16,0,0,1,139,198.36c-1.41,3.35-2.52,7.21-2,8.44,3.29,8.09,9.13,7.49,9.13,7.49L147.46,179s3.44-15.57,13.48-8.39c4.48,3.22,6.33,20.51,13.17,21.26,10.53,1.16,13.24-14.68,20.88-14.63a6.47,6.47,0,0,1,4.28,1.46c5.74,5.34,8.09,62,6.59,67.08s-5.24,9.74.15,13,9.14-4,6.74-10.63-.45-67.83,11.08-65.29,8.08,16.92,15.27,19.92,11.08-22.31,20.67-16c6.82,4.48,8.94,20.33,9.59,29.1a19.46,19.46,0,0,1-1.49,9,9.87,9.87,0,0,0,0,8.58c3,5.68,10.33,4.79,12.28.59.78-1.67.86-5.21-.5-8.65a24.58,24.58,0,0,1-1.56-12.6c1.52-10.22,4.76-26.22,16.44-26.82,7-.35,15.12,12.28,17.52,34.3s4,43.42,1.64,49.71,7.49,14.08,12.28,6.59-2.84-11.53-2.54-14.23-7.12-68.8,9.43-74.72c14.23-5.09,14.53,16.62,24.11,18.72,6.94,1.52,13.48-34.29,20.06-28.9s9.44,41.33,8.54,45.22-3.74,8.09.15,13.48,11.53-.3,8.54-9,.29-57.21,5.39-59.6,7.19,10.78,7.19,10.78l.24,36.65,4.43-2.53A8.47,8.47,0,0,0,414.84,201.76Z"/><path class="cls-64" d="M196.8,174.16a6.5,6.5,0,0,0-4.28-1.46c-7.64,0-10.35,15.79-20.88,14.63-1.57-.17-2.85-1.28-4-2.82,1.66,3.81,3.63,7,6.46,7.31,10.53,1.16,13.24-14.68,20.88-14.63a7.34,7.34,0,0,1,3.79,1.12A10,10,0,0,0,196.8,174.16Z"/><path class="cls-64" d="M221.36,178.35c-11.53-2.55-13.48,58.7-11.08,65.29s-1.35,13.92-6.74,10.63c-.12-.08-.18-.16-.29-.24-.09,1.76.53,3.37,2.76,4.73,5.39,3.29,9.14-4,6.74-10.63s-.45-67.83,11.08-65.29a10.5,10.5,0,0,1,6.12,3.68C228.49,182.83,226.35,179.45,221.36,178.35Z"/><path class="cls-64" d="M257.3,182.24c-9.59-6.29-13.48,19-20.67,16a6.19,6.19,0,0,1-2.13-1.52c1,2.69,2.19,5,4.6,6,7.19,3,11.08-22.31,20.67-16a11,11,0,0,1,2.65,2.66C261.1,186.28,259.45,183.66,257.3,182.24Z"/><path class="cls-64" d="M412.38,190.33a31.1,31.1,0,0,0,0,6.94c1,5,.31,8.5-3.35,10.71l-2,1.14,0,5.88,4.43-2.53a8.47,8.47,0,0,0,3.35-10.71A29.19,29.19,0,0,1,412.38,190.33Z"/><path class="cls-64" d="M158.46,166.07c-10-7.19-13.47,8.38-13.47,8.38l-1.17,30.7s-1.6,6.74-6.87,1.25a2.41,2.41,0,0,0,0,.4c3.29,8.09,9.13,7.49,9.13,7.49L147.46,179s3.44-15.57,13.48-8.39a6.2,6.2,0,0,1,.9,1C160.81,169.1,159.75,167,158.46,166.07Z"/><path class="cls-64" d="M397.16,163.07c-5.1,2.4-8.39,50.92-5.39,59.6,2.83,8.23-3.84,13.65-7.86,9.63a10.24,10.24,0,0,0,1.79,3.85c3.89,5.39,11.53-.3,8.54-9s.29-57.21,5.39-59.6a2.68,2.68,0,0,1,3.25.66C401.74,165,399.89,161.79,397.16,163.07Z"/><path class="cls-64" d="M292,181.49c-11.68.6-14.92,16.6-16.44,26.81a24.5,24.5,0,0,0,1.56,12.61c1.36,3.44,1.28,7,.5,8.65-1.65,3.56-7.17,4.7-10.64,1.49a8.63,8.63,0,0,0,.83,2.41c3,5.68,10.33,4.79,12.28.59.78-1.67.86-5.21-.5-8.65a24.58,24.58,0,0,1-1.56-12.6c1.52-10.22,4.76-26.22,16.44-26.82,3-.15,6.23,2.25,9.12,6.64C300.2,185.3,296,181.29,292,181.49Z"/><path class="cls-64" d="M374.54,173c-6.58-5.39-13.12,30.41-20.06,28.9-9.58-2.1-9.88-23.81-24.11-18.72-16.55,5.92-9.31,72-9.43,74.72-.34,7.08,5.16,9,2.54,14.23-2.37,4.74-7.1,3.67-10.05.73.73,5.42,8.44,10.14,12.52,3.76,4.79-7.49-2.84-11.53-2.54-14.23s-7.12-68.8,9.43-74.72c14.23-5.09,14.53,16.62,24.11,18.72,6.94,1.52,13.48-34.29,20.06-28.9a5.63,5.63,0,0,1,.55.62C376.66,175.71,375.66,173.87,374.54,173Z"/><path class="cls-114" d="M410.28,100.05c-3.4-7.75-10.81-14.63-25.36-19.1-24.86-7.77-64-12.79-108.14-12.88-44.11.09-83.27,5.11-108.13,12.88-14.55,4.47-22,11.35-25.36,19.1-2.47,9.43,4.24,17,14.43,21.75,22.79,10.53,67.55,16.26,119.06,16.27s96.28-5.74,119.07-16.27C406,117.09,412.75,109.48,410.28,100.05Z"/><path class="cls-111" d="M385.56,92.27c-2.77-5.87-8.81-11.07-20.67-14.46-20.26-5.87-52.16-9.68-88.11-9.74s-67.85,3.87-88.11,9.74C176.82,81.2,170.78,86.4,168,92.27c-2,7.13,3.45,12.89,11.76,16.45,18.57,8,55,12.3,97,12.32s78.45-4.35,97-12.32C382.1,105.16,387.57,99.4,385.56,92.27Z"/><path class="cls-68" d="M177,173.36a13.87,13.87,0,0,1-3.19-2.74c-.9-1.23-10.12-13.82-20.69-11.37-.89.21-1.57,1.24-.51,1.43,3.85.73,6.67,1.18,9.51,4.15,2.5,2.63,4,5.77,5.69,8.89,2.08,3.71,5.13,6.63,9.2,3.75A2.57,2.57,0,0,0,177,173.36Z"/><path class="cls-68" d="M204.51,170.66c-3.93-4.4-8.88-5.32-14.12-4.22-1.27.26-1.92,2.06-.14,2,4.56-.24,9.91,2.33,12.08,6.41,2.46,4.63,3.85,19.42,4,24.6.09,2.28,1.43-8.54,1.61-10C208.73,183.24,208.86,175.55,204.51,170.66Z"/><path class="cls-68" d="M207,247.76a16,16,0,0,0-2.08,3.2c-1.07,2.23,2.34,2.84,3.33.91a15,15,0,0,0,1.16-3.44C209.8,246.9,207.69,246.9,207,247.76Z"/><path class="cls-68" d="M236.14,183.35c-.79-1.79-6-6.94-11.08-7.44-2.45-.25-2.6.47-1.11.84,3.52.89,6.64,4.66,8,7.83,1.14,2.66,1.46,6.57,4.27,7.9,1.8.86,2.45-.85,2.28-3S237,185.22,236.14,183.35Z"/><path class="cls-68" d="M270.94,223.27c-1.31,2.08-2.65,3.1-1.66,5.65.65,1.69,2.73.72,3.33-.4.84-1.57.22-2.7.65-4.25A1.27,1.27,0,0,0,270.94,223.27Z"/><path class="cls-68" d="M257.19,177.51c-1.52-.17-2.26.65-.62,1.2,3.8,1.27,6.62,4.86,8.49,8.19,3.13,5.58,4.47,15.88,5.15,15.81s-.42-11.75-1.77-15.39C266.25,181.45,263,178.19,257.19,177.51Z"/><path class="cls-68" d="M307,181.38c-5.5-4.49-11.45-5.73-19.65-3.71-1.67.42-2.09,1.72-.11,1.24,19.3-4.67,24.59,18.87,26.39,32.46.29,2.2.56-3.71.34-6.29C313.2,196.15,312.74,186.06,307,181.38Z"/><path class="cls-68" d="M319.17,265.29c-1.94-1.81-4.24,3.47-3.86,5.21a2.51,2.51,0,0,0,3.13,2l.5-.08a2.6,2.6,0,0,0,2-2.71A6.26,6.26,0,0,0,319.17,265.29Z"/><path class="cls-3" d="M163.63,242.14a14.38,14.38,0,1,0-14.37-14.38A14.4,14.4,0,0,0,163.63,242.14Z"/><path class="cls-3" d="M370.28,249.93a14.38,14.38,0,1,0-14.38-14.38A14.39,14.39,0,0,0,370.28,249.93Z"/><path class="cls-3" d="M382.4,285.88a14.28,14.28,0,0,0-10-1,14.38,14.38,0,0,0-28.75.07,14.19,14.19,0,0,0,1.5,6.26A14,14,0,0,0,332.51,295a14.32,14.32,0,0,0-23.9,2.74,14,14,0,0,0-1,2.67,14.37,14.37,0,0,0-5.8-6,14.31,14.31,0,0,0,9.18-7.43h0A14.37,14.37,0,1,0,285.25,274a14.18,14.18,0,0,0-1.24,9,14.47,14.47,0,0,0-6.4-8.25,14.37,14.37,0,1,0-17.13,1.79,14.23,14.23,0,0,0,1.74,22.34,14.31,14.31,0,0,0-4.78,4.37,14.35,14.35,0,0,0-10.57-11.53,14.32,14.32,0,0,0-1.11-27.71,14,14,0,0,0-.1-14.67,14.82,14.82,0,0,0,2.43.24,14.5,14.5,0,1,0-12.25-6.93,13.79,13.79,0,0,0-2.42-.25,14.37,14.37,0,0,0-3.08,28.4A14.22,14.22,0,0,0,239.12,292a14.2,14.2,0,0,0-3.89,1.79,14.27,14.27,0,0,0-22.1-1.57,14.41,14.41,0,0,0-3.27-3.52,14.34,14.34,0,1,0-17-22.26,14.16,14.16,0,0,0-2.09-6.63A14.44,14.44,0,1,0,178.1,253a14.18,14.18,0,0,0-6.64,1.93A14.29,14.29,0,0,0,146,248.72l0,17.37a14.33,14.33,0,0,0,11.39,5.7c.16,0,.31-.05.47-.05a14.24,14.24,0,0,0-7,23.31,38.77,38.77,0,0,0,7.6,4.53,14.55,14.55,0,0,0,3.12.36,14.22,14.22,0,0,0,7.39-2.11,13.92,13.92,0,0,0,18.9,7.7,14.27,14.27,0,0,0,2,3.35c5.86,1.15,12.18,2.19,18.91,3.1a14.52,14.52,0,0,0,2.7-2.17,14.85,14.85,0,0,0,2.49,2.87c5.34.65,11,1.2,16.74,1.68.29-.17.62-.25.9-.43.14.2.34.35.49.54q10.29.84,21.3,1.3a14.07,14.07,0,0,0,1.82-2.11,14.36,14.36,0,0,0,.57,2.19c6.8.25,13.71.42,20.82.43,2.08,0,4.1,0,6.15-.08.13-.34.29-.68.39-1,.27.37.62.67.93,1,7.56-.1,14.94-.34,22.1-.72a14.44,14.44,0,0,0,2.47-5,14.39,14.39,0,0,0,3.82,4.6,426.24,426.24,0,0,0,43.42-4.86,14.37,14.37,0,0,0,.92-4.92,14.16,14.16,0,0,0-1.5-6.26,13.16,13.16,0,0,0,6.35-.26,14.48,14.48,0,0,0,3.87,9.63A157.63,157.63,0,0,0,390,301.63,14.36,14.36,0,0,0,382.4,285.88ZM161.54,271.19c-.16,0-.31,0-.47.05a14.72,14.72,0,0,0,3.42-1.43,13.81,13.81,0,0,0,.49,1.84A14.48,14.48,0,0,0,161.54,271.19Zm27.09,8.4A12.58,12.58,0,0,0,187,279a14.22,14.22,0,0,0,2.53-2.37,13.8,13.8,0,0,0,.86,4.08A14.14,14.14,0,0,0,188.63,279.59ZM281,303a14.38,14.38,0,0,0-3.57-3.52,14.21,14.21,0,0,0,5.66-6h0a14.19,14.19,0,0,0,.9-10.43,16.21,16.21,0,0,0,.45,1.95,14.27,14.27,0,0,0,6.67,8A14.35,14.35,0,0,0,281,303Z"/><path class="cls-3" d="M407.26,287.39h0l0-42.8A14.26,14.26,0,0,0,390,256a14.16,14.16,0,0,0-7.45-2.15,14.38,14.38,0,1,0,5.91,27.44A14.11,14.11,0,0,0,396.15,299C403.21,295.41,407.22,291.5,407.26,287.39ZM396.11,272.8a14.22,14.22,0,0,0,.56-2,13.75,13.75,0,0,0,2.05,1.07A14.33,14.33,0,0,0,396.11,272.8Z"/><path class="cls-3" d="M302.74,264.3a14.38,14.38,0,1,0-14.37-14.37A14.39,14.39,0,0,0,302.74,264.3Z"/><path class="cls-3" d="M349.32,271.49a14.38,14.38,0,1,0-14.38-14.38A14.39,14.39,0,0,0,349.32,271.49Z"/><path class="cls-115" d="M198.67,242.44a10.78,10.78,0,1,0-10.78,10.78A10.77,10.77,0,0,0,198.67,242.44Z"/><path class="cls-116" d="M241.8,253.82A10.79,10.79,0,1,0,231,264.6,10.78,10.78,0,0,0,241.8,253.82Z"/><path class="cls-117" d="M172,224.77a10.78,10.78,0,1,0-10.78,10.78A10.78,10.78,0,0,0,172,224.77Z"/><path class="cls-118" d="M256.47,232.25A10.78,10.78,0,1,0,245.69,243,10.78,10.78,0,0,0,256.47,232.25Z"/><path class="cls-119" d="M187,264.3a10.78,10.78,0,1,0-10.78,10.78A10.78,10.78,0,0,0,187,264.3Z"/><path class="cls-120" d="M165.73,254.42A10.78,10.78,0,1,0,155,265.2,10.78,10.78,0,0,0,165.73,254.42Z"/><path class="cls-121" d="M169.92,282.57a10.78,10.78,0,1,0-10.78,10.78A10.78,10.78,0,0,0,169.92,282.57Z"/><path class="cls-122" d="M378.66,232.56a10.78,10.78,0,1,0-10.78,10.78A10.78,10.78,0,0,0,378.66,232.56Z"/><path class="cls-123" d="M412.5,255.61a10.78,10.78,0,1,0-10.78,10.79A10.78,10.78,0,0,0,412.5,255.61Z"/><path class="cls-124" d="M390.94,265.2A10.78,10.78,0,1,0,380.16,276,10.77,10.77,0,0,0,390.94,265.2Z"/><path class="cls-125" d="M366.38,282a10.78,10.78,0,1,0-10.78,10.78A10.78,10.78,0,0,0,366.38,282Z"/><path class="cls-126" d="M383.21,300.57a10.78,10.78,0,1,0-14.46,4.82A10.78,10.78,0,0,0,383.21,300.57Z"/><path class="cls-127" d="M410.41,282.87a10.78,10.78,0,1,0-10.78,10.78A10.78,10.78,0,0,0,410.41,282.87Z"/><path class="cls-128" d="M251.08,275.08a10.78,10.78,0,1,0-10.78,10.78A10.78,10.78,0,0,0,251.08,275.08Z"/><path class="cls-129" d="M212.15,272.69a10.78,10.78,0,1,0-10.78,10.78A10.79,10.79,0,0,0,212.15,272.69Z"/><path class="cls-130" d="M311.13,246.93a10.78,10.78,0,1,0-10.78,10.78A10.78,10.78,0,0,0,311.13,246.93Z"/><path class="cls-131" d="M357.7,254.12a10.78,10.78,0,1,0-10.78,10.78A10.78,10.78,0,0,0,357.7,254.12Z"/><path class="cls-132" d="M276.24,261.31a10.78,10.78,0,1,0-10.78,10.78A10.78,10.78,0,0,0,276.24,261.31Z"/><path class="cls-133" d="M251.68,302.64a10.78,10.78,0,1,0-10.78,10.78A10.79,10.79,0,0,0,251.68,302.64Z"/><path class="cls-134" d="M328.71,306a10.78,10.78,0,1,0-14.47,4.82A10.8,10.8,0,0,0,328.71,306Z"/><path class="cls-135" d="M305.35,282.3a10.78,10.78,0,1,0-14.47,4.82A10.8,10.8,0,0,0,305.35,282.3Z"/><path class="cls-136" d="M277.5,288.89A10.78,10.78,0,1,0,263,293.71,10.79,10.79,0,0,0,277.5,288.89Z"/><path class="cls-137" d="M350.81,302.33A10.78,10.78,0,1,0,340,313.12,10.78,10.78,0,0,0,350.81,302.33Z"/><path class="cls-138" d="M277.73,308.33A10.78,10.78,0,1,0,267,319.11,10.78,10.78,0,0,0,277.73,308.33Z"/><path class="cls-139" d="M303.19,303.83a10.78,10.78,0,1,0-10.78,10.78A10.78,10.78,0,0,0,303.19,303.83Z"/><path class="cls-140" d="M231.91,299a10.78,10.78,0,1,0-10.78,10.78A10.78,10.78,0,0,0,231.91,299Z"/><path class="cls-141" d="M189.45,294.28A10.78,10.78,0,1,0,175,299.1,10.8,10.8,0,0,0,189.45,294.28Z"/><path class="cls-142" d="M209.45,296.94a10.78,10.78,0,1,0-10.78,10.79A10.78,10.78,0,0,0,209.45,296.94Z"/><path class="cls-64" d="M337.46,83.85c0,12.77-26.28,23.11-58.7,23.11s-58.7-10.34-58.7-23.11,26.28-23.1,58.7-23.1S337.46,71.09,337.46,83.85Z"/><path class="cls-143" d="M330.57,82.21c.84,10.13-23.73,18.42-53,18.42s-52.74-8.25-53-18.42c-.89-34.14,44.67-73.72,53-82.21C287.74,10.78,327.43,44,330.57,82.21Z"/><path class="cls-144" d="M277.57,0c-3.26,10-21,53.86-20.68,93.87a22.92,22.92,0,0,0,.77,5.4c3.86.55,8,.93,12.24,1.14a54.28,54.28,0,0,1-.43-6.54c-.14-40,6.82-83.92,8.1-93.87Zm0,0h0c-6.79,9.46-43.86,51.93-43.13,90a10.3,10.3,0,0,0,.62,3.14,60.13,60.13,0,0,0,9.61,3.49,14.78,14.78,0,0,1-.35-2.74C243.75,53.86,272.33,10,277.56,0Zm8.11,93.87a52.67,52.67,0,0,1-.38,6.54c4.28-.22,8.41-.6,12.32-1.15a20.83,20.83,0,0,0,.63-5.39C297,49.12,281.54,12.64,277.57,0,279.12,12.64,285.19,49.12,285.67,93.87ZM277.57,0c6.38,12.64,31.27,49.12,33.24,93.87a12.28,12.28,0,0,1-.22,2.78,62.32,62.32,0,0,0,9.65-3.4,9.31,9.31,0,0,0,.45-3.27C318.13,47.42,285.86,12,277.57,0Z"/></g></g></svg>