<svg xmlns="http://www.w3.org/2000/svg" xmlns:xlink="http://www.w3.org/1999/xlink" viewBox="0 0 467.54 433.23"><defs><style>.cls-1{fill:#efddbf;}.cls-2{fill:url(#linear-gradient);}.cls-3{fill:#8e575c;}.cls-4{fill:#e2b896;}.cls-5{fill:#613d3d;}.cls-6{fill:#ecdeba;}.cls-7{fill:#fff8e7;}.cls-8{fill:url(#linear-gradient-2);}.cls-9{fill:#fff;}.cls-10{fill:#a20c11;}.cls-11{fill:#93191e;}.cls-12{fill:url(#linear-gradient-3);}.cls-13{fill:url(#linear-gradient-4);}.cls-14{fill:url(#linear-gradient-5);}.cls-15{fill:url(#linear-gradient-6);}.cls-16{fill:url(#linear-gradient-7);}.cls-17{fill:url(#linear-gradient-8);}.cls-18{fill:url(#linear-gradient-9);}.cls-19{fill:url(#linear-gradient-10);}.cls-20{fill:url(#linear-gradient-11);}.cls-21{fill:#ce9f86;}.cls-21,.cls-22,.cls-23{opacity:0.53;}.cls-22{fill:#ce9b80;}.cls-23{fill:#b28267;}.cls-24{fill:#e7cfa8;}.cls-25{fill:#704a48;}.cls-26{fill:#694442;}</style><linearGradient id="linear-gradient" x1="32.88" y1="252.38" x2="432.24" y2="252.38" gradientUnits="userSpaceOnUse"><stop offset="0.19" stop-color="#89585a"/><stop offset="0.84" stop-color="#7d4645"/></linearGradient><linearGradient id="linear-gradient-2" x1="245.96" y1="44.62" x2="283.59" y2="81.28" gradientUnits="userSpaceOnUse"><stop offset="0.07" stop-color="#d0343a"/><stop offset="0.86" stop-color="#ac0d12"/></linearGradient><linearGradient id="linear-gradient-3" x1="177.39" y1="44.93" x2="215.01" y2="81.59" xlink:href="#linear-gradient-2"/><linearGradient id="linear-gradient-4" x1="444.22" y1="92.31" x2="481.85" y2="128.97" gradientTransform="translate(-101.7 -114.92) rotate(10.03)" xlink:href="#linear-gradient-2"/><linearGradient id="linear-gradient-5" x1="359.42" y1="78.9" x2="402.91" y2="121.27" xlink:href="#linear-gradient-2"/><linearGradient id="linear-gradient-6" x1="230.26" y1="74.29" x2="277.3" y2="120.11" gradientTransform="matrix(1, -0.09, 0.09, 1, 56.08, 49.55)" xlink:href="#linear-gradient-2"/><linearGradient id="linear-gradient-7" x1="110.38" y1="51.84" x2="148" y2="88.5" xlink:href="#linear-gradient-2"/><linearGradient id="linear-gradient-8" x1="59.9" y1="78.9" x2="103.38" y2="121.27" xlink:href="#linear-gradient-2"/><linearGradient id="linear-gradient-9" x1="116.82" y1="98.35" x2="164.78" y2="145.08" xlink:href="#linear-gradient-2"/><linearGradient id="linear-gradient-10" x1="203.81" y1="102.19" x2="254.38" y2="151.46" xlink:href="#linear-gradient-2"/><linearGradient id="linear-gradient-11" x1="-294.85" y1="63.66" x2="116.77" y2="63.66" gradientTransform="translate(319 200.62)" gradientUnits="userSpaceOnUse"><stop offset="0.05" stop-color="#815654"/><stop offset="0.76" stop-color="#704a48"/></linearGradient></defs><g id="Layer_2" data-name="Layer 2"><g id="Layer_1-2" data-name="Layer 1"><path class="cls-1" d="M31.3,338.36a69.45,69.45,0,0,0-16.25,1.82c-.37-.17-.75-.35-1.17-.51-3.12-1.18-6.69-1-7.65-4.84-1.73,2.45-4.14,6.86-2.5,10.28-1.91,1.55-3,3.27-3,5.11,0,6.54,13.7,11.85,30.59,11.85s30.58-5.31,30.58-11.85S48.19,338.36,31.3,338.36Z"/><path class="cls-1" d="M2.53,354.22c7.23,7.21,20.41,9.59,40,7.12,3.64-7.71-10.58-8.89-15.12-7.27-10.62,3.78-12.22-3.71-13.24-3.49C7.52,352,8,346.52,6.62,345.4c-3.93-3.19-2.45-7.65-.39-10.57,0-.11-.05-.23-.08-.34-.12.08-9.65,2.21-4.75,13.33a.25.25,0,0,1,0,.07C.48,350.21-.37,352.18,2.53,354.22Z"/><path class="cls-1" d="M59.41,354.5c-1.91-5.92-4.65-13.44-14.08-14.94-9.84-9.72-21.65-10.35-25-9.67-.42-.06-.87-.13-1.34-.23a6.39,6.39,0,0,1-3.52-2,6.05,6.05,0,0,1-.61-.85,8.63,8.63,0,0,1-1.07-4.17c-.81.39-7,3.51-7.82,7.75a14.37,14.37,0,0,0,.24,4.42c.59,3.9,2.8,3.47,4.09,5.14,1.12,1.46.65,2.83,3.7,4.29s4.66.41,6.47.36c6.19-.15,4.88,2,9.5,3.7,3.31,1.22,11.37,1.35,13,2.4,3.78,2.48,9.6,1.46,7,8.58A16.3,16.3,0,0,0,59.41,354.5Z"/><path class="cls-1" d="M19,329.66c.47.1-1.13,9.39,10.76,7.87,3.41-.45,1.53,7.41,11.46,6.07,8.56-1.17,8,1.29,11,2.59,6.44,2.79,6.87,6.61,6.87,6.61,1.94,0,2.68-1.23,3.26-3.08a2,2,0,0,0,.11-.52c.22-1.93-3-5.91-3-5.91v-.11a28.69,28.69,0,0,0-14.83-11.36c-1.85-.69-4.55,1.39-6.14-.09s-2-6.33-10.85-6.94c-2.29-.16-6.17-2.5-3.65-6.88,2.27-3.93-1.81-4.38.69-9.27,1.31-2.55-.27-6.9,2.41-8.66L27,300s-4.39,2-5.76,4.55-1.06,5.61-2.27,7.58-4.24,3.79-4.85,6.81S13,328.29,19,329.66Z"/><path class="cls-1" d="M58.06,334.8a2,2,0,0,0-.6-.5,5.13,5.13,0,0,1-2.52-4.59,6.53,6.53,0,0,0,0-1.26c-.3-2.73-3.22-4-6.7-4.89s-4.75-3.7-6.11-5.67-5.36-1.57-8.07-3.39c-6.88-4.58-6-10.65-5.78-11.35C29.31,300.12,27,300,27,300l.06,0c-2.68,1.76-1.1,6.11-2.41,8.66-2.5,4.89,1.58,5.34-.69,9.27-2.52,4.38,1.36,6.72,3.65,6.88,8.83.61,2.34,4.22,6.92,7.6,1.86,1.37,8.53-.49,9.71,1.25,2.19,3.2,4.14,2.9,6.11,3.49,3.5,1.06,6.46,2.09,9.08,6.05,0-.1,0-.27.08-.47C61,339,59.41,336.62,58.06,334.8Z"/><path class="cls-1" d="M436.63,331.21a63.54,63.54,0,0,1,14.78,1.65c.34-.15.68-.31,1.07-.46,2.83-1.07,6.08-.95,6.95-4.41,1.58,2.23,3.76,6.25,2.28,9.35,1.74,1.41,2.74,3,2.74,4.65,0,5.95-12.45,10.78-27.82,10.78s-27.81-4.83-27.81-10.78S421.27,331.21,436.63,331.21Z"/><path class="cls-1" d="M462.8,345.63c-6.58,6.56-18.56,8.73-36.39,6.48-3.3-7,9.63-8.09,13.76-6.62,9.66,3.44,11.12-3.37,12-3.17,6.06,1.29,5.61-3.69,6.86-4.71,3.58-2.9,2.24-7,.36-9.62,0-.1.06-.2.08-.3.11.07,8.78,2,4.32,12.12,0,0,0,0,0,.06C464.67,342,465.44,343.77,462.8,345.63Z"/><path class="cls-1" d="M419.66,350.26c-2.38-6.49,2.91-5.56,6.35-7.81,1.48-1,8.81-1.07,11.82-2.18,4.2-1.54,3-3.51,8.63-3.37,1.65,0,3,1,5.88-.33s2.35-2.57,3.38-3.9c1.16-1.51,3.17-1.12,3.71-4.68a12.94,12.94,0,0,0,.23-4c-.77-3.86-6.38-6.7-7.12-7.06a7.78,7.78,0,0,1-1,3.8,6.05,6.05,0,0,1-.56.77,5.8,5.8,0,0,1-3.2,1.8,12,12,0,0,1-1.22.21c-3-.62-13.77,0-22.72,8.8-8.57,1.36-11.07,8.2-12.81,13.59A14.91,14.91,0,0,0,419.66,350.26Z"/><path class="cls-1" d="M447.81,323.29c-.43.1,1,8.54-9.79,7.15-3.11-.4-1.39,6.75-10.41,5.53-7.8-1.06-7.3,1.18-10,2.36-5.85,2.54-6.25,6-6.25,6-1.75,0-2.43-1.12-2.95-2.79a2.33,2.33,0,0,1-.12-.49c-.19-1.75,2.76-5.37,2.76-5.37v-.1a26,26,0,0,1,13.48-10.33c1.69-.63,4.14,1.27,5.6-.08s1.83-5.76,9.86-6.31c2.08-.15,5.61-2.28,3.32-6.26-2.07-3.58,1.65-4-.63-8.43-1.19-2.33.26-6.28-2.19-7.89h.06s4,1.79,5.23,4.13,1,5.1,2.07,6.89,3.86,3.44,4.41,6.2S453.32,322.05,447.81,323.29Z"/><path class="cls-1" d="M412.29,328a2,2,0,0,1,.54-.46,4.67,4.67,0,0,0,2.31-4.16,5.56,5.56,0,0,1,0-1.16c.27-2.48,2.92-3.62,6.1-4.44s4.31-3.37,5.55-5.16,4.87-1.43,7.34-3.09c6.25-4.16,5.48-9.68,5.26-10.32-1-2.75,1.1-2.89,1.1-2.89h-.06c2.45,1.61,1,5.56,2.19,7.89,2.28,4.43-1.44,4.85.63,8.43,2.29,4-1.24,6.11-3.32,6.26-8,.55-2.12,3.84-6.29,6.91-1.69,1.25-7.76-.45-8.83,1.13-2,2.91-3.78,2.63-5.56,3.18-3.19,1-5.88,1.9-8.26,5.5,0-.09,0-.24-.07-.43C409.65,331.74,411.06,329.63,412.29,328Z"/><path class="cls-2" d="M432,156.85a41.28,41.28,0,0,0-25.23-38c-34.2-14.48-99.4-24.27-174.22-24.27s-140,9.79-174.23,24.27a41.26,41.26,0,0,0-25.22,38L32.88,366.3h0c.25,24.23,89.55,43.86,199.68,43.86S432,390.53,432.23,366.3h0Z"/><path class="cls-3" d="M413.48,168.83c15.31-9.23,18-30.84,4.71-42.74a41.4,41.4,0,0,0-11.41-7.22c-34.2-14.48-99.4-24.27-174.22-24.27s-140,9.79-174.23,24.27a41.35,41.35,0,0,0-11.4,7.22c-13.34,11.9-10.6,33.51,4.7,42.74,32,19.29,101,32.64,180.93,32.64S381.53,188.12,413.48,168.83Z"/><path class="cls-4" d="M395.41,142.09c0,21.39-72.92,38.73-162.85,38.73S69.71,163.48,69.71,142.09s72.9-38.73,162.85-38.73S395.41,120.7,395.41,142.09Z"/><path class="cls-5" d="M47.53,156.89l3.5,3.43a17.47,17.47,0,0,0,13.82,9l11.24,1A14.6,14.6,0,0,1,87.2,177h0a23.59,23.59,0,0,0,11.36,9.41s24.72,8.35,31,8.14l14.55-.47,14.55,3.77a22.33,22.33,0,0,0,16.24-2h0a12.41,12.41,0,0,1,14.36,1.77h0a27.57,27.57,0,0,0,13.31,6.79l19.11,3.82a38.06,38.06,0,0,0,12.55.4l26.33-3.56a9.13,9.13,0,0,0,4-1.58h0c7.89-5.53,15.47-6.24,25-4.84l6.59-.94s13.05-1.45,17.87,1l1.75.91A19.17,19.17,0,0,0,329,201.26l11.22-2.65a34.44,34.44,0,0,0,14-6.94l1.41-1.16a13.68,13.68,0,0,1,7.45-3.1h0a13.74,13.74,0,0,0,12.21-11.29h0a9.65,9.65,0,0,1,6.55-7.5l6.24-2,13.31.3A21.45,21.45,0,0,0,416,161.57h0c3.48-3.06,10.88-10.41,9.66-14.88-.63-2.3-3.06-12.72-3.06-12.72L333.4,171.33l-25,.94L250,174.16,190.7,178.4,129,162.86l-29.67-8.48-59-9.42C40,150.93,42.63,154.17,47.53,156.89Z"/><path class="cls-6" d="M45.81,149.52l3,5.47a17.48,17.48,0,0,0,13.82,9l11.24.95A14.57,14.57,0,0,1,85,171.67h0a23.65,23.65,0,0,0,11.36,9.41l12.68,5a46,46,0,0,0,18.3,3.16l14.55-.48,14.55,3.76a22.23,22.23,0,0,0,16.24-2h0A12.42,12.42,0,0,1,187,192.28h0a27.62,27.62,0,0,0,13.31,6.79l19.12,3.83a38.32,38.32,0,0,0,12.55.39l26.33-3.56a9.26,9.26,0,0,0,4-1.58h0c7.9-5.53,15.47-6.24,25-4.84l6.59-.94s13-1.45,17.86,1l1.74.89a19.16,19.16,0,0,0,13.19,1.62L338,193.27a34.41,34.41,0,0,0,14-6.94l1.4-1.16a13.86,13.86,0,0,1,7.45-3.1h0a13.77,13.77,0,0,0,12.22-11.29h0a9.63,9.63,0,0,1,6.55-7.5l6.23-2,13.32.28a21.46,21.46,0,0,0,14.62-5.33l5.5-4.84L418.8,133l-87.59,33-25,.94-58.4,1.88-59.34,4.24-61.7-15.54L97.14,149Z"/><path class="cls-7" d="M265.63,88A80.51,80.51,0,0,1,284.5,90.1c.44-.2.87-.4,1.36-.59,3.62-1.37,7.78-1.21,8.89-5.63,2,2.86,4.81,8,2.9,11.94,2.22,1.8,3.51,3.81,3.51,5.94,0,7.6-15.91,13.77-35.53,13.77s-35.53-6.17-35.53-13.77S246,88,265.63,88Z"/><path class="cls-6" d="M299,106.4c-8.4,8.38-23.7,11.15-46.46,8.29-4.23-9,12.29-10.34,17.57-8.46,12.34,4.4,14.2-4.3,15.37-4,7.74,1.65,7.17-4.71,8.77-6,4.57-3.7,2.85-8.88.46-12.28,0-.13.07-.26.1-.39.12.09,11.21,2.56,5.51,15.49a.19.19,0,0,0,0,.07C301.44,101.75,302.43,104,299,106.4Z"/><path class="cls-6" d="M244,112.32c-3.05-8.28,3.72-7.1,8.1-10,1.89-1.23,11.25-1.38,15.09-2.79,5.36-2,3.85-4.48,11-4.3,2.11,0,3.87,1.31,7.51-.42s3-3.29,4.31-5c1.49-1.93,4.06-1.44,4.75-6a16.54,16.54,0,0,0,.29-5.13c-1-4.93-8.15-8.55-9.09-9a10.07,10.07,0,0,1-1.25,4.85,6.79,6.79,0,0,1-.71,1,7.35,7.35,0,0,1-4.09,2.3c-.54.13-1.06.2-1.56.27-3.86-.79-17.58,0-29,11.24-10.95,1.74-14.13,10.47-16.35,17.36C236,110,239.77,111.54,244,112.32Z"/><path class="cls-7" d="M285.18,64.51h-11c2.59,4.9-1.74,7.53-4.35,7.71-10.26.71-10.65,6.25-12.6,8.06s-5-.69-7.15.11c-6.31,2.34-12.35,5.87-17.22,13.19l0,.13s-3.77,4.62-3.52,6.87a2.9,2.9,0,0,0,.13.61c.68,2.14,1.53,3.56,3.78,3.56,0,0,.5-4.43,8-7.68,3.47-1.5,2.84-4.35,12.79-3,11.54,1.57,9.34-7.56,13.31-7,13.82,1.78,12-9,12.5-9.14,7-1.58,6.33-9,5.63-12.49A5.45,5.45,0,0,0,285.18,64.51Z"/><path class="cls-7" d="M252.88,64.51c-1.51,2.26-3,5.27-6.89,6.28-4.05,1-7.44,2.51-7.8,5.68a10.18,10.18,0,0,0,0,1.47,6,6,0,0,1-2.94,5.33,2.31,2.31,0,0,0-.69.58C233,86,231.15,88.67,232.81,93c0,.24.06.44.09.55,3-4.59,6.48-5.79,10.55-7,2.28-.69,4.56-.33,7.1-4,1.37-2,9.12.15,11.28-1.44,5.32-3.93-2.22-8.13,8-8.84,2.61-.18,6.94-2.81,4.35-7.71Z"/><path class="cls-8" d="M275.93,44.82c-6.44-1.38-8.61.57-11.57.57s-5.14-2-11.58-.57c-5.14,1.11-10.37,6.73-10.61,14.25-.48,15,7.72,23.06,16.44,25.66.92-3.36,4.57-4.94,8.2-5.87,2.85-.72,5.15.15,7.73.62,2.2-.35,4.92-.72,6.13-2.61a3.87,3.87,0,0,1,2-1.58c2.53-4.09,4.07-9.43,3.86-16.22C286.31,51.55,281.07,45.93,275.93,44.82Z"/><path class="cls-9" d="M254.63,54.5c-.54,1.83-1.29,3.29-3.65,3.29s-4-1.69-3.72-3.46A3.9,3.9,0,0,1,251.88,51C254.44,51.3,255.13,52.77,254.63,54.5Z"/><path class="cls-10" d="M270,46.41c0,1.09-2.44,2.52-5.43,2.52s-5.42-1.43-5.42-2.52,2.43-.55,5.42-.55S270,45.32,270,46.41Z"/><path class="cls-11" d="M264.47,49h-.09a1.2,1.2,0,0,1-1.1-1.28c.7-8.86.44-30.8-17.07-43.22a1.2,1.2,0,1,1,1.39-1.95c13,9.24,19.61,25.77,18.07,45.35A1.2,1.2,0,0,1,264.47,49Z"/><path class="cls-7" d="M197.06,88.29a81,81,0,0,1,18.87,2.12c.43-.2.88-.4,1.37-.59,3.62-1.37,7.78-1.2,8.89-5.63,2,2.85,4.8,8,2.89,12,2.23,1.79,3.51,3.8,3.51,5.93,0,7.61-15.91,13.77-35.53,13.77s-35.53-6.16-35.53-13.77S177.44,88.29,197.06,88.29Z"/><path class="cls-6" d="M230.47,106.71c-8.39,8.38-23.69,11.16-46.46,8.28-4.23-8.95,12.29-10.33,17.57-8.45,12.34,4.4,14.2-4.3,15.38-4.05,7.73,1.65,7.15-4.71,8.76-6,4.56-3.71,2.85-8.89.47-12.29,0-.12.06-.26.09-.38.13.09,11.2,2.55,5.51,15.48,0,0,0,0,0,.07C232.87,102.06,233.86,104.35,230.47,106.71Z"/><path class="cls-6" d="M175.39,112.63c-3-8.28,3.72-7.1,8.11-10,1.88-1.23,11.24-1.37,15.08-2.79,5.36-2,3.84-4.48,11-4.3,2.11.05,3.87,1.32,7.52-.42s3-3.28,4.3-5c1.49-1.92,4.06-1.43,4.76-6a17.15,17.15,0,0,0,.28-5.13c-1-4.92-8.15-8.55-9.09-9a10,10,0,0,1-1.25,4.84,5.55,5.55,0,0,1-.71,1,7.42,7.42,0,0,1-4.09,2.31c-.55.11-1.06.2-1.56.26-3.86-.79-17.58,0-29,11.24-10.95,1.74-14.14,10.48-16.36,17.37A19.06,19.06,0,0,0,175.39,112.63Z"/><path class="cls-7" d="M216.61,64.83h-11c2.59,4.89-1.74,7.52-4.35,7.71-10.26.71-10.65,6.24-12.61,8s-5-.69-7.13.11c-6.31,2.34-12.36,5.87-17.24,13.19l0,.13s-3.77,4.62-3.52,6.87a3.71,3.71,0,0,0,.13.61c.68,2.14,1.54,3.57,3.78,3.57,0,0,.51-4.44,8-7.68,3.47-1.51,2.85-4.36,12.8-3,11.53,1.56,9.33-7.57,13.31-7,13.81,1.77,11.94-9,12.49-9.14,7-1.58,6.33-9,5.63-12.5A5.35,5.35,0,0,0,216.61,64.83Z"/><path class="cls-7" d="M184.31,64.83c-1.51,2.26-3,5.26-6.89,6.27-4.06,1.06-7.44,2.51-7.79,5.68a8,8,0,0,0,0,1.48,5.92,5.92,0,0,1-2.94,5.32,2.33,2.33,0,0,0-.69.59c-1.57,2.11-3.38,4.81-1.73,9.18,0,.24.07.43.08.54,3.06-4.59,6.49-5.79,10.56-7,2.28-.69,4.56-.34,7.1-4.06,1.37-2,9.12.15,11.28-1.44,5.32-3.93-2.22-8.12,8-8.83,2.61-.19,6.94-2.82,4.35-7.71Z"/><path class="cls-12" d="M207.37,45.14c-6.45-1.38-8.61.56-11.58.56s-5.14-1.94-11.58-.56c-5.15,1.11-10.37,6.72-10.61,14.23-.48,15,7.72,23.08,16.44,25.67.92-3.36,4.57-4.94,8.19-5.86,2.86-.73,5.17.15,7.74.61,2.21-.35,4.92-.71,6.13-2.61a3.87,3.87,0,0,1,2-1.58c2.53-4.08,4.08-9.43,3.86-16.23C217.74,51.86,212.5,46.25,207.37,45.14Z"/><path class="cls-9" d="M186.06,54.82c-.54,1.82-1.29,3.28-3.64,3.28s-4-1.68-3.73-3.46a3.88,3.88,0,0,1,4.61-3.32C185.88,51.62,186.57,53.09,186.06,54.82Z"/><path class="cls-10" d="M201.38,46.72c0,1.09-2.43,2.53-5.43,2.53s-5.42-1.44-5.42-2.53,2.43-.54,5.42-.54S201.38,45.63,201.38,46.72Z"/><path class="cls-11" d="M195.91,49.31a1.2,1.2,0,0,1-1.16-.91c-3.46-13.87-.29-33.52,7.71-47.79a1.21,1.21,0,0,1,1.63-.46,1.21,1.21,0,0,1,.46,1.63c-7.73,13.78-10.81,32.72-7.48,46.05a1.19,1.19,0,0,1-.87,1.44A1,1,0,0,1,195.91,49.31Z"/><path class="cls-7" d="M333.14,98.5A80.92,80.92,0,0,1,352,100.61c.44-.19.88-.4,1.37-.58,3.62-1.38,7.78-1.22,8.89-5.64,2,2.86,4.8,8,2.9,11.94,2.22,1.81,3.5,3.81,3.5,5.94,0,7.6-15.9,13.77-35.53,13.77s-35.53-6.17-35.53-13.77S313.52,98.5,333.14,98.5Z"/><path class="cls-6" d="M366.56,116.92c-8.4,8.38-23.7,11.14-46.47,8.28-4.23-9,12.3-10.33,17.57-8.45,12.34,4.39,14.2-4.31,15.38-4.06,7.73,1.65,7.16-4.71,8.76-6,4.57-3.71,2.86-8.89.47-12.29l.09-.38c.13.09,11.21,2.55,5.51,15.48l0,.07C369,112.26,369.94,114.55,366.56,116.92Z"/><path class="cls-6" d="M311.47,122.83c-3-8.28,3.72-7.1,8.11-10,1.88-1.23,11.25-1.37,15.09-2.79,5.35-2,3.84-4.48,11-4.3,2.11.06,3.87,1.31,7.52-.42s3-3.28,4.31-5c1.49-1.93,4.05-1.44,4.75-6a16.79,16.79,0,0,0,.28-5.12c-1-4.93-8.15-8.56-9.09-9a9.87,9.87,0,0,1-1.25,4.85,6,6,0,0,1-.7,1,7.36,7.36,0,0,1-4.09,2.31c-.55.12-1.07.2-1.56.26-3.87-.79-17.59,0-29,11.24-10.95,1.75-14.13,10.48-16.35,17.37A19,19,0,0,0,311.47,122.83Z"/><path class="cls-7" d="M352.69,75h-11c2.6,4.9-1.74,7.53-4.34,7.7-10.27.71-10.66,6.25-12.61,8.07s-5-.7-7.14.1c-6.31,2.34-12.36,5.88-17.23,13.19l0,.14s-3.77,4.62-3.52,6.86a3.56,3.56,0,0,0,.14.61c.67,2.14,1.53,3.57,3.78,3.57,0,0,.5-4.44,8-7.68,3.48-1.51,2.85-4.36,12.8-3,11.53,1.56,9.34-7.56,13.31-7.06,13.81,1.78,11.95-9,12.5-9.13,7-1.58,6.33-9,5.63-12.49A4.82,4.82,0,0,0,352.69,75Z"/><path class="cls-7" d="M320.39,75c-1.51,2.26-3,5.26-6.89,6.27-4.05,1.06-7.44,2.52-7.79,5.68a8.91,8.91,0,0,0,0,1.47,5.94,5.94,0,0,1-2.93,5.33,2.38,2.38,0,0,0-.7.59c-1.56,2.11-3.38,4.81-1.73,9.18,0,.23.07.43.09.54,3.06-4.59,6.49-5.79,10.55-7,2.28-.69,4.56-.34,7.1-4,1.38-2,9.12.15,11.28-1.45,5.33-3.93-2.22-8.13,8.05-8.84,2.6-.17,6.94-2.8,4.34-7.7Z"/><path class="cls-13" d="M349.13,58.79c-6.12-2.49-8.58-.95-11.5-1.46s-4.72-2.81-11.3-2.57c-5.27.19-11.39,4.8-12.94,12.17C310.31,81.63,317,91,325.11,95.06c1.5-3.15,5.36-4.07,9.09-4.34,2.94-.22,5.06,1,7.51,2,2.24,0,5,.15,6.5-1.5a3.83,3.83,0,0,1,2.24-1.2c3.21-3.59,5.67-8.58,6.64-15.31C358.17,67.22,354,60.77,349.13,58.79Z"/><path class="cls-9" d="M327.14,62.2c-.84,1.7-1.83,3-4.15,2.59s-3.64-2.36-3.07-4.05A3.89,3.89,0,0,1,325,58.27C327.53,59,328,60.58,327.14,62.2Z"/><path class="cls-10" d="M341.94,60.18c-.15,1.08-2.75,2.16-5.72,1.76s-5.18-2.14-5-3.22,2.47-.22,5.44.18S342.09,59.09,341.94,60.18Z"/><path class="cls-11" d="M336.07,60.76a1.2,1.2,0,0,1-1.16-.91c-1.75-7,.76-17.14,6.57-26.41,6.35-10.18,15.16-17.1,24.17-19a1.23,1.23,0,0,1,1.42.93,1.21,1.21,0,0,1-.93,1.42c-8.37,1.76-16.62,8.3-22.64,17.92-5.47,8.74-7.87,18.16-6.27,24.58a1.19,1.19,0,0,1-.87,1.44A1,1,0,0,1,336.07,60.76Z"/><path class="cls-7" d="M382.15,129A93.41,93.41,0,0,1,404,131.47c.51-.23,1-.46,1.58-.68,4.18-1.59,9-1.4,10.27-6.51,2.32,3.29,5.55,9.22,3.35,13.8,2.57,2.08,4,4.39,4,6.86,0,8.79-18.38,15.91-41.06,15.91s-41-7.12-41-15.91S359.48,129,382.15,129Z"/><path class="cls-6" d="M420.77,150.31c-9.71,9.68-27.39,12.88-53.7,9.57-4.89-10.36,14.2-11.94,20.3-9.77,14.27,5.08,16.41-5,17.78-4.69,8.93,1.91,8.27-5.44,10.12-6.95,5.28-4.28,3.3-10.26.54-14.19,0-.15.08-.3.11-.45.15.11,13,3,6.37,17.89a.19.19,0,0,0,0,.08C423.54,144.93,424.68,147.57,420.77,150.31Z"/><path class="cls-6" d="M357.11,157.14c-3.52-9.57,4.29-8.2,9.37-11.52,2.17-1.43,13-1.59,17.43-3.22,6.19-2.29,4.45-5.18,12.74-5,2.45.06,4.48,1.51,8.69-.49s3.47-3.79,5-5.76c1.71-2.23,4.68-1.66,5.48-6.9a19.31,19.31,0,0,0,.33-5.93c-1.15-5.69-9.42-9.88-10.5-10.42a11.49,11.49,0,0,1-1.44,5.61,8.12,8.12,0,0,1-.82,1.13,8.53,8.53,0,0,1-4.73,2.66c-.63.14-1.23.24-1.81.31-4.46-.91-20.31,0-33.54,13-12.65,2-16.32,12.11-18.88,20.06C347.88,154.44,352.28,156.25,357.11,157.14Z"/><path class="cls-7" d="M404.75,101.9H392.08c3,5.65-2,8.69-5,8.9-11.86.83-12.31,7.22-14.57,9.32s-5.76-.8-8.25.12C356.94,123,350,127,344.32,135.48l0,.16s-4.36,5.34-4.07,7.93a4,4,0,0,0,.16.71c.78,2.47,1.77,4.12,4.36,4.12,0,0,.59-5.13,9.23-8.87,4-1.74,3.29-5,14.79-3.48,13.33,1.81,10.8-8.74,15.38-8.15,16,2,13.82-10.43,14.45-10.57,8.13-1.82,7.32-10.37,6.5-14.43A6.32,6.32,0,0,0,404.75,101.9Z"/><path class="cls-7" d="M367.42,101.9c-1.75,2.61-3.49,6.07-8,7.25-4.67,1.21-8.59,2.9-9,6.56a9.53,9.53,0,0,0,0,1.7,6.88,6.88,0,0,1-3.39,6.16,2.73,2.73,0,0,0-.81.68c-1.81,2.44-3.91,5.56-2,10.6,0,.28.07.51.09.63,3.54-5.3,7.5-6.69,12.2-8.11,2.64-.8,5.28-.39,8.2-4.69,1.6-2.33,10.55.18,13-1.67,6.15-4.54-2.56-9.38,9.3-10.21,3-.21,8-3.25,5-8.9Z"/><path class="cls-14" d="M394.06,79.14c-7.45-1.59-9.94.65-13.37.65s-5.94-2.24-13.38-.65c-6,1.28-12,7.77-12.27,16.45-.55,17.35,8.93,26.67,19,29.67,1.06-3.89,5.28-5.72,9.47-6.78,3.3-.84,6,.17,8.95.7,2.54-.39,5.67-.82,7.08-3a4.46,4.46,0,0,1,2.31-1.81c2.93-4.73,4.72-10.91,4.48-18.77C406.05,86.91,400,80.42,394.06,79.14Z"/><path class="cls-9" d="M369.43,90.33c-.61,2.1-1.48,3.8-4.2,3.8s-4.61-1.95-4.3-4c.4-2.75,2.63-4.15,5.33-3.85C369.23,86.63,370,88.32,369.43,90.33Z"/><path class="cls-10" d="M387.15,81c0,1.27-2.82,2.92-6.28,2.92s-6.26-1.65-6.26-2.92,2.8-.63,6.26-.63S387.15,79.72,387.15,81Z"/><path class="cls-11" d="M380.82,84a1.4,1.4,0,0,1-1.34-1c-4.54-18.23-4.12-51.75,11.23-65.82a1.38,1.38,0,1,1,1.86,2c-13.89,12.74-15,44.84-10.4,63.11a1.39,1.39,0,0,1-1,1.68A1.27,1.27,0,0,1,380.82,84Z"/><path class="cls-7" d="M319.86,155.1a100.8,100.8,0,0,1,23.59,2.65c.54-.25,1.09-.51,1.71-.74,4.53-1.72,9.72-1.51,11.11-7,2.51,3.57,6,10,3.62,14.92,2.78,2.26,4.39,4.76,4.39,7.42,0,9.51-19.88,17.22-44.42,17.22s-44.41-7.71-44.41-17.22S295.33,155.1,319.86,155.1Z"/><path class="cls-6" d="M361.63,178.13c-10.5,10.47-29.62,13.94-58.09,10.34-5.27-11.19,15.37-12.91,22-10.55,15.43,5.48,17.76-5.39,19.23-5.08,9.66,2.06,8.95-5.89,10.95-7.52,5.71-4.62,3.56-11.1.58-15.35,0-.16.08-.33.11-.48.17.11,14,3.19,6.89,19.35l0,.09C364.62,172.3,365.86,175.16,361.63,178.13Z"/><path class="cls-6" d="M292.77,185.52c-3.81-10.36,4.65-8.88,10.14-12.47,2.35-1.53,14-1.71,18.86-3.48,6.7-2.47,4.8-5.6,13.77-5.38,2.65.07,4.85,1.65,9.41-.52s3.75-4.11,5.38-6.24c1.86-2.41,5.07-1.79,5.94-7.46a20.9,20.9,0,0,0,.35-6.41c-1.23-6.17-10.19-10.69-11.36-11.26a12.36,12.36,0,0,1-1.55,6,8.18,8.18,0,0,1-.89,1.23,9.23,9.23,0,0,1-5.11,2.88c-.69.15-1.33.25-2,.33-4.82-1-22,0-36.27,14.05-13.69,2.18-17.67,13.1-20.44,21.71C282.79,182.6,287.55,184.55,292.77,185.52Z"/><path class="cls-7" d="M344.3,125.76H330.6c3.25,6.12-2.18,9.41-5.43,9.63-12.83.89-13.32,7.81-15.77,10.08s-6.22-.87-8.92.13c-7.89,2.93-15.45,7.35-21.54,16.49l0,.17s-4.72,5.77-4.4,8.58a4.55,4.55,0,0,0,.17.76c.85,2.68,1.91,4.46,4.72,4.46,0,0,.64-5.54,10-9.59,4.35-1.89,3.56-5.45,16-3.77,14.41,2,11.67-9.46,16.63-8.82,17.27,2.22,14.94-11.27,15.63-11.42,8.8-2,7.91-11.22,7-15.62A7.92,7.92,0,0,0,344.3,125.76Z"/><path class="cls-7" d="M303.92,125.76c-1.89,2.82-3.77,6.58-8.62,7.84-5.06,1.32-9.29,3.14-9.73,7.1a11.27,11.27,0,0,0,0,1.85,7.42,7.42,0,0,1-3.68,6.65,3.17,3.17,0,0,0-.87.74c-1.95,2.64-4.22,6-2.15,11.47,0,.3.08.54.1.68,3.82-5.73,8.12-7.24,13.2-8.78,2.85-.86,5.7-.42,8.87-5.07,1.72-2.52,11.4.19,14.1-1.81,6.66-4.9-2.77-10.15,10.06-11,3.25-.22,8.68-3.51,5.43-9.63Z"/><path class="cls-15" d="M329.2,101c-8.18-1-10.66,1.62-14.36,1.94s-6.6-1.88-14.48.53c-6.29,1.92-12.21,9.48-11.7,18.86,1,18.75,12.08,27.92,23.21,30.21.79-4.28,5.16-6.64,9.59-8.18,3.47-1.2,6.45-.35,9.7,0,2.71-.67,6-1.41,7.36-3.91a4.87,4.87,0,0,1,2.32-2.17c2.72-5.36,4.08-12.19,3.09-20.62C342.84,108.29,335.72,101.85,329.2,101Z"/><path class="cls-9" d="M303.69,115.34c-.47,2.34-1.25,4.23-4.18,4.48s-5.15-1.67-5-3.91c.19-3,2.46-4.71,5.39-4.63C303.13,111.37,304.14,113.13,303.69,115.34Z"/><path class="cls-10" d="M321.92,103.63c.11,1.36-2.77,3.4-6.49,3.72s-6.91-1.21-7-2.56,3-.94,6.7-1.26S321.8,102.28,321.92,103.63Z"/><path class="cls-11" d="M315.16,106.65l-.25,0a1.49,1.49,0,0,1-1.22-1.73c3.5-20.34-3.72-51.41-23.43-55.82a1.5,1.5,0,0,1,.65-2.92c20.39,4.55,29.92,34.88,25.72,59.25A1.48,1.48,0,0,1,315.16,106.65Z"/><path class="cls-7" d="M130.05,95.2a81.08,81.08,0,0,1,18.87,2.12c.43-.2.87-.4,1.36-.59,3.62-1.37,7.78-1.21,8.89-5.63,2,2.85,4.8,8,2.9,11.94,2.23,1.8,3.5,3.8,3.5,5.93,0,7.61-15.9,13.78-35.52,13.78S94.52,116.58,94.52,109,110.42,95.2,130.05,95.2Z"/><path class="cls-6" d="M163.46,113.62c-8.4,8.38-23.7,11.15-46.47,8.28-4.22-9,12.29-10.33,17.58-8.45,12.33,4.39,14.19-4.3,15.37-4,7.74,1.64,7.16-4.72,8.77-6,4.56-3.7,2.85-8.88.46-12.28l.09-.38c.14.09,11.22,2.55,5.51,15.47l0,.08C165.86,109,166.84,111.25,163.46,113.62Z"/><path class="cls-6" d="M108.37,119.54c-3-8.29,3.73-7.1,8.12-10,1.88-1.23,11.24-1.38,15.08-2.8,5.36-2,3.84-4.47,11-4.29,2.12,0,3.88,1.31,7.52-.42s3-3.29,4.31-5c1.49-1.93,4.06-1.43,4.75-6a16.53,16.53,0,0,0,.28-5.13c-1-4.93-8.15-8.56-9.09-9a9.84,9.84,0,0,1-1.24,4.85,6.58,6.58,0,0,1-.71,1,7.41,7.41,0,0,1-4.09,2.3c-.55.12-1.06.21-1.56.27-3.87-.79-17.58,0-29,11.24C102.79,98.34,99.61,107.08,97.39,114,100.39,117.2,104.19,118.76,108.37,119.54Z"/><path class="cls-7" d="M149.6,71.73h-11c2.59,4.9-1.75,7.53-4.35,7.71-10.26.71-10.65,6.24-12.61,8.06s-5-.69-7.14.11c-6.31,2.34-12.36,5.87-17.23,13.18l0,.14s-3.77,4.62-3.51,6.86a3.61,3.61,0,0,0,.13.62c.68,2.14,1.54,3.57,3.78,3.57,0,0,.51-4.44,8-7.68,3.48-1.51,2.85-4.36,12.8-3,11.54,1.56,9.34-7.57,13.31-7.06,13.81,1.78,12-9,12.5-9.14,7-1.58,6.33-9,5.63-12.49A6.58,6.58,0,0,0,149.6,71.73Z"/><path class="cls-7" d="M117.3,71.73c-1.51,2.27-3,5.26-6.9,6.28-4.05,1-7.43,2.51-7.78,5.68a7.91,7.91,0,0,0,0,1.47,5.94,5.94,0,0,1-2.94,5.32,2.91,2.91,0,0,0-.7.59c-1.56,2.12-3.38,4.82-1.72,9.18,0,.24.07.44.08.54,3.06-4.58,6.49-5.79,10.56-7,2.28-.69,4.56-.34,7.1-4.06,1.37-2,9.11.15,11.28-1.45,5.32-3.92-2.22-8.12,8-8.83,2.6-.18,6.94-2.81,4.35-7.71Z"/><path class="cls-16" d="M140.35,52.05c-6.45-1.39-8.6.56-11.58.56s-5.13-2-11.57-.56c-5.15,1.11-10.38,6.72-10.62,14.23-.47,15,7.73,23.07,16.44,25.66.93-3.35,4.57-4.93,8.2-5.86,2.86-.72,5.17.16,7.74.61,2.21-.34,4.92-.71,6.14-2.61a3.86,3.86,0,0,1,2-1.57c2.54-4.08,4.08-9.43,3.87-16.23C150.73,58.77,145.49,53.16,140.35,52.05Z"/><path class="cls-9" d="M119,61.73c-.53,1.81-1.28,3.28-3.63,3.28s-4-1.68-3.73-3.46a3.89,3.89,0,0,1,4.61-3.33C118.87,58.53,119.55,60,119,61.73Z"/><path class="cls-10" d="M134.37,53.63c0,1.09-2.43,2.52-5.43,2.52s-5.42-1.43-5.42-2.52,2.42-.54,5.42-.54S134.37,52.54,134.37,53.63Z"/><path class="cls-11" d="M128.9,56.22l-.21,0a1.21,1.21,0,0,1-1-1.39c2.87-15.88-4.88-39.92-18.81-46a1.19,1.19,0,0,1,1-2.19c15.14,6.56,23.3,31.5,20.22,48.57A1.2,1.2,0,0,1,128.9,56.22Z"/><path class="cls-7" d="M82.63,129a93.48,93.48,0,0,1,21.81,2.45c.5-.23,1-.46,1.58-.68,4.18-1.59,9-1.4,10.27-6.51,2.32,3.29,5.55,9.22,3.35,13.8,2.57,2.08,4,4.39,4,6.86,0,8.79-18.38,15.91-41.06,15.91s-41.07-7.12-41.07-15.91S60,129,82.63,129Z"/><path class="cls-6" d="M121.25,150.31c-9.71,9.68-27.39,12.88-53.71,9.57-4.88-10.36,14.21-11.94,20.31-9.77,14.26,5.08,16.41-5,17.77-4.69,8.94,1.91,8.28-5.44,10.13-6.95,5.28-4.28,3.3-10.26.54-14.19,0-.15.07-.3.11-.45.14.11,13,3,6.36,17.89l0,.08C124,144.93,125.15,147.57,121.25,150.31Z"/><path class="cls-6" d="M57.58,157.14c-3.51-9.57,4.3-8.2,9.37-11.52,2.18-1.43,13-1.59,17.44-3.22,6.19-2.29,4.44-5.18,12.74-5,2.44.06,4.48,1.51,8.69-.49s3.47-3.79,5-5.76c1.72-2.23,4.68-1.66,5.49-6.9a19.29,19.29,0,0,0,.32-5.93c-1.14-5.69-9.42-9.88-10.5-10.42a11.38,11.38,0,0,1-1.44,5.61,7.38,7.38,0,0,1-.82,1.13,8.46,8.46,0,0,1-4.73,2.66c-.63.14-1.22.24-1.8.31-4.46-.91-20.31,0-33.54,13-12.65,2-16.33,12.11-18.89,20.06C48.35,154.44,52.75,156.25,57.58,157.14Z"/><path class="cls-7" d="M105.22,101.9H92.56c3,5.65-2,8.69-5,8.9-11.86.83-12.31,7.22-14.57,9.32s-5.75-.8-8.25.12C57.41,123,50.43,127,44.8,135.48l0,.16s-4.36,5.34-4.06,7.93a3.92,3.92,0,0,0,.15.71c.79,2.47,1.78,4.12,4.37,4.12,0,0,.59-5.13,9.23-8.87,4-1.74,3.28-5,14.79-3.48,13.33,1.81,10.79-8.74,15.38-8.15,16,2,13.81-10.43,14.44-10.57,8.14-1.82,7.32-10.37,6.51-14.43A6.35,6.35,0,0,0,105.22,101.9Z"/><path class="cls-7" d="M67.89,101.9c-1.74,2.61-3.48,6.07-8,7.25-4.68,1.21-8.59,2.9-9,6.56a10.53,10.53,0,0,0,0,1.7,6.84,6.84,0,0,1-3.39,6.16,2.81,2.81,0,0,0-.8.68c-1.81,2.44-3.91,5.56-2,10.6,0,.28.08.51.1.63,3.53-5.3,7.5-6.69,12.19-8.11,2.64-.8,5.28-.39,8.21-4.69,1.59-2.33,10.54.18,13-1.67,6.16-4.54-2.56-9.38,9.3-10.21,3-.21,8-3.25,5-8.9Z"/><path class="cls-17" d="M94.54,79.14c-7.45-1.59-10,.65-13.38.65s-5.93-2.24-13.38-.65c-5.94,1.28-12,7.77-12.27,16.45-.54,17.35,8.93,26.67,19,29.67,1.07-3.89,5.28-5.72,9.48-6.78,3.3-.84,6,.17,8.94.7,2.55-.39,5.68-.82,7.09-3a4.46,4.46,0,0,1,2.31-1.81c2.93-4.73,4.72-10.91,4.47-18.77C106.53,86.91,100.48,80.42,94.54,79.14Z"/><path class="cls-9" d="M69.91,90.33c-.61,2.1-1.48,3.8-4.2,3.8s-4.62-1.95-4.31-4c.41-2.75,2.64-4.15,5.34-3.85C69.71,86.63,70.5,88.32,69.91,90.33Z"/><path class="cls-10" d="M87.63,81c0,1.27-2.82,2.92-6.28,2.92S75.08,82.24,75.08,81s2.81-.63,6.27-.63S87.63,79.72,87.63,81Z"/><path class="cls-11" d="M81.3,84a1.38,1.38,0,0,1-1.34-1c-4-16-.34-38.75,8.91-55.24A1.38,1.38,0,1,1,91.28,29C82.35,45,78.8,66.84,82.64,82.24a1.38,1.38,0,0,1-1,1.68A1.32,1.32,0,0,1,81.3,84Z"/><path class="cls-7" d="M141.89,153.64a102.44,102.44,0,0,1,24.06,2.7c.56-.26,1.11-.51,1.74-.75,4.62-1.76,9.92-1.55,11.33-7.18,2.56,3.63,6.13,10.16,3.7,15.22,2.83,2.29,4.47,4.85,4.47,7.56,0,9.7-20.28,17.56-45.3,17.56S96.6,180.89,96.6,171.19,116.88,153.64,141.89,153.64Z"/><path class="cls-6" d="M184.5,177.11c-10.71,10.69-30.22,14.22-59.25,10.56-5.39-11.41,15.67-13.17,22.4-10.77,15.73,5.61,18.11-5.49,19.61-5.17,9.85,2.1,9.12-6,11.17-7.66,5.82-4.73,3.64-11.33.59-15.66l.12-.5c.17.12,14.29,3.26,7,19.74a.36.36,0,0,1,0,.09C187.54,171.18,188.8,174.1,184.5,177.11Z"/><path class="cls-6" d="M114.26,184.65c-3.88-10.55,4.74-9,10.34-12.7,2.4-1.57,14.34-1.76,19.24-3.56,6.82-2.52,4.89-5.71,14-5.48,2.69.07,4.93,1.68,9.59-.54s3.81-4.19,5.49-6.36c1.89-2.45,5.17-1.83,6.05-7.6.33-2.17.73-4.73.36-6.54-1.26-6.29-10.39-10.91-11.59-11.49a12.73,12.73,0,0,1-1.58,6.19,8.88,8.88,0,0,1-.9,1.24,9.46,9.46,0,0,1-5.22,2.94c-.7.15-1.35.26-2,.34-4.93-1-22.41-.06-37,14.32-13.95,2.23-18,13.36-20.84,22.14C104.09,181.68,108.94,183.67,114.26,184.65Z"/><path class="cls-7" d="M166.82,123.71h-14c3.3,6.25-2.23,9.6-5.55,9.83-13.08.9-13.58,8-16.07,10.27s-6.35-.88-9.1.14c-8,3-15.76,7.49-22,16.82l0,.16s-4.81,5.9-4.49,8.76a4.77,4.77,0,0,0,.17.78c.87,2.73,2,4.55,4.82,4.55,0,0,.65-5.66,10.18-9.8,4.43-1.92,3.63-5.55,16.32-3.83,14.7,2,11.9-9.64,17-9,17.61,2.27,15.23-11.49,15.93-11.64,9-2,8.07-11.44,7.18-15.93A8.89,8.89,0,0,0,166.82,123.71Z"/><path class="cls-7" d="M125.64,123.71c-1.93,2.89-3.85,6.71-8.79,8-5.16,1.34-9.48,3.21-9.93,7.24a10.6,10.6,0,0,0,0,1.88,7.59,7.59,0,0,1-3.75,6.79,3.49,3.49,0,0,0-.89.75c-2,2.69-4.31,6.14-2.19,11.7,0,.31.08.56.1.7,3.9-5.85,8.27-7.39,13.46-9,2.9-.89,5.82-.44,9-5.18,1.75-2.56,11.63.19,14.38-1.84,6.79-5-2.83-10.36,10.25-11.26,3.32-.23,8.85-3.58,5.55-9.83Z"/><path class="cls-18" d="M155,98.61c-8.22-1.76-11,.73-14.76.73s-6.54-2.49-14.75-.73C119,100,112.28,107.19,112,116.76c-.6,19.14,9.85,29.41,21,32.72,1.18-4.28,5.83-6.3,10.45-7.48,3.64-.91,6.59.2,9.87.79,2.81-.44,6.26-.91,7.81-3.33a4.94,4.94,0,0,1,2.55-2c3.23-5.22,5.2-12,4.94-20.7C168.26,107.19,161.59,100,155,98.61Z"/><path class="cls-9" d="M127.87,111c-.68,2.32-1.65,4.18-4.64,4.18s-5.09-2.15-4.75-4.41c.45-3,2.91-4.57,5.88-4.24C127.64,106.87,128.51,108.74,127.87,111Z"/><path class="cls-10" d="M147.4,100.63c0,1.39-3.1,3.22-6.91,3.22s-6.92-1.83-6.92-3.22,3.09-.69,6.92-.69S147.4,99.24,147.4,100.63Z"/><path class="cls-11" d="M140.42,103.93a1.51,1.51,0,0,1-1.51-1.39c-1.88-21.26,1.19-38.75,22.24-55a1.55,1.55,0,0,1,2.14.27,1.52,1.52,0,0,1-.27,2.14c-20,15.42-22.86,32.07-21.08,52.34a1.52,1.52,0,0,1-1.38,1.65Z"/><path class="cls-7" d="M230.25,160.47a108.16,108.16,0,0,1,25.36,2.85c.59-.27,1.17-.54,1.84-.79,4.86-1.85,10.44-1.63,11.94-7.57,2.7,3.83,6.46,10.72,3.9,16,3,2.41,4.71,5.12,4.71,8,0,10.22-21.38,18.51-47.75,18.51S182.5,189.2,182.5,179,203.88,160.47,230.25,160.47Z"/><path class="cls-6" d="M275.16,185.23c-11.29,11.26-31.85,15-62.45,11.12-5.68-12,16.51-13.88,23.61-11.35,16.58,5.91,19.09-5.79,20.67-5.45,10.39,2.21,9.63-6.33,11.77-8.09,6.14-5,3.84-11.94.63-16.5,0-.17.09-.35.12-.52.18.12,15.07,3.44,7.41,20.81a.24.24,0,0,1,0,.09C278.37,179,279.7,182.05,275.16,185.23Z"/><path class="cls-6" d="M201.12,193.17c-4.09-11.12,5-9.53,10.9-13.39,2.53-1.65,15.11-1.85,20.27-3.75,7.21-2.66,5.17-6,14.82-5.78,2.84.07,5.21,1.77,10.11-.57s4-4.41,5.79-6.7c2-2.59,5.45-1.93,6.38-8,.35-2.29.76-5,.38-6.89-1.33-6.63-10.95-11.5-12.22-12.12a13.19,13.19,0,0,1-1.67,6.52,9.16,9.16,0,0,1-.95,1.32,10,10,0,0,1-5.5,3.09,19.26,19.26,0,0,1-2.1.36c-5.19-1.06-23.62-.06-39,15.11-14.71,2.34-19,14.08-22,23.33C190.39,190,195.5,192.14,201.12,193.17Z"/><path class="cls-7" d="M256.52,128.93H241.8c3.48,6.58-2.35,10.12-5.85,10.36-13.79,1-14.31,8.39-16.95,10.83-2.48,2.31-6.69-.94-9.59.15-8.48,3.14-16.61,7.89-23.15,17.72l0,.18s-5.08,6.21-4.73,9.23a3.67,3.67,0,0,0,.18.82c.91,2.87,2.06,4.79,5.07,4.79,0,0,.68-6,10.74-10.32,4.66-2,3.82-5.86,17.2-4,15.5,2.1,12.54-10.17,17.89-9.48,18.56,2.38,16.06-12.12,16.79-12.29,9.46-2.12,8.51-12.06,7.57-16.79A9.12,9.12,0,0,0,256.52,128.93Z"/><path class="cls-7" d="M213.11,128.93c-2,3-4.05,7.07-9.26,8.44-5.45,1.41-10,3.37-10.47,7.62a11.73,11.73,0,0,0,0,2,8,8,0,0,1-3.94,7.16,3.22,3.22,0,0,0-.94.79c-2.1,2.84-4.55,6.47-2.32,12.34.05.32.09.58.12.73,4.1-6.16,8.71-7.78,14.18-9.44,3.07-.93,6.13-.45,9.54-5.45,1.85-2.71,12.26.2,15.16-1.94,7.15-5.28-3-10.92,10.81-11.87,3.5-.24,9.33-3.78,5.85-10.36Z"/><path class="cls-19" d="M244.1,102.47c-8.67-1.86-11.57.76-15.56.76s-6.9-2.62-15.56-.76c-6.92,1.48-13.95,9-14.27,19.14-.63,20.17,10.39,31,22.1,34.49,1.25-4.52,6.15-6.65,11-7.88,3.84-1,6.94.2,10.39.82,3-.47,6.62-1,8.25-3.51a5.18,5.18,0,0,1,2.69-2.11c3.4-5.5,5.48-12.68,5.19-21.81C258.05,111.51,251,104,244.1,102.47Z"/><path class="cls-9" d="M215.46,115.48c-.72,2.45-1.73,4.41-4.89,4.41s-5.37-2.26-5-4.65c.48-3.19,3.07-4.81,6.2-4.47C215.22,111.18,216.14,113.14,215.46,115.48Z"/><path class="cls-10" d="M236.05,104.6c0,1.47-3.26,3.39-7.28,3.39s-7.3-1.92-7.3-3.39,3.27-.74,7.3-.74S236.05,103.13,236.05,104.6Z"/><path class="cls-11" d="M228.7,108.07a1.6,1.6,0,0,1-1.55-1.22C220.74,81.2,231.06,39.22,254,23.54a1.6,1.6,0,1,1,1.81,2.65c-19.59,13.41-32.23,53-25.52,79.89a1.59,1.59,0,0,1-1.17,1.94A1.31,1.31,0,0,1,228.7,108.07Z"/><path class="cls-5" d="M401.5,296.78l.61-1.07c11.35-19.74-2.52-38.9-16.15-51.49a13.52,13.52,0,0,0-2.8-2,11.76,11.76,0,0,0,2.34-3,15.27,15.27,0,0,1,4.24-5.42c.22-.11,1-.59,1.39-.85.67-.4,1.35-.77,1.94-1l.58-.19.5-.13c.9-.24,1.77-.48,2.69-.66A11.09,11.09,0,0,0,402.2,228l.76-.7-.19-1a48,48,0,0,0-1.27-4.91c-.26-.89-.5-1.67-.64-2.28-.77-3.45-1.4-7.14-.8-10.68l.26-1.45-1.34-.59a14.7,14.7,0,0,0-8.9-1A40.53,40.53,0,0,0,362.65,226a13.39,13.39,0,0,0,4.78,18l.56.32a13.93,13.93,0,0,0-4.58,8.1,11.77,11.77,0,0,0,4,10.6l1.54,1.41c7,6.37,13.61,13.1,9.69,19.26a12.79,12.79,0,0,0-1.84,4.61l-.12,1.65,1.51.55a3,3,0,0,1,.71.33c5.44,4.19,12.36,4.91,19.05,5.61Z"/><path class="cls-5" d="M340.41,279.34c0,4.68,3.14,9.42,9.16,9.42H359a8.74,8.74,0,0,0,6.88-3,9.79,9.79,0,0,0,2.28-6.41c0-4.68-3.14-9.41-9.16-9.41h-9.42a8.78,8.78,0,0,0-6.89,3A9.83,9.83,0,0,0,340.41,279.34Z"/><path class="cls-5" d="M215.08,214.3l-.34-1.65-1.67.15a10.08,10.08,0,0,0-2.76.62A41.82,41.82,0,0,0,186.25,236l-.79,1.75,1.75.77a2,2,0,0,1,1,.92c3.39,6.12,10.76,10,16.57,11.18l2,1,.95-1.19a16.78,16.78,0,0,0,1.76-3.08l.25-.11.41-1,0,0a1.22,1.22,0,0,0,.12-.19l-.11,0,.11,0-1.75-.68h0l1.85.54a27.43,27.43,0,0,1,1.47-2.47l.18-.29a13.3,13.3,0,0,0,1.29-1.37,19.19,19.19,0,0,1,1.55-1.36l.63-.38c.53-.32,1-.65,1.6-.94l.88-.37,2.12-.89-.05-.15a14.43,14.43,0,0,0,5.63-5.76l.72-1.35-1.18-1C221.36,226.33,216.48,221.09,215.08,214.3Z"/><path class="cls-5" d="M92.67,212.86l.15-1.2-1-.64a13.48,13.48,0,0,0-3.71-1.62c-7.66-2-14.16-6.24-18.29-11.83a16.23,16.23,0,0,0-5.69-4.77L63,192.24l-1,.8a2.71,2.71,0,0,1-1.31.58l-.52.1-.4.36c-1.91,1.73-3.94,3.35-6,5-2.61,2.08-5.3,4.24-7.75,6.63l-.76.74.25,1a9.88,9.88,0,0,0,1.64,3.76c8.93,12.08,20.33,20,33.88,23.63a14,14,0,0,0,3.59.48,12.36,12.36,0,0,0,2.21-.19l1.65-.3-.09-1.67c-.23-4,.89-7.65,2.07-11.56A52.4,52.4,0,0,0,92.67,212.86Z"/><path class="cls-5" d="M197.36,298l.37.69a23.28,23.28,0,0,0,20.19,12.15h.75a9,9,0,0,0,7.9-4.82,10.4,10.4,0,0,0-.26-10.09c-1.66-2.65-4.2-4-7.77-3.93a4.43,4.43,0,0,1-4.81-3.81,8.64,8.64,0,0,0-2.66-4.56l-1.16-1.06-1.26.94a39.81,39.81,0,0,1-8.94,4.64l-1.73.73a3.66,3.66,0,0,1-.8.14l-1.68.26V291a3.44,3.44,0,0,0,0,1l.54,1.31c.4.78.79,1.54,1.26,2.28a2,2,0,0,1,.32,1.7Z"/><path class="cls-5" d="M333.71,217.7l-1.35-.52-.86,1.15a3.62,3.62,0,0,1-1,1c-3.71,2.4-6.61,5.8-9.41,9.1-1.26,1.48-2.52,3-3.83,4.32l-.88.9.51,1.15a10.5,10.5,0,0,0,1,1.93c3.57,5.11,4.07,9.85,1.68,15.84a10.48,10.48,0,0,0-.51,5.64l.2,1.17,1.14.32a1.26,1.26,0,0,0,.42.06c4.85,2.13,10.53,4.48,16.54,5.2a2.52,2.52,0,0,1,1.37.65l1.34,1.14,1.23-1.26a16.73,16.73,0,0,0,3.58-5.52,40.06,40.06,0,0,0-4.38-36.81A14.94,14.94,0,0,0,333.71,217.7Z"/><path class="cls-5" d="M219.67,254.39l-1.49-.16-.49,1.42a2.74,2.74,0,0,1-.59,1c-4.52,4.57-9.35,10-9.64,16.52a2.56,2.56,0,0,1-.25,1l-.53,1.12.81.92a11.92,11.92,0,0,0,6.85,3.83c9.6,2,17.76,5.6,24.26,10.75a15.64,15.64,0,0,0,9.61,3.56,12.36,12.36,0,0,0,4-.64l.85-.31.3-.87c1.39-3,2.74-6.07,4.09-9.11l2.93-6.57-.3-.74a10.2,10.2,0,0,0-3.13-4.26c-11.37-9-23.08-14.67-35.8-17.29A10.65,10.65,0,0,0,219.67,254.39Z"/><path class="cls-5" d="M239.07,226.55a12.41,12.41,0,0,1,1.79,10.8,8.88,8.88,0,0,0,.06,4.9l.37,1.32,1.37.06a33.73,33.73,0,0,1,12.19,3l1.26.55.92-1a9.37,9.37,0,0,0,2-3.78c2.69-10.09.51-20-6.32-28.76a4.5,4.5,0,0,0-1.32-1l-1.16-.91-1.16.91c-1.09.86-2.2,1.7-3.31,2.54-1.62,1.23-3.22,2.45-4.8,3.73a2.48,2.48,0,0,1-2,.6l-2.62-.36.53,2.59A11.73,11.73,0,0,0,239.07,226.55Z"/><path class="cls-5" d="M33.07,190c.49.79,1,1.59,1.58,2.4l.63.84,1-.09a7.76,7.76,0,0,0,3.92-1.35,18.06,18.06,0,0,1,13.4-3.26,6.69,6.69,0,0,0,2.55-.19l1.45-.34v-1.49a42.68,42.68,0,0,1,2.14-12.84l.43-1.38L59,171.53a11.91,11.91,0,0,0-4.89-1.81,34.27,34.27,0,0,0-21,4.49Z"/><path class="cls-5" d="M279.67,267.61l1,.84,1.13-.69a14.38,14.38,0,0,0,6.1-7.71,54.74,54.74,0,0,1,10.74-18.59,14.38,14.38,0,0,0,3.64-9.87l0-1.11-1-.51c-5.59-2.89-9.34-6.19-11.17-9.8l-.56-1.09-1.21.07a11.8,11.8,0,0,0-8.49,3.84,87.09,87.09,0,0,0-17.3,29.84,11.3,11.3,0,0,0-.49,4.69l.12,1.35,1.33.31C269,260.47,274.17,263.14,279.67,267.61Z"/><path class="cls-5" d="M432.09,228.41c-3.2-.27-6.9-1.61-11.09-4.06l-.87-.51-.92.44a13.78,13.78,0,0,0-7,8.13l-2.52,7.53a11.4,11.4,0,0,0-.44,5.06l.18,1.39,2.07.31a53.52,53.52,0,0,0,8,2.28c3.67.85,7.14,1.63,10.2,3.56l1.34.85,1-1.13Z"/><path class="cls-5" d="M330.9,280.09l.57-.92-.5-1a10.43,10.43,0,0,0-5-4.86,70.72,70.72,0,0,0-31.74-6.59,13.46,13.46,0,0,0-5.54,1.34l-1.4.69.43,1.51a1.21,1.21,0,0,0,.18.39,41,41,0,0,1-1,17.82l-1,2,1.49.89a12.82,12.82,0,0,0,7,1.74A40.74,40.74,0,0,1,313,296.31a16.39,16.39,0,0,0,6.67,1.46,14,14,0,0,0,3.38-.4l1.82-.45-.44-1.82a1.93,1.93,0,0,1,.07-1.19A76.82,76.82,0,0,1,330.9,280.09Z"/><path class="cls-5" d="M302.55,323.14a5,5,0,0,0,1.2-1.4,14.44,14.44,0,0,0,4.94-9.05l.13-1.16-1-.64c-4.86-3.13-9.62-6.52-14.47-10a2.7,2.7,0,0,1-.71-.78l-1.2-1.25-1.5.71a6.39,6.39,0,0,0-1.11.62c-10.3,7.31-14.84,18.86-12.18,30.89a11.46,11.46,0,0,0,2.08,4.38l.53.71.88,0c3.89.21,7.77.24,11.66.29l6.07.09.94,0,.58-.73a13.5,13.5,0,0,0,2.75-11.39v-.57C302.29,323.68,302.43,323.4,302.55,323.14Z"/><path class="cls-5" d="M255,306.4l.8,1.08c1.05,1.42,2.13,2.81,3.2,4.2,1.86,2.39,3.77,4.85,5.45,7.38l.85,1.3,1.43-.6A9.35,9.35,0,0,0,271,316.2a59.25,59.25,0,0,1,8.93-10.37c4.28-4,3.38-9.45.28-12.76s-9-4.85-13.52-.66a78.79,78.79,0,0,0-10.92,12.88Z"/><path class="cls-5" d="M330.94,321.32l1,.65a13.45,13.45,0,0,0,9.59,1.89c11-1.85,22.54-.44,34.36,4.2a13.12,13.12,0,0,0,4.74.95,10.55,10.55,0,0,0,3.15-.47l.92-.29.31-.92c1.79-5.44,3.36-11,4.88-16.41l.53-1.87-.42-.7a13.42,13.42,0,0,0-6.71-5.6h0c-14.86-5.83-31.14-7.31-48.39-4.41a13.1,13.1,0,0,0-3.5,1.13l-1.61.75.67,1.65c2.11,5.24,1.42,12.18.62,18.26Z"/><path class="cls-5" d="M192.19,298.65l.62-1-.57-1a79.23,79.23,0,0,1-4.16-8.8,93,93,0,0,0-4-8.51l-.49-.87-1-.09a15,15,0,0,0-7.9,1.34l-28.84,13.9a10.81,10.81,0,0,0-4.12,3.5l-.7,1,.58,1c2.27,4.06,3.63,8.44,5.07,13.09.46,1.43.9,2.87,1.37,4.3l.35,1,1.07.22a13.87,13.87,0,0,0,2.81.27,15.26,15.26,0,0,0,6.62-1.52l28.84-13.9A10.87,10.87,0,0,0,192.19,298.65Z"/><path class="cls-5" d="M165.2,345.37c3.85,0,7.3-2.48,9-6.71,2.07-5.09,6.28-8.22,9.45-9.94a8.66,8.66,0,0,0,3.78-4l.69-1.45L184.86,321a66,66,0,0,1-8.49-6.49,2.34,2.34,0,0,1-.46-.71l-.92-1.72-1.69,1a40,40,0,0,0-17.1,20.19,7.92,7.92,0,0,0,.39,6.55A10.15,10.15,0,0,0,162.7,345,9.52,9.52,0,0,0,165.2,345.37Z"/><path class="cls-5" d="M39.64,285.93l1.29-.9c.17-.11.3-.23.26-.26a102.84,102.84,0,0,1,17.6-7l1.24-.38.07-1.3a15.39,15.39,0,0,0-3.52-10.44c-3.85-4.93-4.36-11.25-4.09-15.7a11.22,11.22,0,0,0-.76-4.62l-.42-1.12-1.18-.1A53.64,53.64,0,0,0,33,245.67L33,277A60.89,60.89,0,0,0,37.64,284C37.85,284.21,39.64,285.93,39.64,285.93Z"/><path class="cls-5" d="M249.94,329.63l.5-1.05-.71-.92A77.53,77.53,0,0,1,240.27,312l-.45-1-1-.13a13.38,13.38,0,0,0-7.62,1.38c-6.94,3.49-14.6,4.83-23.41,4.13a10,10,0,0,0-3.11.25L203,317l.15,1.65a2.75,2.75,0,0,1,0,.92,107,107,0,0,0-2.61,19.68l-.09,1.23,1.09.57a15.67,15.67,0,0,0,5.92,1.71c1.74.14,3.49.21,5.23.21a70,70,0,0,0,31.59-7.81A12,12,0,0,0,249.94,329.63Z"/><path class="cls-5" d="M428.67,175.61a9.93,9.93,0,0,0-3.63-2.07l-1.09-.13-.78.62a29.94,29.94,0,0,0-5.68,6.26,36.7,36.7,0,0,1-3.44,4.21l-.92,1.22.75,1.26a8.48,8.48,0,0,0,1.61,2.1,22.33,22.33,0,0,1,7.84,15,9.16,9.16,0,0,0,4.18,7.15l1.7,1.14,1-1.79a3.77,3.77,0,0,1,1.11-1.26l.68-.48.07-.06,0-29.6A36.9,36.9,0,0,0,428.67,175.61Z"/><path class="cls-5" d="M125.89,348.81c1.37.72,2.68,1.5,4,2.34l.61.43c.67.53,1.29,1.11,1.9,1.69a20.31,20.31,0,0,1,4.84,6.2,13.08,13.08,0,0,0,7.39,5.79l1.16.38.8-.9a68.82,68.82,0,0,1,8.14-7.21c2.1-1.68,4.24-3.38,6.26-5.26l.74-.68-.16-1a12.63,12.63,0,0,0-1.55-4.42h0A52.75,52.75,0,0,0,139.07,326a7,7,0,0,0-1.74-.58l-1.52-.56-.78,1.41a2.24,2.24,0,0,1-.85.92c-5.65,3.32-9.87,8.17-13.71,12.85l-.67.81.34,1A12.21,12.21,0,0,0,125.89,348.81Z"/><path class="cls-5" d="M37.75,319.06l1.06.71,1.06-.72a9.28,9.28,0,0,0,2.88-3.16,40.43,40.43,0,0,1,7.62-9.76,8.6,8.6,0,0,0,2.72-5.67l.12-1.39-1.31-.52c-4.14-1.65-7-3.56-9.16-6.05l-.3-.65-.78-1.64-1.67.71a9.5,9.5,0,0,0-2.87,1.82A57,57,0,0,0,33,297.35l0,17.82A44.3,44.3,0,0,0,37.75,319.06Z"/><path class="cls-5" d="M139.84,212.25l-.9-.26c-2-.59-4.05-1.09-6.08-1.58a69.47,69.47,0,0,1-11.47-3.51l-1.08-.46-.9.77a16.25,16.25,0,0,0-4.46,6.38c-3,7.49-8.27,14.32-15.81,20.35a6.76,6.76,0,0,0-.77.8l-1.17,1.34,1.17,1.31a1.69,1.69,0,0,1,.33.47c2.46,5.69,5.53,12.78,11.51,17.61l.8.62.95-.29a16.92,16.92,0,0,0,5.53-2.94C127.37,245,135,234.24,140.25,221a10.8,10.8,0,0,0-.07-7.85Z"/><path class="cls-5" d="M103.73,340.56a8.78,8.78,0,0,0,6.89-3,9.81,9.81,0,0,0,2.28-6.41c0-4.68-3.15-9.42-9.17-9.42a8.74,8.74,0,0,0-6.88,3,9.76,9.76,0,0,0-2.28,6.4C94.57,335.83,97.71,340.56,103.73,340.56Z"/><path class="cls-5" d="M152.1,229.72l-1.38.36,0,1.43a15.88,15.88,0,0,0,3.57,9.86,32.37,32.37,0,0,1,6.46,18.57A13.53,13.53,0,0,0,162.4,266l.72,1.29,1.42-.38c3.08-.82,6.19-1.48,9.32-2.15,3.41-.74,6.84-1.47,10.22-2.39a2,2,0,0,1,.94-.05l1.88-.09.19-2.43c-.54-13.47-5.08-25.49-13.88-36.74a9.59,9.59,0,0,0-2.61-2.25l-1-.65-1,.69a125.42,125.42,0,0,1-15.28,8.46l-.56.29.55,1.77h0Z"/><path class="cls-5" d="M50.37,312.7l-.87,1.58,1.53.94a2.59,2.59,0,0,1,.79.71A81.75,81.75,0,0,0,64.9,330.27l1.49.91,1.12-.55a5.88,5.88,0,0,0,1.14-.67,55.46,55.46,0,0,1,18.29-9.38A12.29,12.29,0,0,0,95.68,312l.31-1.09-.82-.78c-4.41-4.24-8.12-8.22-8.82-13.85l-.2-1.54-1.54-.1a13.1,13.1,0,0,0-4.74.49A76.77,76.77,0,0,0,55,307.43,16.65,16.65,0,0,0,50.37,312.7Z"/><path class="cls-5" d="M73.83,284.77a16,16,0,0,0,5.79,3l1.17.07.78-.73c1.37-1.08,2.76-2.16,4.15-3.23,3.25-2.51,6.61-5.13,9.77-7.9l.66-.59,0-.87a11.39,11.39,0,0,0-3.91-8.67c-2-1.71-3.16-2.86-3.93-4.73-.1-.29-.43-1.42-.63-2.33a7.66,7.66,0,0,0,0-2.9v-.08a16.05,16.05,0,0,0-1.23-7.74L85.92,247l-1.21,0c-4.24-.1-8.46.06-12.57.22-2.64.09-5.28.19-7.92.22l-1.42.33L62.36,249a6.1,6.1,0,0,0-.38,1.37C59.9,264.24,64.22,276.79,73.83,284.77Z"/><path class="cls-5" d="M142.07,235.57a9.17,9.17,0,0,0-7,6.29,25.44,25.44,0,0,0-1.18,11.34c.72,5.48,4.49,9.18,9.41,9.18a10.1,10.1,0,0,0,7.35-3.51,7.77,7.77,0,0,0,2.05-6.16,11.57,11.57,0,0,1,.47-5.66,8.27,8.27,0,0,0-1.53-8.45A10.35,10.35,0,0,0,142.07,235.57Z"/><path class="cls-5" d="M120.88,307.59l1.28,1,1.15-1.11a70.13,70.13,0,0,0,18.55-31.29,8.86,8.86,0,0,0,.22-1.17l.28-1.38-4.74-2.48A162.91,162.91,0,0,1,123,262.83l-1.51-1.08-1.11.94a12.78,12.78,0,0,0-4,6.4A43.82,43.82,0,0,1,105,288.49l-1.14,1.16,1,1.29C110.38,298.33,115.48,303.62,120.88,307.59Z"/><path class="cls-20" d="M36.09,280.35c.17-.12.26-.28.46-.38a104.67,104.67,0,0,1,17.92-7.16,13.72,13.72,0,0,0-3.14-9.16c-3.78-4.83-4.84-11-4.49-17a9.57,9.57,0,0,0-.64-3.85,55.25,55.25,0,0,0-19.49,2.25,4.13,4.13,0,0,1-2.24,0,12.4,12.4,0,0,0-.24,1.62c-.72,12.31,3.62,23.38,11.12,32.95A6.29,6.29,0,0,0,36.09,280.35Zm-3.7-92.21a5.89,5.89,0,0,0,3-1,19.83,19.83,0,0,1,14.73-3.6,5.14,5.14,0,0,0,1.88-.14A45.05,45.05,0,0,1,54.2,170a10.06,10.06,0,0,0-4.1-1.53,32.58,32.58,0,0,0-22.33,5.66c-.2.14-.33.35-.52.51a4.15,4.15,0,0,1,.31,1.27C27.72,180.53,29.71,184.55,32.39,188.14ZM45,207c8.3,11.22,19.23,19.3,32.84,22.92a11.48,11.48,0,0,0,5,.25c-.41-7.29,3.31-13.53,4.21-20.64a11.84,11.84,0,0,0-3.2-1.41c-7.56-2-14.61-6.15-19.33-12.53a14.23,14.23,0,0,0-5-4.21,4.63,4.63,0,0,1-2.17,1c-4.43,4-9.42,7.4-13.66,11.55A8.21,8.21,0,0,0,45,207Zm31.64,86.87a74.93,74.93,0,0,0-24.28,12,14.91,14.91,0,0,0-4.1,4.67,4.79,4.79,0,0,1,1.32,1.2,80.27,80.27,0,0,0,13,14.2s0,.05.07.08a8,8,0,0,0,1.14-.63,57.23,57.23,0,0,1,18.88-9.69,10.4,10.4,0,0,0,7.46-7.26c-4.43-4.26-8.6-8.62-9.39-15A11.56,11.56,0,0,0,76.63,293.83Zm-39.09-3.25a4.67,4.67,0,0,1-.58-1.07A7.45,7.45,0,0,0,34.65,291a56.27,56.27,0,0,0-10.32,13.25c0,.1,0,.2-.1.3C27.69,308,31,311.62,35,314.35a7.37,7.37,0,0,0,2.31-2.52,42.15,42.15,0,0,1,7.95-10.21,6.72,6.72,0,0,0,2.15-4.46A24.19,24.19,0,0,1,37.54,290.58Zm45.23-31.89a28.83,28.83,0,0,1-.82-3.12c.16.28.19-3.84-.08-2.07a14.43,14.43,0,0,0-1-7.78c-6.82-.15-13.62.35-20.43.44a8.08,8.08,0,0,0-.4,1.32c-1.81,12.15,1.44,24.6,11.2,32.7a13.9,13.9,0,0,0,5.1,2.67c.11-.1.14-.22.26-.31,4.64-3.68,9.41-7.17,13.85-11.07a9.5,9.5,0,0,0-3.23-7.27C85,262.31,83.69,260.94,82.77,258.69Zm24.86-7.83a14.91,14.91,0,0,0,4.92-2.61c10.26-8.21,17.39-19,22.18-31.09a9,9,0,0,0-.08-6.5c-6-1.73-12.08-2.69-17.78-5.17a14.44,14.44,0,0,0-3.94,5.65c-3.35,8.5-9.3,15.47-16.36,21.12a6.59,6.59,0,0,0-.63.67,4.17,4.17,0,0,1,.73,1C99.36,240.22,102.22,246.5,107.63,250.86ZM100,320.47c-9.7,0-9.72,15.07,0,15.07S109.68,320.47,100,320.47ZM277.09,263a12.6,12.6,0,0,0,5.29-6.71,57.36,57.36,0,0,1,11.11-19.23,12.56,12.56,0,0,0,3.17-8.57c-5-2.59-9.66-6-12-10.62a10,10,0,0,0-7.16,3.21,85.27,85.27,0,0,0-16.92,29.21,9.16,9.16,0,0,0-.41,3.91A41.89,41.89,0,0,1,277.09,263Zm146.55-89.14a7.87,7.87,0,0,0-2.93-1.67c-.07.06-.09.13-.16.19-3.63,2.75-5.73,7.08-8.93,10.3a7.34,7.34,0,0,0,1.36,1.84,24.12,24.12,0,0,1,8.46,16.3,7.34,7.34,0,0,0,3.35,5.73,5.49,5.49,0,0,1,1.65-1.88c3.65-2.62,6.94-4.85,9.33-8.38A38.8,38.8,0,0,0,423.64,173.87ZM345.8,283.73h9.42c9.7,0,9.71-15.07,0-15.07H345.8C336.11,268.66,336.09,283.73,345.8,283.73Zm-106.9-49a7.18,7.18,0,0,0,.07,3.92,35.45,35.45,0,0,1,12.87,3.12,7.47,7.47,0,0,0,1.59-3c2.61-9.81.19-19.23-6-27.11-.26-.34-.67-.47-1-.73-2.69,2.1-5.44,4.1-8.09,6.25a4.41,4.41,0,0,1-3.44,1,10,10,0,0,0,1.86,4.14C239.54,225.76,240,230.53,238.9,234.69Zm-105.77,4.63a23.54,23.54,0,0,0-1.09,10.5c.52,4,3.09,7.53,7.53,7.53,3.67,0,8.06-3.47,7.54-7.53a13.4,13.4,0,0,1,.55-6.5C150.73,234.1,136.18,230.14,133.13,239.32Zm25.71,17.41a11.36,11.36,0,0,0,1.45,5.2c6.46-1.71,13.07-2.76,19.53-4.54a4.6,4.6,0,0,1,1.59-.1c0-.2,0-.36,0-.56-.54-13.46-5.23-25.11-13.48-35.65a7.7,7.7,0,0,0-2.13-1.82,132.86,132.86,0,0,1-16.1,8.89,4,4,0,0,1-.91.25,13.88,13.88,0,0,0,3.16,8.67A34.41,34.41,0,0,1,158.84,256.73Zm158.77-6.64a8.38,8.38,0,0,0-.41,4.61,5.65,5.65,0,0,1,.66.15c5.1,2.25,10.44,4.39,16,5.06a4.45,4.45,0,0,1,2.37,1.08,14.85,14.85,0,0,0,3.17-4.9,38,38,0,0,0-4.18-35,13.09,13.09,0,0,0-6-4.73,5.19,5.19,0,0,1-1.46,1.41c-5.11,3.3-8.71,8.81-12.9,13.14a8.69,8.69,0,0,0,.83,1.6C319.69,238.16,320.17,243.66,317.61,250.09ZM287.3,298a7.68,7.68,0,0,0-1.13.6c-9.52,6.75-14,17.41-11.42,28.94a9.51,9.51,0,0,0,1.74,3.67c5.89.29,11.79.24,17.68.37a12,12,0,0,0,2.38-10.05,1.49,1.49,0,0,1,0-.18v-.84a.17.17,0,0,0,0-.07,3.7,3.7,0,0,0,.12-.4,10.3,10.3,0,0,0,.61-1.2c.59-.48,1.88-1.82.33-.73a12.83,12.83,0,0,0,5.47-8.76c-4.95-3.2-9.75-6.62-14.55-10.06A4.69,4.69,0,0,1,287.3,298Zm-151-25.52c.1-.35.11-.66.18-1-6.24-3.3-12.58-6.41-18.45-10.34-.06,0-.08-.09-.13-.13a10.7,10.7,0,0,0-3.39,5.46,45.92,45.92,0,0,1-11.94,20.22c4.57,6.06,9.6,11.81,15.66,16.27A68.07,68.07,0,0,0,136.29,272.46Zm185.15-.53c-9.85-4.39-20.06-6.83-30.9-6.43a11.6,11.6,0,0,0-4.77,1.15,5,5,0,0,1,.23.58,43.31,43.31,0,0,1-.95,18.4,4.72,4.72,0,0,1-.48,1,10.53,10.53,0,0,0,6,1.46A43.65,43.65,0,0,1,310,291.44a13.72,13.72,0,0,0,8.84,1,3.72,3.72,0,0,1,.12-2.29A78.07,78.07,0,0,1,325.53,276,8.63,8.63,0,0,0,321.44,271.93Zm59.48-29.47a11.17,11.17,0,0,0-5.67-2.87,10.29,10.29,0,0,0,4.82-4.45,16.86,16.86,0,0,1,5-6.2c.23-.12,1.19-.74,1.31-.81a25.16,25.16,0,0,1,2.24-1.19l.76-.25c1.1-.29,2.17-.59,3.31-.82a9.07,9.07,0,0,0,4.44-2.37c-.5-2.67-1.53-5.48-1.89-7.11-.85-3.79-1.48-7.61-.82-11.42a12.79,12.79,0,0,0-7.74-.89,38.83,38.83,0,0,0-26.15,19.64,11.55,11.55,0,0,0,4.05,15.46,10.69,10.69,0,0,0,3.91,1.34c-6.45,3.07-10.33,11.69-3.58,17.93,5.7,5.27,17.11,14.32,11.55,23.07a11.31,11.31,0,0,0-1.59,4,5.25,5.25,0,0,1,1.42.68c5.62,4.33,13.33,4.68,20.41,5.48C407.23,273.33,394.46,255,380.92,242.46Zm35.36-19.63a11.86,11.86,0,0,0-6,7c-.85,2.52-1.68,5-2.52,7.54a9.6,9.6,0,0,0-.36,4.23,4.61,4.61,0,0,1,1.07.18c6.34,2.5,12.94,2.47,18.54,6a12.64,12.64,0,0,0,2.56-4.39c.83-2.51,1.67-5,2.5-7.54a10.66,10.66,0,0,0-1.18-8.69C425.9,227.67,420.57,225.34,416.28,222.83ZM252,270.18c-10.41-8.25-21.94-14.23-35-16.93a11,11,0,0,0-1.26-.13,4.33,4.33,0,0,1-1,1.67c-4,4.06-8.82,9.27-9.08,15.29a4.56,4.56,0,0,1-.44,1.75,10.21,10.21,0,0,0,5.81,3.22c9.09,1.87,17.72,5.3,25.05,11.12,3.48,2.75,7.87,3.93,11.81,2.61a1,1,0,0,1,0-.18c2.28-5,4.45-10,6.68-14.94A8.36,8.36,0,0,0,252,270.18Zm126.84,31.19c-15.29-6-31.27-7-47.39-4.3a11.24,11.24,0,0,0-3,1c2.25,5.59,1.62,12.68.76,19.21a11.41,11.41,0,0,0,8.25,1.62c12.15-2.05,24-.17,35.37,4.3a9.77,9.77,0,0,0,6.64.44c1.89-5.76,3.53-11.6,5.17-17.42A11.6,11.6,0,0,0,378.83,301.37ZM264.19,290.65a78.14,78.14,0,0,0-10.68,12.57c2.89,3.9,6,7.62,8.7,11.66a7.58,7.58,0,0,0,3.43-2.86,60.68,60.68,0,0,1,9.2-10.71C281.93,294.67,271.26,284,264.19,290.65Zm-36,20.2c-7.72,3.88-15.85,5-24.41,4.32a8.83,8.83,0,0,0-2.57.21,4.28,4.28,0,0,1-.07,1.54,106.85,106.85,0,0,0-2.55,19.35,13.89,13.89,0,0,0,5.19,1.51,67.41,67.41,0,0,0,35.83-7.41,10.23,10.23,0,0,0,4.83-4.69,80.28,80.28,0,0,1-9.7-16A11.45,11.45,0,0,0,228.23,310.85Zm-56.44-32.54-28.85,13.91a8.93,8.93,0,0,0-3.41,2.91c3.08,5.53,4.59,11.71,6.58,17.7a13.14,13.14,0,0,0,8.24-1.09l28.84-13.91a9,9,0,0,0,3.65-3.33c-3.21-5.55-5-11.74-8.13-17.34A13.18,13.18,0,0,0,171.79,278.31Zm-37.37,46.18a13.24,13.24,0,0,0-1.51-.48,4,4,0,0,1-1.55,1.63c-5.25,3.1-9.31,7.69-13.2,12.43A10.28,10.28,0,0,0,123,344c1.41.75,2.76,1.56,4.11,2.43.16.09.57.4.78.54.7.57,1.37,1.17,2,1.8a22.4,22.4,0,0,1,5.16,6.61,11.16,11.16,0,0,0,6.34,4.95c4.24-4.66,9.67-8.09,14.5-12.57A10.78,10.78,0,0,0,154.6,344,51.09,51.09,0,0,0,134.42,324.49Zm36.05-13a38.5,38.5,0,0,0-16.3,19.27c-1.53,3.78,1.67,8.28,5.26,9.27,4.32,1.19,7.74-1.47,9.27-5.26A22.17,22.17,0,0,1,179,323.93a6.74,6.74,0,0,0,3-3.19c-3.67-2.55-7.44-4.93-10.69-8A4.49,4.49,0,0,1,170.47,311.53Zm44.37-5.69c9.67-.34,9.72-15.41,0-15.07a6.28,6.28,0,0,1-6.72-5.29,6.73,6.73,0,0,0-2.1-3.58c-3.36,2.52-7.13,3.91-11.08,5.59a3.93,3.93,0,0,1-1.3.27,6.38,6.38,0,0,0-.07.87c.49.94,1,1.89,1.52,2.79a3.81,3.81,0,0,1,.53,3.26A21.39,21.39,0,0,0,214.84,305.84Zm-12.32-59.76a14.56,14.56,0,0,0,2.21-3.93,1.13,1.13,0,0,1-.07.18c.07-.13.14-.29.23-.45.44-.79.86-1.58,1.35-2.34l.7-1c.33-.32,1.32-1.39,1.28-1.35.47-.47,1-.92,1.48-1.35a3.44,3.44,0,0,1,.42-.29c.78-.46,1.53-.94,2.33-1.36.36-.19,2.53-1,.76-.38a13.15,13.15,0,0,0,7-6c-5.16-4.27-9.44-9.79-10.79-16.29a8.66,8.66,0,0,0-2.26.5,40,40,0,0,0-23,21.59,4,4,0,0,1,2,1.75c2.9,5.26,9.51,9.1,15.29,10.24A4.24,4.24,0,0,1,202.52,246.08Z"/><path class="cls-21" d="M27,249.83c1.57-5,15.7-4.57,19.75-4.66a9.69,9.69,0,0,0-.52-2.34,55.25,55.25,0,0,0-19.49,2.25,4.13,4.13,0,0,1-2.24,0,12.4,12.4,0,0,0-.24,1.62c-.72,12.31,3.62,23.38,11.12,32.95a6.29,6.29,0,0,0,.74.72c.17-.12.26-.28.46-.38.76-.4,1.58-.69,2.36-1.07C38.12,278.68,26.5,264.43,27,249.83Z"/><path class="cls-21" d="M27.88,178.31a56,56,0,0,1,25.81-6.24c.19-.69.3-1.4.51-2.09a10.06,10.06,0,0,0-4.1-1.53,32.58,32.58,0,0,0-22.33,5.66c-.2.14-.33.35-.52.51a4.15,4.15,0,0,1,.31,1.27A17.4,17.4,0,0,0,27.88,178.31Z"/><path class="cls-21" d="M81.25,295.41a14.72,14.72,0,0,1-.54-2,11.56,11.56,0,0,0-4.08.42,74.93,74.93,0,0,0-24.28,12,14.91,14.91,0,0,0-4.1,4.67l.07.06C58.41,303.69,69.31,298.28,81.25,295.41Z"/><path class="cls-21" d="M66.71,204.92a63.89,63.89,0,0,0,9.38,6.69A19.88,19.88,0,0,0,86.31,213c.27-1.14.57-2.28.73-3.46a11.84,11.84,0,0,0-3.2-1.41c-7.56-2-14.61-6.15-19.33-12.53a14.34,14.34,0,0,0-5-4.21,4.63,4.63,0,0,1-2.17,1c-.25.23-.53.43-.78.65C59.72,197.14,62.72,201.42,66.71,204.92Z"/><path class="cls-21" d="M125.42,270.74a4.21,4.21,0,0,1,1,.14c2.59.92,6,3.06,8.94,4.22.29-.9.71-1.73,1-2.64.1-.35.11-.66.18-1-6.24-3.29-12.58-6.41-18.45-10.34-.06,0-.08-.09-.13-.13a10.7,10.7,0,0,0-3.39,5.46,45.92,45.92,0,0,1-11.94,20.22q2.93,3.9,6.19,7.51a113.88,113.88,0,0,0,8.5-20.39C118.48,269.82,122.62,269.21,125.42,270.74Z"/><path class="cls-21" d="M99.23,239.53c9.31-9.2,15.48-20.67,23.31-31.06.13-.29.21-.61.34-.9a49.64,49.64,0,0,1-6-2.08,14.44,14.44,0,0,0-3.94,5.65c-3.35,8.5-9.3,15.47-16.36,21.12a6.59,6.59,0,0,0-.63.67,4.17,4.17,0,0,1,.73,1C97.47,235.84,98.32,237.7,99.23,239.53Z"/><path class="cls-22" d="M241.23,214.91c-1,.73-1.93,1.44-2.86,2.2a4.41,4.41,0,0,1-3.44,1,10,10,0,0,0,1.86,4.14c2.75,3.51,3.22,8.29,2.11,12.44a7.18,7.18,0,0,0,.07,3.92,33.24,33.24,0,0,1,4.52.65C243.28,231.09,241.67,223.06,241.23,214.91Z"/><path class="cls-23" d="M317.61,250.09a8.38,8.38,0,0,0-.41,4.61,5.65,5.65,0,0,1,.66.15c.24.11.5.19.75.29,5.55-8.65,4.47-21.06,2-30.65-1.91,2.17-3.76,4.38-5.7,6.38a8.69,8.69,0,0,0,.83,1.6C319.69,238.16,320.17,243.66,317.61,250.09Z"/><path class="cls-22" d="M287,221.3a17.37,17.37,0,0,1-2.33-3.42,10,10,0,0,0-7.16,3.21,85.27,85.27,0,0,0-16.92,29.21,9.16,9.16,0,0,0-.41,3.91,31.84,31.84,0,0,1,3.1,1C267.68,241.66,275.65,229.61,287,221.3Z"/><path class="cls-21" d="M169.62,223.53c-.53-.82-1-1.65-1.66-2.45a7.7,7.7,0,0,0-2.13-1.82,131.51,131.51,0,0,1-16.1,8.89,4,4,0,0,1-.91.25,13.88,13.88,0,0,0,3.16,8.67,34.41,34.41,0,0,1,6.86,19.66,11.36,11.36,0,0,0,1.45,5.2c1.61-.42,3.25-.75,4.88-1.12-2.23-8.52-3.14-17.34-5.94-25.73C157.26,226.59,169.1,223.73,169.62,223.53Z"/><path class="cls-23" d="M340.15,274.45c7.43,0,14.84.54,22.24,1.1-.26-3.54-2.59-6.89-7.17-6.89H345.8a6.87,6.87,0,0,0-7,6.06A4.9,4.9,0,0,1,340.15,274.45Z"/><path class="cls-23" d="M321.44,271.93c-9.85-4.39-20.06-6.83-30.9-6.43a11.6,11.6,0,0,0-4.77,1.15,5,5,0,0,1,.23.58,43.31,43.31,0,0,1-.95,18.4,4.72,4.72,0,0,1-.48,1,10.41,10.41,0,0,0,4.74,1.33c.29-4.12.81-13,.45-17.19-.49-5.75,19.78-.47,35.77,5.17A8.63,8.63,0,0,0,321.44,271.93Z"/><path class="cls-23" d="M291.13,301.09c-.87-.61-1.76-1.2-2.63-1.82a4.69,4.69,0,0,1-1.2-1.29,7.68,7.68,0,0,0-1.13.6c-9.52,6.75-14,17.41-11.42,28.94a9.51,9.51,0,0,0,1.74,3.67c1.37.07,2.75.07,4.12.12C279.19,320.68,284.05,307.07,291.13,301.09Z"/><path class="cls-23" d="M330.79,302.09A5.38,5.38,0,0,1,333,301c16.26-3.62,35.47-.51,51.31,4.83a11.43,11.43,0,0,0-5.51-4.48c-15.29-6-31.27-7-47.39-4.3a11.24,11.24,0,0,0-3,1,19.79,19.79,0,0,1,1.09,4.05Z"/><path class="cls-23" d="M386.7,204.08a38.81,38.81,0,0,0-26.15,19.64,11.55,11.55,0,0,0,4.05,15.46,10.69,10.69,0,0,0,3.91,1.34c-6.45,3.07-10.33,11.69-3.58,17.93,5.7,5.27,17.11,14.32,11.55,23.07a11.31,11.31,0,0,0-1.59,4,5.25,5.25,0,0,1,1.42.68,18.84,18.84,0,0,0,4.78,2.61c3.87-5.63-2.67-16.95-5-21.88-2.93-6.3-9.84-9.08-11.48-15.88-1.34-5.57,12.81-10.14,13.23-10.47-.18-.08-.34-.18-.51-.25-1.27.05-13.43-.11-14.47-9.29-1.66-14.67,18.88-25,31.53-25.59,0-.14,0-.29,0-.43A12.79,12.79,0,0,0,386.7,204.08Z"/><path class="cls-23" d="M413.88,180.39c-.09-.1-.08-.2-.15-.31a28.29,28.29,0,0,1-2.11,2.61,7.34,7.34,0,0,0,1.36,1.84,24.12,24.12,0,0,1,8.46,16.3,7.34,7.34,0,0,0,3.35,5.73,5.49,5.49,0,0,1,1.65-1.88c.74-.53,1.36-1.05,2.06-1.57C424.79,195,419.43,187.59,413.88,180.39Z"/><path class="cls-22" d="M210.49,214.7a22.87,22.87,0,0,1-1-3.16,8.66,8.66,0,0,0-2.26.5,40,40,0,0,0-23,21.59,4,4,0,0,1,2,1.75,15.59,15.59,0,0,0,1.55,2C193.4,227.55,200.14,219.1,210.49,214.7Z"/><path class="cls-22" d="M181.3,282.54c-.8-1.82-1.62-3.63-2.59-5.38a13.18,13.18,0,0,0-6.92,1.15l-28.85,13.91a9,9,0,0,0-3.41,2.91c.61,1.07,1.1,2.19,1.6,3.31C153.5,290.62,166.75,285,181.3,282.54Z"/><path class="cls-22" d="M250.32,283.06q2.1-4.69,4.21-9.4a8.36,8.36,0,0,0-2.54-3.48c-10.41-8.25-21.94-14.23-35-16.93a11.05,11.05,0,0,0-1.25-.13,4.48,4.48,0,0,1-1.05,1.67c-1,1-2,2-3,3.16C227.1,261,243.52,269.14,250.32,283.06Z"/><path class="cls-22" d="M173.91,314.84a33.36,33.36,0,0,1-2.62-2.13,4.49,4.49,0,0,1-.82-1.18,38.5,38.5,0,0,0-16.3,19.27c-1.53,3.78,1.67,8.28,5.26,9.27.11,0,.18,0,.28,0C161,329.89,165.76,320.93,173.91,314.84Z"/><path class="cls-21" d="M120.43,341.85a5.67,5.67,0,0,1,.21-.62c5.66-10,15.42-9.26,23.44-2.47a75.22,75.22,0,0,1,9.85,10.71c.67-.57,1.34-1.12,2-1.71A10.78,10.78,0,0,0,154.6,344a51.09,51.09,0,0,0-20.18-19.48,13.24,13.24,0,0,0-1.51-.48,4,4,0,0,1-1.55,1.63c-5.25,3.1-9.31,7.69-13.2,12.43A11.06,11.06,0,0,0,120.43,341.85Z"/><path class="cls-22" d="M236.59,313.08c-.59-1.15-1.27-2.26-1.81-3.43a11.45,11.45,0,0,0-6.55,1.2c-7.72,3.88-15.85,5-24.41,4.32a8.83,8.83,0,0,0-2.57.21,4.28,4.28,0,0,1-.07,1.54c-.33,1.3-.45,2.63-.71,3.94C213,320.63,225.52,319.21,236.59,313.08Z"/><path class="cls-5" d="M432.23,366.3h0l-.07-63.92a9.37,9.37,0,0,0-4.41,3.66,10.29,10.29,0,0,0-.91,8.71c0,.72-.27,3.06-3.66,5.32a12.84,12.84,0,0,1-2.5.76c-2.61.63-6.55,1.6-9.06,5.22-.29.43-.59.88-.89,1.35-1.15,1.79-1.51,2.21-2,2.35s-1,.26-1.68.46c-.21-.5-.45-1-.73-1.54-2.81-5.3-9.31-8.53-11.24-9.4a7.51,7.51,0,0,0-3.08-.65,7.15,7.15,0,0,0-1.53.15,9.62,9.62,0,0,0-6.52,4.35,10.7,10.7,0,0,0-.87,9.15c.05.87-.13,4-4.57,7a13.11,13.11,0,0,1-3.11,1c-3,.72-7,1.71-9.65,5.5-.33.47-.66,1-1,1.5-1.4,2.18-1.91,2.81-2.85,3-3.11.81-12.19,3.17-14.2,11.23a23.56,23.56,0,0,0-5.67-8.13,20,20,0,0,1-1.53-1.69,21,21,0,0,1-.53-2.42,26.44,26.44,0,0,0-2.46-7.92c-2.75-5.2-10.95-10.48-14.84-10.48l-.49,0a10,10,0,0,0-7.52,4.36c-1.26,1.91-2.42,5.09-1,9.61.07.94,0,4.57-5.09,7.95a13.94,13.94,0,0,1-3.5,1.13c-3.09.75-7.32,1.78-10,5.66-.34.5-.68,1-1,1.59-1.58,2.46-2.17,3.16-3.35,3.47-3.21.84-10.89,2.84-13.93,9.2-.75-.56-1.5-1.07-2.2-1.52-.11-.87-.25-1.63-.37-2.26-1-5-4.21-8.29-6.34-10.49a18.39,18.39,0,0,1-1.53-1.69,18.6,18.6,0,0,1-.53-2.42,26.68,26.68,0,0,0-2.45-7.92c-2.93-5.52-9.75-8.91-11.77-9.81a7.45,7.45,0,0,0-3.08-.66,4.35,4.35,0,0,0-.51,0,10,10,0,0,0-7.51,4.37c-1.25,1.89-2.41,5.08-1,9.6.06.94,0,4.57-5.1,7.94a13.84,13.84,0,0,1-3.49,1.13c-3.09.75-7.32,1.78-10,5.67-.35.49-.69,1-1.05,1.58-1.58,2.46-2.18,3.17-3.35,3.48a28.07,28.07,0,0,0-9.44,4,34.48,34.48,0,0,0-6.15-5c-.11-.86-.24-1.63-.37-2.26-1-5-4.21-8.29-6.34-10.48a19.81,19.81,0,0,1-1.53-1.69,21,21,0,0,1-.53-2.42,26.15,26.15,0,0,0-2.46-7.92c-2.74-5.2-11-10.48-14.84-10.48l-.49,0a10,10,0,0,0-7.52,4.36c-1.26,1.9-2.42,5.08-1,9.61.07.94,0,4.57-5.09,7.95a14.21,14.21,0,0,1-3.5,1.13c-3.09.75-7.31,1.77-10,5.66-.34.5-.7,1-1,1.58-1.58,2.47-2.17,3.17-3.34,3.48a28,28,0,0,0-9.75,4.22s0-.08,0-.12c-1.25-6.26-6.55-10.79-10.57-13.4-.1-.73-.22-1.38-.33-1.93-1-4.78-4-8-6.06-10.06-.49-.52-1.18-1.22-1.37-1.5s-.28-1.3-.42-2.1a25.35,25.35,0,0,0-2.35-7.55c-2.81-5.31-9.32-8.54-11.24-9.4a7.53,7.53,0,0,0-3.09-.66,7.66,7.66,0,0,0-1.51.15,9.63,9.63,0,0,0-6.53,4.35,10.69,10.69,0,0,0-.88,9.16c0,.86-.12,3.95-4.45,6.88a23.48,23.48,0,0,0-8.1-8.45c-.07-.51-.15-1-.23-1.36-.9-4.48-3.72-7.41-5.6-9.35a12.47,12.47,0,0,1-1.13-1.22,11.94,11.94,0,0,0-.24-1.53,23,23,0,0,0-2.17-6.94c-2.61-4.95-8.59-7.92-10.37-8.72a7.54,7.54,0,0,0-4.58-.51h0a9.34,9.34,0,0,0-6.36,4.25,10.27,10.27,0,0,0-.9,8.7c0,.72-.27,3.06-3.67,5.33a14.52,14.52,0,0,1-2.5.75,20.88,20.88,0,0,0-5.44,2l0,36.84h0c.25,24.23,89.55,43.86,199.68,43.86S432,390.53,432.23,366.3Z"/><path class="cls-1" d="M430.58,354.52a82,82,0,0,1,19.19,2.15c.44-.21.88-.41,1.38-.6,3.69-1.4,7.91-1.23,9-5.73,2,2.9,4.89,8.11,2.95,12.14,2.26,1.83,3.56,3.87,3.56,6,0,7.73-16.17,14-36.12,14s-36.11-6.27-36.11-14S410.64,354.52,430.58,354.52Z"/><path class="cls-1" d="M464.55,373.24c-8.54,8.51-24.09,11.33-47.23,8.41-4.3-9.1,12.49-10.5,17.86-8.59,12.54,4.47,14.43-4.37,15.63-4.12,7.86,1.68,7.27-4.78,8.9-6.11,4.65-3.76,2.91-9,.48-12.49,0-.12.06-.26.09-.39.14.09,11.4,2.6,5.6,15.74l0,.07C467,368.51,468,370.83,464.55,373.24Z"/><path class="cls-7" d="M408.56,379.25c-3.1-8.42,3.77-7.21,8.24-10.13,1.91-1.25,11.43-1.41,15.33-2.84,5.45-2,3.91-4.55,11.21-4.37,2.15.06,3.94,1.33,7.64-.43s3-3.33,4.38-5.07c1.51-2,4.12-1.46,4.83-6.07a17.06,17.06,0,0,0,.29-5.21c-1-5-8.29-8.69-9.25-9.16A10,10,0,0,1,450,340.9a7.58,7.58,0,0,1-.71,1,7.66,7.66,0,0,1-4.17,2.34c-.55.12-1.08.21-1.58.27-3.94-.81-17.87,0-29.51,11.42-11.12,1.77-14.36,10.66-16.61,17.65C400.44,376.87,404.3,378.46,408.56,379.25Z"/><path class="cls-1" d="M445.09,344.24c-.55.12,1.34,11.09-12.7,9.29-4-.52-1.81,8.76-13.53,7.16-10.11-1.36-9.47,1.54-13,3.07-7.6,3.29-8.12,7.8-8.12,7.8-2.28,0-3.15-1.45-3.83-3.62a2.5,2.5,0,0,1-.15-.63c-.25-2.28,3.58-7,3.58-7l0-.14c4.95-7.44,11.1-11,17.52-13.4,2.19-.82,5.37,1.64,7.25-.11s2.38-7.47,12.81-8.2c2.71-.19,7.29-2.94,4.31-8.12-2.68-4.64,2.14-5.18-.81-10.95-1.55-3,.32-8.15-2.85-10.23h.07s5.19,2.32,6.8,5.36,1.25,6.63,2.68,8.95,5,4.48,5.72,8.05S452.24,342.63,445.09,344.24Z"/><path class="cls-7" d="M399,350.31a2.46,2.46,0,0,1,.71-.59,6.06,6.06,0,0,0,3-5.41,8.26,8.26,0,0,1,0-1.5c.35-3.22,3.8-4.7,7.91-5.77s5.61-4.38,7.22-6.7,6.32-1.86,9.53-4c8.12-5.41,7.11-12.58,6.82-13.4-1.25-3.58,1.43-3.76,1.43-3.76h-.07c3.17,2.08,1.3,7.21,2.85,10.23,2.95,5.77-1.87,6.31.81,10.95,3,5.18-1.6,7.93-4.31,8.12-10.43.73-2.76,5-8.17,9-2.19,1.62-10.07-.58-11.47,1.47-2.57,3.78-4.89,3.42-7.21,4.13-4.14,1.24-7.62,2.47-10.73,7.13,0-.11-.05-.31-.08-.55C395.54,355.21,397.39,352.46,399,350.31Z"/><path class="cls-1" d="M48.26,361.1a81.8,81.8,0,0,1,19.18,2.16c.44-.21.89-.41,1.39-.6,3.68-1.4,7.9-1.23,9-5.73,2,2.9,4.89,8.11,3,12.14,2.26,1.83,3.57,3.87,3.57,6,0,7.72-16.18,14-36.12,14s-36.11-6.27-36.11-14S28.31,361.1,48.26,361.1Z"/><path class="cls-1" d="M82.23,379.83c-8.54,8.51-24.1,11.33-47.24,8.42-4.29-9.11,12.49-10.5,17.86-8.6,12.55,4.47,14.43-4.38,15.63-4.12,7.87,1.67,7.28-4.79,8.91-6.11,4.64-3.77,2.9-9,.47-12.49,0-.13.07-.26.1-.39.13.09,11.39,2.6,5.59,15.74a.11.11,0,0,1,0,.07C84.66,375.09,85.66,377.42,82.23,379.83Z"/><path class="cls-7" d="M26.23,385.84c-3.09-8.42,3.78-7.22,8.25-10.14,1.91-1.25,11.42-1.39,15.33-2.83,5.44-2,3.91-4.55,11.21-4.37,2.14.06,3.93,1.33,7.64-.44s3-3.33,4.38-5.05c1.51-2,4.12-1.47,4.82-6.08a16.75,16.75,0,0,0,.29-5.21c-1-5-8.28-8.7-9.24-9.16a10.16,10.16,0,0,1-1.26,4.93,7.66,7.66,0,0,1-.72,1,7.51,7.51,0,0,1-4.16,2.34c-.56.12-1.08.21-1.59.27-3.93-.81-17.87-.05-29.5,11.42-11.13,1.77-14.36,10.65-16.62,17.65C18.11,383.46,22,385.05,26.23,385.84Z"/><path class="cls-1" d="M62.77,350.83c-.56.12,1.34,11.09-12.7,9.29-4-.52-1.81,8.76-13.53,7.17-10.12-1.37-9.48,1.52-13,3.06-7.61,3.3-8.12,7.8-8.12,7.8-2.29,0-3.16-1.45-3.84-3.63a3,3,0,0,1-.14-.61c-.26-2.29,3.58-7,3.58-7l0-.14c5-7.44,11.1-11,17.52-13.41,2.19-.81,5.37,1.64,7.25-.1s2.39-7.47,12.82-8.19c2.7-.19,7.28-3,4.3-8.13-2.68-4.64,2.14-5.18-.81-10.95-1.54-3,.32-8.15-2.84-10.23h.07s5.19,2.32,6.79,5.37,1.26,6.62,2.69,8.94,5,4.48,5.72,8.05S69.92,349.22,62.77,350.83Z"/><path class="cls-7" d="M16.65,356.9a2.77,2.77,0,0,1,.71-.59,6.06,6.06,0,0,0,3-5.41,9.42,9.42,0,0,1,0-1.51c.36-3.21,3.81-4.69,7.92-5.77s5.61-4.37,7.22-6.69,6.32-1.85,9.53-4c8.11-5.41,7.11-12.57,6.82-13.4-1.25-3.58,1.43-3.76,1.43-3.76h-.07c3.16,2.08,1.3,7.21,2.84,10.23,2.95,5.77-1.87,6.31.81,10.95,3,5.17-1.6,7.94-4.3,8.13-10.43.72-2.76,5-8.17,9-2.2,1.62-10.07-.58-11.47,1.47-2.58,3.78-4.9,3.42-7.21,4.12-4.14,1.26-7.63,2.48-10.74,7.14,0-.11,0-.31-.08-.56C13.22,361.8,15.06,359.05,16.65,356.9Z"/><path class="cls-1" d="M386.31,377.27a92.54,92.54,0,0,1,21.63,2.43c.5-.24,1-.47,1.57-.68,4.14-1.57,8.9-1.39,10.18-6.45,2.3,3.27,5.51,9.14,3.33,13.68,2.54,2.07,4,4.37,4,6.8,0,8.72-18.23,15.79-40.72,15.79s-40.73-7.07-40.73-15.79S363.82,377.27,386.31,377.27Z"/><path class="cls-1" d="M424.61,398.38c-9.63,9.6-27.17,12.78-53.27,9.49-4.83-10.26,14.1-11.84,20.15-9.69,14.14,5,16.28-4.93,17.63-4.64,8.86,1.89,8.2-5.4,10-6.89,5.23-4.25,3.27-10.19.53-14.08l.11-.45c.15.11,12.85,2.93,6.31,17.75a.3.3,0,0,0,0,.08C427.36,393.05,428.48,395.67,424.61,398.38Z"/><path class="cls-7" d="M361.47,405.16c-3.49-9.49,4.26-8.13,9.3-11.43,2.15-1.41,12.88-1.58,17.29-3.2,6.14-2.26,4.4-5.13,12.63-4.92,2.42.06,4.44,1.51,8.62-.49s3.43-3.76,4.94-5.71c1.7-2.21,4.65-1.64,5.44-6.84a19.29,19.29,0,0,0,.32-5.88c-1.13-5.65-9.34-9.81-10.41-10.33a11.32,11.32,0,0,1-1.43,5.56,8,8,0,0,1-.81,1.12,8.48,8.48,0,0,1-4.69,2.64c-.63.14-1.22.23-1.79.31-4.43-.92-20.15-.05-33.27,12.88-12.55,2-16.19,12-18.73,19.9C352.31,402.48,356.67,404.27,361.47,405.16Z"/><path class="cls-1" d="M402.67,365.68c-.63.14,1.51,12.51-14.33,10.47-4.55-.58-2,9.88-15.25,8.1-11.41-1.56-10.69,1.71-14.68,3.44-8.56,3.72-9.14,8.8-9.14,8.8-2.58,0-3.56-1.63-4.33-4.08a3.27,3.27,0,0,1-.16-.71c-.29-2.57,4-7.87,4-7.87l0-.15c5.59-8.38,12.51-12.44,19.74-15.12,2.48-.92,6.07,1.86,8.19-.12s2.69-8.43,14.45-9.24c3.05-.21,8.21-3.33,4.84-9.16-3-5.23,2.42-5.84-.91-12.35-1.74-3.4.37-9.18-3.2-11.53H392s5.85,2.62,7.66,6.05,1.41,7.47,3,10.08,5.65,5.05,6.45,9.08S410.73,363.87,402.67,365.68Z"/><path class="cls-7" d="M350.67,372.54a2.75,2.75,0,0,1,.79-.68,6.79,6.79,0,0,0,3.37-6.1,10.4,10.4,0,0,1,0-1.69c.4-3.63,4.28-5.31,8.92-6.51s6.32-4.93,8.13-7.55,7.13-2.09,10.76-4.5c9.15-6.11,8-14.19,7.68-15.12-1.41-4,1.62-4.24,1.62-4.24h-.08c3.57,2.35,1.46,8.13,3.2,11.53,3.33,6.51-2.1,7.12.91,12.35,3.37,5.83-1.79,8.95-4.84,9.16-11.76.81-3.11,5.62-9.22,10.13-2.47,1.82-11.35-.66-12.93,1.66-2.9,4.26-5.52,3.85-8.14,4.64-4.66,1.41-8.59,2.8-12.09,8.05,0-.12-.06-.35-.1-.62C346.8,378.05,348.87,375,350.67,372.54Z"/><path class="cls-1" d="M91.91,384.57A92.47,92.47,0,0,1,113.54,387c.5-.23,1-.46,1.57-.68,4.14-1.57,8.91-1.38,10.18-6.45,2.3,3.27,5.51,9.14,3.33,13.69,2.55,2.06,4,4.36,4,6.8,0,8.72-18.23,15.79-40.72,15.79s-40.72-7.07-40.72-15.79S69.42,384.57,91.91,384.57Z"/><path class="cls-1" d="M130.22,405.69c-9.63,9.6-27.17,12.77-53.27,9.49-4.84-10.27,14.09-11.84,20.14-9.69,14.14,5,16.27-4.93,17.63-4.64,8.86,1.88,8.21-5.41,10-6.9,5.23-4.24,3.28-10.18.53-14.08,0-.15.08-.3.11-.45.15.11,12.86,2.94,6.31,17.75,0,0,0,.06,0,.08C133,400.35,134.09,403,130.22,405.69Z"/><path class="cls-7" d="M67.07,412.46c-3.49-9.49,4.26-8.13,9.3-11.42,2.15-1.42,12.88-1.58,17.28-3.2,6.15-2.27,4.41-5.13,12.65-4.93,2.41.06,4.43,1.51,8.61-.48s3.44-3.76,4.94-5.71c1.71-2.21,4.65-1.65,5.44-6.85a18.91,18.91,0,0,0,.32-5.87c-1.13-5.66-9.33-9.82-10.41-10.34a11.29,11.29,0,0,1-1.43,5.56,8,8,0,0,1-.8,1.13,8.64,8.64,0,0,1-4.7,2.64c-.63.14-1.22.23-1.79.3-4.43-.91-20.15-.05-33.26,12.88-12.56,2-16.2,12-18.74,19.9C57.92,409.79,62.28,411.58,67.07,412.46Z"/><path class="cls-1" d="M108.27,373c-.63.14,1.51,12.5-14.33,10.47-4.54-.58-2,9.87-15.25,8.08C67.28,390,68,393.26,64,395c-8.57,3.72-9.15,8.8-9.15,8.8-2.58,0-3.56-1.62-4.33-4.08a3.89,3.89,0,0,1-.16-.7c-.29-2.58.59-12.67.59-12.67s15.93-7.79,23.17-10.48c2.47-.91,6.06,1.86,8.19-.11s2.68-8.43,14.44-9.24c3-.21,8.21-3.33,4.85-9.16-3-5.23,2.42-5.85-.91-12.35-1.74-3.4.36-9.19-3.21-11.54h.08s5.85,2.63,7.66,6.06,1.41,7.46,3,10.08,5.65,5,6.46,9.08S116.34,371.18,108.27,373Z"/><path class="cls-7" d="M54.05,379.06c.17-.23,2.66.33,3,.1a6.79,6.79,0,0,0,3.36-6.1,10.43,10.43,0,0,1,0-1.69c.4-3.63,4.29-5.3,8.93-6.51s6.31-4.93,8.13-7.55,7.13-2.09,10.75-4.5c9.15-6.1,8-14.18,7.68-15.12-1.41-4,1.62-4.24,1.62-4.24H97.5c3.57,2.35,1.47,8.14,3.21,11.54,3.33,6.5-2.11,7.12.91,12.35,3.36,5.83-1.8,8.95-4.85,9.16-11.76.81-3.12,5.62-9.21,10.12-2.48,1.82-11.36-.65-12.93,1.66-2.91,4.26-5.53,3.86-8.14,4.65-4.67,1.4-8.6,2.79-12.1,8a27.46,27.46,0,0,1-2.46-1.75C50,384.22,52.26,381.48,54.05,379.06Z"/><path class="cls-1" d="M316.61,393a98.43,98.43,0,0,1,23.09,2.6c.53-.25,1.07-.49,1.67-.72,4.44-1.68,9.53-1.49,10.88-6.9,2.46,3.49,5.88,9.77,3.55,14.62,2.72,2.2,4.29,4.66,4.29,7.26,0,9.32-19.47,16.86-43.48,16.86s-43.5-7.54-43.5-16.86S292.59,393,316.61,393Z"/><path class="cls-1" d="M357.51,415.54c-10.29,10.26-29,13.65-56.89,10.13-5.17-10.95,15.05-12.64,21.52-10.34,15.09,5.38,17.38-5.27,18.82-5,9.46,2,8.76-5.77,10.73-7.36,5.59-4.54,3.49-10.88.56-15l.12-.47c.16.11,13.72,3.13,6.74,18.95a.32.32,0,0,1,0,.09C360.43,409.84,361.64,412.64,357.51,415.54Z"/><path class="cls-7" d="M290.07,422.78c-3.72-10.14,4.55-8.69,9.94-12.21,2.3-1.5,13.75-1.68,18.46-3.41,6.56-2.42,4.7-5.48,13.49-5.26,2.59.06,4.74,1.61,9.21-.52s3.67-4,5.27-6.1c1.82-2.36,5-1.76,5.81-7.31a20.62,20.62,0,0,0,.35-6.27c-1.21-6-10-10.48-11.12-11A12.14,12.14,0,0,1,340,376.6a8.31,8.31,0,0,1-.87,1.2,9.07,9.07,0,0,1-5,2.82c-.68.15-1.31.25-1.92.33-4.73-1-21.51-.06-35.52,13.75-13.4,2.13-17.29,12.83-20,21.25C280.3,419.92,285,421.83,290.07,422.78Z"/><path class="cls-1" d="M334.08,380.62c-.68.15,1.6,13.35-15.31,11.18-4.86-.62-2.16,10.55-16.29,8.64-12.17-1.65-11.41,1.84-15.66,3.68-9.16,4-9.77,9.4-9.77,9.4-2.76,0-3.8-1.75-4.63-4.36a4.45,4.45,0,0,1-.17-.75c-.31-2.75,4.31-8.41,4.31-8.41l0-.16c6-8.95,13.37-13.28,21.1-16.14,2.64-1,6.47,2,8.73-.14s2.88-9,15.44-9.86c3.25-.22,8.77-3.55,5.17-9.78-3.22-5.59,2.58-6.24-1-13.19-1.86-3.63.39-9.81-3.43-12.32h.09s6.24,2.8,8.18,6.46,1.51,8,3.24,10.78,6,5.38,6.88,9.69S342.69,378.69,334.08,380.62Z"/><path class="cls-7" d="M278.54,387.94a3.27,3.27,0,0,1,.86-.73A7.26,7.26,0,0,0,283,380.7a9.68,9.68,0,0,1,0-1.8c.42-3.88,4.57-5.66,9.53-6.95s6.75-5.27,8.69-8.07,7.61-2.23,11.47-4.81c9.78-6.52,8.56-15.14,8.22-16.15-1.51-4.3,1.72-4.52,1.72-4.52h-.09c3.82,2.51,1.57,8.69,3.43,12.32,3.55,6.95-2.25,7.6,1,13.19,3.6,6.23-1.92,9.56-5.17,9.78-12.56.87-3.33,6-9.85,10.81-2.64,1.95-12.12-.7-13.8,1.77-3.11,4.55-5.9,4.12-8.69,5-5,1.51-9.19,3-12.93,8.6,0-.13,0-.37-.1-.66C274.41,393.83,276.63,390.52,278.54,387.94Z"/><path class="cls-1" d="M168.73,396.76a99.14,99.14,0,0,1,23.1,2.59c.53-.25,1.06-.49,1.67-.72,4.43-1.68,9.51-1.48,10.88-6.89,2.45,3.49,5.88,9.76,3.55,14.61,2.71,2.21,4.29,4.67,4.29,7.27,0,9.31-19.47,16.85-43.49,16.85s-43.5-7.54-43.5-16.85S144.71,396.76,168.73,396.76Z"/><path class="cls-1" d="M209.63,419.31c-10.29,10.25-29,13.65-56.88,10.13-5.17-11,15-12.64,21.51-10.34,15.1,5.38,17.38-5.27,18.82-5,9.46,2,8.76-5.77,10.73-7.36,5.59-4.54,3.49-10.88.57-15,0-.16.07-.32.11-.48.16.12,13.72,3.13,6.74,19l0,.08C212.56,413.61,213.77,416.41,209.63,419.31Z"/><path class="cls-7" d="M142.19,426.55c-3.72-10.14,4.56-8.69,9.94-12.21,2.3-1.5,13.76-1.68,18.46-3.41,6.56-2.42,4.71-5.48,13.49-5.26,2.59.06,4.74,1.6,9.21-.52s3.67-4,5.27-6.1c1.82-2.36,5-1.76,5.82-7.31a20.6,20.6,0,0,0,.34-6.27c-1.21-6-10-10.48-11.13-11a11.94,11.94,0,0,1-1.52,5.94,8.82,8.82,0,0,1-.86,1.2,9.09,9.09,0,0,1-5,2.81c-.68.15-1.3.25-1.91.34-4.73-1-21.52-.06-35.53,13.75-13.4,2.13-17.29,12.82-20,21.25C132.42,423.69,137.08,425.6,142.19,426.55Z"/><path class="cls-1" d="M186.2,384.38c-.67.15,1.6,13.36-15.3,11.19-4.86-.62-2.17,10.55-16.29,8.64-12.19-1.65-11.41,1.84-15.67,3.68-9.16,4-9.78,9.4-9.78,9.4-2.74,0-3.79-1.75-4.62-4.36a4.6,4.6,0,0,1-.16-.75c-.31-2.75,4.31-8.41,4.31-8.41l0-.16c6-9,13.36-13.28,21.09-16.15,2.64-1,6.47,2,8.73-.13s2.88-9,15.44-9.86c3.25-.22,8.77-3.56,5.17-9.78-3.22-5.59,2.58-6.24-1-13.19-1.86-3.63.39-9.81-3.42-12.32a.15.15,0,0,0,.08,0S181,345,183,348.63s1.5,8,3.23,10.77,6,5.39,6.89,9.69S194.81,382.45,186.2,384.38Z"/><path class="cls-7" d="M130.67,391.71a3,3,0,0,1,.85-.73,7.24,7.24,0,0,0,3.59-6.51,10.63,10.63,0,0,1,0-1.8c.43-3.89,4.57-5.67,9.53-6.95s6.75-5.28,8.69-8.08,7.61-2.22,11.48-4.8c9.77-6.52,8.56-15.15,8.21-16.15-1.51-4.3,1.72-4.53,1.72-4.53a.15.15,0,0,1-.08,0c3.81,2.51,1.56,8.69,3.42,12.32,3.55,6.95-2.25,7.6,1,13.19,3.6,6.22-1.92,9.56-5.17,9.78-12.56.87-3.33,6-9.85,10.81-2.64,2-12.12-.7-13.8,1.77-3.11,4.55-5.9,4.12-8.69,5-5,1.51-9.19,3-12.92,8.6,0-.14-.06-.37-.11-.67C126.53,397.6,128.75,394.29,130.67,391.71Z"/><path class="cls-1" d="M242.39,399.2a98.39,98.39,0,0,1,23.1,2.6c.54-.25,1.07-.49,1.67-.72,4.44-1.68,9.52-1.48,10.88-6.9,2.46,3.49,5.89,9.77,3.55,14.62,2.73,2.2,4.29,4.66,4.29,7.26,0,9.31-19.47,16.86-43.49,16.86s-43.49-7.55-43.49-16.86S218.37,399.2,242.39,399.2Z"/><path class="cls-1" d="M283.3,421.75c-10.28,10.26-29,13.65-56.88,10.13-5.18-10.95,15-12.64,21.5-10.33,15.11,5.37,17.38-5.28,18.83-5,9.46,2,8.76-5.77,10.72-7.36,5.6-4.54,3.5-10.88.57-15,0-.16.08-.31.11-.47.17.11,13.74,3.13,6.75,19a.36.36,0,0,0,0,.09C286.23,416.05,287.43,418.86,283.3,421.75Z"/><path class="cls-7" d="M215.87,429c-3.73-10.13,4.55-8.69,9.92-12.2,2.3-1.51,13.77-1.68,18.46-3.41,6.56-2.43,4.71-5.49,13.5-5.27,2.58.06,4.74,1.61,9.2-.52s3.67-4,5.28-6.1c1.82-2.36,5-1.75,5.81-7.31a20.29,20.29,0,0,0,.35-6.27c-1.21-6-10-10.47-11.13-11a12.13,12.13,0,0,1-1.52,5.94,8.31,8.31,0,0,1-.87,1.2,9,9,0,0,1-5,2.82c-.67.15-1.3.25-1.91.33-4.73-1-21.52-.06-35.52,13.76-13.4,2.12-17.3,12.82-20,21.24C206.09,426.13,210.74,428,215.87,429Z"/><path class="cls-1" d="M259.86,386.83c-.66.15,1.62,13.35-15.3,11.19-4.86-.63-2.17,10.55-16.28,8.63-12.19-1.65-11.42,1.84-15.67,3.69-9.15,4-9.78,9.39-9.78,9.39-2.74,0-3.8-1.74-4.62-4.36a4.45,4.45,0,0,1-.17-.75c-.3-2.75,4.31-8.4,4.31-8.4l0-.17c6-8.95,13.35-13.28,21.08-16.14,2.65-1,6.48,2,8.74-.13s2.87-9,15.44-9.87c3.25-.22,8.76-3.55,5.17-9.78-3.22-5.59,2.58-6.24-1-13.18-1.87-3.64.39-9.82-3.42-12.33h.08s6.25,2.81,8.18,6.46,1.51,8,3.23,10.78,6,5.38,6.9,9.69S268.48,384.9,259.86,386.83Z"/><path class="cls-7" d="M204.33,394.15a3.19,3.19,0,0,1,.85-.72,7.26,7.26,0,0,0,3.6-6.52,10.67,10.67,0,0,1,0-1.8c.44-3.88,4.59-5.66,9.53-6.95s6.76-5.27,8.69-8.07,7.61-2.23,11.48-4.81c9.78-6.52,8.56-15.14,8.21-16.15-1.5-4.3,1.73-4.52,1.73-4.52h-.08c3.81,2.51,1.55,8.69,3.42,12.33,3.55,6.94-2.25,7.59,1,13.18,3.59,6.23-1.92,9.56-5.17,9.78-12.57.87-3.34,6-9.85,10.81-2.64,2-12.12-.7-13.81,1.77-3.1,4.55-5.89,4.12-8.69,5-5,1.5-9.17,3-12.91,8.59,0-.13-.07-.37-.11-.66C200.2,400.05,202.42,396.73,204.33,394.15Z"/><path class="cls-1" d="M15,356.74l0-.14c0-.11,0-.31-.08-.55a8.19,8.19,0,0,1-.17-5.93A23.94,23.94,0,0,1,7,346.05,12,12,0,0,1,5.7,345c-.08-.08-.18-.14-.26-.22-1.81-1.26-2-2.51-1.66-3.84-.86,1.82-1,4.45.64,8.22a.13.13,0,0,1,0,.05c-.82,2.12-1.59,3.91,1.05,5.77l.26.2A12.06,12.06,0,0,0,7,356.24a23.57,23.57,0,0,0,6,3.35A29.94,29.94,0,0,1,15,356.74Z"/><path class="cls-24" d="M465.89,365.66c2.39-5.42,1.81-9,.37-11.33-.15.4-.18.72-.37,1.14a6,6,0,0,1,.66,1.86c.65,2,.68,3.85-2,5.72-.1.09-.22.17-.32.27a15.48,15.48,0,0,1-1.71,1.41c-7.31,5.89-18.73,8.45-34.55,7.65a19.68,19.68,0,0,1-1.84,7.27,7.36,7.36,0,0,1,.73,2.06c.74,2.28.78,4.36-2.25,6.49-.11.1-.25.19-.36.3a17.59,17.59,0,0,1-1.93,1.59c-10,8.06-26.76,10.65-51,7.6a1.67,1.67,0,0,1,0-.18,68.43,68.43,0,0,1-11.59-2.79c-.19.5-.35,1-.58,1.51a7.7,7.7,0,0,1,.79,2.19c.79,2.45.84,4.66-2.4,6.93l0,0a18.26,18.26,0,0,1-3.37,2.79c-10.78,8-28.39,10.48-53.48,7.32,0-.06,0-.11-.05-.16a67.79,67.79,0,0,1-16.42-4.47,10.59,10.59,0,0,1-.85.7l0,0a18.89,18.89,0,0,1-3.36,2.8c-10.79,8-28.4,10.47-53.48,7.31,0-.06,0-.11-.07-.16a66.38,66.38,0,0,1-17.12-4.77c-.4-.18-.8-.38-1.2-.59a27.37,27.37,0,0,1-4.29-2.6c-10.93,6.66-27.74,8.6-51,5.68,0-.06,0-.11-.06-.17a66.15,66.15,0,0,1-17.12-4.77c-.41-.18-.82-.38-1.21-.58-5-2.51-8.24-5.58-8.94-8.93a11.51,11.51,0,0,1-.88-2.08,4.09,4.09,0,0,1-.16-.74,5.29,5.29,0,0,1,.52-2.44c-10.22,6.34-26,8.2-47.95,5.44a1.77,1.77,0,0,1-.06-.17,64.91,64.91,0,0,1-14.81-4,20.91,20.91,0,0,1-2.95-1.39,16.1,16.1,0,0,1-1.9-1.3c0-.18-8.76-.46-6.14-11.53,0-.12-.09-.18-.12-.29A28.83,28.83,0,0,1,54.42,381l0-.15c0-.13-.06-.35-.1-.63s-.13-.73-.24-1.11a120.75,120.75,0,0,1-19.06-1l-.05-.14a56.71,56.71,0,0,1-13.13-3.53,19,19,0,0,1-2.63-1.22,15.63,15.63,0,0,1-5.48-4.47c-1.08,1.57-2.42,3.83-2.27,5.22a3,3,0,0,0,.14.61,8.19,8.19,0,0,0,1,2.1c.7,2.5,3,4.8,6.64,6.72a18,18,0,0,0,2.63,1.23,56.23,56.23,0,0,0,13.13,3.52l.05.16c13.48-1.53,16.47,13.56,16.64,13.82.79,2.82,3.39,5.4,7.5,7.58A23.4,23.4,0,0,0,62.08,411a63.43,63.43,0,0,0,14.81,4,1,1,0,0,0,.06.18c12.18,1.53,22.47,1.64,31,.34a30.59,30.59,0,0,1,24.69,7.2,8.6,8.6,0,0,0,1.75,1.21c.39.2.8.4,1.21.58a66.15,66.15,0,0,0,17.12,4.77c0,.06,0,.11.06.16,18.08,2.28,31.89,2.21,42.44-1.34a28.48,28.48,0,0,1,18.75.69,69.81,69.81,0,0,0,12.41,2.93c0,.06,0,.11.07.16,25.08,3.17,42.69.68,53.48-7.31a18.86,18.86,0,0,0,3.36-2.79l0,0a10.59,10.59,0,0,0,.85-.7,67.36,67.36,0,0,0,16.42,4.46c0,.06,0,.11.05.16,25.09,3.17,42.7.68,53.48-7.31a18.29,18.29,0,0,0,3.37-2.8l0,0c3.24-2.27,9.47-8.5,13.78-7.84a1.09,1.09,0,0,0,0,.17c24.22,3.06,41,.47,51-7.59a16.57,16.57,0,0,0,1.93-1.6c.11-.1.25-.19.36-.3,3-2.12,3-4.2,2.25-6.48a7.25,7.25,0,0,0-.73-2.06,19.68,19.68,0,0,0,1.84-7.27c15.82.8,27.24-1.76,34.55-7.65a15.48,15.48,0,0,0,1.71-1.41c.1-.1.22-.17.32-.27,2.68-1.88,2.65-3.71,2-5.72A6,6,0,0,0,465.89,365.66Z"/><path class="cls-25" d="M100.91,201.47a5.65,5.65,0,1,0-5.65,5.65A5.65,5.65,0,0,0,100.91,201.47Z"/><path class="cls-25" d="M107.81,265.52a6.28,6.28,0,1,0-6.27,6.28A6.27,6.27,0,0,0,107.81,265.52Z"/><path class="cls-25" d="M52.56,229.1a9.42,9.42,0,1,0-9.42,9.42A9.41,9.41,0,0,0,52.56,229.1Z"/><path class="cls-25" d="M106.56,307.59a3.77,3.77,0,1,0-3.77,3.77A3.76,3.76,0,0,0,106.56,307.59Z"/><path class="cls-25" d="M210.17,354.69a5,5,0,1,0-5,5A5,5,0,0,0,210.17,354.69Z"/><path class="cls-26" d="M285.52,353.43a5.65,5.65,0,1,0-5.65,5.66A5.65,5.65,0,0,0,285.52,353.43Z"/><path class="cls-26" d="M325.71,316.38a6.28,6.28,0,1,0-6.28,6.29A6.28,6.28,0,0,0,325.71,316.38Z"/><path class="cls-26" d="M318.17,211.52a9.42,9.42,0,1,0-9.42,9.42A9.42,9.42,0,0,0,318.17,211.52Z"/><path class="cls-26" d="M394.78,191.43a5,5,0,1,0-5,5A5,5,0,0,0,394.78,191.43Z"/><path class="cls-26" d="M418,278.08a5,5,0,1,0-5,5A5,5,0,0,0,418,278.08Z"/><path class="cls-26" d="M418.64,311.36A5.65,5.65,0,1,0,413,317,5.65,5.65,0,0,0,418.64,311.36Z"/></g></g></svg>