<svg xmlns="http://www.w3.org/2000/svg" viewBox="0 0 404.9 318.94"><defs><style>.cls-1{fill:#f0bc5e;}.cls-2{fill:#e3aa43;}.cls-3{fill:#d99e46;}.cls-4{fill:#fae3aa;}.cls-5{fill:#f0d38e;}.cls-6{fill:#faeecf;}.cls-7{fill:#fff9eb;}.cls-8{fill:#89ba01;}.cls-9{fill:#7ba801;}</style></defs><g id="Layer_2" data-name="Layer 2"><g id="Layer_1-2" data-name="Layer 1"><path class="cls-1" d="M404.9,248.82c0,33-90.64,59.75-202.45,59.75S0,281.82,0,248.82s90.64-59.76,202.45-59.76S404.9,215.82,404.9,248.82Z"/><path class="cls-2" d="M390,265c-8.22,5.52-20.68,7.4-34.61,11.87-11.32,3.61-23.24,10-37.58,12.74-9.32,1.77-20.93.3-31.3,1.63-13.35,1.71-25.76,6.06-40.5,6.94-14,.84-28.4-2.15-43.36-2.15-15.58,0-30.94,2.95-45.51,2-16.78-1-33.63-5.92-48.53-8-21-3-39-3.67-54.94-8.37C38,277,30.59,269.73,20.57,265.43,8,260,.07,251.85,0,244.23H0v20.66H0c.06,7.62,8,15.82,20.56,21.21,10,4.29,17.44,11.54,33.11,16.18,15.92,4.7,33.92,5.4,54.94,8.38,14.9,2.1,31.75,7,48.53,8,14.57.91,29.93-2.05,45.51-2.05,15,0,29.32,3,43.36,2.15,14.74-.88,27.15-5.23,40.5-6.93,10.37-1.34,22,.14,31.3-1.64,14.34-2.72,26.26-9.12,37.58-12.74,13.93-4.46,26.39-6.35,34.61-11.86,9.54-6.4,14.82-13.39,14.88-20.73h0V244.23h0C404.83,251.56,399.55,258.56,390,265Z"/><path class="cls-3" d="M404.89,244.23c-.06,7.33-5.34,14.33-14.88,20.72-8.22,5.52-20.68,7.4-34.61,11.87-11.32,3.61-23.24,10-37.58,12.74-9.32,1.77-20.93.3-31.3,1.63-13.35,1.71-25.76,6.06-40.5,6.94-14,.84-28.4-2.15-43.36-2.15-15.58,0-30.94,2.95-45.51,2-16.78-1-33.63-5.92-48.53-8-21-3-39-3.67-54.94-8.37C38,277,30.59,269.73,20.57,265.43,8,260,.07,251.85,0,244.23H0v5.84H0c.06,7.62,8,15.81,20.56,21.2,10,4.3,17.44,11.55,33.11,16.19,15.92,4.7,33.92,5.4,54.94,8.37,14.9,2.11,31.75,7,48.53,8,14.57.91,29.93-2,45.51-2,15,0,29.32,3,43.36,2.15,14.74-.88,27.15-5.23,40.5-6.94,10.37-1.33,22,.14,31.3-1.63,14.34-2.72,26.26-9.13,37.58-12.74,13.93-4.47,26.39-6.35,34.61-11.87,9.54-6.39,14.82-13.39,14.88-20.72h0v-5.84Z"/><path class="cls-3" d="M390,279.63c-8.22,5.52-20.68,7.4-34.61,11.86-11.32,3.62-23.24,10-37.58,12.74-9.32,1.77-20.93.31-31.3,1.63-13.35,1.71-25.76,6.06-40.5,6.94-14,.85-28.4-2.14-43.36-2.14-15.58,0-30.94,2.95-45.51,2-16.78-1.05-33.63-5.93-48.53-8-21-3-39-3.67-54.94-8.38C38,291.66,30.59,284.4,20.57,280.11,8,274.72.07,266.53,0,258.9H0v6H0c.06,7.62,8,15.82,20.56,21.21,10,4.29,17.44,11.54,33.11,16.18,15.92,4.7,33.92,5.4,54.94,8.38,14.9,2.1,31.75,7,48.53,8,14.57.91,29.93-2.05,45.51-2.05,15,0,29.32,3,43.36,2.15,14.74-.88,27.15-5.23,40.5-6.93,10.37-1.34,22,.14,31.3-1.64,14.34-2.72,26.26-9.12,37.58-12.74,13.93-4.46,26.39-6.35,34.61-11.86,9.54-6.4,14.82-13.39,14.88-20.73h0v-6h0C404.83,266.23,399.55,273.23,390,279.63Z"/><path class="cls-3" d="M404.89,244.23c-.06,7.33-5.34,14.33-14.88,20.72-8.22,5.52-20.68,7.4-34.61,11.87-11.32,3.61-23.24,10-37.58,12.74-8.79,1.67-19.6.53-29.5,1.5,6.13,6.15,5,13.17,0,20.66,9.9-1,20.71.17,29.5-1.5,14.34-2.72,26.26-9.12,37.58-12.74,13.93-4.46,26.39-6.35,34.61-11.86,9.54-6.4,14.82-13.39,14.88-20.73h0V244.23Z"/><path class="cls-4" d="M404.9,229.65c0-33-90.64-59.75-202.45-59.75S0,196.65,0,229.65c0,4.33,1.6,8.56,4.58,12.64C5.67,260.37,25.65,265.14,44,267a9.45,9.45,0,0,0,1.76,2.3A19,19,0,0,0,58,274.24a16.33,16.33,0,0,1,9.38,2.58c8.52,6,20.41,9,30.06,11.15,10.58,2.32,21.77-.08,32.49-2.52a13.4,13.4,0,0,0,6.37,5.05c12.49,5,25.71,4.21,38-.68l15.5,1.63.1.05a32.74,32.74,0,0,0,25.89,1.68,27.24,27.24,0,0,1,13.12-1.62,92.34,92.34,0,0,0,24.65.32,48.1,48.1,0,0,1,17.53.89,31.34,31.34,0,0,0,15.18-.22,18.89,18.89,0,0,0,9.18-5.8c14.9,3,32.21.52,40.74-12.25,0,0,0,0,.07-.05,8.75-1.61,17.58,1.37,26.45-.37,8-1.57,14.86-6,18.83-13.17.19-.35.3-.7.45-1.05a18.15,18.15,0,0,0,11.35-4.07c4.6-3.64,8.45-9.16,8.09-15.11A20.49,20.49,0,0,0,404.9,229.65Z"/><path class="cls-5" d="M292.81,176.17c3.87,43.2,18.65,102.08,0,112.85a22.59,22.59,0,0,0,2.61-2.27c14.9,3,32.21.52,40.74-12.25,0,0,0,0,.07-.05,8.75-1.61,17.58,1.37,26.45-.37,8-1.57,14.86-6,18.83-13.17.19-.35.3-.7.45-1.05a18.15,18.15,0,0,0,11.35-4.07c4.6-3.64,8.45-9.16,8.09-15.11a20.49,20.49,0,0,0,3.5-11C404.9,206.24,359.25,186,292.81,176.17Z"/><path class="cls-1" d="M404.9,209.28c0,33-90.64,59.76-202.45,59.76S0,242.29,0,209.28s90.64-59.75,202.45-59.75S404.9,176.29,404.9,209.28Z"/><path class="cls-2" d="M390,225.42c-8.22,5.52-20.68,7.4-34.61,11.86-11.32,3.62-23.24,10-37.58,12.74-9.32,1.78-20.93.31-31.3,1.64-13.35,1.7-25.76,6.06-40.5,6.93-14,.85-28.4-2.14-43.36-2.14-15.58,0-30.94,2.95-45.51,2-16.78-1.05-33.63-5.93-48.53-8-21-3-39-3.67-54.94-8.38C38,237.45,30.59,230.19,20.57,225.9,8,220.51.07,212.32,0,204.69H0v20.67H0c.06,7.62,8,15.81,20.56,21.2,10,4.3,17.44,11.55,33.11,16.19,15.92,4.7,33.92,5.4,54.94,8.37,14.9,2.11,31.75,7,48.53,8,14.57.92,29.93-2,45.51-2,15,0,29.32,3,43.36,2.15,14.74-.88,27.15-5.23,40.5-6.94,10.37-1.33,22,.14,31.3-1.63,14.34-2.72,26.26-9.13,37.58-12.74,13.93-4.47,26.39-6.35,34.61-11.86,9.54-6.4,14.82-13.4,14.88-20.73h0V204.69h0C404.83,212,399.55,219,390,225.42Z"/><path class="cls-3" d="M404.89,204.69C404.83,212,399.55,219,390,225.42c-8.22,5.52-20.68,7.4-34.61,11.86-11.32,3.62-23.24,10-37.58,12.74-9.32,1.78-20.93.31-31.3,1.64-13.35,1.7-25.76,6.06-40.5,6.93-14,.85-28.4-2.14-43.36-2.14-15.58,0-30.94,2.95-45.51,2-16.78-1.05-33.63-5.93-48.53-8-21-3-39-3.67-54.94-8.38C38,237.45,30.59,230.19,20.57,225.9,8,220.51.07,212.32,0,204.69H0v6.74H0c.06,7.62,8,15.82,20.56,21.21,10,4.29,17.44,11.54,33.11,16.18,15.92,4.71,33.92,5.4,54.94,8.38,14.9,2.1,31.75,7,48.53,8,14.57.91,29.93-2,45.51-2,15,0,29.32,3,43.36,2.14,14.74-.87,27.15-5.23,40.5-6.93,10.37-1.34,22,.14,31.3-1.64,14.34-2.71,26.26-9.12,37.58-12.74,13.93-4.46,26.39-6.34,34.61-11.86,9.54-6.39,14.82-13.39,14.88-20.73h0v-6.74Z"/><path class="cls-3" d="M390,240.1c-8.22,5.52-20.68,7.4-34.61,11.85-11.32,3.63-23.24,10-37.58,12.75-9.32,1.77-20.93.3-31.3,1.63-13.35,1.71-25.76,6.06-40.5,6.94-14,.84-28.4-2.15-43.36-2.15-15.58,0-30.94,3-45.51,2.05-16.78-1.05-33.63-5.93-48.53-8-21-3-39-3.68-54.94-8.39C38,252.12,30.59,244.87,20.57,240.58,8,235.19.07,227,0,219.36H0v6H0c.06,7.62,8,15.81,20.56,21.2,10,4.3,17.44,11.55,33.11,16.19,15.92,4.7,33.92,5.4,54.94,8.37,14.9,2.11,31.75,7,48.53,8,14.57.92,29.93-2,45.51-2,15,0,29.32,3,43.36,2.15,14.74-.88,27.15-5.23,40.5-6.94,10.37-1.33,22,.14,31.3-1.63,14.34-2.72,26.26-9.13,37.58-12.74,13.93-4.47,26.39-6.35,34.61-11.86,9.54-6.4,14.82-13.4,14.88-20.73h0v-6h0C404.83,226.7,399.55,233.7,390,240.1Z"/><path class="cls-3" d="M404.89,204.69C404.83,212,399.55,219,390,225.42c-8.22,5.52-20.68,7.4-34.61,11.86-11.32,3.62-23.24,10-37.58,12.74-8.79,1.67-19.6.54-29.5,1.51,6.13,6.15,5,13.17,0,20.66,9.9-1,20.71.17,29.5-1.5,14.34-2.72,26.26-9.13,37.58-12.74,13.93-4.47,26.39-6.35,34.61-11.86,9.54-6.4,14.82-13.4,14.88-20.73h0V204.69Z"/><path class="cls-4" d="M202.45,130.37C90.64,130.37,0,157.12,0,190.12c0,4.33,1.6,8.56,4.58,12.64.87,14.32,13.59,20.28,28,23.06a31.11,31.11,0,0,0,23.16,14.7A32.26,32.26,0,0,0,70,238.8c8.24,4.93,18.68,7.72,27.41,9.64,6.65,1.45,13.55,1,20.42-.07,10.3,8.86,27.87,10,41,9.79A82.19,82.19,0,0,0,188,251.73l1.78.19.09.05a32.69,32.69,0,0,0,25.89,1.67A27.36,27.36,0,0,1,228.88,252a92.76,92.76,0,0,0,24.65.32,49.06,49.06,0,0,1,14.37.28c8.92,5,17.61,5.2,28.2,2.92,7.11-1.53,14.75-2.92,19.54-8.07,8.26-1.56,15.77-5.4,20.52-12.51l.07-.05c8.75-1.61,17.58,1.37,26.45-.37a30.64,30.64,0,0,0,7-2.37c5,1.7,10.18,2,15.14-.38,9-4.39,13.68-14.46,15.3-24.28a14.31,14.31,0,0,0,1.31-6.37,20.49,20.49,0,0,0,3.5-11C404.9,157.12,314.26,130.37,202.45,130.37Z"/><path class="cls-5" d="M292.81,136.64c2.71,46,11.15,105.09,0,119.53,1.08-.18,2.17-.38,3.29-.62,7.11-1.53,14.75-2.92,19.54-8.07,8.26-1.56,15.77-5.4,20.52-12.51l.07-.05c8.75-1.61,17.58,1.37,26.45-.37a30.64,30.64,0,0,0,7-2.37c5,1.7,10.18,2,15.14-.38,9-4.39,13.68-14.46,15.3-24.28a14.31,14.31,0,0,0,1.31-6.37,20.49,20.49,0,0,0,3.5-11C404.9,166.71,359.25,146.45,292.81,136.64Z"/><path class="cls-1" d="M404.9,171c0,33-90.64,59.76-202.45,59.76S0,204,0,171,90.64,111.2,202.45,111.2,404.9,138,404.9,171Z"/><path class="cls-2" d="M390,187.09c-8.22,5.52-20.68,7.4-34.61,11.86-11.32,3.62-23.24,10-37.58,12.74-9.32,1.77-20.93.3-31.3,1.63-13.35,1.71-25.76,6.06-40.5,6.94-14,.84-28.4-2.15-43.36-2.15-15.58,0-30.94,3-45.51,2-16.78-1-33.63-5.93-48.53-8-21-3-39-3.67-54.94-8.38C38,199.11,30.59,191.86,20.57,187.57,8,182.18.07,174,0,166.36H0V187H0c.06,7.62,8,15.81,20.56,21.2,10,4.3,17.44,11.55,33.11,16.18,15.92,4.71,33.92,5.41,54.94,8.38,14.9,2.11,31.75,7,48.53,8,14.57.91,29.93-2,45.51-2,15,0,29.32,3,43.36,2.15,14.74-.89,27.15-5.23,40.5-7,10.37-1.32,22,.14,31.3-1.62,14.34-2.73,26.26-9.13,37.58-12.75,13.93-4.46,26.39-6.34,34.61-11.86,9.54-6.4,14.82-13.4,14.88-20.72h0V166.36h0C404.83,173.69,399.55,180.69,390,187.09Z"/><path class="cls-3" d="M404.89,166.35c-.06,7.34-5.34,14.34-14.88,20.74-8.22,5.52-20.68,7.4-34.61,11.86-11.32,3.62-23.24,10-37.58,12.74-9.32,1.77-20.93.3-31.3,1.63-13.35,1.71-25.76,6.06-40.5,6.94-14,.84-28.4-2.15-43.36-2.15-15.58,0-30.94,3-45.51,2-16.78-1-33.63-5.93-48.53-8-21-3-39-3.67-54.94-8.38C38,199.11,30.59,191.86,20.57,187.57,8,182.18.07,174,0,166.35H0v6.29H0c.06,7.63,8,15.82,20.56,21.22C30.59,198.14,38,205.4,53.68,210c15.92,4.71,33.92,5.4,54.94,8.38,14.9,2.1,31.75,7,48.53,8,14.57.91,29.93-2,45.51-2,15,0,29.32,3,43.36,2.15,14.74-.88,27.15-5.23,40.5-6.94,10.37-1.33,22,.14,31.3-1.63,14.34-2.72,26.26-9.12,37.58-12.75,13.93-4.45,26.39-6.33,34.61-11.85,9.54-6.4,14.82-13.4,14.88-20.74h0v-6.29Z"/><path class="cls-3" d="M390,201.77c-8.22,5.51-20.68,7.39-34.61,11.85-11.32,3.62-23.24,10-37.58,12.75-9.32,1.77-20.93.3-31.3,1.63-13.35,1.7-25.76,6.05-40.5,6.94-14,.84-28.4-2.15-43.36-2.15-15.58,0-30.94,3-45.51,2-16.78-1.05-33.63-5.92-48.53-8-21-3-39-3.67-54.94-8.38C38,213.78,30.59,206.53,20.57,202.24,8,196.85.07,188.65,0,181H0v6H0c.06,7.63,8,15.82,20.56,21.21,10,4.29,17.44,11.55,33.11,16.18,15.92,4.71,33.92,5.41,54.94,8.38,14.9,2.11,31.75,7,48.53,8,14.57.91,29.93-2,45.51-2,15,0,29.32,3,43.36,2.15,14.74-.89,27.15-5.23,40.5-7,10.37-1.32,22,.14,31.3-1.62,14.34-2.73,26.26-9.13,37.58-12.75,13.93-4.46,26.39-6.34,34.61-11.86,9.54-6.4,14.82-13.4,14.88-20.73h0v-6h0C404.83,188.37,399.55,195.37,390,201.77Z"/><path class="cls-3" d="M404.89,166.36c-.06,7.33-5.34,14.33-14.88,20.73-8.22,5.52-20.68,7.4-34.61,11.86-11.32,3.62-23.24,10-37.58,12.74-8.79,1.67-19.6.53-29.5,1.5,6.13,6.16,5,13.18,0,20.67,9.9-1,20.71.17,29.5-1.5,14.34-2.73,26.26-9.13,37.58-12.75,13.93-4.46,26.39-6.34,34.61-11.86,9.54-6.4,14.82-13.4,14.88-20.72h0V166.36Z"/><path class="cls-4" d="M404.9,151.78c0-33-90.64-59.75-202.45-59.75S0,118.79,0,151.78a21.33,21.33,0,0,0,4.58,12.64C5.67,182.5,25.65,187.27,44,189.13a9.08,9.08,0,0,0,1.76,2.3A19,19,0,0,0,58,196.38,16.24,16.24,0,0,1,67.39,199c8.52,6,20.41,9,30.06,11.15,10.58,2.32,21.77-.09,32.49-2.52a13.28,13.28,0,0,0,6.37,5c11.76,4.73,24.18,4.29,35.81.14l17.56.77.19.09a32.7,32.7,0,0,0,25.89,1.68,27.22,27.22,0,0,1,13.12-1.61,93.18,93.18,0,0,0,24.65.32,47.66,47.66,0,0,1,17.53.89,31.46,31.46,0,0,0,15.18-.23,18.79,18.79,0,0,0,3.9-1.56A27.82,27.82,0,0,1,304.57,210c12.33.49,24.77-3.14,31.59-13.35a.15.15,0,0,1,.07,0c8.75-1.61,17.58,1.37,26.45-.38,8-1.56,14.86-6,18.83-13.16.19-.35.3-.71.45-1.06a18,18,0,0,0,11.35-4.08c4.6-3.62,8.45-9.15,8.09-15.09A20.52,20.52,0,0,0,404.9,151.78Z"/><path class="cls-5" d="M292.81,98.31c1.65,44.6,6.55,102.27,0,113.61A28.6,28.6,0,0,1,304.57,210c12.33.49,24.77-3.14,31.59-13.35a.15.15,0,0,1,.07,0c8.75-1.61,17.58,1.37,26.45-.38,8-1.56,14.86-6,18.83-13.16.19-.35.3-.71.45-1.06a18,18,0,0,0,11.35-4.08c4.6-3.62,8.45-9.15,8.09-15.09a20.52,20.52,0,0,0,3.5-11C404.9,128.37,359.25,108.11,292.81,98.31Z"/><path class="cls-1" d="M404.9,125.43c0,33-90.64,59.75-202.45,59.75S0,158.43,0,125.43,90.64,65.68,202.45,65.68,404.9,92.43,404.9,125.43Z"/><path class="cls-2" d="M390,141.57c-8.22,5.51-20.68,7.4-34.61,11.86-11.32,3.61-23.24,10-37.58,12.74-9.32,1.77-20.93.3-31.3,1.63-13.35,1.71-25.76,6.06-40.5,6.94-14,.84-28.4-2.14-43.36-2.14-15.58,0-30.94,2.94-45.51,2-16.78-1.06-33.63-5.93-48.53-8-21-3-39-3.66-54.94-8.37C38,153.59,30.59,146.34,20.57,142.05,8,136.66.07,128.46,0,120.84H0V141.5H0c.06,7.62,8,15.82,20.56,21.21,10,4.29,17.44,11.54,33.11,16.18,15.92,4.71,33.92,5.4,54.94,8.37,14.9,2.12,31.75,7,48.53,8,14.57.91,29.93-2,45.51-2,15,0,29.32,3,43.36,2.15,14.74-.89,27.15-5.24,40.5-6.95,10.37-1.32,22,.15,31.3-1.62,14.34-2.73,26.26-9.13,37.58-12.75,13.93-4.46,26.39-6.35,34.61-11.86,9.54-6.4,14.82-13.4,14.88-20.73h0V120.84h0C404.83,128.17,399.55,135.17,390,141.57Z"/><path class="cls-3" d="M404.89,120.84c-.06,7.33-5.34,14.33-14.88,20.73-8.22,5.51-20.68,7.4-34.61,11.86-11.32,3.61-23.24,10-37.58,12.74-9.32,1.77-20.93.3-31.3,1.63-13.35,1.71-25.76,6.06-40.5,6.94-14,.84-28.4-2.14-43.36-2.14-15.58,0-30.94,2.94-45.51,2-16.78-1.06-33.63-5.93-48.53-8-21-3-39-3.66-54.94-8.37C38,153.59,30.59,146.34,20.57,142.05,8,136.66.07,128.46,0,120.84H0v5.84H0c.06,7.62,8,15.82,20.56,21.21,10,4.29,17.44,11.54,33.11,16.18,15.92,4.71,33.92,5.39,54.94,8.37,14.9,2.11,31.75,7,48.53,8,14.57.9,29.93-2,45.51-2,15,0,29.32,3,43.36,2.15,14.74-.88,27.15-5.23,40.5-6.94,10.37-1.33,22,.14,31.3-1.63,14.34-2.72,26.26-9.13,37.58-12.74,13.93-4.46,26.39-6.35,34.61-11.86,9.54-6.4,14.82-13.4,14.88-20.73h0v-5.84Z"/><path class="cls-3" d="M390,156.84c-8.22,5.51-20.68,7.4-34.61,11.86-11.32,3.61-23.24,10-37.58,12.75-9.32,1.76-20.93.3-31.3,1.62-13.35,1.71-25.76,6.06-40.5,7-14,.84-28.4-2.15-43.36-2.15-15.58,0-30.94,2.95-45.51,2-16.78-1-33.63-5.92-48.53-8-21-3-39-3.66-54.94-8.37C38,168.86,30.59,161.61,20.57,157.32,8,151.93.07,143.73,0,136.11H0v5.39H0c.06,7.62,8,15.82,20.56,21.21,10,4.29,17.44,11.54,33.11,16.18,15.92,4.71,33.92,5.4,54.94,8.37,14.9,2.12,31.75,7,48.53,8,14.57.91,29.93-2,45.51-2,15,0,29.32,3,43.36,2.15,14.74-.89,27.15-5.24,40.5-6.95,10.37-1.32,22,.15,31.3-1.62,14.34-2.73,26.26-9.13,37.58-12.75,13.93-4.46,26.39-6.35,34.61-11.86,9.54-6.4,14.82-13.4,14.88-20.73h0v-5.39h0C404.83,143.44,399.55,150.44,390,156.84Z"/><path class="cls-3" d="M404.89,120.84c-.06,7.33-5.34,14.33-14.88,20.73-8.22,5.51-20.68,7.4-34.61,11.86-11.32,3.61-23.24,10-37.58,12.74-8.79,1.67-19.6.53-29.5,1.5,6.13,6.15,5,13.17,0,20.67,9.9-1,20.71.17,29.5-1.5,14.34-2.73,26.26-9.13,37.58-12.75,13.93-4.46,26.39-6.35,34.61-11.86,9.54-6.4,14.82-13.4,14.88-20.73h0V120.84Z"/><path class="cls-6" d="M397.56,94.13a31.53,31.53,0,0,0-5.1-12.75c-9.09-13.53-42-23.26-43.22-23.24C324,43.26,295.19,37.29,265.15,40.37c-16.23-1.81-33.4-2.93-51.25-3.27-32.94-6.64-65.8-10.37-96.63,6.23q-13.56,2.16-25.87,5C62.74,48.68,32.79,52.24,18.9,79,11.19,85.91,7,93.36,7,101.14a24.65,24.65,0,0,0,4.42,13.58c.84,15.39,13.13,21.8,27,24.79C43.15,148,51,154,60.77,155.3a28.18,28.18,0,0,0,13.83-1.85c8,5.31,18,8.3,26.47,10.36,6.42,1.57,13.08,1.12,19.72-.07,9.94,9.53,26.9,10.76,39.56,10.52a72.67,72.67,0,0,0,28.14-6.91l1.72.2.09,0a28.69,28.69,0,0,0,25,1.8A23.87,23.87,0,0,1,228,167.67a80.41,80.41,0,0,0,23.81.34,42.2,42.2,0,0,1,13.87.31c8.62,5.41,18.27,8.13,28.5,5.68a33.1,33.1,0,0,0,17.6-11.23c8-1.67,15.22-5.79,19.81-13.44l.07-.05c8.45-1.72,17,1.47,25.53-.4a27.06,27.06,0,0,0,6.73-2.54c4.81,1.82,9.84,2.19,14.62-.4,5.42-2.94,9.19-8.23,11.66-14.35,3.54-1.24,11.36-4.22,13.5-14C406.88,102.8,400.85,97.25,397.56,94.13Z"/><path class="cls-4" d="M396.21,92.75c4.85,21.89-9.32,23.37-12.66,24.59-2.34,6-9.3,9.39-14.42,12.27-4.52,2.55-9.28,2.19-13.82.4a25.11,25.11,0,0,1-6.37,2.49c-8.1,1.84-16.16-1.3-24.15.39a.18.18,0,0,1-.07.05c-4.33,7.51-11.18,11.55-18.73,13.2a31.26,31.26,0,0,1-16.64,11c-9.68,2.4-18.8-.26-27-5.58a38.59,38.59,0,0,0-13.13-.3,73.21,73.21,0,0,1-22.52-.33,21.8,21.8,0,0,0-12,1.7,26.25,26.25,0,0,1-23.64-1.77.36.36,0,0,1-.09-.05l-1.63-.2a66.67,66.67,0,0,1-26.61,6.79c-12,.23-28-1-37.42-10.33-6.28,1.17-12.58,1.61-18.66.07-8-2-17.5-5-25-10.16a25.78,25.78,0,0,1-13.09,1.81c-9.22-1.24-16.66-7.13-21.15-15.49-13.12-2.94-27.46-7-28.26-22.14-11.25-6.81-4-18.87-.49-22C11.13,86,7,93.42,7,101.14a24.65,24.65,0,0,0,4.42,13.58c.84,15.39,13.13,21.8,27,24.79C43.15,148,51,154,60.77,155.3a28.18,28.18,0,0,0,13.83-1.85c8,5.31,18,8.3,26.47,10.36,6.42,1.57,13.08,1.12,19.72-.07,9.94,9.53,26.9,10.76,39.56,10.52a72.67,72.67,0,0,0,28.14-6.91l1.72.2.09,0a28.69,28.69,0,0,0,25,1.8A23.87,23.87,0,0,1,228,167.67a80.41,80.41,0,0,0,23.81.34,42.2,42.2,0,0,1,13.87.31c8.62,5.41,18.27,8.13,28.5,5.68a33.1,33.1,0,0,0,17.6-11.23c8-1.67,15.22-5.79,19.81-13.44l.07-.05c8.45-1.72,17,1.47,25.53-.4a27.06,27.06,0,0,0,6.73-2.54c4.81,1.82,9.84,2.19,14.62-.4,5.42-2.94,9.19-8.23,11.66-14.35,3.54-1.24,11.36-4.22,13.5-14C407.41,100.4,398.62,95.66,396.21,92.75Z"/><path class="cls-5" d="M396.21,92.75c4.85,21.89-9.32,23.37-12.66,24.59-2.34,6-9.3,9.39-14.42,12.27-4.52,2.55-9.28,2.19-13.82.4a25.11,25.11,0,0,1-6.37,2.49c-8.1,1.84-16.16-1.3-24.15.39a.18.18,0,0,1-.07.05c-4.33,7.51-11.18,11.55-18.73,13.2A32,32,0,0,1,292.81,156c5.19,6.79,6.78,13.09,0,18.29.44-.09.88-.13,1.33-.24a33.1,33.1,0,0,0,17.6-11.23c8-1.67,15.22-5.79,19.81-13.44l.07-.05c8.45-1.72,17,1.47,25.53-.4a27.06,27.06,0,0,0,6.73-2.54c4.81,1.82,9.84,2.19,14.62-.4,5.42-2.94,9.19-8.23,11.66-14.35,3.54-1.24,11.36-4.22,13.5-14C407.41,100.4,398.62,95.66,396.21,92.75Z"/><path class="cls-7" d="M252.42,68.56c-9.79-8-21.71-6.94-33.58-9.93-12.31-3.1-23.72-9-36.64-9.55-16.58-.67-41.34,7.05-42.89,26.52-.3,3.74,2,6,5.57,6.42,8.6,1.14,16.18-3,24.72-3.38,11.14-.52,20.53,4.43,30.84,7.65,17.76,5.55,36.82,8.77,52-3.8A8.75,8.75,0,0,0,252.42,68.56Z"/><path class="cls-7" d="M342.5,70.49a64,64,0,0,0-15.79-11.74c-12.38-6.29-27-7.12-39.59-.6-5,2.6-7.19,10.17-1.84,13.65,6.87,4.46,13.83,8.82,20.27,14,8.37,6.76,10.82,18.68,22,21.38,8.23,2,19.27-2.87,21.73-11.56C352.25,85.23,350.12,78,342.5,70.49Z"/><path class="cls-7" d="M125.45,110.54c-6-10.75-18.18-10.9-29-14.51-8.27-2.76-15.91-4.25-22.13-9.77,3.45-19-26.1-20.49-31.14-4.12-5.85,19,1.65,35.45,19.6,43.75a75.56,75.56,0,0,0,28,6.83c10.89.56,22.25,2.13,30.42-6.47C124.83,122.41,128.44,116,125.45,110.54Z"/><path class="cls-7" d="M237.38,111c-13.74-3.07-28.82-4.59-42.68-1.28-13.67,3.26-22.42,8.37-28.85,20.54-1.65,3.11.53,6.63,3.5,7.7,9.15,3.32,15.4,2.63,25.22,2.26,10.38-.39,19.94,0,30.07,2.65C243.93,147.86,258.49,115.66,237.38,111Z"/><path class="cls-7" d="M321.51,120.62c-3.74-5.93-9.88-6.94-16.39-6.12-3.45.45-6.34,2.27-9.41,3.76L294,119c-.85.22-2.63.74-2.56.71-4.73,1.53-10.85,3.81-14.53,7.76a11.54,11.54,0,0,0-4.17,6.4c-1,4.26.15,8.83,4.07,11.28-1.34-.22-1.18.13.48,1.08a8.83,8.83,0,0,0,4.44,2.47c.91.38,1.82.82,2.76,1.11,4.5,1.44,8.77,1.13,13.37.46a45.17,45.17,0,0,0,7.79-1.81c6.53-2.16,10.15-4.64,14.79-9.89C324.6,133.83,324.7,125.64,321.51,120.62Z"/><path class="cls-1" d="M172.59,40a33.33,33.33,0,0,0-21.46,2.47,7,7,0,0,0,.61-2.76c0-4.22-3.31-6.79-7.19-7.19a29.4,29.4,0,0,0-17.09,3.66c-8.13,4.41-.88,16.82,7.26,12.41a16,16,0,0,1,9.67-1.7,29,29,0,0,0-2.25,2.06c-9.6,10,5.63,25.3,15.24,15.24a20.53,20.53,0,0,1,1.49-1.46l.76-.5a20.92,20.92,0,0,1,2-1.09c-.62.29-.59.31.11.06.41-.13,2.82-.48,2.6-.54.62,0,1.25,0,1.88,0l.6.12c5.69,1.2,11.65-1.67,13.27-7.53C181.59,47.86,178.32,41.15,172.59,40Z"/><path class="cls-1" d="M304.18,70c-2-5.45-7.31-9.17-13.26-7.52-5.26,1.44-9.56,7.77-7.53,13.26.23.63.43,1.27.63,1.92-.4-1.28-.28-.34,0,.15a1,1,0,0,1,.11.41,15.82,15.82,0,0,1-.56,2.23v0a1.07,1.07,0,0,0-.15.19l-.57.94c.33-.59-.56.34-.42.37-.47.3-1.23.78-1.21.78-5.1,2.81-6.76,9.8-3.87,14.74a11,11,0,0,0,14.75,3.87C302.78,95.4,308.47,81.59,304.18,70Z"/><path class="cls-1" d="M229.87,79.51c-.8,0-1.6.07-2.4.07l-.93,0-.36-.07a11.43,11.43,0,0,1-3.57-1.25,11,11,0,0,0-14.75,3.87c-2.85,4.88-1.29,12,3.87,14.75a34.28,34.28,0,0,0,18.14,4.25c5.62-.33,11-4.73,10.78-10.79C240.39,84.74,235.89,79.16,229.87,79.51Z"/><path class="cls-1" d="M326.81,53.17c-5.21-2.58-11.66-1.4-14.74,3.87-2.79,4.76-1.38,12.16,3.86,14.75.57.28,2.74.92,1.19.52.84.93.95,1,.32.09a9.55,9.55,0,0,1,.8,1.29l.07.1c.09.28.17.57.24.86a14.64,14.64,0,0,1-.09,1.87c-.53,5.63,5.32,11,10.78,10.78,6.27-.28,10.22-4.75,10.78-10.78C340.88,67.12,335.24,57.34,326.81,53.17Z"/><path class="cls-1" d="M387.14,81.25c-4.55,0-6.84,3.48-6.92,7-1.46-4.26-5.5-7.9-10.16-7.51a69.64,69.64,0,0,0-7.57,1.06c2.35-1.22,4.19-3.56,4-6.26-.69-8-5.1-13.7-12.47-16.72-3.6-1.47-7.9,1.59-8.85,5-1.13,4.12,1.42,7.36,5,8.85a4,4,0,0,1,1.93,2.85c.32,3.75,2.92,6.92,6.85,7.12a59.34,59.34,0,0,0-15,6c-12,6.9-1.19,25.54,10.89,18.62a36.63,36.63,0,0,1,15.24-5c5.8-.48,10.78-4.61,10.78-10.78,0,0,0-.08,0-.12a6.47,6.47,0,0,0,6.31,4.2C396.39,95.62,396.41,81.25,387.14,81.25Z"/><path class="cls-1" d="M321.53,116.51l1.29-1.07c2.91-2.5,3.64-6.62,2.71-10.26-.69-4.72-4.11-9-10.26-9A9.73,9.73,0,0,0,306,101.9a24.82,24.82,0,0,0-6.87,18.57c.42,5.62,4.66,11.06,10.78,10.78,5.49-.24,11.24-4.75,10.78-10.78,0-.18,0-1.38,0-1.87.11-.34.29-1,.39-1.43A4.49,4.49,0,0,1,321.53,116.51Z"/><path class="cls-1" d="M274.07,123.76a59.71,59.71,0,0,1-17-5.68A11,11,0,0,0,242.31,122c-2.84,4.85-1.31,12,3.87,14.75a78.85,78.85,0,0,0,22.16,7.85C274.06,145.61,280,143,281.6,137,283,131.78,279.83,124.83,274.07,123.76Z"/><path class="cls-1" d="M272.14,45.91a9.85,9.85,0,0,0-10,7.61,14.27,14.27,0,0,0-3.13,4.8c-.59,1.5-1.19,3-1.79,4.49-2.1,5.25,2.29,12.07,7.53,13.26,6.23,1.42,11-1.91,13.27-7.53.56-1.42,1.12-2.83,1.69-4.24C285.2,58.31,282.68,45.91,272.14,45.91Z"/><path class="cls-1" d="M223.27,119a11,11,0,0,0-14.75-3.86c-3.79,2-7.37,2-11.75.5a9.77,9.77,0,0,0-8.14,1l4.45-2.65c7.94-4.73.71-17.16-7.26-12.41q-4.5,2.69-9,5.36c-7.93,4.73-.71,17.16,7.26,12.42l4.55-2.71a11.24,11.24,0,0,0-5.12,6.48c-1.62,5.93,2,11.35,7.54,13.26a35.42,35.42,0,0,0,28.36-2.68C224.54,131,226.13,123.92,223.27,119Z"/><path class="cls-1" d="M173.35,131.86a71.63,71.63,0,0,0-18.79-7.13c-5.5-1.2-11.93,1.64-13.27,7.53-1.24,5.44,1.64,12,7.53,13.27a47.15,47.15,0,0,1,13.64,4.95,11,11,0,0,0,14.75-3.87C180.09,141.69,178.48,134.66,173.35,131.86Z"/><path class="cls-1" d="M115.47,108.15c3.46-4.69.79-12-3.86-14.75-5.48-3.2-11.29-.84-14.75,3.86-5.27,7.16-5,16.53-1.23,24.21,2.54,5.25,10,6.65,14.75,3.88,5.35-3.13,6.42-9.5,3.86-14.76l.05.09a.41.41,0,0,0,0,.1c.07.35.1.3.11.12.27.51.14.06,0-.25s0-.79,0-1.12a2.19,2.19,0,0,1,.18-.33C114.91,108.81,115.4,108.26,115.47,108.15Z"/><path class="cls-1" d="M119,55.7c-1.45-5.29-7.76-9.51-13.26-7.53a33.08,33.08,0,0,0-13.85,8.91c-3.88,4.34-4.28,11,0,15.25,3.95,4,11.35,4.36,15.25,0,.33-.37,3-2.78,1.93-2A20.48,20.48,0,0,1,111,69.18c1.17-.59,1.33-.66.49-.22C117,67,120.67,61.63,119,55.7Z"/><path class="cls-1" d="M74,54.45a11,11,0,0,0-15.26,0L57,56.25a10.76,10.76,0,0,0-3,8C50.24,70.6,53.16,81,62.8,81,69.58,81,73,75.8,73.18,70.54l.84-.83A11,11,0,0,0,74,54.45Z"/><path class="cls-1" d="M41.67,76.92l-3.6-3.61c.63-5.8-2.78-12.12-10.31-12.12-9.82,0-12.67,10.76-8.59,17.08a10.71,10.71,0,0,0,2.76,9.41q2.25,2.23,4.49,4.49A10.78,10.78,0,0,0,41.67,76.92Z"/><path class="cls-1" d="M61.9,109.7c0-5.58-4.94-11.12-10.78-10.78A147.58,147.58,0,0,0,28.48,102c-5.69,1.23-9,7.87-7.53,13.26,1.62,5.88,7.55,8.76,13.27,7.53,1.64-.35,3.28-.59,4.93-.87A9.92,9.92,0,0,0,46.63,125,9.76,9.76,0,0,0,56,119.14,10.56,10.56,0,0,0,61.9,109.7Z"/><path class="cls-1" d="M97.38,128.13a55.89,55.89,0,0,1-9-10.46c-3.2-4.87-9.54-6.92-14.76-3.88-4.83,2.83-7.08,9.87-3.87,14.76a81,81,0,0,0,12.37,14.82,11,11,0,0,0,15.25,0C101.39,139.36,101.66,132.11,97.38,128.13Z"/><path class="cls-1" d="M139.67,143.63a10.93,10.93,0,0,0-13.27-7.54L115,139.36h-.13c-13.87,0-13.9,21.56,0,21.56.35,0,.65-.07,1-.09a10.48,10.48,0,0,0,3.68-.32l12.57-3.61A11,11,0,0,0,139.67,143.63Z"/><path class="cls-1" d="M160.73,87.26a33.51,33.51,0,0,0-13.16,1.38A10.29,10.29,0,0,0,150.84,81a11,11,0,0,0-10.78-10.78,30.61,30.61,0,0,0-14.43,3.23c-.1,0-.17.12-.26.17-9.78,3.66-8.51,20.85,3.92,20.85a10.14,10.14,0,0,0,6.45-2.11c.26-.1.52-.16.77-.28-.94.43.58,0,1.36-.28.27.06,2.08,0,2.19,0h.11c-.35.19-.73.33-1.08.54A10.79,10.79,0,1,0,150,110.89c3.62-2.17,6.16-2.56,10.75-2.06,5.62.61,11-5.4,10.78-10.79C171.22,91.68,166.76,87.92,160.73,87.26Z"/><path class="cls-1" d="M86.32,87.65l-9-3.73a10.2,10.2,0,0,0-6.43-2.07c-12.72,0-13.77,18.07-3.16,21.09a16.49,16.49,0,0,0,2.06,1l10.8,4.47c5.22,2.17,12.07-2.33,13.26-7.53C95.28,94.63,91.91,90,86.32,87.65Z"/><path class="cls-1" d="M191.73,70.92c-2.09-5.43-7.25-9.19-13.26-7.53-5.19,1.42-9.64,7.8-7.53,13.26a45.78,45.78,0,0,1,2.49,8.78c.65,5.58,4.49,11.06,10.78,10.78,5.28-.24,11.48-4.79,10.78-10.78A58.58,58.58,0,0,0,191.73,70.92Z"/><path class="cls-1" d="M256,39.7c-.9-.6-1.8-1.19-2.7-1.8a6.06,6.06,0,0,0-7.38.09c-6.3.85-7.47,8.88-3.48,12.46a7.7,7.7,0,0,0-2.67-.22c-6,.64-9.6-.18-14.49-3.48-3.3-2.23-7.64-1.81-11,.18a11.41,11.41,0,0,0,.81-7.6c-1.68-6.11-7.5-8.48-13.26-7.53a27.67,27.67,0,0,0-9.34,3.56c-11.48,2.29-10.73,21.33,2.34,21.33H195a8.9,8.9,0,0,0,6.19-1.47,11.38,11.38,0,0,1,6.41-2.62,7.78,7.78,0,0,0,2.42-.87c-2.24,5-.14,10.6,4.37,13.64a38.68,38.68,0,0,0,25.37,6.43c5.79-.62,10.78-4.51,10.78-10.78a11.78,11.78,0,0,0-4.83-9.07,7.14,7.14,0,0,0,1.27.26,7.35,7.35,0,0,0,1.44-.29l.32.21C256.46,57.26,263.67,44.82,256,39.7Z"/><path class="cls-1" d="M233.51,137.56a9.79,9.79,0,0,0-8.08,3.75,10.3,10.3,0,0,0-6.3-2c-13.88,0-13.9,21.56,0,21.56a9.81,9.81,0,0,0,8.08-3.76,10.22,10.22,0,0,0,6.3,2C247.38,159.12,247.4,137.56,233.51,137.56Z"/><path class="cls-1" d="M193.45,147.94l-.12,0,.1,0Z"/><path class="cls-1" d="M208,155.33a11,11,0,0,0-13.27-7.53c-.32.09-.64.16-1,.24l.24.09a2.5,2.5,0,0,1-.25-.09l-.14,0,.13,0-.27-.1c-.11,0-.19,0-.1,0-5.2-2-11.05-1.16-14.12,4.09-2.65,4.54-1.51,12.45,3.87,14.75,5.8,2.48,11.13,3.35,17.35,1.85C206.09,167.23,209.47,160.82,208,155.33Z"/><path class="cls-1" d="M193.55,147.89c0,.05-.07,0-.1.05l.26.09C194.2,147.92,194.22,147.87,193.55,147.89Z"/><path class="cls-1" d="M193.71,148h0Z"/><path class="cls-1" d="M305.38,135.76a10,10,0,0,0-6.89,2.5l-9.43,1.6c-5.75,1-9,8.06-7.53,13.26,1.67,6.08,7.5,8.5,13.26,7.53l10.78-1.82a8.4,8.4,0,0,0,4.64-2.6C319,151.88,317.4,135.76,305.38,135.76Z"/><path class="cls-1" d="M362.47,113a10.91,10.91,0,0,0-1.09-.8l-.07,0s0,0-.06,0a10.35,10.35,0,0,0-5.55-1.52,9.9,9.9,0,0,0-8,3.57c-.06.07-.1.17-.16.24a9.81,9.81,0,0,0-1,1.6h0a25.45,25.45,0,0,1-1.45,2.73c.91-1.51-.7.74-.92,1a1.91,1.91,0,0,0-.42.55,3.34,3.34,0,0,0-.65.27c-.21.12-.43.21-.64.32,1.8-4.25-.24-10.27-6.25-10.27a6.55,6.55,0,0,0-4.11,1.43c-8,1.2-7.73,14.14,1.12,14.14h.59a7.22,7.22,0,0,0,2.68-.54,11.83,11.83,0,0,0,0,11.05c3.24,5.54,9.36,6.15,14.74,3.87a27.84,27.84,0,0,0,13.94-13.66C367.41,122,366.76,116.32,362.47,113Z"/><path class="cls-1" d="M391.29,110.35c.3-3.8-1.93-7.83-6.84-7.83s-7.12,4-6.85,7.76c-1.83,3.72-3.64,7.44-5.46,11.16-1.71,3.48-.95,7.77,2.57,9.83,3.17,1.85,8.12.92,9.84-2.58l6.18-12.63A8.19,8.19,0,0,0,391.29,110.35Z"/><path class="cls-1" d="M268.13,100.19c-.94-3.42-5.22-6.46-8.85-5l-9.76,3.89a2,2,0,0,1-.2.11c-7.87,1.34-7.53,14.13,1.26,14.13.1,0,.17-.06.28-.07a5,5,0,0,0,2.48-.31L263.1,109C266.71,107.6,269.24,104.23,268.13,100.19Z"/><path class="cls-1" d="M245.19,80.05v.6c0,9.25,14.37,9.27,14.37,0v-.6C259.56,70.8,245.19,70.79,245.19,80.05Z"/><path class="cls-1" d="M301.49,39.32h-.6c-9.25,0-9.26,14.38,0,14.38h.6C310.74,53.7,310.75,39.32,301.49,39.32Z"/><path class="cls-1" d="M288.32,110h-.61c-9.25,0-9.26,14.37,0,14.37h.61C297.56,124.37,297.58,110,288.32,110Z"/><path class="cls-1" d="M262,147.73c-9.25,0-9.27,14.38,0,14.38S271.22,147.73,262,147.73Z"/><path class="cls-1" d="M138.26,113.9l-.6-.6c-.16-.17-.35-.2-.52-.34a6,6,0,0,0-1.82-1.21,6.06,6.06,0,0,0-2.15-.43,5.6,5.6,0,0,0-.59-.12l-.11,0c-.16,0-.32.08-.49.1a6.46,6.46,0,0,0-5.77,4.17c0,.08-.09.15-.13.24a.64.64,0,0,0,0,.07,6.48,6.48,0,0,0,1.11,7.18c.1.13.16.28.26.4s0,.06.07.09l.59.59C134.64,130.61,144.81,120.46,138.26,113.9Z"/><path class="cls-1" d="M84.06,69.27a6.49,6.49,0,0,0-5.35,2.51c-4,3.87-2.44,12.46,4.76,12.46h.59c4.75,0,7-3.79,6.89-7.49C91.09,73.06,88.82,69.27,84.06,69.27Z"/><path class="cls-1" d="M14,90.83h-.59c-9.26,0-9.27,14.38,0,14.38H14C23.23,105.21,23.25,90.83,14,90.83Z"/><path class="cls-1" d="M58.31,125.57H57.7c-9.25,0-9.26,14.38,0,14.38h.61C67.55,140,67.57,125.57,58.31,125.57Z"/><path class="cls-1" d="M156.54,148.93c-9.26,0-9.27,14.38,0,14.38S165.8,148.93,156.54,148.93Z"/><path class="cls-8" d="M315.91,55c-9.82,25.41-41.09,37-41.09,37s-15.33-29.62-5.51-55S310.4,0,310.4,0,325.73,29.61,315.91,55Z"/><path class="cls-9" d="M310.4,0s-31.26,11.59-41.09,37,5.51,55,5.51,55Z"/><path class="cls-8" d="M311.87,118.79c-22.42-3.2-37.66-26.33-37.66-26.33s21.1-18,43.51-14.78S355.4,104,355.4,104,334.29,122,311.87,118.79Z"/><path class="cls-9" d="M355.4,104s-15.26-23.14-37.68-26.33-43.51,14.78-43.51,14.78Z"/><path class="cls-9" d="M230.36,83c17.54,14.31,44.89,9.82,44.89,9.82s-1.11-27.69-18.66-42S211.69,41,211.69,41,212.8,68.73,230.36,83Z"/><path class="cls-8" d="M211.69,41s27.35-4.49,44.9,9.82,18.66,42,18.66,42Z"/></g></g></svg>