<svg xmlns="http://www.w3.org/2000/svg" viewBox="0 0 203.28 215.37"><defs><style>.cls-1{fill:#c78e48;}.cls-2{fill:#ba823b;}.cls-3{fill:#dba866;}.cls-4{fill:#e8d3b3;}.cls-5{fill:#faeed2;}.cls-6{fill:#c48660;opacity:0.9;}.cls-7{fill:#d0204a;}.cls-8{fill:#e8244f;}.cls-9{fill:#ff2b58;}.cls-10{fill:#ff4d76;}.cls-11{fill:#89ba01;}.cls-12{fill:#7ba801;}</style></defs><g id="Layer_2" data-name="Layer 2"><g id="Layer_1-2" data-name="Layer 1"><path class="cls-1" d="M195.86,163.25H1.94L21.26,200.2c4.6,8.54,37.6,15.17,77.64,15.17s73.21-6.66,77.67-15.24Z"/><path class="cls-2" d="M191.53,163.25H6.27c-1.29.55-2.49,1.05-3.5,1.58.87,1.67,2.38,4.57,4.16,8,1.05.45,2.13.93,3.17,1.48,2.8,1.5,4.87,6.48,9.07,7.79,3.3,1,8-1.77,12-.89,3.49.76,6.53,5.27,10.52,5.91,3.59.57,7.89-2.75,11.83-2.28,3.65.42,7.06,4.66,11,5,3.7.3,7.76-3.31,11.65-3.1,3.72.2,7.38,4.22,11.25,4.32s7.61-3.73,11.47-3.73,7.73,3.82,11.48,3.73,7.53-4.12,11.26-4.32c3.89-.21,8,3.4,11.65,3.1,3.91-.33,7.31-4.57,11-5,3.94-.47,8.24,2.85,11.83,2.28,4-.64,7-5.15,10.49-5.91,4.05-.87,8.73,1.92,12,.89,4.22-1.3,6.29-6.28,9.09-7.78,1.05-.56,2.13-1,3.18-1.49,1.78-3.4,3.29-6.3,4.17-8C194,164.3,192.83,163.8,191.53,163.25Z"/><path class="cls-2" d="M31.62,177.3H23.06l14.38,31.49c2.89.8,6.09,1.55,9.57,2.23Z"/><path class="cls-2" d="M55.41,179.28H46.85l10.71,33.48c2.84.39,5.82.73,8.89,1Z"/><path class="cls-2" d="M79.2,181.27H70.64l5.62,33.35c2.82.19,5.7.35,8.64.46Z"/><path class="cls-2" d="M182.77,177.3l-12.78,28c3.33-1.61,5.64-3.34,6.58-5.16.11-.2,10.14-19.38,15.69-30Z"/><path class="cls-2" d="M174.69,177.3h-8.56L150.73,211c3.48-.69,6.69-1.44,9.57-2.24Z"/><path class="cls-2" d="M150.89,179.28h-8.55l-11,34.52c3.06-.31,6-.64,8.88-1Z"/><path class="cls-2" d="M103,215.32V183.25H94.44v32.07c1.48,0,3,.05,4.46.05S101.63,215.34,103,215.32Z"/><path class="cls-2" d="M127.1,181.27h-8.55l-5.7,33.82q4.41-.18,8.63-.47Z"/><path class="cls-3" d="M197.8,162.18c0,2.87-5.43,3.91-10.11,6.4-2.8,1.51-4.87,6.48-9.09,7.79-3.3,1-8-1.76-12-.89-3.49.76-6.51,5.27-10.49,5.91-3.59.56-7.89-2.75-11.83-2.29-3.65.43-7.05,4.67-11,5-3.69.31-7.76-3.31-11.65-3.1-3.73.2-7.39,4.23-11.26,4.33s-7.61-3.74-11.48-3.74-7.72,3.84-11.47,3.74S79.9,181.19,76.18,181c-3.89-.2-8,3.41-11.65,3.1-3.91-.32-7.32-4.56-11-5-3.94-.46-8.24,2.85-11.83,2.29-4-.64-7-5.16-10.52-5.91-4.05-.88-8.74,1.91-12,.88-4.2-1.3-6.27-6.28-9.07-7.78-4.67-2.5-10.1-3.53-10.1-6.4s5.43-3.91,10.11-6.41c2.81-1.5,2.17-5.44,6.38-6.75,3.3-1,10.7.73,14.74-.15,3.49-.75,6.52-5.26,10.49-5.9,3.59-.57,7.9,2.75,11.84,2.29,3.65-.43,7-4.67,11-5,3.69-.31,7.76,3.3,11.65,3.09,3.72-.19,7.38-4.22,11.26-4.32s7.61,3.73,11.47,3.73,7.72-3.83,11.47-3.73,7.53,4.13,11.26,4.32c3.89.21,8-3.4,11.64-3.09,3.92.32,7.32,4.56,11,5,3.93.46,8.24-2.86,11.83-2.29,4,.64,7,5.15,10.52,5.91,4.05.88,11.36-.25,14.66.78,4.2,1.3,3.64,4.62,6.44,6.11C192.38,158.28,197.8,159.3,197.8,162.18Z"/><path class="cls-4" d="M161.84,109.78c-.06.27-.13.56-.2.83h0c-2.39,9.52-11.33,9.17-19.13,12.12-1.06.4-2,.84-2.94,1.27A173.93,173.93,0,0,0,99,119.44c-42.24,0-76.47,13.27-76.47,29.64,0,12.51,20,23.18,48.25,27.54,0,.1.08.19.12.29,44.79,5.65,76.11,1.12,95-13.46.43-.31,8.25-6,9.47-15.91C179,117.66,162.12,110,161.84,109.78Z"/><path class="cls-5" d="M52.3,171.82C67.5,149.66,74.79,169,90.64,162c11.25-4.95,13-22.24,28.51-21.86,4.55.11,12.28,2.76,20.28-.63,10.46-4.44,9.17-12.39,12-16.06,3.2-4.15,10.92-3.33,12.41-13.09.56-3.66-1-7.74-1.58-10.8C160.12,89,144.7,81.16,142.69,80.18A21.35,21.35,0,0,1,140,90.61a14.78,14.78,0,0,1-1.53,2.12,15.92,15.92,0,0,1-8.81,5c-1.18.26-2.28.44-3.35.57-8.32-1.7-37.85-.09-62.47,24.19C40.28,126.19,33.44,145,28.66,159.82,35.12,166.79,43.3,170.16,52.3,171.82Z"/><path class="cls-4" d="M129.67,97.68c-1.17.26,2.84,23.49-26.9,19.67-8.54-1.1-3.9,19.15-28.64,15.19-25.64-4.11-22.61,7.65-26.9,14.58C39,160.43,29.16,158.85,29.16,158.85c-4.83,0-7.6-5.07-7.9-11,0-.48-.24-.9-.29-1.33-.55-4.83,7.57-14.77,7.57-14.77l0-.29C39,115.74,52,108.13,65.58,103.09c4.65-1.72,11.38,3.48,15.37-.22C85.16,99,86,87,108.08,85.52c5.72-.4,15.42-6.25,9.11-17.2-5.67-9.83,4.53-11-1.72-23.19-3.27-6.39.69-17.25-6-21.67l.15,0s11,4.93,14.39,11.37,2.65,14,5.68,18.94,10.61,9.47,12.12,17S144.83,94.28,129.67,97.68Z"/><path class="cls-5" d="M32,110.55a5.64,5.64,0,0,1,1.5-1.26,12.77,12.77,0,0,0,6.33-11.47,18.39,18.39,0,0,1,.06-3.17c.75-6.81,8-10,16.76-12.22S68.54,73.17,72,68.24s13.38-3.92,20.18-8.45c17.19-11.46,15.06-26.63,14.44-28.39-2.65-7.57,3-8,3-8l-.15,0c6.71,4.42,2.75,15.28,6,21.67,6.25,12.21-4,13.36,1.72,23.19,6.31,11-3.39,16.8-9.11,17.2C86,87,102.23,96.07,90.77,104.53c-4.64,3.43-21.32-1.23-24.28,3.11-5.46,8-12.45,12.64-17.36,14.13-8.76,2.65-14.06-.16-20.63,9.71,0-.23-.11-.65-.19-1.17C24.75,120.92,28.66,115.09,32,110.55Z"/><path class="cls-6" d="M52.29,90.56s4.28,8.08,20.44,15.21,69.87,7.6,78-11.41c4.09-9.6-1-16.63-9-15.68S52.29,90.56,52.29,90.56Z"/><path class="cls-7" d="M70.46,101.73a18.24,18.24,0,0,0,3.75-11.32c0-8.89-5.8-16.1-12.95-16.1a11.46,11.46,0,0,0-8.45,4,12.91,12.91,0,0,0,3.3,20.22C59.66,100.4,64.38,101.51,70.46,101.73Z"/><path class="cls-8" d="M73.3,102.67c8.27,2.52,17-3.42,17.12-12.06v-.2c0-8.89-5.79-16.1-12.94-16.1s-12.94,7.21-12.94,16.1a18.47,18.47,0,0,0,3,10.28C69.47,101.43,71.37,102.08,73.3,102.67Z"/><path class="cls-9" d="M74.5,91.09C73.91,89,72,87.73,70.25,88.23a4,4,0,1,0,4.25,2.86Z"/><path class="cls-7" d="M90.85,106.09c1.26.12,2.52.23,3.79.3,6.7-.6,12-7.49,12-16,0-8.89-5.79-16.1-12.94-16.1s-12.94,7.21-12.94,16.1C80.76,98.08,85.08,104.47,90.85,106.09Z"/><path class="cls-9" d="M91,91.41c-.59-2.08-2.49-3.36-4.25-2.87A3.65,3.65,0,0,0,84.6,93.2c.58,2.07,2.48,3.36,4.24,2.87A3.66,3.66,0,0,0,91,91.41Z"/><path class="cls-8" d="M149,94.42c6.05-5.36,5.26-15.58-2-19a10.53,10.53,0,0,0-4.61-1.06c-7.14,0-12.94,7.21-12.94,16.1a18.37,18.37,0,0,0,3.06,10.27C139.08,99.78,145,98,149,94.42Z"/><path class="cls-7" d="M130.18,101.64a60.77,60.77,0,0,0,7.26-3.52,19.12,19.12,0,0,0,1.64-7.71c0-8.89-5.8-16.1-13-16.1s-12.94,7.21-12.94,16.1v.19C113.27,99.1,122.3,104.82,130.18,101.64Z"/><path class="cls-8" d="M108.54,106.34c1.64-.11,3.23-.27,4.79-.47,5.48-1.87,9.53-8,9.53-15.46,0-8.89-5.79-16.1-13-16.1S97,81.52,97,90.41C97,98.72,102.05,105.47,108.54,106.34Z"/><path class="cls-9" d="M108.09,91.09c-.59-2.08-2.49-3.36-4.25-2.86s-2.72,2.57-2.14,4.65a3.36,3.36,0,1,0,6.39-1.79Z"/><path class="cls-7" d="M131.93,71.26c0-8.88,5.79-16.1,12.94-16.1s12.94,7.22,12.94,16.1-5.8,16.1-12.94,16.1S131.93,80.16,131.93,71.26Z"/><path class="cls-7" d="M71.69,71.26c0-8.88-5.79-16.1-12.94-16.1s-12.94,7.22-12.94,16.1,5.79,16.1,12.94,16.1S71.69,80.16,71.69,71.26Z"/><path class="cls-9" d="M55.17,69.23c-.58-2.08-2.48-3.37-4.25-2.87S48.2,68.94,48.79,71s2.48,3.36,4.24,2.86S55.75,71.3,55.17,69.23Z"/><path class="cls-8" d="M82.31,71.26c0-8.88-5.79-16.1-12.94-16.1s-12.94,7.22-12.94,16.1,5.8,16.1,12.94,16.1S82.31,80.16,82.31,71.26Z"/><path class="cls-9" d="M67.84,73.66a3.64,3.64,0,0,0-4.25-2.86c-1.76.49-2.71,2.58-2.13,4.66s2.49,3.36,4.25,2.86A3.65,3.65,0,0,0,67.84,73.66Z"/><path class="cls-7" d="M98.54,71.26c0-8.88-5.8-16.1-13-16.1s-12.94,7.22-12.94,16.1,5.79,16.1,12.94,16.1S98.54,80.16,98.54,71.26Z"/><path class="cls-9" d="M84.43,74.26c-.59-2.08-2.49-3.37-4.25-2.87S77.46,74,78,76.05a3.36,3.36,0,1,0,6.39-1.79Z"/><path class="cls-8" d="M114.75,71.26c0-8.88-5.79-16.1-12.94-16.1s-13,7.22-13,16.1,5.8,16.1,13,16.1S114.75,80.16,114.75,71.26Z"/><path class="cls-9" d="M99.21,71.76a3.36,3.36,0,1,0-6.38,1.79c.58,2.08,2.49,3.37,4.25,2.87A3.65,3.65,0,0,0,99.21,71.76Z"/><path class="cls-8" d="M121.3,71.26c0-8.88,5.8-16.1,13-16.1s12.94,7.22,12.94,16.1-5.8,16.1-12.94,16.1S121.3,80.16,121.3,71.26Z"/><path class="cls-7" d="M131,71.26c0-8.88-5.79-16.1-12.94-16.1s-13,7.22-13,16.1,5.8,16.1,13,16.1S131,80.16,131,71.26Z"/><path class="cls-9" d="M116.33,72.71c-.59-2.08-2.49-3.36-4.25-2.87s-2.72,2.58-2.14,4.67,2.49,3.36,4.25,2.86S116.9,74.79,116.33,72.71Z"/><path class="cls-7" d="M151.31,52.12c0-8.89-5.8-16.1-12.95-16.1s-12.94,7.21-12.94,16.1,5.79,16.1,12.94,16.1S151.31,61,151.31,52.12Z"/><path class="cls-8" d="M78.15,52.12c0-8.89-5.8-16.1-12.94-16.1s-12.95,7.21-12.95,16.1,5.8,16.1,12.95,16.1S78.15,61,78.15,52.12Z"/><path class="cls-9" d="M62.77,49.9A3.65,3.65,0,0,0,58.53,47a3.65,3.65,0,0,0-2.14,4.66c.59,2.08,2.49,3.36,4.25,2.86A3.63,3.63,0,0,0,62.77,49.9Z"/><ellipse class="cls-7" cx="77.48" cy="52.12" rx="12.94" ry="16.1"/><path class="cls-9" d="M75.77,53.38a3.66,3.66,0,0,0-4.25-2.86c-1.77.49-2.72,2.58-2.14,4.66a3.36,3.36,0,1,0,6.39-1.8Z"/><ellipse class="cls-8" cx="93.7" cy="52.12" rx="12.94" ry="16.1"/><path class="cls-9" d="M90.66,53.38a3.66,3.66,0,0,0-4.25-2.86c-1.76.49-2.72,2.58-2.13,4.66a3.36,3.36,0,1,0,6.38-1.8Z"/><path class="cls-7" d="M122.86,52.12c0-8.89-5.79-16.1-13-16.1S97,43.23,97,52.12s5.79,16.1,12.93,16.1S122.86,61,122.86,52.12Z"/><path class="cls-9" d="M108,53c-.59-2.08-2.49-3.36-4.25-2.86S101,52.7,101.6,54.77A3.36,3.36,0,1,0,108,53Z"/><path class="cls-8" d="M139.08,52.12c0-8.89-5.8-16.1-13-16.1s-12.94,7.21-12.94,16.1,5.8,16.1,12.94,16.1S139.08,61,139.08,52.12Z"/><path class="cls-9" d="M124.83,58.05c-.59-2.07-2.49-3.36-4.25-2.86s-2.72,2.58-2.13,4.66a3.36,3.36,0,1,0,6.38-1.8Z"/><path class="cls-7" d="M116.71,33c0-8.89,5.8-16.1,13-16.1S142.6,24.08,142.6,33s-5.8,16.1-12.94,16.1S116.71,41.86,116.71,33Z"/><path class="cls-7" d="M86.81,33c0-8.89-5.79-16.1-13-16.1S60.92,24.08,60.92,33s5.8,16.1,12.94,16.1S86.81,41.86,86.81,33Z"/><path class="cls-9" d="M71.93,29.4c-.59-2.07-2.49-3.36-4.25-2.86S65,29.11,65.54,31.19a3.36,3.36,0,1,0,6.39-1.79Z"/><path class="cls-8" d="M98.54,33c0-8.89-5.8-16.1-13-16.1S72.65,24.08,72.65,33s5.79,16.1,12.94,16.1S98.54,41.86,98.54,33Z"/><path class="cls-9" d="M83.23,35.15c-.59-2.08-2.49-3.36-4.25-2.87a3.66,3.66,0,0,0-2.14,4.66,3.66,3.66,0,0,0,4.25,2.86C82.85,39.31,83.81,37.22,83.23,35.15Z"/><path class="cls-7" d="M114.75,33c0-8.89-5.79-16.1-12.94-16.1s-13,7.21-13,16.1,5.8,16.1,13,16.1S114.75,41.86,114.75,33Z"/><path class="cls-9" d="M98.9,36a3.66,3.66,0,0,0-4.25-2.86c-1.76.49-2.72,2.58-2.13,4.66a3.65,3.65,0,0,0,4.24,2.86C98.52,40.12,99.48,38,98.9,36Z"/><path class="cls-8" d="M131,33c0-8.89-5.79-16.1-12.94-16.1s-13,7.21-13,16.1,5.8,16.1,13,16.1S131,41.86,131,33Z"/><path class="cls-9" d="M116.72,38.9a3.36,3.36,0,1,0-2.14,4.66C116.35,43.07,117.3,41,116.72,38.9Z"/><path class="cls-7" d="M101.73,18.6c0-8.34-5.8-15.12-13-15.12S75.84,10.26,75.84,18.6s5.79,15.11,12.94,15.11S101.73,26.94,101.73,18.6Z"/><path class="cls-9" d="M86.86,17.58c-.59-2.08-2.49-3.36-4.25-2.87a3.65,3.65,0,0,0-2.13,4.66,3.36,3.36,0,1,0,6.38-1.79Z"/><path class="cls-7" d="M101.49,18.7c0-8.29,5.8-15,12.94-15s12.95,6.72,12.95,15-5.8,15-12.95,15S101.49,27,101.49,18.7Z"/><path class="cls-8" d="M114.75,16.1C114.75,7.21,109,0,101.81,0s-13,7.21-13,16.1,5.8,16.1,13,16.1S114.75,25,114.75,16.1Z"/><path class="cls-10" d="M103.11,12.6c.1-3.17-2-5.81-4.69-5.89s-5,2.42-5,5.59,2,5.81,4.69,5.89S103,15.78,103.11,12.6Z"/><path class="cls-11" d="M182.1,81.81c-12.41,15.55-36.73,16.78-36.73,16.78s-4.2-24,8.21-39.53c8.1-10.16,21.28-14.21,29.45-15.79A6.62,6.62,0,0,1,191,49.58C191.22,57.9,190.2,71.65,182.1,81.81Z"/><path class="cls-12" d="M145.37,98.59s-4.2-24,8.21-39.53c8.1-10.16,21.28-14.21,29.45-15.79a6.6,6.6,0,0,1,4.75.84C189.61,45.23,145.37,98.59,145.37,98.59Z"/><path class="cls-11" d="M178.84,88.2c-16.9-4.14-34.4,8-34.4,8s9.89,18.85,26.79,23c11,2.71,22.32-1.52,28.83-4.78a5.79,5.79,0,0,0,2.11-8.6C197.92,99.89,189.87,90.91,178.84,88.2Z"/><path class="cls-12" d="M144.44,96.18s9.89,18.85,26.79,23c11,2.71,22.32-1.52,28.83-4.78a5.82,5.82,0,0,0,2.84-3.12C203.57,109.53,144.44,96.18,144.44,96.18Z"/></g></g></svg>