<svg xmlns="http://www.w3.org/2000/svg" viewBox="0 0 305.55 128.48"><defs><style>.cls-1{fill:#944f3a;}.cls-2{fill:#b35f46;}.cls-3,.cls-5,.cls-6{fill:#633527;}.cls-3{opacity:0.2;}.cls-4{fill:#7a4432;}.cls-6{opacity:0.4;}.cls-7{fill:#fde8ae;}.cls-8{fill:#e0b87d;}</style></defs><g id="Layer_2" data-name="Layer 2"><g id="Layer_1-2" data-name="Layer 1"><path class="cls-1" d="M293.29,36.54c-11.83-16.6-29.69-26-47.52-27V9.35H58A17.34,17.34,0,0,0,40.72,26.76V111A17.34,17.34,0,0,0,58,128.41H251c1,0,2,0,2.92,0h.06a52,52,0,0,0,29.44-9.53C308.49,101,312.93,64.11,293.29,36.54Z"/><path class="cls-2" d="M294,37.62h0s0,0,0,0-.22-.28-.33-.43-.24-.4-.38-.6c-.68-.95-1.43-1.8-2.16-2.7C279.35,19,262.57,10.49,245.77,9.57V9.35H58A17.28,17.28,0,0,0,40.72,26.63V111a17.47,17.47,0,0,0,17.42,17.41h42.49c23.07-16.68,31.34-46.8,23-74.81a12.21,12.21,0,0,1,11.49-16H264.73a20,20,0,0,1,18.53,12.25c10.41,25.17,4,53.87-17.26,69a52,52,0,0,1-29.44,9.53H251c1,0,2,0,2.92,0h.06a52,52,0,0,0,29.44-9.53C308.17,101.21,312.77,65.07,294,37.62Z"/><path class="cls-3" d="M283,100.74c-23.62,7.16-29.72,2.5-49.49.25-17.27-2-44.7-2.45-63.12-1.41-14.28.81-27.89,3.4-42.3,1.31-29.8-4.34-63-15.44-81,2.35-1.76,1.74-4.59.4-6.32,1.41V111A17.34,17.34,0,0,0,58,128.41H251c1,0,2,0,2.92,0h.06a51.45,51.45,0,0,0,46.88-31.14A97.68,97.68,0,0,0,283,100.74Z"/><path class="cls-4" d="M22.18,19c-25.12,17.9-29.57,54.76-9.92,82.34s55.94,35.42,81.07,17.52,29.56-54.77,9.91-82.34S47.31,1.12,22.18,19Z"/><path class="cls-5" d="M26.72,30.17c-19.51,13.9-23,42.53-7.7,64s43.44,27.51,63,13.61,23-42.53,7.71-63.95S46.23,16.27,26.72,30.17Z"/><path class="cls-6" d="M258,12.34c-7.65-5.24-17.78-1.61-10.18,3.6,11.08,8.68,16,15.78,18.85,26.56,3.3,12.67-11.29,10-18.1,6.75-10.47-5-28.91-29.12-38.49-36-9.79-7-28.75-12-40.43-4.19-6.22,4.14.83,11.16,4.19,18.57,6,13.17,22.62,55.33-12.1,36.5-5-2.73-18.81-20-23-25.2-14.22-17.72-22.88-28.37-46-31.67-9-1.29-18.42,3.19-9.28,4.49,36.2,5.16,39.33,45,68.88,64.69,10.36,6.91,19,8.6,28.68,7.64,11.82-1.17,16.62-8.76,16.62-20,0-5.62-3.37-23.59-7.57-32.27-9.21-19.1-2-23.43,16.25-5.17C217.53,37.88,248,78.9,277.57,60.94,296.44,49.48,274.76,23.82,258,12.34Z"/><path class="cls-7" d="M254.14,7.25C246.48,2,236.36,5.64,244,10.85,255,19.53,260,26.63,262.8,37.41c3.32,12.67-11.28,10-18.1,6.75-10.46-4.95-28.9-29.12-38.48-36-9.79-7-28.76-12-40.44-4.19-6.22,4.15.83,11.16,4.2,18.57,6,13.17,22.61,55.33-12.1,36.5-5-2.73-18.82-20-23-25.2C120.64,16.11,112,5.46,88.82,2.16c-9-1.29-15.43,6.33-6.29,7.64C118.73,15,124.73,48,147.72,69.19A36.78,36.78,0,0,0,177.09,79c11.84-1.17,16.62-8.76,16.62-20,0-5.62-3.37-23.59-7.56-32.27-9.22-19.11,0-23.66,18.27-5.39,11.24,11.24,39.66,52.48,69.26,34.51C292.55,44.39,270.87,18.73,254.14,7.25Z"/><path class="cls-8" d="M271.89,23.74c5.63,9.58,8.76,21.91-1,27.83-29.59,18-60-25.89-71.27-37.13-18.27-18.27-23.44-6.22-18.27,5.39,3.92,8.81,7.56,26.65,7.56,32.27,0,11.23-1.12,20.17-12.95,21.34-9.67,1-23.89-2.7-33.05-11.14a106.09,106.09,0,0,1-14.4-16.94c5.68,8.28,11.47,16.73,19.2,23.83A36.78,36.78,0,0,0,177.09,79c11.84-1.17,16.62-8.76,16.62-20,0-5.62-3.37-23.59-7.56-32.27-9.22-19.11,0-23.66,18.27-5.39,11.24,11.24,39.66,52.48,69.26,34.51C285.79,48.49,281.17,35.29,271.89,23.74Z"/><path class="cls-8" d="M244,10.85a69.93,69.93,0,0,1,10,9.3c-2.71-4.93-6.57-9.32-12.19-14C240.78,7.23,241.16,8.93,244,10.85Z"/><path class="cls-8" d="M80.78,3.51c-3.54,2-4.13,5.45,1.75,6.29,20.35,2.9,31.15,14.62,40.79,28.08C112.75,22.44,102.38,7.76,80.78,3.51Z"/><path class="cls-4" d="M257,77.54l-3.57-1.26c-3.66-1.3-7.87,1.47-8.84,5-1.09,4,1.34,7.54,5,8.85l3.57,1.26c3.66,1.3,7.87-1.46,8.84-5C263.07,82.41,260.63,78.84,257,77.54Z"/><path class="cls-4" d="M268.21,71.94v3c0,9.26,14.38,9.27,14.38,0v-3C282.59,62.69,268.21,62.68,268.21,71.94Z"/><path class="cls-4" d="M215,75.19l-1.8-.6c-8.79-2.93-12.57,11-3.83,13.86l1.8.6C220,92,223.76,78.11,215,75.19Z"/><path class="cls-4" d="M223.33,61.77l-1.68-3.05c-2.23-4-8.44-.43-6.21,3.63l1.69,3.05C219.36,69.46,225.57,65.83,223.33,61.77Z"/><path class="cls-4" d="M148,82.57l-2.32-1.9c-3-2.45-7.22-2.93-10.16,0-2.54,2.54-3,7.7,0,10.17l2.31,1.89c3,2.45,7.23,2.94,10.17,0C150.53,90.2,151,85,148,82.57Z"/><path class="cls-4" d="M182,89.31v1.2c0,4.62,7.18,4.63,7.18,0v-1.2C189.14,84.68,182,84.68,182,89.31Z"/><path class="cls-4" d="M166.44,49c-2.23-3.82-8.22-.27-6.1,3.77,1.09,2.07,2.63,2.69,4.85,3C169.27,56.32,169.64,50.66,166.44,49Z"/></g></g></svg>