<svg xmlns="http://www.w3.org/2000/svg" xmlns:xlink="http://www.w3.org/1999/xlink" viewBox="0 0 393.33 121.77"><defs><style>.cls-1{mask:url(#mask);filter:url(#luminosity-noclip-2);}.cls-2{mix-blend-mode:multiply;fill:url(#linear-gradient);}.cls-3{fill:#d68d62;}.cls-4{fill:#e8a677;}.cls-5{opacity:0.5;}.cls-6{fill:#9e623f;}.cls-7{fill:#734336;}.cls-8{fill:#693d30;}.cls-9{mask:url(#mask-2);}.cls-10{fill:url(#linear-gradient-2);}.cls-11{fill:#bf7a50;}.cls-12{filter:url(#luminosity-noclip);}</style><filter id="luminosity-noclip" x="36.96" y="-8290.69" width="290.86" height="32766" filterUnits="userSpaceOnUse" color-interpolation-filters="sRGB"><feFlood flood-color="#fff" result="bg"/><feBlend in="SourceGraphic" in2="bg"/></filter><mask id="mask" x="36.96" y="-8290.69" width="290.86" height="32766" maskUnits="userSpaceOnUse"><g class="cls-12"/></mask><linearGradient id="linear-gradient" x1="36.96" y1="14.67" x2="327.82" y2="14.67" gradientUnits="userSpaceOnUse"><stop offset="0.31" stop-color="#fff"/><stop offset="0.97"/></linearGradient><filter id="luminosity-noclip-2" x="36.96" y="9.88" width="290.86" height="9.58" filterUnits="userSpaceOnUse" color-interpolation-filters="sRGB"><feFlood flood-color="#fff" result="bg"/><feBlend in="SourceGraphic" in2="bg"/></filter><mask id="mask-2" x="36.96" y="9.88" width="290.86" height="9.58" maskUnits="userSpaceOnUse"><g class="cls-1"><path class="cls-2" d="M327.82,19.46a10.74,10.74,0,0,0-10.66-9.58H47.62A10.73,10.73,0,0,0,37,19.46Z"/></g></mask><linearGradient id="linear-gradient-2" x1="36.96" y1="14.67" x2="327.82" y2="14.67" gradientUnits="userSpaceOnUse"><stop offset="0.31" stop-color="#ead0c9"/><stop offset="0.97" stop-color="#ead0c9"/></linearGradient></defs><g id="Layer_2" data-name="Layer 2"><g id="Layer_1-2" data-name="Layer 1"><rect class="cls-3" x="3.32" y="0.67" width="387.5" height="121.1" rx="58.53"/><path class="cls-4" d="M390.81,59.2a58.22,58.22,0,0,0-5.64-25c-16.67,8.3-24.25,10.15-52.88,10.15H61.85c-26.54,0-39.7-5.23-52.43-10.28L9.09,34A58.17,58.17,0,0,0,3.32,59.2v4a58.3,58.3,0,0,0,1.76,14A64.36,64.36,0,0,0,61.85,111H332.29a64.38,64.38,0,0,0,56.77-33.76,58.8,58.8,0,0,0,1.75-14ZM332.29,98.89H61.85A52.27,52.27,0,0,1,14,67.88C26.3,78,42.91,83.76,61.85,83.76H332.29c20,0,35.66-5.36,48.07-16.32A52.26,52.26,0,0,1,332.29,98.89Zm0-27.24H61.85C40.1,71.65,22.09,63,12.27,48.19c11.63,4.32,25.87,8.32,49.58,8.32H332.29c23.69,0,34.49-1.17,48.16-6.8C369.14,65,354.29,71.65,332.29,71.65Z"/><g class="cls-5"><path class="cls-6" d="M390.81,59.2a58.23,58.23,0,0,0-5.66-25A59.6,59.6,0,0,0,334.91,6.73H59.22A59.57,59.57,0,0,0,8.87,34.45,58.25,58.25,0,0,0,3.32,59.2v4c0,1.7.11,3.37.25,5a11.44,11.44,0,0,0,3.37,2.34,40.76,40.76,0,0,0,30,1.7l4.44-1.63a69.84,69.84,0,0,1,13.29-3.45,30.23,30.23,0,0,1,16.33,2c7.79,3.28,22.83,5.22,41.29-1,5-1.67,11.44-.67,18.77,3.1,11,5.64,23.53,6.05,36.69,4.54,16.31-1.87,28.39-7.66,41.84-9.52h16a63.65,63.65,0,0,1,13.51,3.5c18.68,7,41.29,12.24,54.63.51a16.08,16.08,0,0,1,10.59-4c6.64,0,13.38,1.22,19.1,4.58,7.56,4.44,17.3,5.77,26,4.83,2.77-.3,6.64-1.77,10.32-3.46,4.86-2.23,14.74-3.8,22.72-4.77a12.13,12.13,0,0,0,8.27-4.79Z"/></g><path class="cls-7" d="M382.54,60.86A12.23,12.23,0,0,0,393,46a59.69,59.69,0,0,0-58.1-46H59.22A59.68,59.68,0,0,0,.11,51.49a11.83,11.83,0,0,0,6.83,12.4,40.82,40.82,0,0,0,30,1.69L41.39,64a69.81,69.81,0,0,1,13.29-3.44,30.13,30.13,0,0,1,16.33,2c7.79,3.28,22.83,5.23,41.29-1,5-1.68,11.44-.67,18.77,3.09,11,5.64,23.53,6.06,36.69,4.55,16.31-1.88,28.39-7.67,41.84-9.53h16a63.65,63.65,0,0,1,13.51,3.5c18.68,7,41.29,12.24,54.63.52a16,16,0,0,1,10.59-4h0c6.64,0,13.37,1.22,19.1,4.58,7.56,4.44,17.3,5.77,26,4.83,2.77-.29,6.64-1.76,10.32-3.45C364.68,63.39,374.56,61.82,382.54,60.86Z"/><path class="cls-8" d="M393,46a59.69,59.69,0,0,0-58.1-46h-19.4c37.63,2.36,47.57,21.48,47.22,45-.17,11.86-10.46,13.7-13.23,14-8.74.94-18.48-.39-26-4.83-5.72-3.36-12.46-4.58-19.1-4.58a16,16,0,0,0-10.59,4c-13.34,11.72-35.95,6.48-54.63-.52a63.65,63.65,0,0,0-13.51-3.5h-16c-13.45,1.86-25.53,7.65-41.84,9.52-13.16,1.51-25.72,1.1-36.69-4.54-7.33-3.76-13.77-4.77-18.77-3.1-18.46,6.19-33.5,4.25-41.29,1a30.13,30.13,0,0,0-16.33-2,69.81,69.81,0,0,0-13.29,3.44L37,55.49a40.82,40.82,0,0,1-30-1.69,11.56,11.56,0,0,1-6-6.63C.6,48.6.31,50,.11,51.49a11.83,11.83,0,0,0,6.83,12.4,40.82,40.82,0,0,0,30,1.69L41.39,64a69.81,69.81,0,0,1,13.29-3.44,30.13,30.13,0,0,1,16.33,2c7.79,3.28,22.83,5.23,41.29-1,5-1.68,11.44-.67,18.77,3.09,11,5.64,23.53,6.06,36.69,4.54,16.31-1.87,28.39-7.66,41.84-9.52h16a63.65,63.65,0,0,1,13.51,3.5c18.68,7,41.29,12.24,54.63.52a16,16,0,0,1,10.59-4c6.64,0,13.38,1.22,19.1,4.58,7.56,4.44,17.3,5.77,26,4.83,2.77-.29,6.64-1.76,10.32-3.46a23,23,0,0,1,2.4-.91l.27-.08c.86-.28,1.78-.54,2.76-.79a143.74,143.74,0,0,1,17.29-3A12.24,12.24,0,0,0,393,46Z"/><g class="cls-9"><path class="cls-10" d="M327.82,19.46a10.74,10.74,0,0,0-10.66-9.58H47.62A10.73,10.73,0,0,0,37,19.46Z"/></g><path class="cls-11" d="M102.72,91.93a7.19,7.19,0,1,0-7.18,7.19A7.19,7.19,0,0,0,102.72,91.93Z"/><path class="cls-11" d="M163.82,93.73a6,6,0,1,0-6,6A6,6,0,0,0,163.82,93.73Z"/></g></g></svg>