<svg xmlns="http://www.w3.org/2000/svg" xmlns:xlink="http://www.w3.org/1999/xlink" viewBox="0 0 399.52 400.22"><defs><style>.cls-1{fill:url(#linear-gradient);}.cls-2{fill:#e2ca9c;}.cls-3{fill:#bea075;}.cls-11,.cls-3{opacity:0.6;}.cls-4{fill:#a45f0e;}.cls-11,.cls-5{fill:#52382d;}.cls-6{fill:#614335;}.cls-7{fill:#754f3d;}.cls-8{fill:#9b6951;}.cls-9{fill:#dabc80;}.cls-10{fill:#452f25;opacity:0.5;}.cls-12{fill:#849b0e;}.cls-13{fill:#94ac0f;}.cls-14{fill:url(#linear-gradient-2);}.cls-15{fill:url(#linear-gradient-3);}.cls-16{fill:#ebb530;}.cls-17{fill:#ffb9b4;}.cls-18{fill:url(#linear-gradient-4);}.cls-19{fill:url(#linear-gradient-5);}.cls-20{fill:#fff;}.cls-21{fill:url(#linear-gradient-6);}.cls-22{fill:url(#linear-gradient-7);}.cls-23{fill:url(#linear-gradient-8);}.cls-24{fill:url(#linear-gradient-9);}.cls-25{fill:url(#linear-gradient-10);}.cls-26{fill:url(#linear-gradient-11);}.cls-27{fill:url(#linear-gradient-12);}.cls-28{fill:url(#linear-gradient-13);}.cls-29{fill:url(#linear-gradient-14);}.cls-30{fill:url(#linear-gradient-15);}.cls-31{fill:url(#linear-gradient-16);}.cls-32{fill:url(#linear-gradient-17);}.cls-33{fill:url(#linear-gradient-18);}.cls-34{fill:url(#linear-gradient-19);}.cls-35{fill:url(#linear-gradient-20);}</style><linearGradient id="linear-gradient" x1="12.87" y1="272.68" x2="390.66" y2="272.68" gradientUnits="userSpaceOnUse"><stop offset="0.2" stop-color="#ffedc4"/><stop offset="0.84" stop-color="#e2d3ae"/></linearGradient><linearGradient id="linear-gradient-2" x1="2149" y1="764.45" x2="2191.33" y2="810.97" gradientTransform="translate(1095.72 -2076.38) rotate(90.52)" gradientUnits="userSpaceOnUse"><stop offset="0.3" stop-color="#e00102"/><stop offset="1" stop-color="#950102"/></linearGradient><linearGradient id="linear-gradient-3" x1="2155.43" y1="760.08" x2="2189.59" y2="811.42" gradientTransform="translate(1095.72 -2076.38) rotate(90.52)" gradientUnits="userSpaceOnUse"><stop offset="0.2" stop-color="#ea2828"/><stop offset="0.54" stop-color="#e00102"/><stop offset="0.95" stop-color="#c10102"/></linearGradient><linearGradient id="linear-gradient-4" x1="141.06" y1="-1055.59" x2="192.85" y2="-998.67" gradientTransform="translate(778.13 950.1) rotate(-44.04)" gradientUnits="userSpaceOnUse"><stop offset="0" stop-color="#ac0102"/><stop offset="1" stop-color="#c80102"/></linearGradient><linearGradient id="linear-gradient-5" x1="148.93" y1="-1060.93" x2="190.72" y2="-998.11" gradientTransform="translate(778.13 950.1) rotate(-44.04)" xlink:href="#linear-gradient-3"/><linearGradient id="linear-gradient-6" x1="409.52" y1="377.2" x2="461.31" y2="434.12" gradientTransform="translate(-80.81 -455.66) rotate(15.85)" gradientUnits="userSpaceOnUse"><stop offset="0.09" stop-color="#f44336"/><stop offset="0.29" stop-color="#ee2f26"/><stop offset="0.68" stop-color="#e00102"/><stop offset="1" stop-color="#c80102"/></linearGradient><linearGradient id="linear-gradient-7" x1="417.39" y1="371.86" x2="459.19" y2="434.68" gradientTransform="translate(-80.81 -455.66) rotate(15.85)" xlink:href="#linear-gradient-3"/><linearGradient id="linear-gradient-8" x1="402.44" y1="383.64" x2="454.24" y2="440.56" gradientTransform="translate(-80.81 -455.66) rotate(15.85)" gradientUnits="userSpaceOnUse"><stop offset="0.32" stop-color="#ffedc4"/><stop offset="0.84" stop-color="#ddc690"/></linearGradient><linearGradient id="linear-gradient-9" x1="384.58" y1="-1587.8" x2="432.32" y2="-1535.32" gradientTransform="matrix(0.42, -0.91, 0.91, 0.42, 1353.27, 1130.9)" xlink:href="#linear-gradient-6"/><linearGradient id="linear-gradient-10" x1="391.83" y1="-1592.73" x2="430.36" y2="-1534.81" gradientTransform="matrix(0.42, -0.91, 0.91, 0.42, 1353.27, 1130.9)" xlink:href="#linear-gradient-3"/><linearGradient id="linear-gradient-11" x1="69.83" y1="119.04" x2="146.57" y2="119.04" gradientTransform="matrix(1, 0, 0, 1, 0, 0)" xlink:href="#linear-gradient-8"/><linearGradient id="linear-gradient-12" x1="22.91" y1="-418.47" x2="74.7" y2="-361.54" gradientTransform="matrix(0.95, -0.31, 0.31, 0.95, 222.32, 457.83)" xlink:href="#linear-gradient-6"/><linearGradient id="linear-gradient-13" x1="30.78" y1="-423.81" x2="72.57" y2="-360.99" gradientTransform="matrix(0.95, -0.31, 0.31, 0.95, 222.32, 457.83)" xlink:href="#linear-gradient-3"/><linearGradient id="linear-gradient-14" x1="10.11" y1="-418.17" x2="67.36" y2="-355.25" gradientTransform="matrix(0.95, -0.31, 0.31, 0.95, 222.32, 457.83)" xlink:href="#linear-gradient-8"/><linearGradient id="linear-gradient-15" x1="1513.86" y1="888.59" x2="1556.19" y2="935.11" gradientTransform="translate(406.07 -1661.77) rotate(62.34)" xlink:href="#linear-gradient-6"/><linearGradient id="linear-gradient-16" x1="1520.29" y1="884.22" x2="1554.45" y2="935.56" gradientTransform="translate(406.07 -1661.77) rotate(62.34)" xlink:href="#linear-gradient-3"/><linearGradient id="linear-gradient-17" x1="1513.34" y1="889.06" x2="1555.67" y2="935.58" gradientTransform="translate(406.07 -1661.77) rotate(62.34)" xlink:href="#linear-gradient-8"/><linearGradient id="linear-gradient-18" x1="1306.49" y1="923.54" x2="1358.29" y2="980.46" gradientTransform="translate(283.88 -1521.6) rotate(55.97)" xlink:href="#linear-gradient-6"/><linearGradient id="linear-gradient-19" x1="1314.36" y1="918.19" x2="1356.16" y2="981.01" gradientTransform="translate(283.88 -1521.6) rotate(55.97)" xlink:href="#linear-gradient-3"/><linearGradient id="linear-gradient-20" x1="210.17" y1="108.16" x2="247.63" y2="148.41" gradientTransform="matrix(1, 0, 0, 1, 0, 0)" xlink:href="#linear-gradient-8"/></defs><g id="Layer_2" data-name="Layer 2"><g id="Layer_1-2" data-name="Layer 1"><path class="cls-1" d="M11.88,145.14V358.85h0c.23,22.86,84.47,41.37,188.35,41.37s188.13-18.51,188.35-41.37h0V145.14Z"/><path class="cls-2" d="M305.37,145.14V364.93a22.65,22.65,0,0,1-20,22.58,774,774,0,0,1-85.1,4.49C96.36,392,12.12,373.48,11.89,350.63h0v8.22h0c.23,22.86,84.47,41.37,188.35,41.37,39,0,75.09-2.62,105.13-7.09v0l2.34-.37.4-.06c48.53-7.48,80.35-19.87,80.48-33.89h0V145.14Z"/><path class="cls-3" d="M11.88,152v66.57c3,.8,5.87-1,5.87-2.72l-.08-37.69a3.3,3.3,0,0,1,6.6,0c0,4.24.6,12.51,4.87,14.93,5.83,3.28,9.6-5,12.16-5.32,7.42-1,14,50.84,12.65,68.1-.34,4.52-3.54,14.25-2.53,18,2,7.43,12.16,5.83,12.41,1,.19-3.63-1.12-40.16,1.64-64.44,1.49-13,7.65,16.44,22.07,15.15,15.65-1.39,13.67-24.06,26-20.25,13.06,4,19.15,109,17.89,113.59s-11.14,21.27,4.55,21.78c8.62.27,4-16.88,3.89-22.63-.68-42.19,9.38-36.93,12.49-66.5,1.46-13.92.94-29.88,3-33.08,8.44-12.82,21.66,16,39,13.69,23.12-3.08,16.67-25.22,33.91-25.69,5.46-.15,14.35,3.23,17.22,16.73,2,9.62,3.88,22.28.85,27.85s-.51,12.16,4.55,12.16,8.44-1.86,6.42-8.95-.68-27.34,2.36-30.72c3.54-3.93,9.28.67,11.81,5.73,1.64,3.28,5.74,37,3.72,42s-7.09,17,1.35,19.74c6.56,2.1,15.36-2.53,11.31-15.69s-3.55-41.35,2.19-46.76c12.1-11.38,17.56,12.32,15.53,21.44s0,16.2,4.56,16.2c7.59,0,10.12-10.12,6.58-16.71s-.51-47.09,6.58-49.12,5.83,29.88,18.48,30.39,11.49-40.75,23.8-40.26c6.33.26,5.32,5.06,12.91,6.34,4.55.74,8-4.39,10.08-7.25V145.14H13.35A56.52,56.52,0,0,0,11.88,152Z"/><path class="cls-4" d="M201.3,164.26c-1.4,1.08-3,1.37-3.52.68s.18-2.14,1.58-3.22a5,5,0,0,1,3.52-.68A5,5,0,0,1,201.3,164.26Z"/><path class="cls-5" d="M397.4,234.47a40.49,40.49,0,0,1-3.6-16.65l.54-63.75A55.27,55.27,0,0,0,358.7,101.9c-35-13.3-92.47-21.24-158.46-21.24-67.76,0-125.84,8.23-160.51,22.18C19,111.18,6,131.9,6.2,154.23l.22,21.68a30.25,30.25,0,0,1-3.72,14.6C.93,193.84-.73,200,.33,204.07c3.22,12.34,12.28,8.73,12.28,5.62L12.54,172a3.3,3.3,0,0,1,6.59,0c0,4.24.61,12.51,4.88,14.93,5.82,3.29,9.59-5,12.15-5.32,7.43-1,14,50.84,12.66,68.1-.35,4.53-3.55,14.25-2.53,18,2,7.43,12.15,5.82,12.4,1,.19-3.63-1.12-40.16,1.64-64.44,1.49-13,7.66,16.44,22.08,15.16,15.64-1.4,13.67-24.06,26-20.26,13.06,4,19.15,109,17.89,113.59s-11.14,21.27,4.56,21.78c8.61.28,4-16.88,3.88-22.62-.68-42.19,9.39-36.94,12.49-66.5,1.46-13.93.94-29.89,3-33.08,8.44-12.83,21.66,16,39,13.69,23.12-3.09,16.68-25.22,33.91-25.7,5.46-.15,14.36,3.24,17.22,16.73,2.05,9.62,3.89,22.28.85,27.86S240.72,257,245.79,257s8.44-1.86,6.41-9-.68-27.34,2.36-30.72c3.54-3.92,9.29.68,11.82,5.74,1.63,3.27,5.74,37,3.71,42s-7.09,17.05,1.35,19.75c6.56,2.1,15.36-2.54,11.31-15.7s-3.55-41.35,2.19-46.75c12.1-11.39,17.56,12.32,15.53,21.43s0,16.21,4.56,16.21c7.59,0,10.13-10.13,6.58-16.72s-.5-47.08,6.58-49.11,5.83,29.87,18.48,30.38,11.49-40.75,23.8-40.26c6.33.26,5.32,5.07,12.91,6.34,7,1.15,11.34-11.65,12.35-8.61.86,2.57.26,51,.06,65.71-.05,3.36,2.82,9.18,7.62,9.18,2.79,0,5.67-2,6-9.06A29.45,29.45,0,0,0,397.4,234.47Z"/><path class="cls-6" d="M375.59,147.79a21.41,21.41,0,0,0,3.27-32.58A55.31,55.31,0,0,0,358.7,101.9c-35-13.3-92.47-21.24-158.46-21.24-67.76,0-125.84,8.23-160.51,22.18a51.87,51.87,0,0,0-18.46,12.64,21.35,21.35,0,0,0,3.58,32.27c27.7,18.94,95.77,32.33,175.39,32.33S347.86,166.71,375.59,147.79Z"/><path class="cls-7" d="M365.77,123.48c0,21.74-74.11,39.37-165.53,39.37S34.72,145.22,34.72,123.48s74.11-39.37,165.52-39.37S365.77,101.74,365.77,123.48Z"/><path class="cls-8" d="M191.82,159.4c-81.43-2.47-144.43-19-144.43-39a12.27,12.27,0,0,1,5-9.64c7.59-6,.65-5,.65-5-16.15,6.08-23.5,13.08-23.5,20.8,0,21.47,72.35,38.9,162.24,39.32C207.74,165.53,208.19,160.52,191.82,159.4Z"/><path class="cls-7" d="M96.08,194a29.39,29.39,0,0,1-13.19,7.87c-6.29,1.72-11-6.68-15-10.5-1-.94-3.1.68-2.39,2.08,3.16,6.12,6.85,17.59,15.38,17.42,7.76-.17,13.56-8.9,17.21-15.16C99.84,192.59,97.14,192.89,96.08,194Z"/><path class="cls-7" d="M183.94,209.38c-7.19-1.06-13.72-4.36-20.63-6.65s-11.8.85-11.23.83c4.28-.17,7.2,0,11,2.05,7.59,4.14,15.91,12,26.73,11.29,7.78-.53,16.74-6.84,19.52-14.37C209.93,200.78,199,211.61,183.94,209.38Z"/><path class="cls-7" d="M126.05,207.24c-1.46-5.33-3.13-11.08-8.18-13.39-2.79-1.28-6.26,2.93-3.25,4.57,9.14,4.94,12.2,70.48,14,85.38C129,286.83,127.84,213.81,126.05,207.24Z"/><path class="cls-7" d="M30.57,176.86c-.71-3.17-7.72-13-11.91-13.69,3.76,3.07,4.24,12.47,4.15,10.81-.14-2.8.49,5.28,2.51,7.45C28.08,184.38,31.5,181,30.57,176.86Z"/><path class="cls-2" d="M184.8,257.34a8.23,8.23,0,1,0-8.23,8.22A8.23,8.23,0,0,0,184.8,257.34Z"/><path class="cls-9" d="M361.55,320.36a8.22,8.22,0,1,0-8.22,8.23A8.23,8.23,0,0,0,361.55,320.36Z"/><path class="cls-2" d="M207.4,275.15a2.74,2.74,0,1,0-2.74,2.74A2.74,2.74,0,0,0,207.4,275.15Z"/><path class="cls-2" d="M76.55,302.56a4.11,4.11,0,1,0-4.11,4.1A4.11,4.11,0,0,0,76.55,302.56Z"/><path class="cls-10" d="M397.4,234.47a40.49,40.49,0,0,1-3.6-16.65l.54-63.75A55.27,55.27,0,0,0,358.7,101.9c-16.18-6.14-37.18-11.13-61.55-14.73l-83.24,53s52.75,12.15,65.43,22.26c11.4,9.09,17.81,21.66,17.81,36.24,0,0,4.43,40.17,3.32,45.18-2,9.12,0,16.21,4.56,16.21,7.59,0,10.13-10.13,6.58-16.72s-.5-47.08,6.58-49.11,5.83,29.87,18.48,30.38,11.49-40.75,23.8-40.26c6.33.26,5.32,5.07,12.91,6.34,7,1.15,11.34-11.65,12.35-8.61.86,2.57.26,51,.06,65.71-.05,3.36,2.82,9.18,7.62,9.18,2.79,0,5.67-2,6-9.06A29.45,29.45,0,0,0,397.4,234.47Z"/><path class="cls-11" d="M107.07,149.86c31.88.95,40-19.35,47.44-15.94s26.38,6.65,30.37,7.21,8.54,10.25,18.78,13.66,46.92,13.78,65.47.58c9.87-7,26.57.95,41.38-.19s44.22-10.63,42.13-20.5c-3.8-17.84-55.61-25.43-55.61-25.43l-160-15.37-65.47,41S70,148.76,107.07,149.86Z"/><path class="cls-12" d="M321.83,91.37c-5.45-.05-12.39-2.21-12.36-4.8s7-4.61,12.45-4.57,9.82,4.77,9.82,4.77S327.27,91.42,321.83,91.37Z"/><path class="cls-13" d="M324.24,80.33c-4.21,3-10.59,5.47-11.79,3.69s3.21-7.09,7.41-10.11,9.83-2.28,9.83-2.28S328.46,77.31,324.24,80.33Z"/><path class="cls-12" d="M321.35,73.72c-2.3,3.5-6.37,7.2-7.77,6.24s.42-6.22,2.72-9.72a12.5,12.5,0,0,1,6.69-4.6S323.65,70.21,321.35,73.72Z"/><path class="cls-13" d="M324.13,93.07c-4.16-3.1-10.49-5.65-11.72-3.88s3.07,7.13,7.22,10.24,9.79,2.45,9.79,2.45S328.29,96.18,324.13,93.07Z"/><path class="cls-12" d="M321.12,99.64c-2.24-3.54-6.24-7.31-7.66-6.38s.31,6.23,2.55,9.77a12.47,12.47,0,0,0,6.6,4.72S323.35,103.18,321.12,99.64Z"/><path class="cls-14" d="M304.15,115.73c7.33-4.5,10-12.85,10.1-21.48l.07-7.63.06-7.63c.08-8.63-2.46-17-9.71-21.66s-15.54-4.68-22.9-1.73c-10.52,4.2-14.17,9.14-22.42,14.79-4.19,2.86-11.08,6.16-11.46,15.63.21,9.48,7,12.9,11.18,15.84,8.15,5.8,11.7,10.81,22.14,15.19C288.52,120.13,296.83,120.24,304.15,115.73Z"/><path class="cls-15" d="M299.73,60.2c0-1.83-1.8-3.27-4.13-3.3s-4.17,1.39-4.19,3.22,1.8,3.27,4.13,3.29S299.71,62,299.73,60.2Zm-10.6,5.55c0-1.83-1.8-3.27-4.14-3.29s-4.17,1.39-4.18,3.21S282.6,69,284.94,69,289.11,67.57,289.13,65.75Zm10.5,6.16c0-1.82-1.8-3.27-4.13-3.29s-4.18,1.39-4.19,3.21,1.8,3.28,4.13,3.3S299.61,73.74,299.63,71.91Zm-20-.18c0-1.83-1.8-3.27-4.13-3.29s-4.17,1.39-4.19,3.21,1.8,3.28,4.13,3.3S279.58,73.55,279.6,71.73Zm21,21.9c0,1.83,1.8,3.28,4.13,3.3s4.18-1.4,4.19-3.22-1.79-3.27-4.13-3.29S300.6,91.8,300.58,93.63Zm-.12,13.25c0,1.83,1.8,3.27,4.13,3.29s4.18-1.39,4.2-3.21-1.8-3.27-4.14-3.29S300.48,105.06,300.46,106.88ZM269,78.82c0-1.83-1.8-3.27-4.13-3.29s-4.18,1.39-4.19,3.22,1.8,3.27,4.13,3.29S269,80.64,269,78.82Zm31.85-13c0,1.83,1.8,3.27,4.13,3.3s4.18-1.39,4.19-3.22-1.8-3.27-4.13-3.29S300.85,64,300.83,65.85Zm-20.27,27.6c0,1.83,1.79,3.27,4.13,3.3s4.17-1.39,4.19-3.23-1.8-3.27-4.13-3.29S280.57,91.62,280.56,93.45Zm8.2,13.33c0-1.83-1.8-3.28-4.13-3.3s-4.18,1.39-4.19,3.22,1.79,3.27,4.13,3.29S288.74,108.6,288.76,106.78Zm-9.41-7.28c0-1.82-1.8-3.27-4.13-3.29s-4.17,1.4-4.19,3.22,1.8,3.28,4.13,3.3S279.33,101.33,279.35,99.5Zm20,.18c0-1.82-1.8-3.26-4.13-3.28s-4.18,1.39-4.19,3.21,1.8,3.27,4.13,3.29S299.36,101.51,299.38,99.68Zm-30.53-6.34c0-1.82-1.8-3.27-4.13-3.29s-4.18,1.4-4.19,3.22,1.8,3.27,4.13,3.3S268.84,95.17,268.85,93.34Zm30.41,19.44c0-1.83-1.8-3.27-4.13-3.29s-4.17,1.39-4.19,3.21,1.8,3.27,4.13,3.29S299.24,114.6,299.26,112.78ZM309,79.18c0-1.83-1.79-3.27-4.13-3.3s-4.17,1.39-4.19,3.23,1.8,3.27,4.13,3.29S309,81,309,79.18Zm-49.59,6.9c0-1.82-1.79-3.27-4.13-3.3s-4.17,1.4-4.19,3.23,1.81,3.26,4.13,3.28S259.43,87.9,259.44,86.08ZM289,79c0-1.83-1.8-3.28-4.14-3.3s-4.17,1.4-4.18,3.22,1.79,3.27,4.13,3.3S289,80.83,289,79Zm10.49,7.44c0-1.82-1.8-3.28-4.13-3.3s-4.18,1.4-4.2,3.22,1.81,3.27,4.14,3.29S299.48,88.26,299.5,86.44Zm-20-.18c0-1.83-1.8-3.28-4.13-3.3s-4.17,1.4-4.19,3.22,1.8,3.27,4.13,3.29S279.45,88.08,279.47,86.26Z"/><path class="cls-16" d="M305,67.47c-1.36,0-2.48-.73-2.47-1.6s1.13-1.57,2.5-1.56,2.48.73,2.48,1.6S306.35,67.48,305,67.47Z"/><path class="cls-16" d="M304.86,80.72c-1.37,0-2.48-.73-2.48-1.6s1.13-1.57,2.5-1.56,2.48.73,2.48,1.6S306.23,80.73,304.86,80.72Z"/><path class="cls-16" d="M304.73,95.24c-1.37,0-2.49-.72-2.48-1.6s1.13-1.56,2.5-1.56,2.48.74,2.48,1.6S306.1,95.26,304.73,95.24Z"/><path class="cls-16" d="M304.61,108.49c-1.37,0-2.48-.72-2.47-1.59s1.13-1.57,2.5-1.56,2.48.73,2.47,1.6S306,108.5,304.61,108.49Z"/><path class="cls-16" d="M295.56,61.73c-1.37,0-2.48-.73-2.47-1.6s1.12-1.56,2.5-1.55,2.47.72,2.46,1.6S296.93,61.75,295.56,61.73Z"/><path class="cls-16" d="M295.46,73.46c-1.38,0-2.48-.73-2.48-1.61s1.13-1.57,2.5-1.55S298,71,298,71.89,296.83,73.46,295.46,73.46Z"/><path class="cls-16" d="M295.33,88c-1.38,0-2.48-.74-2.48-1.6s1.13-1.57,2.5-1.56,2.48.73,2.47,1.6S296.7,88,295.33,88Z"/><path class="cls-16" d="M295.21,101.22c-1.38,0-2.48-.72-2.48-1.6s1.13-1.56,2.51-1.55,2.47.73,2.46,1.6S296.58,101.24,295.21,101.22Z"/><path class="cls-16" d="M295.09,114.32c-1.37,0-2.48-.73-2.47-1.61s1.12-1.56,2.5-1.55,2.47.73,2.46,1.6S296.46,114.33,295.09,114.32Z"/><path class="cls-16" d="M285,67.29c-1.37,0-2.48-.73-2.47-1.6s1.12-1.57,2.5-1.56,2.47.73,2.46,1.61S286.32,67.31,285,67.29Z"/><path class="cls-16" d="M284.83,80.54c-1.37,0-2.47-.72-2.47-1.6s1.12-1.57,2.5-1.56,2.48.73,2.47,1.61S286.21,80.55,284.83,80.54Z"/><path class="cls-16" d="M284.7,95.07c-1.37,0-2.47-.73-2.47-1.6s1.13-1.58,2.5-1.56,2.48.73,2.46,1.6S286.08,95.08,284.7,95.07Z"/><path class="cls-16" d="M284.58,108.31c-1.37,0-2.47-.72-2.47-1.59s1.13-1.57,2.5-1.56,2.48.72,2.47,1.6S286,108.33,284.58,108.31Z"/><path class="cls-16" d="M275.42,73.27c-1.36,0-2.47-.73-2.47-1.6s1.13-1.57,2.5-1.55,2.48.72,2.48,1.6S276.8,73.29,275.42,73.27Z"/><path class="cls-16" d="M275.29,87.8c-1.37,0-2.48-.73-2.47-1.6s1.13-1.57,2.5-1.56,2.48.73,2.48,1.61S276.67,87.81,275.29,87.8Z"/><path class="cls-16" d="M275.17,101.05c-1.36,0-2.47-.72-2.47-1.61s1.13-1.56,2.5-1.55,2.48.73,2.48,1.6S276.55,101.06,275.17,101.05Z"/><path class="cls-16" d="M264.8,80.36c-1.36,0-2.47-.73-2.47-1.6s1.13-1.57,2.5-1.56,2.48.73,2.48,1.6S266.18,80.38,264.8,80.36Z"/><path class="cls-16" d="M264.67,94.88c-1.36,0-2.47-.72-2.47-1.6s1.14-1.56,2.5-1.55,2.48.73,2.48,1.6S266.05,94.9,264.67,94.88Z"/><path class="cls-16" d="M255.27,87.62c-1.37,0-2.48-.74-2.47-1.6s1.13-1.57,2.5-1.56,2.48.73,2.47,1.6S256.64,87.63,255.27,87.62Z"/><path class="cls-17" d="M302.65,71.57c-3-2.19-5.06-4.57-3.56-6.72s5.12-2.11,8.08.09,4.16,5.7,2.66,7.85S305.62,73.76,302.65,71.57Z"/><path class="cls-12" d="M159.52,62.64c4.64,4.79,8.71,12.7,6.44,14.9s-10-2.14-14.68-6.93S147,58,147,58,154.89,57.86,159.52,62.64Z"/><path class="cls-13" d="M147.84,70c6.25,1.07,13.85,4.54,13.33,7.11s-8.94,3.3-15.19,2.22-10.41-6.61-10.41-6.61S141.57,68.94,147.84,70Z"/><path class="cls-12" d="M144.55,78.22c5-1,11.74-.64,12.1,1.41s-5.78,5-10.8,6-9.76-1.89-9.76-1.89S139.51,79.22,144.55,78.22Z"/><path class="cls-13" d="M159,59.18c.86,6.29,4.07,14,6.67,13.55s3.58-8.81,2.73-15.1S162.17,47,162.17,47,158.17,52.88,159,59.18Z"/><path class="cls-12" d="M167.35,56.17c-1.17,5-1,11.71,1,12.14s5.16-5.61,6.33-10.6-1.55-9.81-1.55-9.81S168.51,51.17,167.35,56.17Z"/><path class="cls-18" d="M195.94,57.14c-10.21-2.53-19.81,2.3-27.4,9.65l-6.71,6.48-6.71,6.5c-7.59,7.34-12.73,16.77-10.55,27.05s9.27,17.57,18.16,21.47c12.69,5.56,20.12,4.5,32.14,6.84,6.1,1.2,14.89,4.38,23.47-3.43,8.08-8.32,5.2-17.2,4.21-23.34-1.94-12.09-.63-19.48-5.76-32.36C213.19,67,206.16,59.66,195.94,57.14Z"/><path class="cls-19" d="M151.31,108.68c-1.6,1.55-1.31,4.37.68,6.42s4.8,2.45,6.4.89,1.3-4.37-.68-6.43S152.92,107.13,151.31,108.68Zm13.95,4.48c-1.6,1.55-1.3,4.37.68,6.43s4.79,2.44,6.4.88,1.32-4.36-.67-6.42S166.87,111.6,165.26,113.16Zm-3.65-14.45c-1.6,1.55-1.3,4.37.68,6.42s4.8,2.45,6.4.9,1.31-4.38-.67-6.43S163.22,97.16,161.61,98.71Zm17,17.62c-1.61,1.55-1.31,4.37.67,6.42s4.79,2.44,6.4.89,1.31-4.37-.67-6.43S180.26,114.78,178.66,116.33Zm1.07-37.1c1.62-1.56,1.32-4.38-.67-6.43s-4.79-2.45-6.4-.89-1.31,4.38.67,6.43S178.13,80.78,179.73,79.23ZM191.39,68c1.61-1.55,1.31-4.36-.68-6.42s-4.79-2.44-6.4-.89S183,65,185,67.07,189.79,69.51,191.39,68ZM194,119.5c-1.61,1.55-1.31,4.38.68,6.43s4.8,2.44,6.4.89,1.31-4.38-.67-6.43S195.56,117.94,194,119.5ZM155.3,102.86c1.61-1.56,1.31-4.37-.67-6.43s-4.8-2.44-6.4-.89-1.31,4.37.68,6.43S153.7,104.41,155.3,102.86Zm41.47-6c1.61-1.55,1.32-4.37-.67-6.42s-4.8-2.45-6.41-.9-1.3,4.38.68,6.43S195.17,98.4,196.77,96.84Zm4.58-18.59c-1.61,1.55-1.31,4.38.68,6.43s4.79,2.44,6.4.89,1.31-4.36-.68-6.42S203,76.7,201.35,78.25Zm1.74,14.45c-1.61,1.55-1.31,4.38.67,6.42s4.8,2.45,6.4.9,1.32-4.38-.67-6.43S204.69,91.14,203.09,92.7ZM186,75.09c-1.6,1.54-1.3,4.37.68,6.42s4.8,2.44,6.4.89,1.31-4.38-.67-6.43S187.66,73.53,186,75.09Zm20.69,32.05c-1.61,1.55-1.31,4.38.68,6.43s4.8,2.44,6.4.89,1.31-4.38-.67-6.43S208.34,105.58,206.73,107.14ZM197.56,64c-1.6,1.55-1.31,4.37.68,6.42s4.79,2.45,6.4.9,1.31-4.38-.68-6.43S199.17,62.39,197.56,64ZM159.88,84.27c-1.61,1.55-1.31,4.38.68,6.43s4.79,2.44,6.4.89,1.31-4.38-.68-6.43S161.48,82.71,159.88,84.27Zm48.59,37.31c-1.61,1.55-1.32,4.38.67,6.43s4.8,2.44,6.41.88,1.3-4.37-.68-6.42S210.07,120,208.47,121.58Zm-31.55-19.7c-1.61,1.55-1.31,4.38.67,6.43s4.8,2.45,6.41.89,1.31-4.37-.68-6.42S178.52,100.33,176.92,101.88ZM174.4,86.35c-1.61,1.55-1.32,4.38.67,6.43s4.8,2.44,6.41.89,1.3-4.38-.69-6.43S176,84.8,174.4,86.35Zm17,17.62c-1.61,1.55-1.32,4.38.67,6.43s4.8,2.43,6.4.88,1.31-4.37-.68-6.42S193,102.42,191.44,104Z"/><path class="cls-16" d="M153.16,97.85c1.16,1.21,1.49,2.8.72,3.54s-2.34.36-3.5-.85-1.5-2.78-.73-3.53S152,96.65,153.16,97.85Z"/><path class="cls-16" d="M164.81,86.59c1.16,1.2,1.49,2.79.72,3.52s-2.34.37-3.5-.84-1.49-2.79-.72-3.53S163.64,85.37,164.81,86.59Z"/><path class="cls-16" d="M177.59,74.23c1.16,1.21,1.49,2.78.72,3.53s-2.34.36-3.5-.84-1.49-2.8-.73-3.54S176.42,73,177.59,74.23Z"/><path class="cls-16" d="M189.24,63c1.16,1.2,1.5,2.78.73,3.53s-2.34.35-3.5-.85-1.5-2.78-.73-3.53S188.07,61.75,189.24,63Z"/><path class="cls-16" d="M156.24,111c1.17,1.21,1.49,2.79.73,3.53s-2.34.36-3.51-.84-1.49-2.79-.72-3.53S155.07,109.78,156.24,111Z"/><path class="cls-16" d="M166.55,101c1.16,1.21,1.49,2.79.72,3.54s-2.34.36-3.5-.85-1.49-2.79-.73-3.52S165.38,99.81,166.55,101Z"/><path class="cls-16" d="M179.32,88.67c1.17,1.2,1.49,2.78.73,3.52s-2.34.37-3.51-.84-1.48-2.78-.71-3.53S178.15,87.46,179.32,88.67Z"/><path class="cls-16" d="M191,77.39c1.16,1.21,1.49,2.79.72,3.53s-2.33.37-3.5-.84-1.49-2.78-.73-3.52S189.81,76.19,191,77.39Z"/><path class="cls-16" d="M202.49,66.26c1.17,1.21,1.5,2.79.72,3.53s-2.33.36-3.5-.85-1.49-2.78-.72-3.52S201.32,65.05,202.49,66.26Z"/><path class="cls-16" d="M170.19,115.47c1.17,1.21,1.49,2.79.73,3.53s-2.34.37-3.51-.84-1.49-2.79-.72-3.53S169,114.27,170.19,115.47Z"/><path class="cls-16" d="M181.85,104.2c1.17,1.21,1.48,2.79.72,3.52s-2.33.38-3.5-.83-1.49-2.79-.72-3.53S180.68,103,181.85,104.2Z"/><path class="cls-16" d="M194.62,91.84c1.17,1.21,1.49,2.79.73,3.53s-2.34.36-3.5-.84-1.49-2.79-.73-3.53S193.45,90.63,194.62,91.84Z"/><path class="cls-16" d="M206.27,80.57c1.17,1.21,1.5,2.78.73,3.53s-2.33.36-3.5-.85-1.49-2.77-.72-3.52S205.11,79.37,206.27,80.57Z"/><path class="cls-16" d="M183.58,118.64c1.17,1.21,1.5,2.79.73,3.54s-2.34.35-3.5-.85-1.5-2.79-.73-3.53S182.42,117.43,183.58,118.64Z"/><path class="cls-16" d="M196.36,106.29c1.16,1.2,1.49,2.78.73,3.52s-2.34.36-3.51-.84-1.49-2.79-.72-3.54S195.19,105.08,196.36,106.29Z"/><path class="cls-16" d="M208,95c1.17,1.21,1.5,2.79.73,3.53s-2.34.36-3.5-.84-1.49-2.79-.73-3.53S206.85,93.8,208,95Z"/><path class="cls-16" d="M198.88,121.82c1.17,1.2,1.5,2.78.73,3.52s-2.34.37-3.51-.84-1.49-2.79-.72-3.53S197.71,120.6,198.88,121.82Z"/><path class="cls-16" d="M211.66,109.46c1.16,1.2,1.5,2.78.72,3.53s-2.33.36-3.5-.84-1.49-2.8-.72-3.54S210.49,108.25,211.66,109.46Z"/><path class="cls-16" d="M213.39,123.9c1.17,1.2,1.49,2.78.73,3.52s-2.34.36-3.5-.84-1.49-2.78-.72-3.53S212.23,122.69,213.39,123.9Z"/><path class="cls-20" d="M158.73,96.36c.63,4.46.35,8.35-2.8,8.88s-6.24-2.65-6.88-7.13,1.41-8.52,4.57-9S158.09,91.89,158.73,96.36Z"/><path class="cls-12" d="M243.59,15.65c-1.83,6.42-6.62,13.92-9.66,13.05s-3.19-9.76-1.37-16.18,8.81-10,8.81-10S245.4,9.24,243.59,15.65Z"/><path class="cls-13" d="M231.35,9.24c2.21,6,3,14.27.53,15.1s-7.33-6.07-9.54-12,.5-12.33.5-12.33S229.14,3.29,231.35,9.24Z"/><path class="cls-12" d="M222.6,10.51c3.39,3.85,6.44,9.85,4.85,11.19s-7.2-2.5-10.59-6.35S213.59,6,213.59,6,219.21,6.66,222.6,10.51Z"/><path class="cls-13" d="M246.34,13.5c-5,3.9-10.06,10.55-8.38,12.57s9.42-1.32,14.43-5.22,6.05-10.74,6.05-10.74S251.35,9.6,246.34,13.5Z"/><path class="cls-12" d="M253.12,19.18c-4.91,1.49-10.65,5-10,7s7.44,1.66,12.35.17,7.7-6.27,7.7-6.27S258,17.68,253.12,19.18Z"/><path class="cls-21" d="M266.62,44.4c-2.94-10.1-11.93-16-22.09-18.86l-9-2.55-9-2.55c-10.16-2.88-20.9-2.6-28.71,4.45s-10.54,16.83-9.45,26.47c1.56,13.77,6.2,19.67,10.2,31.23,2,5.89,3.69,15.08,14.74,18.59,11.25,2.82,17.5-4.13,22.31-8.07,9.48-7.74,16.54-10.31,25.1-21.21C266.74,64.27,269.57,54.5,266.62,44.4Z"/><path class="cls-22" d="M199.65,31.65c-2.15-.61-4.44,1.06-5.22,3.8s.29,5.38,2.44,6,4.44-1.07,5.22-3.81S201.79,32.26,199.65,31.65ZM202.77,46c-2.15-.61-4.44,1.07-5.22,3.81s.29,5.37,2.44,6,4.44-1,5.22-3.8S204.92,46.57,202.77,46Zm10.67-10.4c-2.15-.6-4.44,1.07-5.22,3.81s.29,5.38,2.44,6,4.44-1.07,5.22-3.81S215.59,36.17,213.44,35.56Zm-6.7,23.58c-2.14-.61-4.43,1.06-5.21,3.81s.29,5.37,2.43,6,4.45-1.06,5.23-3.81S208.9,59.75,206.74,59.14Zm32.64-17.68c2.15.61,4.44-1.06,5.22-3.8s-.29-5.38-2.44-6-4.44,1.06-5.22,3.81S237.23,40.85,239.38,41.46ZM255,45.89c2.15.61,4.43-1.06,5.21-3.81s-.28-5.38-2.43-6-4.44,1.07-5.22,3.82S252.83,45.28,255,45.89ZM211.68,74c-2.15-.61-4.45,1.07-5.23,3.81s.29,5.38,2.45,6,4.44-1.07,5.22-3.81S213.83,74.57,211.68,74Zm-5-41.78c2.15.61,4.44-1.06,5.22-3.8s-.29-5.38-2.44-6-4.44,1.07-5.22,3.82S204.53,31.57,206.68,32.18Zm26,32.85c2.15.61,4.44-1.05,5.22-3.8s-.29-5.38-2.44-6-4.45,1.07-5.23,3.81S230.54,64.43,232.69,65Zm18.38-5.36c-2.15-.61-4.45,1.07-5.23,3.81s.3,5.37,2.45,6,4.43-1,5.21-3.8S253.21,60.28,251.07,59.67Zm-11.63,8.75c-2.14-.61-4.44,1.06-5.22,3.81s.3,5.37,2.44,6,4.45-1.06,5.23-3.81S241.59,69,239.44,68.42Zm6.69-23.57c-2.14-.61-4.43,1.06-5.22,3.8s.3,5.38,2.44,6,4.45-1.07,5.23-3.81S248.29,45.46,246.13,44.85Zm-17.36,34c-2.14-.61-4.44,1.07-5.21,3.81s.29,5.38,2.43,6,4.45-1.07,5.23-3.81S230.93,79.43,228.77,78.82Zm32.77-29.6c-2.15-.61-4.44,1.06-5.22,3.8s.3,5.38,2.44,6,4.45-1.07,5.23-3.81S263.7,49.83,261.54,49.22ZM225.06,26.81c-2.15-.61-4.44,1.06-5.22,3.81s.29,5.37,2.44,6,4.44-1.06,5.22-3.81S227.21,27.42,225.06,26.81Zm-7.9,60.75c-2.15-.61-4.45,1.06-5.23,3.82s.3,5.37,2.45,6,4.44-1.07,5.21-3.81S219.3,88.17,217.16,87.56Zm1.21-37.17c-2.15-.61-4.45,1.07-5.23,3.81s.3,5.37,2.45,6,4.44-1,5.22-3.8S220.52,51,218.37,50.39Zm12.17-10c-2.14-.61-4.44,1.06-5.22,3.8s.29,5.39,2.44,6,4.44-1.07,5.22-3.81S232.68,41,230.54,40.42ZM223.85,64c-2.15-.61-4.45,1.06-5.23,3.81s.3,5.37,2.45,6,4.44-1.06,5.22-3.82S226,64.6,223.85,64Z"/><path class="cls-16" d="M209.93,27.82c-.45,1.6-1.66,2.69-2.69,2.39s-1.49-1.84-1-3.45,1.67-2.69,2.69-2.4S210.39,26.2,209.93,27.82Z"/><path class="cls-16" d="M225.53,32.24c-.46,1.61-1.66,2.69-2.69,2.4s-1.49-1.84-1-3.45,1.66-2.69,2.69-2.4S226,30.62,225.53,32.24Z"/><path class="cls-16" d="M242.63,37.1c-.46,1.6-1.66,2.69-2.69,2.4s-1.49-1.85-1-3.46,1.67-2.69,2.69-2.4S243.09,35.48,242.63,37.1Z"/><path class="cls-16" d="M258.22,41.52c-.46,1.61-1.65,2.69-2.68,2.4s-1.49-1.84-1-3.45,1.66-2.69,2.69-2.4S258.68,39.9,258.22,41.52Z"/><path class="cls-16" d="M200.12,37.07c-.47,1.61-1.67,2.69-2.69,2.4s-1.49-1.84-1-3.45,1.66-2.69,2.69-2.4S200.57,35.45,200.12,37.07Z"/><path class="cls-16" d="M213.91,41c-.46,1.61-1.66,2.68-2.69,2.4s-1.49-1.84-1-3.46,1.66-2.69,2.69-2.4S214.37,39.37,213.91,41Z"/><path class="cls-16" d="M231,45.84c-.46,1.62-1.67,2.69-2.69,2.4s-1.49-1.84-1-3.46S229,42.1,230,42.39,231.47,44.22,231,45.84Z"/><path class="cls-16" d="M246.61,50.26c-.46,1.63-1.66,2.7-2.7,2.4s-1.48-1.83-1-3.45,1.66-2.69,2.68-2.39S247.07,48.65,246.61,50.26Z"/><path class="cls-16" d="M262,54.64c-.46,1.62-1.66,2.69-2.68,2.4s-1.49-1.83-1-3.45S260,50.9,261,51.19,262.47,53,262,54.64Z"/><path class="cls-16" d="M203.24,51.39c-.46,1.62-1.66,2.69-2.69,2.39s-1.49-1.83-1-3.44,1.66-2.69,2.69-2.4S203.7,49.77,203.24,51.39Z"/><path class="cls-16" d="M218.83,55.82c-.45,1.61-1.65,2.68-2.68,2.39s-1.49-1.83-1-3.45,1.66-2.68,2.69-2.39S219.29,54.2,218.83,55.82Z"/><path class="cls-16" d="M235.94,60.67c-.46,1.62-1.66,2.69-2.69,2.39s-1.49-1.83-1-3.45,1.66-2.68,2.69-2.39S236.4,59.05,235.94,60.67Z"/><path class="cls-16" d="M251.53,65.1c-.46,1.61-1.65,2.68-2.68,2.39s-1.49-1.83-1-3.45,1.65-2.68,2.69-2.39S252,63.48,251.53,65.1Z"/><path class="cls-16" d="M207.22,64.56c-.46,1.62-1.67,2.7-2.7,2.4s-1.48-1.84-1-3.45,1.66-2.69,2.68-2.4S207.67,63,207.22,64.56Z"/><path class="cls-16" d="M224.32,69.42c-.46,1.61-1.67,2.69-2.69,2.4s-1.49-1.85-1-3.46,1.66-2.69,2.69-2.39S224.77,67.8,224.32,69.42Z"/><path class="cls-16" d="M239.91,73.84c-.45,1.62-1.65,2.7-2.69,2.4s-1.48-1.84-1-3.45,1.66-2.69,2.68-2.4S240.37,72.23,239.91,73.84Z"/><path class="cls-16" d="M212.15,79.39c-.46,1.61-1.67,2.69-2.69,2.4s-1.49-1.84-1-3.46,1.66-2.68,2.69-2.4S212.6,77.77,212.15,79.39Z"/><path class="cls-16" d="M229.24,84.25c-.45,1.6-1.66,2.68-2.69,2.4s-1.48-1.85-1-3.47,1.67-2.68,2.69-2.39S229.7,82.62,229.24,84.25Z"/><path class="cls-16" d="M217.62,93c-.45,1.62-1.66,2.69-2.68,2.39s-1.49-1.83-1-3.44,1.66-2.69,2.69-2.4S218.08,91.38,217.62,93Z"/><path class="cls-20" d="M214,31.88c-3.54,2.8-7,4.5-9.08,2s-.84-6.73,2.71-9.52,8.08-3.06,10.12-.6S217.57,29.09,214,31.88Z"/><path class="cls-23" d="M222,53.64c-10.65,2.21-19.24,10-28.88,15.48,1.73,4.17,3.66,8.25,5.47,13.47,2,5.89,3.69,15.08,14.74,18.59,11.25,2.82,17.5-4.13,22.31-8.07,9.14-7.46,16-10.19,24.2-20.16C252.83,60.26,235.1,50.93,222,53.64Z"/><path class="cls-12" d="M71.38,89.13c5.59,2.56,11.75,8,10.53,10.63s-9.34,1.53-14.93-1-7.91-9.43-7.91-9.43S65.8,86.57,71.38,89.13Z"/><path class="cls-13" d="M63.82,99.38c5.74-1.17,13.42-.75,13.84,1.63s-6.56,5.84-12.29,7-11.17-2.19-11.17-2.19S58.08,100.56,63.82,99.38Z"/><path class="cls-12" d="M63.75,107.53c4-2.55,9.87-4.49,10.87-2.85s-3.29,6.21-7.27,8.76-9,1.66-9,1.66S59.77,110.08,63.75,107.53Z"/><path class="cls-13" d="M69.81,86.31C72.66,91.43,78,97,80.08,95.71s.13-8.76-2.72-13.87-9-7-9-7S67,81.2,69.81,86.31Z"/><path class="cls-12" d="M75.93,80.94c.67,4.68,3,10.4,4.94,10.09s2.56-6.55,1.89-11.23-4.63-7.9-4.63-7.9S75.25,76.26,75.93,80.94Z"/><path class="cls-24" d="M100.81,72.18c-9.62,1.26-16.24,8.62-20.29,17.48l-3.59,7.82-3.58,7.83c-4,8.85-5.31,18.67,0,26.78s13.85,12,22.79,12.33c12.77.52,18.79-2.89,29.89-4.91,5.64-1,14.25-1.25,19-10.83,4.15-9.84-1.3-16.51-4.22-21.46-5.72-9.72-7.07-16.5-15.8-25.83C118.93,74.86,110.43,70.92,100.81,72.18Z"/><path class="cls-25" d="M79.78,131.41c-.85,1.87.35,4.19,2.74,5.29s4.94.49,5.8-1.38-.35-4.2-2.74-5.29S80.64,129.54,79.78,131.41Zm13.49-.83c-.86,1.87.34,4.19,2.74,5.28s4.93.49,5.79-1.38-.34-4.19-2.74-5.29S94.12,128.7,93.27,130.58Zm-8-11.18c-.86,1.87.34,4.19,2.74,5.29s4.93.48,5.79-1.38-.35-4.2-2.74-5.3S86.14,117.52,85.29,119.4Zm20.54,9.41c-.85,1.87.35,4.19,2.74,5.28s4.93.49,5.79-1.38-.34-4.2-2.74-5.29S106.69,126.93,105.83,128.81ZM94.31,96.59c.85-1.88-.35-4.2-2.74-5.3s-4.94-.48-5.8,1.39.35,4.2,2.74,5.29S93.45,98.46,94.31,96.59ZM100.53,83c.86-1.87-.34-4.2-2.74-5.29s-4.94-.49-5.79,1.38.34,4.19,2.74,5.29S99.67,84.87,100.53,83ZM120,126.39c-.86,1.88.34,4.2,2.74,5.3s4.94.49,5.79-1.39-.34-4.19-2.73-5.3S120.89,124.52,120,126.39Zm-38.77-1.31c.85-1.88-.35-4.2-2.74-5.3s-4.94-.49-5.8,1.39.35,4.19,2.75,5.29S80.4,127,81.26,125.08ZM114.85,106c.85-1.88-.34-4.2-2.74-5.3s-4.94-.49-5.8,1.39.35,4.2,2.74,5.29S114,107.87,114.85,106Zm-2.31-17.5c-.86,1.87.34,4.2,2.74,5.29s4.93.48,5.79-1.38-.34-4.19-2.74-5.29S113.39,86.62,112.54,88.5Zm6.34,11.82c-.86,1.87.34,4.19,2.74,5.29s4.93.48,5.79-1.38-.34-4.21-2.74-5.3S119.74,98.44,118.88,100.32ZM98.33,90.91c-.85,1.87.35,4.19,2.74,5.29s4.94.49,5.8-1.38-.35-4.2-2.74-5.3S99.19,89,98.33,90.91Zm28.52,20.58c-.86,1.88.35,4.2,2.74,5.3s4.94.49,5.8-1.39-.35-4.19-2.74-5.29S127.71,109.62,126.85,111.49Zm-22.37-34c-.85,1.86.35,4.19,2.74,5.28s4.94.49,5.8-1.38-.35-4.2-2.74-5.29S105.34,75.6,104.48,77.49ZM79,107.58c-.86,1.87.34,4.19,2.74,5.3s4.93.48,5.79-1.39-.34-4.2-2.73-5.3S79.81,105.71,79,107.58Zm54.24,15.73c-.86,1.87.34,4.19,2.74,5.3s4.94.48,5.8-1.39-.36-4.19-2.75-5.29S134.05,121.44,133.19,123.31ZM99.49,117c-.86,1.88.34,4.21,2.74,5.3s4.93.49,5.79-1.39-.33-4.19-2.73-5.29S100.35,115.12,99.49,117ZM92.11,104.5c-.86,1.86.34,4.19,2.74,5.29s4.94.48,5.8-1.39-.36-4.19-2.75-5.29S93,102.63,92.11,104.5Zm20.55,9.4c-.86,1.87.34,4.21,2.73,5.3s4.94.48,5.79-1.39-.34-4.19-2.73-5.28S113.51,112,112.66,113.9Z"/><path class="cls-16" d="M77.73,121.5c1.41.65,2.22,1.9,1.82,2.79s-1.89,1.09-3.3.45S74,122.85,74.44,122,76.33,120.86,77.73,121.5Z"/><path class="cls-16" d="M84,107.91c1.4.65,2.22,1.9,1.81,2.79s-1.89,1.09-3.29.46-2.22-1.9-1.81-2.8S82.55,107.27,84,107.91Z"/><path class="cls-16" d="M90.78,93c1.41.65,2.22,1.9,1.81,2.8s-1.89,1.09-3.29.44-2.22-1.89-1.81-2.78S89.37,92.37,90.78,93Z"/><path class="cls-16" d="M97,79.43c1.4.65,2.22,1.89,1.81,2.79s-1.89,1.08-3.3.45-2.22-1.89-1.8-2.79S95.6,78.78,97,79.43Z"/><path class="cls-16" d="M84.79,131.74c1.41.65,2.22,1.9,1.81,2.79s-1.88,1.09-3.29.45-2.22-1.89-1.81-2.78S83.38,131.1,84.79,131.74Z"/><path class="cls-16" d="M90.3,119.73c1.4.64,2.21,1.89,1.8,2.79s-1.88,1.1-3.29.45-2.21-1.9-1.8-2.79S88.88,119.08,90.3,119.73Z"/><path class="cls-16" d="M97.12,104.83c1.41.65,2.21,1.9,1.81,2.78s-1.89,1.1-3.3.46-2.21-1.89-1.8-2.79S95.71,104.19,97.12,104.83Z"/><path class="cls-16" d="M103.34,91.24c1.41.65,2.22,1.89,1.81,2.79s-1.88,1.09-3.29.45-2.21-1.9-1.81-2.78S101.93,90.6,103.34,91.24Z"/><path class="cls-16" d="M109.49,77.81c1.41.65,2.22,1.89,1.81,2.79s-1.88,1.1-3.29.45-2.22-1.89-1.81-2.78S108.08,77.17,109.49,77.81Z"/><path class="cls-16" d="M98.28,130.91c1.4.64,2.21,1.89,1.8,2.78s-1.88,1.11-3.29.46-2.21-1.89-1.8-2.79S96.87,130.26,98.28,130.91Z"/><path class="cls-16" d="M104.5,117.32c1.41.64,2.21,1.89,1.8,2.79s-1.88,1.1-3.29.45-2.21-1.89-1.8-2.79S103.09,116.67,104.5,117.32Z"/><path class="cls-16" d="M111.32,102.42c1.41.65,2.22,1.89,1.81,2.79s-1.88,1.1-3.29.45-2.21-1.89-1.81-2.78S109.91,101.78,111.32,102.42Z"/><path class="cls-16" d="M117.54,88.84c1.41.64,2.22,1.88,1.81,2.78s-1.88,1.1-3.29.45-2.21-1.89-1.8-2.79S116.14,88.19,117.54,88.84Z"/><path class="cls-16" d="M110.84,129.13c1.4.65,2.22,1.9,1.8,2.8s-1.88,1.09-3.28.45-2.22-1.9-1.81-2.79S109.43,128.49,110.84,129.13Z"/><path class="cls-16" d="M117.66,114.24c1.4.64,2.22,1.89,1.81,2.78s-1.89,1.1-3.29.45-2.22-1.88-1.81-2.78S116.25,113.59,117.66,114.24Z"/><path class="cls-16" d="M123.89,100.65c1.4.64,2.21,1.89,1.8,2.79s-1.88,1.09-3.29.44-2.22-1.88-1.81-2.78S122.48,100,123.89,100.65Z"/><path class="cls-16" d="M125,126.72c1.4.65,2.22,1.9,1.81,2.8s-1.89,1.09-3.29.45-2.23-1.89-1.81-2.79S123.63,126.08,125,126.72Z"/><path class="cls-16" d="M131.86,111.83c1.4.64,2.22,1.89,1.81,2.79s-1.89,1.09-3.29.45-2.22-1.9-1.81-2.79S130.45,111.18,131.86,111.83Z"/><path class="cls-16" d="M138.2,123.64c1.41.65,2.21,1.9,1.81,2.79s-1.89,1.09-3.29.46-2.22-1.9-1.81-2.8S136.79,123,138.2,123.64Z"/><path class="cls-20" d="M96.6,88c-2.31,3.45-4.89,5.94-7.38,4.36s-2.66-5.65-.34-9.11,6.21-5,8.71-3.41S98.92,84.52,96.6,88Z"/><path class="cls-26" d="M133.93,93.9c-29.8-4.38-18.31,41.49-49.73,44.08-1.15.1-1.88,1.18-2.82,1.78a29.65,29.65,0,0,0,14.79,4.66c12.77.52,18.79-2.89,29.89-4.91,5.64-1,14.25-1.25,19-10.83,4.15-9.84-1.3-16.51-4.22-21.46S136.13,98.06,133.93,93.9Z"/><path class="cls-12" d="M138.8,31.66c2.09,6.34,2.32,15.24-.68,16.22s-8.11-6.29-10.2-12.62S129.58,22,129.58,22,136.72,25.35,138.8,31.66Z"/><path class="cls-13" d="M125.08,33.22c5.16,3.69,10.49,10.12,8.9,12.21s-9.47-.92-14.64-4.6-6.5-10.49-6.5-10.49S119.9,29.53,125.08,33.22Z"/><path class="cls-12" d="M118.54,39.18c5,1.29,10.86,4.54,10.29,6.54s-7.37,2-12.32.68-8-5.94-8-5.94S113.58,37.89,118.54,39.18Z"/><path class="cls-13" d="M139.88,28.34c-2,6-2.42,14.38.11,15.11s7.06-6.37,9-12.41-1-12.29-1-12.29S141.84,22.29,139.88,28.34Z"/><path class="cls-12" d="M148.67,29.24c-3.22,4-6,10.11-4.37,11.38s7.09-2.8,10.31-6.79,2.87-9.52,2.87-9.52S151.89,25.25,148.67,29.24Z"/><path class="cls-27" d="M174,42.56c-8.09-6.71-18.83-6.54-28.87-3.23l-8.86,2.92-8.87,2.93c-10,3.3-18.76,9.56-21.27,19.77s.71,19.86,7,27.23c9,10.53,16.17,12.81,26,20.14,5,3.74,11.51,10.42,22.63,7.12,10.9-4,12.17-13.23,13.95-19.19,3.51-11.72,7.91-17.81,8.88-31.64C185.23,58.94,182.1,49.28,174,42.56Z"/><path class="cls-28" d="M111.39,69.55c-2.12.7-3.09,3.37-2.19,6.07s3.26,4.3,5.38,3.6,3.08-3.38,2.18-6.09S113.5,68.85,111.39,69.55ZM122,79.65c-2.13.7-3.08,3.37-2.19,6.08s3.26,4.29,5.37,3.59,3.09-3.36,2.2-6.08S124.12,79,122,79.65Zm3-14.59c-2.12.7-3.08,3.36-2.19,6.08s3.26,4.29,5.38,3.59,3.08-3.38,2.19-6.09S127.12,64.36,125,65.06Zm7.68,23.28c-2.12.69-3.08,3.37-2.19,6.08s3.25,4.28,5.37,3.58,3.09-3.37,2.19-6.08S134.8,87.63,132.68,88.34ZM149.79,55.4c2.12-.7,3.09-3.37,2.19-6.08s-3.25-4.29-5.38-3.59-3.08,3.37-2.19,6.09S147.67,56.1,149.79,55.4Zm15.4-5.08c2.12-.7,3.08-3.37,2.18-6.08S164.12,40,162,40.66s-3.08,3.36-2.19,6.07S163.07,51,165.19,50.32ZM145.07,97.84c-2.12.7-3.08,3.38-2.19,6.09s3.26,4.28,5.38,3.59,3.09-3.38,2.19-6.09S147.19,97.15,145.07,97.84ZM117.51,66c2.13-.69,3.08-3.37,2.19-6.07s-3.25-4.29-5.38-3.59-3.08,3.37-2.18,6.08S115.39,66.75,117.51,66Zm40,12.63c2.12-.7,3.08-3.36,2.19-6.08S156.4,68.3,154.28,69s-3.09,3.37-2.19,6.09S155.34,79.37,157.47,78.67Zm12.21-14.75c-2.12.7-3.09,3.38-2.19,6.09s3.25,4.28,5.38,3.58,3.07-3.36,2.18-6.07S171.8,63.22,169.68,63.92ZM165,77.69c-2.12.7-3.09,3.37-2.19,6.08s3.26,4.28,5.37,3.58,3.09-3.37,2.2-6.07S167.08,77,165,77.69Zm-7.68-23.28c-2.12.7-3.08,3.37-2.19,6.08s3.26,4.29,5.37,3.6,3.09-3.38,2.2-6.1S159.4,53.71,157.28,54.41ZM162,92.27c-2.12.71-3.08,3.38-2.19,6.09s3.26,4.29,5.38,3.59,3.09-3.38,2.19-6.09S164.08,91.57,162,92.27Zm10.54-42.88c-2.12.71-3.08,3.37-2.19,6.08s3.26,4.29,5.38,3.6,3.08-3.38,2.19-6.09S174.62,48.69,172.49,49.39ZM129.72,51.3c-2.12.7-3.09,3.37-2.19,6.08s3.26,4.29,5.38,3.59,3.08-3.37,2.19-6.08S131.84,50.6,129.72,51.3ZM157.24,106c-2.12.7-3.09,3.37-2.2,6.09s3.27,4.28,5.39,3.59,3.07-3.38,2.18-6.09S159.35,105.34,157.24,106ZM137.39,74.57c-2.12.7-3.08,3.38-2.18,6.09s3.25,4.28,5.37,3.58,3.09-3.36,2.2-6.08S139.52,73.87,137.39,74.57Zm4.5-15.08c-2.13.7-3.09,3.37-2.2,6.08s3.26,4.29,5.39,3.59,3.07-3.38,2.18-6.09S144,58.79,141.89,59.49Zm7.67,23.27c-2.12.71-3.08,3.37-2.19,6.09s3.26,4.28,5.38,3.58,3.08-3.37,2.18-6.08S151.68,82.07,149.56,82.76Z"/><path class="cls-16" d="M117.75,60.61c.53,1.59.14,3.16-.88,3.5s-2.26-.7-2.79-2.29-.13-3.16.88-3.5S117.22,59,117.75,60.61Z"/><path class="cls-16" d="M133.15,55.53c.52,1.59.14,3.16-.88,3.49s-2.27-.69-2.79-2.28-.13-3.15.88-3.49S132.63,53.94,133.15,55.53Z"/><path class="cls-16" d="M150,50c.53,1.6.14,3.16-.88,3.5s-2.27-.7-2.79-2.28-.13-3.17.88-3.5S149.51,48.37,150,50Z"/><path class="cls-16" d="M165.43,44.89c.52,1.58.14,3.16-.88,3.49s-2.26-.7-2.79-2.28-.14-3.16.88-3.5S164.9,43.29,165.43,44.89Z"/><path class="cls-16" d="M114.81,73.78c.53,1.59.14,3.16-.88,3.49s-2.26-.69-2.78-2.28-.13-3.16.88-3.49S114.29,72.18,114.81,73.78Z"/><path class="cls-16" d="M128.43,69.29c.53,1.59.13,3.16-.88,3.49s-2.26-.69-2.79-2.29-.13-3.15.88-3.49S127.9,67.69,128.43,69.29Z"/><path class="cls-16" d="M145.31,63.71c.53,1.6.13,3.17-.88,3.5s-2.26-.69-2.79-2.28-.13-3.16.89-3.49S144.79,62.12,145.31,63.71Z"/><path class="cls-16" d="M160.71,58.64c.53,1.59.14,3.16-.89,3.49s-2.25-.68-2.78-2.29-.13-3.15.88-3.48S160.18,57.05,160.71,58.64Z"/><path class="cls-16" d="M175.92,53.62c.53,1.6.14,3.16-.88,3.5s-2.26-.69-2.78-2.29-.14-3.15.87-3.48S175.39,52,175.92,53.62Z"/><path class="cls-16" d="M125.43,83.88c.53,1.6.13,3.16-.89,3.49s-2.25-.68-2.78-2.28-.13-3.16.88-3.48S124.9,82.29,125.43,83.88Z"/><path class="cls-16" d="M140.83,78.8c.52,1.6.13,3.16-.89,3.49s-2.26-.68-2.78-2.28-.13-3.15.88-3.49S140.3,77.2,140.83,78.8Z"/><path class="cls-16" d="M157.71,73.23c.52,1.6.13,3.16-.89,3.5S154.56,76,154,74.45s-.13-3.16.88-3.49S157.18,71.64,157.71,73.23Z"/><path class="cls-16" d="M173.1,68.16c.53,1.6.14,3.15-.88,3.48S170,71,169.44,69.36s-.14-3.15.88-3.48S172.57,66.56,173.1,68.16Z"/><path class="cls-16" d="M136.11,92.56c.52,1.59.13,3.16-.89,3.5s-2.26-.7-2.78-2.29-.13-3.16.88-3.49S135.58,91,136.11,92.56Z"/><path class="cls-16" d="M153,87c.52,1.58.13,3.15-.88,3.48s-2.27-.68-2.79-2.28-.13-3.15.88-3.49S152.46,85.4,153,87Z"/><path class="cls-16" d="M168.39,81.91c.52,1.6.13,3.16-.89,3.5s-2.26-.7-2.78-2.28-.13-3.17.87-3.5S167.86,80.32,168.39,81.91Z"/><path class="cls-16" d="M148.5,102.07c.53,1.6.14,3.16-.88,3.5s-2.27-.7-2.79-2.28-.13-3.16.89-3.5S148,100.48,148.5,102.07Z"/><path class="cls-16" d="M165.38,96.51c.53,1.59.14,3.16-.88,3.49s-2.26-.69-2.79-2.29-.12-3.15.88-3.48S164.86,94.91,165.38,96.51Z"/><path class="cls-16" d="M160.66,110.26c.53,1.6.13,3.16-.87,3.49s-2.27-.68-2.79-2.27-.13-3.17.88-3.5S160.14,108.67,160.66,110.26Z"/><path class="cls-20" d="M123.42,61.68c-1.37,4.3-3.31,7.67-6.38,6.78s-4.47-5.1-3.09-9.4,5-7.06,8-6.17S124.79,57.39,123.42,61.68Z"/><path class="cls-29" d="M148.92,75.76c-11.71-2.4-23.26-5.74-29.2,6-2.4,4.77-2,10.9.64,17.53,6,5,11.68,7.7,18.73,13,5,3.75,11.51,10.43,22.63,7.13,10.9-4,12.17-13.23,13.95-19.19,3.37-11.24,7.52-17.37,8.71-30C167,61.12,163.33,78.73,148.92,75.76Z"/><path class="cls-12" d="M342.62,109.45c-4.83,2.53-12,3.91-13.17,1.62s4-7.38,8.82-9.91,10.9-.43,10.9-.43S347.44,106.93,342.62,109.45Z"/><path class="cls-13" d="M339.53,98.59c-2.28,4.66-6.75,9.81-8.65,8.82s-.52-7.77,1.75-12.43,7.59-6.64,7.59-6.64S341.82,93.93,339.53,98.59Z"/><path class="cls-12" d="M333.85,94.13c-.37,4.17-2.21,9.35-3.89,9.16s-2.57-5.67-2.2-9.84a12.56,12.56,0,0,1,3.73-7.23S334.23,90,333.85,94.13Z"/><path class="cls-13" d="M345.44,109.88c-5.13-.77-11.91,0-12.16,2.1s6.08,4.84,11.21,5.62,9.77-2.46,9.77-2.46S350.58,110.65,345.44,109.88Z"/><path class="cls-12" d="M345.89,117.09c-3.64-2.07-8.95-3.51-9.75-2s3.2,5.34,6.85,7.41a12.52,12.52,0,0,0,8.05,1S349.54,119.15,345.89,117.09Z"/><path class="cls-30" d="M338.53,139.28c4.34-7.42,2.77-16.07-1.24-23.71l-3.54-6.75-3.54-6.76c-4-7.64-10.22-13.85-18.79-14.51s-15.91,3.22-21,9.29c-7.29,8.67-8.17,14.74-12.78,23.62-2.34,4.51-6.86,10.66-2.72,19.19,4.66,8.26,12.29,8.06,17.34,8.69,9.92,1.26,15.41,4,26.69,2.94C326.83,150.53,334.21,146.71,338.53,139.28Z"/><path class="cls-31" d="M308.41,92.41c-.84-1.62-3.12-2-5.19-1s-3,3.19-2.17,4.81,3.13,2,5.19,1S309.26,94,308.41,92.41Zm-6.72,9.9c-.85-1.61-3.13-2-5.2-.94s-3,3.19-2.17,4.8,3.12,2,5.19,1S302.54,103.93,301.69,102.31Zm12.16.47c-.84-1.61-3.12-2-5.19-1s-3,3.2-2.18,4.82,3.13,2,5.2.95S314.7,104.4,313.85,102.78Zm-17.74,9.3c-.84-1.61-3.12-2-5.19-.94s-3,3.19-2.17,4.8,3.12,2,5.19,1S297,113.7,296.11,112.08Zm28.84,9.4c.85,1.62,3.13,2,5.2,1s3-3.2,2.17-4.82-3.13-2-5.2-1S324.1,119.87,325,121.48Zm6.15,11.74c.85,1.62,3.13,2,5.19.95s3-3.2,2.18-4.81-3.12-2-5.19-1S330.26,131.6,331.1,133.22Zm-41-9.87c-.85-1.62-3.13-2-5.2-1s-3,3.2-2.17,4.82,3.13,2,5.2,1S291,125,290.1,123.35Zm22-26.47c.85,1.62,3.12,2,5.19,1s3-3.2,2.18-4.81-3.13-2-5.2-1S311.21,95.26,312.06,96.88Zm-4.85,33.89c.85,1.63,3.13,2,5.2,1s3-3.2,2.17-4.83-3.13-2-5.19-.94S306.37,129.16,307.21,130.77Zm13.53,7.88c-.85-1.61-3.14-2-5.2-1s-3,3.2-2.17,4.82,3.12,2,5.19.94S321.58,140.27,320.74,138.65Zm-11.73-2c-.85-1.61-3.13-2-5.2-.94s-3,3.19-2.17,4.81,3.13,2,5.19.95S309.86,138.31,309,136.68Zm17.74-9.3c-.85-1.61-3.13-2-5.2-.94s-3,3.2-2.17,4.81,3.13,2,5.2.95S327.6,129,326.75,127.38Zm-29.9,8.83c-.85-1.62-3.13-2-5.2-1s-3,3.2-2.18,4.81,3.14,2,5.2,1S297.7,137.84,296.85,136.21Zm36,2.77c-.85-1.61-3.13-2-5.2-.95s-3,3.2-2.17,4.82,3.13,2,5.19,1S333.68,140.6,332.83,139Zm-7.25-34.23c-.85-1.62-3.13-2-5.2-1s-3,3.19-2.17,4.81,3.13,2,5.19,1S326.43,106.37,325.58,104.75Zm-40.46,29.5c-.85-1.62-3.13-2-5.2-1s-3,3.21-2.17,4.82,3.13,2,5.2.95S286,135.86,285.12,134.25Zm22.72-20.2c-.85-1.62-3.13-2-5.2-1s-3,3.2-2.17,4.82,3.13,2,5.19.94S308.69,115.67,307.84,114.05Zm12.76,1.61c-.85-1.62-3.13-2-5.19-1s-3,3.2-2.18,4.82,3.13,2,5.19.94S321.45,117.27,320.6,115.66ZM302.86,125c-.85-1.62-3.13-2-5.2-1s-3,3.2-2.17,4.82,3.13,2,5.19.94S303.7,126.56,302.86,125Z"/><path class="cls-16" d="M316.47,96.35c-1.21.63-2.53.53-2.93-.25s.25-1.92,1.47-2.55,2.53-.52,2.93.24S317.69,95.71,316.47,96.35Z"/><path class="cls-16" d="M322.62,108.08c-1.21.64-2.53.53-2.93-.24s.26-1.92,1.47-2.55,2.53-.54,2.93.24S323.84,107.44,322.62,108.08Z"/><path class="cls-16" d="M329.37,121c-1.21.64-2.53.53-2.94-.25s.26-1.91,1.47-2.55,2.53-.52,2.94.24S330.58,120.32,329.37,121Z"/><path class="cls-16" d="M335.52,132.68c-1.22.64-2.53.54-2.94-.23s.26-1.92,1.47-2.56,2.53-.53,2.94.25S336.73,132.05,335.52,132.68Z"/><path class="cls-16" d="M305.47,95.73c-1.22.64-2.53.54-2.94-.23s.25-1.92,1.47-2.56,2.53-.52,2.93.25S306.68,95.1,305.47,95.73Z"/><path class="cls-16" d="M310.91,106.12c-1.22.64-2.54.52-2.94-.25s.25-1.91,1.47-2.55,2.53-.52,2.93.24S312.12,105.48,310.91,106.12Z"/><path class="cls-16" d="M317.65,119c-1.22.64-2.53.53-2.94-.24s.26-1.92,1.47-2.55,2.53-.53,2.93.24S318.87,118.34,317.65,119Z"/><path class="cls-16" d="M323.8,130.72c-1.22.64-2.53.53-2.94-.25s.26-1.91,1.47-2.55,2.53-.52,2.93.24S325,130.08,323.8,130.72Z"/><path class="cls-16" d="M329.87,142.31c-1.21.64-2.52.53-2.93-.24s.26-1.92,1.47-2.55,2.53-.53,2.93.24S331.09,141.67,329.87,142.31Z"/><path class="cls-16" d="M298.73,105.65c-1.21.64-2.52.52-2.93-.25s.25-1.92,1.47-2.56,2.52-.52,2.93.25S300,105,298.73,105.65Z"/><path class="cls-16" d="M304.89,117.38c-1.22.64-2.53.53-2.93-.24s.24-1.92,1.46-2.56,2.53-.53,2.93.25S306.1,116.74,304.89,117.38Z"/><path class="cls-16" d="M311.63,130.25c-1.22.64-2.52.52-2.93-.25s.25-1.91,1.47-2.55,2.52-.52,2.93.24S312.85,129.61,311.63,130.25Z"/><path class="cls-16" d="M317.78,142c-1.22.64-2.52.53-2.93-.24s.25-1.92,1.47-2.55,2.52-.53,2.93.25S319,141.34,317.78,142Z"/><path class="cls-16" d="M293.17,115.42c-1.22.63-2.54.52-2.94-.25s.25-1.92,1.47-2.55,2.53-.53,2.93.24S294.38,114.78,293.17,115.42Z"/><path class="cls-16" d="M299.91,128.28c-1.22.63-2.53.52-2.94-.24s.26-1.92,1.47-2.56,2.53-.52,2.94.25S301.12,127.64,299.91,128.28Z"/><path class="cls-16" d="M306.06,140c-1.22.63-2.53.53-2.94-.25s.26-1.91,1.47-2.55,2.53-.53,2.94.24S307.27,139.38,306.06,140Z"/><path class="cls-16" d="M287.15,126.68c-1.21.63-2.53.53-2.94-.24s.26-1.93,1.47-2.56,2.53-.53,2.94.25S288.36,126,287.15,126.68Z"/><path class="cls-16" d="M293.89,139.54c-1.21.64-2.53.53-2.93-.24s.25-1.92,1.46-2.55,2.54-.53,2.94.24S295.11,138.9,293.89,139.54Z"/><path class="cls-16" d="M282.17,137.58c-1.21.64-2.53.52-2.93-.25s.25-1.91,1.46-2.55,2.54-.52,2.94.25S283.38,136.94,282.17,137.58Z"/><path class="cls-20" d="M316.36,101.06c-3.65-.53-6.62-1.64-6.31-4.24s3.51-4.28,7.17-3.75,6.35,3.07,6,5.67S320,101.6,316.36,101.06Z"/><path class="cls-32" d="M334.72,141.91c-8.73-2.2-16.83-7.11-23.47-13.11-4.72-4.28-8.43-10.63-14.74-12.81-5.59-1.94-11.61-.57-17.21,1.05-.51,1.1-1.05,2.23-1.67,3.42-2.34,4.51-6.86,10.66-2.72,19.19,4.66,8.26,12.29,8.06,17.34,8.69,9.92,1.26,15.41,4,26.69,2.94a25.07,25.07,0,0,0,17.38-9.13C335.78,142,335.27,142.05,334.72,141.91Z"/><path class="cls-12" d="M277.56,97c-5.53,3.73-14,6.37-15.79,3.75s3.85-9.52,9.38-13.25,13.2-2,13.2-2S283.08,93.23,277.56,97Z"/><path class="cls-13" d="M272.33,84.17c-2.14,6-6.88,12.85-9.32,11.89s-1.69-9.37.45-15.34,8.32-9.1,8.32-9.1S274.48,78.19,272.33,84.17Z"/><path class="cls-12" d="M264.83,79.51c.11,5.12-1.42,11.67-3.5,11.67s-3.9-6.55-4-11.67,3.55-9.29,3.55-9.29S264.72,74.38,264.83,79.51Z"/><path class="cls-13" d="M281.06,97.09c-6.35-.25-14.49,1.58-14.51,4.21s8.05,5.06,14.39,5.31,11.56-4.32,11.56-4.32S287.41,97.33,281.06,97.09Z"/><path class="cls-12" d="M282.58,105.79c-4.71-2-11.36-3-12.13-1.11s4.62,6.06,9.33,8.08,9.93.17,9.93.17S287.29,107.81,282.58,105.79Z"/><path class="cls-33" d="M276.65,133.79c4.26-9.63,1.17-19.92-4.74-28.67l-5.22-7.74-5.23-7.73c-5.91-8.75-14.3-15.46-24.81-15.09s-18.92,6.08-24.29,14.15c-7.69,11.53-7.94,19-12.33,30.45-2.24,5.81-6.9,13.91-.7,23.72,6.78,9.41,16,8.12,22.26,8.21,12.23.18,19.29,2.76,32.86-.06C263.94,149.05,272.39,143.41,276.65,133.79Z"/><path class="cls-34" d="M233.66,80.88c-1.26-1.86-4.09-2-6.45-.45s-3.24,4.29-2,6.14,4.08,2.05,6.45.45S234.9,82.72,233.66,80.88Zm-6.84,13c-1.25-1.85-4.08-2-6.45-.45s-3.24,4.3-2,6.15,4.08,2.06,6.45.46S228.07,95.69,226.82,93.83Zm14.86-1.08c-1.25-1.84-4.08-2-6.45-.45s-3.24,4.31-2,6.15,4.08,2,6.45.45S242.93,94.61,241.68,92.75Zm-20.31,13.72c-1.25-1.85-4.08-2-6.45-.45s-3.24,4.3-2,6.15,4.08,2,6.45.45S222.62,108.33,221.37,106.47ZM257.71,114c1.25,1.86,4.09,2,6.45.46s3.24-4.3,2-6.15-4.08-2.05-6.45-.45S256.46,112.13,257.71,114Zm9.08,13.44c1.25,1.85,4.07,2,6.44.45s3.25-4.3,2-6.15-4.08-2-6.45-.45S265.54,125.57,266.79,127.42ZM215.59,121c-1.25-1.85-4.09-2-6.46-.45s-3.24,4.31-2,6.16,4.09,2,6.45.45S216.84,122.84,215.59,121Zm23.1-35.16c1.25,1.85,4.08,2.05,6.45.45s3.24-4.3,2-6.15-4.08-2.05-6.45-.45S237.44,84,238.69,85.82ZM237.4,127.7c1.26,1.85,4.08,2.06,6.45.46s3.24-4.31,2-6.16-4.08-2-6.45-.45S236.16,125.85,237.4,127.7Zm17.52,7.74c-1.25-1.85-4.08-2.05-6.45-.45s-3.24,4.29-2,6.14,4.07,2.06,6.44.46S256.17,137.29,254.92,135.44Zm-14.53-.8c-1.25-1.85-4.08-2-6.45-.45s-3.23,4.3-2,6.15,4.09,2,6.45.45S241.64,136.5,240.39,134.64Zm20.31-13.72c-1.25-1.85-4.08-2-6.44-.45s-3.25,4.3-2,6.15,4.09,2,6.45.45S262,122.77,260.7,120.92Zm-35.17,14.8c-1.24-1.86-4.08-2.05-6.45-.45s-3.24,4.29-2,6.15,4.09,2,6.45.45S226.79,137.57,225.53,135.72Zm44.13-1.53c-1.24-1.84-4.07-2.05-6.44-.45s-3.24,4.3-2,6.15,4.08,2.05,6.45.45S270.92,136.05,269.66,134.19ZM256.2,93.55c-1.25-1.85-4.08-2-6.45-.45s-3.24,4.3-2,6.15,4.09,2,6.45.46S257.45,95.41,256.2,93.55ZM211,134.92c-1.25-1.85-4.09-2-6.46-.45s-3.23,4.3-2,6.15,4.08,2,6.44.44S212.26,136.76,211,134.92Zm24.87-27.65c-1.25-1.86-4.08-2-6.45-.45s-3.23,4.29-2,6.15,4.07,2,6.44.45S237.14,109.12,235.89,107.27Zm15.74.22c-1.25-1.85-4.08-2.06-6.45-.46s-3.24,4.31-2,6.15,4.08,2,6.45.45S252.87,109.34,251.63,107.49Zm-20.32,13.72c-1.24-1.86-4.08-2.06-6.44-.46s-3.23,4.3-2,6.15,4.07,2,6.43.45S232.56,123.05,231.31,121.21Z"/><path class="cls-16" d="M244,84.57c-1.39.94-3,1-3.61.1s.06-2.36,1.44-3.3,3-1,3.61-.1S245.38,83.63,244,84.57Z"/><path class="cls-16" d="M253.06,98c-1.39.93-3,1-3.6.1s0-2.37,1.44-3.31,3-1,3.6-.1S254.45,97.06,253.06,98Z"/><path class="cls-16" d="M263,112.74c-1.39.94-3,1-3.6.09s0-2.36,1.44-3.29,3-1,3.6-.11S264.4,111.79,263,112.74Z"/><path class="cls-16" d="M272.08,126.17c-1.38.93-3,1-3.6.11s0-2.37,1.44-3.31,3-1,3.6-.1S273.48,125.23,272.08,126.17Z"/><path class="cls-16" d="M230.52,85.32c-1.4,1-3,1-3.6.1s0-2.35,1.44-3.3,3-1,3.59-.09S231.91,84.38,230.52,85.32Z"/><path class="cls-16" d="M238.54,97.21c-1.39.94-3,1-3.6.09s.05-2.36,1.44-3.3,3-1,3.6-.1S239.94,96.27,238.54,97.21Z"/><path class="cls-16" d="M248.49,111.94c-1.39.94-3,1-3.6.1s.05-2.37,1.44-3.31,3-1,3.6-.09S249.88,111,248.49,111.94Z"/><path class="cls-16" d="M257.57,125.37c-1.4.94-3,1-3.61.1s0-2.36,1.44-3.3,3-1,3.6-.11S259,124.43,257.57,125.37Z"/><path class="cls-16" d="M266.53,138.64c-1.39.94-3,1-3.6.11s.05-2.36,1.44-3.3,3-1,3.6-.11S267.92,137.7,266.53,138.64Z"/><path class="cls-16" d="M223.68,98.28c-1.39.94-3,1-3.6.1s0-2.36,1.44-3.3,3-1,3.59-.1S225.08,97.34,223.68,98.28Z"/><path class="cls-16" d="M232.75,111.72c-1.39,1-3,1-3.59.1s0-2.36,1.43-3.3,3-1,3.6-.1S234.15,110.78,232.75,111.72Z"/><path class="cls-16" d="M242.7,126.45c-1.39.94-3,1-3.6.1s.05-2.36,1.44-3.3,3-1,3.6-.1S244.1,125.51,242.7,126.45Z"/><path class="cls-16" d="M251.78,139.88c-1.4,1-3,1-3.6.11s0-2.36,1.44-3.31,3-1,3.59-.09S253.17,139,251.78,139.88Z"/><path class="cls-16" d="M218.23,110.92c-1.38,1-3,1-3.6.1s.05-2.36,1.44-3.3,3-1,3.6-.1S219.62,110,218.23,110.92Z"/><path class="cls-16" d="M228.18,125.65c-1.39.94-3,1-3.6.11s0-2.37,1.44-3.31,3-1,3.6-.1S229.57,124.71,228.18,125.65Z"/><path class="cls-16" d="M237.25,139.09c-1.38.94-3,1-3.6.09s.06-2.35,1.44-3.29,3-1,3.6-.11S238.65,138.15,237.25,139.09Z"/><path class="cls-16" d="M212.45,125.44c-1.39.93-3,1-3.61.1s.06-2.37,1.44-3.31,3-1,3.61-.1S213.84,124.49,212.45,125.44Z"/><path class="cls-16" d="M222.4,140.17c-1.39.94-3,1-3.61.09s.06-2.36,1.44-3.29,3-1,3.61-.11S223.79,139.23,222.4,140.17Z"/><path class="cls-16" d="M207.87,139.37c-1.39.94-3,1-3.59.1s0-2.36,1.43-3.3,3-1,3.6-.1S209.26,138.43,207.87,139.37Z"/><path class="cls-20" d="M244.49,90.32c-4.5-.15-8.28-1.1-8.25-4.31s3.69-5.68,8.21-5.52,8.14,2.86,8.12,6.07S249,90.47,244.49,90.32Z"/><path class="cls-35" d="M261.1,139.5c-3.37-9.78-2.49-21.72-7.88-30.66-10.9-18.07-31.62-16.54-47.29-7.58-2.12,5.7-3.29,11.11-5.9,17.9-2.24,5.81-6.9,13.91-.7,23.72,6.78,9.41,16,8.12,22.26,8.21,12.23.18,19.29,2.76,32.86-.06a33.5,33.5,0,0,0,9.94-3.95A56,56,0,0,1,261.1,139.5Z"/></g></g></svg>