<svg xmlns="http://www.w3.org/2000/svg" xmlns:xlink="http://www.w3.org/1999/xlink" viewBox="0 0 251.7 206.19"><defs><style>.cls-1{mask:url(#mask);filter:url(#luminosity-noclip-2);}.cls-2{mix-blend-mode:multiply;fill:url(#linear-gradient);}.cls-3{fill:#b85531;}.cls-19,.cls-4{fill:#8f4226;}.cls-15,.cls-4{opacity:0.5;}.cls-5{fill:#c96527;}.cls-6{fill:#f2e6b3;}.cls-7{fill:#783322;}.cls-8{fill:#cf5f37;}.cls-9{fill:#e27b3d;}.cls-10{fill:#f9f9ca;}.cls-11{fill:#873a26;}.cls-12{fill:#752713;}.cls-13{fill:#5e1f0f;}.cls-14{mask:url(#mask-2);}.cls-15{fill:url(#linear-gradient-2);}.cls-16{fill:#f2e4a9;}.cls-17{fill:#ebda90;}.cls-18{fill:#a84d2d;}.cls-20{fill:url(#radial-gradient);}.cls-21{fill:#fff;}.cls-22{filter:url(#luminosity-noclip);}</style><filter id="luminosity-noclip" x="2.99" y="-8351.42" width="171.62" height="32766" filterUnits="userSpaceOnUse" color-interpolation-filters="sRGB"><feFlood flood-color="#fff" result="bg"/><feBlend in="SourceGraphic" in2="bg"/></filter><mask id="mask" x="2.99" y="-8351.42" width="171.62" height="32766" maskUnits="userSpaceOnUse"><g class="cls-22"/></mask><linearGradient id="linear-gradient" x1="2.99" y1="62.53" x2="174.6" y2="62.53" gradientUnits="userSpaceOnUse"><stop offset="0.31" stop-color="#fff"/><stop offset="0.97"/></linearGradient><filter id="luminosity-noclip-2" x="2.99" y="58.73" width="171.62" height="7.61" filterUnits="userSpaceOnUse" color-interpolation-filters="sRGB"><feFlood flood-color="#fff" result="bg"/><feBlend in="SourceGraphic" in2="bg"/></filter><mask id="mask-2" x="2.99" y="58.73" width="171.62" height="7.61" maskUnits="userSpaceOnUse"><g class="cls-1"><path class="cls-2" d="M15.51,58.73,12,59.88a16.41,16.41,0,0,0-9,6.46H174.6V58.73Z"/></g></mask><linearGradient id="linear-gradient-2" x1="2.99" y1="62.53" x2="174.6" y2="62.53" gradientUnits="userSpaceOnUse"><stop offset="0.31" stop-color="#ead0c9"/><stop offset="0.97" stop-color="#ead0c9"/></linearGradient><radialGradient id="radial-gradient" cx="102.1" cy="15.1" r="27.49" gradientUnits="userSpaceOnUse"><stop offset="0.38" stop-color="#8cd40f"/><stop offset="0.48" stop-color="#82ce0e"/><stop offset="0.64" stop-color="#67bf0b"/><stop offset="0.85" stop-color="#3ca606"/><stop offset="1" stop-color="#189102"/></radialGradient></defs><g id="Layer_2" data-name="Layer 2"><g id="Layer_1-2" data-name="Layer 1"><path class="cls-3" d="M167.3,172.79v18.09a15.31,15.31,0,0,1-12,14.92l6.19-.26a59.1,59.1,0,0,0,18.39-3.77l55.58-21A15.32,15.32,0,0,0,246.62,166V144.17Z"/><path class="cls-4" d="M235.49,170.89l-55.58,21a58.9,58.9,0,0,1-13.3,3.32,15.29,15.29,0,0,1-11.28,10.55l6.19-.26a59.1,59.1,0,0,0,18.39-3.77l55.58-21A15.32,15.32,0,0,0,246.62,166v-9.84A15.32,15.32,0,0,1,235.49,170.89Z"/><polygon class="cls-5" points="167.44 79.98 167.3 80.86 167.3 172.79 246.62 144.17 246.62 55.9 167.44 79.98"/><polygon class="cls-6" points="246.62 117.33 246.62 55.9 167.44 79.98 167.3 80.86 167.3 142.38 246.62 117.33"/><polygon class="cls-7" points="246.62 86.02 246.62 55.9 166.89 79.42 167.3 111.06 246.62 86.02"/><path class="cls-8" d="M5.07,172.79v18.09a15.31,15.31,0,0,0,15.32,15.31H152a15.31,15.31,0,0,0,15.33-15.31V172.79Z"/><path class="cls-4" d="M6,196.06a15.29,15.29,0,0,0,14.36,10.13H152a15.28,15.28,0,0,0,14.36-10.13Z"/><rect class="cls-9" x="5.07" y="77.37" width="162.23" height="95.42"/><rect class="cls-10" x="5.07" y="77.37" width="162.23" height="65.01"/><rect class="cls-11" x="5.07" y="77.37" width="162.23" height="33.69"/><path class="cls-12" d="M251.69,52.32V49.93a16.47,16.47,0,0,0-16.47-16.47H95.83a16.37,16.37,0,0,0-4.51.63L12,59.88A16.48,16.48,0,0,0,0,75.72H0a5.59,5.59,0,0,0,5.59,5.59H163.14a48,48,0,0,0,14-2.08l70.63-21.57A5.58,5.58,0,0,0,251.69,52.32Z"/><path class="cls-13" d="M247.74,52.3,177.11,73.86a48,48,0,0,1-14,2.09H5.59a5.56,5.56,0,0,1-5.2-3.59A16.33,16.33,0,0,0,0,75.72a5.59,5.59,0,0,0,5.59,5.59H163.14a48,48,0,0,0,14-2.08l70.63-21.57a5.6,5.6,0,0,0,4-5.34V49.93a15.92,15.92,0,0,0-.19-1.84A5.58,5.58,0,0,1,247.74,52.3Z"/><g class="cls-14"><path class="cls-15" d="M15.51,58.73,12,59.88a16.41,16.41,0,0,0-9,6.46H174.6V58.73Z"/></g><path class="cls-13" d="M167.3,67.9V81.11a48.3,48.3,0,0,0,9.81-1.88l70.63-21.57a5.6,5.6,0,0,0,4-5.34V49.93a16.4,16.4,0,0,0-7.09-13.5l-68.8,20.11A11.82,11.82,0,0,0,167.3,67.9Z"/><path class="cls-13" d="M17.15,91.83a4.48,4.48,0,1,0-4.48,4.47A4.48,4.48,0,0,0,17.15,91.83Z"/><path class="cls-13" d="M54.5,88.25a3.8,3.8,0,1,0-3.8,3.81A3.8,3.8,0,0,0,54.5,88.25Z"/><path class="cls-13" d="M74,92.58a4.47,4.47,0,1,0-4.47,4.47A4.48,4.48,0,0,0,74,92.58Z"/><path class="cls-13" d="M19.83,104.8a2.69,2.69,0,1,0-2.68,2.69A2.68,2.68,0,0,0,19.83,104.8Z"/><path class="cls-13" d="M117.8,90a4.92,4.92,0,1,0,4.92-4.92A4.91,4.91,0,0,0,117.8,90Z"/><path class="cls-13" d="M108,106.14a3.58,3.58,0,1,0,3.58-3.57A3.58,3.58,0,0,0,108,106.14Z"/><path class="cls-13" d="M90.36,92a6.71,6.71,0,1,0,6.71-6.71A6.7,6.7,0,0,0,90.36,92Z"/><path class="cls-13" d="M146,92.73A8.06,8.06,0,1,0,154,84.67,8.06,8.06,0,0,0,146,92.73Z"/><path class="cls-13" d="M46.67,104.36a8.95,8.95,0,1,0-14.81,6.7H43.58A8.85,8.85,0,0,0,46.67,104.36Z"/><path class="cls-13" d="M143.29,108.38a4.47,4.47,0,0,0-8.94,0,4.35,4.35,0,0,0,1,2.68h7A4.36,4.36,0,0,0,143.29,108.38Z"/><path class="cls-13" d="M167.3,102.36a6.38,6.38,0,0,0-1.65-.24,6.26,6.26,0,0,0-6.26,6.26,6.15,6.15,0,0,0,.63,2.68h7.28Z"/><path class="cls-13" d="M94.09,107.49a5.82,5.82,0,1,0-11.63,0,5.72,5.72,0,0,0,1.26,3.57h9.1A5.73,5.73,0,0,0,94.09,107.49Z"/><path class="cls-13" d="M68.14,109.72a6.26,6.26,0,1,0-12.52,0,5.85,5.85,0,0,0,.15,1.34H68A6.47,6.47,0,0,0,68.14,109.72Z"/><path class="cls-13" d="M167.3,111.06l6.21-2a7.4,7.4,0,0,0-6.33-6.87Z"/><path class="cls-13" d="M181.54,88.4A4.61,4.61,0,1,0,177,93.47,4.85,4.85,0,0,0,181.54,88.4Z"/><path class="cls-13" d="M187.74,80.65A3.25,3.25,0,1,0,191,77.07,3.42,3.42,0,0,0,187.74,80.65Z"/><path class="cls-13" d="M208.78,95.86c0-4.61-3.38-8.35-7.55-8.35s-7.56,3.74-7.56,8.35a8.73,8.73,0,0,0,2.44,6.11l12.37-3.91A9.27,9.27,0,0,0,208.78,95.86Z"/><path class="cls-13" d="M181.54,103a2.69,2.69,0,1,0-2.43-2.68A2.56,2.56,0,0,0,181.54,103Z"/><path class="cls-13" d="M239.26,66.63a3.3,3.3,0,1,0-3-3.28A3.14,3.14,0,0,0,239.26,66.63Z"/><path class="cls-13" d="M202.57,74.39c0,4.28,3.14,7.75,7,7.75s7-3.47,7-7.75c0-4.11-2.89-7.43-6.55-7.7L205.63,68A8,8,0,0,0,202.57,74.39Z"/><path class="cls-13" d="M219.84,87.81a2.44,2.44,0,1,0,2.42-2.69A2.56,2.56,0,0,0,219.84,87.81Z"/><path class="cls-13" d="M241.41,71.4a4.8,4.8,0,1,0,4.32,4.78A4.57,4.57,0,0,0,241.41,71.4Z"/><path class="cls-13" d="M231.43,75a4.61,4.61,0,1,0-4.58,5.07A4.84,4.84,0,0,0,231.43,75Z"/><path class="cls-16" d="M22.51,122.1a4,4,0,1,0-4,4A4,4,0,0,0,22.51,122.1Z"/><path class="cls-16" d="M44.66,133.13a3.21,3.21,0,1,0-3.21,3.21A3.21,3.21,0,0,0,44.66,133.13Z"/><path class="cls-16" d="M126.44,125.08a5.07,5.07,0,1,0-5.07,5.07A5.07,5.07,0,0,0,126.44,125.08Z"/><path class="cls-17" d="M179.82,131.64a1.49,1.49,0,1,0-1.49,1.49A1.49,1.49,0,0,0,179.82,131.64Z"/><path class="cls-17" d="M207,109a2.69,2.69,0,1,0-2.69,2.68A2.7,2.7,0,0,0,207,109Z"/><path class="cls-17" d="M234.6,111a2.39,2.39,0,1,0,3.16,1.19A2.38,2.38,0,0,0,234.6,111Z"/><path class="cls-5" d="M88.93,172.79a5.8,5.8,0,1,0-11-2.68,5.65,5.65,0,0,0,.69,2.68Z"/><path class="cls-5" d="M145.86,153.56a2.57,2.57,0,1,0-2.57,2.57A2.57,2.57,0,0,0,145.86,153.56Z"/><path class="cls-5" d="M57,160.66a3.24,3.24,0,1,0,0,4.59A3.25,3.25,0,0,0,57,160.66Z"/><path class="cls-5" d="M70.82,150.43A1.79,1.79,0,1,0,69,152.22,1.79,1.79,0,0,0,70.82,150.43Z"/><path class="cls-5" d="M24.3,159.82a1.79,1.79,0,1,0-1.79,1.79A1.79,1.79,0,0,0,24.3,159.82Z"/><path class="cls-5" d="M129.57,164.44a2.24,2.24,0,1,0-2.23,2.24A2.23,2.23,0,0,0,129.57,164.44Z"/><path class="cls-18" d="M54.27,186.67a4,4,0,1,0,4-4A4,4,0,0,0,54.27,186.67Z"/><path class="cls-18" d="M47.8,172.79a7.58,7.58,0,0,0,14.74,0Z"/><path class="cls-18" d="M66.8,195.16a6.71,6.71,0,1,0,6.71-6.71A6.71,6.71,0,0,0,66.8,195.16Z"/><path class="cls-18" d="M10.89,176.37a7.16,7.16,0,1,0,13.32-3.58H11.88A7,7,0,0,0,10.89,176.37Z"/><path class="cls-18" d="M19.83,189.8A5.82,5.82,0,1,0,25.64,184,5.81,5.81,0,0,0,19.83,189.8Z"/><path class="cls-18" d="M41.75,177.27a8.5,8.5,0,1,0,8.5,8.5A8.5,8.5,0,0,0,41.75,177.27Z"/><path class="cls-18" d="M10.44,191.59a7.59,7.59,0,0,0-5.37-7.24v6.53A15.15,15.15,0,0,0,6.9,198,7.59,7.59,0,0,0,10.44,191.59Z"/><path class="cls-18" d="M167.3,181a10.62,10.62,0,0,0-3.43-.61,10.71,10.71,0,0,0-1.12,21.36,15.26,15.26,0,0,0,4.55-10.88Z"/><path class="cls-18" d="M87.82,190.69a8.5,8.5,0,1,0,8.5-8.5A8.51,8.51,0,0,0,87.82,190.69Z"/><path class="cls-18" d="M68.59,178.16a8.05,8.05,0,1,0,14-5.37H70.68A8,8,0,0,0,68.59,178.16Z"/><path class="cls-18" d="M91,175a5.37,5.37,0,1,0,10.73,0,5.44,5.44,0,0,0-.5-2.24H91.46A5.28,5.28,0,0,0,91,175Z"/><path class="cls-18" d="M148.21,175a4.92,4.92,0,1,0,9.84,0,4.86,4.86,0,0,0-.56-2.24h-8.72A5,5,0,0,0,148.21,175Z"/><path class="cls-18" d="M133,176.37a5.37,5.37,0,1,0,9.34-3.58H134.4A5.34,5.34,0,0,0,133,176.37Z"/><circle class="cls-18" cx="133.45" cy="194.27" r="9.39"/><path class="cls-18" d="M26.43,206.19a9.34,9.34,0,0,0-16.86-4.47,15.27,15.27,0,0,0,10.82,4.47Z"/><path class="cls-18" d="M156.63,205.4a7.57,7.57,0,0,0-14.4.79H152A15.28,15.28,0,0,0,156.63,205.4Z"/><path class="cls-18" d="M110.64,179.06a6.26,6.26,0,1,0,6.26-6.27A6.26,6.26,0,0,0,110.64,179.06Z"/><path class="cls-18" d="M118.69,193.82a4.48,4.48,0,1,0-4.47,4.48A4.47,4.47,0,0,0,118.69,193.82Z"/><path class="cls-18" d="M65.9,203.66a8.5,8.5,0,1,0-16.57,2.53H65.48A8.44,8.44,0,0,0,65.9,203.66Z"/><path class="cls-18" d="M44.43,205.45a5.82,5.82,0,1,0-11.55.74H44.36A5.8,5.8,0,0,0,44.43,205.45Z"/><path class="cls-18" d="M107.51,201a5.79,5.79,0,0,0-5.76,5.21h11.51A5.79,5.79,0,0,0,107.51,201Z"/><path class="cls-18" d="M85.59,203.22a5.36,5.36,0,0,0-4.79,3h9.57A5.35,5.35,0,0,0,85.59,203.22Z"/><path class="cls-19" d="M218.61,172.79a2.67,2.67,0,1,0-2.66,3A2.84,2.84,0,0,0,218.61,172.79Z"/><path class="cls-19" d="M221.53,167.43a2.67,2.67,0,1,0,2.65-3A2.82,2.82,0,0,0,221.53,167.43Z"/><path class="cls-19" d="M218.07,155.5c0,3.95,2.85,7.16,6.37,7.16s6.37-3.21,6.37-7.16a7.57,7.57,0,0,0-1.81-5l-10.83,3.91A9.45,9.45,0,0,0,218.07,155.5Z"/><path class="cls-19" d="M238,157c-3.23,0-5.84,2.94-5.84,6.56s2.61,6.56,5.84,6.56,5.83-2.94,5.83-6.56S241.19,157,238,157Z"/><path class="cls-19" d="M234.25,150.43a5.1,5.1,0,0,0,4.78,5.36c2.63,0,4.77-2.4,4.77-5.36a5.54,5.54,0,0,0-2.14-4.47l-7.08,2.55A6,6,0,0,0,234.25,150.43Z"/><path class="cls-19" d="M161.91,202.49a9.73,9.73,0,0,0,1.21.13,11,11,0,0,0,4.18-21.24v9.5A15.2,15.2,0,0,1,161.91,202.49Z"/><path class="cls-19" d="M176.18,179.06c2.93,0,5.3-2.67,5.3-6a6.25,6.25,0,0,0-2-4.69l-8.32,3a6.55,6.55,0,0,0-.23,1.68C170.88,176.39,173.25,179.06,176.18,179.06Z"/><path class="cls-19" d="M246.62,160.48v-5.19a7.87,7.87,0,0,0,0,5.19Z"/><path class="cls-19" d="M179.36,184.12c0,3.46,2.49,6.27,5.57,6.27s5.57-2.81,5.57-6.27-2.5-6.26-5.57-6.26S179.36,180.67,179.36,184.12Z"/><path class="cls-19" d="M222.32,177.86c-3.07,0-5.57,2.81-5.57,6.26a6.82,6.82,0,0,0,.88,3.37l10.21-3.86C227.61,180.4,225.24,177.86,222.32,177.86Z"/><path class="cls-19" d="M237.17,174.89c0-3-2.14-5.37-4.78-5.37s-4.76,2.4-4.76,5.37,2.13,5.36,4.76,5.36A5.1,5.1,0,0,0,237.17,174.89Z"/><path class="cls-19" d="M245.6,171.4c-3.34.47-5.94,3.59-6,7.45A15.27,15.27,0,0,0,245.6,171.4Z"/><path class="cls-19" d="M195.8,188c-4,0-7.16,3.6-7.16,8.05a8.54,8.54,0,0,0,.33,2.28l13.51-5.11A7.22,7.22,0,0,0,195.8,188Z"/><path class="cls-19" d="M205.61,162.36c0,3.62,2.61,6.56,5.84,6.56s5.83-2.94,5.83-6.56a6.52,6.52,0,0,0-3.94-6.18l-6.64,2.39A7,7,0,0,0,205.61,162.36Z"/><path class="cls-19" d="M209.85,177.86c-2.92,0-5.3,2.68-5.3,6s2.38,6,5.3,6,5.31-2.68,5.31-6S212.79,177.86,209.85,177.86Z"/><path class="cls-19" d="M185.2,168.62c0,5.93,4.27,10.74,9.54,10.74s9.55-4.81,9.55-10.74a11.22,11.22,0,0,0-3.25-8l-15.59,5.63A11.47,11.47,0,0,0,185.2,168.62Z"/><path class="cls-19" d="M183.92,200.25a4.6,4.6,0,0,0-4.29-3.6,4.82,4.82,0,0,0-4.51,5.07,5.42,5.42,0,0,0,.24,1.57c1.53-.45,3-.95,4.55-1.52Z"/><path class="cls-13" d="M129.71,43.34c0,2.86-9.51,5.18-21.26,5.18S87.19,46.2,87.19,43.34s9.52-5.17,21.26-5.17S129.71,40.48,129.71,43.34Z"/><path class="cls-20" d="M129.12,22.76a22.77,22.77,0,1,0-22.76,22.76A22.76,22.76,0,0,0,129.12,22.76Z"/><path class="cls-21" d="M108.15,13.18a6.74,6.74,0,1,0-6.74,6.74A6.74,6.74,0,0,0,108.15,13.18Z"/></g></g></svg>