<svg xmlns="http://www.w3.org/2000/svg" xmlns:xlink="http://www.w3.org/1999/xlink" viewBox="0 0 419.31 459.86"><defs><style>.cls-1{mask:url(#mask);filter:url(#luminosity-noclip-3);}.cls-2,.cls-4{mix-blend-mode:multiply;}.cls-2{fill:url(#linear-gradient);}.cls-3{mask:url(#mask-2);filter:url(#luminosity-noclip-4);}.cls-4{fill:url(#linear-gradient-2);}.cls-5{fill:url(#linear-gradient-3);}.cls-6{fill:#693b2b;}.cls-7{fill:url(#linear-gradient-4);}.cls-8{fill:url(#linear-gradient-5);}.cls-10,.cls-55,.cls-9{fill:#6b2e2d;}.cls-10{opacity:0.4;}.cls-11{fill:#e584a0;}.cls-12{fill:#d87e95;}.cls-13{fill:#a56748;}.cls-14{fill:#985e43;}.cls-15{fill:#863a38;}.cls-16{mask:url(#mask-3);}.cls-17{fill:url(#linear-gradient-6);}.cls-18,.cls-19{fill:#d5bac2;}.cls-19{opacity:0.6;}.cls-20{fill:url(#linear-gradient-7);}.cls-21{fill:url(#linear-gradient-8);}.cls-22{fill:url(#linear-gradient-9);}.cls-23{fill:#d0798f;}.cls-24{mask:url(#mask-4);}.cls-25{fill:url(#linear-gradient-10);}.cls-26{fill:#689524;}.cls-27{fill:#517d0c;}.cls-28{fill:#80b92d;}.cls-29{fill:url(#linear-gradient-11);}.cls-30{fill:#233259;}.cls-31{fill:#3e2f4d;}.cls-32{fill:#46537a;}.cls-33,.cls-55{opacity:0.5;}.cls-34{fill:#fff;}.cls-35{fill:url(#linear-gradient-12);}.cls-36{fill:#1c2847;}.cls-37{fill:#3a2c47;}.cls-38{fill:#303d60;}.cls-39{fill:url(#linear-gradient-13);}.cls-40{fill:#394870;}.cls-41{opacity:0.7;}.cls-42{fill:#78ac29;}.cls-43{fill:#61950f;}.cls-44{fill:#93d534;}.cls-45{fill:url(#linear-gradient-14);}.cls-46{fill:url(#linear-gradient-15);}.cls-47{fill:url(#linear-gradient-16);}.cls-48{fill:#849b0e;}.cls-49{fill:#94ac0f;}.cls-50{fill:url(#linear-gradient-17);}.cls-51{fill:url(#linear-gradient-18);}.cls-52{fill:#ebb530;}.cls-53{fill:url(#linear-gradient-19);}.cls-54{fill:url(#linear-gradient-20);}.cls-56{fill:url(#linear-gradient-21);}.cls-57{fill:url(#linear-gradient-22);}.cls-58{fill:url(#linear-gradient-23);}.cls-59{fill:#7a8e0e;}.cls-60{fill:#a1b728;}.cls-61{fill:#fb1803;}.cls-62{fill:#ff400f;}.cls-63{fill:#ffb78e;}.cls-64{fill:#ff6d4f;}.cls-65{fill:url(#linear-gradient-24);}.cls-66{fill:url(#linear-gradient-25);}.cls-67{fill:url(#linear-gradient-26);}.cls-68{fill:url(#linear-gradient-27);}.cls-69{fill:url(#linear-gradient-28);}.cls-70{fill:url(#linear-gradient-29);}.cls-71{fill:url(#linear-gradient-30);}.cls-72{fill:url(#linear-gradient-31);}.cls-73{fill:url(#linear-gradient-32);}.cls-74{filter:url(#luminosity-noclip-2);}.cls-75{filter:url(#luminosity-noclip);}</style><filter id="luminosity-noclip" x="14.15" y="-7696.48" width="196.41" height="32766" filterUnits="userSpaceOnUse" color-interpolation-filters="sRGB"><feFlood flood-color="#fff" result="bg"/><feBlend in="SourceGraphic" in2="bg"/></filter><mask id="mask" x="14.15" y="-7696.48" width="196.41" height="32766" maskUnits="userSpaceOnUse"><g class="cls-75"/></mask><linearGradient id="linear-gradient" x1="14.15" y1="278.6" x2="210.56" y2="278.6" gradientUnits="userSpaceOnUse"><stop offset="0.42" stop-color="#fff"/><stop offset="1" stop-color="#4d4d4d"/></linearGradient><filter id="luminosity-noclip-2" x="61.58" y="-7696.48" width="157.14" height="32766" filterUnits="userSpaceOnUse" color-interpolation-filters="sRGB"><feFlood flood-color="#fff" result="bg"/><feBlend in="SourceGraphic" in2="bg"/></filter><mask id="mask-2" x="61.58" y="-7696.48" width="157.14" height="32766" maskUnits="userSpaceOnUse"><g class="cls-74"/></mask><linearGradient id="linear-gradient-2" x1="61.58" y1="117.56" x2="218.71" y2="117.56" xlink:href="#linear-gradient"/><linearGradient id="linear-gradient-3" x1="13.47" y1="404.73" x2="407.37" y2="404.73" gradientUnits="userSpaceOnUse"><stop offset="0.38" stop-color="#c17a57"/><stop offset="0.66" stop-color="#ac6b4b"/></linearGradient><linearGradient id="linear-gradient-4" x1="13.47" y1="350.97" x2="407.37" y2="350.97" gradientUnits="userSpaceOnUse"><stop offset="0.27" stop-color="#f49bac"/><stop offset="0.64" stop-color="#d8899e"/></linearGradient><linearGradient id="linear-gradient-5" x1="14.49" y1="313.05" x2="409.53" y2="313.05" gradientUnits="userSpaceOnUse"><stop offset="0.2" stop-color="#ffedc4"/><stop offset="0.84" stop-color="#e2d3ae"/></linearGradient><filter id="luminosity-noclip-3" x="14.15" y="253.79" width="196.41" height="49.63" filterUnits="userSpaceOnUse" color-interpolation-filters="sRGB"><feFlood flood-color="#fff" result="bg"/><feBlend in="SourceGraphic" in2="bg"/></filter><mask id="mask-3" x="14.15" y="253.79" width="196.41" height="49.63" maskUnits="userSpaceOnUse"><g class="cls-1"><path class="cls-2" d="M202.13,300.49c-83.46-.27-153.09-10.86-174.5-29.58-2.71-2.37-6.44-6-8.09-11.08-1.95-6-2.7-8.54-4.94-2.84-.79,2-.35,6.05-.15,7.49,3.89,27.4,82.83,41.11,185.41,38.66C210.82,302.2,216.11,300.49,202.13,300.49Z"/></g></mask><linearGradient id="linear-gradient-6" x1="14.15" y1="278.6" x2="210.56" y2="278.6" gradientUnits="userSpaceOnUse"><stop offset="0.42" stop-color="#ead0c9"/><stop offset="1" stop-color="#ead0c9"/></linearGradient><linearGradient id="linear-gradient-7" x1="63.83" y1="237.94" x2="357.01" y2="237.94" xlink:href="#linear-gradient-3"/><linearGradient id="linear-gradient-8" x1="63.83" y1="189.76" x2="357.01" y2="189.76" xlink:href="#linear-gradient-4"/><linearGradient id="linear-gradient-9" x1="64.6" y1="145.75" x2="358.61" y2="145.75" xlink:href="#linear-gradient-5"/><filter id="luminosity-noclip-4" x="61.58" y="98.08" width="157.14" height="38.97" filterUnits="userSpaceOnUse" color-interpolation-filters="sRGB"><feFlood flood-color="#fff" result="bg"/><feBlend in="SourceGraphic" in2="bg"/></filter><mask id="mask-4" x="61.58" y="98.08" width="157.14" height="38.97" maskUnits="userSpaceOnUse"><g class="cls-3"><path class="cls-4" d="M212,134.72c-66.15-.22-123-10.4-138.28-24.48-2.1-1.93-4.35-4.64-4.8-7.79-.7-5-4.26-6.21-6.58-1a14.9,14.9,0,0,0-.79,4.86c.79,22.09,67.35,32.49,148.66,30.55C218.92,136.07,223.12,134.72,212,134.72Z"/></g></mask><linearGradient id="linear-gradient-10" x1="61.58" y1="117.56" x2="218.71" y2="117.56" xlink:href="#linear-gradient-6"/><linearGradient id="linear-gradient-11" x1="243.44" y1="60.09" x2="265.41" y2="87.48" gradientUnits="userSpaceOnUse"><stop offset="0.11" stop-color="#475a8b"/><stop offset="0.85" stop-color="#303d60"/></linearGradient><linearGradient id="linear-gradient-12" x1="276.47" y1="71.43" x2="298.44" y2="98.82" gradientUnits="userSpaceOnUse"><stop offset="0.1" stop-color="#4a5d90"/><stop offset="0.78" stop-color="#344266"/></linearGradient><linearGradient id="linear-gradient-13" x1="247.53" y1="80.84" x2="273.29" y2="104.7" gradientUnits="userSpaceOnUse"><stop offset="0.18" stop-color="#556ca7"/><stop offset="0.85" stop-color="#303d60"/></linearGradient><linearGradient id="linear-gradient-14" x1="2103.79" y1="58.59" x2="2126.44" y2="86.82" gradientTransform="matrix(-1, 0, 0, 1, 2290.4, 0)" xlink:href="#linear-gradient-11"/><linearGradient id="linear-gradient-15" x1="129.95" y1="70.69" x2="152.68" y2="99.41" xlink:href="#linear-gradient-12"/><linearGradient id="linear-gradient-16" x1="2108.01" y1="79.98" x2="2134.57" y2="104.57" gradientTransform="matrix(-1, 0, 0, 1, 2290.4, 0)" xlink:href="#linear-gradient-13"/><linearGradient id="linear-gradient-17" x1="556.68" y1="367.35" x2="604.15" y2="419.53" gradientTransform="translate(-123.94 -565.31) rotate(27.03)" gradientUnits="userSpaceOnUse"><stop offset="0.09" stop-color="#f44336"/><stop offset="0.23" stop-color="#ee2f26"/><stop offset="0.49" stop-color="#e00102"/><stop offset="0.76" stop-color="#bc0102"/></linearGradient><linearGradient id="linear-gradient-18" x1="343.91" y1="191.58" x2="378.87" y2="244.14" gradientTransform="translate(-99.66 -238.97) rotate(11.18)" gradientUnits="userSpaceOnUse"><stop offset="0.2" stop-color="#ea2828"/><stop offset="0.54" stop-color="#e00102"/><stop offset="0.95" stop-color="#c10102"/></linearGradient><linearGradient id="linear-gradient-19" x1="215.98" y1="87.17" x2="243.31" y2="112.48" xlink:href="#linear-gradient-13"/><linearGradient id="linear-gradient-20" x1="185.08" y1="85.53" x2="210.82" y2="117.62" xlink:href="#linear-gradient-12"/><linearGradient id="linear-gradient-21" x1="2219.09" y1="221.5" x2="2240.58" y2="248.29" gradientTransform="matrix(-1, 0, 0, 1, 2290.4, 0)" xlink:href="#linear-gradient-11"/><linearGradient id="linear-gradient-22" x1="17.55" y1="232.98" x2="39.11" y2="260.24" xlink:href="#linear-gradient-12"/><linearGradient id="linear-gradient-23" x1="2223.09" y1="241.8" x2="2248.29" y2="265.13" gradientTransform="matrix(-1, 0, 0, 1, 2290.4, 0)" xlink:href="#linear-gradient-13"/><linearGradient id="linear-gradient-24" x1="115.12" y1="246.63" x2="136.61" y2="273.42" xlink:href="#linear-gradient-11"/><linearGradient id="linear-gradient-25" x1="147.43" y1="257.72" x2="168.92" y2="284.51" xlink:href="#linear-gradient-12"/><linearGradient id="linear-gradient-26" x1="119.12" y1="266.92" x2="144.32" y2="290.26" xlink:href="#linear-gradient-13"/><linearGradient id="linear-gradient-27" x1="346.75" y1="219.19" x2="368.24" y2="245.98" xlink:href="#linear-gradient-11"/><linearGradient id="linear-gradient-28" x1="379.06" y1="230.28" x2="400.55" y2="257.07" xlink:href="#linear-gradient-12"/><linearGradient id="linear-gradient-29" x1="350.75" y1="239.48" x2="375.95" y2="262.82" xlink:href="#linear-gradient-13"/><linearGradient id="linear-gradient-30" x1="1996.63" y1="245.75" x2="2018.12" y2="272.53" gradientTransform="matrix(-1, 0, 0, 1, 2290.4, 0)" xlink:href="#linear-gradient-11"/><linearGradient id="linear-gradient-31" x1="240.01" y1="257.23" x2="261.58" y2="284.48" xlink:href="#linear-gradient-12"/><linearGradient id="linear-gradient-32" x1="2000.62" y1="266.04" x2="2025.82" y2="289.37" gradientTransform="matrix(-1, 0, 0, 1, 2290.4, 0)" xlink:href="#linear-gradient-13"/></defs><g id="Layer_2" data-name="Layer 2"><g id="Layer_1-2" data-name="Layer 1"><path class="cls-5" d="M13.47,349.61v69.14h0c.24,22.72,88.32,41.11,196.94,41.11s196.71-18.39,196.94-41.11h0V349.61Z"/><path class="cls-6" d="M210.42,452.67c-108.62,0-196.7-18.39-196.94-41.11h0v7.19h0c.24,22.72,88.32,41.11,196.94,41.11s196.71-18.39,196.94-41.11h0v-7.19h0C407.13,434.28,319.05,452.67,210.42,452.67Z"/><path class="cls-7" d="M13.47,295.85V365h0c.24,22.72,88.32,41.11,196.94,41.11S407.13,387.71,407.36,365h0V295.85Z"/><path class="cls-8" d="M13.47,265.75v53.5h0c.24,22.71,88.32,41.1,196.94,41.1S407.13,342,407.36,319.25h0v-53.5Z"/><path class="cls-9" d="M417.61,367.53A34.79,34.79,0,0,1,413,350s.68-46-.17-72.39c-.48-15.27-4.23-31.75-28.24-41.29-35.26-13.43-100.05-22.43-174.14-22.43-77.17,0-144.25,9.77-178.37,24.12-21.34,9.5-24,25.89-24,32.41,0,23,0,74.78,0,74.78a52.75,52.75,0,0,1-5.55,23.2,13.82,13.82,0,0,0-1,9.54c3,12.28,12.53,12.83,12.53,12.83V319.42c0-6.68,3.88-13.14,10.23-15.21a11.13,11.13,0,0,1,6.39-.26c9,2.4,18.12,8.09,19.31,18.87s-3.54,27.61.06,37.49c2.66,7.32,12.93,3.83,14.32.85,3.68-7.88-1.8-22.17,1.2-34.75S84.78,315,87.17,324c1.44,5.39,1.58,23.73,1.47,37.53-.07,8.57-2.87,12.15-5.36,22.37-2.86,11.75,4.25,17.57,8.68,18,4.9.44,11.57-6.14,9.94-15.21-1.52-8.45-3.16-16.65-3.13-25.24,0-9.92.59-21.86,2.78-28.42,4.19-12.58,18-12.58,24-7.79s6.29,27.25,23.36,25.45S156.65,327,177.62,330c19.12,2.73,16.47,36.83,31.74,39.53s9.59-43.46,34.14-41.33c13.78,1.2,14.13,49.77,12,57.26s-4.2,21.56,7.13,20.61c9.13-.77,6.82-13,5.74-19.71-1.19-7.49.6-35,2.64-43.78s14.68-8.38,17.38.6,8.21,86.22,8,90.79c-.6,12.28,19.26,10.43,14.77-.35s-5.41-16.7-5.39-22.16c.05-13.43,4.4-41.66,5.69-67.09.65-12.82,13.09-24.34,22.66-18.21,11.23,7.19,8.78,48.76,8.78,48.76s-6.83,27,3.05,29.4c14.6,3.54,11.33-17.72,8.63-27.6s-1.45-45.68,2.7-47.62c17.37-8.09,10,33.29,26.95,27.85,9.19-2.94,9.39-20.41,13.23-33.49,3-10.18,9.36-4.25,9.39-1.2l.49,65.14s8.09-.15,11.39-9.13A14.4,14.4,0,0,0,417.61,367.53Z"/><path class="cls-10" d="M13.47,298.1v95.25a12.27,12.27,0,0,0,3.62,1V323c0-6.68,3.89-13.14,10.24-15.21a11,11,0,0,1,6.38-.25c9,2.4,18.12,8.08,19.32,18.86s-3.54,27.61,0,37.49c2.66,7.32,12.93,3.84,14.33.85,3.68-7.87-1.8-22.16,1.19-34.74s19.17-11.38,21.57-2.4c1.44,5.4,1.58,23.73,1.46,37.53-.07,8.58-2.87,12.16-5.36,22.37-2.86,11.75,4.25,17.58,8.69,18,4.89.43,11.56-6.15,9.93-15.22-1.52-8.45-3.15-16.65-3.12-25.23,0-9.93.59-21.87,2.77-28.43,4.2-12.58,18-12.58,24-7.79s6.29,27.25,23.36,25.46,7.79-23.66,28.75-20.67c19.12,2.73,16.47,36.84,31.75,39.53S222,329.67,246.5,331.8c13.78,1.21,14.13,49.77,12,57.26s-4.19,21.56,7.14,20.62c9.13-.78,6.82-13,5.74-19.72-1.2-7.49.6-35,2.64-43.78s14.68-8.38,17.37.6,8.21,86.22,8,90.8c-.6,12.27,19.27,10.43,14.77-.35s-5.41-16.7-5.39-22.16c0-13.43,4.4-41.67,5.69-67.09.65-12.83,13.09-24.35,22.66-18.22,11.24,7.19,8.79,48.76,8.79,48.76s-6.84,27,3.05,29.41c14.59,3.54,11.32-17.72,8.63-27.61s-1.46-45.68,2.69-47.62c17.37-8.08,10,33.3,27,27.86,9.18-2.95,9.38-20.42,13.23-33.49,1.79-6.09,4.76-6.38,6.88-5V265.75H13.47Z"/><path class="cls-11" d="M128.85,372.89a6.29,6.29,0,1,0-6.29,6.29A6.28,6.28,0,0,0,128.85,372.89Z"/><path class="cls-11" d="M166.59,389.06a5.39,5.39,0,1,0-5.39,5.39A5.39,5.39,0,0,0,166.59,389.06Z"/><circle class="cls-12" cx="221.39" cy="380.97" r="8.98"/><path class="cls-11" d="M64.16,381a4.49,4.49,0,1,0-4.49,4.5A4.5,4.5,0,0,0,64.16,381Z"/><path class="cls-13" d="M113.58,432.19a3.6,3.6,0,1,0-3.6,3.59A3.6,3.6,0,0,0,113.58,432.19Z"/><circle class="cls-13" cx="149.52" cy="426.8" r="5.39"/><path class="cls-13" d="M204.32,447.46a5.39,5.39,0,1,0-5.39,5.39A5.39,5.39,0,0,0,204.32,447.46Z"/><path class="cls-13" d="M39,420.51a3.6,3.6,0,1,0-3.6,3.59A3.6,3.6,0,0,0,39,420.51Z"/><path class="cls-14" d="M279.79,428.59a4.49,4.49,0,1,0-4.49,4.49A4.49,4.49,0,0,0,279.79,428.59Z"/><path class="cls-14" d="M383.12,410.62a5.39,5.39,0,1,0-5.39,5.39A5.4,5.4,0,0,0,383.12,410.62Z"/><path class="cls-14" d="M364.7,432.19a4,4,0,1,0-4.05,4A4.05,4.05,0,0,0,364.7,432.19Z"/><path class="cls-14" d="M344.48,426.8a6.29,6.29,0,1,0-6.29,6.28A6.28,6.28,0,0,0,344.48,426.8Z"/><path class="cls-9" d="M417.61,367.53A34.79,34.79,0,0,1,413,350s.68-46-.17-72.39c-.48-15.27-4.23-31.75-28.24-41.29-35.26-13.43-100.05-22.43-174.14-22.43-77.17,0-144.25,9.77-178.37,24.12-21.34,9.5-24,25.89-24,32.41,0,23,0,74.78,0,74.78a52.75,52.75,0,0,1-5.55,23.2,13.82,13.82,0,0,0-1,9.54c3,12.28,12.53,12.83,12.53,12.83V319.42c0-6.68,3.88-13.14,10.23-15.21,2-.65,21.42-5,25.7,18.61,1.95,10.68-3.54,27.61.06,37.49,2.66,7.32,12.93,3.83,14.32.85,3.68-7.88-1.8-22.17,1.2-34.75S84.78,315,87.17,324c1.44,5.39,1.58,23.73,1.47,37.53-.07,8.57-2.87,12.15-5.36,22.37-2.86,11.75,4.25,17.57,8.68,18,4.9.44,11.57-6.14,9.94-15.21-1.52-8.45-3.16-16.65-3.13-25.24,0-9.92.59-21.86,2.78-28.42,4.19-12.58,18-12.58,24-7.79s6.29,27.25,23.36,25.45S156.65,327,177.62,330c19.12,2.73,16.47,36.83,31.74,39.53s9.59-43.46,34.14-41.33c13.78,1.2,14.13,49.77,12,57.26s-4.2,21.56,7.13,20.61c9.13-.77,6.82-13,5.74-19.71-1.19-7.49.6-35,2.64-43.78s14.68-8.38,17.38.6,8.21,86.22,8,90.79c-.6,12.28,19.26,10.43,14.77-.35s-5.41-16.7-5.39-22.16c.05-13.43,4.4-41.66,5.69-67.09.65-12.82,13.09-24.34,22.66-18.21,11.23,7.19,8.78,48.76,8.78,48.76s-6.83,27,3.05,29.4c14.6,3.54,11.33-17.72,8.63-27.6s-1.45-45.68,2.7-47.62c17.37-8.09,10,33.29,26.95,27.85,9.19-2.94,9.39-20.41,13.23-33.49,3-10.18,9.36-4.25,9.39-1.2l.49,65.14s8.09-.15,11.39-9.13A14.4,14.4,0,0,0,417.61,367.53Z"/><path class="cls-15" d="M398.34,257.22c0,23.46-84.13,42.47-187.92,42.47S22.5,280.68,22.5,257.22s84.14-42.46,187.92-42.46S398.34,233.77,398.34,257.22Z"/><g class="cls-16"><path class="cls-17" d="M202.13,300.49c-83.46-.27-153.09-10.86-174.5-29.58-2.71-2.37-6.44-6-8.09-11.08-1.95-6-2.7-8.54-4.94-2.84-.79,2-.35,6.05-.15,7.49,3.89,27.4,82.83,41.11,185.41,38.66C210.82,302.2,216.11,300.49,202.13,300.49Z"/></g><path class="cls-18" d="M6.62,371c-.21-1.65-2.28-.86-2.58.31a10.29,10.29,0,0,0,1.67,9.3c1.16,1.59,5.44,1.86,3.8-2C8.5,376.19,6.94,373.58,6.62,371Z"/><path class="cls-18" d="M57.2,318.53c-1.29-6.08-3.82-11.29-8.53-15.27-10.48-8.86-21.79-7.49-32.46.45-1.42,1.05.17,2.07,1.68,1.12,14.83-9.36,31-1.44,34.59,14.15,2.13,9.22-4.11,31.52,2,39.53,1.8,2.38,6.36-.45,3.67-6.51C54,342.84,59.28,328.34,57.2,318.53Z"/><path class="cls-18" d="M90.8,382.82c-.18-1.75-1.62-2.6-2.63-1.14-2.44,3.49-4.48,12.19,1.3,13.67,1.16.29,2.51-1.18,2.59-2.29C92.31,389.61,91.12,385.77,90.8,382.82Z"/><path class="cls-18" d="M151.79,338.14c-11.11-2.86-11-15.24-20.31-20.5-5.6-3.17-11.29-3.31-17.75,0-1.4.72-1.08,2.19.38,1.62a15.63,15.63,0,0,1,15.94,3.32c3.37,3.17,4.92,9,7.3,12.84,3,4.86,7.82,9.32,13.81,7.42C153.11,342.21,154.5,338.85,151.79,338.14Z"/><path class="cls-18" d="M75.42,311.71c-.94.43-.65,2.41.65,2.29,3.69-.33,7.55.05,10.29,2.82,2.5,2.55,3.55,5.7,4.81,8.93.68,1.73,3.33.72,3.45-.85C95.34,315.54,86,306.85,75.42,311.71Z"/><path class="cls-19" d="M210.12,359c-2.27-1.27-8-14.61-9.09-16.95a64.77,64.77,0,0,0-5.54-10.48c-3.87-5.51-8.76-7.86-15.27-6.89-1.44.21-.91,1.08.74,1.2,15.28,1.05,16.46,31.56,25.91,37.13C211.81,365.93,213.16,360.68,210.12,359Z"/><path class="cls-19" d="M245.65,323.62c-1.5-.4-2.77.56-1.18,1.19,6.13,2.4,10.19,8.44,11.4,14.72.49,2.53,3.86,2.22,3.71,0C259,331.26,253.36,325.67,245.65,323.62Z"/><path class="cls-19" d="M262.57,390.71c-.77-2.22-2.83-2.4-4.1-.51-1.54,2.27-2.75,4.78-1.79,7.56.82,2.38,3.12,4.29,5.47,3.11S263.2,392.48,262.57,390.71Z"/><path class="cls-20" d="M63.83,196.92v51.46h0C64,265.28,129.57,279,210.42,279S356.83,265.28,357,248.38h0V196.92Z"/><path class="cls-21" d="M63.83,148.74V200.2h0c.18,16.9,65.73,30.59,146.58,30.59S356.83,217.1,357,200.2h0V148.74Z"/><path class="cls-22" d="M63.83,106.69v47.52h0c.18,16.9,65.73,30.59,146.58,30.59S356.83,171.11,357,154.21h0V106.69Z"/><path class="cls-10" d="M63.83,106.69v90h1.83v-34a18.23,18.23,0,0,1,.84-5.47c2.19-6.94,11.63-8.16,16-2.34,3.14,4.21,3.91,6.33,5,13.09,1.44,8.64,2.15,18.65,1.8,21.12-.6,4.19-5.51,15.31,2,17.07,6.74,1.57,5.92-9.28,4.72-15.28s4-24.36,10.78-24.48c13.25-.22,10.56,22.91,16.4,24.26s10.71-21.86,20.59-21.41S153.41,180,166,180.92c8.82.62,12.46-18.25,25.75-7.79,9.14,7.19,16.18,35.64,14.38,43.43s-6,21.56,3,21.86,8.09-9.27,6-20.07.6-24.85,15.28-25.75c18.32-1.12,20.06,38.93,18.27,48.52s2.39,17.36,9,12.58.46-9.85,0-14.38c-.6-6-2.39-61.7,11.38-61.1s9.89,16.18,24.26,14.38c9.4-1.18,14.67-42.53,26.06-34.14s13,50.23,11.38,54.5c-.9,2.4-5.1,17.67,3.89,17.67,9.58,0,6-10.48,3.89-18.26-2-7.53,2.48-58.81,9.59-63.5,4.91-3.24,7.53.2,8.93,4.29V106.69Z"/><circle class="cls-11" cx="173.78" cy="208.47" r="8.09" transform="translate(-43.12 45.33) rotate(-13.24)"/><path class="cls-11" d="M128,198.59a3.59,3.59,0,1,0-3.59,3.59A3.6,3.6,0,0,0,128,198.59Z"/><path class="cls-11" d="M144.13,215.66a3.6,3.6,0,1,0-3.6,3.59A3.6,3.6,0,0,0,144.13,215.66Z"/><path class="cls-23" d="M298.66,204.88a5.39,5.39,0,1,0-5.39,5.39A5.39,5.39,0,0,0,298.66,204.88Z"/><path class="cls-14" d="M287,243.51a4.49,4.49,0,1,0-4.49,4.49A4.49,4.49,0,0,0,287,243.51Z"/><path class="cls-14" d="M328.31,253.39a4.49,4.49,0,1,0-4.49,4.5A4.5,4.5,0,0,0,328.31,253.39Z"/><path class="cls-14" d="M305,257.89a2.7,2.7,0,1,0-2.69,2.69A2.7,2.7,0,0,0,305,257.89Z"/><path class="cls-13" d="M98.31,239.92a4.5,4.5,0,1,0-4.5,4.49A4.51,4.51,0,0,0,98.31,239.92Z"/><circle class="cls-13" cx="115.38" cy="256.09" r="2.7"/><path class="cls-13" d="M162.1,256.09a4.5,4.5,0,1,0-4.5,4.49A4.49,4.49,0,0,0,162.1,256.09Z"/><path class="cls-9" d="M370.54,198.89a34,34,0,0,0-2.31-5.18,42.07,42.07,0,0,1-4.68-18.88l-.44-46.15h0s0-7.88-.08-10.5c-.25-7.19,1.1-17.64-9.37-24.93-21.41-13.19-77.42-22.61-143.25-22.61-66.86,0-123.59,9.72-144.24,23.24-8.3,5.88-8.48,17-8.37,23.1.07,3.59-.08,11.7-.08,11.7h0s0,0,0,.07l-.18,37.58A32.63,32.63,0,0,1,53.92,181c-1,2-1.7,4.06-1.44,5.27,3.15,14.49,11.39,9.66,11.39,9.66v-37.4A18.49,18.49,0,0,1,64.7,153c2.19-6.94,11.63-8.17,16-2.34,3.14,4.2,3.92,6.32,5,13.09,1.44,8.64,2.15,18.65,1.79,21.12-.6,4.19-5.51,15.31,2,17.07,6.73,1.57,5.91-9.29,4.71-15.28s4-24.37,10.78-24.48c13.26-.22,10.56,22.91,16.4,24.26S132.15,164.59,142,165s9.58,10.78,22.16,11.68c8.83.63,12.46-18.25,25.76-7.78,9.13,7.19,16.17,35.64,14.37,43.43s-6,21.56,3,21.85,8.09-9.27,6-20.06.6-24.86,15.27-25.76c18.33-1.11,20.07,38.94,18.27,48.52s2.4,17.37,9,12.58.46-9.84,0-14.38c-.59-6-2.39-61.69,11.39-61.09s9.88,16.17,24.25,14.37c9.4-1.17,14.68-42.52,26.06-34.14s13,50.24,11.38,54.51c-.9,2.4-5.09,17.67,3.89,17.67,9.59,0,6-10.48,3.9-18.27-2-7.52,2.47-58.81,9.58-63.49,9.55-6.29,10.48,12.58,10.48,12.58v44.92s2.4,10.93,9.14,7.34A9.28,9.28,0,0,0,370.54,198.89Z"/><g class="cls-24"><path class="cls-25" d="M212,134.72c-66.15-.22-123-10.4-138.28-24.48-2.1-1.93-4.35-4.64-4.8-7.79-.7-5-4.26-6.21-6.58-1a14.9,14.9,0,0,0-.79,4.86c.79,22.09,67.35,32.49,148.66,30.55C218.92,136.07,223.12,134.72,212,134.72Z"/></g><path class="cls-18" d="M90.89,192.27c-.09-1.33-1.66-1.25-2.45-.69a3.76,3.76,0,0,0-.58,5.95,2.07,2.07,0,0,0,3.39-1.77C91.13,194.57,91,193.46,90.89,192.27Z"/><path class="cls-18" d="M58.43,182.77c-.09-1.35-1.65-1.26-2.45-.71a3.77,3.77,0,0,0-.57,6,2.07,2.07,0,0,0,3.39-1.77C58.67,185.07,58.51,184,58.43,182.77Z"/><path class="cls-18" d="M83.5,143c-5.65-3.63-14.47-3.74-18.56,2.31-.88,1.3.32,1.39,1.47.54,5.91-4.34,13.54-1.74,17.63,3.6,3.45,4.5,5.51,11.34,5.39,19.31,0,2.19,2.08-3.48,2.14-7.18C91.68,154.34,90.47,147.41,83.5,143Z"/><path class="cls-18" d="M118.37,163.1c-1.8-2.7-5.24-6.07-10.41-6.07-1,0-1.8,1.12-.56,1.58,5.17,1.9,6.79,4,8.76,8.19s2.21,8.13,3.93,13.14c.72,2.08,3.21.87,3.22-2C123.34,172.48,121.41,167.65,118.37,163.1Z"/><path class="cls-18" d="M162.43,170.4c-5-.47-8.8-7.05-11.68-8.76a13.62,13.62,0,0,0-9.43-1.24c-1.55.38-1,1.41.67,1.13,2.66-.45,6.46,2.82,8.09,4.49s6.91,7.91,11.12,8.08C166.48,174.33,166,170.74,162.43,170.4Z"/><path class="cls-19" d="M188.38,162.5c-1.73-.26-2.88.64-.85,1.26,11,3.38,15.74,15.85,17.68,26.31.46,2.52,1,.24,1-1.95C206.31,175.86,201.3,164.43,188.38,162.5Z"/><path class="cls-19" d="M209.65,220.77c-.09-1.25-1.79-1.13-2.35-.32-1.58,2.25-2.42,4.91-.87,7.37,1.29,2.05,4.46.8,4.22-1.6C210.46,224.37,209.78,222.65,209.65,220.77Z"/><path class="cls-19" d="M253.66,241.71a6.51,6.51,0,0,0-1.74-2.31,1.8,1.8,0,0,0-2.82.52,5.23,5.23,0,0,0-.24,5.05C250.17,248.46,255.38,246.51,253.66,241.71Z"/><path class="cls-15" d="M348.68,102c0,17.26-61.9,31.25-138.26,31.25S72.17,119.26,72.17,102s61.9-31.24,138.25-31.24S348.68,84.75,348.68,102Z"/><path class="cls-9" d="M110,94.37S121.67,102,127.5,105.6s19.32,4.49,19.32,4.49c4.55,8.16,15.41,12,32.8,11.23,14.22,5.06,28.18,9.44,36.83,0,17.68,5.78,28.6,3.3,30.1-6.29,10.33,6.74,31,11.68,40.88,1.8,1.53-1.53,1.35-8.54,1.35-8.54,8.51,3.36,21.77.43,24.26-10.78,2.06-9.29-11.54-11.7-21.37-16.56Z"/><path class="cls-26" d="M278.21,48.23c4,14.16-6.49,29.53-6.49,29.53s-17-7.6-21-21.76c-2.93-13.72.49-22.82,7.2-27C265.23,29.6,273.43,35.52,278.21,48.23Z"/><path class="cls-27" d="M257.76,29.08c-6.59,4.25-9.94,13.31-7,26.92,3.75,13.23,18.81,20.73,20.77,21.66Z"/><path class="cls-28" d="M271.05,77.44l.67.32s.16-.23.41-.63l-13.6-48.08-.6-.08c-.17.1-.32.22-.49.33Z"/><path class="cls-26" d="M304.53,71.86c-12.71,10.12-32.82,6-32.82,6s.48-20.53,13.19-30.64C297.61,38.37,308.32,38,315.47,43,318,50.71,315.42,61.58,304.53,71.86Z"/><path class="cls-27" d="M315.29,42.89c-7.14-4.9-17.79-4.45-30.39,4.33-11.87,9.45-13.08,28-13.18,30.37Z"/><path class="cls-28" d="M271.75,77c0,.52,0,.82,0,.82l.81.14,43.13-34.35c-.06-.22-.11-.43-.18-.64s-.36-.23-.55-.35Z"/><path class="cls-29" d="M272.59,74.05a17.95,17.95,0,1,0-17.95,18A17.95,17.95,0,0,0,272.59,74.05Z"/><path class="cls-30" d="M251,73.53a10.59,10.59,0,0,1,4.81-2.2l3.06-.41c1.52-.2,2.27-1.34,1.68-2.52L259.32,66a7.18,7.18,0,0,1-.31-4.61l.85-2.75c.42-1.34-.46-2.21-2-1.94l-3.06.55a9.17,9.17,0,0,1-5-.65l-2.54-1.28a2,2,0,0,0-2.89,1.32l-.69,2.76a9.24,9.24,0,0,1-2.79,4.21l-2.42,2c-1.19.95-1.11,2.2.19,2.76l2.63,1.15a7.19,7.19,0,0,1,3.28,3.26l1.05,2.48c.51,1.23,1.86,1.4,3,.39Z"/><path class="cls-31" d="M256.64,61.9c-1.44-3.17-5.61-4.38-9.31-2.69s-5.51,5.63-4.06,8.8,5.62,4.38,9.31,2.69S258.09,65.07,256.64,61.9Z"/><path class="cls-32" d="M255.88,62.25c-1.28-2.81-5-3.88-8.25-2.38s-4.88,5-3.6,7.79,5,3.88,8.25,2.38S257.16,65.05,255.88,62.25Z"/><path class="cls-31" d="M251.42,64.29a1.62,1.62,0,1,0-.89,1.92A1.52,1.52,0,0,0,251.42,64.29Z"/><g class="cls-33"><path class="cls-34" d="M245.33,66.09c-1.17-.51-1.13-1.47-.8-2.53.54-1.76,2-2.63,3.19-2.11s.37,1.34-.54,2.45C246.46,64.78,246.51,66.6,245.33,66.09Z"/></g><path class="cls-35" d="M305.62,85.39a17.95,17.95,0,1,0-17.95,18A17.95,17.95,0,0,0,305.62,85.39Z"/><g class="cls-33"><path class="cls-34" d="M275,78.21c-1.19-.77-1.25-2.29-.32-3.72s2.53-2.24,3.71-1.46.34,2-.6,3.42S276.19,79,275,78.21Z"/></g><path class="cls-36" d="M287.55,90.23a9,9,0,0,1,5.13,0l2.87,1A1.74,1.74,0,0,0,298,89.44l-.09-3a8.89,8.89,0,0,1,1.59-4.88l1.85-2.41a1.74,1.74,0,0,0-.95-2.93l-2.92-.86a9,9,0,0,1-4.15-3l-1.72-2.51a1.75,1.75,0,0,0-3.08,0l-1.72,2.51a8.9,8.9,0,0,1-4.15,3l-2.92.86a1.74,1.74,0,0,0-.95,2.93l1.86,2.41a9,9,0,0,1,1.58,4.88l-.08,3a1.74,1.74,0,0,0,2.49,1.81Z"/><path class="cls-37" d="M297.24,81a7.13,7.13,0,1,0-7.13,7.13A7.13,7.13,0,0,0,297.24,81Z"/><path class="cls-38" d="M296.42,81a6.31,6.31,0,1,0-6.31,6.31A6.31,6.31,0,0,0,296.42,81Z"/><path class="cls-37" d="M291.67,81a1.56,1.56,0,1,0-1.56,1.56A1.56,1.56,0,0,0,291.67,81Z"/><path class="cls-39" d="M278.47,92.87a18,18,0,1,0-18,17.95A18,18,0,0,0,278.47,92.87Z"/><path class="cls-36" d="M252.43,100.61a8.82,8.82,0,0,1,5,.92l2.63,1.52a1.74,1.74,0,0,0,2.76-1.34l.46-3a9,9,0,0,1,2.42-4.52l2.26-2a1.75,1.75,0,0,0-.41-3l-2.7-1.36A8.89,8.89,0,0,1,261.34,84l-1.23-2.78a1.73,1.73,0,0,0-3-.55L255,82.85a8.77,8.77,0,0,1-4.6,2.23l-3,.33a1.74,1.74,0,0,0-1.45,2.71l1.39,2.71a9,9,0,0,1,.67,5.08l-.62,3a1.73,1.73,0,0,0,2.11,2.22Z"/><path class="cls-37" d="M263.58,93.22A7.09,7.09,0,1,0,255.33,99,7.11,7.11,0,0,0,263.58,93.22Z"/><path class="cls-40" d="M262.78,93.08a6.28,6.28,0,1,0-7.31,5.08A6.29,6.29,0,0,0,262.78,93.08Z"/><path class="cls-37" d="M258.12,92.23a1.54,1.54,0,1,0-1.8,1.25A1.55,1.55,0,0,0,258.12,92.23Z"/><g class="cls-41"><path class="cls-34" d="M248.64,82.83c-.7-.77-.43-2,.45-3,1.45-1.55,3.56-2,4.26-1.22s-.22,2.59-1.62,3.46C250.63,82.77,249.34,83.58,248.64,82.83Z"/></g><path class="cls-42" d="M131.39,96.35c13.19-3.95,20-19.95,20-19.95s-14.52-9.58-27.7-5.63C111.42,75.34,106,82.6,106,90,110.18,95.46,119,99,131.39,96.35Z"/><path class="cls-43" d="M106,89.83c0-7.35,5.51-14.53,17.71-19.06,12.32-3.69,25.79,4.43,27.51,5.51Z"/><path class="cls-44" d="M150.85,76l.58.36s-.1.24-.28.64L106.38,90.45,106,90c0-.18,0-.36,0-.55Z"/><path class="cls-26" d="M150.77,46.36c-4.13,14.6,6.68,30.44,6.68,30.44S175,69,179.09,54.38c3-14.15-.5-23.53-7.42-27.87C164.14,27.17,155.69,33.27,150.77,46.36Z"/><path class="cls-27" d="M171.84,26.63c6.8,4.39,10.25,13.72,7.25,27.75C175.23,68,159.71,75.74,157.68,76.7Z"/><path class="cls-28" d="M158.14,76.47l-.69.33s-.16-.23-.41-.64l14-49.56.62-.09.5.35Z"/><path class="cls-26" d="M123.64,70.73c13.1,10.43,33.83,6.17,33.83,6.17s-.5-21.15-13.6-31.58c-13.1-9.11-24.15-9.53-31.51-4.33C109.81,48.92,112.42,60.13,123.64,70.73Z"/><path class="cls-27" d="M112.55,40.86c7.36-5.06,18.33-4.58,31.32,4.46,12.24,9.75,13.48,28.83,13.59,31.31Z"/><path class="cls-28" d="M157.42,76.07c0,.52.05.83.05.83s-.31.07-.83.16L112.18,41.64c.06-.21.11-.44.18-.65s.38-.25.57-.37Z"/><path class="cls-45" d="M156.56,73a18.5,18.5,0,1,1,18.5,18.49A18.5,18.5,0,0,1,156.56,73Z"/><path class="cls-30" d="M178.85,72.44a11,11,0,0,0-5-2.26l-3.17-.42c-1.55-.21-2.33-1.39-1.72-2.61l1.23-2.49a7.33,7.33,0,0,0,.33-4.75l-.88-2.83c-.44-1.39.47-2.29,2-2l3.16.58A9.54,9.54,0,0,0,180,55l2.61-1.31a2,2,0,0,1,3,1.36l.71,2.84a9.57,9.57,0,0,0,2.87,4.34l2.5,2c1.23,1,1.14,2.27-.19,2.84l-2.71,1.18a7.5,7.5,0,0,0-3.39,3.36l-1.07,2.57c-.53,1.25-1.92,1.44-3.09.4Z"/><path class="cls-31" d="M173,60.46c1.49-3.27,5.79-4.51,9.6-2.78s5.68,5.81,4.19,9.07-5.79,4.52-9.6,2.78S171.5,63.73,173,60.46Z"/><path class="cls-32" d="M173.78,60.81c1.32-2.89,5.13-4,8.5-2.45s5,5.14,3.71,8-5.13,4-8.5,2.46S172.46,63.71,173.78,60.81Z"/><path class="cls-31" d="M178.38,62.92a1.67,1.67,0,1,1,.92,2A1.55,1.55,0,0,1,178.38,62.92Z"/><g class="cls-33"><path class="cls-34" d="M164.16,64.86c-1.3-.85-1-2-.44-3.18,1-2,2.93-2.71,4.23-1.85s.16,1.66-1.15,2.8C165.76,63.53,165.44,65.71,164.16,64.86Z"/></g><path class="cls-46" d="M122.51,84.67a18.5,18.5,0,1,1,18.5,18.5A18.5,18.5,0,0,1,122.51,84.67Z"/><path class="cls-36" d="M141.14,89.66a9.16,9.16,0,0,0-5.29,0l-2.95,1a1.79,1.79,0,0,1-2.57-1.86l.09-3.13a9.21,9.21,0,0,0-1.63-5l-1.92-2.49a1.79,1.79,0,0,1,1-3l3-.9a9.11,9.11,0,0,0,4.28-3.11l1.77-2.58a1.79,1.79,0,0,1,3.17,0l1.78,2.58a9.09,9.09,0,0,0,4.27,3.11l3,.9a1.78,1.78,0,0,1,1,3l-1.91,2.49a9.13,9.13,0,0,0-1.63,5l.08,3.13a1.78,1.78,0,0,1-2.56,1.86Z"/><path class="cls-37" d="M131.16,80.1a7.34,7.34,0,1,1,7.34,7.34A7.34,7.34,0,0,1,131.16,80.1Z"/><path class="cls-38" d="M132,80.1a6.51,6.51,0,1,1,6.51,6.5A6.51,6.51,0,0,1,132,80.1Z"/><path class="cls-37" d="M136.9,80.1a1.6,1.6,0,1,1,1.6,1.6A1.6,1.6,0,0,1,136.9,80.1Z"/><path class="cls-47" d="M150.5,92.38a18.5,18.5,0,1,1,18.5,18.5A18.5,18.5,0,0,1,150.5,92.38Z"/><path class="cls-36" d="M177.34,100.36a9.13,9.13,0,0,0-5.17.94l-2.71,1.57a1.79,1.79,0,0,1-2.85-1.38l-.48-3.1a9.25,9.25,0,0,0-2.5-4.66l-2.32-2.11a1.8,1.8,0,0,1,.42-3.14l2.79-1.41a9,9,0,0,0,3.63-3.82l1.27-2.86a1.78,1.78,0,0,1,3.11-.56l2.2,2.22a9,9,0,0,0,4.74,2.3l3.11.34a1.8,1.8,0,0,1,1.5,2.79l-1.44,2.79a9.31,9.31,0,0,0-.69,5.24l.65,3.07a1.79,1.79,0,0,1-2.18,2.29Z"/><path class="cls-37" d="M165.85,92.74a7.31,7.31,0,1,1,8.5,5.92A7.32,7.32,0,0,1,165.85,92.74Z"/><path class="cls-40" d="M166.67,92.59a6.47,6.47,0,1,1,7.53,5.24A6.48,6.48,0,0,1,166.67,92.59Z"/><path class="cls-37" d="M171.47,91.72A1.59,1.59,0,1,1,173.32,93,1.6,1.6,0,0,1,171.47,91.72Z"/><g class="cls-41"><path class="cls-34" d="M157.79,84.6c-.72-.78-.44-2.07.47-3,1.49-1.6,3.67-2,4.39-1.27S162.43,83,161,83.86C159.85,84.55,158.51,85.39,157.79,84.6Z"/></g><path class="cls-48" d="M235.71,17.77c-2.78,5.44-8.42,11.33-11,10s-1.13-9.34,1.65-14.79,9.71-7.46,9.71-7.46S238.48,12.33,235.71,17.77Z"/><path class="cls-49" d="M225.84,9.83c.93,5.75.18,13.36-2.2,13.67s-5.51-6.76-6.45-12.5,2.64-11,2.64-11S224.91,4.08,225.84,9.83Z"/><path class="cls-48" d="M217.75,9.42c2.37,4.06,4,10,2.37,10.91s-6-3.53-8.39-7.58-1.27-9-1.27-9S215.39,5.36,217.75,9.42Z"/><path class="cls-49" d="M238.57,16.32c-5.2,2.62-10.93,7.7-9.77,9.82s8.71.48,13.91-2.13,7.35-8.59,7.35-8.59S243.77,13.7,238.57,16.32Z"/><path class="cls-48" d="M243.66,22.63c-4.68.47-10.47,2.6-10.24,4.49s6.4,2.81,11.08,2.34,8.05-4.27,8.05-4.27S248.33,22.16,243.66,22.63Z"/><path class="cls-50" d="M251.31,47.72c-.85-9.61-7.89-16.5-16.51-20.9l-7.62-3.89L219.56,19C210.93,14.65,201.23,13,193,18s-12.47,13.26-13.21,22.12c-1.05,12.67,2.08,18.79,3.63,29.9.77,5.65.63,14.22,9.95,19.34,9.61,4.54,16.47-.61,21.5-3.29,9.89-5.28,16.7-6.34,26.33-14.62C247.89,65.6,252.17,57.33,251.31,47.72Z"/><path class="cls-51" d="M193.36,24.34c-1.83-.93-4.19.16-5.38,2.49s-.69,4.9,1.13,5.82,4.19-.17,5.38-2.5S195.17,25.27,193.36,24.34Zm.26,13.43c-1.83-.93-4.18.17-5.37,2.5s-.7,4.88,1.13,5.81,4.18-.15,5.37-2.49S195.44,38.7,193.62,37.77Zm11.44-7.46c-1.82-.93-4.18.17-5.37,2.5s-.69,4.89,1.13,5.82,4.18-.17,5.37-2.5S206.88,31.24,205.06,30.31Zm-10.21,20c-1.82-.94-4.18.16-5.37,2.5s-.69,4.88,1.13,5.81,4.18-.17,5.37-2.5S196.68,51.26,194.85,50.33Zm32.49-10.1c1.83.93,4.19-.16,5.37-2.49s.7-4.89-1.13-5.82-4.18.16-5.37,2.5S225.51,39.3,227.34,40.23ZM240.58,47c1.82.92,4.18-.17,5.37-2.5s.7-4.89-1.13-5.82-4.18.17-5.37,2.5S238.76,46.05,240.58,47ZM196.65,64.53c-1.83-.93-4.19.17-5.38,2.5s-.69,4.89,1.14,5.82,4.18-.17,5.37-2.5S198.47,65.46,196.65,64.53Zm2.93-38.46c1.83.93,4.19-.16,5.38-2.49s.69-4.89-1.13-5.82-4.18.17-5.38,2.5S197.76,25.14,199.58,26.07Zm17.55,34.17c1.83.93,4.18-.16,5.38-2.49s.69-4.89-1.14-5.82-4.18.17-5.37,2.5S215.3,59.31,217.13,60.24Zm17.48-1.56c-1.82-.93-4.18.17-5.37,2.5s-.69,4.88,1.13,5.81,4.18-.16,5.37-2.49S236.44,59.61,234.61,58.68Zm-12,5.81c-1.82-.93-4.18.16-5.37,2.49s-.69,4.88,1.13,5.82,4.19-.17,5.38-2.5S224.43,65.42,222.6,64.49Zm10.21-20c-1.82-.93-4.18.16-5.37,2.5s-.69,4.89,1.13,5.81,4.19-.16,5.38-2.49S234.64,45.4,232.81,44.47ZM211.16,71.93c-1.82-.92-4.18.18-5.37,2.51s-.69,4.88,1.13,5.81,4.19-.16,5.38-2.49S213,72.87,211.16,71.93Zm34.73-20.79c-1.82-.93-4.18.17-5.37,2.5s-.69,4.89,1.13,5.82,4.19-.18,5.38-2.51S247.72,52.08,245.89,51.14ZM217.07,24.51c-1.83-.93-4.19.16-5.38,2.5s-.69,4.89,1.13,5.82,4.19-.17,5.38-2.5S218.89,25.44,217.07,24.51ZM199.16,77.74c-1.82-.93-4.18.16-5.38,2.5s-.68,4.88,1.14,5.82,4.18-.18,5.37-2.5S201,78.66,199.16,77.74Zm7.7-33.22c-1.83-.93-4.19.17-5.38,2.5s-.69,4.89,1.14,5.81,4.18-.15,5.37-2.49S208.68,45.45,206.86,44.52Zm12.72-6.8c-1.83-.93-4.19.16-5.38,2.49s-.69,4.9,1.14,5.82,4.18-.17,5.37-2.5S221.4,38.65,219.58,37.72Zm-10.21,20c-1.82-.92-4.19.16-5.38,2.49s-.68,4.89,1.14,5.82,4.18-.16,5.37-2.5S211.19,58.66,209.37,57.73Z"/><path class="cls-52" d="M203.28,22.72c-.69,1.37-2,2.13-2.85,1.68s-1-1.92-.3-3.29,2-2.12,2.84-1.67S204,21.35,203.28,22.72Z"/><path class="cls-52" d="M216.52,29.47c-.7,1.37-2,2.13-2.84,1.69s-1-1.92-.32-3.29,2-2.13,2.85-1.68S217.22,28.1,216.52,29.47Z"/><path class="cls-52" d="M231,36.88c-.69,1.37-2,2.13-2.84,1.68s-1-1.92-.31-3.29,2-2.13,2.85-1.68S231.74,35.51,231,36.88Z"/><path class="cls-52" d="M244.27,43.63c-.7,1.37-2,2.13-2.84,1.69s-1-1.93-.31-3.3,2-2.12,2.84-1.67S245,42.26,244.27,43.63Z"/><path class="cls-52" d="M192.81,29.3c-.7,1.37-2,2.12-2.84,1.68s-1-1.91-.31-3.29,2-2.12,2.84-1.67S193.51,27.93,192.81,29.3Z"/><path class="cls-52" d="M204.52,35.27c-.7,1.38-2,2.13-2.85,1.68s-1-1.92-.31-3.29,2-2.12,2.84-1.67S205.22,33.9,204.52,35.27Z"/><path class="cls-52" d="M219,42.68c-.7,1.37-2,2.12-2.84,1.68s-1-1.92-.31-3.29,2-2.12,2.84-1.68S219.73,41.3,219,42.68Z"/><path class="cls-52" d="M232.27,49.43c-.7,1.37-2,2.13-2.85,1.68s-1-1.91-.3-3.29,2-2.12,2.83-1.68S233,48.06,232.27,49.43Z"/><path class="cls-52" d="M245.35,56.1c-.7,1.37-2,2.12-2.85,1.68s-1-1.91-.3-3.28,2-2.12,2.84-1.68S246.05,54.73,245.35,56.1Z"/><path class="cls-52" d="M193.08,42.73c-.71,1.38-2,2.12-2.85,1.67s-1-1.91-.31-3.27,2-2.12,2.84-1.68S193.78,41.36,193.08,42.73Z"/><path class="cls-52" d="M206.31,49.49c-.69,1.37-2,2.12-2.84,1.67s-1-1.91-.31-3.28,2-2.12,2.84-1.68S207,48.12,206.31,49.49Z"/><path class="cls-52" d="M220.83,56.89c-.7,1.38-2,2.12-2.84,1.67s-1-1.91-.32-3.28,2-2.12,2.84-1.67S221.53,55.51,220.83,56.89Z"/><path class="cls-52" d="M234.06,63.64c-.69,1.37-2,2.12-2.84,1.68s-1-1.92-.3-3.28,2-2.12,2.84-1.68S234.76,62.27,234.06,63.64Z"/><path class="cls-52" d="M194.31,55.29c-.7,1.37-2,2.12-2.85,1.68s-1-1.93-.31-3.29,2-2.12,2.84-1.68S195,53.91,194.31,55.29Z"/><path class="cls-52" d="M208.82,62.69c-.7,1.37-2,2.13-2.84,1.68s-1-1.92-.31-3.29,2-2.12,2.85-1.68S209.52,61.32,208.82,62.69Z"/><path class="cls-52" d="M222.06,69.45c-.69,1.37-2,2.12-2.85,1.67s-1-1.92-.3-3.29,2-2.12,2.84-1.67S222.76,68.07,222.06,69.45Z"/><path class="cls-52" d="M196.11,69.5c-.7,1.37-2,2.12-2.85,1.67s-1-1.92-.31-3.29,2-2.12,2.84-1.67S196.81,68.12,196.11,69.5Z"/><path class="cls-52" d="M210.62,76.9c-.7,1.37-2,2.12-2.85,1.68s-1-1.92-.31-3.29,2-2.12,2.85-1.68S211.32,75.53,210.62,76.9Z"/><path class="cls-52" d="M198.62,82.7c-.7,1.37-2,2.12-2.84,1.68s-1-1.92-.32-3.29,2-2.12,2.85-1.67S199.32,81.33,198.62,82.7Z"/><path class="cls-34" d="M205.7,29.77c-4.54,2.32-8.79,3.44-10.52.26s.55-7.64,5.1-10,9.63-1.62,11.36,1.56S210.25,27.45,205.7,29.77Z"/><path class="cls-42" d="M257.81,116.74C244.57,113,237.46,97.1,237.46,97.1s14.37-9.8,27.62-6.06c12.37,4.38,17.94,11.56,18,19C279,115.51,270.27,119.15,257.81,116.74Z"/><path class="cls-43" d="M283.08,109.82c-.16-7.34-5.73-14.44-18-18.78-12.38-3.5-25.72,4.83-27.43,5.94Z"/><path class="cls-44" d="M238,96.73l-.58.37.3.63,45,12.72.35-.45c0-.18,0-.36,0-.54Z"/><path class="cls-53" d="M248.8,99.94a19,19,0,1,0-19,19A19,19,0,0,0,248.8,99.94Z"/><path class="cls-36" d="M221.18,108.15a9.34,9.34,0,0,1,5.32,1l2.79,1.61a1.84,1.84,0,0,0,2.93-1.41l.49-3.2a9.53,9.53,0,0,1,2.57-4.79l2.39-2.17a1.86,1.86,0,0,0-.43-3.24l-2.87-1.44a9.53,9.53,0,0,1-3.74-3.94l-1.31-2.94a1.83,1.83,0,0,0-3.19-.58l-2.27,2.29A9.4,9.4,0,0,1,219,91.67l-3.2.35a1.84,1.84,0,0,0-1.54,2.87l1.47,2.87a9.5,9.5,0,0,1,.71,5.39l-.66,3.16a1.85,1.85,0,0,0,2.24,2.37Z"/><path class="cls-37" d="M233,100.3a7.52,7.52,0,1,0-8.75,6.1A7.54,7.54,0,0,0,233,100.3Z"/><path class="cls-40" d="M232.16,100.15a6.66,6.66,0,1,0-7.76,5.4A6.68,6.68,0,0,0,232.16,100.15Z"/><path class="cls-37" d="M227.22,99.25a1.64,1.64,0,1,0-1.91,1.33A1.65,1.65,0,0,0,227.22,99.25Z"/><g class="cls-41"><path class="cls-34" d="M217.15,89.28c-.74-.81-.44-2.14.49-3.14,1.53-1.65,3.78-2.11,4.52-1.31s-.24,2.76-1.73,3.68C219.27,89.22,217.89,90.08,217.15,89.28Z"/></g><path class="cls-42" d="M236.14,85.19C226.91,97.75,207.25,99,207.25,99s-4.7-19.12,4.52-31.68c9.55-11.39,19.38-14.45,27.26-11.58C243.26,62.23,243.64,72.94,236.14,85.19Z"/><path class="cls-43" d="M238.83,55.66C231,52.91,221.24,56,211.77,67.3c-8.62,11.73-5.08,29.18-4.58,31.43Z"/><path class="cls-44" d="M207.09,98.22c.09.48.16.76.16.76l.79-.07,31.31-42.64c-.11-.18-.21-.38-.32-.55l-.6-.19Z"/><path class="cls-42" d="M170,115.66c13.19-3.94,20-19.94,20-19.94s-14.52-9.59-27.71-5.64c-12.3,4.57-17.76,11.84-17.71,19.25C148.81,114.78,157.6,118.27,170,115.66Z"/><path class="cls-43" d="M144.65,109.15c0-7.35,5.51-14.53,17.71-19.07,12.32-3.68,25.79,4.43,27.52,5.52Z"/><path class="cls-44" d="M189.48,95.36l.59.36s-.1.24-.29.63L145,109.77c-.12-.15-.25-.29-.36-.44s0-.36,0-.55Z"/><path class="cls-42" d="M196.26,66c6.79,10.79,1.82,26.12,1.82,26.12s-16-2.17-22.76-12.95c-5.79-10.69-5.17-19.09-.62-24.23C180.93,53.7,189.19,56.62,196.26,66Z"/><path class="cls-43" d="M174.59,55.09c-4.44,5.14-5,13.49.73,24.09,6.34,10.08,20.69,12.63,22.55,12.93Z"/><path class="cls-44" d="M197.45,92l.63.1.18-.61-23-36.64-.52.07-.32.4Z"/><path class="cls-54" d="M219.23,101.88a21,21,0,1,0-21,21A21,21,0,0,0,219.23,101.88Z"/><g class="cls-33"><path class="cls-34" d="M185.43,95.26c-1.8-1.17-1.89-3.47-.47-5.64s3.83-3.4,5.63-2.21.5,3-.92,5.18S187.23,96.45,185.43,95.26Z"/></g><path class="cls-36" d="M198.05,107.55a10.6,10.6,0,0,1,6,0l3.36,1.2a2,2,0,0,0,2.92-2.12l-.1-3.57a10.51,10.51,0,0,1,1.85-5.71l2.18-2.83a2,2,0,0,0-1.11-3.43l-3.42-1a10.42,10.42,0,0,1-4.87-3.53l-2-2.94a2,2,0,0,0-3.6,0l-2,2.94a10.44,10.44,0,0,1-4.86,3.53l-3.43,1a2,2,0,0,0-1.11,3.43L190,97.35a10.43,10.43,0,0,1,1.85,5.71l-.1,3.57a2,2,0,0,0,2.92,2.12Z"/><path class="cls-37" d="M209.41,96.69a8.35,8.35,0,1,0-8.35,8.35A8.35,8.35,0,0,0,209.41,96.69Z"/><path class="cls-38" d="M208.45,96.69a7.39,7.39,0,1,0-7.39,7.39A7.39,7.39,0,0,0,208.45,96.69Z"/><path class="cls-37" d="M202.88,96.69a1.82,1.82,0,1,0-1.82,1.82A1.83,1.83,0,0,0,202.88,96.69Z"/><path class="cls-9" d="M14.3,253.84s2.69,8.54,9.88,11.68,11.23.9,13.93,3.15,13,6.29,13,6.29c6.81-.8.89,4.49,13.92,9.43,5.64,2.14,17.52.45,22.91,1.8s18.87-2.25,22.46-1.8S118.07,293.82,128,297s19.77-4.49,28.31-4.05c6.72.36,15.27-.44,22.46.46s14,7.49,23.41,7.11S238,301.91,243,299.21s5.84-8.08,12.13-6.29,20.21,4.05,26.5,3.6,15.27-6.74,19.32-5.39,31,1.79,38.18-1.8,9.44-17.07,14.83-15.72,26.05,0,30.1-4.05,10.78-4,14.82-9.88a7.27,7.27,0,0,0-1.12-10L296,266.87,194.44,277.2l-70.53-6.29L43.5,256.09Z"/><path class="cls-9" d="M189.21,223.72a3.14,3.14,0,0,0-.39-.24,4.11,4.11,0,0,1,.39.24Z"/><path class="cls-55" d="M359,185c-7.62,2.12-12,12.17-13,19.27-.17,1.27,0,2.73-.28,4-.37,1.79-1.48,5.79-3.93,6.39-.17,0-2.82-1.22-3.38-1.28-1.87-.22-3.28,1.1-4.83,1.08s-3.43-1.43-5.46-1.32c-4.08.23-3.81,3-6.45,4.65-2,1.21-6.58-.35-9.54-.18a29.93,29.93,0,0,0-18.71,8.11c-2.18-6.55-7.45-14.62-15.15-14.32-10,.38-18.46,9.65-22.74,17.81-4.75-3.08-10-6.2-15.67-6.67-19.35-1.62-22.31,6.83-23.38,7.48-1.47.9-3.26.31-5.71.17-2.26-.13-4.57.5-6.78.38-3-.16-1,.18-3.45-1.38s-3.53-3.78-7-3.4c-1.73.21-2.88,1.28-4.33,1.11-.62-.08-5.58-2.1-5.41-2.66-10.24-3.82-21.71.2-30.45,5.86-5.68-10.86-21.16-25-32.31-13.13-2.55,2.71-3.18,5.73-6.13,2.12-2.73-3.36-1.13-7.55-6.57-8.91-2.54-.63-3.47,1-5.69,1-1.16,0-2-.94-3.42-1.14-4.81-.65-5.17,2.41-8.5,4.47-1.31.82-10.94.37-13.57.32-4.44-.09-4.63-1.2-4.92-5.55a28.77,28.77,0,0,0-4.54-14.49c-4.35-6.33-9.75-7.93-15.09-6.78a4.58,4.58,0,0,0-.15,1.41c3.08,14.19,11,9.86,11.35,9.67v52.47h0c.18,16.91,65.73,30.6,146.58,30.6S356.83,268.43,357,251.52h0v-45.3c.73,2.49,3.3,9.42,8.89,6.44A9.28,9.28,0,0,0,370.54,202a34,34,0,0,0-2.31-5.18,41.78,41.78,0,0,1-4-12A12.44,12.44,0,0,0,359,185Z"/><path class="cls-26" d="M37.3,209.89c-3.92,13.86,6.34,28.89,6.34,28.89s16.61-7.43,20.53-21.28c2.88-13.42-.47-22.32-7-26.44C50,191.68,42,197.47,37.3,209.89Z"/><path class="cls-27" d="M57.29,191.17c6.46,4.16,9.73,13,6.88,26.33-3.66,12.94-18.39,20.28-20.31,21.18Z"/><path class="cls-28" d="M44.3,238.47l-.66.31-.39-.61,13.29-47,.59-.08c.17.1.32.22.48.33Z"/><path class="cls-26" d="M11.56,233c12.43,9.89,32.1,5.86,32.1,5.86s-.48-20.08-12.9-30c-12.44-8.65-22.92-9-29.91-4.12C-1.57,212.32.91,223,11.56,233Z"/><path class="cls-27" d="M1,204.67c7-4.79,17.4-4.34,29.73,4.24,11.6,9.25,12.79,27.36,12.89,29.71Z"/><path class="cls-28" d="M43.62,238.08c0,.5,0,.8,0,.8l-.79.14L.68,205.42c.06-.21.11-.42.17-.63l.54-.34Z"/><path class="cls-56" d="M42.79,235.16a17.56,17.56,0,1,1,17.56,17.55A17.56,17.56,0,0,1,42.79,235.16Z"/><path class="cls-30" d="M63.94,234.65a10.44,10.44,0,0,0-4.7-2.16l-3-.39c-1.48-.21-2.22-1.32-1.64-2.48l1.17-2.36a7,7,0,0,0,.31-4.51l-.84-2.68c-.41-1.32.46-2.17,1.92-1.91l3,.55a9.17,9.17,0,0,0,4.9-.64l2.48-1.25a1.89,1.89,0,0,1,2.82,1.29L71,220.8a9,9,0,0,0,2.72,4.12l2.37,1.91c1.17.94,1.09,2.15-.18,2.7l-2.57,1.12a7,7,0,0,0-3.21,3.19l-1,2.43c-.5,1.2-1.82,1.37-2.94.38Z"/><path class="cls-31" d="M58.39,223.27c1.41-3.1,5.49-4.28,9.11-2.63s5.39,5.5,4,8.61-5.5,4.28-9.11,2.63S57,226.37,58.39,223.27Z"/><path class="cls-32" d="M59.13,223.6c1.26-2.73,4.87-3.78,8.07-2.32s4.78,4.88,3.52,7.62-4.86,3.79-8.06,2.33S57.88,226.35,59.13,223.6Z"/><path class="cls-31" d="M63.5,225.6a1.59,1.59,0,0,1,2.86,1.31,1.59,1.59,0,0,1-2.86-1.31Z"/><g class="cls-33"><path class="cls-34" d="M50,227.44c-1.22-.8-1-1.87-.41-3,.95-1.86,2.79-2.56,4-1.75s.16,1.58-1.09,2.66C51.53,226.19,51.22,228.25,50,227.44Z"/></g><path class="cls-57" d="M10.48,246.25A17.56,17.56,0,1,1,28,263.8,17.56,17.56,0,0,1,10.48,246.25Z"/><g class="cls-33"><path class="cls-34" d="M17.46,239.22c-1.16-.76-1.22-2.24-.3-3.64s2.47-2.18,3.63-1.43.32,1.95-.59,3.34S18.63,240,17.46,239.22Z"/></g><path class="cls-36" d="M28.17,251a8.76,8.76,0,0,0-5,0l-2.81,1a1.7,1.7,0,0,1-2.43-1.77l.08-3a8.74,8.74,0,0,0-1.55-4.77l-1.82-2.36a1.7,1.7,0,0,1,.93-2.86l2.86-.85a8.73,8.73,0,0,0,4.06-2.94L24.15,231a1.7,1.7,0,0,1,3,0l1.68,2.46a8.78,8.78,0,0,0,4.06,2.94l2.86.85a1.7,1.7,0,0,1,.93,2.86l-1.82,2.36a8.74,8.74,0,0,0-1.55,4.77l.09,3A1.71,1.71,0,0,1,31,252Z"/><path class="cls-37" d="M18.69,241.9a7,7,0,1,1,7,7A7,7,0,0,1,18.69,241.9Z"/><path class="cls-38" d="M19.48,241.9a6.18,6.18,0,1,1,6.18,6.18A6.18,6.18,0,0,1,19.48,241.9Z"/><path class="cls-37" d="M24.14,241.9a1.52,1.52,0,1,1,1.52,1.53A1.52,1.52,0,0,1,24.14,241.9Z"/><path class="cls-58" d="M37,253.56A17.56,17.56,0,1,1,54.6,271.12,17.56,17.56,0,0,1,37,253.56Z"/><path class="cls-36" d="M62.51,261.14a8.6,8.6,0,0,0-4.91.89L55,263.52a1.7,1.7,0,0,1-2.7-1.31l-.45-2.94a8.74,8.74,0,0,0-2.37-4.42l-2.2-2a1.7,1.7,0,0,1,.39-3l2.65-1.33a8.75,8.75,0,0,0,3.45-3.63l1.2-2.72a1.69,1.69,0,0,1,3-.53L60,243.77A8.8,8.8,0,0,0,64.54,246l2.95.31a1.72,1.72,0,0,1,1.42,2.66l-1.36,2.64a8.84,8.84,0,0,0-.66,5l.61,2.91a1.69,1.69,0,0,1-2.06,2.18Z"/><path class="cls-37" d="M51.61,253.9a6.93,6.93,0,1,1,8.07,5.62A6.94,6.94,0,0,1,51.61,253.9Z"/><path class="cls-40" d="M52.39,253.76a6.14,6.14,0,1,1,7.15,5A6.17,6.17,0,0,1,52.39,253.76Z"/><path class="cls-37" d="M56.94,252.94a1.52,1.52,0,1,1,1.76,1.22A1.52,1.52,0,0,1,56.94,252.94Z"/><g class="cls-41"><path class="cls-34" d="M44,246.18c-.68-.74-.42-2,.44-2.89,1.42-1.51,3.48-1.94,4.16-1.2s-.21,2.54-1.58,3.38C45.91,246.13,44.65,246.93,44,246.18Z"/></g><path class="cls-48" d="M116.5,233.92c-5.2.38-11.67,2.61-11.45,4.76s7,3.39,12.23,3,9-4.57,9-4.57S121.7,233.55,116.5,233.92Z"/><path class="cls-59" d="M118.53,240.88c-4-1.21-9.54-1.44-10,.19s4.32,4.53,8.34,5.75a12.61,12.61,0,0,0,8.12-.76S122.56,242.1,118.53,240.88Z"/><path class="cls-59" d="M108.21,224.18c-1.21,5.07-4.44,11.1-6.52,10.55s-2.23-7.48-1-12.55,6-8.19,6-8.19S109.42,219.11,108.21,224.18Z"/><path class="cls-48" d="M101.66,221.06c.57,4.17-.09,9.65-1.78,9.84s-3.77-5-4.33-9.16a12.52,12.52,0,0,1,2-7.89S101.11,216.89,101.66,221.06Z"/><path class="cls-60" d="M100.13,229.64a5.16,5.16,0,0,0,4,1.74,7.29,7.29,0,0,0,4.63-1.8l6.16-5.23,2.52,3-6.16,5.25a7.26,7.26,0,0,0-2.52,4.28,5.15,5.15,0,0,0,1.07,4.26l1.33,1.56-3,2.31L96.05,230.69l2.75-2.61Z"/><path class="cls-61" d="M80.22,218.44c6.87-.77,13.8,1,18.31,8.45,1.48,2.44,4.68,7.79,6,9.35s6.1,5.59,8.26,7.44c6.59,5.63,7.45,12.32,5.41,19.42-2.39,8.3-9,13.62-16.53,16.08-10.81,3.54-16.8,2.08-26.79,3-5.08.49-12.51,2.39-18.9-4.67-5.94-7.43-2.88-14.46-1.58-19.4,2.54-9.71,2-15.86,7.28-25.95C65.35,225.13,71.64,219.42,80.22,218.44Z"/><path class="cls-62" d="M84.07,221.91c5.88-.83,11.75.55,15.41,6.7,1.21,2,3.82,6.47,4.91,7.75a91.75,91.75,0,0,0,6.88,6.1c5.48,4.6,6.06,10.23,4.15,16.28-2.23,7.06-8,11.71-14.48,14-9.3,3.24-14.36,2.15-22.91,3.2-4.34.53-10.71,2.3-16-3.5-4.88-6.15-2.11-12.16-.89-16.36,2.4-8.26,2.13-13.44,6.82-22.1C71.24,227.9,76.74,222.93,84.07,221.91Z"/><path class="cls-63" d="M58.92,240.61s11.12,5.88,14.54,4.25c1.72-.82,1.55-3.43,2.48-5-3.73-3.68-6.41-8.21-9.17-12.66,0,0,7.53,10.05,11.25,9.82.33,0,2.28-2.15,3.11-2.77-2.44-3.87-4-8.32-5.66-12.7,0,0,4.91,10.28,8.27,11,1.38.29,2.45-1.27,3.68-1.72-1.08-3.28-1.3-6.89-1.59-10.47,0,0,1.54,8.58,3.88,9.79,3.59,1.87,7.74-.72,10.9.16a67.12,67.12,0,0,0,3.92,5.89,76,76,0,0,0,5.61,5.17c.29,3.2-3,6.79-1.79,10.58.78,2.45,8.85,5.28,8.85,5.28-3.25-.77-6.41-1.08-9.91-3.2-.66,1.16-2.43,2-2.38,3.39.1,3.41,9.43,9.84,9.43,9.84-4.25-2.23-8.4-4.54-11.61-7.6-.76.7-3.23,2.21-3.3,2.52-.86,3.66,7.94,12.76,7.94,12.76-3.91-3.48-7.92-6.83-11.16-11.21-1.61.63-4.12.06-5.17,1.58-2.19,3.16,1.89,15.24,1.89,15.24-2.06-4.62-4.6-8.93-5.3-14.49-2.82.55-8.5,1.55-8.63,1.67-2.75,2.39-5.09,13.64-5.09,13.64.32-4.31.25-8.71,1.67-12.79-4.75,1.29-7.79,2.35-9.51.33S66,264.2,68,259.65a71.75,71.75,0,0,1-12.93-.4s11.47-.47,14.23-2.83c2.06-1.75,2.42-5.53,2.92-8.36C67.48,246.44,63.24,243.43,58.92,240.61Z"/><path class="cls-64" d="M108,239.49a33.23,33.23,0,0,1-12.06,17.1c-5.08,3.83-11.12,3.55-16.64,6.19-6,2.85-11,6.53-12.08,5.28s3.22-5.32,6.73-10.49,4.47-11.39,9.18-16a31,31,0,0,1,18.94-9,40.61,40.61,0,0,0,2.54,3.68A39.22,39.22,0,0,0,108,239.49Z"/><path class="cls-26" d="M149.13,235c3.92,13.85-6.35,28.88-6.35,28.88s-16.6-7.43-20.52-21.28c-2.88-13.42.47-22.33,7-26.44C136.44,216.81,144.46,222.61,149.13,235Z"/><path class="cls-27" d="M129.13,216.3c-6.45,4.16-9.72,13-6.87,26.33,3.66,12.94,18.38,20.27,20.31,21.18Z"/><path class="cls-28" d="M142.13,263.6l.65.31.4-.61-13.3-47-.58-.08c-.17.1-.32.22-.48.33Z"/><path class="cls-26" d="M174.87,258.15c-12.43,9.89-32.1,5.86-32.1,5.86s.48-20.08,12.9-30c12.43-8.65,22.91-9,29.9-4.12C188,237.45,185.52,248.09,174.87,258.15Z"/><path class="cls-27" d="M185.4,229.8c-7-4.79-17.4-4.34-29.73,4.24-11.61,9.25-12.79,27.35-12.89,29.71Z"/><path class="cls-28" d="M142.81,263.21c0,.5,0,.8,0,.8l.79.14,42.19-33.6c-.07-.21-.11-.43-.18-.63a6,6,0,0,0-.53-.34Z"/><path class="cls-65" d="M143.63,260.29a17.56,17.56,0,1,0-17.55,17.55A17.55,17.55,0,0,0,143.63,260.29Z"/><path class="cls-30" d="M122.48,259.77a10.46,10.46,0,0,1,4.71-2.15l3-.4c1.48-.2,2.21-1.31,1.64-2.47l-1.18-2.36a7,7,0,0,1-.3-4.51l.84-2.68c.41-1.32-.46-2.17-1.93-1.91l-3,.55a9,9,0,0,1-4.9-.64l-2.48-1.26a1.91,1.91,0,0,0-2.83,1.3l-.67,2.69a9,9,0,0,1-2.73,4.12L110.29,252c-1.16.93-1.08,2.15.18,2.7l2.58,1.12a7.08,7.08,0,0,1,3.21,3.19l1,2.43c.5,1.19,1.82,1.37,2.94.38Z"/><path class="cls-31" d="M128,248.4c-1.42-3.1-5.5-4.28-9.11-2.63s-5.39,5.5-4,8.61,5.5,4.28,9.11,2.63S129.46,251.5,128,248.4Z"/><path class="cls-32" d="M127.29,248.74c-1.25-2.74-4.87-3.79-8.07-2.33s-4.77,4.88-3.52,7.62,4.87,3.8,8.07,2.33S128.55,251.48,127.29,248.74Z"/><path class="cls-31" d="M122.92,250.73a1.59,1.59,0,1,0-.87,1.88A1.47,1.47,0,0,0,122.92,250.73Z"/><g class="cls-33"><path class="cls-34" d="M117,252.49c-1.15-.49-1.12-1.43-.79-2.47.52-1.72,2-2.57,3.12-2.06s.36,1.31-.53,2.4C118.07,251.22,118.12,253,117,252.49Z"/></g><path class="cls-66" d="M175.94,271.38a17.56,17.56,0,1,0-17.55,17.55A17.56,17.56,0,0,0,175.94,271.38Z"/><g class="cls-33"><path class="cls-34" d="M146,264.35c-1.17-.76-1.23-2.24-.31-3.64s2.47-2.19,3.63-1.42.32,1.94-.59,3.34S147.15,265.12,146,264.35Z"/></g><path class="cls-36" d="M158.26,276.11a8.76,8.76,0,0,1,5,0l2.81,1a1.7,1.7,0,0,0,2.43-1.77l-.08-3a8.72,8.72,0,0,1,1.55-4.78l1.81-2.35a1.71,1.71,0,0,0-.93-2.87l-2.85-.84a8.61,8.61,0,0,1-4.06-2.95l-1.69-2.45a1.69,1.69,0,0,0-3,0l-1.69,2.45a8.64,8.64,0,0,1-4.05,2.95l-2.86.84a1.71,1.71,0,0,0-.93,2.87l1.82,2.35a8.79,8.79,0,0,1,1.54,4.78l-.08,3a1.7,1.7,0,0,0,2.44,1.77Z"/><path class="cls-37" d="M167.74,267a7,7,0,1,0-7,7A7,7,0,0,0,167.74,267Z"/><path class="cls-38" d="M166.94,267a6.17,6.17,0,1,0-6.17,6.17A6.18,6.18,0,0,0,166.94,267Z"/><path class="cls-37" d="M162.29,267a1.52,1.52,0,1,0-1.52,1.51A1.52,1.52,0,0,0,162.29,267Z"/><path class="cls-67" d="M149.38,278.69a17.55,17.55,0,1,0-17.55,17.56A17.55,17.55,0,0,0,149.38,278.69Z"/><path class="cls-36" d="M123.91,286.26a8.67,8.67,0,0,1,4.91.9l2.57,1.48a1.7,1.7,0,0,0,2.71-1.3l.45-2.94a8.81,8.81,0,0,1,2.37-4.43l2.2-2a1.7,1.7,0,0,0-.39-3l-2.65-1.34a8.78,8.78,0,0,1-3.45-3.62l-1.2-2.72a1.69,1.69,0,0,0-3-.54l-2.09,2.12a8.73,8.73,0,0,1-4.5,2.18l-3,.31a1.7,1.7,0,0,0-1.42,2.65l1.36,2.65a8.75,8.75,0,0,1,.65,5l-.61,2.91a1.7,1.7,0,0,0,2.07,2.18Z"/><path class="cls-37" d="M134.82,279a6.94,6.94,0,1,0-8.07,5.62A7,7,0,0,0,134.82,279Z"/><path class="cls-40" d="M134,278.89a6.14,6.14,0,1,0-7.15,5A6.15,6.15,0,0,0,134,278.89Z"/><path class="cls-37" d="M129.48,278.07a1.51,1.51,0,1,0-3-.55,1.51,1.51,0,1,0,3,.55Z"/><g class="cls-41"><path class="cls-34" d="M120.21,268.86c-.68-.74-.41-2,.44-2.89,1.42-1.51,3.49-1.94,4.17-1.2s-.21,2.54-1.59,3.38C122.15,268.81,120.89,269.61,120.21,268.86Z"/></g><path class="cls-26" d="M380.76,207.59c3.91,13.85-6.35,28.88-6.35,28.88s-16.6-7.43-20.52-21.28c-2.88-13.42.47-22.32,7-26.44C368.07,189.37,376.09,195.16,380.76,207.59Z"/><path class="cls-27" d="M360.76,188.87c-6.45,4.15-9.72,13-6.87,26.32,3.66,12.93,18.39,20.27,20.31,21.18Z"/><path class="cls-28" d="M373.76,236.16l.65.31.4-.61-13.3-47-.58-.08c-.17.1-.32.22-.48.33Z"/><path class="cls-26" d="M406.49,230.7c-12.42,9.9-32.09,5.87-32.09,5.87s.47-20.08,12.9-30c12.43-8.65,22.91-9,29.9-4.12C419.63,210,417.15,220.65,406.49,230.7Z"/><path class="cls-27" d="M417,202.36c-7-4.79-17.4-4.34-29.73,4.24-11.61,9.24-12.79,27.36-12.89,29.71Z"/><path class="cls-28" d="M374.44,235.77c0,.5,0,.8,0,.8l.79.14,42.18-33.6c-.05-.21-.1-.42-.17-.63s-.35-.23-.53-.34Z"/><path class="cls-68" d="M375.26,232.85a17.56,17.56,0,1,0-17.55,17.55A17.56,17.56,0,0,0,375.26,232.85Z"/><path class="cls-30" d="M354.11,232.33a10.61,10.61,0,0,1,4.71-2.15l3-.4c1.48-.2,2.21-1.3,1.64-2.47l-1.18-2.37a7,7,0,0,1-.3-4.5l.83-2.68c.42-1.32-.45-2.18-1.92-1.91l-3,.55a9.17,9.17,0,0,1-4.9-.64l-2.48-1.26a1.91,1.91,0,0,0-2.83,1.29l-.67,2.7a9.15,9.15,0,0,1-2.72,4.12l-2.38,1.91c-1.16.94-1.08,2.15.18,2.7l2.58,1.12a7.08,7.08,0,0,1,3.21,3.19l1,2.43c.5,1.2,1.82,1.37,2.94.38Z"/><path class="cls-31" d="M359.67,221c-1.42-3.11-5.5-4.28-9.11-2.63s-5.39,5.5-4,8.61,5.49,4.27,9.1,2.62S361.09,224.06,359.67,221Z"/><path class="cls-32" d="M358.92,221.29c-1.25-2.74-4.87-3.78-8.07-2.32s-4.77,4.88-3.52,7.62,4.87,3.79,8.07,2.33S360.18,224.05,358.92,221.29Z"/><path class="cls-31" d="M354.55,223.29a1.59,1.59,0,0,0-2.85,1.31,1.59,1.59,0,0,0,2.85-1.31Z"/><g class="cls-33"><path class="cls-34" d="M348.61,225.06c-1.15-.5-1.11-1.44-.79-2.48.53-1.71,2-2.56,3.12-2.06s.36,1.3-.53,2.4C349.7,223.77,349.75,225.55,348.61,225.06Z"/></g><path class="cls-69" d="M407.57,243.94A17.56,17.56,0,1,0,390,261.49,17.56,17.56,0,0,0,407.57,243.94Z"/><g class="cls-33"><path class="cls-34" d="M377.62,236.91c-1.17-.76-1.23-2.24-.31-3.63s2.47-2.2,3.63-1.44.33,1.95-.59,3.35S378.78,237.68,377.62,236.91Z"/></g><path class="cls-36" d="M389.89,248.67a8.59,8.59,0,0,1,5,0l2.81,1a1.69,1.69,0,0,0,2.43-1.76l-.08-3a8.66,8.66,0,0,1,1.55-4.77l1.81-2.36a1.71,1.71,0,0,0-.93-2.87l-2.85-.84a8.68,8.68,0,0,1-4.06-3l-1.69-2.45a1.69,1.69,0,0,0-3,0l-1.69,2.45a8.7,8.7,0,0,1-4,3l-2.87.84a1.71,1.71,0,0,0-.93,2.87l1.83,2.36a8.81,8.81,0,0,1,1.54,4.77l-.08,3a1.7,1.7,0,0,0,2.44,1.76Z"/><path class="cls-37" d="M399.37,239.59a7,7,0,1,0-7,7A7,7,0,0,0,399.37,239.59Z"/><path class="cls-38" d="M398.57,239.59a6.17,6.17,0,1,0-6.17,6.18A6.17,6.17,0,0,0,398.57,239.59Z"/><path class="cls-37" d="M393.92,239.59a1.52,1.52,0,1,0-1.52,1.53A1.52,1.52,0,0,0,393.92,239.59Z"/><path class="cls-70" d="M381,251.25a17.55,17.55,0,1,0-17.55,17.56A17.55,17.55,0,0,0,381,251.25Z"/><path class="cls-36" d="M355.55,258.83a8.58,8.58,0,0,1,4.9.89l2.57,1.49a1.7,1.7,0,0,0,2.71-1.31l.45-2.94a8.74,8.74,0,0,1,2.37-4.42l2.2-2a1.72,1.72,0,0,0-.39-3l-2.65-1.33a8.75,8.75,0,0,1-3.45-3.63l-1.2-2.72a1.69,1.69,0,0,0-2.95-.53L358,241.45a8.65,8.65,0,0,1-4.5,2.18l-2.95.32a1.7,1.7,0,0,0-1.42,2.65l1.36,2.65a8.82,8.82,0,0,1,.66,5l-.62,2.91a1.7,1.7,0,0,0,2.07,2.18Z"/><path class="cls-37" d="M366.45,251.59a6.94,6.94,0,1,0-8.07,5.61A6.95,6.95,0,0,0,366.45,251.59Z"/><path class="cls-40" d="M365.67,251.45a6.15,6.15,0,1,0-7.15,5A6.16,6.16,0,0,0,365.67,251.45Z"/><path class="cls-37" d="M361.11,250.62a1.51,1.51,0,1,0-3-.54,1.51,1.51,0,1,0,3,.54Z"/><g class="cls-41"><path class="cls-34" d="M351.84,241.43c-.69-.75-.42-2,.44-2.9,1.42-1.52,3.49-1.95,4.17-1.2s-.21,2.54-1.59,3.39C353.79,241.38,352.52,242.16,351.84,241.43Z"/></g><path class="cls-48" d="M347.41,237.21c-5.2.39-11.67,2.61-11.46,4.76s7,3.4,12.23,3,9-4.56,9-4.56S352.6,236.84,347.41,237.21Z"/><path class="cls-59" d="M349.44,244.18c-4-1.22-9.55-1.45-10,.19s4.31,4.52,8.34,5.74a12.55,12.55,0,0,0,8.12-.76S353.47,245.4,349.44,244.18Z"/><path class="cls-59" d="M339.12,227.47c-1.21,5.08-4.44,11.11-6.52,10.55s-2.24-7.48-1-12.55,6-8.18,6-8.18S340.32,222.4,339.12,227.47Z"/><path class="cls-48" d="M332.57,224.35c.56,4.18-.1,9.66-1.79,9.85s-3.77-5-4.33-9.16a12.52,12.52,0,0,1,2.05-7.89S332,220.18,332.57,224.35Z"/><path class="cls-60" d="M331,232.94a5.19,5.19,0,0,0,4,1.74,7.25,7.25,0,0,0,4.63-1.8l6.16-5.24,2.52,3-6.16,5.26a7.23,7.23,0,0,0-2.52,4.27,5.15,5.15,0,0,0,1.08,4.27l1.33,1.56-3,2.3L327,234l2.75-2.62Z"/><path class="cls-61" d="M311.12,221.74c6.87-.78,13.81,1,18.31,8.44,1.48,2.44,4.69,7.79,6,9.35s6.1,5.59,8.26,7.45c6.59,5.62,7.46,12.32,5.42,19.42-2.39,8.29-9,13.61-16.54,16.08-10.81,3.53-16.79,2.08-26.79,3-5.08.48-12.51,2.38-18.9-4.67-5.94-7.44-2.88-14.47-1.58-19.4,2.55-9.71,2.06-15.85,7.28-26C296.25,228.43,302.55,222.72,311.12,221.74Z"/><path class="cls-62" d="M315,225.2c5.87-.82,11.74.56,15.41,6.71,1.21,2,3.82,6.46,4.91,7.75s5.06,4.57,6.87,6.1c5.49,4.6,6.06,10.23,4.15,16.27-2.23,7.07-8,11.72-14.48,14-9.29,3.23-14.36,2.14-22.9,3.19-4.34.53-10.72,2.31-16-3.5-4.89-6.14-2.12-12.15-.89-16.36,2.39-8.26,2.13-13.43,6.81-22.09C302.15,231.19,307.64,226.23,315,225.2Z"/><path class="cls-63" d="M289.82,243.9s11.13,5.88,14.55,4.25c1.72-.81,1.55-3.43,2.48-5-3.74-3.67-6.42-8.2-9.18-12.66,0,0,7.53,10.05,11.26,9.83.33,0,2.28-2.15,3.1-2.78-2.43-3.86-4-8.31-5.66-12.69,0,0,4.91,10.28,8.27,11,1.38.28,2.45-1.28,3.68-1.72-1.08-3.29-1.29-6.89-1.59-10.47,0,0,1.55,8.58,3.88,9.79,3.6,1.87,7.75-.73,10.91.15a67.48,67.48,0,0,0,3.91,5.89,71.83,71.83,0,0,0,5.61,5.17c.3,3.2-3,6.79-1.78,10.58.78,2.46,8.84,5.29,8.84,5.29-3.25-.77-6.41-1.09-9.91-3.2-.66,1.16-2.43,1.95-2.38,3.39.1,3.4,9.43,9.83,9.43,9.83-4.25-2.23-8.39-4.53-11.6-7.6-.77.7-3.23,2.21-3.3,2.52-.87,3.66,7.93,12.77,7.93,12.77-3.91-3.48-7.92-6.84-11.16-11.21-1.61.63-4.12.05-5.17,1.58-2.19,3.15,1.89,15.23,1.89,15.23-2.06-4.62-4.6-8.93-5.3-14.49-2.82.56-8.49,1.55-8.63,1.68-2.75,2.38-5.09,13.64-5.09,13.64.32-4.31.25-8.72,1.67-12.79-4.75,1.29-7.79,2.34-9.51.33s-.07-4.73,1.92-9.28a71.62,71.62,0,0,1-12.92-.41s11.47-.47,14.23-2.82c2.06-1.75,2.42-5.53,2.91-8.36C298.38,249.74,294.14,246.72,289.82,243.9Z"/><path class="cls-64" d="M338.86,242.79a33.33,33.33,0,0,1-12.06,17.1c-5.08,3.83-11.13,3.55-16.64,6.18-6,2.86-11,6.53-12.09,5.28s3.22-5.32,6.73-10.48,4.47-11.39,9.19-16a30.92,30.92,0,0,1,18.94-9,39.52,39.52,0,0,0,2.53,3.68A39.49,39.49,0,0,0,338.86,242.79Z"/><path class="cls-26" d="M259.77,234.15C255.85,248,266.11,263,266.11,263s16.61-7.43,20.53-21.28c2.87-13.43-.48-22.33-7-26.44C272.46,215.92,264.44,221.72,259.77,234.15Z"/><path class="cls-27" d="M279.76,215.42c6.45,4.15,9.73,13,6.88,26.33C283,254.68,268.25,262,266.33,262.93Z"/><path class="cls-28" d="M266.76,262.71l-.65.32-.39-.62,13.29-47,.59-.07a4,4,0,0,1,.47.33Z"/><path class="cls-26" d="M234,257.26c12.43,9.9,32.09,5.86,32.09,5.86s-.47-20.07-12.89-30c-12.43-8.66-22.92-9-29.91-4.12C220.9,236.57,223.38,247.2,234,257.26Z"/><path class="cls-27" d="M223.5,228.92c7-4.8,17.4-4.35,29.73,4.24,11.6,9.24,12.78,27.35,12.89,29.7Z"/><path class="cls-28" d="M266.09,262.33c0,.5,0,.79,0,.79l-.78.15-42.19-33.6c.06-.21.11-.43.17-.63a5,5,0,0,1,.54-.35Z"/><path class="cls-71" d="M265.26,259.4A17.56,17.56,0,1,1,282.82,277,17.56,17.56,0,0,1,265.26,259.4Z"/><path class="cls-30" d="M286.41,258.89a10.44,10.44,0,0,0-4.7-2.16l-3-.39c-1.48-.2-2.21-1.31-1.63-2.47l1.17-2.37a6.94,6.94,0,0,0,.3-4.51l-.83-2.68c-.41-1.32.45-2.17,1.92-1.9l3,.55a9.27,9.27,0,0,0,4.9-.64l2.48-1.26a1.9,1.9,0,0,1,2.82,1.29l.68,2.7a9,9,0,0,0,2.72,4.12l2.37,1.9c1.17.94,1.08,2.15-.18,2.7l-2.57,1.13a7,7,0,0,0-3.21,3.18l-1,2.44c-.5,1.19-1.83,1.37-2.94.38Z"/><path class="cls-31" d="M280.86,247.51c1.42-3.09,5.49-4.27,9.1-2.63s5.4,5.51,4,8.61-5.49,4.28-9.11,2.63S279.44,250.62,280.86,247.51Z"/><path class="cls-32" d="M281.6,247.85c1.26-2.74,4.87-3.79,8.07-2.33s4.78,4.88,3.52,7.63-4.86,3.79-8.06,2.33S280.35,250.6,281.6,247.85Z"/><path class="cls-31" d="M286,249.85a1.47,1.47,0,0,1,2-.57,1.36,1.36,0,1,1-1.12,2.45A1.47,1.47,0,0,1,286,249.85Z"/><g class="cls-33"><path class="cls-34" d="M272.47,251.69c-1.22-.81-1-1.88-.42-3,1-1.87,2.79-2.56,4-1.76s.16,1.58-1.09,2.67C274,250.43,273.69,252.49,272.47,251.69Z"/></g><path class="cls-72" d="M233,270.49a17.56,17.56,0,1,1,17.56,17.56A17.56,17.56,0,0,1,233,270.49Z"/><g class="cls-33"><path class="cls-34" d="M239.93,263.47c-1.16-.76-1.22-2.24-.3-3.64s2.47-2.19,3.63-1.43.32,2-.59,3.35S241.09,264.23,239.93,263.47Z"/></g><path class="cls-36" d="M250.63,275.22a8.72,8.72,0,0,0-5,0l-2.81,1a1.71,1.71,0,0,1-2.44-1.77l.09-3a8.79,8.79,0,0,0-1.55-4.77l-1.82-2.36a1.7,1.7,0,0,1,.93-2.86l2.86-.84a8.73,8.73,0,0,0,4.06-2.95l1.68-2.46a1.7,1.7,0,0,1,3,0l1.68,2.46a8.73,8.73,0,0,0,4.06,2.95l2.86.84a1.7,1.7,0,0,1,.93,2.86l-1.82,2.36a8.79,8.79,0,0,0-1.55,4.77l.08,3a1.7,1.7,0,0,1-2.43,1.77Z"/><path class="cls-37" d="M241.16,266.15a7,7,0,1,1,7,7A7,7,0,0,1,241.16,266.15Z"/><path class="cls-38" d="M242,266.15a6.18,6.18,0,1,1,6.18,6.17A6.18,6.18,0,0,1,242,266.15Z"/><path class="cls-37" d="M246.6,266.15a1.52,1.52,0,1,1,1.53,1.52A1.52,1.52,0,0,1,246.6,266.15Z"/><path class="cls-73" d="M259.51,277.81a17.56,17.56,0,1,1,17.55,17.55A17.55,17.55,0,0,1,259.51,277.81Z"/><path class="cls-36" d="M285,285.38a8.69,8.69,0,0,0-4.91.9l-2.57,1.48a1.7,1.7,0,0,1-2.7-1.31l-.45-2.94a8.76,8.76,0,0,0-2.38-4.42l-2.2-2a1.71,1.71,0,0,1,.4-3l2.65-1.34a8.61,8.61,0,0,0,3.44-3.63l1.21-2.71a1.69,1.69,0,0,1,2.94-.54L282.5,268a8.69,8.69,0,0,0,4.5,2.18l2.95.32a1.71,1.71,0,0,1,1.43,2.65L290,275.81a8.82,8.82,0,0,0-.66,5l.61,2.91a1.7,1.7,0,0,1-2.07,2.17Z"/><path class="cls-37" d="M274.08,278.14a6.93,6.93,0,1,1,8.07,5.63A6.95,6.95,0,0,1,274.08,278.14Z"/><path class="cls-40" d="M274.86,278a6.14,6.14,0,1,1,7.15,5A6.14,6.14,0,0,1,274.86,278Z"/><path class="cls-37" d="M279.41,277.18a1.52,1.52,0,1,1,1.76,1.22A1.52,1.52,0,0,1,279.41,277.18Z"/><g class="cls-41"><path class="cls-34" d="M266.43,270.43c-.68-.74-.41-2,.44-2.89,1.42-1.52,3.49-2,4.17-1.2s-.21,2.53-1.59,3.38C268.38,270.38,267.12,271.17,266.43,270.43Z"/></g><path class="cls-48" d="M175.47,249.79c5.2.39,11.67,2.61,11.45,4.76s-7,3.4-12.23,3-9-4.58-9-4.58S170.28,249.42,175.47,249.79Z"/><path class="cls-59" d="M173.44,256.76c4-1.22,9.54-1.45,10,.19s-4.32,4.52-8.34,5.74a12.53,12.53,0,0,1-8.12-.76S169.41,258,173.44,256.76Z"/><path class="cls-59" d="M183.76,240.05c1.21,5.07,4.44,11.1,6.53,10.55s2.22-7.48,1-12.55-6-8.18-6-8.18S182.55,235,183.76,240.05Z"/><path class="cls-48" d="M190.31,236.93c-.56,4.18.1,9.65,1.78,9.84s3.78-5,4.33-9.16a12.55,12.55,0,0,0-2-7.89S190.86,232.76,190.31,236.93Z"/><path class="cls-60" d="M191.84,245.52a5.16,5.16,0,0,1-4,1.74,7.35,7.35,0,0,1-4.62-1.8L177,240.22l-2.52,2.95,6.16,5.25a7.29,7.29,0,0,1,2.51,4.28A5.12,5.12,0,0,1,182.1,257l-1.33,1.55,3,2.31,12.13-14.27L193.17,244Z"/><path class="cls-61" d="M211.76,234.32c-6.87-.78-13.81,1-18.31,8.44-1.49,2.44-4.69,7.79-6,9.35s-6.09,5.59-8.26,7.45c-6.59,5.62-7.45,12.32-5.41,19.42,2.39,8.29,9,13.61,16.54,16.08,10.8,3.53,16.79,2.08,26.79,3,5.08.48,12.51,2.38,18.89-4.68,5.94-7.43,2.88-14.46,1.59-19.39-2.55-9.71-2.06-15.86-7.28-26C226.62,241,220.33,235.3,211.76,234.32Z"/><path class="cls-62" d="M207.9,237.78c-5.88-.82-11.74.56-15.41,6.71-1.21,2-3.82,6.46-4.91,7.75s-5.07,4.57-6.87,6.09c-5.49,4.61-6.06,10.24-4.16,16.28,2.23,7.06,8,11.72,14.48,14,9.3,3.24,14.37,2.15,22.91,3.2,4.34.53,10.72,2.31,16-3.5,4.88-6.14,2.11-12.16.89-16.36-2.4-8.26-2.13-13.43-6.82-22.1C220.73,243.77,215.23,238.81,207.9,237.78Z"/><path class="cls-63" d="M233.05,256.48s-11.12,5.88-14.54,4.25c-1.72-.82-1.55-3.43-2.48-5,3.74-3.67,6.41-8.21,9.18-12.66,0,0-7.53,10-11.26,9.82-.33,0-2.28-2.14-3.1-2.77,2.43-3.86,4-8.31,5.65-12.7,0,0-4.9,10.29-8.26,11-1.38.29-2.45-1.27-3.69-1.72,1.09-3.28,1.3-6.88,1.6-10.46,0,0-1.55,8.58-3.89,9.79-3.59,1.87-7.74-.73-10.9.15a69.88,69.88,0,0,1-3.91,5.89,73.73,73.73,0,0,1-5.61,5.17c-.3,3.2,3,6.79,1.78,10.58-.78,2.46-8.84,5.28-8.84,5.28,3.24-.76,6.4-1.08,9.91-3.2.66,1.17,2.42,2,2.37,3.39-.1,3.41-9.43,9.84-9.43,9.84,4.26-2.23,8.4-4.54,11.61-7.6.76.7,3.23,2.21,3.3,2.52.87,3.66-7.94,12.76-7.94,12.76,3.91-3.47,7.93-6.83,11.16-11.2,1.61.63,4.12.05,5.18,1.58,2.18,3.15-1.9,15.23-1.9,15.23,2.06-4.62,4.61-8.93,5.31-14.49,2.82.56,8.49,1.55,8.63,1.67,2.75,2.39,5.08,13.65,5.08,13.65-.31-4.32-.25-8.73-1.67-12.8,4.76,1.3,7.8,2.35,9.51.33s.07-4.73-1.92-9.28a70.85,70.85,0,0,0,12.93-.4s-11.47-.47-14.23-2.82c-2.06-1.75-2.42-5.53-2.92-8.36C224.49,262.31,228.73,259.3,233.05,256.48Z"/><path class="cls-64" d="M184,255.37a33.31,33.31,0,0,0,12.06,17.09c5.08,3.84,11.13,3.56,16.63,6.19,6,2.85,11,6.53,12.1,5.28s-3.22-5.32-6.73-10.48-4.48-11.4-9.19-16a31,31,0,0,0-18.94-9,41,41,0,0,1-2.53,3.68A42.76,42.76,0,0,1,184,255.37Z"/></g></g></svg>