<svg xmlns="http://www.w3.org/2000/svg" xmlns:xlink="http://www.w3.org/1999/xlink" viewBox="0 0 556.79 821.6"><defs><style>.cls-1{fill:url(#linear-gradient);}.cls-2{fill:url(#linear-gradient-2);}.cls-3{fill:url(#linear-gradient-3);}.cls-4,.cls-5{fill:#663566;}.cls-5{opacity:0.6;}.cls-6{fill:url(#linear-gradient-4);}.cls-7{fill:#663a75;}.cls-8{fill:url(#linear-gradient-5);}.cls-9{fill:#9562b0;}.cls-10{fill:#bc89d6;}.cls-11{fill:#c293cf;}.cls-12{fill:#b77bc7;}.cls-13{fill:#ddc0c7;}.cls-14{fill:url(#linear-gradient-6);}.cls-15{fill:url(#linear-gradient-7);}.cls-16{fill:url(#linear-gradient-8);}.cls-17{fill:url(#linear-gradient-9);}.cls-18{fill:url(#linear-gradient-10);}.cls-19{fill:url(#linear-gradient-11);}.cls-20{fill:url(#linear-gradient-12);}.cls-21{fill:url(#linear-gradient-13);}.cls-22{fill:url(#linear-gradient-14);}.cls-23{fill:url(#linear-gradient-15);}.cls-24{fill:url(#linear-gradient-16);}.cls-25{fill:#1b324f;}.cls-26{fill:#362f43;}.cls-27{fill:#3e5370;}.cls-28,.cls-35{fill:#f6fff4;}.cls-28,.cls-59,.cls-97{opacity:0.5;}.cls-29{fill:url(#linear-gradient-17);}.cls-30{fill:url(#linear-gradient-18);}.cls-31{fill:url(#linear-gradient-19);}.cls-32{fill:#14283d;}.cls-33{fill:#322c3d;}.cls-34{fill:#314866;}.cls-35{opacity:0.7;}.cls-36{fill:url(#linear-gradient-20);}.cls-37{fill:url(#linear-gradient-21);}.cls-38{fill:#283d56;}.cls-39{fill:url(#linear-gradient-22);}.cls-40{fill:url(#linear-gradient-23);}.cls-41{fill:url(#linear-gradient-24);}.cls-42{fill:url(#linear-gradient-25);}.cls-43{fill:url(#linear-gradient-26);}.cls-44{fill:url(#linear-gradient-27);}.cls-45{fill:url(#linear-gradient-28);}.cls-46{fill:url(#linear-gradient-29);}.cls-47{fill:url(#linear-gradient-30);}.cls-48{fill:url(#linear-gradient-31);}.cls-49{fill:url(#linear-gradient-32);}.cls-50{fill:url(#linear-gradient-33);}.cls-51{fill:url(#linear-gradient-34);}.cls-52{fill:url(#linear-gradient-35);}.cls-53{fill:url(#linear-gradient-36);}.cls-54{fill:url(#linear-gradient-37);}.cls-55{fill:url(#linear-gradient-38);}.cls-56{fill:url(#linear-gradient-39);}.cls-57{fill:url(#linear-gradient-40);}.cls-58{fill:url(#linear-gradient-41);}.cls-59{fill:#ad8449;}.cls-60{fill:#ffc85b;}.cls-61{fill:url(#linear-gradient-42);}.cls-62{fill:url(#linear-gradient-43);}.cls-63{fill:url(#linear-gradient-44);}.cls-64{fill:url(#linear-gradient-45);}.cls-65{fill:url(#linear-gradient-46);}.cls-66{fill:url(#linear-gradient-47);}.cls-67{fill:url(#linear-gradient-48);}.cls-68{fill:url(#linear-gradient-49);}.cls-69{fill:url(#linear-gradient-50);}.cls-70{fill:url(#linear-gradient-51);}.cls-71{fill:url(#linear-gradient-52);}.cls-72{fill:url(#linear-gradient-53);}.cls-73{fill:url(#linear-gradient-54);}.cls-74{fill:url(#linear-gradient-55);}.cls-75{fill:url(#linear-gradient-56);}.cls-76{fill:url(#linear-gradient-57);}.cls-77{fill:url(#linear-gradient-58);}.cls-78{fill:url(#linear-gradient-59);}.cls-79{fill:url(#linear-gradient-60);}.cls-80{fill:url(#linear-gradient-61);}.cls-81{fill:url(#linear-gradient-62);}.cls-82{fill:url(#linear-gradient-63);}.cls-83{fill:url(#linear-gradient-64);}.cls-84{fill:url(#linear-gradient-65);}.cls-85{fill:url(#linear-gradient-66);}.cls-86{fill:url(#linear-gradient-67);}.cls-87{fill:url(#linear-gradient-68);}.cls-88{fill:url(#linear-gradient-69);}.cls-89{fill:url(#linear-gradient-70);}.cls-90{fill:url(#linear-gradient-71);}.cls-91{fill:url(#linear-gradient-72);}.cls-92{fill:url(#linear-gradient-73);}.cls-93{fill:url(#linear-gradient-74);}.cls-94{fill:url(#linear-gradient-75);}.cls-95{fill:url(#linear-gradient-76);}.cls-96{fill:url(#linear-gradient-77);}.cls-98{fill:#fff;}.cls-99{fill:#1c2847;}.cls-100{fill:#3a2c47;}.cls-101{fill:#303d60;}.cls-102{fill:url(#linear-gradient-78);}.cls-103{fill:url(#linear-gradient-79);}</style><linearGradient id="linear-gradient" x1="12.64" y1="628" x2="540.56" y2="628" gradientUnits="userSpaceOnUse"><stop offset="0.23" stop-color="#904b90"/><stop offset="0.69" stop-color="#753d75"/></linearGradient><linearGradient id="linear-gradient-2" x1="12.64" y1="641" x2="540.56" y2="641" gradientUnits="userSpaceOnUse"><stop offset="0.22" stop-color="#e4bee8"/><stop offset="0.72" stop-color="#c293cf"/></linearGradient><linearGradient id="linear-gradient-3" x1="12.8" y1="614.05" x2="540.41" y2="614.05" gradientUnits="userSpaceOnUse"><stop offset="0.21" stop-color="#ffe6d9"/><stop offset="0.72" stop-color="#ddc0c7"/></linearGradient><linearGradient id="linear-gradient-4" y1="620.11" x2="556.79" y2="620.11" gradientUnits="userSpaceOnUse"><stop offset="0.32" stop-color="#8c57a3"/><stop offset="0.77" stop-color="#79468c"/></linearGradient><linearGradient id="linear-gradient-5" x1="10.43" y1="501.56" x2="543.51" y2="501.56" gradientUnits="userSpaceOnUse"><stop offset="0.19" stop-color="#b37bd1"/><stop offset="0.78" stop-color="#a46dc7"/></linearGradient><linearGradient id="linear-gradient-6" x1="101.01" y1="387.23" x2="452.19" y2="387.23" xlink:href="#linear-gradient"/><linearGradient id="linear-gradient-7" x1="101.01" y1="423.74" x2="452.19" y2="423.74" xlink:href="#linear-gradient-2"/><linearGradient id="linear-gradient-8" x1="101.01" y1="378.82" x2="452.19" y2="378.82" gradientUnits="userSpaceOnUse"><stop offset="0.22" stop-color="#ffe6df"/><stop offset="0.72" stop-color="#ddced1"/></linearGradient><linearGradient id="linear-gradient-9" x1="90.63" y1="370.18" x2="463.12" y2="370.18" xlink:href="#linear-gradient-4"/><linearGradient id="linear-gradient-10" x1="98.1" y1="295.27" x2="455.59" y2="295.27" xlink:href="#linear-gradient-5"/><linearGradient id="linear-gradient-11" x1="145.94" y1="182.38" x2="407.27" y2="182.38" xlink:href="#linear-gradient"/><linearGradient id="linear-gradient-12" x1="145.94" y1="218.13" x2="407.27" y2="218.13" xlink:href="#linear-gradient-2"/><linearGradient id="linear-gradient-13" x1="145.94" y1="164.22" x2="407.27" y2="164.22" xlink:href="#linear-gradient-8"/><linearGradient id="linear-gradient-14" x1="136.86" y1="162.87" x2="415.58" y2="162.87" xlink:href="#linear-gradient-4"/><linearGradient id="linear-gradient-15" x1="142.77" y1="92.08" x2="410.79" y2="92.08" xlink:href="#linear-gradient-5"/><linearGradient id="linear-gradient-16" x1="368.48" y1="61.59" x2="391.5" y2="90.3" gradientUnits="userSpaceOnUse"><stop offset="0.11" stop-color="#3f5a81"/><stop offset="0.85" stop-color="#283d56"/></linearGradient><linearGradient id="linear-gradient-17" x1="390.36" y1="499.07" x2="413.38" y2="527.78" xlink:href="#linear-gradient-16"/><linearGradient id="linear-gradient-18" x1="346.3" y1="77.91" x2="369.33" y2="106.61" xlink:href="#linear-gradient-16"/><linearGradient id="linear-gradient-19" x1="366.47" y1="79.67" x2="393.15" y2="104.36" gradientUnits="userSpaceOnUse"><stop offset="0.18" stop-color="#4d6c9d"/><stop offset="0.85" stop-color="#283d56"/></linearGradient><linearGradient id="linear-gradient-20" x1="271.02" y1="516.76" x2="297.7" y2="541.46" xlink:href="#linear-gradient-19"/><linearGradient id="linear-gradient-21" x1="336.06" y1="53.9" x2="359.56" y2="83.18" gradientUnits="userSpaceOnUse"><stop offset="0.1" stop-color="#425d86"/><stop offset="0.78" stop-color="#2c425c"/></linearGradient><linearGradient id="linear-gradient-22" x1="220.56" y1="38.87" x2="247.24" y2="63.56" gradientTransform="translate(-5.44 6.34) rotate(-0.34)" xlink:href="#linear-gradient-19"/><linearGradient id="linear-gradient-23" x1="253.19" y1="36.37" x2="276.69" y2="65.66" gradientTransform="translate(-5.44 6.34) rotate(-0.34)" xlink:href="#linear-gradient-21"/><linearGradient id="linear-gradient-24" x1="188.31" y1="52.3" x2="211.33" y2="81.01" xlink:href="#linear-gradient-16"/><linearGradient id="linear-gradient-25" x1="158.22" y1="71.71" x2="184.89" y2="96.4" xlink:href="#linear-gradient-19"/><linearGradient id="linear-gradient-26" x1="219.88" y1="62.93" x2="248.38" y2="89.32" xlink:href="#linear-gradient-19"/><linearGradient id="linear-gradient-27" x1="191.43" y1="80.17" x2="214.93" y2="109.46" xlink:href="#linear-gradient-21"/><linearGradient id="linear-gradient-28" x1="278.21" y1="40.82" x2="306.26" y2="66.79" xlink:href="#linear-gradient-19"/><linearGradient id="linear-gradient-29" x1="307.77" y1="47.64" x2="332.73" y2="78.75" xlink:href="#linear-gradient-21"/><linearGradient id="linear-gradient-30" x1="278" y1="64.72" x2="301.03" y2="93.43" xlink:href="#linear-gradient-16"/><linearGradient id="linear-gradient-31" x1="247.82" y1="66.09" x2="270.85" y2="94.79" xlink:href="#linear-gradient-16"/><linearGradient id="linear-gradient-32" x1="249.26" y1="89.97" x2="275.93" y2="114.67" xlink:href="#linear-gradient-19"/><linearGradient id="linear-gradient-33" x1="309.58" y1="75.35" x2="338.07" y2="101.74" xlink:href="#linear-gradient-19"/><linearGradient id="linear-gradient-34" x1="282.03" y1="93.5" x2="305.52" y2="122.78" xlink:href="#linear-gradient-21"/><linearGradient id="linear-gradient-35" x1="321.52" y1="93.2" x2="348.2" y2="117.9" xlink:href="#linear-gradient-19"/><linearGradient id="linear-gradient-36" x1="225.27" y1="89.8" x2="248.76" y2="119.09" xlink:href="#linear-gradient-21"/><linearGradient id="linear-gradient-37" x1="-108.67" y1="1354.03" x2="-108.67" y2="1387.15" gradientTransform="translate(1637.97 -281.24) rotate(72)" gradientUnits="userSpaceOnUse"><stop offset="0.26" stop-color="#fff6cc"/><stop offset="0.85" stop-color="#c9b980"/></linearGradient><linearGradient id="linear-gradient-38" x1="1051.77" y1="2141.32" x2="1051.77" y2="2174.43" gradientTransform="translate(2412.43 1190.02) rotate(144)" xlink:href="#linear-gradient-37"/><linearGradient id="linear-gradient-39" x1="2158.81" y1="1280.17" x2="2158.81" y2="1313.28" gradientTransform="translate(1252.57 2380.53) rotate(-144)" xlink:href="#linear-gradient-37"/><linearGradient id="linear-gradient-40" x1="1681.39" y1="-38.09" x2="1681.39" y2="-4.98" gradientTransform="translate(-238.43 1644.73) rotate(-72)" xlink:href="#linear-gradient-37"/><linearGradient id="linear-gradient-41" x1="280.73" y1="7.76" x2="280.73" y2="40.87" gradientTransform="matrix(1, 0, 0, 1, 0, 0)" xlink:href="#linear-gradient-37"/><linearGradient id="linear-gradient-42" x1="69.19" y1="1550.01" x2="69.19" y2="1577.43" xlink:href="#linear-gradient-37"/><linearGradient id="linear-gradient-43" x1="1286.97" y1="2037.21" x2="1286.97" y2="2064.63" gradientTransform="translate(2412.43 1190.02) rotate(144)" xlink:href="#linear-gradient-37"/><linearGradient id="linear-gradient-44" x1="2126.31" y1="1028.79" x2="2126.31" y2="1056.2" gradientTransform="translate(1252.57 2380.53) rotate(-144)" xlink:href="#linear-gradient-37"/><linearGradient id="linear-gradient-45" x1="1426.11" y1="-80.39" x2="1426.11" y2="-52.97" gradientTransform="translate(-238.43 1644.73) rotate(-72)" xlink:href="#linear-gradient-37"/><linearGradient id="linear-gradient-46" x1="155.45" y1="241.96" x2="155.45" y2="269.37" gradientTransform="matrix(1, 0, 0, 1, 0, 0)" xlink:href="#linear-gradient-37"/><linearGradient id="linear-gradient-47" x1="251.63" y1="1668.07" x2="251.63" y2="1695.48" xlink:href="#linear-gradient-37"/><linearGradient id="linear-gradient-48" x1="1455.64" y1="1900.18" x2="1455.64" y2="1927.6" gradientTransform="translate(2412.43 1190.02) rotate(144)" xlink:href="#linear-gradient-37"/><linearGradient id="linear-gradient-49" x1="2048.1" y1="826.03" x2="2048.1" y2="853.45" gradientTransform="translate(1252.57 2380.53) rotate(-144)" xlink:href="#linear-gradient-37"/><linearGradient id="linear-gradient-50" x1="1209.13" y1="-68.68" x2="1209.13" y2="-41.26" gradientTransform="translate(-238.43 1644.73) rotate(-72)" xlink:href="#linear-gradient-37"/><linearGradient id="linear-gradient-51" x1="99.54" y1="451.95" x2="99.54" y2="479.37" gradientTransform="matrix(1, 0, 0, 1, 0, 0)" xlink:href="#linear-gradient-37"/><linearGradient id="linear-gradient-52" x1="359.71" y1="1335.4" x2="359.71" y2="1362.82" xlink:href="#linear-gradient-37"/><linearGradient id="linear-gradient-53" x1="1172.65" y1="1694.57" x2="1172.65" y2="1721.99" gradientTransform="translate(2412.43 1190.02) rotate(144)" xlink:href="#linear-gradient-37"/><linearGradient id="linear-gradient-54" x1="1765.11" y1="1031.65" x2="1765.11" y2="1059.06" gradientTransform="translate(1252.57 2380.53) rotate(-144)" xlink:href="#linear-gradient-37"/><linearGradient id="linear-gradient-55" x1="1317.21" y1="263.99" x2="1317.21" y2="291.41" gradientTransform="translate(-238.43 1644.73) rotate(-72)" xlink:href="#linear-gradient-37"/><linearGradient id="linear-gradient-56" x1="449.34" y1="451.95" x2="449.34" y2="479.37" gradientTransform="matrix(1, 0, 0, 1, 0, 0)" xlink:href="#linear-gradient-37"/><linearGradient id="linear-gradient-57" x1="320.17" y1="1565.64" x2="320.17" y2="1593.06" xlink:href="#linear-gradient-37"/><linearGradient id="linear-gradient-58" x1="1379.41" y1="1803.34" x2="1379.41" y2="1830.75" gradientTransform="translate(2412.43 1190.02) rotate(144)" xlink:href="#linear-gradient-37"/><linearGradient id="linear-gradient-59" x1="1932.44" y1="868.61" x2="1932.44" y2="896.03" gradientTransform="translate(1252.57 2380.53) rotate(-144)" xlink:href="#linear-gradient-37"/><linearGradient id="linear-gradient-60" x1="1213.87" y1="54.48" x2="1213.87" y2="81.89" gradientTransform="translate(-238.43 1644.73) rotate(-72)" xlink:href="#linear-gradient-37"/><linearGradient id="linear-gradient-61" x1="218.14" y1="485.5" x2="218.14" y2="512.91" gradientTransform="matrix(1, 0, 0, 1, 0, 0)" xlink:href="#linear-gradient-37"/><linearGradient id="linear-gradient-62" x1="359.03" y1="1446.02" x2="359.03" y2="1473.43" xlink:href="#linear-gradient-37"/><linearGradient id="linear-gradient-63" x1="1277.65" y1="1729.4" x2="1277.65" y2="1756.82" gradientTransform="translate(2412.43 1190.02) rotate(144)" xlink:href="#linear-gradient-37"/><linearGradient id="linear-gradient-64" x1="1830.68" y1="942.55" x2="1830.68" y2="969.96" gradientTransform="translate(1252.57 2380.53) rotate(-144)" xlink:href="#linear-gradient-37"/><linearGradient id="linear-gradient-65" x1="1252.74" y1="174.1" x2="1252.74" y2="201.52" gradientTransform="translate(-238.43 1644.73) rotate(-72)" xlink:href="#linear-gradient-37"/><linearGradient id="linear-gradient-66" x1="343.93" y1="485.5" x2="343.93" y2="512.91" gradientTransform="matrix(1, 0, 0, 1, 0, 0)" xlink:href="#linear-gradient-37"/><linearGradient id="linear-gradient-67" x1="143.75" y1="1320.5" x2="143.75" y2="1347.91" xlink:href="#linear-gradient-37"/><linearGradient id="linear-gradient-68" x1="1091.73" y1="1895.35" x2="1091.73" y2="1922.77" gradientTransform="translate(2412.43 1190.02) rotate(144)" xlink:href="#linear-gradient-37"/><linearGradient id="linear-gradient-69" x1="1931.06" y1="1170.64" x2="1931.06" y2="1198.06" gradientTransform="translate(1252.57 2380.53) rotate(-144)" xlink:href="#linear-gradient-37"/><linearGradient id="linear-gradient-70" x1="1500.68" y1="149.13" x2="1500.68" y2="176.54" gradientTransform="translate(-238.43 1644.73) rotate(-72)" xlink:href="#linear-gradient-37"/><linearGradient id="linear-gradient-71" x1="396.79" y1="241.96" x2="396.79" y2="269.37" gradientTransform="matrix(1, 0, 0, 1, 0, 0)" xlink:href="#linear-gradient-37"/><linearGradient id="linear-gradient-72" x1="131.75" y1="1442.29" x2="131.75" y2="1469.71" xlink:href="#linear-gradient-37"/><linearGradient id="linear-gradient-73" x1="1203.86" y1="1944.41" x2="1203.86" y2="1971.83" gradientTransform="translate(2412.43 1190.02) rotate(144)" xlink:href="#linear-gradient-37"/><linearGradient id="linear-gradient-74" x1="2012.37" y1="1079.17" x2="2012.37" y2="1106.58" gradientTransform="translate(1252.57 2380.53) rotate(-144)" xlink:href="#linear-gradient-37"/><linearGradient id="linear-gradient-75" x1="1438.81" y1="43.54" x2="1438.81" y2="70.95" gradientTransform="translate(-238.43 1644.73) rotate(-72)" xlink:href="#linear-gradient-37"/><linearGradient id="linear-gradient-76" x1="277.24" y1="268.17" x2="277.24" y2="295.59" gradientTransform="matrix(1, 0, 0, 1, 0, 0)" xlink:href="#linear-gradient-37"/><linearGradient id="linear-gradient-77" x1="198.56" y1="285.81" x2="224.93" y2="318.68" gradientUnits="userSpaceOnUse"><stop offset="0.1" stop-color="#4a5d90"/><stop offset="0.78" stop-color="#344266"/></linearGradient><linearGradient id="linear-gradient-78" x1="143.74" y1="495.34" x2="170.11" y2="528.21" xlink:href="#linear-gradient-77"/><linearGradient id="linear-gradient-79" x1="330.63" y1="286.71" x2="357" y2="319.58" xlink:href="#linear-gradient-77"/></defs><g id="Layer_2" data-name="Layer 2"><g id="Layer_1-2" data-name="Layer 1"><path class="cls-1" d="M540.27,521.13c0-24.44-10.86-48.56-53.94-61.81-48.21-15.05-124.17-24.79-209.73-24.92-85.56.13-161.52,9.87-209.73,24.92C23.79,472.57,13,496.69,12.93,521.13l-.29,242.11h0c.32,32.12,118.21,58.15,264,58.36,145.75-.21,263.63-26.24,263.95-58.36h0Z"/><path class="cls-2" d="M12.82,544.26l-.18,135.12h0c.32,32.12,118.21,58.15,264,58.37,145.75-.22,263.63-26.25,263.95-58.37h0l-.18-135.12Z"/><path class="cls-3" d="M12.89,551.45l-.09,68c3.08,31.59,119.8,57,263.8,57.22,144-.21,260.72-25.63,263.81-57.22l-.09-68Z"/><path class="cls-4" d="M540.55,754.25c-.32,32.12-118.2,58.15-263.95,58.37-145.74-.22-263.63-26.25-264-58.37h0v9h0c.32,32.12,118.21,58.15,264,58.36,145.75-.21,263.63-26.24,263.95-58.36h0v-9Z"/><path class="cls-5" d="M540.84,673V631.41h5c-.26-14.77-.36-38.15-.41-54.36h-33.9l-32.71,10.49L337.78,601.46l-177-.45L35.9,575l-23-12.46-.14,97.81h3.18v-45c0-7.58,6.87-26.91,14.6-27.3,9.06-.47,17.8,19.49,18.28,31.32l2.39,59c-3.6,6.29-5,8.92-3.45,13.78,1.8,5.84,10.75,9,12.88-.3.2-.85-.41-4-1.25-7.12a47.87,47.87,0,0,1-1.64-14.24l1.42-43.8c.38-11.6,10.15-22.14,21.75-22.32a9.65,9.65,0,0,1,3.08.33c14.8,4.64,16.57,39.85,16.47,58A46.65,46.65,0,0,1,97,680.27a35.82,35.82,0,0,0-1.35,3.7c-1.17,4.36,0,13.48,9,13.48,4.8,0,6.85-6.28,7.19-10.18a24.47,24.47,0,0,0-.79-6.16,52.37,52.37,0,0,1-.6-18.39c2.28-16.31,7.74-44.8,18.16-44,10.83.79,11.08,36.84,21.87,38,9,1,14.08-25.41,23-24.26,12.84,1.65,13,38.79,25.91,38.63,14.36-.17,11.23-41.62,40.58-42.82,8.75-.36,16.5,12.36,18.72,18.57,4.43,12.36,8.68,56.9,8.68,56.9s-5,7.89-4,12.58c2.25,11.23,14.82,8.53,15.72,1.34s-4.64-11.46-4.49-15.72c.45-12.28,3.9-66.33,21.86-73.52s31.61,4.25,32.8,12.13c2.39,15.87,7.19,84.45,5.39,91.19s-6.44,17.22.3,20.82,14.52-2.4,11.38-11.84-.08-76.11,2.7-93.43c1.79-11.24,15.27-26.51,31-13.93s19.77,72.32,17.52,77.27-7.19,13-.9,18S411,730.09,411,722.31c0-10-5.39-9.44-4-15.28s-1.65-82.66,20.21-89.55c28.42-9,25.46,40,39.84,35.94s8.38-49.71,28.14-52.7c7.88-1.2,13.63,27.7,25.76,22.76,3.85-1.57,9.16-11.72,12.79-19.44a2.17,2.17,0,0,1,4.13.92v66.73A17.52,17.52,0,0,0,540.84,673Z"/><path class="cls-6" d="M547.52,558.67l-.07-37.62c0-7.11-1.45-19.47-5-25.5L12.54,492.6c-4,6.74-6.79,21.34-6.8,28.45l0,37.62c0,.16.09.31.11.46v67.2a38.67,38.67,0,0,1-4.31,17c-1.23,2.51-2,5.48-1.08,8.29,2.25,6.74,12.81,8.76,12.81,8.76V609.3c0-7.58,6.86-26.9,14.6-27.3,9-.47,17.8,19.49,18.27,31.32l2.2,54.32a17.06,17.06,0,0,1-1.91,8.46c-2,3.8-2.5,6.22-1.35,10,1.8,5.84,9,9.28,12.88-.3.68-1.67-3.14-13.48-3.14-13.48l1.67-51.63c.39-11.74,9.45-21.85,21.18-22.36a11,11,0,0,1,3.65.32c14.81,4.64,16.57,39.85,16.48,58a46.66,46.66,0,0,1-3.45,17.67A35.82,35.82,0,0,0,93,678c-1.17,4.36,0,13.48,9,13.48,4.79,0,6.84-6.28,7.19-10.18a24.88,24.88,0,0,0-.79-6.15,52.25,52.25,0,0,1-.6-18.41c2.27-16.31,7.74-44.79,18.16-44,10.82.8,11.07,36.85,21.86,38,9,1,14.08-25.41,23.06-24.26,12.83,1.65,13,38.79,25.91,38.63,14.36-.16,11.23-41.62,40.57-42.82,8.76-.36,16.5,12.36,18.72,18.57,3.32,9.23,6.53,36.44,7.94,49.6a23.73,23.73,0,0,1-1.69,12c-1.1,2.53-2.06,5.59-1.61,7.89,2.25,11.23,14.83,8.53,15.73,1.35s-4.65-11.47-4.49-15.73c.44-12.28,3.89-66.34,21.86-73.52s31.61,4.26,32.79,12.13c2.4,15.87,7.19,84.45,5.39,91.19s-6.43,17.22.31,20.82,14.52-2.4,11.37-11.84-.07-76.11,2.7-93.44c1.8-11.23,15.27-26.5,31-13.92s19.76,72.32,17.52,77.27-7.19,13-.9,18,14.37,1.5,14.37-6.28c0-10-5.39-9.44-4-15.28s-1.65-82.66,20.22-89.54c28.42-9,25.45,40,39.83,35.94s8.38-49.72,28.15-52.71c7.87-1.2,13.63,27.7,25.76,22.75,6.29-2.56,11.9-15.3,15.85-27a3,3,0,0,1,5.86,1v79.9s12.61,7.29,16.62-4.49c1.66-4.88-6.1-12.61-7.19-24.56C549,638.22,547.52,558.67,547.52,558.67Z"/><path class="cls-7" d="M79.48,593.83a10,10,0,0,0-3.08-.34c-11.61.19-21.37,10.73-21.75,22.33L53.1,663.64a35.66,35.66,0,0,0,.53,7.44c.65,3.59,1.5,8.72,1.37,9.86-.9,7.41-8.43,7.75-10.34,3.06a13.14,13.14,0,0,0,.37,2.07c1.8,5.84,9,9.28,12.88-.3.68-1.67-3.14-13.48-3.14-13.48l1.68-51.67c.37-11.6,10.14-22.15,21.74-22.34a10.23,10.23,0,0,1,3.08.34c4.39,1.37,7.61,5.47,10,11C88.79,601.69,85.07,595.58,79.48,593.83Z"/><path class="cls-7" d="M124.1,607.9c-10.42-.76-15.89,27.73-18.16,44a52.13,52.13,0,0,0,.6,18.39,25,25,0,0,1,.79,6.16c-.34,3.9-2.4,10.18-7.19,10.18a8.44,8.44,0,0,1-7.38-3.57c.58,4.09,3,8.36,9.18,8.36,4.79,0,6.84-6.28,7.19-10.18a24.82,24.82,0,0,0-.79-6.15,52.2,52.2,0,0,1-.6-18.4c2.27-16.31,7.74-44.8,18.16-44,3.1.23,5.33,3.41,7.2,7.8C130.86,613.74,128.27,608.21,124.1,607.9Z"/><path class="cls-7" d="M254.23,636.05c-2.23-6.2-10-18.92-18.72-18.57-29.35,1.21-26.22,42.66-40.58,42.83-4.7.06-7.71-4.83-10.25-11.14,3,8.45,6.2,16,12,15.93,14.36-.16,11.23-41.62,40.57-42.82,7.61-.31,14.44,9.24,17.56,15.82C254.65,637.37,254.44,636.64,254.23,636.05Z"/><path class="cls-7" d="M169,621.68c-9-1.16-14.06,25.25-23.06,24.26-3.06-.34-5.26-3.54-7.11-7.9,2.22,6.71,4.8,12.24,8.91,12.69,9,1,14.08-25.41,23.06-24.26,4.53.58,7.46,5.61,10,11.83C177.87,630,174.68,622.41,169,621.68Z"/><path class="cls-7" d="M26,577.21c-7.73.39-14.6,19.72-14.6,27.3v41.06s-1.35,13.92-11.4,3.8a8.06,8.06,0,0,0,.39,2.26c2.25,6.74,12.81,8.76,12.81,8.76V609.3c0-7.58,6.86-26.9,14.6-27.3,5.39-.28,10.67,6.71,14.16,14.9C38.71,586.86,32.45,576.88,26,577.21Z"/><path class="cls-7" d="M406.52,711.53c0,7.78-8.09,11.23-14.38,6.28a7.52,7.52,0,0,1-1.23-1.31,7.51,7.51,0,0,0,3,6.1c6.29,4.95,14.37,1.5,14.37-6.28,0-4.44-1.06-6.76-2.13-8.52A19.71,19.71,0,0,1,406.52,711.53Z"/><path class="cls-7" d="M274.59,706.88c-.76,6.08-9.8,8.84-14,2.81,0,.21,0,.44,0,.64,2.25,11.23,14.83,8.53,15.73,1.35.46-3.67-.76-6.57-2-9.11A12.44,12.44,0,0,1,274.59,706.88Z"/><path class="cls-7" d="M554.69,658.78a6.11,6.11,0,0,1,.07,3.33c-3.07,9-11.2,6.85-14.82,5.34v3.94s12.61,7.29,16.62-4.49C557.28,664.78,556.19,662.09,554.69,658.78Z"/><path class="cls-7" d="M540,592.29c.5-4.31,0-6.43-1.06-8.12-1.25-2-5.72-1.12-6.63,1.56-3.95,11.66-9.55,24.4-15.85,27-12.13,4.95-17.89-24-25.76-22.76-19.77,3-13.77,48.67-28.15,52.71s-11.41-44.89-39.83-35.94c-21.87,6.89-19.17,77.12-19.62,84-.2,3.09-.2,9.89,1,11.82a7.73,7.73,0,0,1,.17-1.49c1.35-5.84-1.65-82.66,20.22-89.54,28.42-9,25.45,40,39.83,35.94s8.38-49.72,28.15-52.71c7.87-1.2,13.63,27.7,25.76,22.75,6.29-2.56,11.9-15.3,15.85-27a3,3,0,0,1,4.06-1.77C539.16,589.24,539.92,590.36,540,592.29Z"/><path class="cls-7" d="M324.76,629.77c-1.19-7.88-14.83-19.32-32.8-12.13s-21.41,61.24-21.86,73.52c-.06,1.76.85,3.54,1.88,5.52a4.65,4.65,0,0,1-.08-.73c.44-12.28,3.89-66.34,21.86-73.52,14.84-5.94,26.69.83,31.06,7.8C324.8,630.1,324.78,629.9,324.76,629.77Z"/><path class="cls-7" d="M375.52,622.58c-15.72-12.58-29.2,2.69-31,13.92-2.77,17.33-5.84,84-2.69,93.44s-4.64,15.43-11.38,11.83a6.23,6.23,0,0,1-1.71-1.39c.12,2.63,1,4.88,3.51,6.19,6.73,3.59,14.52-2.4,11.37-11.84s-.07-76.11,2.7-93.44c1.8-11.23,15.27-26.5,31-13.92,3.15,2.52,5.81,7,8.07,12.48C382.8,632.14,379.55,625.8,375.52,622.58Z"/><path class="cls-8" d="M542.49,495.55c-6.76-15.42-21.5-29.1-50.44-38C442.6,442.11,364.7,432.11,277,432c-87.74.16-165.63,10.16-215.08,25.6-28.94,8.9-43.68,22.58-50.43,38-4.92,18.75,8.43,33.89,28.7,43.25,45.32,21,134.36,32.34,236.81,32.37s191.49-11.42,236.82-32.37C534.05,529.44,547.4,514.3,542.49,495.55Z"/><path class="cls-9" d="M522,485.75c-6.23-13.05-19.83-24.61-46.53-32.15C429.79,440.55,357.92,432.09,277,432c-80.95.14-152.82,8.6-198.45,21.65C51.81,461.14,38.2,472.7,32,485.75c-4.53,15.86,7.79,28.67,26.48,36.59,41.83,17.71,124,27.35,218.51,27.37s176.69-9.66,218.52-27.37C514.18,514.42,526.5,501.61,522,485.75Z"/><path class="cls-5" d="M465.88,481.24c-4.69-9.34-14.93-17.62-35.05-23-34.36-9.36-88.49-15.41-149.47-15.51-61,.1-115.1,6.15-149.47,15.51-20.12,5.39-30.36,13.67-35,23-3.42,11.36,5.86,20.53,19.94,26.2,31.5,12.68,93.38,19.59,164.58,19.6s133.08-6.92,164.58-19.6C460,501.77,469.3,492.6,465.88,481.24Z"/><path class="cls-10" d="M81.92,588.25c-19.06-8-29,12.14-28.81,12.59,0,.59,5-5.37,13.46-8a35.51,35.51,0,0,1,14-1.68C82.59,591.28,83.86,589.07,81.92,588.25Z"/><path class="cls-10" d="M25.72,568.6a19.6,19.6,0,0,0-10.09,5.9c-3,3.19-3.92,6-4.62,10.24-.26,1.58,2,1.56,2.49.33,2.38-5.85,7.63-10.17,13.29-12.58C29,571.55,28.23,568.07,25.72,568.6Z"/><path class="cls-10" d="M50.29,677.37c-.55-1.12-2.07-.67-2.5.3a9,9,0,0,0-.71,4.88c.23,2.34,3.73,1.53,3.92-.47A7.85,7.85,0,0,0,50.29,677.37Z"/><path class="cls-10" d="M101.18,678.25c-.24-1.16.11-1.92,0-3-.08-.85-.22-1.78-1.16-2.09l-.23-.07a2.37,2.37,0,0,0-2.23.57c-2.59,2.69-3.3,8.35,1,9.7,1.7.53,3.08-1.12,3.06-2.66A10.34,10.34,0,0,0,101.18,678.25Z"/><path class="cls-10" d="M149,630.51c-3-1.2-6.11-14.57-7.94-17.66-2.71-4.59-5.39-8.09-10.33-8.69-1.25-.15-2.46,1.15-1.28,2,7.92,5.46,9.15,15.82,11.26,24.4,1.22,4.94,5.48,9.28,10.26,5.11C152.68,634.1,151.1,631.39,149,630.51Z"/><path class="cls-10" d="M175.61,617.79c-1.5-.75-2.58,1.09-1,2,3.5,1.94,6.24,8.39,7.9,11.81,2.25,4.65,2.25,9.44,5.21,14.52,1.15,2,4.39-.1,4.13-2.16C191.13,638.08,187,623.48,175.61,617.79Z"/><path class="cls-10" d="M223.13,613c-1.45,1-.44,3.31,1.18,2.3,5.42-3.4,12.63-2.75,18.06.33,4.17,2.38,6.66,6.49,10.59,9.07,1.52,1,4-1,3.46-2.69C252.19,608.55,233.45,606,223.13,613Z"/><path class="cls-10" d="M266.73,702.11c-.6-.49-1.49-.12-2,.25a4.42,4.42,0,0,0-1.32,6.15c1.67,2.88,5.52.86,5.44-2A5.2,5.2,0,0,0,266.73,702.11Z"/><path class="cls-10" d="M328,617.16a17.3,17.3,0,0,0-13.28-6.72c-1.37-.06-2.24,2.18-.69,2.6a19.43,19.43,0,0,1,10.84,8.27c2.71,4.31,2.52,9.56,4.92,13.81,1.15,2,4.07,1,4.41-1.09C335.12,628.37,331.54,621.45,328,617.16Z"/><path class="cls-10" d="M337.86,731.54a1.35,1.35,0,0,0-1.61-.23,6.55,6.55,0,0,0-2.85,7.19c.68,2.84,4,2.17,5.05,0S340,733.32,337.86,731.54Z"/><path class="cls-10" d="M389.9,625.27c-4-6.63-8.64-9.95-15.28-13-1.41-.66-3,.68-1.51,1.64,5.13,3.36,10.82,9.66,13.23,15.27,2.2,5.15,2.51,11.84,6,16.18,1.11,1.39,3.13-.17,3.3-2C396.19,636.85,393.31,631,389.9,625.27Z"/><path class="cls-10" d="M396.18,708.3c-2.72,1.4-3.41,4.52-2.39,7.21,1,2.52,4.12,1.09,5-.61S399.6,706.55,396.18,708.3Z"/><path class="cls-4" d="M393.5,776.06a4.49,4.49,0,1,0,4.49-4.49A4.48,4.48,0,0,0,393.5,776.06Z"/><path class="cls-4" d="M377.32,753.6a9.88,9.88,0,1,0-9.88,9.88A9.89,9.89,0,0,0,377.32,753.6Z"/><path class="cls-4" d="M352.17,789.54a9,9,0,1,0,9-9A9,9,0,0,0,352.17,789.54Z"/><circle class="cls-4" cx="307.24" cy="801.22" r="12.58" transform="translate(-476.56 451.92) rotate(-45)"/><path class="cls-4" d="M284.78,761.68a6.29,6.29,0,1,0-6.29-6.28A6.28,6.28,0,0,0,284.78,761.68Z"/><path class="cls-4" d="M406.07,750.9a11.68,11.68,0,1,0,11.68-11.68A11.68,11.68,0,0,0,406.07,750.9Z"/><path class="cls-4" d="M472.56,787.74a9,9,0,1,0,9-9A9,9,0,0,0,472.56,787.74Z"/><path class="cls-4" d="M499.51,750.9a11.68,11.68,0,1,0-11.68-11.68A11.68,11.68,0,0,0,499.51,750.9Z"/><path class="cls-4" d="M502.21,766.18a6.29,6.29,0,1,0,6.29-6.29A6.29,6.29,0,0,0,502.21,766.18Z"/><path class="cls-4" d="M446.51,758.09a7.19,7.19,0,1,0,7.18-7.19A7.18,7.18,0,0,0,446.51,758.09Z"/><path class="cls-4" d="M436.62,799.42a13.48,13.48,0,1,0-17.5,12.79q6-.84,11.74-1.77A13.43,13.43,0,0,0,436.62,799.42Z"/><path class="cls-4" d="M469,720.36a13.49,13.49,0,0,1-13.51,13.51,13.34,13.34,0,0,1-12.8-9.35c9.28-1.58,18-3.38,26.16-5.32A3.09,3.09,0,0,1,469,720.36Z"/><path class="cls-4" d="M319.82,768a7.19,7.19,0,1,0,7.19-7.18A7.19,7.19,0,0,0,319.82,768Z"/><path class="cls-4" d="M213.8,770.67a8.09,8.09,0,1,0-8.08,8.08A8.09,8.09,0,0,0,213.8,770.67Z"/><path class="cls-4" d="M227.28,809.3a10.78,10.78,0,1,0-12.65,10.59l2.46.13A10.75,10.75,0,0,0,227.28,809.3Z"/><path class="cls-4" d="M161.69,767.08a12.58,12.58,0,1,0-12.58-12.58A12.58,12.58,0,0,0,161.69,767.08Z"/><path class="cls-4" d="M252.44,759.89a12.58,12.58,0,1,0-12.58,12.58A12.58,12.58,0,0,0,252.44,759.89Z"/><path class="cls-4" d="M251.54,781.45a7.19,7.19,0,1,0,7.19,7.19A7.19,7.19,0,0,0,251.54,781.45Z"/><path class="cls-4" d="M144.62,780.55a5.39,5.39,0,1,0,5.39-5.39A5.39,5.39,0,0,0,144.62,780.55Z"/><path class="cls-4" d="M12.68,727.13a9.88,9.88,0,1,0,0-15.37Z"/><path class="cls-4" d="M540.49,702.84a11.55,11.55,0,0,0-6.83-2.25,11.68,11.68,0,1,0,6.85,21.09Z"/><path class="cls-4" d="M67.36,731.14A5.4,5.4,0,1,0,62,736.53,5.39,5.39,0,0,0,67.36,731.14Z"/><path class="cls-4" d="M104.19,779.65a8.09,8.09,0,1,0,8.09-8.08A8.09,8.09,0,0,0,104.19,779.65Z"/><path class="cls-4" d="M98.8,733.83a11.68,11.68,0,1,0,11.68,11.68A11.68,11.68,0,0,0,98.8,733.83Z"/><path class="cls-4" d="M48.49,753.6a9.88,9.88,0,1,0,9.88,9.88A9.88,9.88,0,0,0,48.49,753.6Z"/><path class="cls-11" d="M154.51,695.2a6.29,6.29,0,1,0-6.29,6.29A6.29,6.29,0,0,0,154.51,695.2Z"/><path class="cls-11" d="M202.12,719.46a4.49,4.49,0,1,0-4.49,4.49A4.5,4.5,0,0,0,202.12,719.46Z"/><circle class="cls-11" cx="236.27" cy="696.1" r="8.98" transform="translate(-423.01 370.95) rotate(-45)"/><path class="cls-11" d="M85.32,701.49a7.19,7.19,0,1,0-7.18,7.18A7.19,7.19,0,0,0,85.32,701.49Z"/><path class="cls-11" d="M35,654.77a4.49,4.49,0,1,0-4.49,4.49A4.49,4.49,0,0,0,35,654.77Z"/><path class="cls-11" d="M318.92,714.07a4.49,4.49,0,1,0-4.49,4.49A4.49,4.49,0,0,0,318.92,714.07Z"/><path class="cls-12" d="M447.4,682.62a7.19,7.19,0,1,0-7.18,7.19A7.19,7.19,0,0,0,447.4,682.62Z"/><path class="cls-12" d="M498.62,697a8.09,8.09,0,1,0-8.09,8.08A8.09,8.09,0,0,0,498.62,697Z"/><path class="cls-12" d="M521.08,660.16a4.5,4.5,0,1,0-4.5,4.49A4.5,4.5,0,0,0,521.08,660.16Z"/><path class="cls-13" d="M233.57,656.57a5.39,5.39,0,1,0-5.39,5.39A5.39,5.39,0,0,0,233.57,656.57Z"/><path class="cls-13" d="M80.83,626a4.49,4.49,0,1,0-4.49,4.49A4.49,4.49,0,0,0,80.83,626Z"/><path class="cls-13" d="M138.33,656.57a4.49,4.49,0,1,0-4.49,4.49A4.49,4.49,0,0,0,138.33,656.57Z"/><path class="cls-14" d="M452,308.52c0-16.27-7.22-32.31-35.88-41.12-32.06-10-82.6-16.49-139.51-16.58-56.91.09-107.44,6.57-139.51,16.58-28.66,8.81-35.86,24.85-35.88,41.12l-.2,176.3h0c.22,21.37,78.63,38.68,175.58,38.83,96.95-.15,175.37-17.46,175.58-38.83h0Z"/><path class="cls-15" d="M101.08,374.15,101,434.51h0c.22,21.36,78.63,38.68,175.58,38.82,96.95-.14,175.37-17.46,175.58-38.82h0l-.07-60.36Z"/><path class="cls-16" d="M101.08,331,101,387.79h0c.22,21.36,78.63,38.68,175.58,38.82,96.95-.14,175.37-17.46,175.58-38.82h0L452.13,331Z"/><path class="cls-4" d="M276.9,513c-96.93-.15-175.33-17.46-175.58-38.81V485h0c.22,21.37,78.63,38.68,175.58,38.83,97-.15,175.37-17.46,175.58-38.83h0V474.21C452.23,495.56,373.83,512.87,276.9,513Z"/><path class="cls-5" d="M452,345.94c-25.5,5.45-95.54,23.42-95.54,23.42l-137,1.8L101.17,338l-.08,81.9c1.54-.15,2.88-.88,3.44-3.82-.12-8,0-19.55,0-29.69,0-7.87,3.07-15.61,9-20.79,1.42-1.24,2.8-2.17,4-2.12,7.19.3,10.62,9.55,12.58,13.78,3,6.53,3,23.06,13.48,25.45S155.85,374.3,163.93,377c6,2,7,37.81,7.16,51.73a35,35,0,0,1-1.34,10.07c-1.23,4.35-2.81,10.52-2.53,12.77.9,7.19,13.78,10.48,12.58-3.29a70.91,70.91,0,0,0-1.22-8.75,45.22,45.22,0,0,1-.79-13.28c1.2-14.39.22-38.77,6.51-43,10.09-6.73,7.78,17.67,18.56,18s10.79-21.87,21-15.58c4.13,2.56,6.14,17.13,7,25.72a22.37,22.37,0,0,1-1.7,11.05c-1.45,3.33-3,7.58-2.59,9.65,1.8,9.29,12.28,9,14.08,1.5,1-4,.14-8.17-.83-11.26a23.47,23.47,0,0,1-.8-11.19c1.88-10.66,4.9-25.69,10.61-26.66,8.95-1.52,13.43,7.9,15.63,16.42a39,39,0,0,1,.68,17.42c-.74,3.75-.32,10.07,3.16,11.68,7.79,3.59,7.49-9.59,6-16.77s7.25-31.42,15.27-25.76c10.19,7.19,9,17.37,22.77,17.07,14.68-.32,19.71-15.31,26.35-19.46,5.91-3.7,13.93,3.44,16.18,10.18s7.52,43.75,7.18,46c-.89,5.84-5.09,14.52-2.4,20.81s17.68,5.39,14.08-8.08-5.09-11.68-4.94-14.53c.38-7.23,6.54-39.81,7.64-45.82,2.09-11.53,11.68-17.52,16.17-11.53,3.88,5.18,11.68,75.77,10.78,80.26s-5.09,17.37,4.5,17.37c5.67,0,8.82-7,3.88-15.57s0-89.25,20.37-96.13c7.27-2.46,14.78,1.34,19.2,13Z"/><path class="cls-17" d="M457.28,414.43c0-22.28,1-106.09,1-106.09,0-16.85-7.48-33.45-37.17-42.59l-1.09-.32H133.22l-1.1.32C102.44,274.89,95,291.49,95,308.34c0,0,.66,88,.1,89.32-.75,1.72-3.67,5.77-4.34,10.93-1,7.76,7.64,16.63,10.93,10.64-.25-5.12-.16-25.3-.08-37.6.06-7.86,3.07-15.6,9-20.78,1.43-1.24,2.81-2.17,4-2.12a8,8,0,0,1,2,.41l1.29.52c5,2.45,7.63,9.34,9.26,12.85,3,6.53,3,23.06,13.47,25.45s12.28-28.45,20.37-25.75c6,2,7,37.81,7.16,51.73A35,35,0,0,1,166.75,434c-1.22,4.35-2.8,10.52-2.52,12.77.9,7.19,13.78,10.48,12.58-3.29a70.54,70.54,0,0,0-1.23-8.75,45.56,45.56,0,0,1-.79-13.28c1.21-14.39.22-38.77,6.51-43,10.09-6.73,7.79,17.67,18.57,18s10.78-21.86,21-15.57c4.13,2.55,6.15,17.13,7,25.71a22.37,22.37,0,0,1-1.7,11c-1.44,3.34-3,7.59-2.58,9.66,1.8,9.29,12.28,9,14.08,1.5.95-4,.14-8.17-.84-11.26a23.51,23.51,0,0,1-.79-11.2c1.85-10.52,4.83-25.25,10.41-26.56l4.52.17c6.1,1.64,9.49,9.16,11.31,16.16a39.15,39.15,0,0,1,.68,17.42c-.75,3.75-.32,10.07,3.16,11.68,7.78,3.59,7.48-9.59,6-16.77s7.24-31.42,15.27-25.76c10.18,7.19,9,17.37,22.76,17.07,14.68-.32,19.71-15.31,26.36-19.47,5.91-3.69,13.92,3.45,16.17,10.19s7.86,38.1,7.19,46c-.51,5.89-5.09,14.52-2.4,20.81s18.16,5.25,14.08-8.08c-2.25-7.34-4.35-13.33-4.19-16.18.38-7.23,5.79-38.16,6.88-44.17,2.1-11.53,11.68-17.52,16.17-11.53,3.89,5.18,11.68,75.77,10.79,80.26s-5.09,17.37,4.49,17.37c5.68,0,8.84-7,3.89-15.57s0-89.25,20.37-96.14c8.77-3,18,3,21.56,21.12.08.44,0,51.66,0,51.66.21,4,11.76,8.12,11.68-1.8C463.11,433.75,457.28,419.28,457.28,414.43Z"/><path class="cls-7" d="M248.05,376.14a7.82,7.82,0,0,0-3.91.51c-5.58,1.3-8.56,16-10.41,26.56a23.59,23.59,0,0,0,.79,11.19c1,3.09,1.79,7.31.84,11.26a6.79,6.79,0,0,1-11.05,3.92c3,6.82,11.67,6,13.3-.77.95-4,.14-8.17-.84-11.26a23.51,23.51,0,0,1-.79-11.2c1.85-10.52,4.83-25.25,10.41-26.56l4.52.17a11.1,11.1,0,0,1,5.36,3.55C254.39,380.26,251.31,377,248.05,376.14Z"/><path class="cls-7" d="M179.06,375.35c-6.29,4.19-5.31,28.57-6.52,43a45.18,45.18,0,0,0,.8,13.28,70.91,70.91,0,0,1,1.22,8.75c.89,10.16-5.86,11-9.83,7.88,2.31,6.08,13.19,8,12.08-4.73a70.54,70.54,0,0,0-1.23-8.75,45.56,45.56,0,0,1-.79-13.28c1.21-14.39.22-38.77,6.51-43,2.33-1.56,4-1.41,5.3-.32C185,374.75,182.9,372.79,179.06,375.35Z"/><path class="cls-7" d="M218.59,377.75c-10.18-6.29-10.18,15.87-21,15.57a6.52,6.52,0,0,1-4.57-2.09c1.56,2.9,3.6,5.15,6.81,5.23,10.78.31,10.78-21.86,21-15.57.06,0,.12.14.18.18A7.72,7.72,0,0,0,218.59,377.75Z"/><path class="cls-7" d="M115.6,356.52l-1.29-.52a8.5,8.5,0,0,0-2-.42c-1.15,0-2.53.89-4,2.13-5.93,5.17-8.95,12.91-9,20.78-.08,12.3-.17,32.48.08,37.59-1.64,3-4.61,2.28-7.06-.15,2.49,4.58,7.09,7.33,9.31,3.3-.25-5.12-.16-25.3-.08-37.6.06-7.86,3.07-15.6,9-20.78,1.43-1.24,2.81-2.17,4-2.12a8,8,0,0,1,2,.41l1.29.52a12.14,12.14,0,0,1,3.73,3.07C120.07,360.19,118.13,357.77,115.6,356.52Z"/><path class="cls-7" d="M158.69,369.06c-8.09-2.69-9.88,28.16-20.36,25.76a10.16,10.16,0,0,1-5.22-3.21c1.67,3.08,3.94,5.55,7.46,6.35,10.48,2.4,12.28-28.45,20.37-25.75.08,0,.15.12.22.16C160.45,370.6,159.64,369.38,158.69,369.06Z"/><path class="cls-7" d="M427.63,360.08c-20.36,6.89-25.3,87.6-20.36,96.13s1.78,15.58-3.9,15.58a6.19,6.19,0,0,1-3.56-1c.65,2.42,2.28,4.17,5.81,4.17,5.68,0,8.84-7,3.89-15.57s0-89.25,20.37-96.14c5.05-1.71,10.22-.33,14.4,4.51C439.81,360.34,433.65,358,427.63,360.08Z"/><path class="cls-7" d="M457.28,414c-.79,3,1,11.71,2.7,16.74,2.33,6.84-5.14,7.29-8.54,5.09V436c.21,4,11.76,8.12,11.68-1.8,0-.45-5.84-14.92-5.84-19.77Z"/><path class="cls-7" d="M334.19,377.15c-6.65,4.15-11.67,19.15-26.36,19.47-13.77.29-12.57-9.89-22.75-17.08-8-5.66-16.78,18.57-15.28,25.76s1.8,20.36-6,16.77a2.81,2.81,0,0,1-.5-.35,5.69,5.69,0,0,0,2.75,3.5c7.78,3.59,7.48-9.59,6-16.77s7.24-31.42,15.27-25.76c10.18,7.19,9,17.37,22.76,17.07,14.68-.32,19.71-15.31,26.36-19.47,4.06-2.54,9.1.09,12.6,4.15C345.83,378.77,339.25,374,334.19,377.15Z"/><path class="cls-7" d="M388.1,374.15c-4.49-6-14.08,0-16.17,11.53-1.1,6-6.51,36.95-6.89,44.18-.15,2.84,1.94,8.83,4.19,16.17,3.46,11.32-6.74,15.57-12.07,10.4.1.27.12.56.24.83,2.7,6.29,18.16,5.25,14.08-8.08-2.25-7.34-4.35-13.33-4.19-16.18.38-7.23,5.79-38.16,6.88-44.17,1.9-10.44,9.91-16.24,14.74-12.81A7.72,7.72,0,0,0,388.1,374.15Z"/><path class="cls-18" d="M454.91,291.24c-4.54-10.34-14.42-19.52-33.83-25.49-33.16-10.35-85.39-17.05-144.24-17.17-58.84.12-111.07,6.82-144.23,17.17-19.41,6-29.3,15.15-33.83,25.49-3.29,12.57,5.66,22.72,19.25,29,30.4,14.05,90.1,21.69,158.81,21.71s128.42-7.66,158.82-21.71C449.25,314,458.2,303.81,454.91,291.24Z"/><path class="cls-9" d="M429.34,280.7c-3.88-8.22-12.34-15.52-29-20.26-28.39-8.24-73.14-13.57-123.53-13.66-50.39.09-95.12,5.42-123.53,13.66-16.62,4.74-25.08,12-29,20.26-2.82,10,4.85,18.08,16.49,23.07,26,11.17,77.17,17.25,136,17.27s110-6.1,136-17.27C424.5,298.78,432.16,290.71,429.34,280.7Z"/><path class="cls-5" d="M413.26,270.46c-4.71-6.64-11.11-9.8-25.74-14.07-25-7.39-64.4-12.18-108.77-12.26C234.38,244.21,195,249,170,256.39c-14.63,4.27-22.09,10.82-25.5,18.2-2.49,9,5.61,15.64,15.86,20.12,22.92,10,66.78,17.29,118.6,17.3s98.36-7.64,121.29-17.67C410.48,289.86,420.89,281.24,413.26,270.46Z"/><path class="cls-10" d="M142,378.82c-4.6-7.22-6.09-15-11.49-21.74-2.35-2.94-7.57-9-11.83-6.89-1,.52-1.29,1.75.22,1.58,5.91-.64,9.53,10.84,10.78,14.92,1.73,5.63,3.19,11.15,6.29,16.22C138.52,387,144.57,382.81,142,378.82Z"/><path class="cls-10" d="M95.37,405.07c-.75-.9-2.05-.25-2.46.62a7.13,7.13,0,0,0-.5,4.79c.53,2.94,4.43,1.42,4.4-1.08A6,6,0,0,0,95.37,405.07Z"/><path class="cls-10" d="M159.37,362.58c-1.17-.11-2.21,1.82-1,2.47,4.32,2.28,5.17,6.26,7.44,10.09,1.26,2.13,4,1,4.51-1.11C171.77,367.48,165,363.07,159.37,362.58Z"/><path class="cls-10" d="M166.82,441.08a5.26,5.26,0,0,0,1,4.21c1.2,1.52,3.61.14,3.84-1.47.12-.91.07-1.8.18-2.71C172.29,437.72,167.05,438,166.82,441.08Z"/><path class="cls-10" d="M198.72,384.63c-2.39-1.95-3-5-5.34-7-1.3-1.13-3.46.59-2.32,2,2.43,3.05.94,8.38,6.15,8.77A2.15,2.15,0,0,0,198.72,384.63Z"/><path class="cls-10" d="M228,419.65c-1.8,1.56-3.3,3.43-1.93,5.77a2.32,2.32,0,0,0,4.16-.5c.53-1.47.11-2.65.45-4.09S229,418.82,228,419.65Z"/><path class="cls-10" d="M241.8,371.91c-1.85.61-2,2.44.21,2a14.72,14.72,0,0,1,11.9,2.61c2.6,2,3.88,4.62,5.67,7.27,1.34,2,4.68-.23,4.29-2.24C262,371.77,250.29,369.1,241.8,371.91Z"/><path class="cls-10" d="M307.28,385.91c-2.6.25-8-3.67-10.38-5.92-3.23-3-6.59-5.59-10.92-6.58-1.65-.38-2.6.52-1.05,1.64,5.53,4,8.54,9.57,12.88,14.6,3.07,3.57,9.66,5.58,11.79-.11C310.19,388,309.27,385.71,307.28,385.91Z"/><path class="cls-10" d="M338.12,371.31c-1.92.09-2.35,1.31-.11,1.91,7.44,2,11,5.28,15.31,13.58.81,1.55,4.12.11,3.61-1.88C355.77,380.45,348.23,370.86,338.12,371.31Z"/><path class="cls-10" d="M362.2,446.88c-.1-1.44-2.16-1.41-2.8-.39-1.45,2.36-2.59,4.59-.83,7,.69.92,2.13.43,2.68-.34C362.74,451.07,362.37,449.4,362.2,446.88Z"/><path class="cls-10" d="M267.24,413.78c-.24-1.82-2.67-1.07-2.94.35a5.44,5.44,0,0,0,0,2.94c.38,2.1,3.17,1,3.14-.77A11.23,11.23,0,0,0,267.24,413.78Z"/><path class="cls-4" d="M171.72,468.28a12.56,12.56,0,1,1-25-2.3,11.28,11.28,0,0,1,1.66-5.1c1.37.36,2.73.72,4.17,1,6,1.29,12.36,2.51,19.12,3.66A11.78,11.78,0,0,1,171.72,468.28Z"/><path class="cls-4" d="M286.16,508.74a9,9,0,1,0-9.78,8.11A9,9,0,0,0,286.16,508.74Z"/><path class="cls-4" d="M161,496.17a7.19,7.19,0,1,0,7.82-6.49A7.19,7.19,0,0,0,161,496.17Z"/><path class="cls-4" d="M123.45,482.74a8.09,8.09,0,1,0-7.3-8.8A8.1,8.1,0,0,0,123.45,482.74Z"/><path class="cls-4" d="M238.07,482.6a7.19,7.19,0,1,0,7.82-6.49A7.18,7.18,0,0,0,238.07,482.6Z"/><path class="cls-4" d="M195,479a6.29,6.29,0,1,0,6.85-5.68A6.29,6.29,0,0,0,195,479Z"/><path class="cls-4" d="M209.36,506.25a12.58,12.58,0,1,0,13.7-11.35A12.58,12.58,0,0,0,209.36,506.25Z"/><path class="cls-4" d="M408,469.58A11.68,11.68,0,1,0,420.74,459,11.68,11.68,0,0,0,408,469.58Z"/><path class="cls-4" d="M296.72,473a1.58,1.58,0,0,0-.08.57,9.88,9.88,0,0,1-19.69-.29C283.63,473.31,290.24,473.17,296.72,473Z"/><path class="cls-4" d="M359.29,511.37a13.47,13.47,0,1,0-21.1,9.74q8.93-.74,17.35-1.69A13.33,13.33,0,0,0,359.29,511.37Z"/><path class="cls-4" d="M452.18,473.7l0-13.48a6.81,6.81,0,0,0-.9,13.58A9.24,9.24,0,0,0,452.18,473.7Z"/><path class="cls-4" d="M310.67,497.49a4.49,4.49,0,1,0,4.89-4.05A4.5,4.5,0,0,0,310.67,497.49Z"/><path class="cls-4" d="M365.12,484.52a7.19,7.19,0,1,0,7.82-6.49A7.19,7.19,0,0,0,365.12,484.52Z"/><path class="cls-4" d="M348.83,475.76a11.69,11.69,0,0,1-23.29-2.16,18.82,18.82,0,0,1,.35-1.94c7.55-.43,14.88-1.08,21.92-1.73A11.37,11.37,0,0,1,348.83,475.76Z"/><path class="cls-4" d="M426.68,492.07a6.29,6.29,0,1,0,5.67,6.85A6.29,6.29,0,0,0,426.68,492.07Z"/><path class="cls-11" d="M206.31,438.84a4.79,4.79,0,1,0-4.79,4.79A4.78,4.78,0,0,0,206.31,438.84Z"/><path class="cls-11" d="M121.86,419.07a4.19,4.19,0,1,0-4.19,4.19A4.2,4.2,0,0,0,121.86,419.07Z"/><path class="cls-11" d="M147,444.83a3,3,0,1,0-3,3A3,3,0,0,0,147,444.83Z"/><path class="cls-11" d="M320.72,441.83a4.8,4.8,0,1,0-4.79,4.79A4.8,4.8,0,0,0,320.72,441.83Z"/><path class="cls-11" d="M268.84,460.4a4.42,4.42,0,1,0-4.42,4.42A4.42,4.42,0,0,0,268.84,460.4Z"/><path class="cls-12" d="M389.6,431.65a3.6,3.6,0,1,0-3.59,3.59A3.6,3.6,0,0,0,389.6,431.65Z"/><path class="cls-13" d="M119.47,381.64a3.6,3.6,0,1,0-3.6,3.59A3.6,3.6,0,0,0,119.47,381.64Z"/><path class="cls-13" d="M192.24,408.59a3.6,3.6,0,1,0-3.59,3.59A3.59,3.59,0,0,0,192.24,408.59Z"/><path class="cls-13" d="M300.06,408.59a6.29,6.29,0,1,0-6.29,6.29A6.29,6.29,0,0,0,300.06,408.59Z"/><path class="cls-19" d="M407.12,102.41c0-12.1-5.38-24-26.7-30.59C356.55,64.36,319,59.54,276.6,59.48s-80,4.88-103.82,12.34c-21.32,6.56-26.68,18.49-26.7,30.59l-.14,174h0c.15,15.9,58.5,28.79,130.65,28.89,72.15-.1,130.5-13,130.65-28.89h0Z"/><path class="cls-20" d="M146,179.48l0,48.4h0c.16,15.9,58.51,28.79,130.66,28.9,72.15-.11,130.5-13,130.65-28.9h0l0-48.4Z"/><path class="cls-21" d="M146,116.59,145.94,183h0c.16,15.9,58.51,28.79,130.66,28.89,72.15-.1,130.5-13,130.65-28.89h0l-.06-66.37Z"/><path class="cls-4" d="M276.6,295.41c-72.14-.11-130.49-13-130.65-28.89v9.88h0c.15,15.9,58.5,28.79,130.65,28.89,72.15-.1,130.5-13,130.65-28.89h0l0-9.88C407.09,282.42,348.74,295.3,276.6,295.41Z"/><path class="cls-5" d="M146.06,129.17,146,206.26a7.09,7.09,0,0,0,3.11.63l1.35-35.34s3.44-15.57,13.47-8.38c4.49,3.21,6.33,20.51,13.18,21.26,10.52,1.15,13.24-14.69,20.88-14.63a6.49,6.49,0,0,1,4.27,1.45c5.75,5.35,8.09,62,6.6,67.09s-5.24,9.73.15,13,9.13-4,6.73-10.63-.44-67.83,11.09-65.29,8.08,16.93,15.27,19.92,11.08-22.31,20.66-16c6.82,4.47,8.94,20.33,9.6,29.1a19.36,19.36,0,0,1-1.5,9.05,9.85,9.85,0,0,0,0,8.57c3,5.69,10.33,4.79,12.28.6.77-1.67.85-5.21-.5-8.66a24.57,24.57,0,0,1-1.57-12.6c1.53-10.21,4.76-26.21,16.44-26.81,7-.36,15.13,12.28,17.52,34.29s4,43.42,1.65,49.71,7.49,14.08,12.28,6.6-2.85-11.54-2.54-14.23-7.12-68.8,9.43-74.72c14.22-5.09,14.52,16.62,24.1,18.71,6.94,1.52,13.48-34.29,20.07-28.9s9.44,41.33,8.54,45.23-3.74,8.08.14,13.47,11.54-.3,8.54-9,.3-57.2,5.39-59.6c1.94-.91,3.43.43,4.55,2.44l0-33.44Z"/><path class="cls-22" d="M414.84,190.77a29.47,29.47,0,0,1-2.55-12.35l.47-35.58c0-.07.05-.13.06-.2l0-40.76c0-12.63-5.6-25.08-27.86-31.92C360,62.18,320.79,57.15,276.6,57.08S193.18,62.18,168.28,70C146,76.8,140.44,89.25,140.42,101.88l.67,75.35A25.16,25.16,0,0,1,139,187.37c-1.41,3.35-2.52,7.22-2,8.44,3.29,8.09,9.13,7.49,9.13,7.49L147.46,168s3.44-15.57,13.48-8.39c4.49,3.22,6.33,20.51,13.17,21.26C184.64,182,187.35,166.15,195,166.2a6.47,6.47,0,0,1,4.28,1.46c5.74,5.34,8.09,62,6.59,67.08s-5.24,9.74.15,13,9.14-4,6.74-10.63-.45-67.83,11.08-65.29,8.08,16.92,15.27,19.92,11.09-22.31,20.67-16c6.82,4.47,8.94,20.32,9.59,29.09a19.46,19.46,0,0,1-1.49,9,9.87,9.87,0,0,0,0,8.58c3,5.68,10.33,4.79,12.29.59.77-1.67.85-5.21-.51-8.65a24.58,24.58,0,0,1-1.56-12.6c1.53-10.22,4.76-26.22,16.44-26.82,7-.35,15.12,12.29,17.52,34.3s4,43.42,1.64,49.71,7.49,14.08,12.29,6.59-2.85-11.53-2.55-14.23-7.12-68.79,9.43-74.72c14.23-5.09,14.53,16.63,24.11,18.72,6.94,1.52,13.48-34.29,20.07-28.9s9.43,41.33,8.53,45.22-3.74,8.09.15,13.48,11.53-.3,8.54-9,.29-57.21,5.39-59.6,7.19,10.78,7.19,10.78l.24,36.65,4.43-2.53A8.47,8.47,0,0,0,414.84,190.77Z"/><path class="cls-7" d="M196.8,163.17a6.5,6.5,0,0,0-4.28-1.46c-7.64-.05-10.35,15.79-20.88,14.63-1.57-.17-2.85-1.28-4-2.82,1.67,3.81,3.62,7,6.46,7.31C184.64,182,187.35,166.15,195,166.2a7.34,7.34,0,0,1,3.79,1.12A10,10,0,0,0,196.8,163.17Z"/><path class="cls-7" d="M221.36,167.36c-11.53-2.55-13.48,58.7-11.08,65.29s-1.35,13.92-6.74,10.63c-.12-.08-.18-.16-.29-.24-.09,1.76.53,3.37,2.76,4.73,5.39,3.3,9.14-4,6.74-10.63s-.45-67.83,11.08-65.29a10.5,10.5,0,0,1,6.12,3.68C228.49,171.84,226.35,168.46,221.36,167.36Z"/><path class="cls-7" d="M257.3,171.25c-9.59-6.29-13.48,19-20.67,16a6.35,6.35,0,0,1-2.13-1.53c1,2.69,2.19,5,4.6,6,7.19,3,11.09-22.31,20.67-16a10.75,10.75,0,0,1,2.65,2.65C261.1,175.29,259.46,172.67,257.3,171.25Z"/><path class="cls-7" d="M412.38,179.34a31.12,31.12,0,0,0,0,6.94c1,5,.31,8.5-3.35,10.71l-2,1.14,0,5.88,4.43-2.53a8.47,8.47,0,0,0,3.35-10.71A29.19,29.19,0,0,1,412.38,179.34Z"/><path class="cls-7" d="M158.46,155.08c-10-7.19-13.47,8.39-13.47,8.39l-1.17,30.69s-1.6,6.74-6.87,1.25a2.41,2.41,0,0,0,0,.4c3.29,8.09,9.13,7.49,9.13,7.49L147.46,168s3.44-15.57,13.48-8.39a5.91,5.91,0,0,1,.9,1C160.81,158.11,159.75,156,158.46,155.08Z"/><path class="cls-7" d="M397.16,152.08c-5.1,2.4-8.39,50.92-5.39,59.6,2.84,8.23-3.84,13.65-7.86,9.63a10.17,10.17,0,0,0,1.79,3.85c3.89,5.39,11.53-.3,8.54-9s.29-57.21,5.39-59.6a2.69,2.69,0,0,1,3.25.66C401.74,154,399.89,150.8,397.16,152.08Z"/><path class="cls-7" d="M292,170.5c-11.68.6-14.92,16.6-16.44,26.82a24.58,24.58,0,0,0,1.56,12.6c1.36,3.44,1.28,7,.5,8.65-1.65,3.56-7.17,4.7-10.64,1.49a8.53,8.53,0,0,0,.83,2.41c3,5.68,10.33,4.79,12.29.59.77-1.67.85-5.21-.51-8.65a24.58,24.58,0,0,1-1.56-12.6c1.53-10.22,4.76-26.22,16.44-26.82,3-.15,6.23,2.25,9.12,6.64C300.2,174.31,296,170.3,292,170.5Z"/><path class="cls-7" d="M374.54,162c-6.58-5.39-13.12,30.41-20.06,28.9-9.58-2.1-9.88-23.81-24.11-18.72-16.55,5.92-9.31,72-9.43,74.72-.34,7.08,5.16,9,2.55,14.23-2.38,4.74-7.11,3.67-10.06.73.73,5.42,8.44,10.14,12.53,3.76,4.78-7.49-2.85-11.53-2.55-14.23s-7.12-68.79,9.43-74.72c14.23-5.09,14.53,16.63,24.11,18.72,6.94,1.52,13.48-34.29,20.07-28.9a6.86,6.86,0,0,1,.54.62C376.66,164.72,375.66,162.88,374.54,162Z"/><path class="cls-23" d="M410.28,89.06c-3.4-7.75-10.8-14.63-25.36-19.1-24.86-7.77-64-12.79-108.14-12.88-44.11.09-83.27,5.11-108.13,12.88-14.55,4.47-22,11.35-25.36,19.1-2.47,9.43,4.24,17,14.43,21.75,22.79,10.53,67.55,16.26,119.06,16.27s96.28-5.74,119.08-16.27C406,106.1,412.75,98.49,410.28,89.06Z"/><path class="cls-9" d="M385.56,81.28c-2.78-5.87-8.81-11.07-20.67-14.46-20.25-5.87-52.16-9.67-88.11-9.74s-67.85,3.87-88.1,9.74c-11.86,3.39-17.9,8.59-20.67,14.46-2,7.13,3.46,12.89,11.76,16.45,18.57,8,55,12.31,97,12.32s78.45-4.35,97-12.32C382.1,94.17,387.57,88.41,385.56,81.28Z"/><path class="cls-10" d="M177,162.37a13.63,13.63,0,0,1-3.19-2.74c-.9-1.23-10.12-13.82-20.69-11.37-.89.21-1.57,1.24-.51,1.43,3.85.73,6.67,1.18,9.51,4.15,2.5,2.63,4,5.77,5.69,8.89,2.08,3.71,5.13,6.63,9.2,3.75A2.57,2.57,0,0,0,177,162.37Z"/><path class="cls-10" d="M204.51,159.68c-3.93-4.41-8.88-5.33-14.12-4.23-1.27.26-1.92,2.06-.14,2,4.56-.24,9.91,2.33,12.08,6.41,2.45,4.63,3.85,19.42,4,24.6.09,2.28,1.43-8.54,1.61-10C208.73,172.25,208.86,164.56,204.51,159.68Z"/><path class="cls-10" d="M207,236.77a16,16,0,0,0-2.08,3.2c-1.07,2.23,2.34,2.84,3.33.91a14.83,14.83,0,0,0,1.16-3.44C209.8,235.91,207.69,235.91,207,236.77Z"/><path class="cls-10" d="M236.14,172.36c-.79-1.79-6-6.94-11.08-7.44-2.45-.25-2.6.47-1.11.84,3.52.89,6.64,4.66,8,7.83,1.14,2.66,1.46,6.57,4.27,7.9,1.8.86,2.45-.84,2.28-3S237,174.23,236.14,172.36Z"/><path class="cls-10" d="M270.94,212.28c-1.31,2.08-2.64,3.1-1.66,5.66.65,1.68,2.73.71,3.33-.41.84-1.57.22-2.7.65-4.25A1.27,1.27,0,0,0,270.94,212.28Z"/><path class="cls-10" d="M257.19,166.52c-1.52-.17-2.26.65-.62,1.2,3.81,1.27,6.62,4.86,8.49,8.19,3.13,5.58,4.47,15.89,5.15,15.82s-.42-11.76-1.77-15.4C266.25,170.46,263,167.2,257.19,166.52Z"/><path class="cls-10" d="M307,170.39c-5.5-4.49-11.45-5.73-19.65-3.71-1.67.42-2.09,1.72-.11,1.24,19.3-4.67,24.59,18.87,26.39,32.46.29,2.2.56-3.71.34-6.29C313.2,185.16,312.74,175.07,307,170.39Z"/><path class="cls-10" d="M319.18,254.3c-1.95-1.81-4.25,3.47-3.87,5.21a2.51,2.51,0,0,0,3.13,2l.5-.08a2.6,2.6,0,0,0,2-2.71A6.29,6.29,0,0,0,319.18,254.3Z"/><path class="cls-4" d="M176,246.18a5.6,5.6,0,0,1-.07,1.08,12.56,12.56,0,0,1-25-2.3,12.17,12.17,0,0,1,3.1-7.12C159.14,240.87,166.61,243.74,176,246.18Z"/><path class="cls-4" d="M175.31,273.48a7.19,7.19,0,1,0-7.82,6.49A7.18,7.18,0,0,0,175.31,273.48Z"/><path class="cls-4" d="M200.6,263.32a6.29,6.29,0,1,0-6.85,5.68A6.28,6.28,0,0,0,200.6,263.32Z"/><path class="cls-4" d="M234.41,284.57a12.58,12.58,0,1,0-13.69,11.36A12.57,12.57,0,0,0,234.41,284.57Z"/><path class="cls-4" d="M261.36,268.9a7.19,7.19,0,1,0-7.82,6.49A7.18,7.18,0,0,0,261.36,268.9Z"/><path class="cls-4" d="M303,259.48a9.89,9.89,0,0,1-19.7-1.87,3.76,3.76,0,0,1,.15-.93h.07c6.54-.07,13-.22,19.26-.5A12.43,12.43,0,0,1,303,259.48Z"/><path class="cls-4" d="M286.16,284.73a9,9,0,1,0-9.78,8.11A9,9,0,0,0,286.16,284.73Z"/><path class="cls-4" d="M359.61,254.16a11.79,11.79,0,0,1-12.73,10.57,11.57,11.57,0,0,1-10.56-11.22c8.19-.93,15.88-2.08,22.92-3.3A10.3,10.3,0,0,1,359.61,254.16Z"/><path class="cls-4" d="M319.61,274.31a4.49,4.49,0,1,0-4.88,4.06A4.48,4.48,0,0,0,319.61,274.31Z"/><path class="cls-4" d="M359.3,287.35a13.48,13.48,0,1,0-14.68,12.17A13.48,13.48,0,0,0,359.3,287.35Z"/><path class="cls-4" d="M379.43,261.84a7.19,7.19,0,1,0-7.82,6.49A7.18,7.18,0,0,0,379.43,261.84Z"/><path class="cls-4" d="M405.4,264.12a6.29,6.29,0,1,0-6.84,5.68A6.3,6.3,0,0,0,405.4,264.12Z"/><path class="cls-11" d="M175.17,221.71a5.39,5.39,0,1,0-5.39,5.39A5.39,5.39,0,0,0,175.17,221.71Z"/><circle class="cls-11" cx="199.43" cy="217.22" r="2.7"/><path class="cls-11" d="M245.25,242.38a4.49,4.49,0,1,0-4.49,4.49A4.49,4.49,0,0,0,245.25,242.38Z"/><path class="cls-11" d="M295.56,234.29a2.7,2.7,0,1,0-2.69,2.69A2.69,2.69,0,0,0,295.56,234.29Z"/><path class="cls-13" d="M299.16,195.66a1.8,1.8,0,1,0-1.8,1.79A1.8,1.8,0,0,0,299.16,195.66Z"/><circle class="cls-13" cx="229.98" cy="199.25" r="2.7"/><path class="cls-13" d="M161.69,179.48a4.49,4.49,0,1,0-4.49,4.5A4.49,4.49,0,0,0,161.69,179.48Z"/><path class="cls-24" d="M399,76.23A18.82,18.82,0,1,0,380.22,95,18.81,18.81,0,0,0,399,76.23Z"/><path class="cls-25" d="M376.37,75.68a11.24,11.24,0,0,1,5-2.31l3.21-.42c1.59-.22,2.38-1.41,1.76-2.65l-1.26-2.54a7.57,7.57,0,0,1-.33-4.83l.9-2.87c.44-1.42-.48-2.33-2.06-2l-3.21.59a9.82,9.82,0,0,1-5.24-.69l-2.66-1.35a2,2,0,0,0-3,1.39l-.72,2.89a9.7,9.7,0,0,1-2.92,4.41l-2.54,2c-1.25,1-1.16,2.31.19,2.9l2.76,1.2a7.62,7.62,0,0,1,3.44,3.41l1.09,2.61c.54,1.28,1.95,1.47,3.15.41Z"/><path class="cls-26" d="M382.32,63.49c-1.52-3.32-5.89-4.58-9.76-2.82s-5.78,5.9-4.26,9.22,5.89,4.59,9.76,2.82S383.84,66.82,382.32,63.49Z"/><path class="cls-27" d="M381.52,63.85c-1.35-2.94-5.21-4.05-8.65-2.49s-5.11,5.22-3.77,8.17,5.22,4.06,8.64,2.49S382.86,66.79,381.52,63.85Z"/><path class="cls-26" d="M376.84,66a1.7,1.7,0,1,0-.93,2A1.57,1.57,0,0,0,376.84,66Z"/><path class="cls-28" d="M370.47,67.88c-1.23-.54-1.19-1.54-.85-2.65.57-1.84,2.11-2.75,3.35-2.21s.38,1.4-.57,2.57C371.65,66.51,371.69,68.42,370.47,67.88Z"/><path class="cls-29" d="M420.91,513.71a18.81,18.81,0,1,0-18.82,18.8A18.82,18.82,0,0,0,420.91,513.71Z"/><path class="cls-25" d="M398.24,513.15a11.26,11.26,0,0,1,5.05-2.3l3.21-.43c1.59-.21,2.37-1.4,1.76-2.64L407,505.24a7.51,7.51,0,0,1-.32-4.83l.89-2.87c.44-1.42-.48-2.33-2.06-2l-3.21.58a9.72,9.72,0,0,1-5.24-.68l-2.67-1.35a2,2,0,0,0-3,1.38l-.72,2.89a9.78,9.78,0,0,1-2.92,4.42l-2.54,2c-1.25,1-1.16,2.31.18,2.9l2.76,1.2a7.55,7.55,0,0,1,3.45,3.41l1.09,2.61c.54,1.28,1.95,1.46,3.14.4Z"/><path class="cls-26" d="M404.2,501c-1.52-3.32-5.89-4.59-9.76-2.82s-5.78,5.9-4.26,9.22,5.88,4.59,9.76,2.82S405.72,504.29,404.2,501Z"/><path class="cls-27" d="M403.4,501.33c-1.35-2.94-5.22-4.06-8.65-2.49s-5.11,5.22-3.77,8.16,5.22,4.07,8.64,2.5S404.74,504.27,403.4,501.33Z"/><path class="cls-26" d="M398.72,503.47a1.59,1.59,0,0,0-2.14-.61,1.46,1.46,0,1,0,2.14.61Z"/><path class="cls-28" d="M392.35,505.36c-1.23-.54-1.19-1.54-.85-2.66.56-1.83,2.11-2.74,3.34-2.2s.39,1.39-.57,2.57C393.52,504,393.57,505.89,392.35,505.36Z"/><path class="cls-30" d="M376.85,92.54A18.81,18.81,0,1,0,358,111.35,18.81,18.81,0,0,0,376.85,92.54Z"/><path class="cls-25" d="M354.19,92a11.17,11.17,0,0,1,5.05-2.31l3.21-.42c1.59-.22,2.37-1.41,1.75-2.65L363,84.07a7.43,7.43,0,0,1-.32-4.83l.89-2.87c.44-1.41-.49-2.33-2.06-2l-3.21.58a9.65,9.65,0,0,1-5.25-.68l-2.66-1.35a2,2,0,0,0-3,1.39l-.73,2.89a9.62,9.62,0,0,1-2.92,4.41l-2.54,2c-1.25,1-1.16,2.31.19,2.9l2.76,1.2a7.6,7.6,0,0,1,3.45,3.41l1.08,2.61c.54,1.28,2,1.47,3.15.41Z"/><path class="cls-26" d="M360.15,79.8c-1.53-3.32-5.89-4.58-9.77-2.81s-5.77,5.89-4.26,9.22S352,90.79,355.89,89,361.66,83.12,360.15,79.8Z"/><path class="cls-27" d="M359.35,80.16c-1.35-2.94-5.22-4-8.65-2.49s-5.12,5.23-3.77,8.17,5.22,4.06,8.64,2.5S360.69,83.11,359.35,80.16Z"/><path class="cls-26" d="M354.67,82.3a1.59,1.59,0,0,0-2.13-.61,1.46,1.46,0,1,0,1.2,2.63A1.59,1.59,0,0,0,354.67,82.3Z"/><path class="cls-28" d="M348.29,84.19c-1.23-.53-1.19-1.54-.84-2.65.56-1.84,2.11-2.75,3.34-2.21s.39,1.4-.57,2.57C349.47,82.82,349.52,84.73,348.29,84.19Z"/><path class="cls-31" d="M398.51,92.12a18.58,18.58,0,1,0-18.58,18.59A18.58,18.58,0,0,0,398.51,92.12Z"/><path class="cls-32" d="M371.55,100.14a9.1,9.1,0,0,1,5.2,1l2.71,1.57a1.79,1.79,0,0,0,2.86-1.38l.48-3.12a9.41,9.41,0,0,1,2.51-4.68l2.33-2.12a1.8,1.8,0,0,0-.42-3.15l-2.8-1.41A9.32,9.32,0,0,1,380.77,83l-1.28-2.88a1.78,1.78,0,0,0-3.11-.56l-2.21,2.24a9.17,9.17,0,0,1-4.76,2.3l-3.13.34a1.8,1.8,0,0,0-1.51,2.8L366.21,90a9.3,9.3,0,0,1,.7,5.26l-.65,3.08a1.8,1.8,0,0,0,2.19,2.3Z"/><path class="cls-33" d="M383.09,92.48a7.34,7.34,0,1,0-8.55,6A7.36,7.36,0,0,0,383.09,92.48Z"/><path class="cls-34" d="M382.27,92.33a6.51,6.51,0,1,0-7.58,5.27A6.52,6.52,0,0,0,382.27,92.33Z"/><path class="cls-33" d="M377.44,91.46a1.6,1.6,0,1,0-1.86,1.29A1.6,1.6,0,0,0,377.44,91.46Z"/><path class="cls-35" d="M367.62,81.72c-.72-.79-.44-2.08.47-3.06,1.5-1.61,3.69-2.06,4.41-1.27s-.22,2.68-1.68,3.58C369.69,81.67,368.35,82.51,367.62,81.72Z"/><path class="cls-36" d="M303.06,529.22a18.58,18.58,0,1,0-18.58,18.58A18.58,18.58,0,0,0,303.06,529.22Z"/><path class="cls-32" d="M276.1,537.24a9.13,9.13,0,0,1,5.19.94l2.73,1.57a1.79,1.79,0,0,0,2.85-1.38l.48-3.11a9.37,9.37,0,0,1,2.51-4.68l2.33-2.12a1.8,1.8,0,0,0-.42-3.15l-2.8-1.42a9.26,9.26,0,0,1-3.65-3.84l-1.27-2.87a1.79,1.79,0,0,0-3.12-.57l-2.21,2.24a9.1,9.1,0,0,1-4.76,2.3l-3.13.34a1.81,1.81,0,0,0-1.5,2.81l1.44,2.8a9.31,9.31,0,0,1,.69,5.26l-.65,3.08a1.8,1.8,0,0,0,2.19,2.31Z"/><path class="cls-33" d="M287.64,529.58a7.34,7.34,0,1,0-8.54,5.94A7.36,7.36,0,0,0,287.64,529.58Z"/><path class="cls-34" d="M286.82,529.43a6.51,6.51,0,1,0-7.58,5.26A6.54,6.54,0,0,0,286.82,529.43Z"/><path class="cls-33" d="M282,528.55a1.61,1.61,0,1,0-1.87,1.3A1.62,1.62,0,0,0,282,528.55Z"/><path class="cls-35" d="M272.18,518.82c-.73-.79-.45-2.09.46-3.06,1.5-1.61,3.69-2.07,4.41-1.28s-.22,2.69-1.68,3.59C274.24,518.76,272.9,519.6,272.18,518.82Z"/><path class="cls-37" d="M367.23,68.83A19.19,19.19,0,1,0,348,88,19.19,19.19,0,0,0,367.23,68.83Z"/><path class="cls-28" d="M334.48,61.15c-1.26-.83-1.33-2.45-.33-4s2.7-2.39,4-1.56.36,2.13-.64,3.66S335.76,62,334.48,61.15Z"/><path class="cls-32" d="M347.91,74a9.47,9.47,0,0,1,5.48,0l3.07,1.09a1.86,1.86,0,0,0,2.66-1.93L359,69.91a9.51,9.51,0,0,1,1.69-5.22l2-2.58a1.86,1.86,0,0,0-1-3.13l-3.12-.92a9.49,9.49,0,0,1-4.44-3.23l-1.84-2.68a1.86,1.86,0,0,0-3.29,0l-1.84,2.68a9.46,9.46,0,0,1-4.43,3.23L339.6,59a1.86,1.86,0,0,0-1,3.13l2,2.58a9.43,9.43,0,0,1,1.69,5.22l-.09,3.25a1.86,1.86,0,0,0,2.67,1.93Z"/><path class="cls-33" d="M358.27,64.08a7.62,7.62,0,1,0-7.63,7.62A7.62,7.62,0,0,0,358.27,64.08Z"/><path class="cls-38" d="M357.4,64.08a6.75,6.75,0,1,0-6.76,6.75A6.75,6.75,0,0,0,357.4,64.08Z"/><path class="cls-33" d="M352.31,64.08a1.66,1.66,0,1,0-3.32,0,1.66,1.66,0,1,0,3.32,0Z"/><path class="cls-39" d="M247.46,56.17A18.58,18.58,0,1,0,229,74.86,18.58,18.58,0,0,0,247.46,56.17Z"/><path class="cls-32" d="M220.55,64.35a9.16,9.16,0,0,1,5.2.91l2.73,1.56a1.79,1.79,0,0,0,2.85-1.4l.46-3.12a9.33,9.33,0,0,1,2.49-4.69l2.32-2.13a1.81,1.81,0,0,0-.44-3.16l-2.81-1.39a9.34,9.34,0,0,1-3.68-3.82l-1.29-2.87a1.79,1.79,0,0,0-3.12-.55L223.07,46a9.22,9.22,0,0,1-4.76,2.33l-3.12.35a1.81,1.81,0,0,0-1.48,2.82l1.45,2.79a9.32,9.32,0,0,1,.73,5.26l-.63,3.09a1.8,1.8,0,0,0,2.2,2.29Z"/><path class="cls-33" d="M232.05,56.62a7.34,7.34,0,1,0-8.51,6A7.36,7.36,0,0,0,232.05,56.62Z"/><path class="cls-34" d="M231.22,56.48a6.5,6.5,0,1,0-7.54,5.31A6.51,6.51,0,0,0,231.22,56.48Z"/><path class="cls-33" d="M226.4,55.63a1.6,1.6,0,1,0-1.86,1.31A1.6,1.6,0,0,0,226.4,55.63Z"/><path class="cls-35" d="M216.52,46c-.73-.78-.45-2.08.45-3.06,1.49-1.62,3.68-2.08,4.4-1.3s-.21,2.68-1.66,3.59C218.58,45.89,217.24,46.73,216.52,46Z"/><path class="cls-40" d="M279.23,56a19.19,19.19,0,1,0-19.08,19.31A19.19,19.19,0,0,0,279.23,56Z"/><path class="cls-28" d="M246.44,48.48c-1.28-.83-1.35-2.45-.36-4s2.69-2.41,4-1.58.37,2.12-.62,3.65S247.71,49.3,246.44,48.48Z"/><path class="cls-32" d="M259.93,61.25a9.51,9.51,0,0,1,5.49,0l3.08,1.07a1.85,1.85,0,0,0,2.64-1.95l-.1-3.25a9.48,9.48,0,0,1,1.66-5.23l2-2.59a1.87,1.87,0,0,0-1-3.13l-3.13-.9a9.48,9.48,0,0,1-4.46-3.2l-1.86-2.67a1.86,1.86,0,0,0-3.29,0l-1.82,2.69a9.44,9.44,0,0,1-4.42,3.26l-3.12.93a1.86,1.86,0,0,0-1,3.14l2,2.57a9.51,9.51,0,0,1,1.72,5.21l-.07,3.25a1.85,1.85,0,0,0,2.67,1.91Z"/><path class="cls-33" d="M270.24,51.27a7.62,7.62,0,1,0-7.57,7.66A7.62,7.62,0,0,0,270.24,51.27Z"/><path class="cls-38" d="M269.37,51.27a6.75,6.75,0,1,0-6.71,6.8A6.76,6.76,0,0,0,269.37,51.27Z"/><path class="cls-33" d="M264.28,51.31A1.66,1.66,0,1,0,262.63,53,1.66,1.66,0,0,0,264.28,51.31Z"/><path class="cls-41" d="M218.86,66.93a18.81,18.81,0,1,0-18.81,18.82A18.81,18.81,0,0,0,218.86,66.93Z"/><path class="cls-25" d="M196.2,66.38a11.22,11.22,0,0,1,5-2.3l3.21-.43c1.59-.21,2.38-1.4,1.76-2.65L205,58.47a7.51,7.51,0,0,1-.32-4.83l.89-2.87c.44-1.42-.49-2.34-2.06-2.05l-3.21.59a9.72,9.72,0,0,1-5.24-.69l-2.66-1.34a2,2,0,0,0-3,1.38l-.72,2.89A9.75,9.75,0,0,1,185.67,56l-2.54,2c-1.24,1-1.15,2.31.2,2.89l2.76,1.21a7.62,7.62,0,0,1,3.44,3.41l1.09,2.61c.54,1.28,1.95,1.46,3.14.4Z"/><path class="cls-26" d="M202.15,54.2c-1.52-3.33-5.89-4.59-9.76-2.82s-5.78,5.9-4.26,9.22,5.89,4.59,9.76,2.82S203.67,57.52,202.15,54.2Z"/><path class="cls-27" d="M201.35,54.56c-1.35-2.94-5.22-4.06-8.65-2.49s-5.11,5.22-3.77,8.16,5.22,4.07,8.65,2.5S202.69,57.5,201.35,54.56Z"/><path class="cls-26" d="M196.67,56.7a1.7,1.7,0,1,0-.93,2A1.57,1.57,0,0,0,196.67,56.7Z"/><path class="cls-28" d="M190.3,58.59c-1.23-.54-1.19-1.54-.85-2.65.57-1.84,2.11-2.75,3.34-2.22s.39,1.4-.57,2.58C191.48,57.22,191.52,59.12,190.3,58.59Z"/><path class="cls-42" d="M190.25,84.16a18.58,18.58,0,1,0-18.58,18.58A18.58,18.58,0,0,0,190.25,84.16Z"/><path class="cls-32" d="M163.29,92.18a9.09,9.09,0,0,1,5.2.95l2.72,1.57a1.8,1.8,0,0,0,2.86-1.38l.48-3.12a9.21,9.21,0,0,1,2.51-4.68l2.33-2.12a1.8,1.8,0,0,0-.42-3.15l-2.8-1.42A9.17,9.17,0,0,1,172.52,75l-1.28-2.88a1.79,1.79,0,0,0-3.12-.57l-2.21,2.24a9.19,9.19,0,0,1-4.76,2.31l-3.12.33a1.81,1.81,0,0,0-1.51,2.81L158,82a9.22,9.22,0,0,1,.69,5.26L158,90.39a1.79,1.79,0,0,0,2.18,2.3Z"/><path class="cls-33" d="M174.83,84.52a7.34,7.34,0,1,0-8.54,6A7.36,7.36,0,0,0,174.83,84.52Z"/><path class="cls-34" d="M174,84.37a6.5,6.5,0,1,0-7.57,5.26A6.52,6.52,0,0,0,174,84.37Z"/><path class="cls-33" d="M169.19,83.5a1.6,1.6,0,1,0-1.87,1.29A1.61,1.61,0,0,0,169.19,83.5Z"/><path class="cls-35" d="M159.37,73.76c-.72-.79-.44-2.08.46-3.06,1.51-1.61,3.7-2.06,4.42-1.27S164,72.11,162.57,73C161.43,73.71,160.09,74.54,159.37,73.76Z"/><path class="cls-43" d="M254.11,76.24a19.85,19.85,0,1,0-19.85,19.85A19.85,19.85,0,0,0,254.11,76.24Z"/><path class="cls-32" d="M225.31,84.8a9.88,9.88,0,0,1,5.55,1l2.91,1.68a1.91,1.91,0,0,0,3-1.47l.51-3.33a9.91,9.91,0,0,1,2.68-5l2.49-2.26a1.94,1.94,0,0,0-.44-3.38l-3-1.5a9.91,9.91,0,0,1-3.9-4.11l-1.36-3.07a1.91,1.91,0,0,0-3.33-.6l-2.36,2.39A9.77,9.77,0,0,1,223,67.62l-3.34.36a1.93,1.93,0,0,0-1.61,3l1.54,3a9.86,9.86,0,0,1,.74,5.62l-.69,3.3A1.92,1.92,0,0,0,222,85.35Z"/><path class="cls-33" d="M237.64,76.62A7.84,7.84,0,1,0,228.51,83,7.86,7.86,0,0,0,237.64,76.62Z"/><path class="cls-34" d="M236.76,76.46a6.95,6.95,0,1,0-8.09,5.62A7,7,0,0,0,236.76,76.46Z"/><path class="cls-33" d="M231.61,75.53a1.71,1.71,0,1,0-2,1.38A1.72,1.72,0,0,0,231.61,75.53Z"/><path class="cls-35" d="M221.11,65.12c-.77-.84-.46-2.22.5-3.27,1.61-1.72,3.94-2.2,4.72-1.36s-.24,2.87-1.8,3.83C223.32,65.07,221.89,66,221.11,65.12Z"/><path class="cls-44" d="M222.6,95.11a19.19,19.19,0,1,0-19.19,19.19A19.19,19.19,0,0,0,222.6,95.11Z"/><path class="cls-28" d="M189.86,87.42c-1.28-.83-1.34-2.45-.34-4s2.7-2.4,4-1.57.36,2.14-.65,3.66S191.13,88.26,189.86,87.42Z"/><path class="cls-32" d="M203.28,100.28a9.47,9.47,0,0,1,5.48,0l3.07,1.09a1.87,1.87,0,0,0,2.66-1.94l-.09-3.25A9.64,9.64,0,0,1,216.09,91l2-2.58a1.86,1.86,0,0,0-1-3.13l-3.12-.92a9.54,9.54,0,0,1-4.44-3.22l-1.84-2.69a1.86,1.86,0,0,0-3.29,0l-1.84,2.69a9.51,9.51,0,0,1-4.43,3.22l-3.13.92a1.87,1.87,0,0,0-1,3.13l2,2.58a9.57,9.57,0,0,1,1.7,5.22l-.09,3.25a1.86,1.86,0,0,0,2.66,1.94Z"/><path class="cls-33" d="M213.64,90.36A7.62,7.62,0,1,0,206,98,7.62,7.62,0,0,0,213.64,90.36Z"/><path class="cls-38" d="M212.77,90.36A6.75,6.75,0,1,0,206,97.11,6.75,6.75,0,0,0,212.77,90.36Z"/><path class="cls-33" d="M207.68,90.36A1.66,1.66,0,1,0,206,92,1.66,1.66,0,0,0,207.68,90.36Z"/><path class="cls-45" d="M311.9,53.92a19.54,19.54,0,1,0-19.54,19.54A19.54,19.54,0,0,0,311.9,53.92Z"/><path class="cls-32" d="M283.55,62.35a9.65,9.65,0,0,1,5.46,1L291.87,65a1.89,1.89,0,0,0,3-1.46l.5-3.27A9.8,9.8,0,0,1,298,55.35l2.45-2.23A1.9,1.9,0,0,0,300,49.8l-2.94-1.48a9.59,9.59,0,0,1-3.84-4l-1.34-3a1.88,1.88,0,0,0-3.28-.6L286.31,43a9.63,9.63,0,0,1-5,2.43L278,45.8a1.89,1.89,0,0,0-1.58,2.94l1.51,2.95a9.75,9.75,0,0,1,.73,5.54L278,60.47a1.89,1.89,0,0,0,2.3,2.42Z"/><path class="cls-33" d="M295.68,54.3a7.72,7.72,0,1,0-9,6.25A7.73,7.73,0,0,0,295.68,54.3Z"/><path class="cls-34" d="M294.81,54.14a6.84,6.84,0,1,0-8,5.54A6.85,6.85,0,0,0,294.81,54.14Z"/><path class="cls-33" d="M289.75,53.22a1.69,1.69,0,1,0-2,1.36A1.69,1.69,0,0,0,289.75,53.22Z"/><path class="cls-35" d="M279.42,43c-.76-.83-.46-2.19.49-3.22,1.58-1.69,3.88-2.17,4.64-1.34s-.24,2.82-1.77,3.77C281.59,42.93,280.18,43.81,279.42,43Z"/><path class="cls-46" d="M340.89,63.5A20.39,20.39,0,1,0,320.5,83.89,20.39,20.39,0,0,0,340.89,63.5Z"/><path class="cls-28" d="M306.09,55.34c-1.35-.88-1.41-2.6-.36-4.22s2.88-2.55,4.22-1.66.38,2.26-.68,3.88S307.44,56.23,306.09,55.34Z"/><path class="cls-32" d="M320.35,69a10.15,10.15,0,0,1,5.83,0l3.26,1.16a2,2,0,0,0,2.83-2.05l-.1-3.45A10.1,10.1,0,0,1,334,59.1l2.11-2.74A2,2,0,0,0,335,53l-3.32-1A10.09,10.09,0,0,1,327,48.63l-2-2.86a2,2,0,0,0-3.49,0l-2,2.86a10.09,10.09,0,0,1-4.71,3.43l-3.32,1a2,2,0,0,0-1.08,3.33l2.11,2.74a10.18,10.18,0,0,1,1.8,5.55l-.1,3.45a2,2,0,0,0,2.83,2.05Z"/><path class="cls-33" d="M331.36,58.46a8.1,8.1,0,1,0-8.1,8.09A8.09,8.09,0,0,0,331.36,58.46Z"/><path class="cls-38" d="M330.44,58.46a7.17,7.17,0,1,0-7.18,7.17A7.18,7.18,0,0,0,330.44,58.46Z"/><path class="cls-33" d="M325,58.46a1.77,1.77,0,1,0-1.77,1.76A1.77,1.77,0,0,0,325,58.46Z"/><path class="cls-47" d="M308.55,79.36a18.81,18.81,0,1,0-18.81,18.81A18.81,18.81,0,0,0,308.55,79.36Z"/><path class="cls-25" d="M285.89,78.8a11.22,11.22,0,0,1,5-2.3l3.22-.42c1.58-.22,2.37-1.41,1.75-2.65l-1.26-2.54a7.57,7.57,0,0,1-.32-4.83l.89-2.87c.44-1.42-.48-2.33-2-2l-3.21.58a9.66,9.66,0,0,1-5.25-.68L282,59.7a2,2,0,0,0-3,1.39L278.29,64a9.75,9.75,0,0,1-2.92,4.41l-2.54,2c-1.25,1-1.16,2.31.19,2.9l2.76,1.2a7.62,7.62,0,0,1,3.44,3.41l1.1,2.61c.53,1.28,1.95,1.47,3.14.41Z"/><path class="cls-26" d="M291.84,66.62C290.33,63.3,286,62,282.09,63.8s-5.78,5.9-4.27,9.22,5.9,4.59,9.76,2.82S293.36,69.94,291.84,66.62Z"/><path class="cls-27" d="M291,67c-1.34-2.94-5.21-4.05-8.64-2.49s-5.12,5.22-3.77,8.17,5.21,4.06,8.64,2.49S292.39,69.92,291,67Z"/><path class="cls-26" d="M286.36,69.12a1.7,1.7,0,1,0-.92,2A1.57,1.57,0,0,0,286.36,69.12Z"/><path class="cls-28" d="M280,71c-1.23-.53-1.19-1.54-.84-2.65.56-1.84,2.11-2.75,3.34-2.21s.38,1.4-.57,2.57C281.17,69.64,281.22,71.55,280,71Z"/><path class="cls-48" d="M278.37,80.72a18.81,18.81,0,1,0-18.81,18.81A18.8,18.8,0,0,0,278.37,80.72Z"/><path class="cls-25" d="M255.71,80.17a11.31,11.31,0,0,1,5-2.3l3.21-.43c1.59-.21,2.37-1.41,1.76-2.65l-1.26-2.53a7.51,7.51,0,0,1-.33-4.83l.9-2.88c.44-1.41-.49-2.33-2.06-2l-3.21.59a9.76,9.76,0,0,1-5.25-.69l-2.66-1.34a2,2,0,0,0-3,1.38l-.72,2.89a9.78,9.78,0,0,1-2.92,4.42l-2.54,2c-1.25,1-1.16,2.3.19,2.89l2.76,1.2A7.5,7.5,0,0,1,249,79.31l1.1,2.6c.53,1.29,2,1.47,3.14.41Z"/><path class="cls-26" d="M261.67,68c-1.52-3.32-5.89-4.58-9.77-2.81s-5.77,5.9-4.25,9.22,5.88,4.59,9.75,2.82S263.18,71.31,261.67,68Z"/><path class="cls-27" d="M260.86,68.34c-1.34-2.93-5.21-4-8.64-2.49s-5.12,5.23-3.77,8.17,5.21,4.06,8.64,2.5S262.21,71.29,260.86,68.34Z"/><path class="cls-26" d="M256.18,70.49a1.7,1.7,0,0,0-3.05,1.4,1.7,1.7,0,0,0,3.05-1.4Z"/><path class="cls-28" d="M249.81,72.37c-1.23-.53-1.19-1.53-.84-2.65.56-1.83,2.11-2.75,3.34-2.21s.39,1.4-.57,2.57C251,71,251,72.91,249.81,72.37Z"/><path class="cls-49" d="M281.29,102.43A18.58,18.58,0,1,0,262.71,121,18.58,18.58,0,0,0,281.29,102.43Z"/><path class="cls-32" d="M254.33,110.44a9.17,9.17,0,0,1,5.2,1l2.72,1.57a1.8,1.8,0,0,0,2.86-1.38l.48-3.12a9.25,9.25,0,0,1,2.51-4.68l2.33-2.11a1.81,1.81,0,0,0-.42-3.16l-2.8-1.41a9.19,9.19,0,0,1-3.65-3.84l-1.28-2.88a1.78,1.78,0,0,0-3.11-.56L257,92.06a9.13,9.13,0,0,1-4.76,2.3l-3.12.34a1.81,1.81,0,0,0-1.51,2.8l1.44,2.81a9.3,9.3,0,0,1,.7,5.26l-.65,3.08a1.79,1.79,0,0,0,2.19,2.3Z"/><path class="cls-33" d="M265.88,102.78a7.34,7.34,0,1,0-8.55,6A7.38,7.38,0,0,0,265.88,102.78Z"/><path class="cls-34" d="M265.05,102.63a6.5,6.5,0,1,0-7.57,5.27A6.51,6.51,0,0,0,265.05,102.63Z"/><path class="cls-33" d="M260.23,101.76a1.6,1.6,0,1,0-1.86,1.3A1.6,1.6,0,0,0,260.23,101.76Z"/><path class="cls-35" d="M250.41,92c-.72-.78-.44-2.08.47-3.06,1.5-1.61,3.68-2.06,4.41-1.27s-.23,2.68-1.68,3.58C252.47,92,251.13,92.81,250.41,92Z"/><path class="cls-50" d="M343.8,88.66A19.85,19.85,0,1,0,324,108.51,19.85,19.85,0,0,0,343.8,88.66Z"/><path class="cls-32" d="M315,97.23a9.68,9.68,0,0,1,5.55,1l2.91,1.67a1.91,1.91,0,0,0,3.05-1.47l.51-3.33a10,10,0,0,1,2.68-5l2.5-2.26a1.93,1.93,0,0,0-.45-3.37l-3-1.51a9.82,9.82,0,0,1-3.9-4.1l-1.37-3.07a1.91,1.91,0,0,0-3.33-.61l-2.36,2.39A9.74,9.74,0,0,1,312.71,80l-3.33.37a1.92,1.92,0,0,0-1.61,3l1.53,3A9.86,9.86,0,0,1,310,92l-.68,3.29a1.91,1.91,0,0,0,2.33,2.46Z"/><path class="cls-33" d="M327.33,89a7.84,7.84,0,1,0-9.12,6.35A7.85,7.85,0,0,0,327.33,89Z"/><path class="cls-34" d="M326.45,88.88a6.95,6.95,0,1,0-8.09,5.63A7,7,0,0,0,326.45,88.88Z"/><path class="cls-33" d="M321.3,88a1.71,1.71,0,1,0-2,1.38A1.73,1.73,0,0,0,321.3,88Z"/><path class="cls-35" d="M310.81,77.54c-.77-.84-.47-2.22.5-3.26,1.6-1.72,3.94-2.21,4.71-1.37s-.24,2.88-1.79,3.83C313,77.49,311.58,78.39,310.81,77.54Z"/><path class="cls-51" d="M313.2,108.43A19.2,19.2,0,1,0,294,127.62,19.19,19.19,0,0,0,313.2,108.43Z"/><path class="cls-28" d="M280.44,100.75c-1.27-.84-1.33-2.45-.33-4s2.71-2.4,4-1.56.36,2.13-.65,3.65S281.71,101.58,280.44,100.75Z"/><path class="cls-32" d="M293.86,113.6a9.5,9.5,0,0,1,5.49,0l3.07,1.09a1.86,1.86,0,0,0,2.66-1.94L305,109.5a9.55,9.55,0,0,1,1.68-5.22l2-2.58a1.87,1.87,0,0,0-1-3.13l-3.13-.92a9.51,9.51,0,0,1-4.43-3.22l-1.85-2.69a1.85,1.85,0,0,0-3.28,0l-1.84,2.69a9.59,9.59,0,0,1-4.44,3.22l-3.13.92a1.87,1.87,0,0,0-1,3.13l2,2.58a9.64,9.64,0,0,1,1.69,5.22l-.09,3.25a1.86,1.86,0,0,0,2.66,1.94Z"/><path class="cls-33" d="M304.23,103.68a7.62,7.62,0,1,0-7.62,7.62A7.62,7.62,0,0,0,304.23,103.68Z"/><path class="cls-38" d="M303.36,103.68a6.75,6.75,0,1,0-6.75,6.75A6.75,6.75,0,0,0,303.36,103.68Z"/><path class="cls-33" d="M298.27,103.68a1.66,1.66,0,1,0-1.66,1.66A1.66,1.66,0,0,0,298.27,103.68Z"/><path class="cls-52" d="M353.56,105.66A18.58,18.58,0,1,0,335,124.24,18.58,18.58,0,0,0,353.56,105.66Z"/><path class="cls-32" d="M326.6,113.67a9.17,9.17,0,0,1,5.2,1l2.72,1.57a1.8,1.8,0,0,0,2.86-1.38l.47-3.11a9.34,9.34,0,0,1,2.52-4.69l2.33-2.11a1.81,1.81,0,0,0-.42-3.16l-2.8-1.41a9.19,9.19,0,0,1-3.65-3.84l-1.28-2.88a1.79,1.79,0,0,0-3.12-.56l-2.21,2.23a9.1,9.1,0,0,1-4.77,2.31l-3.12.34a1.8,1.8,0,0,0-1.5,2.8l1.44,2.81a9.22,9.22,0,0,1,.69,5.26l-.64,3.08a1.79,1.79,0,0,0,2.18,2.31Z"/><path class="cls-33" d="M338.14,106A7.34,7.34,0,1,0,329.6,112,7.35,7.35,0,0,0,338.14,106Z"/><path class="cls-34" d="M337.31,105.86a6.5,6.5,0,1,0-7.56,5.27A6.51,6.51,0,0,0,337.31,105.86Z"/><path class="cls-33" d="M332.49,105a1.6,1.6,0,1,0-1.86,1.29A1.6,1.6,0,0,0,332.49,105Z"/><path class="cls-35" d="M322.68,95.25c-.72-.78-.44-2.08.46-3.06,1.5-1.61,3.69-2.06,4.42-1.27s-.23,2.68-1.69,3.58C324.74,95.2,323.4,96,322.68,95.25Z"/><path class="cls-53" d="M256.44,104.73a19.19,19.19,0,1,0-19.19,19.19A19.19,19.19,0,0,0,256.44,104.73Z"/><path class="cls-28" d="M223.69,97.05c-1.27-.83-1.33-2.45-.33-4s2.7-2.4,4-1.56.35,2.13-.65,3.65S225,97.89,223.69,97.05Z"/><path class="cls-32" d="M237.11,109.91a9.34,9.34,0,0,1,5.49,0l3.06,1.08a1.86,1.86,0,0,0,2.67-1.93l-.09-3.25a9.56,9.56,0,0,1,1.69-5.22l2-2.58a1.86,1.86,0,0,0-1-3.13L247.78,94a9.49,9.49,0,0,1-4.44-3.23l-1.84-2.68a1.86,1.86,0,0,0-3.29,0l-1.84,2.68A9.44,9.44,0,0,1,231.93,94l-3.12.92a1.86,1.86,0,0,0-1,3.13l2,2.58a9.48,9.48,0,0,1,1.69,5.22l-.09,3.25A1.86,1.86,0,0,0,234,111Z"/><path class="cls-33" d="M247.48,100a7.62,7.62,0,1,0-7.62,7.61A7.62,7.62,0,0,0,247.48,100Z"/><path class="cls-38" d="M246.61,100a6.75,6.75,0,1,0-6.75,6.75A6.75,6.75,0,0,0,246.61,100Z"/><path class="cls-33" d="M241.52,100a1.66,1.66,0,1,0-1.66,1.66A1.67,1.67,0,0,0,241.52,100Z"/><path class="cls-54" d="M308,53.84c6.3-2.05,12.18-11.37,15.49-17.56a6.23,6.23,0,0,0-2.79-8.57c-6.32-3.06-16.55-7.14-22.84-5.1-9.61,3.12-17.15,22.83-17.15,22.83S298.42,57,308,53.84Z"/><path class="cls-55" d="M281.18,74c3.89,5.35,14.57,8.06,21.47,9.3A6.25,6.25,0,0,0,310,78c1-6.94,1.68-17.94-2.21-23.29-5.93-8.17-27-9.26-27-9.26S275.24,65.83,281.18,74Z"/><path class="cls-56" d="M253.71,54.7c-3.89,5.35-3.17,16.35-2.21,23.29a6.25,6.25,0,0,0,7.3,5.31c6.9-1.24,17.58-4,21.48-9.3,5.93-8.17.45-28.56.45-28.56S259.65,46.53,253.71,54.7Z"/><path class="cls-57" d="M263.58,22.61c-6.3-2-16.53,2-22.84,5.1A6.23,6.23,0,0,0,238,36.28c3.31,6.19,9.19,15.51,15.48,17.56,9.61,3.12,27.3-8.4,27.3-8.4S273.18,25.73,263.58,22.61Z"/><path class="cls-58" d="M297.14,22.07c0-6.61-7-15.08-11.9-20.14a6.24,6.24,0,0,0-9,0C271.36,7,264.31,15.46,264.31,22.07c0,10.11,16.42,23.37,16.42,23.37S297.14,32.18,297.14,22.07Z"/><path class="cls-59" d="M296.22,44.24a15.49,15.49,0,1,0-15.49,15.49A15.49,15.49,0,0,0,296.22,44.24Z"/><path class="cls-60" d="M292.25,44.24a11.52,11.52,0,1,0-11.52,11.52A11.52,11.52,0,0,0,292.25,44.24Z"/><path class="cls-61" d="M178.06,280.11c5.2-1.7,10.07-9.42,12.81-14.54a5.16,5.16,0,0,0-2.31-7.1c-5.22-2.53-13.69-5.91-18.91-4.22-8,2.59-14.2,18.91-14.2,18.91S170.1,282.69,178.06,280.11Z"/><path class="cls-62" d="M155.83,296.8c3.22,4.43,12.06,6.68,17.78,7.7a5.16,5.16,0,0,0,6-4.39c.8-5.75,1.39-14.86-1.83-19.29-4.91-6.77-22.37-7.66-22.37-7.66S150.91,290,155.83,296.8Z"/><path class="cls-63" d="M133.08,280.82c-3.21,4.43-2.62,13.54-1.82,19.29a5.16,5.16,0,0,0,6,4.39c5.72-1,14.56-3.27,17.78-7.7,4.92-6.77.37-23.64.37-23.64S138,274.05,133.08,280.82Z"/><path class="cls-64" d="M141.25,254.25c-5.2-1.69-13.68,1.69-18.91,4.22a5.17,5.17,0,0,0-2.31,7.1c2.74,5.12,7.61,12.84,12.82,14.54,8,2.58,22.6-6.95,22.6-6.95S149.21,256.84,141.25,254.25Z"/><path class="cls-65" d="M169.05,253.81c0-5.48-5.84-12.49-9.86-16.68a5.17,5.17,0,0,0-7.47,0c-4,4.19-9.86,11.2-9.86,16.68,0,8.36,13.59,19.35,13.59,19.35S169.05,262.17,169.05,253.81Z"/><path class="cls-59" d="M168.28,272.16A12.83,12.83,0,1,0,155.45,285,12.83,12.83,0,0,0,168.28,272.16Z"/><path class="cls-60" d="M165,272.16a9.54,9.54,0,1,0-9.54,9.54A9.54,9.54,0,0,0,165,272.16Z"/><path class="cls-66" d="M122.14,490.1c5.22-1.69,10.08-9.41,12.82-14.53a5.17,5.17,0,0,0-2.3-7.1c-5.23-2.53-13.71-5.92-18.91-4.22-8,2.58-14.2,18.91-14.2,18.91S114.19,492.69,122.14,490.1Z"/><path class="cls-67" d="M99.92,506.8c3.22,4.43,12.06,6.67,17.78,7.7a5.16,5.16,0,0,0,6-4.39c.8-5.76,1.39-14.86-1.83-19.29-4.91-6.77-22.36-7.66-22.36-7.66S95,500,99.92,506.8Z"/><path class="cls-68" d="M77.18,490.82c-3.22,4.43-2.63,13.53-1.83,19.29a5.16,5.16,0,0,0,6,4.39c5.71-1,14.56-3.27,17.78-7.7,4.91-6.77.38-23.64.38-23.64S82.09,484.05,77.18,490.82Z"/><path class="cls-69" d="M85.35,464.25c-5.22-1.7-13.69,1.69-18.91,4.22a5.16,5.16,0,0,0-2.31,7.1c2.73,5.12,7.61,12.84,12.81,14.53,8,2.59,22.61-6.94,22.61-6.94S93.3,466.83,85.35,464.25Z"/><path class="cls-70" d="M113.14,463.81c0-5.48-5.84-12.5-9.86-16.68a5.17,5.17,0,0,0-7.47,0c-4,4.18-9.86,11.2-9.86,16.68,0,8.36,13.6,19.35,13.6,19.35S113.14,472.17,113.14,463.81Z"/><path class="cls-59" d="M112.37,482.16A12.83,12.83,0,1,0,99.55,495,12.82,12.82,0,0,0,112.37,482.16Z"/><path class="cls-60" d="M109.08,482.16a9.54,9.54,0,1,0-9.53,9.54A9.54,9.54,0,0,0,109.08,482.16Z"/><path class="cls-71" d="M471.94,490.1c5.21-1.69,10.08-9.41,12.82-14.53a5.16,5.16,0,0,0-2.3-7.1c-5.23-2.53-13.7-5.92-18.92-4.22-8,2.58-14.2,18.91-14.2,18.91S464,492.69,471.94,490.1Z"/><path class="cls-72" d="M449.72,506.8c3.22,4.43,12.07,6.67,17.78,7.7a5.16,5.16,0,0,0,6-4.39c.8-5.76,1.39-14.86-1.83-19.29-4.91-6.77-22.37-7.66-22.37-7.66S444.81,500,449.72,506.8Z"/><path class="cls-73" d="M427,490.82c-3.22,4.43-2.63,13.53-1.83,19.29a5.16,5.16,0,0,0,6,4.39c5.71-1,14.56-3.27,17.78-7.7,4.91-6.77.37-23.64.37-23.64S431.89,484.05,427,490.82Z"/><path class="cls-74" d="M435.15,464.25c-5.22-1.7-13.69,1.69-18.92,4.22a5.16,5.16,0,0,0-2.3,7.1c2.74,5.12,7.6,12.84,12.82,14.53,7.95,2.59,22.59-6.94,22.59-6.94S443.09,466.83,435.15,464.25Z"/><path class="cls-75" d="M462.94,463.81c0-5.48-5.84-12.5-9.87-16.68a5.15,5.15,0,0,0-7.46,0c-4,4.18-9.86,11.2-9.86,16.68,0,8.36,13.59,19.35,13.59,19.35S462.94,472.17,462.94,463.81Z"/><path class="cls-59" d="M462.17,482.16A12.83,12.83,0,1,0,449.34,495,12.82,12.82,0,0,0,462.17,482.16Z"/><path class="cls-60" d="M458.89,482.16a9.55,9.55,0,1,0-9.55,9.54A9.55,9.55,0,0,0,458.89,482.16Z"/><path class="cls-76" d="M240.74,523.65c5.21-1.7,10.08-9.41,12.82-14.54a5.16,5.16,0,0,0-2.31-7.1c-5.22-2.53-13.7-5.91-18.91-4.22-8,2.58-14.2,18.91-14.2,18.91S232.79,526.23,240.74,523.65Z"/><path class="cls-77" d="M218.51,540.34c3.23,4.43,12.07,6.68,17.79,7.7a5.17,5.17,0,0,0,6-4.39c.79-5.75,1.39-14.86-1.83-19.29-4.91-6.76-22.37-7.66-22.37-7.66S213.6,533.57,218.51,540.34Z"/><path class="cls-78" d="M195.77,524.36c-3.22,4.43-2.62,13.54-1.83,19.29a5.17,5.17,0,0,0,6,4.39c5.72-1,14.56-3.27,17.79-7.7,4.91-6.77.37-23.64.37-23.64S200.69,517.6,195.77,524.36Z"/><path class="cls-79" d="M203.94,497.79c-5.21-1.69-13.69,1.69-18.91,4.22a5.16,5.16,0,0,0-2.31,7.1c2.74,5.13,7.61,12.84,12.82,14.54,8,2.58,22.6-6.95,22.6-6.95S211.9,500.37,203.94,497.79Z"/><path class="cls-80" d="M231.73,497.35c0-5.48-5.83-12.5-9.85-16.68a5.17,5.17,0,0,0-7.47,0c-4,4.18-9.86,11.2-9.86,16.68,0,8.36,13.59,19.35,13.59,19.35S231.73,505.71,231.73,497.35Z"/><path class="cls-59" d="M231,515.7a12.83,12.83,0,1,0-12.83,12.82A12.83,12.83,0,0,0,231,515.7Z"/><path class="cls-60" d="M227.68,515.7a9.54,9.54,0,1,0-9.54,9.54A9.54,9.54,0,0,0,227.68,515.7Z"/><path class="cls-81" d="M366.53,523.65c5.21-1.7,10.08-9.41,12.82-14.54A5.17,5.17,0,0,0,377,502c-5.23-2.53-13.71-5.91-18.91-4.22-8,2.58-14.2,18.91-14.2,18.91S358.57,526.23,366.53,523.65Z"/><path class="cls-82" d="M344.3,540.34c3.22,4.43,12.06,6.68,17.78,7.7a5.17,5.17,0,0,0,6-4.39c.79-5.75,1.39-14.86-1.82-19.29-4.92-6.76-22.37-7.66-22.37-7.66S339.38,533.57,344.3,540.34Z"/><path class="cls-83" d="M321.56,524.36c-3.23,4.43-2.63,13.54-1.83,19.29a5.16,5.16,0,0,0,6,4.39c5.72-1,14.56-3.27,17.78-7.7,4.92-6.77.38-23.64.38-23.64S326.47,517.6,321.56,524.36Z"/><path class="cls-84" d="M329.73,497.79c-5.21-1.69-13.69,1.69-18.91,4.22a5.16,5.16,0,0,0-2.31,7.1c2.74,5.13,7.61,12.84,12.81,14.54,8,2.58,22.61-6.95,22.61-6.95S337.68,500.37,329.73,497.79Z"/><path class="cls-85" d="M357.52,497.35c0-5.48-5.84-12.5-9.86-16.68a5.17,5.17,0,0,0-7.47,0c-4,4.18-9.85,11.2-9.85,16.68,0,8.36,13.59,19.35,13.59,19.35S357.52,505.71,357.52,497.35Z"/><path class="cls-59" d="M356.75,515.7a12.83,12.83,0,1,0-12.82,12.82A12.82,12.82,0,0,0,356.75,515.7Z"/><path class="cls-60" d="M353.47,515.7a9.54,9.54,0,1,0-9.54,9.54A9.54,9.54,0,0,0,353.47,515.7Z"/><path class="cls-86" d="M419.39,280.11c5.21-1.7,10.08-9.42,12.82-14.54a5.16,5.16,0,0,0-2.31-7.1c-5.22-2.53-13.7-5.91-18.91-4.22-8,2.59-14.2,18.91-14.2,18.91S411.44,282.69,419.39,280.11Z"/><path class="cls-87" d="M397.17,296.8c3.21,4.43,12.06,6.68,17.78,7.7a5.15,5.15,0,0,0,6-4.39c.8-5.75,1.4-14.86-1.82-19.29-4.92-6.77-22.37-7.66-22.37-7.66S392.25,290,397.17,296.8Z"/><path class="cls-88" d="M374.42,280.82c-3.22,4.43-2.62,13.54-1.83,19.29a5.16,5.16,0,0,0,6,4.39c5.72-1,14.56-3.27,17.79-7.7,4.91-6.77.37-23.64.37-23.64S379.34,274.05,374.42,280.82Z"/><path class="cls-89" d="M382.59,254.25c-5.21-1.69-13.69,1.69-18.91,4.22a5.16,5.16,0,0,0-2.31,7.1c2.74,5.12,7.61,12.84,12.82,14.54,7.95,2.58,22.6-6.95,22.6-6.95S390.54,256.84,382.59,254.25Z"/><path class="cls-90" d="M410.38,253.81c0-5.48-5.84-12.49-9.86-16.68a5.17,5.17,0,0,0-7.47,0c-4,4.19-9.85,11.2-9.85,16.68,0,8.36,13.59,19.35,13.59,19.35S410.38,262.17,410.38,253.81Z"/><path class="cls-59" d="M409.61,272.16A12.83,12.83,0,1,0,396.79,285,12.83,12.83,0,0,0,409.61,272.16Z"/><path class="cls-60" d="M406.33,272.16a9.54,9.54,0,1,0-9.54,9.54A9.54,9.54,0,0,0,406.33,272.16Z"/><path class="cls-91" d="M299.84,306.32c5.21-1.69,10.08-9.41,12.82-14.53a5.16,5.16,0,0,0-2.31-7.1c-5.23-2.53-13.7-5.91-18.91-4.22-7.95,2.58-14.2,18.91-14.2,18.91S291.89,308.91,299.84,306.32Z"/><path class="cls-92" d="M277.62,323c3.22,4.43,12.06,6.67,17.78,7.7a5.17,5.17,0,0,0,6-4.39c.79-5.75,1.39-14.86-1.83-19.29-4.92-6.77-22.37-7.66-22.37-7.66S272.7,316.25,277.62,323Z"/><path class="cls-93" d="M254.87,307c-3.22,4.43-2.62,13.54-1.83,19.29a5.18,5.18,0,0,0,6,4.39c5.71-1,14.55-3.27,17.77-7.7,4.92-6.77.38-23.64.38-23.64S259.79,300.27,254.87,307Z"/><path class="cls-94" d="M263,280.47c-5.21-1.69-13.68,1.69-18.91,4.22a5.16,5.16,0,0,0-2.31,7.1c2.74,5.12,7.61,12.84,12.82,14.53,7.95,2.59,22.6-6.94,22.6-6.94S271,283.05,263,280.47Z"/><path class="cls-95" d="M290.83,280c0-5.48-5.83-12.5-9.86-16.68a5.15,5.15,0,0,0-7.46,0c-4,4.18-9.86,11.2-9.86,16.68,0,8.36,13.59,19.35,13.59,19.35S290.83,288.39,290.83,280Z"/><path class="cls-59" d="M290.07,298.38a12.83,12.83,0,1,0-12.83,12.82A12.83,12.83,0,0,0,290.07,298.38Z"/><path class="cls-60" d="M286.78,298.38a9.54,9.54,0,1,0-9.54,9.54A9.54,9.54,0,0,0,286.78,298.38Z"/><path class="cls-96" d="M233.54,302.57A21.54,21.54,0,1,0,212,324.11,21.54,21.54,0,0,0,233.54,302.57Z"/><g class="cls-97"><path class="cls-98" d="M196.79,294c-1.42-.93-1.5-2.75-.38-4.46s3-2.69,4.46-1.75.4,2.39-.72,4.1S198.22,294.89,196.79,294Z"/></g><path class="cls-99" d="M211.85,308.38a10.6,10.6,0,0,1,6.16,0l3.44,1.22a2.09,2.09,0,0,0,3-2.17l-.1-3.65a10.7,10.7,0,0,1,1.9-5.86l2.23-2.89a2.1,2.1,0,0,0-1.14-3.52l-3.51-1a10.65,10.65,0,0,1-5-3.62l-2.06-3a2.09,2.09,0,0,0-3.69,0l-2.07,3a10.65,10.65,0,0,1-5,3.62l-3.51,1a2.1,2.1,0,0,0-1.14,3.52l2.24,2.89a10.77,10.77,0,0,1,1.89,5.86l-.1,3.65a2.09,2.09,0,0,0,3,2.17Z"/><circle class="cls-100" cx="214.93" cy="297.24" r="8.55"/><path class="cls-101" d="M222.5,297.24a7.57,7.57,0,1,0-7.57,7.58A7.57,7.57,0,0,0,222.5,297.24Z"/><path class="cls-100" d="M216.79,297.24a1.86,1.86,0,1,0-1.86,1.87A1.86,1.86,0,0,0,216.79,297.24Z"/><path class="cls-102" d="M178.73,512.1a21.54,21.54,0,1,0-21.54,21.53A21.54,21.54,0,0,0,178.73,512.1Z"/><g class="cls-97"><path class="cls-98" d="M142,503.48c-1.43-.93-1.5-2.75-.37-4.47s3-2.68,4.45-1.75.4,2.39-.73,4.1S143.4,504.41,142,503.48Z"/></g><path class="cls-99" d="M157,517.9a10.77,10.77,0,0,1,6.16,0l3.45,1.22a2.08,2.08,0,0,0,3-2.16l-.1-3.65a10.75,10.75,0,0,1,1.9-5.86l2.23-2.9a2.09,2.09,0,0,0-1.14-3.51L169,500a10.79,10.79,0,0,1-5-3.62l-2.06-3a2.09,2.09,0,0,0-3.69,0l-2.07,3a10.74,10.74,0,0,1-5,3.62l-3.51,1a2.09,2.09,0,0,0-1.14,3.51l2.24,2.9a10.74,10.74,0,0,1,1.89,5.86l-.1,3.65a2.08,2.08,0,0,0,3,2.16Z"/><path class="cls-100" d="M168.66,506.77a8.55,8.55,0,1,0-8.55,8.55A8.55,8.55,0,0,0,168.66,506.77Z"/><path class="cls-101" d="M167.69,506.77a7.58,7.58,0,1,0-7.58,7.57A7.58,7.58,0,0,0,167.69,506.77Z"/><path class="cls-100" d="M162,506.77a1.87,1.87,0,1,0-1.87,1.87A1.87,1.87,0,0,0,162,506.77Z"/><path class="cls-103" d="M365.62,303.47A21.54,21.54,0,1,0,344.08,325,21.54,21.54,0,0,0,365.62,303.47Z"/><g class="cls-97"><path class="cls-98" d="M328.86,294.85c-1.42-.93-1.5-2.75-.37-4.46s3-2.69,4.45-1.75.4,2.39-.72,4.09S330.29,295.79,328.86,294.85Z"/></g><path class="cls-99" d="M343.93,309.28a10.56,10.56,0,0,1,6.15,0l3.45,1.22a2.08,2.08,0,0,0,3-2.17l-.1-3.65a10.78,10.78,0,0,1,1.9-5.86l2.23-2.9a2.09,2.09,0,0,0-1.14-3.51l-3.51-1a10.69,10.69,0,0,1-5-3.62l-2.07-3a2.09,2.09,0,0,0-3.69,0l-2.07,3a10.72,10.72,0,0,1-5,3.62l-3.5,1a2.08,2.08,0,0,0-1.14,3.51l2.23,2.9a10.86,10.86,0,0,1,1.9,5.86l-.1,3.65a2.08,2.08,0,0,0,3,2.17Z"/><path class="cls-100" d="M355.56,298.14a8.56,8.56,0,1,0-8.56,8.55A8.55,8.55,0,0,0,355.56,298.14Z"/><path class="cls-101" d="M354.57,298.14a7.57,7.57,0,1,0-7.57,7.58A7.57,7.57,0,0,0,354.57,298.14Z"/><path class="cls-100" d="M348.87,298.14A1.87,1.87,0,1,0,347,300,1.87,1.87,0,0,0,348.87,298.14Z"/></g></g></svg>