<svg xmlns="http://www.w3.org/2000/svg" xmlns:xlink="http://www.w3.org/1999/xlink" viewBox="0 0 325.84 352.65"><defs><style>.cls-1{fill:#cf9856;}.cls-2{fill:#e0a65f;}.cls-3{fill:#b88750;}.cls-4{fill:#d49b5b;}.cls-5{fill:url(#linear-gradient);}.cls-6{fill:#f0d6b9;}.cls-7{fill:url(#linear-gradient-2);}.cls-8{fill:#b88050;opacity:0.5;}.cls-9{fill:#a87340;opacity:0.2;}.cls-10{fill:#fcefe1;}.cls-11{fill:#d19f7b;}.cls-12{fill:#b66228;}.cls-13{fill:#d6bc89;}.cls-14{fill:#c7a35f;}.cls-15{fill:#a85b25;}.cls-16{fill:url(#linear-gradient-3);}.cls-17{fill:url(#linear-gradient-4);}.cls-18{fill:#944429;}.cls-19{fill:url(#radial-gradient);}.cls-20{fill:#ffeee2;}.cls-21{fill:#cc6e2e;}</style><linearGradient id="linear-gradient" y1="306.91" x2="325.84" y2="306.91" gradientUnits="userSpaceOnUse"><stop offset="0.31" stop-color="#fcefe1"/><stop offset="0.73" stop-color="#f4dcc1"/></linearGradient><linearGradient id="linear-gradient-2" y1="190.51" x2="325.84" y2="190.51" xlink:href="#linear-gradient"/><linearGradient id="linear-gradient-3" x1="74.48" y1="139.26" x2="211.64" y2="139.26" gradientUnits="userSpaceOnUse"><stop offset="0.33" stop-color="#914e29"/><stop offset="0.76" stop-color="#a85b25"/></linearGradient><linearGradient id="linear-gradient-4" x1="114.98" y1="432.61" x2="317.53" y2="432.61" gradientTransform="translate(78.07 -394.85) rotate(21.44)" gradientUnits="userSpaceOnUse"><stop offset="0.04" stop-color="#542718"/><stop offset="0.66" stop-color="#823e24"/></linearGradient><radialGradient id="radial-gradient" cx="123.92" cy="88.08" r="38.69" gradientUnits="userSpaceOnUse"><stop offset="0.38" stop-color="#ff8912"/><stop offset="0.52" stop-color="#f87f10"/><stop offset="0.76" stop-color="#e6650a"/><stop offset="1" stop-color="#cf4403"/></radialGradient></defs><g id="Layer_2" data-name="Layer 2"><g id="Layer_1-2" data-name="Layer 1"><path class="cls-1" d="M219.24,241.17c-42.94-6.78-80,1.43-122.73,1.74-31.74.21-54.57-13.66-82-28.09-.1,0-.17-.12-.26-.17C5.17,210.19.06,205.26,0,200.07H0v61.09H0c.06,6.35,7.61,12.31,20.81,17.47,20,7.84,41.9,9.49,63.2,6.55,8.92-1.24,17.81-2.07,26.51-1.41,13.21,1,26.14,4.21,39,7.47a168.83,168.83,0,0,0,50,4.79l3.73-.2a171.25,171.25,0,0,0,48.39-9.95c14.18-5.09,28.21-9.42,42.75-8.36,8.08.59,16.33-.65,23.09-5.11,5.36-3.54,8.28-7.32,8.32-11.25h0V206.34C302.58,237.94,256.57,247.05,219.24,241.17Z"/><path class="cls-2" d="M204.77,292.44a25.65,25.65,0,0,1,0-51.29h15.84a25.65,25.65,0,0,1,0,51.29Z"/><path class="cls-3" d="M220.61,243.42a23.38,23.38,0,1,1,0,46.75H204.77a23.38,23.38,0,0,1,0-46.75h15.84m0-4.53H204.77a27.91,27.91,0,0,0,0,55.81h15.84a27.91,27.91,0,1,0,0-55.81Z"/><path class="cls-4" d="M220.61,243.42h-4.87a23.3,23.3,0,0,1-15.5,40.77h-11a23.2,23.2,0,0,0,15.49,6h15.84a23.38,23.38,0,1,0,0-46.75Z"/><path class="cls-2" d="M113.73,288.85a25.65,25.65,0,0,1,0-51.29h15.84a25.65,25.65,0,0,1,0,51.29Z"/><path class="cls-3" d="M129.57,239.82a23.38,23.38,0,0,1,0,46.76H113.73a23.38,23.38,0,1,1,0-46.76h15.84m0-4.52H113.73a27.91,27.91,0,0,0,0,55.81h15.84a27.91,27.91,0,0,0,0-55.81Z"/><path class="cls-4" d="M129.57,239.82h-4.88a23.3,23.3,0,0,1-15.49,40.77h-11a23.16,23.16,0,0,0,15.49,6h15.84a23.38,23.38,0,1,0,0-46.76Z"/><path class="cls-2" d="M63.12,285.7a24.27,24.27,0,0,1-4.14-.35L46.8,283.27A24.47,24.47,0,0,1,26.8,255l.36-2.1a24.39,24.39,0,0,1,24.09-20.35,25.55,25.55,0,0,1,4.15.35L67.58,235a24.46,24.46,0,0,1,20,28.24l-.36,2.1A24.37,24.37,0,0,1,63.12,285.7Z"/><path class="cls-3" d="M51.25,234.73a22.09,22.09,0,0,1,3.78.32l12.18,2.08a22.32,22.32,0,0,1,18.24,25.75L85.09,265a22.32,22.32,0,0,1-22,18.55,23.15,23.15,0,0,1-3.78-.32l-12.18-2.08a22.3,22.3,0,0,1-18.23-25.75l.35-2.1a22.33,22.33,0,0,1,22-18.56m0-4.32A26.55,26.55,0,0,0,25,252.56l-.36,2.1a26.62,26.62,0,0,0,21.76,30.73l12.18,2.09a27.36,27.36,0,0,0,4.51.38,26.55,26.55,0,0,0,26.22-22.15l.36-2.1a26.65,26.65,0,0,0-21.76-30.73L55.76,230.8a26.33,26.33,0,0,0-4.51-.39Z"/><path class="cls-4" d="M68.23,237.3l-4.38-.74A24.26,24.26,0,0,1,68,254.91c-2.17,12.72-13.33,21.44-24.91,19.46l-9.84-1.68A20.11,20.11,0,0,0,46.14,281l14.21,2.43c11.59,2,22.74-6.73,24.92-19.45S79.81,239.29,68.23,237.3Z"/><path class="cls-5" d="M317.51,272.41c-6.76,4.46-15,5.7-23.09,5.11-14.54-1.06-28.57,3.27-42.75,8.36a171.25,171.25,0,0,1-48.39,9.95l-3.73.2a168.83,168.83,0,0,1-50-4.79c-12.9-3.26-25.83-6.46-39-7.47-8.7-.66-17.59.17-26.51,1.41-21.3,2.94-43.18,1.29-63.2-6.55C7.62,273.47.07,267.51,0,261.16H0v55.71H0c.19,19.77,73.05,35.78,162.91,35.78s162.71-16,162.91-35.78h0V261.16h0C325.79,265.09,322.87,268.87,317.51,272.41Z"/><path class="cls-6" d="M325.83,261.16c0,3.93-3,7.71-8.32,11.25-6.76,4.46-15,5.7-23.09,5.11-14.54-1.06-28.57,3.27-42.75,8.36a171.25,171.25,0,0,1-48.39,9.95l-3.73.2a168.83,168.83,0,0,1-50-4.79c-12.9-3.26-25.83-6.46-39-7.47-8.7-.66-17.59.17-26.51,1.41-21.3,2.94-43.18,1.29-63.2-6.55C7.62,273.47.07,267.51,0,261.16H0V269H0c.06,6.34,7.61,12.3,20.81,17.47,20,7.84,41.9,9.48,63.2,6.54,8.92-1.24,17.81-2.07,26.51-1.4,13.21,1,26.14,4.21,39,7.47a168.83,168.83,0,0,0,50,4.79l3.73-.2a171.6,171.6,0,0,0,48.39-9.95c14.18-5.1,28.21-9.41,42.75-8.36,8.08.58,16.33-.65,23.09-5.12,5.36-3.53,8.28-7.31,8.32-11.24h0v-7.79Z"/><path class="cls-7" d="M0,132v68H0a22.11,22.11,0,0,0,12.18,18.81c.09.05,29.35,27.55,79.66,30,42.64,2,84.66-15.67,127.39-7.66,60.09,11.25,85.25,2.27,106.6-34.83V132Z"/><path class="cls-6" d="M219.24,232.78c-42.73-8-84.75,9.69-127.39,7.66-50.31-2.39-79.57-29.89-79.66-29.95A22.08,22.08,0,0,1,0,191.68H0v8.39H0a22.11,22.11,0,0,0,12.18,18.81c.09.05,29.35,27.55,79.66,30,42.64,2,84.66-15.67,127.39-7.66,60.09,11.25,85.25,2.27,106.6-34.83V198C304.49,235.05,279.33,244,219.24,232.78Z"/><path class="cls-8" d="M219.24,241.17c-42.73-8-84.75,9.69-127.39,7.66-50.31-2.4-79.57-29.9-79.66-30A22.11,22.11,0,0,1,0,200.07H0v10.78H0a22.11,22.11,0,0,0,12.18,18.81c.09.05,29.35,27.55,79.66,30,42.64,2,84.66-15.67,127.39-7.66,60.09,11.26,85.25,2.27,106.6-34.83V206.34C304.49,243.44,279.33,252.42,219.24,241.17Z"/><path class="cls-2" d="M238.78,313a23.13,23.13,0,0,0-3.61,15.72A22.59,22.59,0,0,0,255.59,335l13.74-2.74a22.73,22.73,0,0,0,17.82-26.69c-.12-.55-.34-1-.49-1.58-12.46-4-24.88-5.72-36.43-.82C246.08,306,241.63,308.52,238.78,313Z"/><path class="cls-3" d="M235,325.37a18.91,18.91,0,0,0,1,6.62,24.33,24.33,0,0,0,20,4.95l13.75-2.74a24.72,24.72,0,0,0,19.38-29c0-.16-.11-.3-.14-.46-1.54-.53-3.08-1-4.62-1.46a20.26,20.26,0,0,1,.83,2.71,20.67,20.67,0,0,1-16.24,24.32L255.2,333A20.48,20.48,0,0,1,235,325.37Z"/><path class="cls-4" d="M265.16,300.13a20.09,20.09,0,0,1,1.31,4.15,20.67,20.67,0,0,1-16.24,24.32l-9.51,1.9A20.56,20.56,0,0,0,255.2,333l13.74-2.74A20.67,20.67,0,0,0,285.18,306a20.26,20.26,0,0,0-.83-2.71A65.65,65.65,0,0,0,265.16,300.13Z"/><path class="cls-9" d="M253.85,132v190.1a19.6,19.6,0,0,1-17.33,19.54,667.71,667.71,0,0,1-73.6,3.88C73.06,345.54.2,329.53,0,309.76H0v7.11H0c.19,19.77,73.05,35.78,162.91,35.78,33.71,0,64.94-2.27,90.93-6.13v0l2-.32.35-.06c42-6.46,69.49-17.17,69.61-29.3h0V132Z"/><ellipse class="cls-10" cx="162.92" cy="133.93" rx="162.92" ry="38.75"/><ellipse class="cls-9" cx="162.92" cy="139.93" rx="162.92" ry="38.75"/><ellipse class="cls-11" cx="162.92" cy="133.93" rx="162.92" ry="38.75"/><path class="cls-12" d="M317,132.14c0,20.24-69,36.64-154.1,36.64S8.82,152.38,8.82,132.14s69-36.65,154.1-36.65S317,111.9,317,132.14Z"/><path class="cls-13" d="M170.11,106.87c68.82,0,127.07,10.74,146.85,25.55,0-.1.06-.19.06-.28,0-20.24-69-36.65-154.1-36.65S8.82,111.9,8.82,132.14c0,3.87,2.57,7.6,7.25,11.1C16.7,123.13,85.39,106.87,170.11,106.87Z"/><path class="cls-14" d="M136.47,96.06c-72.48,3-127.65,18-127.65,36.08,0,3.87,2.57,7.6,7.25,11.1.54-17.36,51.87-31.83,120.4-35.47Z"/><path class="cls-12" d="M11.47,138.78c.34.43.68.87,1.08,1.29A15.71,15.71,0,0,1,11.47,138.78Z"/><path class="cls-12" d="M317,132.42c-19.78-14.81-78-25.55-146.85-25.55-84.72,0-153.41,16.26-154,36.37-.5-.37-.88-.76-1.33-1.14C33,157.49,92.35,168.78,162.92,168.78c85.1,0,154.1-16.4,154.1-36.64C317,132.23,317,132.32,317,132.42Z"/><path class="cls-15" d="M14.74,142.1c.45.38.83.77,1.33,1.14a.83.83,0,0,1,0-.15C15.67,142.76,15.14,142.44,14.74,142.1Z"/><path class="cls-15" d="M178.19,117.66c59.69,0,111.39,8.07,137,19.88a10.42,10.42,0,0,0,1.86-5.4c0,.09-.06.18-.06.28-19.78-14.81-78-25.55-146.85-25.55-84.51,0-153,16.18-154,36.22A53.72,53.72,0,0,0,26,148.85C37.12,131.2,100.9,117.66,178.19,117.66Z"/><ellipse class="cls-16" cx="143.06" cy="139.26" rx="68.58" ry="8.72"/><path class="cls-17" d="M234.79,73.69c-.94-.64-1.89-1.29-2.82-1.94a101.2,101.2,0,0,1-118,33.64A101.1,101.1,0,0,1,50.5,0C49.26.12,48,.34,46.77.5c-1,2.08-2.07,4.12-2.93,6.31A101.28,101.28,0,0,0,232.38,80.86C233.31,78.49,234.07,76.09,234.79,73.69Z"/><path class="cls-18" d="M233.65,77.09c-21,51.87-79,77.63-130.1,57.54C52.1,114.42,27.1,55.48,47.72,3,48.1,2,48.58,1.12,49,.2L46.77.5c-1,2.08-2.07,4.12-2.93,6.31A101.28,101.28,0,0,0,232.38,80.86C232.87,79.61,233.23,78.35,233.65,77.09Z"/><path class="cls-19" d="M162,98.87a32,32,0,1,0-32,32A32,32,0,0,0,162,98.87Z"/><path class="cls-20" d="M134,85.31a11,11,0,1,0-11,11A11,11,0,0,0,134,85.31Z"/><path class="cls-21" d="M244.29,123.94c-24.29-3.68-30.37.33-13.51,7.94,15.35,6.92,8.35,14.84.93,16.32-16.93,3.37-48,6.46-65.14,6.29-26.86-.27-64.69.75-92.24-7-17.64-5-22.62,1.26-4.79,6.14,50.31,13.78,101.82,13,156.33,8.24,17.26-1.52,53.31-11.09,51.51-22.77C276.45,133,264.06,126.93,244.29,123.94Z"/></g></g></svg>