<svg xmlns="http://www.w3.org/2000/svg" viewBox="0 0 233.07 157.54"><defs><style>.cls-1{fill:#fff;}.cls-2{fill:#564538;}</style></defs><g id="Layer_2" data-name="Layer 2"><g id="Layer_1-2" data-name="Layer 1"><path class="cls-1" d="M233.07,157.54H1.07V73S8.81,47.79,35.6,30.45C59.94,14.7,90.49,16.79,90.49,16.79L233.07,73Z"/><rect class="cls-2" x="1.07" y="72.54" width="232" height="85"/><rect class="cls-1" x="1.07" y="101.54" width="232" height="27"/><path class="cls-2" d="M34.92,46.19A17.73,17.73,0,1,1,13.37,33.37,17.73,17.73,0,0,1,34.92,46.19Z"/><path class="cls-2" d="M59.92,27.22A17.73,17.73,0,1,1,38.37,14.4,17.73,17.73,0,0,1,59.92,27.22Z"/><path class="cls-2" d="M87.37,13.37A17.73,17.73,0,1,1,65.82.55,17.73,17.73,0,0,1,87.37,13.37Z"/></g></g></svg>