<svg xmlns="http://www.w3.org/2000/svg" viewBox="0 0 233.05 157.49"><defs><style>.cls-1{fill:#66e2a4;}.cls-2{fill:#564538;}.cls-3{fill:#50d18d;}</style></defs><g id="Layer_2" data-name="Layer 2"><g id="Layer_1-2" data-name="Layer 1"><path class="cls-1" d="M233.05,157.49H1.05V73S8.8,47.79,35.59,30.45C59.93,14.7,90.48,16.79,90.48,16.79L233.05,73Z"/><rect class="cls-2" x="1.05" y="72.49" width="232" height="85"/><rect class="cls-1" x="1.05" y="91.49" width="232" height="16"/><rect class="cls-1" x="1.05" y="124.49" width="232" height="16"/><path class="cls-2" d="M34.92,46.19A17.73,17.73,0,1,1,13.37,33.37,17.73,17.73,0,0,1,34.92,46.19Z"/><path class="cls-2" d="M59.92,27.22A17.73,17.73,0,1,1,38.37,14.41,17.73,17.73,0,0,1,59.92,27.22Z"/><path class="cls-2" d="M87.37,13.37A17.73,17.73,0,1,1,65.81.55,17.73,17.73,0,0,1,87.37,13.37Z"/><path class="cls-3" d="M154.73,37a24,24,0,0,0-18.24,15.34A24,24,0,0,0,177.2,44.9,24,24,0,0,0,154.73,37Z"/><path class="cls-3" d="M141.76,29.89a24,24,0,0,0-4.52,23.41,24,24,0,0,0,27-31.37A24,24,0,0,0,141.76,29.89Z"/></g></g></svg>