<svg xmlns="http://www.w3.org/2000/svg" viewBox="0 0 168 192.29"><defs><style>.cls-1{fill:#66e2a4;}.cls-2{fill:#50d18d;}.cls-3{fill:#564538;}</style></defs><g id="Layer_2" data-name="Layer 2"><g id="Layer_1-2" data-name="Layer 1"><rect class="cls-1" x="6" y="37.29" width="155" height="155"/><rect class="cls-2" x="84" y="37.29" width="77" height="155"/><rect class="cls-1" y="23.29" width="168" height="44"/><rect class="cls-2" y="23.29" width="84" height="44"/><path class="cls-3" d="M70.46,18.17s40.3,23.57,52.11,17.44c9.27-4.81,9.93-31,0-34.89C109.92-4.27,70.46,18.17,70.46,18.17Z"/><path class="cls-3" d="M97.07,18.17S56.77,41.74,45,35.61C35.69,30.8,35,4.64,45,.72,57.61-4.27,97.07,18.17,97.07,18.17Z"/><polygon class="cls-3" points="69.82 80.29 62.96 67.22 48.59 72.73 73.56 13.85 88.89 19.31 69.82 80.29"/><polygon class="cls-3" points="97.71 80.29 104.57 67.22 118.94 72.73 93.97 13.85 78.64 19.31 97.71 80.29"/></g></g></svg>