<svg xmlns="http://www.w3.org/2000/svg" viewBox="0 0 157.7 244.21"><defs><style>.cls-1{fill:#f47391;}.cls-2{fill:#ffaf50;}.cls-3{fill:#564538;}.cls-4{fill:#66e2a4;}.cls-5{fill:none;}.cls-6{fill:#50d18d;}</style></defs><g id="Layer_2" data-name="Layer 2"><g id="Layer_1-2" data-name="Layer 1"><polyline class="cls-1" points="78.43 52.53 70.38 15.24 88.06 0.41"/><polyline class="cls-2" points="79.06 54.35 80.73 16.24 101.59 6.37"/><polyline class="cls-3" points="78.42 52.43 58.71 19.77 70.62 0"/><polygon class="cls-4" points="78.85 41.7 0 244.21 157.7 244.21 78.85 41.7"/><path class="cls-5" d="M7.09,231.36a24,24,0,1,1,48,0,25,25,0,0,1-3.68,12.82H133.6c0-1-.07-1.09-.07-1.59a24.06,24.06,0,0,1,14.95-22.27l-22.37-57.46a24,24,0,1,1-17.13-44L96.41,86.58A23.95,23.95,0,0,1,85.72,59.12L78.85,41.47,63,82.25a24,24,0,1,1-17.4,44.67l-6,15.41a25.27,25.27,0,0,1,2.77-.17,24,24,0,1,1-18.14,39.76L0,244.21H10.78A25.1,25.1,0,0,1,7.09,231.36Zm90.34-47.89a24,24,0,1,1-24,24A24,24,0,0,1,97.43,183.47Z"/><path class="cls-6" d="M78.85,104.81A24,24,0,0,0,63,82.25l-17.4,44.67a24,24,0,0,0,33.28-22.11Z"/><path class="cls-6" d="M89.71,142.36a24,24,0,0,0,36.4,20.5l-17.13-44A24,24,0,0,0,89.71,142.36Z"/><path class="cls-6" d="M42.35,190.13a24,24,0,0,0,0-48,25.27,25.27,0,0,0-2.77.17L24.21,181.81A23.88,23.88,0,0,0,42.35,190.13Z"/><path class="cls-6" d="M97.43,231.44a24,24,0,1,0-24-24A24,24,0,0,0,97.43,231.44Z"/><path class="cls-6" d="M31.08,207.26a24.08,24.08,0,0,0-24,24.1,25.1,25.1,0,0,0,3.69,12.85h40.6a25.09,25.09,0,0,0,3.68-12.85A24.07,24.07,0,0,0,31.08,207.26Z"/><path class="cls-6" d="M133.53,242.62c0,.5,0,.59.07,1.59h24.1l-9.22-23.74A23.9,23.9,0,0,0,133.53,242.62Z"/><path class="cls-6" d="M96.41,86.58,85.72,59.12A23.95,23.95,0,0,0,96.41,86.58Z"/></g></g></svg>