<svg xmlns="http://www.w3.org/2000/svg" viewBox="0 0 129 233.55"><defs><style>.cls-1{fill:#f47391;}.cls-2{fill:#ea5986;}.cls-3{fill:#564538;}</style></defs><g id="Layer_2" data-name="Layer 2"><g id="Layer_1-2" data-name="Layer 1"><rect class="cls-1" x="5" y="37.55" width="119" height="196"/><rect class="cls-2" x="64" y="37.55" width="60" height="196"/><rect class="cls-1" y="23.55" width="129" height="44"/><rect class="cls-2" y="23.55" width="64" height="44"/><path class="cls-3" d="M50.71,18.17S91,41.74,102.82,35.61c9.26-4.81,9.93-31,0-34.89C90.16-4.26,50.71,18.17,50.71,18.17Z"/><path class="cls-3" d="M77.32,18.17S37,41.74,25.21,35.61c-9.27-4.81-9.93-31,0-34.89C37.86-4.26,77.32,18.17,77.32,18.17Z"/><polygon class="cls-3" points="50.07 80.29 43.21 67.22 28.84 72.73 53.81 13.85 69.14 19.31 50.07 80.29"/><polygon class="cls-3" points="77.96 80.29 84.81 67.22 99.18 72.73 74.22 13.85 58.89 19.31 77.96 80.29"/></g></g></svg>