<svg xmlns="http://www.w3.org/2000/svg" viewBox="0 0 323 163.6"><defs><style>.cls-1{fill:#ffaf50;}.cls-2{fill:#f79e3c;}.cls-3{fill:#564538;}</style></defs><g id="Layer_2" data-name="Layer 2"><g id="Layer_1-2" data-name="Layer 1"><rect class="cls-1" x="7" y="48.6" width="310" height="115"/><rect class="cls-2" x="161" y="48.6" width="156" height="115"/><rect class="cls-1" y="33.6" width="323" height="49"/><rect class="cls-2" y="33.6" width="161" height="49"/><path class="cls-3" d="M143.2,24.56s54.47,31.88,70.45,23.59c12.53-6.5,13.42-41.88,0-47.17C196.54-5.77,143.2,24.56,143.2,24.56Z"/><path class="cls-3" d="M179.17,24.56s-54.48,31.88-70.45,23.59C96.19,41.65,95.3,6.27,108.72,1,125.83-5.77,179.17,24.56,179.17,24.56Z"/><polygon class="cls-3" points="142.33 108.55 133.06 90.87 113.63 98.33 147.39 18.72 168.11 26.11 142.33 108.55"/><polygon class="cls-3" points="180.04 108.55 189.31 90.87 208.73 98.33 174.98 18.72 154.25 26.11 180.04 108.55"/></g></g></svg>