<svg xmlns="http://www.w3.org/2000/svg" viewBox="0 0 356 478.11"><defs><style>.cls-1{fill:#ffaf50;}.cls-2{fill:#564538;}.cls-3{fill:#f47391;}.cls-4{fill:#66e2a4;}</style></defs><g id="Layer_2" data-name="Layer 2"><g id="Layer_1-2" data-name="Layer 1"><rect class="cls-1" x="12" y="388.11" width="333" height="90"/><rect class="cls-2" y="359.11" width="356" height="49" rx="16.32"/><rect class="cls-1" x="34" y="268.11" width="287" height="91"/><rect class="cls-2" x="23" y="253.11" width="312" height="49" rx="16.32"/><rect class="cls-1" x="57" y="180.11" width="243" height="73"/><rect class="cls-2" x="44" y="146.11" width="269" height="49" rx="16.32"/><rect class="cls-1" x="216" y="43.11" width="23" height="103"/><path class="cls-1" d="M237,15.64c0,8.63-4.41,15.64-9.86,15.64s-9.86-7-9.86-15.64S221.69,0,227.13,0,237,7,237,15.64Z"/><rect class="cls-3" x="164" y="43.11" width="25" height="103"/><path class="cls-1" d="M186.68,15.64c0,8.63-4.42,15.64-9.86,15.64s-9.86-7-9.86-15.64S171.37,0,176.82,0,186.68,7,186.68,15.64Z"/><rect class="cls-4" x="117" y="43.11" width="25" height="103"/><path class="cls-1" d="M139.08,15.64c0,8.63-4.41,15.64-9.86,15.64s-9.85-7-9.85-15.64S123.78,0,129.22,0,139.08,7,139.08,15.64Z"/><path class="cls-2" d="M140.44,194.49A13.52,13.52,0,1,1,126.92,181,13.52,13.52,0,0,1,140.44,194.49Z"/><path class="cls-2" d="M95.88,194.49A13.53,13.53,0,1,1,82.35,181,13.52,13.52,0,0,1,95.88,194.49Z"/><path class="cls-2" d="M234.27,195.85a13.53,13.53,0,1,1-13.52-13.52A13.52,13.52,0,0,1,234.27,195.85Z"/><path class="cls-2" d="M281.86,195.85a13.52,13.52,0,1,1-13.52-13.52A13.52,13.52,0,0,1,281.86,195.85Z"/><path class="cls-2" d="M189.7,195.85a13.53,13.53,0,1,1-13.52-13.52A13.52,13.52,0,0,1,189.7,195.85Z"/><path class="cls-2" d="M117.33,300.55A13.53,13.53,0,1,1,103.8,287,13.53,13.53,0,0,1,117.33,300.55Z"/><path class="cls-2" d="M72.76,300.55A13.53,13.53,0,1,1,59.23,287,13.53,13.53,0,0,1,72.76,300.55Z"/><path class="cls-2" d="M211.15,301.92a13.52,13.52,0,1,1-13.52-13.53A13.52,13.52,0,0,1,211.15,301.92Z"/><path class="cls-2" d="M258.75,301.92a13.53,13.53,0,1,1-13.53-13.53A13.53,13.53,0,0,1,258.75,301.92Z"/><path class="cls-2" d="M306.34,300.55A13.53,13.53,0,1,1,292.82,287,13.52,13.52,0,0,1,306.34,300.55Z"/><path class="cls-2" d="M166.58,301.92a13.52,13.52,0,1,1-13.52-13.53A13.52,13.52,0,0,1,166.58,301.92Z"/><path class="cls-2" d="M98.29,408a13.53,13.53,0,1,1-13.53-13.52A13.52,13.52,0,0,1,98.29,408Z"/><path class="cls-2" d="M53.72,408a13.53,13.53,0,1,1-13.53-13.52A13.52,13.52,0,0,1,53.72,408Z"/><path class="cls-2" d="M192.12,409.34a13.53,13.53,0,1,1-13.53-13.52A13.52,13.52,0,0,1,192.12,409.34Z"/><path class="cls-2" d="M239.71,409.34a13.53,13.53,0,1,1-13.52-13.52A13.52,13.52,0,0,1,239.71,409.34Z"/><circle class="cls-2" cx="273.78" cy="407.98" r="13.52"/><path class="cls-2" d="M333.54,409.34A13.53,13.53,0,1,1,320,395.82,13.52,13.52,0,0,1,333.54,409.34Z"/><path class="cls-2" d="M147.55,409.34A13.53,13.53,0,1,1,134,395.82,13.52,13.52,0,0,1,147.55,409.34Z"/></g></g></svg>