<svg xmlns="http://www.w3.org/2000/svg" viewBox="0 0 232.78 169.53"><defs><style>.cls-1{fill:#fff;}.cls-2{fill:#f47391;}.cls-3{fill:#ea5986;}.cls-4{fill:#66e2a4;}</style></defs><g id="Layer_2" data-name="Layer 2"><g id="Layer_1-2" data-name="Layer 1"><path class="cls-1" d="M232.78,168.57H159.39c-3.9,0-7.74.2-11.54.2-11.57-2.49-21.59,2.41-33,.15-2.8-.07-5.62-.35-8.83-.35H.78V84.37S8.53,59.18,35.32,41.84C59.66,26.09,90.21,28.18,90.21,28.18L232.78,84.37Z"/><path class="cls-2" d="M232.78,168.57H159.39c-3.9,0-7.74.2-11.54.2-11.57-2.49-21.59,2.41-33,.15-2.8-.07-5.62-.35-8.83-.35H.78v-85h232Z"/><rect class="cls-1" x="0.78" y="112.57" width="232" height="28"/><path class="cls-3" d="M50.07,30C50.07,18.94,59,0,70,0S90,18.94,90,30,81,43.64,70,43.64,50.07,41,50.07,30Z"/><path class="cls-3" d="M25,43.73c0-11,8.92-30,19.94-30s19.94,18.94,19.94,30S56,57.41,45,57.41,25,54.74,25,43.73Z"/><path class="cls-3" d="M0,66.26c0-11,8.93-30,19.94-30s19.94,19,19.94,30S31,79.94,19.94,79.94,0,77.27,0,66.26Z"/><path class="cls-3" d="M30.29,98.89a7.51,7.51,0,1,1-7.51-7.51A7.51,7.51,0,0,1,30.29,98.89Z"/><circle class="cls-3" cx="55.32" cy="98.89" r="7.51" transform="translate(-53.72 68.09) rotate(-45)"/><path class="cls-3" d="M96.63,98.89a7.51,7.51,0,1,1-7.51-7.51A7.51,7.51,0,0,1,96.63,98.89Z"/><path class="cls-3" d="M130.43,98.89a7.51,7.51,0,1,1-7.51-7.51A7.51,7.51,0,0,1,130.43,98.89Z"/><path class="cls-3" d="M163,98.89a7.51,7.51,0,1,1-7.51-7.51A7.51,7.51,0,0,1,163,98.89Z"/><path class="cls-3" d="M196.78,98.89a7.51,7.51,0,1,1-7.51-7.51A7.51,7.51,0,0,1,196.78,98.89Z"/><circle class="cls-3" cx="221.82" cy="98.89" r="7.51" transform="translate(74.46 291.94) rotate(-76.67)"/><path class="cls-3" d="M24,154a7.51,7.51,0,1,1-7.51-7.51A7.51,7.51,0,0,1,24,154Z"/><path class="cls-3" d="M56.58,154a7.52,7.52,0,1,1-7.52-7.51A7.52,7.52,0,0,1,56.58,154Z"/><path class="cls-3" d="M90.38,154a7.52,7.52,0,1,1-7.52-7.51A7.52,7.52,0,0,1,90.38,154Z"/><circle class="cls-3" cx="116.66" cy="153.97" r="7.51" transform="translate(-59.66 232.89) rotate(-76.96)"/><path class="cls-3" d="M156.72,154a7.51,7.51,0,1,1-7.51-7.51A7.51,7.51,0,0,1,156.72,154Z"/><path class="cls-3" d="M190.52,154a7.51,7.51,0,1,1-7.51-7.51A7.51,7.51,0,0,1,190.52,154Z"/><path class="cls-3" d="M223.07,154a7.51,7.51,0,1,1-7.51-7.51A7.51,7.51,0,0,1,223.07,154Z"/><path class="cls-3" d="M184,51c0,8.35-6.77,22.71-15.12,22.71S153.79,59.32,153.79,51s6.77-10.37,15.12-10.37S184,42.62,184,51Z"/><path class="cls-4" d="M170,39.43S185.15,38.7,184,52.79c0,0-6.34.93-13.33-9.6"/><path class="cls-4" d="M172.82,39.43s-21.52-3-19.06,13.36c0,0,8.84.93,15.83-9.6"/><path class="cls-4" d="M165.59,44.75s1.7,9.73,4.38,9.81c2.94.08,5.42-10.43,5.42-10.43l-5.94-3.34"/><rect class="cls-4" x="168.78" y="33.57" width="3" height="8"/></g></g></svg>