<svg xmlns="http://www.w3.org/2000/svg" viewBox="0 0 760.72 183.01"><defs><style>.cls-1{fill:#ffaf50;}.cls-2{fill:#f79e3c;}.cls-3{fill:#f47391;}.cls-4{fill:#ea5986;}.cls-5{fill:#66e2a4;}.cls-6{fill:#50d18d;}.cls-7{fill:#564538;}</style></defs><g id="Layer_2" data-name="Layer 2"><g id="Layer_1-2" data-name="Layer 1"><polygon class="cls-1" points="380.36 183.01 419.79 64.64 381.59 64.64 340.94 64.64 380.36 183.01"/><polyline class="cls-2" points="380.01 183.01 419.79 64.64 380.88 64.64"/><polygon class="cls-1" points="694.8 143.62 715.44 17.18 679.99 26.8 638.2 38.13 694.8 143.62"/><polyline class="cls-2" points="694.8 143.62 715.44 17.18 679.99 26.8"/><polygon class="cls-3" points="282.78 179.51 327.03 64.15 287.29 61.28 248.3 58.46 282.78 179.51"/><polyline class="cls-4" points="282.78 179.51 327.03 64.15 287.29 61.28"/><polygon class="cls-5" points="178.93 165.82 227.81 53.79 189.62 48.28 149.43 42.5 178.93 165.82"/><polyline class="cls-6" points="178.93 165.82 227.81 53.79 189.62 48.28"/><polygon class="cls-1" points="78.39 148.35 132.47 40.57 54.77 22.82 78.39 148.35"/><polygon class="cls-1" points="78.39 148.35 132.47 40.57 94.58 31.91 54.77 22.82 78.39 148.35"/><polyline class="cls-2" points="78.39 148.35 132.47 40.57 94.58 31.91"/><polygon class="cls-3" points="593.86 164.8 619.93 40.12 583.23 47.21 541.91 55.2 593.86 164.8"/><polygon class="cls-5" points="488.93 177.22 522.2 55.58 485.73 58.86 443.53 62.65 488.93 177.22"/><path class="cls-7" d="M380.36,65.45c-136.17,0-267.7-21-380.36-60.73L1.67,0C113.8,39.55,244.75,60.45,380.36,60.45S646.93,39.55,759.06,0l1.66,4.72C648.06,44.45,516.54,65.45,380.36,65.45Z"/></g></g></svg>