<svg xmlns="http://www.w3.org/2000/svg" viewBox="0 0 157.7 246.78"><defs><style>.cls-1{fill:#50d18d;}.cls-2{fill:#ffaf50;}.cls-3{fill:#564538;}.cls-4{fill:#f47391;}.cls-5{fill:none;}.cls-6{fill:#ea5986;}</style></defs><g id="Layer_2" data-name="Layer 2"><g id="Layer_1-2" data-name="Layer 1"><polyline class="cls-1" points="78.56 52.66 67.98 16.01 84.6 0"/><polyline class="cls-2" points="79.33 54.43 78.37 16.3 98.51 5.02"/><polyline class="cls-3" points="78.55 52.56 56.65 21.32 67.18 0.79"/><polygon class="cls-4" points="78.85 44.27 0 246.78 157.7 246.78 78.85 44.27"/><path class="cls-5" d="M125,162.77l-4.79-2.13L108,165.89l1.24-13.27-8.8-10,13-2.92L115,137,78.85,44,57.32,99.33l9.81-2.21,6.79-11.45,6.79,11.45,13,2.92-8.8,10,1.24,13.26L73.92,118,61.69,123.3,62.94,110l-6.79-7.59L0,246.78H157.7ZM63.62,243.48,51.39,238.2l-12.23,5.28,1.24-13.27-8.8-10,13-2.91,6.79-11.46,6.79,11.46,13,2.91-8.8,10Zm8.76-60.09-12.23-5.28-12.23,5.28,1.25-13.26-8.8-10,13-2.92,6.79-11.46,6.79,11.46,13,2.92-8.8,10ZM119,221.92l-12.23,5.28L108,213.94l-8.8-10,13-2.91L119,189.57,125.78,201l13,2.91-8.8,10,1.25,13.26Z"/><polygon class="cls-6" points="66.94 157.21 60.15 145.75 53.36 157.21 40.37 160.13 49.17 170.13 47.92 183.39 60.15 178.11 72.38 183.39 71.14 170.13 79.94 160.13 66.94 157.21"/><polygon class="cls-6" points="61.69 123.3 73.92 118.02 86.15 123.3 84.91 110.04 93.71 100.04 80.71 97.13 73.92 85.67 67.13 97.13 57.32 99.33 56.15 102.33 62.94 110.04 61.69 123.3"/><polygon class="cls-6" points="100.45 142.6 109.25 152.6 108.01 165.86 120.24 160.58 125.03 162.65 115.04 137 113.45 139.69 100.45 142.6"/><polygon class="cls-6" points="138.77 203.94 125.78 201.03 118.99 189.57 112.2 201.03 99.2 203.94 108 213.94 106.76 227.2 118.99 221.92 131.22 227.2 129.97 213.94 138.77 203.94"/><polygon class="cls-6" points="58.18 217.3 51.39 205.84 44.6 217.3 31.6 220.22 40.4 230.21 39.16 243.47 51.39 238.19 63.62 243.47 62.37 230.21 71.17 220.22 58.18 217.3"/></g></g></svg>