<svg xmlns="http://www.w3.org/2000/svg" viewBox="0 0 157.7 248.03"><defs><style>.cls-1{fill:#f47391;}.cls-2{fill:#66e2a4;}.cls-3{fill:#564538;}.cls-4{fill:#ffaf50;}.cls-5{fill:none;}.cls-6{fill:#f79e3c;}</style></defs><g id="Layer_2" data-name="Layer 2"><g id="Layer_1-2" data-name="Layer 1"><polyline class="cls-1" points="79.72 52.66 69.14 16.01 85.76 0"/><polyline class="cls-2" points="80.48 54.43 79.53 16.3 99.67 5.02"/><polyline class="cls-3" points="79.71 52.56 57.81 21.32 68.34 0.79"/><polygon class="cls-4" points="78.85 45.52 0 248.03 157.7 248.03 78.85 45.52"/><polygon class="cls-5" points="99.37 248.03 157.7 248.03 145.32 216.24 99.37 248.03"/><polygon class="cls-5" points="112.48 131.66 20.41 195.38 2.57 241.2 122.74 158.03 112.48 131.66"/><polygon class="cls-5" points="78.85 45.29 62.51 87.25 88.25 69.44 78.85 45.29"/><polygon class="cls-5" points="94.79 86.23 51.15 116.42 31.77 166.21 105.94 114.87 94.79 86.23"/><polygon class="cls-5" points="129.28 174.94 23.83 248.03 68.58 248.03 138.78 199.39 129.28 174.94"/><polygon class="cls-6" points="138.78 199.33 68.58 248.03 99.37 248.03 145.32 216.18 138.78 199.33"/><polygon class="cls-6" points="122.74 158.03 2.57 241.32 0 248.03 23.83 248.03 129.28 174.94 122.74 158.03"/><polygon class="cls-6" points="105.94 114.87 31.77 166.21 20.41 195.38 112.48 131.66 105.94 114.87"/><polygon class="cls-6" points="88.25 69.44 62.51 87.25 51.15 116.42 94.79 86.23 88.25 69.44"/></g></g></svg>