<svg xmlns="http://www.w3.org/2000/svg" viewBox="0 0 142.69 260.31"><defs><style>.cls-1{fill:#564538;}.cls-2{fill:#f47391;}.cls-3{fill:#fff;}</style></defs><g id="Layer_2" data-name="Layer 2"><g id="Layer_1-2" data-name="Layer 1"><rect class="cls-1" x="64.39" y="131.31" width="13" height="129"/><path class="cls-2" d="M142.69,68.56c0,37.87-31.94,68.57-71.34,68.57S0,106.43,0,68.56,31.94,0,71.35,0,142.69,30.7,142.69,68.56Z"/><path class="cls-3" d="M97.12,115c12.61-22,7.69-57.5-18.4-67.67C67.3,42.88,50.17,43,42.79,54.57,40,58.92,37.38,64.91,38.23,70.16c1.15,7.19,8.58,7.07,14.07,9.4,3.69,1.56,9.52,4.87,8.51,9.7C59.58,95.11,50.91,97.93,46,99,31.51,102.13,20,88.24,16.09,76,6.38,45,39.25,20.39,67.16,21.24c32.73,1,59.54,33.24,60.27,64.52.13,5.64,8.89,5.65,8.76,0-.67-28.67-18.16-54-43.75-66.45C67.18,7,36.8,12.24,18.16,33.7c-17.82,20.51-16,52.66,6.65,68.83,10.68,7.63,24.61,6.69,35.47.11C68.27,97.8,72.65,88.27,67,80c-2.17-3.19-5.45-5.45-8.8-7.26a45,45,0,0,0-5.81-2.46c-1.24-.43-2.49-.82-3.75-1.16-2.8-.8-1.81.48-1.81-1.28,0-5.24,4.2-10.23,8.43-12.56,5.43-3,12.38-2.2,18.06-.57,22.93,6.55,26.46,38.08,16.23,55.9-2.82,4.91,4.76,9.33,7.57,4.43Z"/></g></g></svg>